<svg width="342" height="74" viewBox="0 0 342 74" fill="none" xmlns="http://www.w3.org/2000/svg">
<g filter="url(#filter0_d_272_4388)">
<path d="M2 22C2 10.9543 10.9543 2 22 2H312C323.046 2 332 10.9543 332 22V42C332 53.0457 323.046 62 312 62H22C10.9543 62 2 53.0457 2 42V22Z" fill="white" stroke="#D7007B" stroke-width="4"/>
<path d="M25.774 23.072C27.698 23.072 29.2147 23.462 30.324 24.242C31.4507 25.022 32.014 26.218 32.014 27.83C32.014 28.9047 31.7627 29.8233 31.26 30.586C30.7747 31.3313 30.09 31.912 29.206 32.328C28.322 32.7267 27.2907 32.9433 26.112 32.978L25.644 31.366C27.048 31.3833 28.296 31.6087 29.388 32.042C30.48 32.458 31.3467 33.056 31.988 33.836C32.6293 34.5987 32.95 35.5087 32.95 36.566C32.95 37.554 32.768 38.3947 32.404 39.088C32.04 39.764 31.5547 40.3187 30.948 40.752C30.3413 41.1853 29.6567 41.506 28.894 41.714C28.1313 41.9047 27.334 42 26.502 42H20.6V23.072H25.774ZM26.268 31.132C27.1693 31.132 27.828 30.872 28.244 30.352C28.6773 29.8147 28.894 29.1907 28.894 28.48C28.894 27.6133 28.6253 26.9807 28.088 26.582C27.5507 26.1833 26.8227 25.984 25.904 25.984H23.642V31.132H26.268ZM26.372 39.192C27.0133 39.192 27.594 39.1053 28.114 38.932C28.634 38.7413 29.0413 38.4553 29.336 38.074C29.648 37.6753 29.804 37.1813 29.804 36.592C29.804 35.9333 29.622 35.422 29.258 35.058C28.9113 34.694 28.4607 34.434 27.906 34.278C27.3513 34.122 26.7707 34.044 26.164 34.044H23.642V39.192H26.372ZM41.007 42.286C39.967 42.286 39.0223 42.0693 38.173 41.636C37.341 41.2027 36.6823 40.5613 36.197 39.712C35.7116 38.8453 35.469 37.7793 35.469 36.514C35.469 35.266 35.7203 34.2 36.223 33.316C36.743 32.4147 37.419 31.7213 38.251 31.236C39.1003 30.7507 40.019 30.508 41.007 30.508C42.0643 30.508 42.9136 30.716 43.555 31.132C44.2136 31.548 44.725 32.042 45.089 32.614L44.933 33.03L45.219 31.002H47.897V42H44.985V39.322L45.271 40.024C45.2016 40.128 45.063 40.3013 44.855 40.544C44.647 40.7693 44.361 41.0207 43.997 41.298C43.633 41.5753 43.1996 41.8093 42.697 42C42.2116 42.1907 41.6483 42.286 41.007 42.286ZM41.813 39.894C42.333 39.894 42.801 39.7987 43.217 39.608C43.6503 39.4173 44.0143 39.1487 44.309 38.802C44.621 38.4553 44.8463 38.0393 44.985 37.554V35.162C44.8463 34.7113 44.621 34.3213 44.309 33.992C43.997 33.6453 43.6156 33.3767 43.165 33.186C42.7316 32.9953 42.2463 32.9 41.709 32.9C41.1196 32.9 40.5736 33.0473 40.071 33.342C39.5683 33.6367 39.161 34.044 38.849 34.564C38.5543 35.084 38.407 35.682 38.407 36.358C38.407 37.0167 38.563 37.6147 38.875 38.152C39.187 38.6893 39.603 39.114 40.123 39.426C40.643 39.738 41.2063 39.894 41.813 39.894ZM61.018 40.986C60.5327 41.3847 59.9347 41.7053 59.224 41.948C58.5307 42.1733 57.8287 42.286 57.118 42.286C55.9047 42.286 54.8387 42.052 53.92 41.584C53.0013 41.0987 52.282 40.4313 51.762 39.582C51.2593 38.7153 51.008 37.684 51.008 36.488C51.008 35.292 51.2767 34.2607 51.814 33.394C52.3687 32.5273 53.088 31.8687 53.972 31.418C54.8733 30.95 55.8267 30.716 56.832 30.716C57.7507 30.716 58.5653 30.846 59.276 31.106C59.9867 31.3487 60.602 31.6867 61.122 32.12L59.666 34.018C59.3887 33.7927 59.0247 33.5847 58.574 33.394C58.1407 33.186 57.6467 33.082 57.092 33.082C56.5027 33.082 55.9653 33.2293 55.48 33.524C55.012 33.8187 54.6307 34.226 54.336 34.746C54.0587 35.2487 53.92 35.8293 53.92 36.488C53.92 37.112 54.0673 37.684 54.362 38.204C54.6567 38.724 55.064 39.14 55.584 39.452C56.104 39.7467 56.702 39.894 57.378 39.894C57.8113 39.894 58.21 39.8333 58.574 39.712C58.9553 39.5733 59.2847 39.3913 59.562 39.166L61.018 40.986ZM64.004 42V21.72H66.916V42H64.004ZM69.646 34.616L74.664 42H71.284L67.722 36.28L69.646 34.616ZM66.032 38.698L65.746 35.89L72.428 30.742L74.196 32.302L66.032 38.698ZM86.8291 26.166H89.7671V31.002H92.6271V33.29H89.7671V42H86.8291V33.29H84.9571V31.002H86.8291V26.166ZM94.5783 36.384C94.5783 35.2747 94.8383 34.278 95.3583 33.394C95.8783 32.4927 96.6063 31.7907 97.5423 31.288C98.4957 30.768 99.5703 30.508 100.766 30.508C101.997 30.508 103.063 30.768 103.964 31.288C104.883 31.7907 105.594 32.4927 106.096 33.394C106.599 34.278 106.85 35.2747 106.85 36.384C106.85 37.4933 106.599 38.4987 106.096 39.4C105.594 40.284 104.883 40.986 103.964 41.506C103.063 42.026 101.988 42.286 100.74 42.286C99.5617 42.286 98.5043 42.052 97.5683 41.584C96.6323 41.0987 95.8957 40.414 95.3583 39.53C94.8383 38.646 94.5783 37.5973 94.5783 36.384ZM97.5163 36.41C97.5163 37.0513 97.655 37.6407 97.9323 38.178C98.2097 38.698 98.591 39.114 99.0763 39.426C99.5617 39.738 100.099 39.894 100.688 39.894C101.33 39.894 101.884 39.738 102.352 39.426C102.838 39.114 103.21 38.698 103.47 38.178C103.748 37.6407 103.886 37.0513 103.886 36.41C103.886 35.7513 103.748 35.162 103.47 34.642C103.21 34.1047 102.838 33.68 102.352 33.368C101.884 33.056 101.33 32.9 100.688 32.9C100.082 32.9 99.5357 33.0647 99.0503 33.394C98.5823 33.706 98.2097 34.122 97.9323 34.642C97.655 35.162 97.5163 35.7513 97.5163 36.41ZM124.166 23.072C125.206 23.072 126.16 23.2107 127.026 23.488C127.893 23.748 128.63 24.138 129.236 24.658C129.843 25.178 130.311 25.8193 130.64 26.582C130.987 27.3273 131.16 28.1853 131.16 29.156C131.16 29.9013 131.048 30.6467 130.822 31.392C130.597 32.1373 130.224 32.8133 129.704 33.42C129.202 34.0267 128.534 34.512 127.702 34.876C126.87 35.24 125.839 35.422 124.608 35.422H121.878V42H118.836V23.072H124.166ZM124.582 32.51C125.258 32.51 125.822 32.406 126.272 32.198C126.723 31.9727 127.07 31.6953 127.312 31.366C127.572 31.0367 127.754 30.69 127.858 30.326C127.98 29.9447 128.04 29.5893 128.04 29.26C128.04 28.948 127.988 28.61 127.884 28.246C127.78 27.8647 127.607 27.5093 127.364 27.18C127.122 26.8333 126.775 26.5473 126.324 26.322C125.891 26.0967 125.345 25.984 124.686 25.984H121.878V32.51H124.582ZM127.858 34.304L132.694 42H129.184L124.244 34.382L127.858 34.304ZM140.502 42.286C139.202 42.286 138.093 42.0347 137.174 41.532C136.255 41.0293 135.553 40.336 135.068 39.452C134.583 38.5507 134.34 37.5367 134.34 36.41C134.34 35.3007 134.617 34.304 135.172 33.42C135.727 32.536 136.472 31.834 137.408 31.314C138.361 30.7767 139.41 30.508 140.554 30.508C142.062 30.508 143.301 30.95 144.272 31.834C145.26 32.7007 145.919 33.9313 146.248 35.526L137.382 38.516L136.706 36.878L143.622 34.408L143.024 34.746C142.833 34.226 142.521 33.7753 142.088 33.394C141.672 33.0127 141.083 32.822 140.32 32.822C139.713 32.822 139.176 32.9693 138.708 33.264C138.24 33.5413 137.867 33.94 137.59 34.46C137.33 34.9627 137.2 35.5607 137.2 36.254C137.2 36.9647 137.347 37.5887 137.642 38.126C137.937 38.6633 138.335 39.0793 138.838 39.374C139.341 39.6513 139.913 39.79 140.554 39.79C141.005 39.79 141.438 39.712 141.854 39.556C142.27 39.4 142.66 39.192 143.024 38.932L144.35 41.09C143.778 41.454 143.145 41.7487 142.452 41.974C141.776 42.182 141.126 42.286 140.502 42.286ZM152.415 42.234C151.583 42.234 150.786 42.0867 150.023 41.792C149.278 41.4973 148.645 41.064 148.125 40.492L149.373 38.854C149.859 39.322 150.335 39.6687 150.803 39.894C151.289 40.102 151.748 40.206 152.181 40.206C152.511 40.206 152.805 40.1713 153.065 40.102C153.343 40.0153 153.559 39.8853 153.715 39.712C153.889 39.5387 153.975 39.3047 153.975 39.01C153.975 38.6633 153.854 38.3947 153.611 38.204C153.369 37.996 153.057 37.8313 152.675 37.71C152.294 37.5713 151.895 37.4413 151.479 37.32C150.526 37.0253 149.815 36.592 149.347 36.02C148.879 35.448 148.645 34.7893 148.645 34.044C148.645 33.472 148.793 32.926 149.087 32.406C149.382 31.8687 149.833 31.4267 150.439 31.08C151.046 30.7333 151.809 30.56 152.727 30.56C153.559 30.56 154.279 30.6553 154.885 30.846C155.509 31.0193 156.09 31.3227 156.627 31.756L155.509 33.498C155.197 33.2033 154.825 32.978 154.391 32.822C153.975 32.6487 153.594 32.5533 153.247 32.536C152.935 32.5187 152.658 32.562 152.415 32.666C152.173 32.7527 151.973 32.8827 151.817 33.056C151.679 33.2293 151.609 33.4287 151.609 33.654C151.592 34.0007 151.705 34.278 151.947 34.486C152.207 34.694 152.537 34.8587 152.935 34.98C153.334 35.1013 153.733 35.2313 154.131 35.37C154.669 35.526 155.145 35.7427 155.561 36.02C155.977 36.2973 156.298 36.6353 156.523 37.034C156.766 37.4153 156.887 37.892 156.887 38.464C156.887 39.1227 156.723 39.7467 156.393 40.336C156.064 40.908 155.57 41.3673 154.911 41.714C154.253 42.0607 153.421 42.234 152.415 42.234ZM163.643 42.468C162.638 42.468 161.806 42.1647 161.147 41.558C160.489 40.934 160.142 40.1367 160.107 39.166V31.002H163.019V38.126C163.054 38.6633 163.21 39.1053 163.487 39.452C163.765 39.7987 164.207 39.972 164.813 39.972C165.385 39.972 165.897 39.7987 166.347 39.452C166.798 39.088 167.145 38.594 167.387 37.97C167.647 37.346 167.777 36.644 167.777 35.864V31.002H170.689V42H168.063L167.829 39.582L167.907 39.972C167.682 40.44 167.361 40.8733 166.945 41.272C166.529 41.6533 166.035 41.948 165.463 42.156C164.909 42.364 164.302 42.468 163.643 42.468ZM174.707 21.72H177.619V42H174.707V21.72ZM182.653 26.166H185.591V31.002H188.451V33.29H185.591V42H182.653V33.29H180.781V31.002H182.653V26.166ZM194.615 42.234C193.783 42.234 192.985 42.0867 192.223 41.792C191.477 41.4973 190.845 41.064 190.325 40.492L191.573 38.854C192.058 39.322 192.535 39.6687 193.003 39.894C193.488 40.102 193.947 40.206 194.381 40.206C194.71 40.206 195.005 40.1713 195.265 40.102C195.542 40.0153 195.759 39.8853 195.915 39.712C196.088 39.5387 196.175 39.3047 196.175 39.01C196.175 38.6633 196.053 38.3947 195.811 38.204C195.568 37.996 195.256 37.8313 194.875 37.71C194.493 37.5713 194.095 37.4413 193.679 37.32C192.725 37.0253 192.015 36.592 191.547 36.02C191.079 35.448 190.845 34.7893 190.845 34.044C190.845 33.472 190.992 32.926 191.287 32.406C191.581 31.8687 192.032 31.4267 192.639 31.08C193.245 30.7333 194.008 30.56 194.927 30.56C195.759 30.56 196.478 30.6553 197.085 30.846C197.709 31.0193 198.289 31.3227 198.827 31.756L197.709 33.498C197.397 33.2033 197.024 32.978 196.591 32.822C196.175 32.6487 195.793 32.5533 195.447 32.536C195.135 32.5187 194.857 32.562 194.615 32.666C194.372 32.7527 194.173 32.8827 194.017 33.056C193.878 33.2293 193.809 33.4287 193.809 33.654C193.791 34.0007 193.904 34.278 194.147 34.486C194.407 34.694 194.736 34.8587 195.135 34.98C195.533 35.1013 195.932 35.2313 196.331 35.37C196.868 35.526 197.345 35.7427 197.761 36.02C198.177 36.2973 198.497 36.6353 198.723 37.034C198.965 37.4153 199.087 37.892 199.087 38.464C199.087 39.1227 198.922 39.7467 198.593 40.336C198.263 40.908 197.769 41.3673 197.111 41.714C196.452 42.0607 195.62 42.234 194.615 42.234ZM213.209 23.072L219.163 37.892L217.421 37.554L222.959 23.072H226.547L218.071 42.884L209.595 23.072H213.209ZM229.272 31.002H232.184V42H229.272V31.002ZM229.142 27.076C229.142 26.6253 229.315 26.2527 229.662 25.958C230.026 25.6633 230.416 25.516 230.832 25.516C231.248 25.516 231.62 25.6633 231.95 25.958C232.296 26.2527 232.47 26.6253 232.47 27.076C232.47 27.5267 232.296 27.8993 231.95 28.194C231.62 28.4713 231.248 28.61 230.832 28.61C230.416 28.61 230.026 28.4627 229.662 28.168C229.315 27.8733 229.142 27.5093 229.142 27.076ZM241.43 42.286C240.13 42.286 239.02 42.0347 238.102 41.532C237.183 41.0293 236.481 40.336 235.996 39.452C235.51 38.5507 235.268 37.5367 235.268 36.41C235.268 35.3007 235.545 34.304 236.1 33.42C236.654 32.536 237.4 31.834 238.336 31.314C239.289 30.7767 240.338 30.508 241.482 30.508C242.99 30.508 244.229 30.95 245.2 31.834C246.188 32.7007 246.846 33.9313 247.176 35.526L238.31 38.516L237.634 36.878L244.55 34.408L243.952 34.746C243.761 34.226 243.449 33.7753 243.016 33.394C242.6 33.0127 242.01 32.822 241.248 32.822C240.641 32.822 240.104 32.9693 239.636 33.264C239.168 33.5413 238.795 33.94 238.518 34.46C238.258 34.9627 238.128 35.5607 238.128 36.254C238.128 36.9647 238.275 37.5887 238.57 38.126C238.864 38.6633 239.263 39.0793 239.766 39.374C240.268 39.6513 240.84 39.79 241.482 39.79C241.932 39.79 242.366 39.712 242.782 39.556C243.198 39.4 243.588 39.192 243.952 38.932L245.278 41.09C244.706 41.454 244.073 41.7487 243.38 41.974C242.704 42.182 242.054 42.286 241.43 42.286ZM257.121 31.002L260.007 37.684L259.461 37.736L262.087 31.002H264.947L259.929 42.65L256.393 35.214L253.169 42.65L248.099 31.002H250.959L254.053 38.074L253.039 37.892L255.353 32.64L254.599 31.002H257.121Z" fill="#D7007B"/>
<path fill-rule="evenodd" clip-rule="evenodd" d="M300.439 18.0866C300.447 17.259 299.556 16.7335 298.835 17.1408L277.546 29.1742C276.826 29.5815 276.816 30.616 277.529 31.0364L298.595 43.4566C299.308 43.8769 300.209 43.3679 300.216 42.5402L300.29 34.493C307.076 34.911 313.927 37.2404 315.906 43.6459C316.17 44.5006 316.385 45.3726 316.559 46.2534C316.826 47.6057 318.625 48.1055 318.78 46.7358C319.368 41.5351 317.801 35.758 314.238 31.9244C310.776 28.1996 306.518 27.0436 300.365 26.2234L300.439 18.0866Z" fill="#D7007B"/>
</g>
<defs>
<filter id="filter0_d_272_4388" x="0" y="0" width="342" height="74" filterUnits="userSpaceOnUse" color-interpolation-filters="sRGB">
<feFlood flood-opacity="0" result="BackgroundImageFix"/>
<feColorMatrix in="SourceAlpha" type="matrix" values="0 0 0 0 0 0 0 0 0 0 0 0 0 0 0 0 0 0 127 0" result="hardAlpha"/>
<feOffset dx="4" dy="6"/>
<feGaussianBlur stdDeviation="2"/>
<feColorMatrix type="matrix" values="0 0 0 0 0 0 0 0 0 0 0 0 0 0 0 0 0 0 0.25 0"/>
<feBlend mode="normal" in2="BackgroundImageFix" result="effect1_dropShadow_272_4388"/>
<feBlend mode="normal" in="SourceGraphic" in2="effect1_dropShadow_272_4388" result="shape"/>
</filter>
</defs>
</svg>
