<svg width="338" height="70" viewBox="0 0 338 70" fill="none" xmlns="http://www.w3.org/2000/svg">
<g filter="url(#filter0_d_249_3703)">
<path d="M0 20C0 8.9543 8.95431 0 20 0H310C321.046 0 330 8.95431 330 20V40C330 51.0457 321.046 60 310 60H20C8.95431 60 0 51.0457 0 40V20Z" fill="white"/>
<path d="M2.00909 20C2.00909 10.0639 10.0639 2.00909 20 2.00909H310C319.936 2.00909 327.991 10.0639 327.991 20V40C327.991 49.9361 319.936 57.9909 310 57.9909H20C10.0639 57.9909 2.00909 49.9361 2.00909 40V20Z" stroke="#D7007B" stroke-width="4.01818"/>
</g>
<path d="M23.774 21.072C25.698 21.072 27.2147 21.462 28.324 22.242C29.4507 23.022 30.014 24.218 30.014 25.83C30.014 26.9047 29.7627 27.8233 29.26 28.586C28.7747 29.3313 28.09 29.912 27.206 30.328C26.322 30.7267 25.2907 30.9433 24.112 30.978L23.644 29.366C25.048 29.3833 26.296 29.6087 27.388 30.042C28.48 30.458 29.3467 31.056 29.988 31.836C30.6293 32.5987 30.95 33.5087 30.95 34.566C30.95 35.554 30.768 36.3947 30.404 37.088C30.04 37.764 29.5547 38.3187 28.948 38.752C28.3413 39.1853 27.6567 39.506 26.894 39.714C26.1313 39.9047 25.334 40 24.502 40H18.6V21.072H23.774ZM24.268 29.132C25.1693 29.132 25.828 28.872 26.244 28.352C26.6773 27.8147 26.894 27.1907 26.894 26.48C26.894 25.6133 26.6253 24.9807 26.088 24.582C25.5507 24.1833 24.8227 23.984 23.904 23.984H21.642V29.132H24.268ZM24.372 37.192C25.0133 37.192 25.594 37.1053 26.114 36.932C26.634 36.7413 27.0413 36.4553 27.336 36.074C27.648 35.6753 27.804 35.1813 27.804 34.592C27.804 33.9333 27.622 33.422 27.258 33.058C26.9113 32.694 26.4607 32.434 25.906 32.278C25.3513 32.122 24.7707 32.044 24.164 32.044H21.642V37.192H24.372ZM39.007 40.286C37.967 40.286 37.0223 40.0693 36.173 39.636C35.341 39.2027 34.6823 38.5613 34.197 37.712C33.7116 36.8453 33.469 35.7793 33.469 34.514C33.469 33.266 33.7203 32.2 34.223 31.316C34.743 30.4147 35.419 29.7213 36.251 29.236C37.1003 28.7507 38.019 28.508 39.007 28.508C40.0643 28.508 40.9136 28.716 41.555 29.132C42.2136 29.548 42.725 30.042 43.089 30.614L42.933 31.03L43.219 29.002H45.897V40H42.985V37.322L43.271 38.024C43.2016 38.128 43.063 38.3013 42.855 38.544C42.647 38.7693 42.361 39.0207 41.997 39.298C41.633 39.5753 41.1996 39.8093 40.697 40C40.2116 40.1907 39.6483 40.286 39.007 40.286ZM39.813 37.894C40.333 37.894 40.801 37.7987 41.217 37.608C41.6503 37.4173 42.0143 37.1487 42.309 36.802C42.621 36.4553 42.8463 36.0393 42.985 35.554V33.162C42.8463 32.7113 42.621 32.3213 42.309 31.992C41.997 31.6453 41.6156 31.3767 41.165 31.186C40.7316 30.9953 40.2463 30.9 39.709 30.9C39.1196 30.9 38.5736 31.0473 38.071 31.342C37.5683 31.6367 37.161 32.044 36.849 32.564C36.5543 33.084 36.407 33.682 36.407 34.358C36.407 35.0167 36.563 35.6147 36.875 36.152C37.187 36.6893 37.603 37.114 38.123 37.426C38.643 37.738 39.2063 37.894 39.813 37.894ZM59.018 38.986C58.5327 39.3847 57.9347 39.7053 57.224 39.948C56.5307 40.1733 55.8287 40.286 55.118 40.286C53.9047 40.286 52.8387 40.052 51.92 39.584C51.0013 39.0987 50.282 38.4313 49.762 37.582C49.2593 36.7153 49.008 35.684 49.008 34.488C49.008 33.292 49.2767 32.2607 49.814 31.394C50.3687 30.5273 51.088 29.8687 51.972 29.418C52.8733 28.95 53.8267 28.716 54.832 28.716C55.7507 28.716 56.5653 28.846 57.276 29.106C57.9867 29.3487 58.602 29.6867 59.122 30.12L57.666 32.018C57.3887 31.7927 57.0247 31.5847 56.574 31.394C56.1407 31.186 55.6467 31.082 55.092 31.082C54.5027 31.082 53.9653 31.2293 53.48 31.524C53.012 31.8187 52.6307 32.226 52.336 32.746C52.0587 33.2487 51.92 33.8293 51.92 34.488C51.92 35.112 52.0673 35.684 52.362 36.204C52.6567 36.724 53.064 37.14 53.584 37.452C54.104 37.7467 54.702 37.894 55.378 37.894C55.8113 37.894 56.21 37.8333 56.574 37.712C56.9553 37.5733 57.2847 37.3913 57.562 37.166L59.018 38.986ZM62.004 40V19.72H64.916V40H62.004ZM67.646 32.616L72.664 40H69.284L65.722 34.28L67.646 32.616ZM64.032 36.698L63.746 33.89L70.428 28.742L72.196 30.302L64.032 36.698ZM84.8291 24.166H87.7671V29.002H90.6271V31.29H87.7671V40H84.8291V31.29H82.9571V29.002H84.8291V24.166ZM92.5783 34.384C92.5783 33.2747 92.8383 32.278 93.3583 31.394C93.8783 30.4927 94.6063 29.7907 95.5423 29.288C96.4957 28.768 97.5703 28.508 98.7663 28.508C99.997 28.508 101.063 28.768 101.964 29.288C102.883 29.7907 103.594 30.4927 104.096 31.394C104.599 32.278 104.85 33.2747 104.85 34.384C104.85 35.4933 104.599 36.4987 104.096 37.4C103.594 38.284 102.883 38.986 101.964 39.506C101.063 40.026 99.9883 40.286 98.7403 40.286C97.5617 40.286 96.5043 40.052 95.5683 39.584C94.6323 39.0987 93.8957 38.414 93.3583 37.53C92.8383 36.646 92.5783 35.5973 92.5783 34.384ZM95.5163 34.41C95.5163 35.0513 95.655 35.6407 95.9323 36.178C96.2097 36.698 96.591 37.114 97.0763 37.426C97.5617 37.738 98.099 37.894 98.6883 37.894C99.3297 37.894 99.8843 37.738 100.352 37.426C100.838 37.114 101.21 36.698 101.47 36.178C101.748 35.6407 101.886 35.0513 101.886 34.41C101.886 33.7513 101.748 33.162 101.47 32.642C101.21 32.1047 100.838 31.68 100.352 31.368C99.8843 31.056 99.3297 30.9 98.6883 30.9C98.0817 30.9 97.5357 31.0647 97.0503 31.394C96.5823 31.706 96.2097 32.122 95.9323 32.642C95.655 33.162 95.5163 33.7513 95.5163 34.41ZM122.166 21.072C123.206 21.072 124.16 21.2107 125.026 21.488C125.893 21.748 126.63 22.138 127.236 22.658C127.843 23.178 128.311 23.8193 128.64 24.582C128.987 25.3273 129.16 26.1853 129.16 27.156C129.16 27.9013 129.048 28.6467 128.822 29.392C128.597 30.1373 128.224 30.8133 127.704 31.42C127.202 32.0267 126.534 32.512 125.702 32.876C124.87 33.24 123.839 33.422 122.608 33.422H119.878V40H116.836V21.072H122.166ZM122.582 30.51C123.258 30.51 123.822 30.406 124.272 30.198C124.723 29.9727 125.07 29.6953 125.312 29.366C125.572 29.0367 125.754 28.69 125.858 28.326C125.98 27.9447 126.04 27.5893 126.04 27.26C126.04 26.948 125.988 26.61 125.884 26.246C125.78 25.8647 125.607 25.5093 125.364 25.18C125.122 24.8333 124.775 24.5473 124.324 24.322C123.891 24.0967 123.345 23.984 122.686 23.984H119.878V30.51H122.582ZM125.858 32.304L130.694 40H127.184L122.244 32.382L125.858 32.304ZM138.502 40.286C137.202 40.286 136.093 40.0347 135.174 39.532C134.255 39.0293 133.553 38.336 133.068 37.452C132.583 36.5507 132.34 35.5367 132.34 34.41C132.34 33.3007 132.617 32.304 133.172 31.42C133.727 30.536 134.472 29.834 135.408 29.314C136.361 28.7767 137.41 28.508 138.554 28.508C140.062 28.508 141.301 28.95 142.272 29.834C143.26 30.7007 143.919 31.9313 144.248 33.526L135.382 36.516L134.706 34.878L141.622 32.408L141.024 32.746C140.833 32.226 140.521 31.7753 140.088 31.394C139.672 31.0127 139.083 30.822 138.32 30.822C137.713 30.822 137.176 30.9693 136.708 31.264C136.24 31.5413 135.867 31.94 135.59 32.46C135.33 32.9627 135.2 33.5607 135.2 34.254C135.2 34.9647 135.347 35.5887 135.642 36.126C135.937 36.6633 136.335 37.0793 136.838 37.374C137.341 37.6513 137.913 37.79 138.554 37.79C139.005 37.79 139.438 37.712 139.854 37.556C140.27 37.4 140.66 37.192 141.024 36.932L142.35 39.09C141.778 39.454 141.145 39.7487 140.452 39.974C139.776 40.182 139.126 40.286 138.502 40.286ZM150.415 40.234C149.583 40.234 148.786 40.0867 148.023 39.792C147.278 39.4973 146.645 39.064 146.125 38.492L147.373 36.854C147.859 37.322 148.335 37.6687 148.803 37.894C149.289 38.102 149.748 38.206 150.181 38.206C150.511 38.206 150.805 38.1713 151.065 38.102C151.343 38.0153 151.559 37.8853 151.715 37.712C151.889 37.5387 151.975 37.3047 151.975 37.01C151.975 36.6633 151.854 36.3947 151.611 36.204C151.369 35.996 151.057 35.8313 150.675 35.71C150.294 35.5713 149.895 35.4413 149.479 35.32C148.526 35.0253 147.815 34.592 147.347 34.02C146.879 33.448 146.645 32.7893 146.645 32.044C146.645 31.472 146.793 30.926 147.087 30.406C147.382 29.8687 147.833 29.4267 148.439 29.08C149.046 28.7333 149.809 28.56 150.727 28.56C151.559 28.56 152.279 28.6553 152.885 28.846C153.509 29.0193 154.09 29.3227 154.627 29.756L153.509 31.498C153.197 31.2033 152.825 30.978 152.391 30.822C151.975 30.6487 151.594 30.5533 151.247 30.536C150.935 30.5187 150.658 30.562 150.415 30.666C150.173 30.7527 149.973 30.8827 149.817 31.056C149.679 31.2293 149.609 31.4287 149.609 31.654C149.592 32.0007 149.705 32.278 149.947 32.486C150.207 32.694 150.537 32.8587 150.935 32.98C151.334 33.1013 151.733 33.2313 152.131 33.37C152.669 33.526 153.145 33.7427 153.561 34.02C153.977 34.2973 154.298 34.6353 154.523 35.034C154.766 35.4153 154.887 35.892 154.887 36.464C154.887 37.1227 154.723 37.7467 154.393 38.336C154.064 38.908 153.57 39.3673 152.911 39.714C152.253 40.0607 151.421 40.234 150.415 40.234ZM161.643 40.468C160.638 40.468 159.806 40.1647 159.147 39.558C158.489 38.934 158.142 38.1367 158.107 37.166V29.002H161.019V36.126C161.054 36.6633 161.21 37.1053 161.487 37.452C161.765 37.7987 162.207 37.972 162.813 37.972C163.385 37.972 163.897 37.7987 164.347 37.452C164.798 37.088 165.145 36.594 165.387 35.97C165.647 35.346 165.777 34.644 165.777 33.864V29.002H168.689V40H166.063L165.829 37.582L165.907 37.972C165.682 38.44 165.361 38.8733 164.945 39.272C164.529 39.6533 164.035 39.948 163.463 40.156C162.909 40.364 162.302 40.468 161.643 40.468ZM172.707 19.72H175.619V40H172.707V19.72ZM180.653 24.166H183.591V29.002H186.451V31.29H183.591V40H180.653V31.29H178.781V29.002H180.653V24.166ZM192.615 40.234C191.783 40.234 190.985 40.0867 190.223 39.792C189.477 39.4973 188.845 39.064 188.325 38.492L189.573 36.854C190.058 37.322 190.535 37.6687 191.003 37.894C191.488 38.102 191.947 38.206 192.381 38.206C192.71 38.206 193.005 38.1713 193.265 38.102C193.542 38.0153 193.759 37.8853 193.915 37.712C194.088 37.5387 194.175 37.3047 194.175 37.01C194.175 36.6633 194.053 36.3947 193.811 36.204C193.568 35.996 193.256 35.8313 192.875 35.71C192.493 35.5713 192.095 35.4413 191.679 35.32C190.725 35.0253 190.015 34.592 189.547 34.02C189.079 33.448 188.845 32.7893 188.845 32.044C188.845 31.472 188.992 30.926 189.287 30.406C189.581 29.8687 190.032 29.4267 190.639 29.08C191.245 28.7333 192.008 28.56 192.927 28.56C193.759 28.56 194.478 28.6553 195.085 28.846C195.709 29.0193 196.289 29.3227 196.827 29.756L195.709 31.498C195.397 31.2033 195.024 30.978 194.591 30.822C194.175 30.6487 193.793 30.5533 193.447 30.536C193.135 30.5187 192.857 30.562 192.615 30.666C192.372 30.7527 192.173 30.8827 192.017 31.056C191.878 31.2293 191.809 31.4287 191.809 31.654C191.791 32.0007 191.904 32.278 192.147 32.486C192.407 32.694 192.736 32.8587 193.135 32.98C193.533 33.1013 193.932 33.2313 194.331 33.37C194.868 33.526 195.345 33.7427 195.761 34.02C196.177 34.2973 196.497 34.6353 196.723 35.034C196.965 35.4153 197.087 35.892 197.087 36.464C197.087 37.1227 196.922 37.7467 196.593 38.336C196.263 38.908 195.769 39.3673 195.111 39.714C194.452 40.0607 193.62 40.234 192.615 40.234ZM211.209 21.072L217.163 35.892L215.421 35.554L220.959 21.072H224.547L216.071 40.884L207.595 21.072H211.209ZM227.272 29.002H230.184V40H227.272V29.002ZM227.142 25.076C227.142 24.6253 227.315 24.2527 227.662 23.958C228.026 23.6633 228.416 23.516 228.832 23.516C229.248 23.516 229.62 23.6633 229.95 23.958C230.296 24.2527 230.47 24.6253 230.47 25.076C230.47 25.5267 230.296 25.8993 229.95 26.194C229.62 26.4713 229.248 26.61 228.832 26.61C228.416 26.61 228.026 26.4627 227.662 26.168C227.315 25.8733 227.142 25.5093 227.142 25.076ZM239.43 40.286C238.13 40.286 237.02 40.0347 236.102 39.532C235.183 39.0293 234.481 38.336 233.996 37.452C233.51 36.5507 233.268 35.5367 233.268 34.41C233.268 33.3007 233.545 32.304 234.1 31.42C234.654 30.536 235.4 29.834 236.336 29.314C237.289 28.7767 238.338 28.508 239.482 28.508C240.99 28.508 242.229 28.95 243.2 29.834C244.188 30.7007 244.846 31.9313 245.176 33.526L236.31 36.516L235.634 34.878L242.55 32.408L241.952 32.746C241.761 32.226 241.449 31.7753 241.016 31.394C240.6 31.0127 240.01 30.822 239.248 30.822C238.641 30.822 238.104 30.9693 237.636 31.264C237.168 31.5413 236.795 31.94 236.518 32.46C236.258 32.9627 236.128 33.5607 236.128 34.254C236.128 34.9647 236.275 35.5887 236.57 36.126C236.864 36.6633 237.263 37.0793 237.766 37.374C238.268 37.6513 238.84 37.79 239.482 37.79C239.932 37.79 240.366 37.712 240.782 37.556C241.198 37.4 241.588 37.192 241.952 36.932L243.278 39.09C242.706 39.454 242.073 39.7487 241.38 39.974C240.704 40.182 240.054 40.286 239.43 40.286ZM255.121 29.002L258.007 35.684L257.461 35.736L260.087 29.002H262.947L257.929 40.65L254.393 33.214L251.169 40.65L246.099 29.002H248.959L252.053 36.074L251.039 35.892L253.353 30.64L252.599 29.002H255.121Z" fill="#D7007B"/>
<path fill-rule="evenodd" clip-rule="evenodd" d="M298.439 16.0866C298.447 15.259 297.556 14.7335 296.835 15.1408L275.546 27.1742C274.826 27.5815 274.816 28.616 275.529 29.0364L296.595 41.4566C297.308 41.8769 298.209 41.3679 298.216 40.5402L298.29 32.493C305.076 32.911 311.927 35.2404 313.906 41.6459C314.17 42.5006 314.385 43.3726 314.559 44.2534C314.826 45.6057 316.625 46.1055 316.78 44.7358C317.368 39.5351 315.801 33.758 312.238 29.9244C308.776 26.1996 304.518 25.0436 298.365 24.2234L298.439 16.0866Z" fill="#D7007B"/>
<defs>
<filter id="filter0_d_249_3703" x="0" y="0" width="338" height="70" filterUnits="userSpaceOnUse" color-interpolation-filters="sRGB">
<feFlood flood-opacity="0" result="BackgroundImageFix"/>
<feColorMatrix in="SourceAlpha" type="matrix" values="0 0 0 0 0 0 0 0 0 0 0 0 0 0 0 0 0 0 127 0" result="hardAlpha"/>
<feOffset dx="4" dy="6"/>
<feGaussianBlur stdDeviation="2"/>
<feComposite in2="hardAlpha" operator="out"/>
<feColorMatrix type="matrix" values="0 0 0 0 0 0 0 0 0 0 0 0 0 0 0 0 0 0 0.25 0"/>
<feBlend mode="normal" in2="BackgroundImageFix" result="effect1_dropShadow_249_3703"/>
<feBlend mode="normal" in="SourceGraphic" in2="effect1_dropShadow_249_3703" result="shape"/>
</filter>
</defs>
</svg>
