<?xml version="1.0" encoding="utf-8"?>
<!-- Svg Vector Icons : http://www.onlinewebfonts.com/icon -->
<!DOCTYPE svg PUBLIC "-//W3C//DTD SVG 1.1//EN" "http://www.w3.org/Graphics/SVG/1.1/DTD/svg11.dtd">
<svg version="1.1" xmlns="http://www.w3.org/2000/svg" xmlns:xlink="http://www.w3.org/1999/xlink" x="0px" y="0px" viewBox="0 0 256 256" enable-background="new 0 0 256 256" xml:space="preserve">
<metadata> Svg Vector Icons : http://www.onlinewebfonts.com/icon </metadata>
<g><g><g><path fill="#ef0ca2" d="M114.1,10.7c-44,5.3-80.6,33.9-96.6,75.2c-4.8,12.5-7.1,24.1-7.5,38.7c-0.4,15.7,1.2,27.1,5.9,41.3c14.2,42.6,51,72.8,96.8,79.5c7,1.1,24.5,0.9,32-0.3c38.8-6,71-29.1,88.5-63.7c7.5-14.8,11.4-29.3,12.4-46.1c2.4-38.1-13.9-75.1-43.6-99.1C177.5,16.3,145.2,7,114.1,10.7z M105.9,57.6c2.7,2.1,3,3.3,3,13.9v9.8l1.7,0.3c31.7,4.5,51.3,11.1,69.9,23.8c6.2,4.2,16.2,14.1,19.8,19.6c11.4,17.7,9.6,37.3-5.1,54.5c-8,9.4-23.6,19.6-38.9,25.5c-5.3,2.1-6.9,2.1-8.4,0.1c-1.9-2.5-0.9-3.9,5.1-7.2c10.3-5.9,16.8-11.9,20.2-18.6c9.9-19.7-6.4-38.7-40.7-47.3c-5.8-1.5-17.8-3.4-21.3-3.4h-2.2l-0.2,10.9l-0.2,10.9l-2,1.8c-2.6,2.4-5.9,2.5-8.5,0.3c-8.7-7.5-48.6-42.6-49.4-43.5c-1.3-1.4-1.5-5.7-0.3-7.1c0.6-0.7,39.5-35,49.4-43.5C100.4,56.1,103.6,55.9,105.9,57.6z"/></g></g></g>
</svg>