<svg width="83" height="78" viewBox="0 0 83 78" fill="none" xmlns="http://www.w3.org/2000/svg">
<path d="M0 18.4474C0 13.4767 4.02958 9.4471 9.00032 9.4471H73.3526C78.3234 9.4471 82.3529 13.4767 82.3529 18.4474V68.3992C82.3529 73.3699 78.3234 77.3995 73.3526 77.3995H9.00031C4.02957 77.3995 0 73.3699 0 68.3992V18.4474Z" fill="#C8C9C0"/>
<path d="M0 16.6474C0 11.6766 4.02958 7.64706 9.00032 7.64706H73.3526C78.3234 7.64706 82.3529 11.6766 82.3529 16.6474V32.848H0V16.6474Z" fill="#E36554"/>
<rect x="60" width="10" height="25.8824" rx="2.94118" fill="#BCB6B6"/>
<rect x="11.1765" width="10" height="25.8824" rx="2.94118" fill="#BCB6B6"/>
<rect x="11.1765" y="14.7059" width="10" height="11.1765" rx="2.94118" fill="#9E9E9E"/>
<rect x="60" y="14.7059" width="10" height="11.1765" rx="2.94118" fill="#9E9E9E"/>
</svg>
