<svg width="83" height="78" viewBox="0 0 83 78" fill="none" xmlns="http://www.w3.org/2000/svg">
<g clip-path="url(#clip0_0_1)">
<path d="M0.529297 18.4476C0.529297 13.4769 4.55888 9.44727 9.52962 9.44727H73.8819C78.8527 9.44727 82.8822 13.4768 82.8822 18.4476V68.3994C82.8822 73.3701 78.8527 77.3997 73.8819 77.3997H9.52961C4.55887 77.3997 0.529297 73.3701 0.529297 68.3994V18.4476Z" fill="#C8C9C0"/>
<path d="M0.529297 16.6473C0.529297 11.6765 4.55888 7.64697 9.52962 7.64697H73.8819C78.8527 7.64697 82.8822 11.6766 82.8822 16.6473V32.8479H0.529297V16.6473Z" fill="#E36554"/>
<path d="M67.5881 0H63.4705C61.8461 0 60.5293 1.31681 60.5293 2.94118V22.9412C60.5293 24.5656 61.8461 25.8824 63.4705 25.8824H67.5881C69.2125 25.8824 70.5293 24.5656 70.5293 22.9412V2.94118C70.5293 1.31681 69.2125 0 67.5881 0Z" fill="#BCB6B6"/>
<path d="M18.7639 0H14.6463C13.0219 0 11.7051 1.31681 11.7051 2.94118V22.9412C11.7051 24.5656 13.0219 25.8824 14.6463 25.8824H18.7639C20.3883 25.8824 21.7051 24.5656 21.7051 22.9412V2.94118C21.7051 1.31681 20.3883 0 18.7639 0Z" fill="#BCB6B6"/>
<path d="M18.7639 14.7061H14.6463C13.0219 14.7061 11.7051 16.0229 11.7051 17.6473V22.9414C11.7051 24.5658 13.0219 25.8826 14.6463 25.8826H18.7639C20.3883 25.8826 21.7051 24.5658 21.7051 22.9414V17.6473C21.7051 16.0229 20.3883 14.7061 18.7639 14.7061Z" fill="#9E9E9E"/>
<path d="M67.5881 14.7061H63.4705C61.8461 14.7061 60.5293 16.0229 60.5293 17.6473V22.9414C60.5293 24.5658 61.8461 25.8826 63.4705 25.8826H67.5881C69.2125 25.8826 70.5293 24.5658 70.5293 22.9414V17.6473C70.5293 16.0229 69.2125 14.7061 67.5881 14.7061Z" fill="#9E9E9E"/>
</g>
<defs>
<clipPath id="clip0_0_1">
<rect width="83" height="78" fill="white"/>
</clipPath>
</defs>
</svg>
