<svg width="27" height="27" viewBox="0 0 27 27" fill="none" xmlns="http://www.w3.org/2000/svg">
<path fill-rule="evenodd" clip-rule="evenodd" d="M13.5459 5.17781L13.5459 8.89209L3.79535 8.89209L3.79536 22.3565L20.0459 22.3565L20.0459 11.6778L23.7602 11.6778L23.7602 26.0706L20.9756 26.0706L20.9756 26.0708L3.33278 26.0708L3.33278 26.0706L0.0810776 26.0706L0.0810741 8.42781L0.081654 8.42781L0.0816518 5.17781L13.5459 5.17781ZM25.5999 0.0716783L17.2441 0.223603C16.7314 0.232924 16.3233 0.65615 16.3326 1.1689C16.3419 1.68165 16.7651 2.08976 17.2779 2.08044L23.3923 1.96926L12.4126 13.3555L13.7495 14.6446L24.7291 3.25837L24.8403 9.37272C24.8496 9.88548 25.2728 10.2936 25.7856 10.2843C26.2983 10.2749 26.7064 9.85171 26.6971 9.33896L26.5452 0.983213C26.5359 0.470463 26.1126 0.0623551 25.5999 0.0716783Z" fill="black"/>
</svg>
