<svg width="87" height="86" viewBox="0 0 87 86" fill="none" xmlns="http://www.w3.org/2000/svg">
<g filter="url(#filter0_d_729_1591)">
<path d="M4 39C4 60.5391 21.5574 78 43.2155 78C64.8736 78 82.4309 60.5391 82.4309 39C82.4309 17.4609 64.8736 0 43.2155 0C21.5574 0 4 17.4609 4 39Z" fill="#D9D9D9"/>
<path d="M5.5 39C5.5 59.7029 22.378 76.5 43.2155 76.5C64.0529 76.5 80.9309 59.7029 80.9309 39C80.9309 18.2971 64.0529 1.5 43.2155 1.5C22.378 1.5 5.5 18.2971 5.5 39Z" stroke="url(#paint0_linear_729_1591)" stroke-width="3"/>
</g>
<rect x="22" y="22" width="42" height="7.63636" rx="3.05455" fill="#524F50"/>
<rect x="22" y="34.9814" width="42" height="7.63636" rx="3.05455" fill="#524F50"/>
<rect x="22" y="47.9629" width="42" height="7.63636" rx="3.05455" fill="#524F50"/>
<path d="M5.94344 29.4866L5.44123 28.4614L6.38629 25.3069L7.22249 23.4943L10.2838 24.0825L8.64091 27.8188L5.94344 29.4866Z" fill="#D7007B"/>
<defs>
<filter id="filter0_d_729_1591" x="0" y="0" width="86.4309" height="86" filterUnits="userSpaceOnUse" color-interpolation-filters="sRGB">
<feFlood flood-opacity="0" result="BackgroundImageFix"/>
<feColorMatrix in="SourceAlpha" type="matrix" values="0 0 0 0 0 0 0 0 0 0 0 0 0 0 0 0 0 0 127 0" result="hardAlpha"/>
<feOffset dy="4"/>
<feGaussianBlur stdDeviation="2"/>
<feComposite in2="hardAlpha" operator="out"/>
<feColorMatrix type="matrix" values="0 0 0 0 0 0 0 0 0 0 0 0 0 0 0 0 0 0 0.25 0"/>
<feBlend mode="normal" in2="BackgroundImageFix" result="effect1_dropShadow_729_1591"/>
<feBlend mode="normal" in="SourceGraphic" in2="effect1_dropShadow_729_1591" result="shape"/>
</filter>
<linearGradient id="paint0_linear_729_1591" x1="16.5" y1="20" x2="11" y2="12.5" gradientUnits="userSpaceOnUse">
<stop stop-color="#D7007B"/>
<stop stop-color="#D7007B" stop-opacity="0"/>
</linearGradient>
</defs>
</svg>
