<svg width="87" height="86" viewBox="0 0 87 86" fill="none" xmlns="http://www.w3.org/2000/svg">
<g filter="url(#filter0_d_730_1613)">
<ellipse cx="39.2155" cy="39" rx="39.2155" ry="39" transform="matrix(-1 0 0 1 82.4309 0)" fill="#D9D9D9"/>
<path d="M5.5 39C5.5 59.7029 22.378 76.5 43.2155 76.5C64.0529 76.5 80.9309 59.7029 80.9309 39C80.9309 18.2971 64.0529 1.5 43.2155 1.5C22.378 1.5 5.5 18.2971 5.5 39Z" stroke="url(#paint0_linear_730_1613)" stroke-width="3"/>
</g>
<rect x="23" y="23" width="40" height="5.63636" rx="2.05455" fill="#524F50" stroke="#D7007B" stroke-width="2"/>
<rect x="23" y="35.9814" width="40" height="5.63636" rx="2.05455" fill="#524F50" stroke="#D7007B" stroke-width="2"/>
<rect x="23" y="48.9629" width="40" height="5.63636" rx="2.05455" fill="#524F50" stroke="#D7007B" stroke-width="2"/>
<defs>
<filter id="filter0_d_730_1613" x="0" y="0" width="86.4309" height="86" filterUnits="userSpaceOnUse" color-interpolation-filters="sRGB">
<feFlood flood-opacity="0" result="BackgroundImageFix"/>
<feColorMatrix in="SourceAlpha" type="matrix" values="0 0 0 0 0 0 0 0 0 0 0 0 0 0 0 0 0 0 127 0" result="hardAlpha"/>
<feOffset dy="4"/>
<feGaussianBlur stdDeviation="2"/>
<feComposite in2="hardAlpha" operator="out"/>
<feColorMatrix type="matrix" values="0 0 0 0 0 0 0 0 0 0 0 0 0 0 0 0 0 0 0.25 0"/>
<feBlend mode="normal" in2="BackgroundImageFix" result="effect1_dropShadow_730_1613"/>
<feBlend mode="normal" in="SourceGraphic" in2="effect1_dropShadow_730_1613" result="shape"/>
</filter>
<linearGradient id="paint0_linear_730_1613" x1="27.5" y1="51.5" x2="18.5" y2="48.5" gradientUnits="userSpaceOnUse">
<stop stop-color="#D7007B"/>
<stop offset="0.0604165" stop-color="#D7007B" stop-opacity="0"/>
</linearGradient>
</defs>
</svg>
