<svg width="77" height="74" viewBox="0 0 77 74" fill="none" xmlns="http://www.w3.org/2000/svg">
<rect x="0.306886" y="7.05884" width="63.2185" height="66.2874" rx="3.37575" fill="#FFC93D" stroke="black" stroke-width="0.613772"/>
<line x1="11.0479" y1="1.22754" x2="11.0479" y2="11.6617" stroke="black" stroke-width="2.45509" stroke-linecap="round"/>
<line x1="26.3916" y1="1.22754" x2="26.3916" y2="11.6617" stroke="black" stroke-width="2.45509" stroke-linecap="round"/>
<line x1="41.1221" y1="1.22754" x2="41.1221" y2="11.6617" stroke="black" stroke-width="2.45509" stroke-linecap="round"/>
<line x1="11.0479" y1="30.0752" x2="52.1706" y2="30.0752" stroke="black" stroke-width="2.45509" stroke-linecap="round"/>
<line x1="11.0479" y1="42.9639" x2="52.1706" y2="42.9639" stroke="black" stroke-width="2.45509" stroke-linecap="round"/>
<line x1="11.0479" y1="56.4678" x2="52.1706" y2="56.4678" stroke="black" stroke-width="2.45509" stroke-linecap="round"/>
<line x1="54.626" y1="1.22754" x2="54.626" y2="11.6617" stroke="black" stroke-width="2.45509" stroke-linecap="round"/>
<path d="M58.918 39.5469L68.032 48.6609L52.8419 63.851C51.4038 65.2892 49.0721 65.2892 47.6339 63.851L43.7279 59.945C42.2897 58.5068 42.2897 56.1751 43.7279 54.737L58.918 39.5469Z" fill="black"/>
<path d="M57.3998 42.8033C57.7593 42.4438 58.3422 42.4438 58.7018 42.8033C59.0613 43.1629 59.0613 43.7458 58.7018 44.1054L49.5877 53.2194C49.2282 53.5789 48.6453 53.5789 48.2857 53.2194C47.9262 52.8599 47.9262 52.2769 48.2857 51.9174L57.3998 42.8033Z" fill="#FFC93D"/>
<path d="M64.56 33.9068C65.9982 32.4686 68.3299 32.4686 69.7681 33.9067L73.6741 37.8128C75.1123 39.2509 75.1123 41.5826 73.6741 43.0208L69.7681 46.9268L60.654 37.8128L64.56 33.9068Z" fill="black"/>
<path d="M60.6875 37.8066L69.7871 46.9062L68.0351 48.6582L58.9355 39.5586L60.6875 37.8066Z" fill="#FFC93D"/>
<path d="M38.8697 68.4888L42.233 56.8528C42.3629 56.4036 42.9272 56.2587 43.2573 56.5899L50.782 64.1375C51.1121 64.4686 50.9655 65.0325 50.5159 65.161L38.8697 68.4888Z" fill="#FFC93D"/>
<path d="M38.8692 68.5344L40.7224 61.7852L45.6241 66.7018L38.8692 68.5344Z" fill="black"/>
</svg>
