<svg width="27" height="26" viewBox="0 0 27 26" fill="none" xmlns="http://www.w3.org/2000/svg">
<path fill-rule="evenodd" clip-rule="evenodd" d="M1.09839 25.9998L9.45414 25.8479C9.96689 25.8386 10.375 25.4154 10.3657 24.9026C10.3564 24.3899 9.93313 23.9818 9.42038 23.9911L3.30603 24.1023L14.2856 12.716L12.9488 11.4269L1.96918 22.8132L1.85801 16.6988C1.84869 16.186 1.42546 15.7779 0.912709 15.7873C0.399961 15.7966 -0.00814905 16.2198 0.00117412 16.7326L0.153097 25.0883C0.16242 25.6011 0.585644 26.0092 1.09839 25.9998ZM13.1529 20.8932L13.1529 17.1789L22.9029 17.1789L22.9029 3.71461L6.65293 3.71461L6.65293 14.3932L2.93865 14.3932L2.93865 0.000326319L5.72436 0.000326076L6.65293 0.000325995L22.9029 0.000326481L23.3672 0.000326441L26.6172 0.000326157L26.6172 17.1789L26.6172 17.6432L26.6172 20.8931L13.1529 20.8932Z" fill="gray"/>
</svg>
