<svg width="398" height="399" viewBox="0 0 398 399" fill="none" xmlns="http://www.w3.org/2000/svg">
<path fill-rule="evenodd" clip-rule="evenodd" d="M72.587 214.972C55.635 218.66 40.963 226.592 27.707 239.236C7.34696 258.654 -1.18304 280.812 0.130962 310.858C0.830962 326.864 1.84696 331.068 8.28696 344.63C20.667 370.7 41.269 387.75 69.169 395.016C120.163 408.298 171.891 376.228 182.845 324.54C184.887 314.896 185.723 296.752 185.749 261.5L185.783 212L135.283 212.158C101.351 212.266 80.781 213.188 72.587 214.972ZM148.751 284C148.721 316.764 148.421 319.574 144.039 328C138.037 339.54 126.951 351.18 116.783 356.616C104.983 362.924 80.195 362.774 67.783 356.32C47.673 345.866 37.619 330.794 36.221 309.012C35.419 296.51 35.993 292.902 40.273 283.55C45.689 271.72 56.279 259.916 65.967 254.904C76.055 249.688 87.247 248.372 118.783 248.694L148.783 249L148.751 284Z" fill="#FED708"/>
<path fill-rule="evenodd" clip-rule="evenodd" d="M325.196 214.972C342.148 218.66 356.82 226.592 370.076 239.236C390.436 258.654 398.966 280.812 397.652 310.858C396.952 326.864 395.936 331.068 389.496 344.63C377.116 370.7 356.514 387.75 328.614 395.016C277.62 408.298 225.892 376.228 214.938 324.54C212.896 314.896 212.06 296.752 212.034 261.5L212 212L262.5 212.158C296.432 212.266 317.002 213.188 325.196 214.972ZM249.032 284C249.062 316.764 249.362 319.574 253.744 328C259.746 339.54 270.832 351.18 281 356.616C292.8 362.924 317.588 362.774 330 356.32C350.11 345.866 360.164 330.794 361.562 309.012C362.364 296.51 361.79 292.902 357.51 283.55C352.094 271.72 341.504 259.916 331.816 254.904C321.728 249.688 310.536 248.372 279 248.694L249 249L249.032 284Z" fill="#FED708"/>
<path fill-rule="evenodd" clip-rule="evenodd" d="M72.587 183.048C55.635 179.36 40.963 171.428 27.707 158.784C7.34696 139.366 -1.18304 117.208 0.130962 87.1615C0.830962 71.1555 1.84696 66.9515 8.28696 53.3895C20.667 27.3195 41.269 10.2695 69.169 3.00352C120.163 -10.2785 171.891 21.7915 182.845 73.4795C184.887 83.1235 185.723 101.268 185.749 136.52L185.783 186.02L135.283 185.862C101.351 185.754 80.781 184.832 72.587 183.048ZM148.751 114.02C148.721 81.2555 148.421 78.4455 144.039 70.0195C138.037 58.4795 126.951 46.8395 116.783 41.4035C104.983 35.0955 80.195 35.2455 67.783 41.6995C47.673 52.1535 37.619 67.2255 36.221 89.0075C35.419 101.51 35.993 105.118 40.273 114.47C45.689 126.3 56.279 138.104 65.967 143.116C76.055 148.332 87.247 149.648 118.783 149.326L148.783 149.02L148.751 114.02Z" fill="#199DC7"/>
<path fill-rule="evenodd" clip-rule="evenodd" d="M325.196 183.048C342.148 179.36 356.82 171.428 370.076 158.784C390.436 139.366 398.966 117.208 397.652 87.1615C396.952 71.1555 395.936 66.9515 389.496 53.3895C377.116 27.3195 356.514 10.2695 328.614 3.00352C277.62 -10.2785 225.892 21.7915 214.938 73.4795C212.896 83.1235 212.06 101.268 212.034 136.52L212 186.02L262.5 185.862C296.432 185.754 317.002 184.832 325.196 183.048ZM249.032 114.02C249.062 81.2555 249.362 78.4455 253.744 70.0195C259.746 58.4795 270.832 46.8395 281 41.4035C292.8 35.0955 317.588 35.2455 330 41.6995C350.11 52.1535 360.164 67.2255 361.562 89.0075C362.364 101.51 361.79 105.118 357.51 114.47C352.094 126.3 341.504 138.104 331.816 143.116C321.728 148.332 310.536 149.648 279 149.326L249 149.02L249.032 114.02Z" fill="#199DC7"/>
</svg>
