<svg width="1405" height="1325" viewBox="0 0 1405 1325" fill="none" xmlns="http://www.w3.org/2000/svg">
<path d="M332.586 40.3739L342.747 15.3672L323.752 25.5807C306.518 34.8474 291.349 47.523 279.168 62.8366C270.509 73.723 263.47 85.8045 258.269 98.7061L248.806 122.18L240.154 143.644L223.673 192.26L208.428 246.929L200.58 275.074C195.662 292.709 192.596 310.808 191.432 329.078L188.857 369.476L184.531 437.354V521.009L193.183 606.865L172.769 546.269C166.62 528.016 162.492 509.144 160.457 489.992L154.866 437.354V279.584L140.445 314.44L126.024 349.296L111.191 392.591L99.2429 437.354L90.5905 479.181L81.938 521.009L75.5517 563.937L69.1654 606.865L65.4572 676.578L69.1654 744.089L73.9036 785.182L78.6418 826.276L88.9423 869.938L100.891 915.801L123.14 970.471L137.998 1005.83C143.991 1020.09 147.826 1035.17 149.379 1050.56L160.541 1161.22C162.231 1177.98 176.339 1190.74 193.183 1190.74H234.385H267.759H302.369H332.858H362.936H393.837H441.631H621.882L664.471 1175.81L581.519 1101.79C528.194 1054.21 496.489 987.011 493.675 915.6L491.486 860.031L494.782 826.276L498.078 785.182V744.089L494.782 666.304L490.456 631.815L486.13 597.326L477.683 558.066L469.237 518.807L457.494 483.951L445.752 449.095L432.979 418.642L420.206 388.188L407.022 365.44L393.837 342.692L354.325 274.59C346.621 261.311 340.092 247.385 334.813 232.969L324.206 204.001L320.52 187.713C315.584 165.896 313.637 143.508 314.733 121.166C316.094 93.4227 322.13 66.1079 332.586 40.3739Z" fill="#FE6323"/>
<path d="M1063.87 79.252L1051.51 0L1083.03 39.626L1090.7 49.2769C1106.51 69.1558 1119.37 91.2171 1128.87 114.776L1131.85 122.18L1140.5 143.644L1156.98 192.26L1172.23 246.929L1180.08 275.074C1184.99 292.709 1188.06 310.808 1189.22 329.078L1191.8 369.476L1196.13 437.354V521.009L1187.47 606.865L1207.89 546.269C1214.04 528.016 1218.16 509.144 1220.2 489.992L1225.79 437.354V279.584L1240.21 314.44L1254.63 349.296L1269.46 392.591L1281.41 437.354L1290.07 479.181L1298.72 521.009L1305.1 563.937L1311.49 606.865L1315.2 676.578L1311.49 744.089L1306.75 785.182L1302.01 826.276L1291.71 869.938L1279.77 915.801L1257.52 970.471L1242.66 1005.83C1236.67 1020.09 1232.83 1035.17 1231.28 1050.56L1220.12 1161.22C1218.42 1177.98 1204.32 1190.74 1187.47 1190.74H1146.27H1112.9H1078.29H1047.8H1017.72H986.819H939.025H571.295L747.777 1098.1C831.182 1054.32 884.863 969.339 888.572 875.216L889.17 860.031L885.874 826.276L882.578 785.182V744.089L885.874 666.304L890.201 631.815L894.527 597.326L902.973 558.066L911.42 518.807L923.162 483.951L934.905 449.095L947.677 418.642L960.45 388.188L973.635 365.44L986.819 342.692L1026.33 274.59C1034.04 261.311 1040.56 247.385 1045.84 232.969L1056.45 204.001L1059.63 189.936C1064.9 166.644 1066.98 142.742 1065.81 118.89L1063.87 79.252Z" fill="#FE6323"/>
<path d="M914.259 246.752L945.978 207.601L890.562 219.106L877.765 221.762C849.551 227.619 822.514 238.151 797.771 252.92L779.083 264.075L740.949 291.164L702.491 323.548C677.047 344.973 655.535 370.672 638.921 399.488L635.928 404.679L607.823 453.425L593.229 487.007C584.666 506.709 577.871 527.134 572.924 548.039L563.814 586.535L558.635 547.062C554.783 517.7 556.163 487.886 562.713 459.005C566.171 443.755 571.048 428.861 577.281 414.52L619.707 316.897L588.862 334.796L558.017 352.695L523.847 376.728L493.076 403.556L467.703 430.094L442.33 456.632L419.645 485.327L413.462 493.148C402.479 507.04 392.658 521.813 384.099 537.316C374.112 555.407 365.886 574.415 359.533 594.079L351.909 617.682L344.793 651.495C340.06 673.983 337.535 696.88 337.255 719.86L337.201 724.314L337.362 730.895C337.932 754.208 340.75 777.412 345.776 800.184L350.206 820.254L363.687 877.187L375.645 910.08C385.845 938.137 399.471 964.827 416.212 989.544L417.597 991.589C427.688 1006.49 438.874 1020.61 451.061 1033.85L460.064 1043.63L469.565 1053.95C481.308 1066.7 495.588 1076.86 511.488 1083.77C517.208 1086.26 523.106 1088.31 529.134 1089.91L538.205 1092.32C564.93 1099.42 592.651 1102.01 620.229 1100L638.48 1098.67C654.774 1097.48 670.929 1094.84 686.754 1090.78C710.838 1084.6 733.973 1075.19 755.525 1062.79L764.166 1057.82C780.664 1048.32 796.356 1037.49 811.083 1025.43L826.811 1012.56L863.027 976.231L882.038 952.2L897.555 928.628L901.968 921.46C910.965 906.847 918.913 891.614 925.753 875.876L928.971 868.47L941.455 832.569C947.193 816.067 951.731 799.171 955.034 782.015L955.576 779.2L956.06 776.682C959.401 759.328 961.469 741.754 962.247 724.099L962.603 716.021L962.731 713.116C963.66 692.029 962.747 670.901 960.001 649.973L959.772 648.229L955.417 615.032L948.23 584.559L947.225 580.295C943.111 562.85 937.609 545.761 930.773 529.192L920.503 504.298L890.846 432.523C884.086 416.163 879.181 399.097 876.223 381.644L874.467 371.288C873.061 362.993 872.466 354.58 872.693 346.169C873.241 325.792 878.594 305.831 888.315 287.913L895.049 275.502C900.558 265.35 906.988 255.726 914.259 246.752Z" fill="#FE6323"/>
<path d="M490.74 247.03L459.021 207.879L514.437 219.383L527.234 222.04C555.448 227.897 582.485 238.428 607.228 253.198L625.916 264.353L664.05 291.442L702.508 323.826C727.952 345.251 749.464 370.95 766.079 399.766L769.071 404.956L797.176 453.703L811.77 487.285C820.333 506.987 827.128 527.412 832.075 548.317L841.185 586.813L846.364 547.34C850.216 517.977 848.836 488.164 842.286 459.283C838.828 444.033 833.951 429.139 827.718 414.798L785.292 317.175L816.137 335.074L846.982 352.973L881.152 377.006L911.923 403.834L937.296 430.372L962.669 456.91L985.354 485.605L991.537 493.426C1002.52 507.318 1012.34 522.09 1020.9 537.594C1030.89 555.685 1039.11 574.693 1045.47 594.357L1053.09 617.96L1060.21 651.773C1064.94 674.261 1067.46 697.158 1067.74 720.138L1067.8 724.592L1067.64 731.173C1067.07 754.486 1064.25 777.69 1059.22 800.462L1054.79 820.531L1041.31 877.465L1029.35 910.358C1019.15 938.415 1005.53 965.105 988.787 989.822L987.402 991.867C977.311 1006.76 966.125 1020.89 953.938 1034.13L944.935 1043.91L935.434 1054.23C923.691 1066.98 909.411 1077.14 893.511 1084.05C887.791 1086.54 881.893 1088.59 875.865 1090.19L866.794 1092.6C840.069 1099.7 812.348 1102.29 784.77 1100.28L766.519 1098.95C750.225 1097.76 734.07 1095.12 718.245 1091.06C694.161 1084.88 671.026 1075.46 649.474 1063.07L640.833 1058.09C624.335 1048.6 608.643 1037.77 593.916 1025.71L578.188 1012.83L541.972 976.509L522.961 952.478L507.444 928.906L503.031 921.737C494.034 907.125 486.086 891.892 479.246 876.153L476.028 868.748L463.544 832.847C457.806 816.344 453.268 799.449 449.965 782.293L449.423 779.478L448.939 776.96C445.598 759.606 443.53 742.031 442.752 724.376L442.396 716.299L442.268 713.394C441.339 692.307 442.252 671.179 444.998 650.251L445.227 648.506L449.582 615.31L456.769 584.836L457.774 580.573C461.888 563.128 467.39 546.039 474.226 529.47L484.496 504.576L514.153 432.8C520.913 416.44 525.818 399.374 528.776 381.922L530.532 371.566C531.938 363.27 532.533 354.858 532.306 346.447C531.758 326.069 526.405 306.109 516.684 288.191L509.95 275.78C504.441 265.628 498.011 256.004 490.74 247.03Z" fill="#FE6323"/>
<path d="M609.444 92.4861L591.469 38.4026L650.523 73.886L665.982 83.175C694.845 100.518 720.635 122.524 742.303 148.3L758.666 167.765L789.946 211.944L819.019 261.72C838.221 294.594 850.896 330.867 856.349 368.546L857.098 373.723L866.103 435.95L866.735 476.265C867.117 500.558 865.055 524.827 860.583 548.707L852.492 591.916L878.999 551.615C897.006 524.239 909.541 493.635 915.912 461.493C919.391 443.938 921.004 426.064 920.723 408.17L918.872 290.158L946.131 321.757L973.39 353.357L1001.54 392.696L1024.35 433.468L1041.01 471.639L1057.66 509.81L1070.13 549.058L1073.64 560.118C1079.6 578.87 1083.81 598.133 1086.22 617.661C1089.05 640.643 1089.38 663.866 1087.19 686.919L1084.58 714.361L1076.38 752.248C1070.93 777.432 1062.77 801.954 1052.05 825.386L1049.7 830.543L1044.92 839.966C1033.79 861.946 1020.45 882.734 1005.11 902.008L987.692 923.888L944.172 976.826L907.045 1012.46C886.17 1032.5 862.971 1049.97 837.944 1064.49L796.812 1088.37L750.464 1107.3L745.877 1109.17C718.279 1120.45 688.82 1126.47 659.012 1126.94L637.632 1124.42C601.53 1120.17 566.271 1110.52 533.038 1095.79L513.993 1087.35C496.487 1079.59 479.666 1070.37 463.706 1059.78C438.085 1042.8 414.876 1022.43 394.709 999.23L387.237 990.634C373.568 974.911 361.279 958.038 350.508 940.205L337.648 918.914L313.114 866.033L302.658 833.159L296.055 802.247L294.467 793.328C291.059 774.203 289.194 754.834 288.89 735.41L288.755 726.845L291.69 684.801C293.061 665.163 296.029 645.67 300.564 626.514L301.28 623.487L302.037 620.291C306.545 601.248 312.587 582.601 320.104 564.532L323.916 555.37L325.921 550.551C334.636 529.603 345.298 509.52 357.766 490.564L360.308 486.699L381.593 454.338L404.853 425.992L409.552 420.266C421.906 405.21 435.453 391.174 450.061 378.293L452.249 376.365L476.384 355.085L547.227 292.687C562.3 279.41 575.812 264.46 587.502 248.125L595.521 236.921C600.881 229.431 605.446 221.403 609.142 212.967C618.556 191.485 622.104 167.892 619.425 144.592L617.755 130.064C616.286 117.285 613.501 104.692 609.444 92.4861Z" fill="#FE6323"/>
<path d="M1023.73 276.538L1031.98 217.591L1062.89 268.442L1082.69 301.015C1090.04 313.116 1095.33 326.36 1098.31 340.202L1103.46 364.028L1108.29 386.396L1114.82 435.141L1117.52 487.935L1119.07 518.421C1119.83 533.18 1118 547.957 1113.68 562.089L1102.9 597.302L1085.59 653.875L1061.23 709.94C1058.22 716.846 1054.62 723.471 1050.44 729.737L1014.84 783.192L1068.73 744.684C1080.95 735.956 1091.52 725.133 1099.96 712.716L1120.86 681.969C1125.31 675.412 1129.15 668.453 1132.31 661.182L1182.02 546.801L1190.38 583.351L1198.75 619.902L1204.79 663.409L1206.24 706.308L1204.04 744.849L1201.84 783.391L1196.06 821.413L1191.85 849.074C1190.8 855.97 1189.19 862.768 1187.02 869.399L1175.25 905.452C1172.73 913.19 1169.47 920.667 1165.51 927.781L1142.91 968.427L1122.02 998.153L1108.29 1017.7C1103.53 1024.47 1098.12 1030.76 1092.14 1036.48L1071.49 1056.23L1047.94 1077.15C1041.83 1082.58 1035.21 1087.4 1028.18 1091.56L988.412 1115.05L934.977 1145.53L872.119 1172.27C862.49 1176.36 852.393 1179.25 842.057 1180.87L789.646 1189.09C783.416 1190.07 777.121 1190.58 770.815 1190.62L737.895 1190.84L722.373 1190.95C704.655 1191.07 687.108 1187.48 670.858 1180.42L604.046 1151.38C596.477 1148.09 589.246 1144.07 582.456 1139.38L519.68 1096.01L490.14 1071.93C477.741 1061.82 470.587 1046.64 470.682 1030.64C470.703 1027.02 470.352 1023.4 469.634 1019.85L469.288 1018.14C465.107 997.467 470.608 975.882 484.064 959.643C495.539 945.794 501.374 927.972 500.211 910.025L498.695 886.633L500.637 832.736L505.472 800.884L512.461 772.046L519.591 746.091C521.184 740.291 523.186 734.612 525.584 729.096L536.168 704.742L563.391 653.122C566.247 647.705 569.491 642.503 573.097 637.554L585.706 620.253L598.252 603.037C601.899 598.031 605.908 593.299 610.246 588.878L629.23 569.529L646.944 551.475C652.125 546.195 657.757 541.377 663.776 537.076L683.373 523.074L712.016 502.608L740.596 486.272L760.346 474.983C766.223 471.624 772.36 468.74 778.696 466.358L795.679 459.974L822.183 450.011L911.475 416.5C920.364 413.163 928.852 408.841 936.78 403.614L958.188 389.499C965.084 384.951 971.521 379.743 977.407 373.946L979.572 371.814C993.832 357.77 1004.57 340.557 1010.92 321.576L1018.39 299.245C1020.87 291.856 1022.65 284.255 1023.73 276.538Z" fill="#FE6323"/>
<path d="M380.361 270.337L373.02 217.869L342.11 268.72L334.973 280.463C319.235 306.353 307.936 334.691 301.54 364.306L296.709 386.674L290.176 435.419L287.482 488.213C285.699 523.141 290.022 558.113 300.255 591.556L302.098 597.58L319.409 654.152L335.415 690.984C343.978 710.687 354.274 729.59 366.183 747.469L390.161 783.47L356.103 759.135C330.768 741.032 308.841 718.585 291.337 692.832C282.095 679.234 274.146 664.801 267.592 649.722L222.984 547.079L214.616 583.629L206.249 620.18L200.211 663.686L198.76 706.586L200.958 745.127L203.157 783.668L208.941 821.691L210.517 832.054C213.317 850.462 217.628 868.609 223.406 886.31C230.148 906.964 238.859 926.923 249.418 945.912L262.092 968.705L282.979 998.431L283.45 999.101C297.029 1018.43 312.463 1036.38 329.533 1052.7L333.509 1056.5L340.032 1062.3C357.465 1077.79 376.352 1091.56 396.43 1103.42L416.588 1115.33L470.023 1145.81L472.844 1147.28C496.422 1159.61 521.285 1169.31 546.984 1176.2L566.947 1181.55L597.319 1186.43C615.555 1189.36 633.988 1190.9 652.457 1191.02L667.105 1191.12C700.277 1190.93 733.018 1183.6 763.098 1169.61L785.756 1159.07C803.443 1150.85 820.402 1141.14 836.45 1130.05L885.32 1096.29L914.86 1072.2C927.259 1062.1 934.413 1046.92 934.318 1030.92C934.297 1027.3 934.648 1023.68 935.366 1020.13L935.712 1018.42C939.893 997.745 934.392 976.16 920.936 959.92C909.461 946.072 903.626 928.25 904.789 910.303L906.305 886.911L904.363 833.014L899.528 801.161L892.539 772.324L889.843 762.511C885.298 745.964 879.584 729.76 872.744 714.021L868.832 705.019L849.56 668.476C841.41 653.022 832.154 638.177 821.865 624.057L819.294 620.53L816.902 617.248C806.494 602.966 795.056 589.464 782.68 576.85L775.77 569.807L772.486 566.46C757.703 551.394 741.634 537.647 724.46 525.375L721.627 523.351L692.984 502.885L664.404 486.55L660.406 484.264C644.044 474.912 626.961 466.883 609.321 460.252L582.817 450.289L506.369 421.597C488.943 415.058 472.306 406.586 456.768 396.341L447.547 390.261C440.162 385.392 433.269 379.814 426.966 373.606C411.695 358.567 400.191 340.133 393.392 319.807L388.682 305.727C384.829 294.21 382.044 282.364 380.361 270.337Z" fill="#FE6323"/>
<path d="M645.764 490.234L636.657 457.45L681.687 489.236C692.69 497.003 702.318 506.554 710.172 517.494L726.538 540.289C730.277 545.497 733.596 550.994 736.463 556.728L760.054 603.91C766.388 616.579 770.447 630.262 772.044 644.336L778.091 697.606V742.334L769.629 804.388L814.76 742.334L833.191 712.144C836.479 706.759 839.34 701.124 841.749 695.292L871.575 623.061L881.649 658.118L888.846 688.786C890.225 694.658 891.161 700.625 891.649 706.637L894.543 742.334V789.881V828.967L890.917 866.038L884.03 899.573C882.446 907.285 880.113 914.824 877.063 922.082L871.575 935.144L864.809 949.727C861.537 956.778 857.593 963.497 853.031 969.791L838.13 990.348L814.76 1021.58L788.4 1049.38C781.554 1056.61 773.842 1062.96 765.44 1068.29L743.792 1082.03C738.727 1085.24 733.431 1088.07 727.946 1090.5L711.605 1097.73L703.054 1101.52C692.485 1106.2 681.055 1108.61 669.497 1108.61C665.339 1108.61 661.187 1108.3 657.076 1107.68L643.411 1105.61C630.136 1103.6 617.289 1099.39 605.397 1093.15L582.96 1081.39C576.595 1078.06 570.541 1074.16 564.868 1069.75L553.765 1061.11C545.132 1054.4 537.45 1046.54 530.929 1037.76L516.458 1018.27C512.516 1012.96 509.015 1007.34 505.992 1001.46L495.625 981.281L483.134 949.449L477.895 929.704L474.672 911.169L472.663 897.108C471.854 891.446 471.448 885.733 471.448 880.013V866.038L474.014 832.048C474.452 826.241 475.309 820.473 476.579 814.789L478.903 804.388L481.205 794.084C482.489 788.335 484.192 782.688 486.3 777.187L491.394 763.891L495.871 752.207C498.389 745.637 501.475 739.3 505.095 733.267L511.139 723.194L522.623 704.054L535.114 687.331L541.816 678.359C545.67 673.2 549.929 668.358 554.553 663.878L560.5 658.118L573.394 645.626L613.594 606.723C620.084 600.442 625.849 593.455 630.783 585.89L636.885 576.533C639.949 571.835 642.548 566.849 644.644 561.647C649.724 549.042 651.755 535.415 650.572 521.877L649.715 512.066C649.07 504.683 647.747 497.375 645.764 490.234Z" fill="#FFA624"/>
<path d="M911.55 340.304L902.603 300.3L919.284 314.924C949.063 341.031 974.365 371.838 994.184 406.124L998.102 412.9L1015.69 456.584C1028.88 489.341 1037.21 523.848 1040.42 559.012L1044.04 598.564V654.113L1035.58 731.182L1080.71 654.113L1104.08 606.571L1137.52 505.982L1147.6 549.521L1156.86 598.564L1160.49 654.113V713.166V761.709L1156.86 807.749L1152.41 834.69C1149.2 854.064 1144.43 873.146 1138.14 891.747L1137.52 893.575L1136.7 895.78C1129.47 915.127 1120.6 933.82 1110.19 951.657L1104.08 962.136L1080.71 1000.92L1063.61 1023.32C1050.61 1040.35 1035.52 1055.67 1018.7 1068.93C1007.67 1077.62 995.948 1085.39 983.646 1092.15L977.551 1095.5L968.253 1100.62C958.228 1106.13 946.973 1109.02 935.533 1109.02C931.318 1109.02 927.113 1108.62 922.972 1107.84L916.427 1106.61C898.52 1103.24 881.448 1096.39 866.178 1086.45L855.285 1079.36C844.679 1072.46 834.758 1064.55 825.656 1055.76C813.075 1043.61 802.154 1029.85 793.177 1014.83L787.245 1004.91C780.078 992.925 773.8 980.43 768.46 967.525L761.571 950.876L749.08 911.341L743.842 886.819L740.618 863.799L737.395 835.774V807.749L740.618 754.702L744.849 731.182L749.08 707.661L757.34 680.887L757.818 679.34C762.999 662.546 769.44 646.167 777.085 630.342L788.569 606.571L801.06 585.803L803.154 582.321C810.076 570.814 817.862 559.848 826.446 549.521L839.34 534.007L875.492 490.557C884.676 479.519 892.671 467.545 899.347 454.832L902.449 448.926C905.769 442.602 908.547 436.008 910.751 429.215C915.749 413.812 917.734 397.59 916.597 381.436L915.701 368.704C915.029 359.147 913.641 349.653 911.55 340.304Z" fill="#FFA624"/>
<path d="M515.37 354.241L539.748 282.167L515.649 294.076C494.397 304.579 475.088 318.625 458.553 335.613C446.512 347.984 436.052 361.8 427.413 376.747L406.574 412.801L388.982 456.503C375.798 489.256 367.468 523.759 364.254 558.92L360.638 598.491V654.048L369.1 731.127L323.97 654.048L300.599 606.499L267.154 505.896L257.081 549.441L247.813 598.491L244.186 654.048V713.109V761.659L247.813 807.706L252.269 834.658C255.471 854.03 260.242 873.109 266.534 891.709L267.154 893.544L267.98 895.755C275.207 915.1 284.072 933.793 294.481 951.629L300.599 962.114L323.97 1000.9L341.064 1023.3C354.062 1040.34 369.151 1055.66 385.977 1068.93C397.003 1077.62 408.728 1085.39 421.031 1092.15L427.125 1095.5L436.423 1100.61C446.448 1106.13 457.703 1109.02 469.143 1109.02C473.357 1109.02 477.563 1108.62 481.704 1107.84L488.249 1106.61C506.156 1103.24 523.227 1096.39 538.497 1086.45L549.39 1079.36C559.996 1072.45 569.918 1064.55 579.02 1055.75C591.601 1043.6 602.521 1029.84 611.498 1014.82L617.431 1004.9C624.598 992.908 630.876 980.411 636.215 967.505L643.104 950.853L655.596 911.312L660.834 886.787L664.058 863.763L667.281 835.735V807.706L664.058 754.652L659.827 731.127L655.596 707.603L647.335 680.826L646.858 679.278C641.677 662.482 635.236 646.101 627.591 630.274L616.107 606.499L603.616 585.728L601.521 582.246C594.6 570.736 586.814 559.77 578.23 549.441L565.336 533.925L539.748 492.382L517.543 462.338C509.876 451.964 504.596 440.026 502.079 427.375C498.913 411.465 500.229 394.989 505.879 379.784L515.37 354.241Z" fill="#FFA624"/>
<path d="M781.315 354.241L805.694 282.167L781.595 294.076C760.342 304.579 741.034 318.625 724.499 335.613C712.457 347.984 701.998 361.8 693.359 376.747L672.52 412.801L654.928 456.503C641.744 489.256 633.413 523.759 630.2 558.92L626.583 598.491V654.048L635.045 731.127L589.915 654.048L566.544 606.499L533.1 505.896L523.026 549.441L513.758 598.491L510.132 654.048V713.109V761.659L513.758 807.706L518.214 834.658C521.417 854.03 526.187 873.109 532.479 891.709L533.1 893.544L539.165 909.782C542.905 919.793 547.493 929.466 552.879 938.697C561.942 954.228 568.726 970.981 573.023 988.442L578.264 1009.74C582.76 1028.01 590.971 1045.16 602.385 1060.12L605.771 1064.56C616.282 1078.33 629.818 1089.5 645.333 1097.21L652.314 1100.68C663.351 1106.16 675.508 1109.02 687.832 1109.02H717.65H728.429C737.073 1109.02 745.699 1108.21 754.194 1106.61C772.101 1103.24 789.173 1096.39 804.442 1086.45L815.335 1079.36C825.941 1072.45 835.863 1064.55 844.965 1055.75C857.546 1043.6 868.467 1029.84 877.443 1014.82L883.376 1004.9C890.543 992.908 896.821 980.411 902.16 967.505L909.05 950.853L921.541 911.312L926.779 886.787L930.003 863.763L933.227 835.735V807.706L930.003 754.652L925.772 731.127L921.541 707.603L913.281 680.826L912.803 679.278C907.622 662.482 901.181 646.101 893.536 630.274L882.052 606.499L869.561 585.728L867.467 582.246C860.545 570.736 852.759 559.77 844.175 549.441L831.281 533.925L805.694 492.382L783.488 462.338C775.821 451.964 770.541 440.026 768.024 427.375C764.859 411.465 766.174 394.989 771.824 379.784L781.315 354.241Z" fill="#FF9700"/>
<path d="M444.73 960.829L384.145 830.573L370.31 890.756L366.741 915.218C365.36 936.668 366.261 958.203 369.43 979.462L370.123 984.112C374.676 1013.21 386.854 1040.59 405.419 1063.46L407.842 1066.44C415.781 1076.22 424.72 1085.14 434.512 1093.07L455.507 1110.05C468.904 1120.9 484.861 1128.11 501.848 1131.02L706.568 1163.41L628.605 1080.9C606.077 1057.06 597.905 1023.05 607.14 991.575C614.554 966.311 610.819 939.084 596.876 916.75L517.266 789.229L519.097 822.049C520.231 842.387 519.073 862.789 515.645 882.867C510.951 910.36 502.05 936.967 489.254 961.749C479.797 980.063 453.423 979.519 444.73 960.829Z" fill="#FFF28C"/>
<path d="M952.3 945.447L1005.73 830.577L1019.56 890.76L1023.13 915.223L1024.3 933.399C1024.91 942.765 1024.51 952.168 1023.13 961.451L1019.75 984.116L1018.32 993.25C1014.7 1016.37 1005.03 1038.12 990.281 1056.28L978.83 1070.39C973.019 1077.55 966.477 1084.08 959.311 1089.88L939.687 1105.75C922.779 1119.44 902.761 1128.75 881.403 1132.86L725.91 1162.81L774.115 1100.34C781.401 1090.9 786.83 1080.16 790.115 1068.7C795.035 1051.52 794.977 1033.31 789.947 1016.16L787.218 1006.86C776.952 971.877 782.124 934.172 801.432 903.243L872.607 789.234L869.903 837.724C869.349 847.648 869.914 857.602 871.587 867.4L877.855 904.115C880.146 917.53 884.489 930.513 890.733 942.606L892.834 946.675C905.465 971.136 940.69 970.409 952.3 945.447Z" fill="#FFF28C"/>
<path d="M743.694 965.646L802.509 833.729L817.58 905.367L821.534 934.178L821.66 936.13C823.197 959.841 822.399 983.646 819.279 1007.2L818.471 1013.3L818.054 1016.29C813.738 1047.23 800.946 1076.39 781.093 1100.52C771.539 1112.13 763.573 1124.96 757.406 1138.68L755.526 1142.86L753.697 1147.44C752.526 1150.36 750.495 1152.87 747.872 1154.61C746.933 1155.24 745.929 1155.76 744.877 1156.17L735.58 1159.79C728.029 1162.97 719.838 1164.33 711.665 1163.77L706.568 1163.41C693.907 1161.62 682.179 1155.73 673.163 1146.67L619.76 1092.94L606.544 1076.04C591.755 1057.12 580.96 1035.4 574.816 1012.18C562.399 965.276 569.745 915.328 595.143 873.98L661.484 765.977L659.87 801.932C658.77 826.417 660.156 850.951 664.006 875.157L664.418 877.747C669.244 908.094 678.06 937.67 690.637 965.707C700.917 988.624 733.466 988.587 743.694 965.646Z" fill="#FFF28C"/>
</svg>
