<svg xmlns="http://www.w3.org/2000/svg" width="725" height="850" fill="none"><path fill="#fe6323" d="M308.844 60.939 320 20.777l-38.25 27-8.833 6.235a214 214 0 0 0-50.417 50.015L212 118.652l-20 33.125-18.5 37.25a236.7 236.7 0 0 0-23.191 78.576l-.559 4.924-5.25 46.25v30.291a300 300 0 0 0 4.719 52.999l5.781 32.21-16.944-28.24A207.4 207.4 0 0 1 108.5 299.331v-88.054L91 235.027l-17.5 23.75-18 29.5-14.5 30.5-10.5 28.5-10.5 28.5-7.75 29.25L10.138 413a267 267 0 0 0-7.636 94.356L4.5 527.777l5.75 28a292 292 0 0 0 16.823 54.353l1.427 3.397 2.292 4.94a300 300 0 0 0 29.23 49.794L70 682.027l29 38.75 19.918 21.013a300 300 0 0 0 56.979 46.912l1.725 1.095a300 300 0 0 0 39.323 21.03l10.055 4.45 10.611 4.697a102.87 102.87 0 0 0 57.051 7.642l7.676-1.163a205.9 205.9 0 0 0 64.764-21.217l13.408-7.028a227.4 227.4 0 0 0 76.969-65.816l4.916-6.62a288 288 0 0 0 24.919-40.037L495 670.777l15.5-39.5 6.5-24.5 4-23 .985-6.894A300 300 0 0 0 525 534.457v-6.68l-2.366-31.354a300 300 0 0 0-6.367-42.831l-.517-2.315-.463-2.07a300 300 0 0 0-12.644-41.934l-2.393-6.246-.861-2.246a300 300 0 0 0-22.89-47.006l-.749-1.248-14.25-23.75-15.5-20.75-2.168-2.903a278.4 278.4 0 0 0-29.332-33.347l-16-15.5-46.166-44.677a196 196 0 0 1-27.871-33.779l-4.746-7.278a107.09 107.09 0 0 1-16.984-67.821l1.017-11.637a156 156 0 0 1 5.094-28.146"/><path fill="#fe6323" d="M400.273 42.227 388.543 0l40.217 28.389 9.287 6.555a225 225 0 0 1 53.01 52.587l11.04 15.378 21.029 34.828 19.451 39.166a248.8 248.8 0 0 1 24.384 82.617l.588 5.177 5.52 48.629v33.221c0 17.772-1.58 35.508-4.719 53l-6.321 35.219 17.815-29.693a218.07 218.07 0 0 0 31.076-112.194v-92.582l18.4 24.972 18.4 24.971 18.926 31.017 15.245 32.069 11.04 29.965 11.04 29.966 8.149 30.754 2.221 8.383a280.6 280.6 0 0 1 8.11 45.412 280.6 280.6 0 0 1-.082 53.797l-2.1 21.471-6.046 29.44-.136.663a300 300 0 0 1-17.29 55.861l-1.763 4.196-3.038 6.547a300 300 0 0 1-29.229 49.795L651.4 695.257 620.909 736l-22.258 23.481a300 300 0 0 1-56.979 46.912l-4.4 2.792a300 300 0 0 1-39.323 21.03l-11.623 5.145a165.9 165.9 0 0 1-67.138 14.194H390.79a300 300 0 0 1-58.026-5.665L289.5 835.36l-30.352-8.531a43.73 43.73 0 0 1-28.376-24.906 43.7 43.7 0 0 0-4.353-7.842l-.826-1.184c-9.988-14.305-12.932-32.495-8.078-49.253 4.14-14.29 2.691-29.735-4.109-42.968l-8.863-17.247-16.297-41.532-6.835-25.76-4.205-24.183-1.191-8.334A300 300 0 0 1 173 541.194v-8.12l2.572-34.079a300 300 0 0 1 6.367-42.832l.787-3.523.732-3.279a300 300 0 0 1 12.644-41.934l2.921-7.621 1.388-3.622a300 300 0 0 1 22.89-47.006l1.482-2.469 14.983-24.972 16.297-21.817 2.28-3.052a293 293 0 0 1 30.84-35.062l16.823-16.297 48.54-46.975a206 206 0 0 0 29.304-35.516l4.991-7.653a112.6 112.6 0 0 0 17.857-71.31l-1.069-12.234a164 164 0 0 0-5.356-29.594"/><path fill="#ffa624" d="m435.104 281.552-7.437-26.775 24.38 17.21a193.6 193.6 0 0 1 61.519 71.589l2.719 5.438a269.9 269.9 0 0 1 26.774 90.269l1.608 14.161v37l-7 51.333L575 490.444l7.075-11.588a300 300 0 0 0 21.237-41.823L622 391.777l8.333 29 2.53 10.777a300 300 0 0 1 6.954 44.301L641 490.444v71.667l-3 30.666-3.339 16.261A219.7 219.7 0 0 1 622 649.944a237.5 237.5 0 0 1-23.145 39.429l-4.522 6.238L575 721.444l-12.693 13.391a206.9 206.9 0 0 1-66.405 46.849l-6.235 2.76a94.4 94.4 0 0 1-35.516 10.874l-9.651.959-34 3.5h-83.233c-2.285 0-4.566-.192-6.819-.574l-15.617-2.649c-10.585-1.796-18.331-10.966-18.331-21.703 0-4.289 1.253-8.484 3.605-12.071l18.431-28.105A46.31 46.31 0 0 0 311 688.111l-10.333-26.334-4.334-16.333-2.666-15.333-.027-.188a263 263 0 0 1-2.64-37.146l1.459-19.326a222 222 0 0 1 4.708-31.674 219 219 0 0 1 9.244-30.656l1.089-2.844.226-.591a211 211 0 0 1 16.107-33.075l9.5-15.834 10.334-13.833 1.445-1.935a185.6 185.6 0 0 1 19.555-22.232l10.666-10.333 30.778-29.785a130.7 130.7 0 0 0 18.58-22.519l3.165-4.852a71.42 71.42 0 0 0 11.322-45.214l-.678-7.758a104 104 0 0 0-3.396-18.764"/><path fill="#ffa624" d="m327.333 290.777 20.167-48-22.879 9.103a161.432 161.432 0 0 0-71.456 55.846l-5.153 7.178a230 230 0 0 0-18.867 31.25l-1.43 2.86a269.9 269.9 0 0 0-26.774 90.269l-1.608 14.161v37l7 51.333L169 490.444l-7.075-11.588a300 300 0 0 1-21.237-41.823L122 391.777l-8.333 29-2.53 10.777a300 300 0 0 0-6.954 44.301L103 490.444v71.667l3 30.666 3.339 16.261A219.7 219.7 0 0 0 122 649.944a237.5 237.5 0 0 0 23.145 39.429l4.522 6.238L169 721.444l12.693 13.391a206.9 206.9 0 0 0 66.405 46.849l6.235 2.76 11.683 5.171a55.4 55.4 0 0 0 18.081 4.569l32.98 2.589a9.03 9.03 0 0 0 8.988-5.406 9.03 9.03 0 0 1 4.09-4.402l30.161-15.81a105.6 105.6 0 0 0 15.793-10.166l3.247-2.525a151.6 151.6 0 0 0 28.63-29.277l3.277-4.413a192 192 0 0 0 16.613-26.692l5.124-9.971 10.333-26.334 4.334-16.333 2.666-15.333.027-.188a263 263 0 0 0 2.64-37.146l-1.459-19.326a222 222 0 0 0-4.708-31.674 219 219 0 0 0-9.244-30.656l-1.089-2.844-.226-.591a211 211 0 0 0-16.107-33.075l-9.5-15.834-10.334-13.833-1.445-1.935a185.6 185.6 0 0 0-19.555-22.232 200 200 0 0 1-19.69-22.128L347.5 382.777l-19.485-21.224a49.27 49.27 0 0 1-8.44-53.966z"/><path fill="#fff28c" d="M270.154 638.502 220 538l-1.238 10.895a78 78 0 0 1-5.589 21.41 78.2 78.2 0 0 0-5.27 18.955l-1.521 10.425a251 251 0 0 0 2.225 53.144l.573 3.847a137.96 137.96 0 0 0 29.198 65.636l3.287 4.049a130.3 130.3 0 0 0 19.198 19.166l16.305 13.194a71.05 71.05 0 0 0 44.693 15.817h33.461c20.76 0 37.59-16.829 37.59-37.589V723.83a131.8 131.8 0 0 1 5.331-37.103 131.77 131.77 0 0 0-14.662-106.884l-52.678-84.381 1.514 27.15c.938 16.824-.02 33.7-2.856 50.31-3.883 22.744-11.384 45.02-21.97 65.522-7.848 15.2-29.799 15.365-37.437.058"/><path fill="#fff28c" d="m498.495 646.089 52.716-96.568 7.5 46 1.501 18.598c0 16.222-1.723 32.398-5.142 48.256l-.747 3.469a125.9 125.9 0 0 1-30.434 58.048l-1.97 2.13a137.4 137.4 0 0 1-21.444 18.807c-21.294 15.073-46.569 24.003-72.613 25.534L357.5 774.5l10.719-15.241a87.85 87.85 0 0 0 13.854-69.802l-.959-4.267a127.24 127.24 0 0 1 20.764-102.089l51.074-71.178-2.971 24.631a204.959 204.959 0 0 0 15.701 106.668l.638 1.46c5.974 13.657 25.033 14.49 32.175 1.407"/></svg>