<svg xmlns="http://www.w3.org/2000/svg" width="1600" height="1948" fill="none"><path fill="#ff9700" d="M605.615 409.037 617.154 310l-29.423 49.518-23.17 38.994a100 100 0 0 0-9.783 22.248l-12.624 41.922-8.077 26.823-15.385 60.751-14.23 68.318-12.619 60.577a100 100 0 0 0-1.988 15.637l-3.663 76.926-4.038 84.823v104.539l8.077 107.294-25.646-101.911a100 100 0 0 1-2.71-16.494l-7.413-93.428V659.38L441 702.938l-13.462 43.558-13.846 54.104-11.154 55.937-8.076 52.27-8.077 52.269-5.962 53.644-5.961 53.65-3.462 87.11 3.462 84.37 4.423 51.35 4.423 51.35 9.615 54.56 11.154 57.32 20.769 68.31 18.864 60.1a100 100 0 0 1 4.308 22.44l14.52 192.72h259.616l78.846-6.11-26.154-198.08-6.154-209.08 3.077-42.18 3.077-51.35v-51.35l-3.077-97.21-4.038-43.1-4.039-43.09-7.884-49.06-7.885-49.065-10.961-43.558L726 871.21l-11.923-38.056-11.923-38.056-12.308-28.428-12.308-28.427-44.864-103.517a100 100 0 0 1-4.704-13.382l-15.432-56.416-8.678-51.343a100 100 0 0 1-1.331-20.328z"/><path fill="#ffa624" d="M808.791 284.709 786.07 185l62.267 53.578 49.724 42.786a100 100 0 0 1 20.942 25.052l25.788 43.784 17.093 29.022 32.558 65.733 30.118 73.918 24.53 60.205a100.1 100.1 0 0 1 6.96 28.459l7.17 77.033 8.55 91.778v105.787c0 4.875-.36 9.744-1.07 14.567l-16.03 108.838 51.86-105.342a100 100 0 0 0 9.09-28.825l13.57-87.403a100 100 0 0 0 1.18-15.336V563.026l28.49 47.129 28.49 47.129 29.3 58.54 23.61 60.524 17.09 56.555 17.09 56.555 12.62 58.043 12.61 58.039 6.72 86.39c.41 5.24.4 10.51-.02 15.75l-6.7 83.4-9.36 55.57-7.98 47.4c-.92 5.43-2.28 10.78-4.07 15.98l-17.66 51.22-20.52 53.92a99.6 99.6 0 0 1-7.51 15.53l-39.52 66.48-36.49 59.43a100 100 0 0 0-13.71 37.74L1113.28 1795H563.86L397 1788.39l52.9-204.84a100 100 0 0 0 3.012-19.26l11.886-206.46c.382-6.64.101-13.29-.837-19.87l-5.101-35.75-6.511-55.56v-55.57l6.511-105.17 8.547-46.63 8.546-46.634 16.687-53.083 14.39-45.778a100 100 0 0 1 5.677-14.174l19.816-40.259 23.198-47.129 25.232-41.176 21.232-34.647a100 100 0 0 1 8.95-12.374l21.098-24.913 26.046-30.758 94.054-110.952a100 100 0 0 0 11.893-17.489l27.545-51.483a100 100 0 0 0 6.772-15.786l13.058-39.498a100 100 0 0 0 4.798-38.538l-5.364-74.832a100 100 0 0 0-2.244-15.068"/><path fill="#ffa624" d="m494.13 357.421 2.572-27.441a300 300 0 0 1 16.901-74.928l22.131-60.589L582.429 67l-41.092 51.169a300 300 0 0 0-41.191 68.18l-22.56 51.864-12.149 23.978a300 300 0 0 0-22.961 60.976l-6.651 25.905-7.401 28.823-14.097 65.284-13.039 73.413-13.039 73.414-3.701 91.151-3.7 91.151v112.337l7.401 115.293-20.84-97.121a300 300 0 0 1-5.993-42.689l-5.942-87.82V560.443l-12.334 46.808-12.335 46.807-12.687 58.139-10.22 60.111-7.401 56.168-7.4 56.169-5.463 57.647-5.462 57.646L279 1093.55l3.172 90.66 4.053 55.18 4.052 55.19 8.811 58.63 10.22 61.59 19.03 73.41 12.761 47.68a300 300 0 0 1 9.583 58.33L362.875 1784h237.88l72.245-6.57-23.964-212.85-5.639-224.67 2.819-45.33 2.82-55.19v-55.18l-2.82-104.45-3.7-46.32-3.7-46.312-7.225-52.72-7.224-52.719-10.044-46.808-10.044-46.807-10.925-40.894-10.925-40.895-11.277-30.548-11.277-30.548-43.7-118.25-15.858-67.993-4.429-30.73a300 300 0 0 1-1.758-70.795"/><path fill="#fe6323" d="M303.508 347.112 317.113 310l-19.557 11.655a178.05 178.05 0 0 0-76.19 92.102l-11.346 31.194-9.864 27.118-18.788 61.422-17.379 69.071-10.439 41.488a300 300 0 0 0-8.574 55.979l-3.299 57.363-4.931 85.759v105.693l9.863 108.476-25.084-82.525a300 300 0 0 1-11.6-58.627l-6.998-73.017V643.819l-16.44 44.039-16.44 44.038-16.91 54.701-13.621 56.554-9.864 52.846-9.864 52.847-7.28 54.236-7.28 54.24L1 1145.39l4.227 85.3 5.402 51.92 5.402 51.92 11.742 55.16 13.622 57.95 21.822 89.97 36.038 203.58 5.286 21.01c4.85 19.28 22.186 32.8 42.068 32.8H793l-174.873-120.82c-77.983-53.87-125.918-141.44-129.286-236.16l-2.163-60.84 3.758-42.65 3.757-51.92v-51.92l-3.757-98.28-4.932-43.57-4.932-43.58-9.629-49.597-9.629-49.601-13.387-44.038-13.387-44.039-14.561-38.475-14.561-38.476-15.03-28.741-15.031-28.741-46.867-89.523a300 300 0 0 1-19.072-45.023l-13.441-40.681-5.275-25.834a300 300 0 0 1-5.77-73.278l.536-12.104a300 300 0 0 1 18.04-89.997"/><path fill="#ff9700" d="M1054.27 327.141 1035.31 310h12.1a84.49 84.49 0 0 1 73.23 42.347c3.36 5.828 6 12.035 7.89 18.49l13.32 45.663 8.07 27.69 15.39 62.716 14.23 70.527 12.71 63.011a99 99 0 0 1 1.87 15.173l3.69 79.908 4.04 87.567v107.919l-8.08 110.759 25.76-105.692a100 100 0 0 0 2.56-16.02l7.45-96.966V619.559l13.46 44.967 13.46 44.966 13.85 55.853 11.15 57.747 8.08 53.96 8.08 53.959 5.96 55.38 5.96 55.379 3.46 89.93-3.46 87.1-4.42 53.01-4.43 53.01-9.61 56.33-11.16 59.17-20.77 70.52-19.06 62.69a100.5 100.5 0 0 0-4.06 21.81L1221.46 1795H961.846L883 1788.69l26.154-204.48 6.154-215.84-3.077-43.55-3.077-53.01v-53.01l3.077-100.35 4.038-44.49 4.039-44.5 7.884-50.642 7.885-50.646 10.961-44.967L958 838.238l11.923-39.286 11.923-39.287 12.308-29.346 12.306-29.347 47.69-113.599 17.31-65.32 10.39-63.427 4.83-47.107a100.01 100.01 0 0 0-32.41-84.378"/><path fill="#fe6323" d="M1213.95 344.39 1200.29 307l19.46 11.637a178.32 178.32 0 0 1 76.14 92.283l11.35 31.304 9.86 27.173 18.76 61.546 17.36 69.21 10.46 41.709a300 300 0 0 1 8.52 55.809l3.3 57.625 4.93 85.932v105.906l-9.86 108.696 25.1-82.829a300.7 300.7 0 0 0 11.53-58.459l7-73.314V641.494l16.42 44.127 16.42 44.128 16.89 54.81 13.6 56.669 9.85 52.953 9.86 52.953 7.27 54.346 7.27 54.35 4.22 88.25-4.22 85.47-5.4 52.02-5.39 52.03-11.73 55.27-13.6 58.07-21.8 90.15-35.99 203.99-5.31 21.16c-4.82 19.26-22.13 32.76-41.99 32.76H725l174.846-121.2c77.778-53.91 125.554-141.36 128.904-235.93l2.19-61.54-3.76-42.73-3.75-52.03v-52.02l3.75-98.47 4.93-43.67 4.92-43.66 9.62-49.701 9.62-49.702 13.37-44.127 13.37-44.128 14.54-38.553 14.54-38.553 15.01-28.799 15.02-28.799 46.84-89.783a299 299 0 0 0 18.98-44.942l13.46-40.856 5.3-26.072a299.5 299.5 0 0 0 5.73-73.047l-.55-12.556a300 300 0 0 0-17.93-89.742"/><path fill="#fe6323" d="m1041.15 720.006 36.12-44.585-63.11 13.101-14.569 3.026a294.6 294.6 0 0 0-91.097 35.482l-21.281 12.704-43.426 30.847-43.796 36.879a325.8 325.8 0 0 0-72.394 86.48l-3.408 5.911-32.005 55.512-16.62 38.243a413 413 0 0 0-23.123 69.504l-10.374 43.84-5.898-44.95a285.53 285.53 0 0 1 21.234-150.942l48.314-111.171-35.126 20.383-35.126 20.383-38.912 27.369-35.042 30.551-28.895 30.221-28.894 30.222-25.834 32.677-7.041 8.907a367.55 367.55 0 0 0-61.413 114.94l-8.683 26.88-8.104 38.5a402 402 0 0 0-8.583 77.86l-.062 5.07.183 7.49a413 413 0 0 0 9.582 78.91l5.045 22.85 15.352 64.84 13.617 37.46a413 413 0 0 0 46.198 90.49l1.578 2.33a414 414 0 0 0 38.108 48.13l10.252 11.13 10.82 11.75a141.6 141.6 0 0 0 47.741 33.97 142.6 142.6 0 0 0 20.095 6.99l10.33 2.74a283.6 283.6 0 0 0 93.409 8.75l20.784-1.52a313 313 0 0 0 54.973-8.98 313.2 313.2 0 0 0 78.316-31.88l9.84-5.66a396.5 396.5 0 0 0 53.429-36.88l17.911-14.67 41.243-41.36 21.652-27.37 17.67-26.84 5.02-8.16a413 413 0 0 0 27.09-51.91l3.66-8.44 14.22-40.88c6.53-18.79 11.7-38.03 15.46-57.57l.62-3.21.55-2.87c3.81-19.76 6.16-39.77 7.05-59.88l.4-9.2.15-3.3c1.06-24.02.02-48.08-3.11-71.91l-.26-1.99-4.96-37.8-8.18-34.7-1.15-4.86a383 383 0 0 0-18.73-58.19l-11.7-28.35-33.77-81.74a269.5 269.5 0 0 1-16.656-57.94l-1.999-11.794a147.5 147.5 0 0 1-2.021-28.605 147.3 147.3 0 0 1 17.796-66.341l7.66-14.134a215 215 0 0 1 21.88-32.74"/><path fill="#fe6323" d="m558.852 720.322-36.122-44.584 63.107 13.101 14.573 3.025a294.5 294.5 0 0 1 91.097 35.483l21.281 12.703 43.426 30.848 43.796 36.879a325.8 325.8 0 0 1 72.394 86.48l3.408 5.91 32.005 55.512 16.62 38.243a413 413 0 0 1 23.123 69.498l10.374 43.84 5.898-44.95a285.5 285.5 0 0 0-21.234-150.936l-48.314-111.171 35.126 20.383 35.126 20.384 38.914 27.368 35.04 30.552 28.89 30.221 28.9 30.221 25.83 32.677 7.04 8.911a367 367 0 0 1 33.44 50.29 368 368 0 0 1 27.98 64.64l8.68 26.88 8.1 38.51c5.39 25.61 8.27 51.68 8.59 77.85l.06 5.08-.18 7.49a412.6 412.6 0 0 1-9.59 78.91l-5.04 22.85-15.35 64.84-13.62 37.45a413 413 0 0 1-46.2 90.5l-1.58 2.33a413 413 0 0 1-38.1 48.12l-10.26 11.14-10.82 11.75a141.63 141.63 0 0 1-67.832 40.95l-10.33 2.75a283.4 283.4 0 0 1-93.409 8.74l-20.784-1.51a313.7 313.7 0 0 1-54.973-8.98 313.2 313.2 0 0 1-78.316-31.88l-9.84-5.67a396.5 396.5 0 0 1-53.429-36.87l-17.911-14.67-41.243-41.36-21.649-27.37-17.67-26.84-5.026-8.17a413 413 0 0 1-27.086-51.91l-3.665-8.43-14.216-40.89a413 413 0 0 1-15.464-57.57l-.617-3.2-.552-2.87a413 413 0 0 1-7.045-59.88l-.405-9.2-.146-3.31a413 413 0 0 1 3.108-71.9l.261-1.99 4.96-37.8 8.184-34.71 1.145-4.85a383 383 0 0 1 18.735-58.2l11.696-28.35 33.772-81.734a270 270 0 0 0 16.654-57.94l1.999-11.794a147.436 147.436 0 0 0-15.77-94.946l-7.669-14.133a214.6 214.6 0 0 0-21.875-32.741"/><path fill="#fe6323" d="m690.736 340.196-20.54-71.953 67.362 47.576 14.981 10.581a381.1 381.1 0 0 1 89.771 89.093l18.696 26.049 35.758 59.104 33.264 66.573 1.732 3.467a413 413 0 0 1 40.327 133.101l1.652 13.146 10.448 83.142 1.052 67.077a413 413 0 0 1-4.974 70.704l-11.098 70.494 28.373-50.725a383.7 383.7 0 0 0 43.6-124.201 383 383 0 0 0 5.18-69.134l-2.49-158.779 31.14 42.29 31.14 42.29 32.18 52.63 26.11 54.527 19.08 51.035 19.09 51.035 14.32 52.46 5.63 20.631a413 413 0 0 1 12.22 64.631l1.54 14.38c2.73 25.43 3.1 51.06 1.09 76.56l-3.52 44.63-9.22 50.58-2.17 11.89a412.6 412.6 0 0 1-21.28 75.35l-6.69 17.25-8.86 20.6a413 413 0 0 1-37.53 68.57l-23.94 35.31-49.39 70.58-43.68 49.17a413 413 0 0 1-76.794 67.43l-21.072 14.31a413 413 0 0 1-54.229 31.1l-24.429 11.65-18.56 8.85a173.5 173.5 0 0 1-72.009 16.89 174 174 0 0 1-26.908-1.67l-13.501-1.9a348.8 348.8 0 0 1-112.784-36.18l-23.547-12.29a399 399 0 0 1-60.57-38.95 399 399 0 0 1-75.278-77.05l-14.405-19.42a413 413 0 0 1-35.267-56.55l-17.884-34.62-28.103-70.7-12.01-43.94-7.614-41.31-7.756-50.31-.791-50.42 5.468-95.55 8.477-42.46 2.724-13.65a413 413 0 0 1 15.529-56.529l7.316-20.737 5.324-15.095a413 413 0 0 1 29.034-64.225l6.874-12.288 24.14-43.157 26.402-37.789 7.566-10.83a413 413 0 0 1 41.701-50.597l4.556-4.711 27.42-28.348 78.761-81.342a354 354 0 0 0 48.053-62.159l7.8-12.81a197.554 197.554 0 0 0 27.831-122.455l-2.135-21.281a289.7 289.7 0 0 0-9.684-50.621"/><path fill="#fe6323" d="m1165.82 753.926 9.39-67.128 35.2 57.909 22.54 37.093a144.6 144.6 0 0 1 17.8 44.626l5.86 27.133 5.5 25.472 7.44 55.511 3.07 60.121 1.77 34.717c.86 16.81-1.22 33.64-6.15 49.73l-12.27 40.1-19.71 64.42-27.75 63.85c-3.41 7.86-7.52 15.41-12.28 22.54l-40.54 60.88 61.37-43.85a144.8 144.8 0 0 0 35.56-36.41l23.8-35.01c5.08-7.47 9.44-15.4 13.04-23.67l56.61-130.26 9.53 41.62 9.53 41.63 6.87 49.54 1.65 48.85-2.5 43.89-2.5 43.89-6.59 43.3-4.79 31.5c-1.2 7.86-3.04 15.6-5.5 23.15l-13.4 41.06c-2.88 8.81-6.59 17.32-11.1 25.42l-25.74 46.29-23.78 33.85-15.64 22.26a144.8 144.8 0 0 1-18.39 21.39l-23.52 22.49-26.81 23.82a145 145 0 0 1-22.51 16.41l-45.29 26.76-60.85 34.71-71.58 30.44a144.2 144.2 0 0 1-34.234 9.8l-59.685 9.36a145 145 0 0 1-21.444 1.75l-37.49.25-17.675.12c-20.178.13-40.16-3.95-58.666-11.99l-76.084-33.07a144.5 144.5 0 0 1-24.587-13.67l-71.488-49.39-33.64-27.42a60.22 60.22 0 0 1-22.159-47.02c.024-4.12-.376-8.24-1.194-12.29l-.394-1.95c-4.76-23.54 1.503-48.12 16.827-66.61 13.067-15.77 19.713-36.07 18.388-56.51l-1.726-26.63 2.212-61.38 5.506-36.27 7.959-32.84 8.119-29.56a144 144 0 0 1 6.824-19.35l12.054-27.74 31.001-58.78a144 144 0 0 1 11.053-17.73l14.359-19.71 14.287-19.6c4.154-5.7 8.719-11.09 13.659-16.12l21.619-22.04 20.172-20.56a145 145 0 0 1 19.169-16.4l22.316-15.94 32.619-23.31 32.546-18.601 22.492-12.856a145 145 0 0 1 20.897-9.822l19.34-7.27 30.181-11.346 101.687-38.162c10.12-3.8 19.79-8.722 28.82-14.674l24.37-16.075a144.4 144.4 0 0 0 21.89-17.71l2.47-2.429a144.7 144.7 0 0 0 35.7-57.21l8.51-25.43a145 145 0 0 0 6.08-25.859"/><path fill="#fe6323" d="m433.151 746.864-8.36-59.749-35.199 57.908-8.129 13.373a309.7 309.7 0 0 0-38.073 95.48l-5.501 25.471-7.439 55.511-3.068 60.121a342.6 342.6 0 0 0 14.545 117.691l2.099 6.86 19.713 64.42 18.229 41.94a413 413 0 0 0 35.038 64.33l27.305 41-38.785-27.72a300.117 300.117 0 0 1-100.795-124.6l-50.799-116.89-9.529 41.63-9.529 41.62-6.876 49.55-1.652 48.85 2.503 43.89 2.504 43.89 6.587 43.3 1.795 11.8a386.3 386.3 0 0 0 44.3 129.66l14.433 25.96 23.786 33.85.536.76a413 413 0 0 0 52.479 61.04l4.528 4.33 7.428 6.6a413 413 0 0 0 64.226 46.83l22.955 13.56 60.852 34.71 3.213 1.68a413.2 413.2 0 0 0 84.428 32.93l22.735 6.09 34.586 5.56a413 413 0 0 0 62.793 5.23l16.68.11a262.85 262.85 0 0 0 109.315-24.49l25.803-12a393.4 393.4 0 0 0 57.73-33.05l55.649-38.45 33.64-27.43a60.2 60.2 0 0 0 22.16-47.01c-.02-4.13.38-8.25 1.2-12.29l.39-1.95c4.76-23.54-1.5-48.12-16.83-66.62-13.06-15.77-19.71-36.06-18.39-56.5l1.73-26.64-2.21-61.38-5.51-36.27-7.96-32.84-3.07-11.17a412 412 0 0 0-19.468-55.22l-4.455-10.25-21.946-41.62a413 413 0 0 0-31.54-50.58l-2.927-4.02-2.724-3.74a413 413 0 0 0-38.972-46l-7.869-8.02-3.74-3.81a412.5 412.5 0 0 0-54.692-46.79l-3.225-2.31-32.619-23.3-32.546-18.605-4.554-2.602a403 403 0 0 0-58.175-27.346l-30.181-11.345-87.059-32.674a283.7 283.7 0 0 1-56.485-28.762l-10.5-6.923A155.002 155.002 0 0 1 447.99 803.2l-5.363-16.034a225.7 225.7 0 0 1-9.476-40.302"/><path fill="#ffa624" d="m735.39 997.281-10.37-37.335 51.28 36.198a137.8 137.8 0 0 1 32.439 32.176l18.636 25.96a137.6 137.6 0 0 1 11.303 18.72l26.865 53.73a137.7 137.7 0 0 1 13.655 46.04l6.886 60.66v50.94l-9.636 70.67 51.393-70.67 20.99-34.38a137.5 137.5 0 0 0 9.745-19.19l33.966-82.26 11.468 39.92 8.2 34.93c1.57 6.69 2.64 13.48 3.19 20.33l3.3 40.65v98.66l-4.13 42.21-7.84 38.19c-1.81 8.78-4.46 17.37-7.938 25.64l-6.25 14.87-7.705 16.61a138 138 0 0 1-13.413 22.85l-16.968 23.41-26.615 35.56-30.018 31.67a137.7 137.7 0 0 1-26.146 21.52l-24.653 15.65a138 138 0 0 1-18.045 9.65l-18.609 8.23-9.738 4.32a94.5 94.5 0 0 1-38.215 8.07 94 94 0 0 1-14.144-1.06l-15.561-2.36a137.6 137.6 0 0 1-43.291-14.18l-25.55-13.39a137.3 137.3 0 0 1-20.604-13.27l-12.643-9.83a137.7 137.7 0 0 1-26.006-26.59l-16.479-22.2a137 137 0 0 1-11.919-19.15l-11.806-22.97-14.225-36.25-5.965-22.49-3.671-21.1-2.288-16.02a137.5 137.5 0 0 1-1.383-19.46v-15.92l2.921-38.7c.499-6.62 1.476-13.19 2.922-19.66l2.646-11.84 2.621-11.74a138 138 0 0 1 5.802-19.24l5.802-15.14 5.098-13.31c2.867-7.48 6.382-14.7 10.504-21.57l6.883-11.47 13.078-21.79 14.225-19.05 7.632-10.21a137 137 0 0 1 14.505-16.49l6.772-6.57 14.684-14.22 45.779-44.3a137.8 137.8 0 0 0 19.574-23.73l6.95-10.65a98 98 0 0 0 8.836-16.96 98.3 98.3 0 0 0 6.75-45.29l-.976-11.17a137.6 137.6 0 0 0-4.5-24.859"/><path fill="#ffa624" d="m1059.19 721.282-11.58-51.802 21.6 18.937a469.8 469.8 0 0 1 96.99 118.098l5.07 8.775 22.78 56.568a470.1 470.1 0 0 1 32.03 132.642l4.68 51.21v71.94l-10.96 99.79 58.44-99.79 30.26-61.57 43.31-130.254 13.05 56.379 12 63.505 4.69 71.94v139.32l-4.69 59.62-5.77 34.89a470 470 0 0 1-18.48 73.89l-.8 2.36-1.06 2.86a470 470 0 0 1-34.33 72.36l-7.92 13.57-30.26 50.22-22.14 29a330.5 330.5 0 0 1-58.16 59.07 330 330 0 0 1-45.39 30.07l-7.89 4.34-12.04 6.62a88.03 88.03 0 0 1-42.37 10.88c-5.46 0-10.9-.51-16.27-1.52l-8.47-1.6a180.4 180.4 0 0 1-65.07-26.1l-14.107-9.19a257.5 257.5 0 0 1-38.367-30.55 257.3 257.3 0 0 1-42.058-53l-7.682-12.85a370 370 0 0 1-24.325-48.42l-8.921-21.56-16.175-51.19-6.783-31.75-4.175-29.81-4.174-36.29v-36.3l4.174-68.69 5.479-30.46 5.479-30.45 10.697-34.67.618-2.01a453 453 0 0 1 24.949-63.45l14.871-30.78 16.176-26.89 2.712-4.51a343.4 343.4 0 0 1 30.161-42.475l16.697-20.089 46.814-56.266a264.7 264.7 0 0 0 30.89-46.261l4.02-7.648c4.3-8.189 7.89-16.727 10.75-25.525a163.4 163.4 0 0 0 7.57-61.87l-1.16-16.487a248 248 0 0 0-5.38-36.777M546.165 739.331 577.734 646l-31.207 15.422a270.3 270.3 0 0 0-114.26 107.053l-26.985 46.688-22.78 56.592a469.6 469.6 0 0 0-32.022 132.625l-4.683 51.24v71.94l10.958 99.82-58.441-99.82-30.263-61.57-43.309-130.274-13.045 56.387-12.001 63.517-4.696 71.94v139.35l4.696 59.63 5.77 34.9a469.6 469.6 0 0 0 18.472 73.88l.804 2.37 1.07 2.87a469.7 469.7 0 0 0 34.316 72.35l7.923 13.58 30.263 50.23 22.136 29.01a331 331 0 0 0 58.16 59.08 331 331 0 0 0 45.392 30.07l7.891 4.34 12.041 6.62a88 88 0 0 0 42.37 10.88c5.458 0 10.903-.51 16.266-1.52l8.475-1.6a180.2 180.2 0 0 0 65.068-26.11l14.106-9.18a257.5 257.5 0 0 0 38.369-30.56 257.4 257.4 0 0 0 42.057-53.01l7.683-12.85a371 371 0 0 0 24.324-48.42l8.921-21.56 16.176-51.21 6.783-31.75 4.175-29.82 4.174-36.29v-36.3l-4.174-68.7-5.479-30.46-5.479-30.47-10.697-34.67-.618-2.01a452.4 452.4 0 0 0-24.95-63.45l-14.871-30.79-16.175-26.9-2.712-4.51a343.6 343.6 0 0 0-30.161-42.477l-16.697-20.092-33.134-53.795-28.755-38.906a113.4 113.4 0 0 1-15.104-106.902z"/><path fill="#ff9700" d="M890.547 739.331 922.116 646l-31.207 15.422a270.3 270.3 0 0 0-114.26 107.053l-26.985 46.688-22.781 56.592a469.6 469.6 0 0 0-32.021 132.625l-4.683 51.24v71.94l10.958 99.82-58.441-99.82-30.264-61.57-43.308-130.274-13.045 56.387-12.001 63.517-4.696 71.94v139.35l4.696 59.63 5.77 34.9a469.6 469.6 0 0 0 18.472 73.88l.804 2.37 7.854 21.03a242.6 242.6 0 0 0 17.759 37.44 243.2 243.2 0 0 1 26.085 64.42l6.787 27.59a177.45 177.45 0 0 0 31.235 65.23l4.385 5.74a146.3 146.3 0 0 0 51.23 42.29l9.04 4.49a103.4 103.4 0 0 0 45.993 10.8h52.57a180.4 180.4 0 0 0 33.365-3.12 180.2 180.2 0 0 0 65.068-26.11l14.106-9.18a257.5 257.5 0 0 0 38.369-30.56 257.6 257.6 0 0 0 42.06-53.01l7.68-12.85a370 370 0 0 0 24.32-48.42l8.93-21.56 16.17-51.21 6.78-31.75 4.18-29.82 4.17-36.29v-36.3l-4.17-68.7-5.48-30.46-5.48-30.47-10.7-34.67-.61-2.01a452.4 452.4 0 0 0-24.95-63.45l-14.87-30.79-16.18-26.9-2.71-4.51a344 344 0 0 0-30.163-42.477l-16.698-20.092-33.133-53.795-28.755-38.906a113.4 113.4 0 0 1-15.104-106.902z"/><path fill="#fff28c" d="m423.186 422.731-6.394-17.944 7.831 4.989 2.963 2.244 2.043 1.824a20 20 0 0 1 2.834 3.129l2.029 2.785.81 1.129a19.9 19.9 0 0 1 3.646 9.711l.261 2.72a20 20 0 0 1-.036 4.147l-.838 7.4a4.175 4.175 0 0 1-3.71 3.684l-10.493 1.113-2.453-.077a19.9 19.9 0 0 1-9.059-2.503l-.361-.201a19.92 19.92 0 0 1-9.758-13.069l-4.332-19.411 4.825 5.481a20 20 0 0 0 3.311 3.001l4.545 3.273a20 20 0 0 0 5.44 2.765l.655.214c3.933 1.289 7.631-2.505 6.241-6.404M944.803 39.592l-8.235-15.087-1.349 8.27-.269 3.342v2.471c0 1.274.135 2.544.403 3.788l.655 3.04.273 1.224a18 18 0 0 0 4.347 8.29l1.673 1.809a18 18 0 0 0 2.813 2.468l5.485 3.883a3.77 3.77 0 0 0 4.709-.284l7.055-6.393 1.422-1.698a18 18 0 0 0 3.759-7.602l.082-.364a17.98 17.98 0 0 0-2.933-14.422l-10.462-14.58.789 6.541c.161 1.34.171 2.692.03 4.033l-.528 5.025a18 18 0 0 1-1.408 5.324l-.249.57c-1.497 3.421-6.272 3.63-8.062.352M1368.41 599.593l9.13-16.719 1.49 9.164.3 3.705v2.738c0 1.411-.15 2.818-.45 4.198l-.72 3.368-.3 1.357a19.95 19.95 0 0 1-4.82 9.186l-1.86 2.006a20 20 0 0 1-3.11 2.736l-6.08 4.302a4.177 4.177 0 0 1-5.22-.314l-7.82-7.086-1.58-1.881a19.95 19.95 0 0 1-4.16-8.425l-.09-.403a19.9 19.9 0 0 1 3.25-15.983l11.59-16.158-.87 7.249a20.2 20.2 0 0 0-.04 4.469l.59 5.57c.21 2.035.74 4.025 1.56 5.9l.28.63c1.66 3.793 6.95 4.024 8.93.391M238.411 427.593l9.127-16.719 1.494 9.164.299 3.705v2.738c0 1.411-.15 2.818-.447 4.198l-.726 3.368-.303 1.357a19.9 19.9 0 0 1-4.816 9.186l-1.855 2.006a20 20 0 0 1-3.117 2.736l-6.079 4.302a4.17 4.17 0 0 1-5.218-.314l-7.819-7.086-1.576-1.881a19.9 19.9 0 0 1-4.166-8.425l-.091-.403a19.92 19.92 0 0 1 3.251-15.983l11.594-16.158-.874 7.249a20 20 0 0 0-.034 4.469l.586 5.57c.214 2.035.74 4.025 1.56 5.9l.276.63c1.658 3.793 6.951 4.024 8.934.391M1016.41 276.593l9.13-16.719 1.49 9.164.3 3.705v2.738c0 1.411-.15 2.818-.45 4.198l-.72 3.368-.3 1.357a19.95 19.95 0 0 1-4.82 9.186l-1.86 2.006a20 20 0 0 1-3.11 2.736l-6.08 4.302a4.177 4.177 0 0 1-5.22-.314l-7.819-7.086-1.576-1.881a19.9 19.9 0 0 1-4.166-8.425l-.091-.403a19.92 19.92 0 0 1 3.251-15.983l11.591-16.158-.87 7.249a20.2 20.2 0 0 0-.04 4.469l.59 5.57c.21 2.035.74 4.025 1.56 5.9l.28.63c1.66 3.793 6.95 4.024 8.93.391M588.327 30.593l-9.127-16.72-1.494 9.165-.299 3.705v2.738c0 1.411.15 2.819.447 4.198l.726 3.368.303 1.357a19.9 19.9 0 0 0 4.816 9.187l1.855 2.005a20 20 0 0 0 3.117 2.736l6.079 4.303a4.18 4.18 0 0 0 5.219-.314l7.819-7.086 1.576-1.882a19.9 19.9 0 0 0 4.166-8.424l.09-.404a19.92 19.92 0 0 0-3.251-15.983L598.775 6.384l.874 7.25c.179 1.483.191 2.982.034 4.468l-.585 5.57a20 20 0 0 1-1.561 5.9l-.275.63c-1.659 3.793-6.952 4.024-8.935.391M158.327 750.593l-9.127-16.719-1.494 9.164-.299 3.705v2.738c0 1.411.15 2.818.447 4.198l.726 3.368.303 1.357a19.9 19.9 0 0 0 4.816 9.186l1.855 2.006a20 20 0 0 0 3.117 2.736l6.079 4.302a4.175 4.175 0 0 0 5.219-.314l7.819-7.086 1.576-1.881a19.9 19.9 0 0 0 4.166-8.425l.09-.403a19.92 19.92 0 0 0-3.251-15.983l-11.594-16.158.874 7.249c.179 1.484.191 2.983.034 4.469l-.585 5.57a20 20 0 0 1-1.561 5.9l-.275.63c-1.659 3.793-6.952 4.024-8.935.391M1308.41 259.593l9.13-16.719 1.49 9.164.3 3.705v2.738c0 1.411-.15 2.818-.45 4.198l-.72 3.368-.3 1.357a19.95 19.95 0 0 1-4.82 9.186l-1.86 2.006a20 20 0 0 1-3.11 2.736l-6.08 4.302a4.177 4.177 0 0 1-5.22-.314l-7.82-7.086-1.58-1.881a19.95 19.95 0 0 1-4.16-8.425l-.09-.403a19.9 19.9 0 0 1 3.25-15.983l11.59-16.158-.87 7.249a20.2 20.2 0 0 0-.04 4.469l.59 5.57c.21 2.035.74 4.025 1.56 5.9l.28.63c1.66 3.793 6.95 4.024 8.93.391M454.691 1524.82l-78.454-168.67-17.915 77.93-4.621 31.68a393 393 0 0 0 3.481 83.19l.898 6.02a215.95 215.95 0 0 0 45.706 102.75l3.137 3.86a234 234 0 0 0 34.536 34.48l27.064 21.9A121.75 121.75 0 0 0 529 1744l264.756 43.16-100.958-106.85c-29.172-30.87-39.755-74.91-27.795-115.67a119.48 119.48 0 0 0-13.292-96.9l-103.09-165.13 2.37 42.5a351.588 351.588 0 0 1-38.645 180.9c-12.246 23.72-46.398 23.02-57.655-1.19M1111.96 1504.9l69.19-148.74 17.91 77.93 4.63 31.68 1.51 23.53c.78 12.13.27 24.31-1.52 36.33l-4.37 29.35-1.85 11.83a171.7 171.7 0 0 1-36.31 81.62l-14.83 18.27c-7.53 9.26-16 17.72-25.28 25.23l-25.41 20.56a171.6 171.6 0 0 1-75.47 35.1l-201.358 38.79 62.422-80.89a122.144 122.144 0 0 0 20.502-109.01l-3.535-12.05a165.43 165.43 0 0 1 18.407-134.18l92.172-147.63-3.51 62.79c-.71 12.85.02 25.74 2.18 38.43l8.12 47.54c2.97 17.37 8.59 34.19 16.68 49.85l2.72 5.26c16.35 31.68 61.97 30.74 77-1.59"/><path fill="#fff28c" d="m841.832 1531.06 76.161-170.82 19.516 92.76 5.12 37.31.164 2.53c1.99 30.7.957 61.53-3.084 92.03l-1.046 7.9-.539 3.87a219.4 219.4 0 0 1-47.863 109.07 219.5 219.5 0 0 0-30.673 49.42l-2.435 5.42-2.369 5.92a20.14 20.14 0 0 1-7.542 9.29 20.3 20.3 0 0 1-3.879 2.02l-12.039 4.68a67.74 67.74 0 0 1-30.968 5.15l-6.601-.45a76.1 76.1 0 0 1-43.256-21.69l-69.154-69.57-17.113-21.89a229.6 229.6 0 0 1-41.087-82.68 229.66 229.66 0 0 1 26.322-178.97l85.908-139.86-2.09 46.56a469.5 469.5 0 0 0 5.355 94.82l.534 3.36a451.6 451.6 0 0 0 33.952 113.9c13.312 29.68 55.461 29.63 68.706-.08"/></svg>