<svg xmlns="http://www.w3.org/2000/svg" width="1889" height="2313" fill="none"><path fill="#ef4905" fill-rule="evenodd" d="m1169.46 176 23.99 62.896a299.7 299.7 0 0 1 19.37 93.099l1.9 41.082a300.3 300.3 0 0 1-6.23 76.122l-9.64 45.371-21.2 61.678a300 300 0 0 1-20.24 45.965l-68.93 126.582-20.9 38.418-20.9 38.418-20.25 51.431-20.24 51.43-18.616 58.866-18.613 58.862-13.389 66.31-13.389 66.3-6.857 58.25-6.858 58.24-5.224 131.37v69.4l5.224 69.4 5.225 57-7.134 192.9a300 300 0 0 1-55.314 162.78L727 2161h968.03c25.63 0 47.15-19.31 49.92-44.79l16.38-150.65a218.9 218.9 0 0 1 18.23-66.71l21.84-48.25 33.79-77.03 18.14-64.63 15.65-61.53 7.19-57.91 7.2-57.91 5.63-95.13-5.63-98.24-9.7-60.49-9.7-60.5-13.14-58.94-13.14-58.94-18.14-63.08-22.53-61.012-21.9-49.119-21.9-49.119v222.33l-9.12 79.71c-2.67 23.3-8.06 46.21-16.06 68.25l-33.01 90.91 13.14-120.99v-117.88l-6.57-95.66-4.26-62.084a300 300 0 0 0-11.99-65.782l-13.47-44.82-23.15-77.039-25.03-68.507-13.14-30.247-13.78-31.718a208.1 208.1 0 0 0-32.92-52.596 208.4 208.4 0 0 0-65.18-50.849l-30.78-15.356 17.53 40.033a299.8 299.8 0 0 1 24.77 104.491l.42 7.96a300 300 0 0 1-3.9 66.603l-16.58-42.696-22.86-58.867V840.3a302 302 0 0 1-13.97 24.892l-33.06 52.875v-29.403l-6.85-114.635-5.1-85.156a300 300 0 0 0-9.24-58.046l-16.69-63.759-24.16-92.327-26.12-82.103-13.72-36.249-15.49-40.936a239.8 239.8 0 0 0-32.13-58.603 239.8 239.8 0 0 0-72.96-64.62z" clip-rule="evenodd"/><path fill="#ef4905" fill-rule="evenodd" d="m1470.54 0-26.15 73.888a300.3 300.3 0 0 0-16.92 87.28l-2.43 56.913c-1.01 23.736.8 47.508 5.39 70.817l10.72 54.387 22.12 69.35a300.4 300.4 0 0 0 18.06 44.15l70.19 138.897 20.9 41.399 20.9 41.398 20.25 55.421 20.24 55.42 18.62 63.433 18.61 63.434 13.39 71.445 13.39 71.448 6.85 62.76 6.86 62.77 5.23 141.56v74.78l-5.23 74.78-5.22 61.43 8.75 255.08c1.12 32.72-3.11 65.39-12.55 96.74l-53.4 177.47c-9.04 30.06-31.1 53.51-58.89 64.92l5.78 7.63H944.968c-25.58 0-47.005-19.37-49.572-44.82l-16.951-168.04a236.5 236.5 0 0 0-17.283-67.92l-22.563-53.7-33.789-83.01-18.145-69.65-15.643-66.3-7.195-62.4-7.196-62.4L751 1358.25l5.631-105.86 9.699-65.19 9.698-65.19 13.14-63.51 13.14-63.518 18.145-67.972 22.525-65.744 21.9-52.929 21.9-52.93v239.575l9.653 90.868a299.8 299.8 0 0 0 14.023 64.09l34.514 102.45-13.14-130.38V994.982l6.57-103.073 4.575-71.776a300 300 0 0 1 10.419-61.504l14.727-52.808 23.151-83.016 25.03-73.822 13.14-32.594 14.37-35.644a219.107 219.107 0 0 1 99.44-111.042l28.85-15.51-20.21 49.739a299.7 299.7 0 0 0-21.71 98.234l-1.12 22.873a300.2 300.2 0 0 0 4.02 65.805l16.78-46.576 22.86-63.433v235.309a298 298 0 0 0 12.57 24.103l34.46 59.392v-31.686l6.85-123.527 5.34-96.072a299.4 299.4 0 0 1 8.01-54.178l17.68-72.768 24.16-99.49 26.12-88.473 13.72-39.061 16.02-45.638a255.3 255.3 0 0 1 31.02-60.785 255.1 255.1 0 0 1 75.71-71.812z" clip-rule="evenodd"/><path fill="#ef4905" fill-rule="evenodd" d="m1051.42 72.503-61.506 20.17a125.3 125.3 0 0 0-19.604 8.334c-45.066 23.875-71.154 72.692-65.959 123.426l.627 6.122a134.4 134.4 0 0 0 7.935 33.701l36.624 97.177 80.983 160.252 20.9 41.399 20.9 41.398 20.25 55.421 20.24 55.42 18.62 63.434 18.61 63.433 13.39 71.445 13.39 71.446 6.85 62.769 6.86 62.76 5.23 141.56v74.78l-5.23 74.79-5.22 61.43 8.75 255.08c1.12 32.71-3.11 65.38-12.55 96.73l-53.4 177.48c-9.04 30.06-31.1 53.5-58.89 64.92l5.78 7.62H423.968c-25.58 0-47.005-19.37-49.572-44.82l-16.951-168.04a236.6 236.6 0 0 0-17.283-67.92l-22.563-53.69-33.789-83.02-18.145-69.64-15.643-66.3-7.195-62.4-7.196-62.41L230 1284.25l5.631-105.86 9.699-65.19 9.698-65.18 13.14-63.519 13.14-63.515 18.145-67.973 22.525-65.744 21.9-52.929 21.9-52.93v239.576l9.653 90.874c2.317 21.81 7.02 43.3 14.023 64.09l34.514 102.44-13.14-130.37V920.986l6.57-103.074 4.575-71.776a300 300 0 0 1 10.419-61.504l14.727-52.808 23.151-83.016 25.028-73.822 13.14-32.594 14.37-35.644a219.07 219.07 0 0 1 99.442-111.042l28.849-15.51-20.211 49.739a300 300 0 0 0-21.709 98.234l-1.123 22.873a300 300 0 0 0 4.025 65.805l16.784-46.576 22.858-63.433v235.309a300 300 0 0 0 12.562 24.103l34.461 59.392v-31.686l6.858-123.527 5.333-96.071a300 300 0 0 1 8.015-54.179l17.674-72.768 24.165-99.49 13.935-47.193a189.3 189.3 0 0 1 41.03-73.228l17.487-23.437a122.093 122.093 0 0 1 116.939-47.58z" clip-rule="evenodd"/><path fill="#ef4905" fill-rule="evenodd" d="m719.537 307-21.773 53.325a300 300 0 0 0-21.896 98.631l-1.326 26.905a300 300 0 0 0 7.103 81.289l8.503 37.396 20.288 55.133a300 300 0 0 0 22.376 47.503l67.71 116.132 20.899 35.882 20.899 35.883 20.246 48.036 20.247 48.036 18.613 54.979 18.613 54.98 13.389 61.93 13.389 61.93 6.857 54.4 6.858 54.4 5.224 122.7v64.82l-5.224 64.82-5.225 53.24 6.705 169.34a300 300 0 0 0 61.078 169.87L1162 2161H193.968c-25.681 0-47.29-19.24-50.258-44.75l-15.82-135.94a204.3 204.3 0 0 0-19.098-65.51l-21.193-43.71-24.399-51.96a300 300 0 0 1-15.749-41.15l-11.786-39.21-15.642-57.47-7.196-54.08-7.196-54.09L0 1484.27l5.631-91.75 9.699-56.5 9.698-56.5 13.14-55.06 13.14-55.05 18.145-58.92 22.525-56.98 21.9-45.88 21.9-45.873v207.653l8.576 69.98a300 300 0 0 0 18.153 72.19l31.461 80.94-13.14-113v-110.11l6.57-89.34 3.941-53.58a300 300 0 0 1 13.61-69.886l12.17-37.827 23.151-71.955 25.028-63.986 13.14-28.251 13.203-28.386a200.3 200.3 0 0 1 97.003-97.074L421.099 614l-16.098 34.337a284.3 284.3 0 0 0-22.576 169.955l16.44-39.542 22.858-54.982v203.436a300 300 0 0 0 15.291 25.489l31.732 47.397v-27.459l6.858-107.069 4.844-75.63a300 300 0 0 1 10.514-61.773l15.664-55.899 24.165-86.234 26.124-76.685 13.715-33.857 14.961-36.931a227.876 227.876 0 0 1 103.702-115.37z" clip-rule="evenodd"/><path fill="#ff9700" d="M815.615 772.037 827.154 673l-29.423 49.518-23.17 38.994a100 100 0 0 0-9.783 22.248l-12.624 41.922-8.077 26.823-15.385 60.751-14.23 68.318-12.619 60.576a100 100 0 0 0-1.988 15.64l-3.663 76.92-4.038 84.83v104.54l8.077 107.29-25.646-101.91a100 100 0 0 1-2.71-16.5l-7.413-93.42v-197.16L651 1065.94l-13.462 43.56-13.846 54.1-11.154 55.94-8.076 52.27-8.077 52.27-5.962 53.64-5.961 53.65-3.462 87.11 3.462 84.37 4.423 51.35 4.423 51.35 9.615 54.56 11.154 57.32 20.769 68.31 18.864 60.1a100 100 0 0 1 4.308 22.44l14.52 192.72h259.616l78.846-6.11-26.154-198.08-6.154-209.08 3.077-42.18 3.077-51.35v-51.35l-3.077-97.21-4.038-43.1-4.039-43.09-7.884-49.06-7.885-49.06-10.961-43.56L936 1234.21l-11.923-38.06-11.923-38.05-12.308-28.43-12.308-28.43-44.864-103.514a100 100 0 0 1-4.704-13.382l-15.432-56.416-8.678-51.343a100 100 0 0 1-1.331-20.328z"/><path fill="#ffa624" d="M1018.79 650.709 996.07 551l62.27 53.578 49.72 42.786a99.9 99.9 0 0 1 20.94 25.052l25.79 43.784 17.09 29.022 32.56 65.733 30.12 73.918 24.53 60.205a100.1 100.1 0 0 1 6.96 28.459l7.17 77.033 8.55 91.78v105.79c0 4.87-.36 9.74-1.07 14.56l-16.03 108.84 51.86-105.34a100 100 0 0 0 9.09-28.83l13.57-87.4c.79-5.07 1.18-10.2 1.18-15.34V929.026l28.49 47.129 28.49 47.125 29.3 58.54 23.61 60.53 17.09 56.55 17.09 56.56 12.62 58.04 12.61 58.04 6.72 86.39c.41 5.24.4 10.51-.02 15.75l-6.7 83.4-9.36 55.57-7.98 47.4c-.92 5.43-2.28 10.78-4.07 15.98l-17.66 51.22-20.52 53.92a99.6 99.6 0 0 1-7.51 15.53l-39.52 66.48-36.49 59.43a100 100 0 0 0-13.71 37.74L1323.28 2161H773.86L607 2154.39l52.9-204.84a100 100 0 0 0 3.012-19.26l11.886-206.46c.382-6.64.101-13.29-.837-19.87l-5.101-35.75-6.511-55.56v-55.57l6.511-105.17 8.547-46.63 8.546-46.63 16.687-53.09 14.39-45.77a99.5 99.5 0 0 1 5.677-14.18l19.816-40.26 23.198-47.13 25.232-41.17 21.232-34.65a100 100 0 0 1 8.95-12.37l21.098-24.92 26.046-30.76 94.054-110.947a100 100 0 0 0 11.893-17.489l27.544-51.483a99.6 99.6 0 0 0 6.77-15.786l13.06-39.498a100.1 100.1 0 0 0 4.8-38.538l-5.37-74.832a99.5 99.5 0 0 0-2.24-15.068"/><path fill="#ff9700" d="m704.13 723.42 2.572-27.44c2.4-25.597 8.08-50.78 16.901-74.929l22.131-60.589L792.429 433l-41.092 51.168a300 300 0 0 0-41.191 68.181l-22.56 51.863-12.149 23.979a300 300 0 0 0-22.961 60.976l-6.651 25.905-7.401 28.823-14.097 65.284-13.039 73.413-13.039 73.414-3.701 91.154-3.7 91.15v112.33l7.401 115.3-20.84-97.12a300 300 0 0 1-5.993-42.69l-5.942-87.82V926.443L553.14 973.25l-12.335 46.81-12.687 58.14-10.22 60.11-7.401 56.17-7.4 56.16-5.463 57.65-5.462 57.65-3.172 93.61 3.172 90.66 4.053 55.18 4.052 55.19 8.811 58.63 10.22 61.59 19.03 73.41 12.761 47.68a300 300 0 0 1 9.583 58.33L572.875 2150h237.88l72.245-6.57-23.964-212.85-5.639-224.67 2.819-45.33 2.82-55.19v-55.18l-2.82-104.45-3.7-46.32-3.7-46.31-7.225-52.72-7.224-52.72-10.044-46.81-10.044-46.81-10.925-40.89-10.925-40.9-11.277-30.54-11.277-30.55-43.7-118.251-15.858-67.994-4.429-30.729a300 300 0 0 1-1.758-70.796"/><path fill="#fe6323" d="M459.042 710.169 472.71 673l-19.72 11.716a178.52 178.52 0 0 0-76.526 92.293l-11.388 31.215-9.914 27.173-18.883 61.546-17.467 69.21-10.487 41.557a300 300 0 0 0-8.623 56.13l-3.314 57.46-4.957 85.93v105.9l9.914 108.7-25.207-82.68a300 300 0 0 1-11.665-58.78l-7.032-73.14v-199.74l-16.522 44.13-16.523 44.13-16.995 54.81-13.69 56.67-9.914 52.95-9.914 52.95-7.317 54.35-7.317 54.35-4.249 88.25 4.249 85.47 5.429 52.02 5.429 52.03 11.802 55.27 13.69 58.07 21.932 90.15 6.084 37.09a300 300 0 0 0 17.83 63.67l8.263 20.48a248.3 248.3 0 0 0 18.528 36.8l8.572 13.99a156.5 156.5 0 0 0 36.614 41.21 156.5 156.5 0 0 0 34.872 20.78l9.377 4.05a234.4 234.4 0 0 0 39.834 13.11l1.188.28a248.8 248.8 0 0 0 56.247 6.45H951l-176.06-121.27c-78.172-53.84-126.25-141.51-129.633-236.37l-2.176-61.03 3.777-42.73 3.776-52.03v-52.02l-3.776-98.47-4.957-43.67-4.957-43.66-9.678-49.7-9.677-49.7-13.455-44.13-13.454-44.13-14.634-38.55-14.635-38.55-15.107-28.8-15.106-28.8-47.11-89.719a300 300 0 0 1-19.161-45.096l-13.511-40.768-5.294-25.856a300 300 0 0 1-5.804-73.493l.535-12.056a300 300 0 0 1 18.139-90.233"/><path fill="#ff9700" d="M1264.27 693.141 1245.31 676h12.1a84.49 84.49 0 0 1 73.23 42.347c3.36 5.828 6 12.035 7.89 18.49l13.32 45.663 8.07 27.69 15.39 62.716 14.23 70.527 12.71 63.007a99.5 99.5 0 0 1 1.87 15.18l3.69 79.91 4.04 87.56v107.92l-8.08 110.76 25.76-105.69a100 100 0 0 0 2.56-16.02l7.45-96.97V985.559l13.46 44.971 13.46 44.96 13.85 55.86 11.15 57.74 8.08 53.96 8.08 53.96 5.96 55.38 5.96 55.38 3.46 89.93-3.46 87.1-4.42 53.01-4.43 53.01-9.61 56.33-11.16 59.17-20.77 70.52-19.06 62.69a100.5 100.5 0 0 0-4.06 21.81L1431.46 2161h-259.61l-78.85-6.31 26.15-204.48 6.16-215.84-3.08-43.55-3.08-53.01v-53.01l3.08-100.35 4.04-44.49 4.04-44.5 7.88-50.64 7.89-50.65 10.96-44.97 10.96-44.96 11.92-39.29 11.93-39.28 12.3-29.35 12.31-29.35 47.69-113.597 17.31-65.32 10.39-63.427 4.83-47.107a100.01 100.01 0 0 0-32.41-84.378"/><path fill="#fe6323" d="M1426.96 710.169 1413.29 673l19.72 11.716a178.5 178.5 0 0 1 53.7 49.178 178.4 178.4 0 0 1 22.83 43.115l11.38 31.215 9.92 27.173 18.88 61.546 17.47 69.21 10.49 41.557a300 300 0 0 1 8.62 56.13l3.31 57.46 4.96 85.93v105.9l-9.91 108.7 25.2-82.68c5.84-19.15 9.75-38.85 11.67-58.78l7.03-73.14v-199.74l16.52 44.13 16.52 44.13 17 54.81 13.69 56.67 9.91 52.95 9.92 52.95 7.31 54.35 7.32 54.35 4.25 88.25-4.25 85.47-5.43 52.02-5.43 52.03-11.8 55.27-13.69 58.07-21.93 90.15-6.09 37.09a299.6 299.6 0 0 1-17.82 63.67l-8.27 20.48a247 247 0 0 1-18.53 36.8l-8.57 13.99a156.5 156.5 0 0 1-36.61 41.21 156.7 156.7 0 0 1-34.87 20.78l-9.38 4.05a234.3 234.3 0 0 1-39.84 13.11l-1.18.28a249 249 0 0 1-56.25 6.45H935l176.06-121.27c78.17-53.84 126.25-141.51 129.63-236.37l2.18-61.03-3.78-42.73-3.77-52.03v-52.02l3.77-98.47 4.96-43.67 4.96-43.66 9.67-49.7 9.68-49.7 13.46-44.13 13.45-44.13 14.63-38.55 14.64-38.55 15.11-28.8 15.1-28.8 47.11-89.719a299 299 0 0 0 19.16-45.096l13.51-40.768 5.3-25.856c4.95-24.166 6.9-48.85 5.8-73.493l-.53-12.056a300 300 0 0 0-18.14-90.233"/><path fill="#fe6323" d="m1251.15 1086.01 36.12-44.59-63.11 13.1-14.57 3.03a294.6 294.6 0 0 0-91.1 35.48l-21.28 12.7-43.42 30.85-43.8 36.88a325.8 325.8 0 0 0-72.393 86.48l-3.408 5.91-32.005 55.51-16.62 38.25a412.7 412.7 0 0 0-23.123 69.5l-10.374 43.84-5.898-44.95a285.5 285.5 0 0 1 21.234-150.94l48.314-111.17-35.126 20.38-35.126 20.38-38.912 27.37-35.042 30.55-28.895 30.22-28.894 30.23-25.834 32.67-7.041 8.91a367.55 367.55 0 0 0-61.413 114.94l-8.683 26.88-8.104 38.5a402 402 0 0 0-8.583 77.86l-.062 5.07.183 7.49a413 413 0 0 0 9.582 78.91l5.045 22.85 15.352 64.84 13.617 37.46a413 413 0 0 0 46.198 90.49l1.578 2.33a414 414 0 0 0 38.108 48.13l10.252 11.13 10.82 11.75a141.6 141.6 0 0 0 47.741 33.97 142.6 142.6 0 0 0 20.095 6.99l10.33 2.74a283.6 283.6 0 0 0 93.409 8.75l20.784-1.52a313 313 0 0 0 54.973-8.98 313.3 313.3 0 0 0 78.321-31.88l9.83-5.66a396.4 396.4 0 0 0 53.43-36.88l17.91-14.67 41.25-41.36 21.65-27.37 17.67-26.84 5.02-8.16a413 413 0 0 0 27.09-51.91l3.66-8.44 14.22-40.88c6.53-18.79 11.7-38.03 15.46-57.57l.62-3.21.55-2.87c3.81-19.76 6.16-39.77 7.05-59.88l.4-9.2.15-3.3c1.06-24.02.02-48.08-3.11-71.91l-.26-1.99-4.96-37.8-8.18-34.7-1.15-4.86a383 383 0 0 0-18.73-58.19l-11.7-28.35-33.77-81.74a269.8 269.8 0 0 1-16.66-57.94l-2-11.79c-1.6-9.45-2.27-19.03-2.02-28.61.63-23.2 6.72-45.94 17.8-66.34l7.66-14.13c6.28-11.56 13.6-22.52 21.88-32.74"/><path fill="#fe6323" d="m768.852 1086.32-36.121-44.58 63.107 13.1 14.573 3.02a294.5 294.5 0 0 1 91.096 35.49l21.282 12.7 43.426 30.85 43.795 36.88a325.6 325.6 0 0 1 72.39 86.48l3.41 5.91 32.01 55.51 16.62 38.24c9.75 22.44 17.49 45.7 23.12 69.5l10.37 43.84 5.9-44.95c4.39-33.44 2.82-67.39-4.64-100.28a286 286 0 0 0-16.59-50.66l-48.32-111.17 35.13 20.39 35.13 20.38 38.91 27.37 35.04 30.55 28.9 30.22 28.89 30.22 25.83 32.68 7.04 8.91a367 367 0 0 1 33.44 50.29 368 368 0 0 1 27.98 64.64l8.68 26.88 8.1 38.51c5.39 25.61 8.27 51.68 8.59 77.85l.06 5.08-.18 7.49a412.6 412.6 0 0 1-9.59 78.91l-5.04 22.85-15.35 64.84-13.62 37.45a413 413 0 0 1-46.2 90.5l-1.58 2.33a413 413 0 0 1-38.1 48.12l-10.26 11.14-10.82 11.75a141.63 141.63 0 0 1-67.83 40.95l-10.33 2.75c-30.44 8.08-62 11.04-93.41 8.74l-20.78-1.51a313.7 313.7 0 0 1-54.98-8.98 313.1 313.1 0 0 1-78.314-31.88l-9.839-5.67a396.4 396.4 0 0 1-53.429-36.87l-17.911-14.67-41.243-41.36-21.65-27.37-17.67-26.84-5.026-8.17a413 413 0 0 1-27.086-51.91l-3.665-8.43-14.216-40.89a413 413 0 0 1-15.463-57.57l-.617-3.2-.552-2.87a413 413 0 0 1-7.045-59.88l-.406-9.2-.146-3.31a413 413 0 0 1 3.109-71.9l.261-1.99 4.959-37.8 8.184-34.71 1.145-4.85a383 383 0 0 1 18.735-58.2l11.696-28.35 33.773-81.73a270 270 0 0 0 16.653-57.94l1.999-11.8a147.384 147.384 0 0 0-15.77-94.94l-7.669-14.14a214.5 214.5 0 0 0-21.875-32.74"/><path fill="#fe6323" d="m797.659 596.205-31.584-74.857 74.173 42.021 14.781 8.374a408.2 408.2 0 0 1 104.603 84.79l22.605 25.571 44.693 58.958 43.41 67.397 8.05 12.504a413 413 0 0 1 52.04 118.013l6.73 25.432 23.41 88.552 12.6 78.77a413.6 413.6 0 0 1 5.18 64.69l.1 84.17 21.58-63.2a412.7 412.7 0 0 0 22.13-130.49l.07-9.55c.16-22.82-1.56-45.61-5.17-68.14l-28.03-175.328 37.48 41.403 37.48 41.402 40.13 52.454 34.42 55.359 26.93 52.57 26.92 52.57 22.43 54.79 10.94 26.74a413 413 0 0 1 18.75 57.46l6.83 27.66c5.6 22.7 9.27 45.84 10.96 69.16l4.04 55.7-1.18 56.07-.41 19.63c-.51 24.24-3.15 48.39-7.9 72.17l-5.1 25.59-6.67 28.4a412.7 412.7 0 0 1-23.48 70.66l-19.9 45.64-37.81 83.38-36.6 61.24a413.4 413.4 0 0 1-63.65 81.32l-18.92 18.77a413.6 413.6 0 0 1-49.91 42.22l-21.62 15.52-17.56 12.62a159.8 159.8 0 0 1-67.98 28c-8.94 1.43-17.98 2.1-27.02 2l-13.98-.16a323.8 323.8 0 0 1-115.561-22.71l-25.303-10.01a411.4 411.4 0 0 1-68.235-34.67 411.2 411.2 0 0 1-84.35-70.66l-21.258-23.32a413 413 0 0 1-39.173-50.26l-25.371-38.32-38.942-72.6-18.8-45.88-14.035-43.66-15.59-53.38-8.712-54.49-9.612-104.23 1.716-47.17 1.715-47.17 9.302-54.87 3.733-22.01c3.707-21.87 9.17-43.4 16.335-64.4l6.348-18.59 17.114-50.13 20.196-44.64 6.886-15.22a413 413 0 0 1 31.033-56.41l4.968-7.57 22.689-34.56 64.404-97.986a393 393 0 0 0 38.807-75.856l5.229-13.716a231 231 0 0 0 8.776-136.242l-5.678-23.65a345.3 345.3 0 0 0-17.622-53.635"/><path fill="#fe6323" d="m1375.82 1118.93 9.39-67.13 35.2 57.91 22.55 37.09a144.7 144.7 0 0 1 17.79 44.63l5.86 27.13 5.5 25.47 7.44 55.51 3.07 60.12 1.77 34.72c.86 16.81-1.22 33.64-6.15 49.73l-12.27 40.1-19.71 64.42-27.75 63.85c-3.41 7.86-7.52 15.41-12.28 22.54l-40.54 60.88 61.37-43.85a144.8 144.8 0 0 0 35.56-36.41l23.8-35.01c5.08-7.47 9.44-15.4 13.04-23.67l56.61-130.26 9.53 41.62 9.53 41.63 6.87 49.54 1.65 48.85-2.5 43.89-2.5 43.89-6.59 43.3-4.79 31.5c-1.2 7.86-3.03 15.6-5.5 23.15l-13.4 41.06c-2.88 8.81-6.59 17.32-11.1 25.42l-25.74 46.29-23.78 33.85-15.64 22.26a144.8 144.8 0 0 1-18.39 21.39l-23.52 22.49-26.81 23.82a145 145 0 0 1-22.51 16.41l-45.29 26.76-60.85 34.71-71.58 30.44a144 144 0 0 1-34.23 9.8l-59.69 9.36c-7.09 1.11-14.26 1.7-21.44 1.75l-37.49.25-17.68.12c-20.18.13-40.158-3.95-58.664-11.99l-76.084-33.07a144.5 144.5 0 0 1-24.586-13.67l-71.489-49.39-33.64-27.42a60.22 60.22 0 0 1-22.159-47.02c.024-4.12-.375-8.24-1.193-12.29l-.394-1.95c-4.761-23.54 1.503-48.12 16.827-66.61 13.067-15.77 19.713-36.07 18.388-56.51l-1.727-26.63 2.212-61.38 5.506-36.27 7.959-32.84 8.119-29.56a144 144 0 0 1 6.825-19.35l12.053-27.74 31.001-58.78c3.253-6.17 6.947-12.1 11.054-17.73l14.358-19.71 14.287-19.6c4.154-5.7 8.72-11.09 13.659-16.12l21.62-22.04 20.172-20.56c5.9-6.01 12.314-11.5 19.168-16.4l22.317-15.94 32.621-23.31 32.54-18.6 22.5-12.86c6.69-3.82 13.68-7.11 20.89-9.82l19.34-7.27 30.18-11.34 101.69-38.17c10.12-3.8 19.79-8.72 28.82-14.67l24.38-16.08c7.85-5.17 15.18-11.11 21.88-17.71l2.47-2.42c16.24-16 28.47-35.6 35.7-57.22l8.51-25.43a145 145 0 0 0 6.08-25.85"/><path fill="#fe6323" d="m643.152 1111.86-8.361-59.75-35.199 57.91-8.128 13.38a309.6 309.6 0 0 0-38.073 95.48l-5.501 25.47-7.44 55.51-3.068 60.12a342.6 342.6 0 0 0 14.546 117.69l2.099 6.86 19.713 64.42 18.228 41.94a413 413 0 0 0 35.038 64.33l27.306 41-38.785-27.72a300.117 300.117 0 0 1-100.795-124.6l-50.799-116.89-9.529 41.63-9.53 41.62-6.875 49.55-1.653 48.85 2.504 43.89 2.503 43.89 6.587 43.3 1.795 11.8a386.271 386.271 0 0 0 44.3 129.66l14.433 25.96 23.787 33.85.535.76a413 413 0 0 0 52.48 61.04l4.528 4.33 7.427 6.6a413 413 0 0 0 64.226 46.83l22.955 13.56 60.852 34.71 3.213 1.68a413.2 413.2 0 0 0 84.429 32.93l22.734 6.09 34.587 5.56a413 413 0 0 0 62.792 5.23l16.68.11a262.9 262.9 0 0 0 109.317-24.49l25.8-12a393 393 0 0 0 57.73-33.05l55.65-38.45 33.64-27.43a60.2 60.2 0 0 0 22.16-47.01c-.02-4.13.38-8.25 1.2-12.29l.39-1.95c4.76-23.54-1.5-48.12-16.83-66.62-13.06-15.77-19.71-36.06-18.38-56.5l1.72-26.64-2.21-61.38-5.51-36.27-7.96-32.84-3.06-11.17a413 413 0 0 0-19.48-55.22l-4.45-10.25-21.95-41.62c-9.28-17.6-19.82-34.5-31.54-50.58l-2.93-4.02-2.72-3.74a413 413 0 0 0-38.97-46l-7.87-8.02-3.74-3.81a412 412 0 0 0-54.69-46.79l-3.23-2.31-32.616-23.3-32.547-18.6-4.553-2.61a403 403 0 0 0-58.175-27.34l-30.182-11.35-87.059-32.67a284.2 284.2 0 0 1-56.485-28.76l-10.5-6.93a154.6 154.6 0 0 1-23.438-18.96 155 155 0 0 1-38.234-61.27l-5.364-16.03a225.7 225.7 0 0 1-9.475-40.31"/><path fill="#ffa624" d="m945.39 1363.28-10.37-37.33 51.28 36.19a138 138 0 0 1 32.44 32.18l18.64 25.96c4.25 5.93 8.03 12.19 11.3 18.72l26.86 53.73a137.6 137.6 0 0 1 13.66 46.04l6.88 60.66v50.94l-9.63 70.67 51.39-70.67 20.99-34.38c3.75-6.13 7-12.55 9.75-19.19l33.96-82.26 11.47 39.92 8.2 34.93c1.57 6.69 2.64 13.48 3.19 20.33l3.3 40.65v98.66l-4.13 42.21-7.84 38.19c-1.81 8.78-4.46 17.37-7.94 25.64l-6.25 14.87-7.7 16.61a137.8 137.8 0 0 1-13.42 22.85l-16.96 23.41-26.62 35.56-30.02 31.67a137.7 137.7 0 0 1-26.14 21.52l-24.66 15.65c-5.76 3.66-11.79 6.88-18.04 9.65l-18.61 8.23-9.74 4.32a94.5 94.5 0 0 1-38.213 8.07 94 94 0 0 1-14.144-1.06l-15.561-2.36a137.6 137.6 0 0 1-43.291-14.18l-25.55-13.39a137.3 137.3 0 0 1-20.604-13.27l-12.643-9.83a137.7 137.7 0 0 1-26.006-26.59l-16.479-22.2a137 137 0 0 1-11.919-19.15l-11.806-22.97-14.225-36.25-5.965-22.49-3.671-21.1-2.288-16.02a137.5 137.5 0 0 1-1.383-19.46v-15.92l2.921-38.7c.499-6.62 1.476-13.19 2.922-19.66l2.646-11.84 2.621-11.74a138 138 0 0 1 5.802-19.24l5.802-15.14 5.098-13.31c2.867-7.48 6.382-14.7 10.504-21.57l6.883-11.47 13.078-21.79 14.225-19.05 7.632-10.21a137 137 0 0 1 14.505-16.49l6.772-6.57 14.684-14.22 45.779-44.3a137.8 137.8 0 0 0 19.574-23.73l6.95-10.65a98 98 0 0 0 8.836-16.96 98.3 98.3 0 0 0 6.75-45.29l-.976-11.17a137.6 137.6 0 0 0-4.5-24.86"/><path fill="#ffa624" d="m1289.11 967.812-12.9-57.671 24.05 21.082a522.7 522.7 0 0 1 107.98 131.477l5.65 9.77 25.36 62.98a522.7 522.7 0 0 1 35.65 147.67l5.22 57.02v80.08l-12.2 111.11 65.06-111.11a425.2 425.2 0 0 0 41.42-144.52l7.6-74.7 6.43 9.29a338.2 338.2 0 0 1 54.34 129.85l5.23 80.08v155.12l-5.23 66.37-6.42 38.84a523.4 523.4 0 0 1-20.57 82.26l-.89 2.63-1.19 3.18a523 523 0 0 1-38.21 80.56l-8.82 15.1-33.69 55.92-24.64 32.29a368.2 368.2 0 0 1-64.76 65.76 367.4 367.4 0 0 1-50.53 33.48l-8.79 4.83-13.4 7.37a98 98 0 0 1-47.17 12.11c-6.08 0-12.14-.57-18.11-1.69l-9.44-1.78a201 201 0 0 1-72.44-29.06l-15.7-10.23a286.282 286.282 0 0 1-89.54-93.02l-8.55-14.31a409.6 409.6 0 0 1-27.08-53.9l-9.94-24-18-56.99-7.56-35.36-4.64-33.18-4.65-40.41v-40.4l4.65-76.47 6.1-33.91 6.1-33.91 11.9-38.6.69-2.23a504 504 0 0 1 27.78-70.64l16.56-34.27 18-29.94 3.02-5.02a383 383 0 0 1 33.58-47.29l18.59-22.36 52.12-62.64a295 295 0 0 0 34.39-51.51l4.47-8.51c4.79-9.12 8.79-18.62 11.97-28.42 7.21-22.2 10.07-45.59 8.43-68.88l-1.29-18.35a276 276 0 0 0-5.99-40.948M717.956 987.906 753.101 884l-34.743 17.169a300.93 300.93 0 0 0-127.206 119.181l-30.043 51.98-25.362 63a522.9 522.9 0 0 0-35.649 147.65l-5.214 57.05v80.1l12.2 111.12-65.063-111.12-33.693-68.55-48.216-145.04-14.523 62.78-13.361 70.71-5.228 80.1v155.14l5.228 66.38 6.424 38.86a523 523 0 0 0 20.565 82.24l.895 2.65 1.191 3.19a522.6 522.6 0 0 0 38.204 80.55l8.821 15.12 33.693 55.92 24.644 32.29a368.2 368.2 0 0 0 115.285 99.25l8.785 4.83 13.405 7.37a97.9 97.9 0 0 0 47.172 12.12 98.2 98.2 0 0 0 18.109-1.69l9.435-1.78a200.8 200.8 0 0 0 72.441-29.07l15.704-10.22a286.5 286.5 0 0 0 42.716-34.03 286.2 286.2 0 0 0 46.822-59.01l8.554-14.31a412 412 0 0 0 27.08-53.9l9.933-24.01 18.008-57 7.552-35.36 4.647-33.19 4.647-40.41v-40.41l-4.647-76.49-6.099-33.91-6.1-33.91-11.909-38.61-.688-2.23a504 504 0 0 0-27.777-70.65l-16.556-34.27-18.008-29.95-3.019-5.02a382 382 0 0 0-33.579-47.29l-18.589-22.37-36.888-59.89-32.013-43.31a126.3 126.3 0 0 1-22.294-50.41 126.25 126.25 0 0 1 5.479-68.61z"/><path fill="#ff9700" d="M1101.36 987.906 1136.5 884l-34.74 17.169a300.93 300.93 0 0 0-127.206 119.181l-30.043 51.98-25.361 63a522.9 522.9 0 0 0-35.649 147.65l-5.214 57.05v80.1l12.199 111.12-65.062-111.12-33.693-68.55-48.216-145.04-14.523 62.78-13.361 70.71-5.228 80.1v155.14l5.228 66.38 6.424 38.86a523 523 0 0 0 20.565 82.24l.895 2.65 8.745 23.41a271 271 0 0 0 19.77 41.69 270.6 270.6 0 0 1 29.041 71.71l7.556 30.71a197.4 197.4 0 0 0 34.774 72.62l4.882 6.4a163 163 0 0 0 57.035 47.08l10.065 5a115.15 115.15 0 0 0 51.203 12.02h58.524c12.47 0 24.9-1.16 37.15-3.47a200.8 200.8 0 0 0 72.44-29.07l15.7-10.22a286.4 286.4 0 0 0 42.72-34.03 286 286 0 0 0 46.82-59.01l8.56-14.31a413 413 0 0 0 27.08-53.9l9.93-24.01 18.01-57 7.55-35.36 4.65-33.19 4.64-40.41v-40.41l-4.64-76.49-6.1-33.91-6.1-33.91-11.91-38.61-.69-2.23a504.6 504.6 0 0 0-27.78-70.65l-16.55-34.27-18.01-29.95-3.02-5.02c-9.98-16.59-21.2-32.4-33.58-47.29l-18.59-22.37-36.89-59.89-32.01-43.31a126.35 126.35 0 0 1-22.29-50.41 126.14 126.14 0 0 1 5.48-68.61z"/><path fill="#fff28c" d="m633.187 788.731-6.394-17.944 7.831 4.989 2.963 2.244 2.043 1.824a20 20 0 0 1 2.833 3.129l2.029 2.785.811 1.129a19.9 19.9 0 0 1 3.645 9.711l.261 2.72a20 20 0 0 1-.035 4.147l-.839 7.4a4.174 4.174 0 0 1-3.71 3.684l-10.493 1.113-2.453-.077a19.9 19.9 0 0 1-9.059-2.503l-.361-.201a19.92 19.92 0 0 1-9.758-13.069l-4.332-19.411 4.826 5.481a20 20 0 0 0 3.311 3.001l4.545 3.273a20 20 0 0 0 5.44 2.765l.654.214c3.934 1.289 7.631-2.505 6.242-6.404M1154.8 405.591l-8.23-15.086-1.35 8.269-.27 3.343v2.471c0 1.274.13 2.543.4 3.788l.66 3.039.27 1.224a17.9 17.9 0 0 0 4.35 8.29l1.67 1.81c.85.918 1.79 1.745 2.81 2.468l5.49 3.883c.64.45 1.4.692 2.18.692.93 0 1.83-.348 2.53-.976l7.05-6.394 1.43-1.697a17.9 17.9 0 0 0 3.75-7.602l.09-.364a18 18 0 0 0-2.94-14.422l-10.46-14.58.79 6.541c.16 1.339.17 2.692.03 4.033l-.53 5.025a17.9 17.9 0 0 1-1.41 5.324l-.24.569c-1.5 3.422-6.28 3.631-8.07.352M1578.41 965.593l9.13-16.719 1.49 9.164.3 3.705v2.738c0 1.411-.15 2.818-.45 4.198l-.72 3.368-.3 1.357a19.95 19.95 0 0 1-4.82 9.186l-1.86 2.006a20 20 0 0 1-3.11 2.736l-6.08 4.302a4.177 4.177 0 0 1-5.22-.314l-7.82-7.086-1.58-1.881a19.95 19.95 0 0 1-4.16-8.425l-.09-.403a19.9 19.9 0 0 1 3.25-15.983l11.59-16.158-.87 7.249a20.2 20.2 0 0 0-.04 4.469l.59 5.57c.21 2.035.74 4.025 1.56 5.9l.28.63c1.66 3.793 6.95 4.024 8.93.391M448.411 793.593l9.127-16.719 1.494 9.164.299 3.705v2.738c0 1.411-.15 2.818-.447 4.198l-.726 3.368-.303 1.357a19.9 19.9 0 0 1-4.816 9.186l-1.855 2.006a20 20 0 0 1-3.117 2.736l-6.079 4.302a4.17 4.17 0 0 1-5.218-.314l-7.819-7.086-1.576-1.881a19.9 19.9 0 0 1-4.166-8.425l-.091-.403a19.92 19.92 0 0 1 3.251-15.983l11.594-16.158-.874 7.249a20 20 0 0 0-.034 4.469l.586 5.57c.214 2.035.74 4.025 1.56 5.9l.276.63c1.658 3.793 6.951 4.024 8.934.391M1226.41 642.593l9.13-16.719 1.49 9.164.3 3.705v2.738c0 1.411-.15 2.818-.45 4.198l-.72 3.368-.3 1.357a19.95 19.95 0 0 1-4.82 9.186l-1.86 2.006a20 20 0 0 1-3.11 2.736l-6.08 4.302a4.184 4.184 0 0 1-5.22-.314l-7.82-7.086-1.57-1.881a19.86 19.86 0 0 1-4.17-8.425l-.09-.403a19.9 19.9 0 0 1 3.25-15.983l11.59-16.158-.87 7.249a19.7 19.7 0 0 0-.03 4.469l.58 5.57c.22 2.035.74 4.025 1.56 5.9l.28.63c1.66 3.793 6.95 4.024 8.93.391M798.327 396.593l-9.127-16.719-1.494 9.164-.299 3.705v2.738c0 1.411.15 2.818.447 4.198l.726 3.368.303 1.357a19.9 19.9 0 0 0 4.816 9.186l1.855 2.006a20 20 0 0 0 3.117 2.736l6.079 4.302a4.175 4.175 0 0 0 5.219-.314l7.819-7.086 1.576-1.881a19.9 19.9 0 0 0 4.166-8.425l.09-.403a19.92 19.92 0 0 0-3.251-15.983l-11.594-16.158.874 7.249c.179 1.484.191 2.983.034 4.469l-.585 5.57a20 20 0 0 1-1.561 5.9l-.275.63c-1.659 3.793-6.952 4.024-8.935.391M368.328 1116.59l-9.127-16.72-1.495 9.17-.299 3.7v2.74c0 1.41.15 2.82.448 4.2l.726 3.37.302 1.35a19.9 19.9 0 0 0 4.817 9.19l1.855 2.01a20.2 20.2 0 0 0 3.117 2.73l6.078 4.3a4.18 4.18 0 0 0 5.219-.31l7.819-7.09 1.576-1.88a19.9 19.9 0 0 0 4.166-8.42l.091-.4a19.93 19.93 0 0 0-3.251-15.99l-11.595-16.16.875 7.25c.179 1.49.19 2.99.034 4.47l-.586 5.57c-.214 2.04-.74 4.03-1.56 5.9l-.276.63c-1.659 3.79-6.951 4.03-8.934.39M1518.41 625.593l9.13-16.719 1.49 9.164.3 3.705v2.738c0 1.411-.15 2.818-.45 4.198l-.72 3.368-.3 1.357a19.95 19.95 0 0 1-4.82 9.186l-1.86 2.006a20 20 0 0 1-3.11 2.736l-6.08 4.302a4.177 4.177 0 0 1-5.22-.314l-7.82-7.086-1.58-1.881a19.95 19.95 0 0 1-4.16-8.425l-.09-.403a19.9 19.9 0 0 1 3.25-15.983l11.59-16.158-.87 7.249a20.2 20.2 0 0 0-.04 4.469l.59 5.57c.21 2.035.74 4.025 1.56 5.9l.28.63c1.66 3.793 6.95 4.024 8.93.391M579.478 1815l-99.031-212.91-22.614 98.37-5.833 39.99a496 496 0 0 0 4.395 105.01l1.133 7.6a272.6 272.6 0 0 0 57.694 129.69l3.96 4.88a295.6 295.6 0 0 0 43.594 43.52l16.521 13.37A247.8 247.8 0 0 0 695.5 2096.5l311.97 49.64-127.433-134.87c-36.824-38.97-50.183-94.56-35.086-146.01a150.79 150.79 0 0 0-16.778-122.31l-130.128-208.44 2.992 53.64c1.854 33.25-.039 66.6-5.642 99.42a443.7 443.7 0 0 1-43.139 128.93c-15.458 29.94-58.568 29.05-72.778-1.5M1409.14 1789.86l87.33-187.77 22.62 98.38 5.83 39.98 1.92 29.71c.98 15.31.34 30.69-1.92 45.86l-5.53 37.05-2.33 14.93a216.6 216.6 0 0 1-45.84 103.03l-18.71 23.05c-9.5 11.7-20.2 22.38-31.91 31.86l-32.08 25.95a216.5 216.5 0 0 1-95.27 44.31l-254.16 48.95 78.79-102.1a154.3 154.3 0 0 0 26.16-51.73c8.04-28.07 7.94-57.85-.28-85.87l-4.46-15.2a208.8 208.8 0 0 1 23.24-169.38l116.34-186.35-4.42 79.26c-.91 16.22.01 32.49 2.75 48.5l10.24 60.02a216.8 216.8 0 0 0 21.05 62.91l3.44 6.66c20.64 39.98 78.22 38.79 97.2-2.01"/><path fill="#fff28c" d="m1068.16 1822.87 96.14-215.63 24.63 117.1 6.46 47.1.21 3.19a593 593 0 0 1-3.89 116.17l-1.32 9.97-.68 4.88a276.94 276.94 0 0 1-60.42 137.68 276.8 276.8 0 0 0-38.72 62.38l-3.07 6.84-2.99 7.47a25.43 25.43 0 0 1-9.52 11.74 26 26 0 0 1-4.9 2.54l-15.19 5.91a85.44 85.44 0 0 1-39.09 6.5l-8.34-.57a96 96 0 0 1-54.598-27.38l-87.293-87.81-21.602-27.63a289.9 289.9 0 0 1-51.863-104.38 289.87 289.87 0 0 1 33.227-225.9l108.44-176.54-2.639 58.77a592.8 592.8 0 0 0 6.76 119.69l.674 4.24a570 570 0 0 0 42.857 143.77c16.804 37.46 70.007 37.4 86.727-.1"/><path fill="#ff9700" d="m183.464 804.039-2.283-14.094 4.092 2.95a39.1 39.1 0 0 1 9.282 9.454 39 39 0 0 1 4.491 8.576l2.742 7.317 1.904 8.633a68 68 0 0 1 1.408 19.72l-.554 7.436-1.719 10.282-3.951 14.004 10.737-12.87 5.797-8.077 9.302-17.585.517 8.371.198 9.365-1.047 10.394-1.827 10.931-1.502 8.986-2.096 8.41-1.658 4.85a68 68 0 0 1-4.405 10.118l-.172.321-1.625 2.817a35 35 0 0 1-3.432 4.927 35.2 35.2 0 0 0-5.267 8.584l-1.629 3.78a25.7 25.7 0 0 1-6.023 8.577l-.764.717a21.2 21.2 0 0 1-8.332 4.82l-1.399.426a15 15 0 0 1-6.832.444l-5.518-.922-1.995-.334a26.124 26.124 0 0 1-13.371-6.528l-1.797-1.649a37.3 37.3 0 0 1-9.498-13.866l-.791-2.02a54 54 0 0 1-2.32-7.501l-.76-3.296-1.089-7.704-.211-4.701.116-4.361.27-5.287.868-5.188 2.237-9.719 1.511-4.223 1.511-4.223 2.357-4.701.136-.271a66 66 0 0 1 5.082-8.474l2.861-4.045 2.954-3.458.496-.58a50 50 0 0 1 5.325-5.351l2.867-2.472 6.02-6.897 5.04-4.874a16.44 16.44 0 0 0 4.712-14.918zM1105.49 262.408l-9.26-10.868 5.03.401c4.43.353 8.77 1.46 12.84 3.272a39 39 0 0 1 8.28 5.006l6.14 4.836 6.1 6.395a67.8 67.8 0 0 1 11.43 16.133l3.38 6.646 3.86 9.684 3.88 14.023 2.51-16.571.77-9.912-1.16-19.86 4.78 6.89 5.03 7.906 4.49 9.431 4.11 10.295 3.37 8.462 2.57 8.278 1.09 5.008a67 67 0 0 1 1.48 10.935l.02.363.07 3.252c.05 2.005-.08 4.01-.38 5.993-.5 3.337-.52 6.729-.05 10.071l.56 4.077a25.6 25.6 0 0 1-.7 10.457l-.28 1.008a21.26 21.26 0 0 1-4.63 8.441l-.97 1.09a15.06 15.06 0 0 1-5.62 3.922l-5.19 2.072-1.88.749a26.14 26.14 0 0 1-14.82 1.349l-2.39-.479a37.4 37.4 0 0 1-6.81-2.055 37.5 37.5 0 0 1-8.5-4.878l-1.73-1.318a54 54 0 0 1-5.87-5.212l-2.36-2.423-4.92-6.024-2.62-3.911-2.16-3.789-2.51-4.662-1.95-4.885-3.12-9.472-.9-4.394-.9-4.395-.42-5.241-.02-.303a65 65 0 0 1-.05-9.881l.35-4.942.73-4.488.13-.753c.4-2.487 1-4.939 1.78-7.336l1.17-3.601 1.57-9.019 1.78-6.78c.62-2.341.71-4.789.27-7.169a16.5 16.5 0 0 0-3.97-8.031zM1742.72 723.408l9.26-10.868-5.03.401a39.16 39.16 0 0 0-21.13 8.278l-6.13 4.836-6.11 6.395a68 68 0 0 0-11.42 16.133l-3.38 6.646-3.86 9.684-3.89 14.023-2.51-16.571-.77-9.912 1.17-19.86-4.79 6.89-5.02 7.906-4.49 9.431-4.11 10.295-3.37 8.462-2.57 8.278-1.1 5.008a68 68 0 0 0-1.47 10.935l-.02.363-.07 3.252c-.05 2.005.08 4.01.38 5.993.5 3.337.52 6.729.05 10.071l-.57 4.077c-.48 3.497-.24 7.056.71 10.457l.28 1.008c.87 3.131 2.46 6.02 4.63 8.441l.97 1.09a15.1 15.1 0 0 0 5.61 3.922l5.2 2.072 1.88.749a26.14 26.14 0 0 0 14.82 1.349l2.39-.479a37.334 37.334 0 0 0 15.31-6.933l1.72-1.318a53 53 0 0 0 5.88-5.212l2.35-2.423 4.93-6.024 2.62-3.911 2.16-3.789 2.51-4.662 1.95-4.885 3.12-9.472.9-4.394.9-4.395.42-5.241.02-.303c.27-3.288.28-6.591.05-9.881l-.35-4.942-.74-4.488-.12-.753c-.4-2.487-1-4.939-1.78-7.336l-1.17-3.601-1.57-9.019-1.78-6.78a16.4 16.4 0 0 1-.27-7.169 16.5 16.5 0 0 1 3.97-8.031z"/></svg>