<svg xmlns="http://www.w3.org/2000/svg" width="1405" height="1325" fill="none"><path fill="#fe6323" d="m332.586 40.374 10.161-25.007-18.995 10.214a144.27 144.27 0 0 0-65.483 73.125l-9.463 23.474-8.652 21.464-16.481 48.616-15.245 54.669-7.848 28.145a263.4 263.4 0 0 0-9.148 54.004l-2.575 40.398-4.326 67.878v83.655l8.652 85.856-20.414-60.596a263.5 263.5 0 0 1-12.312-56.277l-5.591-52.638v-157.77l-14.421 34.856-14.421 34.856-14.833 43.295-11.948 44.763-8.652 41.827-8.653 41.828-6.386 42.928-6.387 42.928-3.708 69.713 3.708 67.511 4.739 41.093 4.738 41.094 10.3 43.662 11.949 45.863 22.249 54.67 14.858 35.359a155.9 155.9 0 0 1 11.381 44.73l11.162 110.66c1.69 16.76 15.798 29.52 32.642 29.52h428.699l42.589-14.93-82.952-74.02a263.43 263.43 0 0 1-87.844-186.19l-2.189-55.569 3.296-33.755 3.296-41.094v-41.093l-3.296-77.785-4.326-34.489-4.326-34.489-8.447-39.26-8.446-39.259-11.743-34.856-11.742-34.856-12.773-30.453-12.773-30.454-13.184-22.748-13.185-22.748-39.512-68.102a263.5 263.5 0 0 1-19.512-41.621l-10.607-28.968-3.686-16.288a246.8 246.8 0 0 1 12.066-147.34"/><path fill="#fe6323" d="M1063.87 79.252 1051.51 0l31.52 39.626 7.67 9.65a263.6 263.6 0 0 1 38.17 65.5l2.98 7.404 8.65 21.464 16.48 48.616 15.25 54.669 7.85 28.145a263.6 263.6 0 0 1 9.14 54.004l2.58 40.398 4.33 67.878v83.655l-8.66 85.856 20.42-60.596a263.7 263.7 0 0 0 12.31-56.277l5.59-52.638v-157.77l14.42 34.856 14.42 34.856 14.83 43.295 11.95 44.763 8.66 41.827 8.65 41.828 6.38 42.928 6.39 42.928 3.71 69.713-3.71 67.511-4.74 41.093-4.74 41.094-10.3 43.662-11.94 45.863-22.25 54.67-14.86 35.359a155.9 155.9 0 0 0-11.38 44.73l-11.16 110.66c-1.7 16.76-15.8 29.52-32.65 29.52H571.295l176.482-92.64c83.405-43.78 137.086-128.761 140.795-222.884l.598-15.185-3.296-33.755-3.296-41.094v-41.093l3.296-77.785 4.327-34.489 4.326-34.489 8.446-39.26 8.447-39.259 11.742-34.856 11.743-34.856 12.772-30.453 12.773-30.454 13.185-22.748 13.184-22.748 39.511-68.102a263 263 0 0 0 19.51-41.621l10.61-28.968 3.18-14.065a263.5 263.5 0 0 0 6.18-71.046z"/><path fill="#fe6323" d="m914.259 246.752 31.719-39.151-55.416 11.505-12.797 2.656a258.7 258.7 0 0 0-79.994 31.158l-18.688 11.155-38.134 27.089-38.458 32.384a286.1 286.1 0 0 0-63.57 75.94l-2.993 5.191-28.105 48.746-14.594 33.582a362.6 362.6 0 0 0-20.305 61.032l-9.11 38.496-5.179-39.473a250.7 250.7 0 0 1 18.646-132.542l42.426-97.623-30.845 17.899-30.845 17.899-34.17 24.033-30.771 26.828-25.373 26.538-25.373 26.538-22.685 28.695-6.183 7.821a322.7 322.7 0 0 0-53.929 100.931l-7.624 23.603-7.116 33.813a353 353 0 0 0-7.538 68.365l-.054 4.454.161 6.581a362.6 362.6 0 0 0 8.414 69.289l4.43 20.07 13.481 56.933 11.958 32.893a362.7 362.7 0 0 0 40.567 79.464l1.385 2.045a363 363 0 0 0 33.464 42.261l9.003 9.78 9.501 10.32a124.4 124.4 0 0 0 59.569 35.96l9.071 2.41a249 249 0 0 0 82.024 7.68l18.251-1.33a274.895 274.895 0 0 0 117.045-35.88l8.641-4.97a348.6 348.6 0 0 0 46.917-32.39l15.728-12.87 36.216-36.329 19.011-24.031 15.517-23.572 4.413-7.168a363 363 0 0 0 23.785-45.584l3.218-7.406 12.484-35.901a363 363 0 0 0 13.579-50.554l.542-2.815.484-2.518a362.6 362.6 0 0 0 6.187-52.583l.356-8.078.128-2.905a362.7 362.7 0 0 0-2.73-63.143l-.229-1.744-4.355-33.197-7.187-30.473-1.005-4.264a336.5 336.5 0 0 0-16.452-51.103l-10.27-24.894-29.657-71.775a237 237 0 0 1-14.623-50.879l-1.756-10.356a129.465 129.465 0 0 1 13.848-83.375l6.734-12.411a188.4 188.4 0 0 1 19.21-28.75"/><path fill="#fe6323" d="m490.74 247.03-31.719-39.151 55.416 11.504 12.797 2.657a258.6 258.6 0 0 1 79.994 31.158l18.688 11.155 38.134 27.089 38.458 32.384a286.1 286.1 0 0 1 63.571 75.94l2.992 5.19 28.105 48.747 14.594 33.582a362.6 362.6 0 0 1 20.305 61.032l9.11 38.496 5.179-39.473a250.7 250.7 0 0 0-18.646-132.542l-42.426-97.623 30.845 17.899 30.845 17.899 34.17 24.033 30.771 26.828 25.373 26.538 25.373 26.538 22.685 28.695 6.183 7.821a322.7 322.7 0 0 1 53.933 100.931l7.62 23.603 7.12 33.813a353 353 0 0 1 7.53 68.365l.06 4.454-.16 6.581a362.3 362.3 0 0 1-8.42 69.289l-4.43 20.069-13.48 56.934-11.96 32.893a362.6 362.6 0 0 1-40.563 79.464l-1.385 2.045a363.4 363.4 0 0 1-33.464 42.263l-9.003 9.78-9.501 10.32a124.4 124.4 0 0 1-59.569 35.96l-9.071 2.41a249 249 0 0 1-82.024 7.68l-18.251-1.33a275 275 0 0 1-48.274-7.89 275.3 275.3 0 0 1-68.771-27.99l-8.641-4.98a347.7 347.7 0 0 1-46.917-32.38l-15.728-12.88-36.216-36.321-19.011-24.031-15.517-23.572-4.413-7.169a362.6 362.6 0 0 1-23.785-45.584l-3.218-7.405-12.484-35.901a363 363 0 0 1-13.579-50.554l-.542-2.815-.484-2.518a362.6 362.6 0 0 1-6.187-52.584l-.356-8.077-.128-2.905a362.7 362.7 0 0 1 2.73-63.143l.229-1.745 4.355-33.196 7.187-30.474 1.005-4.263a336.5 336.5 0 0 1 16.452-51.103l10.27-24.894 29.657-71.776a237 237 0 0 0 14.623-50.878l1.756-10.356a129.462 129.462 0 0 0-13.848-83.375l-6.734-12.411a188.4 188.4 0 0 0-19.21-28.75"/><path fill="#fe6323" d="m609.444 92.486-17.975-54.083 59.054 35.483 15.459 9.289a304.8 304.8 0 0 1 76.321 65.125l16.363 19.465 31.28 44.179 29.073 49.776a295.8 295.8 0 0 1 37.33 106.826l.749 5.177 9.005 62.227.632 40.315a362.6 362.6 0 0 1-6.152 72.442l-8.091 43.209 26.507-40.301a253.8 253.8 0 0 0 41.724-143.445l-1.851-118.012 27.259 31.599 27.259 31.6 28.15 39.339 22.81 40.772 16.66 38.171 16.65 38.171 12.47 39.248 3.51 11.06a319 319 0 0 1 12.58 57.543 319.5 319.5 0 0 1 .97 69.258l-2.61 27.442-8.2 37.887a357.6 357.6 0 0 1-24.33 73.138l-2.35 5.157-4.78 9.423a363 363 0 0 1-39.81 62.042l-17.418 21.88-43.52 52.938-37.127 35.634a362.4 362.4 0 0 1-69.101 52.03l-41.132 23.88-46.348 18.93-4.587 1.87a239.6 239.6 0 0 1-86.865 17.77l-21.38-2.52a362.8 362.8 0 0 1-104.594-28.63l-19.045-8.44a340.6 340.6 0 0 1-50.287-27.57 341 341 0 0 1-68.997-60.55l-7.472-8.596a362.6 362.6 0 0 1-36.729-50.429l-12.86-21.291-24.534-52.881-10.456-32.874-6.603-30.912-1.588-8.919a362.5 362.5 0 0 1-5.577-57.918l-.135-8.565 2.935-42.044a362.6 362.6 0 0 1 8.874-58.287l.716-3.027.757-3.196a362.7 362.7 0 0 1 18.067-55.759l3.812-9.162 2.005-4.819a362.7 362.7 0 0 1 31.845-59.987l2.542-3.865 21.285-32.361 23.26-28.346 4.699-5.726a363 363 0 0 1 40.509-41.973l2.188-1.928 24.135-21.28 70.843-62.398a264.6 264.6 0 0 0 40.275-44.562l8.019-11.204a132.61 132.61 0 0 0 23.904-92.329l-1.67-14.528a186.8 186.8 0 0 0-8.311-37.578"/><path fill="#fe6323" d="m1023.73 276.538 8.25-58.947 30.91 50.851 19.8 32.573a127 127 0 0 1 15.62 39.187l5.15 23.826 4.83 22.368 6.53 48.745 2.7 52.794 1.55 30.486a127 127 0 0 1-5.39 43.668l-10.78 35.213-17.31 56.573-24.36 56.065a127.3 127.3 0 0 1-10.79 19.797l-35.6 53.455 53.89-38.508a127 127 0 0 0 31.23-31.968l20.9-30.747a127.6 127.6 0 0 0 11.45-20.787l49.71-114.381 8.36 36.55 8.37 36.551 6.04 43.507 1.45 42.899-2.2 38.541-2.2 38.542-5.78 38.022-4.21 27.661a126.6 126.6 0 0 1-4.83 20.325l-11.77 36.053a126.3 126.3 0 0 1-9.74 22.329l-22.6 40.646-20.89 29.726-13.73 19.547a127.4 127.4 0 0 1-16.15 18.78l-20.65 19.75-23.55 20.92a127.4 127.4 0 0 1-19.76 14.41l-39.768 23.49-53.435 30.48-62.858 26.74a127.3 127.3 0 0 1-30.062 8.6l-52.411 8.22c-6.23.98-12.525 1.49-18.831 1.53l-32.92.22-15.522.11a127.1 127.1 0 0 1-51.515-10.53l-66.812-29.04a127.2 127.2 0 0 1-21.59-12l-62.776-43.37-29.54-24.08a52.87 52.87 0 0 1-19.458-41.29c.021-3.62-.33-7.24-1.048-10.79l-.346-1.71c-4.181-20.673 1.32-42.258 14.776-58.497 11.475-13.849 17.31-31.671 16.147-49.618l-1.516-23.392 1.942-53.897 4.835-31.852 6.989-28.838 7.13-25.955a127 127 0 0 1 5.993-16.995l10.584-24.354 27.223-51.62a127 127 0 0 1 9.706-15.568l12.609-17.301 12.546-17.216a127 127 0 0 1 11.994-14.159l18.984-19.349 17.714-18.054a127 127 0 0 1 16.832-14.399l19.597-14.002 28.643-20.466 28.58-16.336 19.75-11.289a127 127 0 0 1 18.35-8.625l16.983-6.384 26.504-9.963 89.292-33.511a127.2 127.2 0 0 0 25.305-12.886l21.408-14.115a127 127 0 0 0 19.219-15.553l2.165-2.132a127.1 127.1 0 0 0 31.348-50.238l7.47-22.331c2.48-7.389 4.26-14.99 5.34-22.707"/><path fill="#fe6323" d="m380.361 270.337-7.341-52.468-30.91 50.851-7.137 11.743a271.9 271.9 0 0 0-33.433 83.843l-4.831 22.368-6.533 48.745-2.694 52.794a300.8 300.8 0 0 0 12.773 103.343l1.843 6.024 17.311 56.572 16.006 36.832a362.6 362.6 0 0 0 30.768 56.485l23.978 36.001-34.058-24.335a263.63 263.63 0 0 1-88.511-109.413l-44.608-102.643-8.368 36.55-8.367 36.551-6.038 43.506-1.451 42.9 2.198 38.541 2.199 38.541 5.784 38.023 1.576 10.363a339.3 339.3 0 0 0 38.901 113.858l12.674 22.793 20.887 29.726.471.67a362.2 362.2 0 0 0 46.083 53.599l3.976 3.8 6.523 5.8a362.4 362.4 0 0 0 56.398 41.12l20.158 11.91 53.435 30.48 2.821 1.47a362.6 362.6 0 0 0 74.14 28.92l19.963 5.35 30.372 4.88a362.4 362.4 0 0 0 55.138 4.59l14.648.1a230.75 230.75 0 0 0 95.993-21.51l22.658-10.54a345 345 0 0 0 50.694-29.02l48.87-33.76 29.54-24.09a52.83 52.83 0 0 0 19.458-41.28c-.021-3.62.33-7.24 1.048-10.79l.346-1.71c4.181-20.675-1.32-42.26-14.776-58.5-11.475-13.848-17.31-31.67-16.147-49.617l1.516-23.392-1.942-53.897-4.835-31.853-6.989-28.837-2.696-9.813a363 363 0 0 0-17.099-48.49l-3.912-9.002-19.272-36.543a363 363 0 0 0-27.695-44.419l-2.571-3.527-2.392-3.282a363 363 0 0 0-34.222-40.398l-6.91-7.043-3.284-3.347a363 363 0 0 0-48.026-41.085l-2.833-2.024-28.643-20.466-28.58-16.335-3.998-2.286a354 354 0 0 0-51.085-24.012l-26.504-9.963-76.448-28.692a249 249 0 0 1-49.601-25.256l-9.221-6.08a136.107 136.107 0 0 1-54.155-70.454l-4.71-14.08a198 198 0 0 1-8.321-35.39"/><path fill="#ffa624" d="m645.764 490.234-9.107-32.784 45.03 31.786a120.9 120.9 0 0 1 28.485 28.258l16.366 22.795a121 121 0 0 1 9.925 16.439l23.591 47.182a120.9 120.9 0 0 1 11.99 40.426l6.047 53.27v44.728l-8.462 62.054 45.131-62.054 18.431-30.19a121 121 0 0 0 8.558-16.852l29.826-72.231 10.074 35.057 7.197 30.668a121 121 0 0 1 2.803 17.851l2.894 35.697v86.633l-3.626 37.071-6.887 33.535a121 121 0 0 1-6.967 22.509l-5.488 13.062-6.766 14.583a121 121 0 0 1-11.778 20.064l-14.901 20.557-23.37 31.232-26.36 27.8a120.6 120.6 0 0 1-22.96 18.91l-21.648 13.74a122 122 0 0 1-15.846 8.47l-16.341 7.23-8.551 3.79a82.9 82.9 0 0 1-33.557 7.09c-4.158 0-8.31-.31-12.421-.93l-13.665-2.07a120.7 120.7 0 0 1-38.014-12.46l-22.437-11.76a120.5 120.5 0 0 1-18.092-11.64l-11.103-8.64a120.8 120.8 0 0 1-22.836-23.35l-14.471-19.49a121 121 0 0 1-10.466-16.81l-10.367-20.179-12.491-31.832-5.239-19.745-3.223-18.535-2.009-14.061a121 121 0 0 1-1.215-17.095v-13.975l2.566-33.99a121 121 0 0 1 2.565-17.259l2.324-10.401 2.302-10.304a121 121 0 0 1 5.095-16.897l5.094-13.296 4.477-11.684a121 121 0 0 1 9.224-18.94l6.044-10.073 11.484-19.14 12.491-16.723 6.702-8.972a121 121 0 0 1 12.737-14.481l5.947-5.76 12.894-12.492 40.2-38.903a121 121 0 0 0 17.189-20.833l6.102-9.357a86.298 86.298 0 0 0 13.687-54.656l-.857-9.811a121 121 0 0 0-3.951-21.832"/><path fill="#ffa624" d="m911.55 340.304-8.947-40.004 16.681 14.624a362.6 362.6 0 0 1 74.9 91.2l3.918 6.776 17.588 43.684a362.4 362.4 0 0 1 24.73 102.428l3.62 39.552v55.549l-8.46 77.069 45.13-77.069 23.37-47.542 33.44-100.589 10.08 43.539 9.26 49.043 3.63 55.549v107.596l-3.63 46.04-4.45 26.941a364 364 0 0 1-14.27 57.057l-.62 1.828-.82 2.205a363 363 0 0 1-26.51 55.877l-6.11 10.479-23.37 38.784-17.1 22.4a255.388 255.388 0 0 1-79.964 68.83l-6.095 3.35-9.298 5.12a67.93 67.93 0 0 1-32.72 8.4c-4.215 0-8.42-.4-12.561-1.18l-6.545-1.23a139.4 139.4 0 0 1-50.249-20.16l-10.893-7.09a198.5 198.5 0 0 1-29.629-23.6 198.4 198.4 0 0 1-32.479-40.93l-5.932-9.92a286 286 0 0 1-18.785-37.385l-6.889-16.649-12.491-39.535-5.238-24.522-3.224-23.02-3.223-28.025v-28.025l3.223-53.047 4.231-23.52 4.231-23.521 8.26-26.774.478-1.547a349.5 349.5 0 0 1 19.267-48.998l11.484-23.771 12.491-20.768 2.094-3.482a265 265 0 0 1 23.292-32.8l12.894-15.514 36.152-43.45a204.5 204.5 0 0 0 23.855-35.725l3.102-5.906a126.116 126.116 0 0 0 14.148-67.49l-.896-12.732a192 192 0 0 0-4.151-28.4M515.37 354.241l24.378-72.074-24.099 11.909a208.73 208.73 0 0 0-88.236 82.671l-20.839 36.054-17.592 43.702a362.7 362.7 0 0 0-24.728 102.417l-3.616 39.571v55.557l8.462 77.079-45.13-77.079-23.371-47.549-33.445-100.603-10.073 43.545-9.268 49.05-3.627 55.557v107.611l3.627 46.047 4.456 26.952a362.5 362.5 0 0 0 14.265 57.051l.62 1.835.826 2.211a362.6 362.6 0 0 0 26.501 55.874l6.118 10.485 23.371 38.786 17.094 22.4a255.3 255.3 0 0 0 44.913 45.63 255 255 0 0 0 35.054 23.22l6.094 3.35 9.298 5.11a67.8 67.8 0 0 0 32.72 8.41c4.214 0 8.42-.4 12.561-1.18l6.545-1.23a139.35 139.35 0 0 0 50.248-20.16l10.893-7.09a198.5 198.5 0 0 0 29.63-23.61 198.4 198.4 0 0 0 32.478-40.93l5.933-9.92a286 286 0 0 0 18.784-37.395l6.889-16.652 12.492-39.541 5.238-24.525 3.224-23.024 3.223-28.028v-28.029l-3.223-53.054-4.231-23.525-4.231-23.524-8.261-26.777-.477-1.548a349.6 349.6 0 0 0-19.267-49.004l-11.484-23.775-12.491-20.771-2.095-3.482a265 265 0 0 0-23.291-32.805l-12.894-15.516-25.588-41.543-22.205-30.044a87.58 87.58 0 0 1-11.664-82.554z"/><path fill="#ff9700" d="m781.315 354.241 24.379-72.074-24.099 11.909a208.7 208.7 0 0 0-88.236 82.671l-20.839 36.054-17.592 43.702A362.7 362.7 0 0 0 630.2 558.92l-3.617 39.571v55.557l8.462 77.079-45.13-77.079-23.371-47.549L533.1 505.896l-10.074 43.545-9.268 49.05-3.626 55.557v107.611l3.626 46.047 4.456 26.952a362.7 362.7 0 0 0 14.265 57.051l.621 1.835 6.065 16.238a188 188 0 0 0 13.714 28.915 187.7 187.7 0 0 1 20.144 49.745l5.241 21.298a137.05 137.05 0 0 0 24.121 50.38l3.386 4.44a113.1 113.1 0 0 0 39.562 32.65l6.981 3.47a79.9 79.9 0 0 0 35.518 8.34h40.597c8.644 0 17.27-.81 25.765-2.41a139.3 139.3 0 0 0 50.248-20.16l10.893-7.09a198.5 198.5 0 0 0 29.63-23.61 198.4 198.4 0 0 0 32.478-40.93l5.933-9.92a286 286 0 0 0 18.784-37.395l6.89-16.652 12.491-39.541 5.238-24.525 3.224-23.024 3.224-28.028v-28.029l-3.224-53.054-4.231-23.525-4.231-23.524-8.26-26.777-.478-1.548a349.6 349.6 0 0 0-19.267-49.004l-11.484-23.775-12.491-20.771-2.094-3.482a265 265 0 0 0-23.292-32.805l-12.894-15.516-25.587-41.543-22.206-30.044a87.58 87.58 0 0 1-11.664-82.554z"/><path fill="#fff28c" d="m444.73 960.829-60.585-130.256-13.835 60.183-3.569 24.462a303.5 303.5 0 0 0 2.689 64.244l.693 4.65a166.8 166.8 0 0 0 35.296 79.348l2.423 2.98a181.3 181.3 0 0 0 26.67 26.63l20.995 16.98a100.6 100.6 0 0 0 46.341 20.97l204.72 32.39-77.963-82.51a92.24 92.24 0 0 1-21.465-89.325 92.24 92.24 0 0 0-10.264-74.825l-79.61-127.521 1.831 32.82a271.55 271.55 0 0 1-29.843 139.7c-9.457 18.314-35.831 17.77-44.524-.92M952.3 945.447l53.43-114.87 13.83 60.183 3.57 24.463 1.17 18.176a132.3 132.3 0 0 1-1.17 28.052l-3.38 22.665-1.43 9.134a132.5 132.5 0 0 1-28.039 63.03l-11.451 14.11a132.5 132.5 0 0 1-19.519 19.49l-19.624 15.87a132.4 132.4 0 0 1-58.284 27.11l-155.493 29.95 48.205-62.47a94.3 94.3 0 0 0 16-31.64 94.34 94.34 0 0 0-.168-52.54l-2.729-9.3a127.75 127.75 0 0 1 14.214-103.617l71.175-114.009-2.704 48.49a132.5 132.5 0 0 0 1.684 29.676l6.268 36.715a132.5 132.5 0 0 0 12.878 38.491l2.101 4.069c12.631 24.461 47.856 23.734 59.466-1.228"/><path fill="#fff28c" d="m743.694 965.646 58.815-131.917 15.071 71.638 3.954 28.811.126 1.952a362.6 362.6 0 0 1-2.381 71.07l-.808 6.1-.417 2.99a169.43 169.43 0 0 1-36.961 84.23 169.3 169.3 0 0 0-23.687 38.16l-1.88 4.18-1.829 4.58a15.56 15.56 0 0 1-5.825 7.17c-.939.63-1.943 1.15-2.995 1.56l-9.297 3.62a52.4 52.4 0 0 1-23.915 3.98l-5.097-.36a58.75 58.75 0 0 1-33.405-16.74l-53.403-53.73-13.216-16.9a177.35 177.35 0 0 1-31.728-63.86 177.34 177.34 0 0 1 20.327-138.2l66.341-108.003-1.614 35.955a362.6 362.6 0 0 0 4.136 73.225l.412 2.59a348.7 348.7 0 0 0 26.219 87.96c10.28 22.917 42.829 22.88 53.057-.061"/></svg>