<svg width="1889" height="2313" viewBox="0 0 1889 2313" fill="none" xmlns="http://www.w3.org/2000/svg">
<path fill-rule="evenodd" clip-rule="evenodd" d="M1169.46 176L1193.45 238.896C1204.82 268.702 1211.36 300.129 1212.82 331.995L1214.72 373.077C1215.89 398.613 1213.8 424.194 1208.49 449.199L1198.85 494.57L1177.65 556.248C1172.2 572.108 1165.43 587.484 1157.41 602.213L1088.48 728.795L1067.58 767.213L1046.68 805.631L1026.43 857.062L1006.19 908.492L987.574 967.358L968.961 1026.22L955.572 1092.53L942.183 1158.83L935.326 1217.08L928.468 1275.32L923.244 1406.69V1476.09L928.468 1545.49L933.693 1602.49L926.559 1795.39C924.396 1853.88 905.168 1910.47 871.245 1958.17L727 2161H1012.72H1044H1088.48H1137.46H1185.14H1233.47H1288.33H1317.73H1341.23H1390.31H1406.54H1437.24H1482.92H1529.22H1581.78H1632.46H1695.03C1720.66 2161 1742.18 2141.69 1744.95 2116.21L1761.33 1965.56C1763.83 1942.5 1769.99 1919.98 1779.56 1898.85L1801.4 1850.6L1835.19 1773.57L1853.33 1708.94L1868.98 1647.41L1876.17 1589.5L1883.37 1531.59L1889 1436.46L1883.37 1338.22L1873.67 1277.73L1863.97 1217.23L1850.83 1158.29L1837.69 1099.35L1819.55 1036.27L1797.02 975.258L1775.12 926.139L1753.22 877.02V1099.35L1744.1 1179.06C1741.43 1202.36 1736.04 1225.27 1728.04 1247.31L1695.03 1338.22L1708.17 1217.23V1099.35L1701.6 1003.69L1697.34 941.606C1695.81 919.3 1691.78 897.236 1685.35 875.824L1671.88 831.004L1648.73 753.965L1623.7 685.458L1610.56 655.211L1596.78 623.493C1588.5 604.417 1577.4 586.688 1563.86 570.897C1545.75 549.765 1523.58 532.475 1498.68 520.048L1467.9 504.692L1485.43 544.725C1499.91 577.782 1508.3 613.179 1510.2 649.216L1510.62 657.176C1511.8 679.475 1510.49 701.814 1506.72 723.779L1490.14 681.083L1467.28 622.216V840.3C1463.02 848.809 1458.36 857.116 1453.31 865.192L1420.25 918.067V888.664L1413.4 774.029L1408.3 688.873C1407.13 669.268 1404.03 649.826 1399.06 630.827L1382.37 567.068L1358.21 474.741L1332.09 392.638L1318.37 356.389L1302.88 315.453C1294.96 294.515 1284.14 274.789 1270.75 256.85C1251.11 230.543 1226.28 208.549 1197.79 192.23L1169.46 176Z" fill="#EF4905"/>
<path fill-rule="evenodd" clip-rule="evenodd" d="M1470.54 0L1444.39 73.8881C1434.45 101.98 1428.75 131.396 1427.47 161.168L1425.04 218.081C1424.03 241.817 1425.84 265.589 1430.43 288.898L1441.15 343.285L1463.27 412.635C1468.11 427.807 1474.15 442.571 1481.33 456.785L1551.52 595.682L1572.42 637.081L1593.32 678.479L1613.57 733.9L1633.81 789.32L1652.43 852.753L1671.04 916.187L1684.43 987.632L1697.82 1059.08L1704.67 1121.84L1711.53 1184.61L1716.76 1326.17V1400.95L1711.53 1475.73L1706.31 1537.16L1715.06 1792.24C1716.18 1824.96 1711.95 1857.63 1702.51 1888.98L1649.11 2066.45C1640.07 2096.51 1618.01 2119.96 1590.22 2131.37L1596 2139H1322.27H1249.69H1202.76H1157.08H1110.78H1058.22H1007.54H944.968C919.388 2139 897.963 2119.63 895.396 2094.18L878.445 1926.14C876.088 1902.76 870.263 1879.87 861.162 1858.22L838.599 1804.52L804.81 1721.51L786.665 1651.86L771.022 1585.56L763.827 1523.16L756.631 1460.76L751 1358.25L756.631 1252.39L766.33 1187.2L776.028 1122.01L789.168 1058.5L802.308 994.982L820.453 927.01L842.978 861.266L864.878 808.337L886.778 755.407V994.982L896.431 1085.85C898.748 1107.67 903.451 1129.16 910.454 1149.94L944.968 1252.39L931.828 1122.01V994.982L938.398 891.909L942.973 820.133C944.3 799.325 947.791 778.712 953.392 758.629L968.119 705.821L991.27 622.805L1016.3 548.983L1029.44 516.389L1043.81 480.745C1051.71 461.153 1062.4 442.806 1075.55 426.275C1094.05 403.022 1117.08 383.774 1143.25 369.703L1172.1 354.193L1151.89 403.932C1139.17 435.221 1131.83 468.432 1130.18 502.166L1129.06 525.039C1127.98 547.07 1129.33 569.138 1133.08 590.844L1149.86 544.268L1172.72 480.835V716.144C1176.54 724.36 1180.73 732.403 1185.29 740.247L1219.75 799.639V767.953L1226.6 644.426L1231.94 548.354C1232.95 530.088 1235.63 511.953 1239.95 494.176L1257.63 421.408L1281.79 321.918L1307.91 233.445L1321.63 194.384L1337.65 148.746C1345.22 127.187 1355.66 106.742 1368.67 87.9606C1388.69 59.0637 1414.46 34.6153 1444.38 16.1488L1470.54 0Z" fill="#EF4905"/>
<path fill-rule="evenodd" clip-rule="evenodd" d="M1051.42 72.5031L989.914 92.6721C983.155 94.8887 976.596 97.6773 970.31 101.007C925.244 124.882 899.156 173.699 904.351 224.433L904.978 230.555C906.159 242.084 908.826 253.412 912.913 264.256L949.537 361.433L1030.52 521.685L1051.42 563.084L1072.32 604.482L1092.57 659.903L1112.81 715.323L1131.43 778.757L1150.04 842.19L1163.43 913.635L1176.82 985.081L1183.67 1047.85L1190.53 1110.61L1195.76 1252.17V1326.95L1190.53 1401.74L1185.31 1463.17L1194.06 1718.25C1195.18 1750.96 1190.95 1783.63 1181.51 1814.98L1128.11 1992.46C1119.07 2022.52 1097.01 2045.96 1069.22 2057.38L1075 2065H801.267H728.686H681.758H636.082H589.78H537.221H486.539H423.968C398.388 2065 376.963 2045.63 374.396 2020.18L357.445 1852.14C355.088 1828.77 349.263 1805.88 340.162 1784.22L317.599 1730.53L283.81 1647.51L265.665 1577.87L250.022 1511.57L242.827 1449.17L235.631 1386.76L230 1284.25L235.631 1178.39L245.33 1113.2L255.028 1048.02L268.168 984.501L281.308 920.986L299.453 853.013L321.978 787.269L343.878 734.34L365.778 681.41V920.986L375.431 1011.86C377.748 1033.67 382.451 1055.16 389.454 1075.95L423.968 1178.39L410.828 1048.02V920.986L417.398 817.912L421.973 746.136C423.3 725.328 426.791 704.716 432.392 684.632L447.119 631.824L470.27 548.808L495.298 474.986L508.438 442.392L522.808 406.748C530.706 387.156 541.397 368.809 554.547 352.278C573.045 329.025 596.08 309.777 622.25 295.706L651.099 280.196L630.888 329.935C618.173 361.224 610.834 394.436 609.179 428.169L608.056 451.042C606.975 473.073 608.328 495.141 612.081 516.847L628.865 470.271L651.723 406.838V642.147C655.542 650.363 659.734 658.406 664.285 666.25L698.746 725.642V693.956L705.604 570.429L710.937 474.358C711.951 456.091 714.634 437.956 718.952 420.179L736.626 347.411L760.791 247.921L774.726 200.728C782.75 173.555 796.771 148.531 815.756 127.5L833.243 104.063C837.245 98.6987 841.682 93.6728 846.507 89.0359C874.066 62.5561 912.434 50.5087 950.182 56.4823L1051.42 72.5031Z" fill="#EF4905"/>
<path fill-rule="evenodd" clip-rule="evenodd" d="M719.537 307L697.764 360.325C684.942 391.728 677.539 425.078 675.868 458.956L674.542 485.861C673.196 513.155 675.586 540.504 681.645 567.15L690.148 604.546L710.436 659.679C716.492 676.137 723.979 692.032 732.812 707.182L800.522 823.314L821.421 859.196L842.32 895.079L862.566 943.115L882.813 991.151L901.426 1046.13L920.039 1101.11L933.428 1163.04L946.817 1224.97L953.674 1279.37L960.532 1333.77L965.756 1456.47V1521.29L960.532 1586.11L955.307 1639.35L962.012 1808.69C964.449 1870.24 985.774 1929.55 1023.09 1978.56L1162 2161H876.282L845 2161L800.522 2161H751.539H703.863H655.533H600.673L571.267 2161L547.772 2161L498.686 2161L482.461 2161C482.423 2161 482.386 2161 482.348 2161H451.758H406.082H359.78H307.221H256.539H193.968C168.287 2161 146.678 2141.76 143.71 2116.25L127.89 1980.31C125.242 1957.56 118.786 1935.41 108.792 1914.8L87.5985 1871.09L63.2002 1819.13C56.9489 1805.82 51.685 1792.06 47.4511 1777.98L35.6651 1738.77L20.0225 1681.3L12.827 1627.22L5.63129 1573.13L0 1484.27L5.63129 1392.52L15.3297 1336.02L25.0281 1279.52L38.1679 1224.46L51.3077 1169.41L69.4531 1110.49L91.9785 1053.51L113.878 1007.63L135.778 961.757V1169.41L144.354 1239.39C147.385 1264.11 153.482 1288.36 162.507 1311.58L193.968 1392.52L180.828 1279.52V1169.41L187.398 1080.07L191.339 1026.49C193.085 1002.73 197.654 979.275 204.949 956.604L217.119 918.777L240.27 846.822L265.298 782.836L278.438 754.585L291.641 726.199C300.307 707.567 311.789 690.379 325.684 675.239C343.444 655.888 364.836 640.219 388.644 629.125L421.099 614L405.001 648.337C389.596 681.198 380.625 716.704 378.574 752.939C377.335 774.824 378.633 796.753 382.425 818.292L398.865 778.75L421.723 723.768V927.204C426.393 935.943 431.496 944.45 437.014 952.693L468.746 1000.09V972.631L475.604 865.562L480.448 789.932C481.786 769.031 485.31 748.326 490.962 728.159L506.626 672.26L530.791 586.026L556.915 509.341L570.63 475.484L585.591 438.553C593.86 418.139 605.045 399.032 618.798 381.827C638.08 357.704 662.064 337.752 689.293 323.183L719.537 307Z" fill="#EF4905"/>
<path d="M815.615 772.037L827.154 673L797.731 722.518L774.561 761.512C770.408 768.503 767.122 775.974 764.778 783.76L752.154 825.682L744.077 852.505L728.692 913.256L714.462 981.574L701.843 1042.15C700.77 1047.3 700.105 1052.53 699.855 1057.79L696.192 1134.71L692.154 1219.54V1324.08L700.231 1431.37L674.585 1329.46C673.223 1324.05 672.317 1318.53 671.875 1312.96L664.462 1219.54V1022.38L651 1065.94L637.538 1109.5L623.692 1163.6L612.538 1219.54L604.462 1271.81L596.385 1324.08L590.423 1377.72L584.462 1431.37L581 1518.48L584.462 1602.85L588.885 1654.2L593.308 1705.55L602.923 1760.11L614.077 1817.43L634.846 1885.74L653.71 1945.84C655.999 1953.13 657.444 1960.66 658.018 1968.28L672.538 2161H700.231H738.692H769.846H802.154H830.615H858.692H887.538H932.154L1011 2154.89L984.846 1956.81L978.692 1747.73L981.769 1705.55L984.846 1654.2V1602.85L981.769 1505.64L977.731 1462.54L973.692 1419.45L965.808 1370.39L957.923 1321.33L946.962 1277.77L936 1234.21L924.077 1196.15L912.154 1158.1L899.846 1129.67L887.538 1101.24L842.674 997.726C840.791 993.382 839.219 988.91 837.97 984.344L822.538 927.928L813.86 876.585C812.726 869.872 812.279 863.06 812.529 856.257L815.615 772.037Z" fill="#FF9700"/>
<path d="M1018.79 650.709L996.07 551L1058.34 604.578L1108.06 647.364C1116.37 654.511 1123.44 662.974 1129 672.416L1154.79 716.2L1171.88 745.222L1204.44 810.955L1234.56 884.873L1259.09 945.078C1262.79 954.171 1265.14 963.76 1266.05 973.537L1273.22 1050.57L1281.77 1142.35V1248.14C1281.77 1253.01 1281.41 1257.88 1280.7 1262.7L1264.67 1371.54L1316.53 1266.2C1321 1257.11 1324.07 1247.39 1325.62 1237.37L1339.19 1149.97C1339.98 1144.9 1340.37 1139.77 1340.37 1134.63V929.026L1368.86 976.155L1397.35 1023.28L1426.65 1081.82L1450.26 1142.35L1467.35 1198.9L1484.44 1255.46L1497.06 1313.5L1509.67 1371.54L1516.39 1457.93C1516.8 1463.17 1516.79 1468.44 1516.37 1473.68L1509.67 1557.08L1500.31 1612.65L1492.33 1660.05C1491.41 1665.48 1490.05 1670.83 1488.26 1676.03L1470.6 1727.25L1450.08 1781.17C1448.03 1786.55 1445.52 1791.75 1442.57 1796.7L1403.05 1863.18L1366.56 1922.61C1359.49 1934.13 1354.82 1946.97 1352.85 1960.35L1323.28 2161H1264.67H1183.28H1117.35H1048.98H988.744H929.326H868.279H773.86L607 2154.39L659.9 1949.55C661.529 1943.25 662.537 1936.8 662.912 1930.29L674.798 1723.83C675.18 1717.19 674.899 1710.54 673.961 1703.96L668.86 1668.21L662.349 1612.65V1557.08L668.86 1451.91L677.407 1405.28L685.953 1358.65L702.64 1305.56L717.03 1259.79C718.558 1254.92 720.456 1250.18 722.707 1245.61L742.523 1205.35L765.721 1158.22L790.953 1117.05L812.185 1082.4C814.848 1078.05 817.841 1073.92 821.135 1070.03L842.233 1045.11L868.279 1014.35L962.333 903.403C966.904 898.01 970.891 892.148 974.226 885.914L1001.77 834.431C1004.48 829.373 1006.74 824.092 1008.54 818.645L1021.6 779.147C1025.7 766.738 1027.33 753.645 1026.4 740.609L1021.03 665.777C1020.67 660.704 1019.92 655.667 1018.79 650.709Z" fill="#FFA624"/>
<path d="M704.13 723.42L706.702 695.98C709.102 670.383 714.782 645.2 723.603 621.051L745.734 560.462L792.429 433L751.337 484.168C734.637 504.963 720.785 527.892 710.146 552.349L687.586 604.212L675.437 628.191C665.592 647.622 657.893 668.068 652.476 689.167L645.825 715.072L638.424 743.895L624.327 809.179L611.288 882.592L598.249 956.006L594.548 1047.16L590.848 1138.31V1250.64L598.249 1365.94L577.409 1268.82C574.39 1254.75 572.387 1240.48 571.416 1226.13L565.474 1138.31V926.443L553.14 973.25L540.805 1020.06L528.118 1078.2L517.898 1138.31L510.497 1194.48L503.097 1250.64L497.634 1308.29L492.172 1365.94L489 1459.55L492.172 1550.21L496.225 1605.39L500.277 1660.58L509.088 1719.21L519.308 1780.8L538.338 1854.21L551.099 1901.89C556.206 1920.97 559.416 1940.51 560.682 1960.22L572.875 2150H598.249H633.49H662.036H691.639H717.717H743.444H769.875H810.755L883 2143.43L859.036 1930.58L853.397 1705.91L856.216 1660.58L859.036 1605.39V1550.21L856.216 1445.76L852.516 1399.44L848.816 1353.13L841.591 1300.41L834.367 1247.69L824.323 1200.88L814.279 1154.07L803.354 1113.18L792.429 1072.28L781.152 1041.74L769.875 1011.19L726.175 892.939L710.317 824.945L705.888 794.216C702.509 770.769 701.919 747.005 704.13 723.42Z" fill="#FF9700"/>
<path d="M459.042 710.169L472.71 673L452.99 684.716C431.901 697.245 413.621 713.986 399.289 733.894C389.744 747.153 382.063 761.66 376.464 777.009L365.076 808.224L355.162 835.397L336.279 896.943L318.812 966.153L308.325 1007.71C303.682 1026.1 300.795 1044.9 299.702 1063.84L296.388 1121.3L291.431 1207.23V1313.13L301.345 1421.83L276.138 1339.15C270.297 1320 266.39 1300.3 264.473 1280.37L257.441 1207.23V1007.49L240.919 1051.62L224.396 1095.75L207.401 1150.56L193.711 1207.23L183.797 1260.18L173.883 1313.13L166.566 1367.48L159.249 1421.83L155 1510.08L159.249 1595.55L164.678 1647.57L170.107 1699.6L181.909 1754.87L195.599 1812.94L217.531 1903.09L223.615 1940.18C227.194 1961.99 233.174 1983.35 241.445 2003.85L249.708 2024.33C254.855 2037.09 261.052 2049.4 268.236 2061.13L276.808 2075.12C286.48 2090.92 298.877 2104.87 313.422 2116.33C324.095 2124.74 335.818 2131.73 348.294 2137.11L357.671 2141.16C370.531 2146.71 383.862 2151.1 397.505 2154.27L398.693 2154.55C417.135 2158.83 436.006 2161 454.94 2161H461.38H495.842H531.248H586.009H951L774.94 2039.73C696.768 1985.89 648.69 1898.22 645.307 1803.36L643.131 1742.33L646.908 1699.6L650.684 1647.57V1595.55L646.908 1497.08L641.951 1453.41L636.994 1409.75L627.316 1360.05L617.639 1310.35L604.184 1266.22L590.73 1222.09L576.096 1183.54L561.461 1144.99L546.354 1116.19L531.248 1087.39L484.138 997.671C476.532 983.186 470.124 968.104 464.977 952.575L451.466 911.807L446.172 885.951C441.223 861.785 439.274 837.101 440.368 812.458L440.903 800.402C442.272 769.57 448.39 739.134 459.042 710.169Z" fill="#FE6323"/>
<path d="M1264.27 693.141L1245.31 676L1257.41 676C1287.64 676 1315.56 692.148 1330.64 718.347C1334 724.175 1336.64 730.382 1338.53 736.837L1351.85 782.5L1359.92 810.19L1375.31 872.906L1389.54 943.433L1402.25 1006.44C1403.26 1011.45 1403.89 1016.52 1404.12 1021.62L1407.81 1101.53L1411.85 1189.09V1297.01L1403.77 1407.77L1429.53 1302.08C1430.82 1296.82 1431.67 1291.46 1432.09 1286.06L1439.54 1189.09V985.559L1453 1030.53L1466.46 1075.49L1480.31 1131.35L1491.46 1189.09L1499.54 1243.05L1507.62 1297.01L1513.58 1352.39L1519.54 1407.77L1523 1497.7L1519.54 1584.8L1515.12 1637.81L1510.69 1690.82L1501.08 1747.15L1489.92 1806.32L1469.15 1876.84L1450.09 1939.53C1447.94 1946.63 1446.57 1953.94 1446.03 1961.34L1431.46 2161H1403.77H1365.31H1334.15H1301.85H1273.38H1245.31H1216.46H1171.85L1093 2154.69L1119.15 1950.21L1125.31 1734.37L1122.23 1690.82L1119.15 1637.81V1584.8L1122.23 1484.45L1126.27 1439.96L1130.31 1395.46L1138.19 1344.82L1146.08 1294.17L1157.04 1249.2L1168 1204.24L1179.92 1164.95L1191.85 1125.67L1204.15 1096.32L1216.46 1066.97L1264.15 953.373L1281.46 888.053L1291.85 824.626L1296.68 777.519C1299.93 745.837 1287.89 714.501 1264.27 693.141Z" fill="#FF9700"/>
<path d="M1426.96 710.169L1413.29 673L1433.01 684.716C1454.1 697.245 1472.38 713.986 1486.71 733.894C1496.26 747.153 1503.94 761.66 1509.54 777.009L1520.92 808.224L1530.84 835.397L1549.72 896.943L1567.19 966.153L1577.68 1007.71C1582.32 1026.1 1585.21 1044.9 1586.3 1063.84L1589.61 1121.3L1594.57 1207.23V1313.13L1584.66 1421.83L1609.86 1339.15C1615.7 1320 1619.61 1300.3 1621.53 1280.37L1628.56 1207.23V1007.49L1645.08 1051.62L1661.6 1095.75L1678.6 1150.56L1692.29 1207.23L1702.2 1260.18L1712.12 1313.13L1719.43 1367.48L1726.75 1421.83L1731 1510.08L1726.75 1595.55L1721.32 1647.57L1715.89 1699.6L1704.09 1754.87L1690.4 1812.94L1668.47 1903.09L1662.38 1940.18C1658.81 1961.99 1652.83 1983.35 1644.56 2003.85L1636.29 2024.33C1631.15 2037.09 1624.95 2049.4 1617.76 2061.13L1609.19 2075.12C1599.52 2090.92 1587.12 2104.87 1572.58 2116.33C1561.9 2124.74 1550.18 2131.73 1537.71 2137.11L1528.33 2141.16C1515.47 2146.71 1502.14 2151.1 1488.49 2154.27L1487.31 2154.55C1468.87 2158.83 1449.99 2161 1431.06 2161H1424.62H1390.16H1354.75H1299.99H935L1111.06 2039.73C1189.23 1985.89 1237.31 1898.22 1240.69 1803.36L1242.87 1742.33L1239.09 1699.6L1235.32 1647.57V1595.55L1239.09 1497.08L1244.05 1453.41L1249.01 1409.75L1258.68 1360.05L1268.36 1310.35L1281.82 1266.22L1295.27 1222.09L1309.9 1183.54L1324.54 1144.99L1339.65 1116.19L1354.75 1087.39L1401.86 997.671C1409.47 983.186 1415.88 968.104 1421.02 952.575L1434.53 911.807L1439.83 885.951C1444.78 861.785 1446.73 837.101 1445.63 812.458L1445.1 800.402C1443.73 769.57 1437.61 739.134 1426.96 710.169Z" fill="#FE6323"/>
<path d="M1251.15 1086.01L1287.27 1041.42L1224.16 1054.52L1209.59 1057.55C1177.46 1064.22 1146.67 1076.21 1118.49 1093.03L1097.21 1105.73L1053.79 1136.58L1009.99 1173.46C981.015 1197.86 956.517 1227.12 937.597 1259.94L934.189 1265.85L902.184 1321.36L885.564 1359.61C875.813 1382.04 868.075 1405.3 862.441 1429.11L852.067 1472.95L846.169 1428C841.782 1394.56 843.354 1360.61 850.812 1327.72C854.75 1310.35 860.305 1293.39 867.403 1277.06L915.717 1165.89L880.591 1186.27L845.465 1206.65L806.553 1234.02L771.511 1264.57L742.616 1294.79L713.722 1325.02L687.888 1357.69L680.847 1366.6C668.339 1382.42 657.156 1399.24 647.409 1416.9C636.036 1437.5 626.668 1459.15 619.434 1481.54L610.751 1508.42L602.647 1546.92C597.258 1572.53 594.383 1598.61 594.064 1624.78L594.002 1629.85L594.185 1637.34C594.835 1663.89 598.044 1690.32 603.767 1716.25L608.812 1739.1L624.164 1803.94L637.781 1841.4C649.397 1873.35 664.914 1903.74 683.979 1931.89L685.557 1934.22C697.048 1951.18 709.786 1967.27 723.665 1982.35L733.917 1993.48L744.737 2005.23C758.11 2019.76 774.371 2031.33 792.478 2039.2C798.992 2042.03 805.709 2044.36 812.573 2046.19L822.903 2048.93C853.337 2057.01 884.906 2059.97 916.312 2057.68L937.096 2056.16C955.651 2054.81 974.048 2051.8 992.069 2047.18C1019.5 2040.14 1045.84 2029.42 1070.39 2015.3L1080.22 2009.64C1099.01 1998.83 1116.88 1986.49 1133.65 1972.76L1151.56 1958.09L1192.81 1916.73L1214.46 1889.36L1232.13 1862.52L1237.15 1854.36C1247.4 1837.72 1256.45 1820.37 1264.24 1802.45L1267.9 1794.01L1282.12 1753.13C1288.65 1734.34 1293.82 1715.1 1297.58 1695.56L1298.2 1692.35L1298.75 1689.48C1302.56 1669.72 1304.91 1649.71 1305.8 1629.6L1306.2 1620.4L1306.35 1617.1C1307.41 1593.08 1306.37 1569.02 1303.24 1545.19L1302.98 1543.2L1298.02 1505.4L1289.84 1470.7L1288.69 1465.84C1284.01 1445.98 1277.74 1426.51 1269.96 1407.65L1258.26 1379.3L1224.49 1297.56C1216.79 1278.93 1211.2 1259.49 1207.83 1239.62L1205.83 1227.83C1204.23 1218.38 1203.56 1208.8 1203.81 1199.22C1204.44 1176.02 1210.53 1153.28 1221.61 1132.88L1229.27 1118.75C1235.55 1107.19 1242.87 1096.23 1251.15 1086.01Z" fill="#FE6323"/>
<path d="M768.852 1086.32L732.731 1041.74L795.838 1054.84L810.411 1057.86C842.541 1064.53 873.33 1076.53 901.507 1093.35L922.789 1106.05L966.215 1136.9L1010.01 1173.78C1038.99 1198.18 1063.48 1227.44 1082.4 1260.26L1085.81 1266.17L1117.82 1321.68L1134.44 1359.92C1144.19 1382.36 1151.93 1405.62 1157.56 1429.42L1167.93 1473.26L1173.83 1428.31C1178.22 1394.87 1176.65 1360.92 1169.19 1328.03C1165.25 1310.67 1159.7 1293.71 1152.6 1277.37L1104.28 1166.2L1139.41 1186.59L1174.54 1206.97L1213.45 1234.34L1248.49 1264.89L1277.39 1295.11L1306.28 1325.33L1332.11 1358.01L1339.15 1366.92C1351.66 1382.74 1362.85 1399.56 1372.59 1417.21C1383.97 1437.82 1393.33 1459.46 1400.57 1481.85L1409.25 1508.73L1417.35 1547.24C1422.74 1572.85 1425.62 1598.92 1425.94 1625.09L1426 1630.17L1425.82 1637.66C1425.17 1664.21 1421.96 1690.63 1416.23 1716.57L1411.19 1739.42L1395.84 1804.26L1382.22 1841.71C1370.6 1873.66 1355.09 1904.06 1336.02 1932.21L1334.44 1934.54C1322.95 1951.5 1310.22 1967.59 1296.34 1982.66L1286.08 1993.8L1275.26 2005.55C1261.89 2020.07 1245.63 2031.64 1227.52 2039.51C1221.01 2042.34 1214.29 2044.68 1207.43 2046.5L1197.1 2049.25C1166.66 2057.33 1135.1 2060.29 1103.69 2057.99L1082.91 2056.48C1064.35 2055.12 1045.95 2052.12 1027.93 2047.5C1000.5 2040.46 974.159 2029.74 949.616 2015.62L939.777 2009.95C920.988 1999.14 903.119 1986.81 886.348 1973.08L868.437 1958.41L827.194 1917.05L805.544 1889.68L787.874 1862.84L782.848 1854.67C772.603 1838.03 763.551 1820.68 755.762 1802.76L752.097 1794.33L737.881 1753.44C731.347 1734.65 726.179 1715.41 722.418 1695.87L721.801 1692.67L721.249 1689.8C717.444 1670.04 715.09 1650.03 714.204 1629.92L713.798 1620.72L713.652 1617.41C712.594 1593.4 713.634 1569.34 716.761 1545.51L717.022 1543.52L721.981 1505.72L730.165 1471.01L731.31 1466.16C735.995 1446.29 742.26 1426.83 750.045 1407.96L761.741 1379.61L795.514 1297.88C803.212 1279.25 808.798 1259.81 812.167 1239.94L814.166 1228.14C815.768 1218.7 816.445 1209.12 816.187 1199.54C815.563 1176.33 809.467 1153.6 798.396 1133.2L790.727 1119.06C784.455 1107.5 777.132 1096.54 768.852 1086.32Z" fill="#FE6323"/>
<path d="M797.659 596.205L766.075 521.348L840.248 563.369L855.029 571.743C894.35 594.02 929.699 622.673 959.632 656.533L982.237 682.104L1026.93 741.062L1070.34 808.459L1078.39 820.963C1101.81 857.332 1119.37 897.155 1130.43 938.976L1137.16 964.408L1160.57 1052.96L1173.17 1131.73C1176.59 1153.13 1178.32 1174.76 1178.35 1196.42L1178.45 1280.59L1200.03 1217.39C1214.38 1175.37 1221.85 1131.31 1222.16 1086.9L1222.23 1077.35C1222.39 1054.53 1220.67 1031.74 1217.06 1009.21L1189.03 833.882L1226.51 875.285L1263.99 916.687L1304.12 969.141L1338.54 1024.5L1365.47 1077.07L1392.39 1129.64L1414.82 1184.43L1425.76 1211.17C1433.41 1229.84 1439.67 1249.05 1444.51 1268.63L1451.34 1296.29C1456.94 1318.99 1460.61 1342.13 1462.3 1365.45L1466.34 1421.15L1465.16 1477.22L1464.75 1496.85C1464.24 1521.09 1461.6 1545.24 1456.85 1569.02L1451.75 1594.61L1445.08 1623.01C1439.4 1647.22 1431.54 1670.87 1421.6 1693.67L1401.7 1739.31L1363.89 1822.69L1327.29 1883.93C1309.56 1913.59 1288.17 1940.91 1263.64 1965.25L1244.72 1984.02C1229.22 1999.39 1212.53 2013.51 1194.81 2026.24L1173.19 2041.76L1155.63 2054.38C1135.45 2068.87 1112.18 2078.46 1087.65 2082.38C1078.71 2083.81 1069.67 2084.48 1060.63 2084.38L1046.65 2084.22C1007.07 2083.78 967.899 2076.08 931.089 2061.51L905.786 2051.5C882.013 2042.09 859.169 2030.48 837.551 2016.83C806.396 1997.16 778.026 1973.4 753.201 1946.17L731.943 1922.85C717.61 1907.13 704.514 1890.33 692.77 1872.59L667.399 1834.27L628.457 1761.67L609.657 1715.79L595.622 1672.13L580.032 1618.75L571.32 1564.26L561.708 1460.03L563.424 1412.86L565.139 1365.69L574.441 1310.82L578.174 1288.81C581.881 1266.94 587.344 1245.41 594.509 1224.41L600.857 1205.82L617.971 1155.69L638.167 1111.05L645.053 1095.83C653.913 1076.25 664.289 1057.39 676.086 1039.42L681.054 1031.85L703.743 997.29L768.147 899.304C783.793 875.499 796.805 850.065 806.954 823.448L812.183 809.732C817.145 796.719 820.92 783.285 823.462 769.592C829.375 737.737 828.523 704.994 820.959 673.49L815.281 649.84C810.881 631.511 804.987 613.573 797.659 596.205Z" fill="#FE6323"/>
<path d="M1375.82 1118.93L1385.21 1051.8L1420.41 1109.71L1442.96 1146.8C1451.33 1160.58 1457.35 1175.66 1460.75 1191.43L1466.61 1218.56L1472.11 1244.03L1479.55 1299.54L1482.62 1359.66L1484.39 1394.38C1485.25 1411.19 1483.17 1428.02 1478.24 1444.11L1465.97 1484.21L1446.26 1548.63L1418.51 1612.48C1415.1 1620.34 1410.99 1627.89 1406.23 1635.02L1365.69 1695.9L1427.06 1652.05C1440.97 1642.11 1453.01 1629.78 1462.62 1615.64L1486.42 1580.63C1491.5 1573.16 1495.86 1565.23 1499.46 1556.96L1556.07 1426.7L1565.6 1468.32L1575.13 1509.95L1582 1559.49L1583.65 1608.34L1581.15 1652.23L1578.65 1696.12L1572.06 1739.42L1567.27 1770.92C1566.07 1778.78 1564.24 1786.52 1561.77 1794.07L1548.37 1835.13C1545.49 1843.94 1541.78 1852.45 1537.27 1860.55L1511.53 1906.84L1487.75 1940.69L1472.11 1962.95C1466.69 1970.66 1460.53 1977.83 1453.72 1984.34L1430.2 2006.83L1403.39 2030.65C1396.43 2036.83 1388.89 2042.33 1380.88 2047.06L1335.59 2073.82L1274.74 2108.53L1203.16 2138.97C1192.2 2143.64 1180.7 2146.93 1168.93 2148.77L1109.24 2158.13C1102.15 2159.24 1094.98 2159.83 1087.8 2159.88L1050.31 2160.13L1032.63 2160.25C1012.45 2160.38 992.472 2156.3 973.966 2148.26L897.882 2115.19C889.263 2111.44 881.028 2106.87 873.296 2101.52L801.807 2052.13L768.167 2024.71C754.047 2013.19 745.9 1995.91 746.008 1977.69C746.032 1973.57 745.633 1969.45 744.815 1965.4L744.421 1963.45C739.66 1939.91 745.924 1915.33 761.248 1896.84C774.315 1881.07 780.961 1860.77 779.636 1840.33L777.909 1813.7L780.121 1752.32L785.627 1716.05L793.586 1683.21L801.705 1653.65C803.519 1647.04 805.8 1640.58 808.53 1634.3L820.583 1606.56L851.584 1547.78C854.837 1541.61 858.531 1535.68 862.638 1530.05L876.996 1510.34L891.283 1490.74C895.437 1485.04 900.003 1479.65 904.942 1474.62L926.562 1452.58L946.734 1432.02C952.634 1426.01 959.048 1420.52 965.902 1415.62L988.219 1399.68L1020.84 1376.37L1053.38 1357.77L1075.88 1344.91C1082.57 1341.09 1089.56 1337.8 1096.77 1335.09L1116.11 1327.82L1146.29 1316.48L1247.98 1278.31C1258.1 1274.51 1267.77 1269.59 1276.8 1263.64L1301.18 1247.56C1309.03 1242.39 1316.36 1236.45 1323.06 1229.85L1325.53 1227.43C1341.77 1211.43 1354 1191.83 1361.23 1170.21L1369.74 1144.78C1372.55 1136.37 1374.59 1127.71 1375.82 1118.93Z" fill="#FE6323"/>
<path d="M643.152 1111.86L634.791 1052.11L599.592 1110.02L591.464 1123.4C573.543 1152.88 560.674 1185.15 553.391 1218.88L547.89 1244.35L540.45 1299.86L537.382 1359.98C535.352 1399.76 540.275 1439.58 551.928 1477.67L554.027 1484.53L573.74 1548.95L591.968 1590.89C601.719 1613.33 613.445 1634.86 627.006 1655.22L654.312 1696.22L615.527 1668.5C586.676 1647.89 561.705 1622.32 541.773 1593C531.248 1577.51 522.195 1561.08 514.732 1543.9L463.933 1427.01L454.404 1468.64L444.874 1510.26L437.999 1559.81L436.346 1608.66L438.85 1652.55L441.353 1696.44L447.94 1739.74L449.735 1751.54C452.924 1772.51 457.834 1793.17 464.413 1813.33C472.091 1836.85 482.011 1859.58 494.035 1881.2L508.468 1907.16L532.255 1941.01L532.79 1941.77C548.254 1963.78 565.83 1984.22 585.27 2002.81L589.798 2007.14L597.225 2013.74C617.079 2031.38 638.587 2047.06 661.451 2060.57L684.406 2074.13L745.258 2108.84L748.471 2110.52C775.321 2124.56 803.634 2135.6 832.9 2143.45L855.634 2149.54L890.221 2155.1C910.988 2158.44 931.98 2160.19 953.013 2160.33L969.693 2160.44C1007.47 2160.23 1044.75 2151.87 1079.01 2135.95L1104.81 2123.95C1124.95 2114.58 1144.27 2103.53 1162.54 2090.9L1218.19 2052.45L1251.83 2025.02C1265.95 2013.51 1274.1 1996.22 1273.99 1978.01C1273.97 1973.88 1274.37 1969.76 1275.19 1965.72L1275.58 1963.77C1280.34 1940.23 1274.08 1915.65 1258.75 1897.15C1245.69 1881.38 1239.04 1861.09 1240.37 1840.65L1242.09 1814.01L1239.88 1752.63L1234.37 1716.36L1226.41 1683.52L1223.35 1672.35C1218.17 1653.5 1211.66 1635.05 1203.87 1617.13L1199.42 1606.88L1177.47 1565.26C1168.19 1547.66 1157.65 1530.76 1145.93 1514.68L1143 1510.66L1140.28 1506.92C1128.43 1490.66 1115.4 1475.28 1101.31 1460.92L1093.44 1452.9L1089.7 1449.09C1072.87 1431.93 1054.57 1416.27 1035.01 1402.3L1031.78 1399.99L999.164 1376.69L966.617 1358.09L962.064 1355.48C943.431 1344.83 923.978 1335.69 903.889 1328.14L873.707 1316.79L786.648 1284.12C766.804 1276.67 747.858 1267.02 730.163 1255.36L719.663 1248.43C711.253 1242.89 703.403 1236.54 696.225 1229.47C678.834 1212.34 665.734 1191.35 657.991 1168.2L652.627 1152.17C648.24 1139.05 645.068 1125.56 643.152 1111.86Z" fill="#FE6323"/>
<path d="M945.39 1363.28L935.02 1325.95L986.3 1362.14C998.83 1370.99 1009.79 1381.87 1018.74 1394.32L1037.38 1420.28C1041.63 1426.21 1045.41 1432.47 1048.68 1439L1075.54 1492.73C1082.76 1507.16 1087.38 1522.74 1089.2 1538.77L1096.08 1599.43V1650.37L1086.45 1721.04L1137.84 1650.37L1158.83 1615.99C1162.58 1609.86 1165.83 1603.44 1168.58 1596.8L1202.54 1514.54L1214.01 1554.46L1222.21 1589.39C1223.78 1596.08 1224.85 1602.87 1225.4 1609.72L1228.7 1650.37V1704.52V1749.03L1224.57 1791.24L1216.73 1829.43C1214.92 1838.21 1212.27 1846.8 1208.79 1855.07L1202.54 1869.94L1194.84 1886.55C1191.11 1894.58 1186.62 1902.23 1181.42 1909.4L1164.46 1932.81L1137.84 1968.37L1107.82 2000.04C1100.03 2008.26 1091.24 2015.49 1081.68 2021.56L1057.02 2037.21C1051.26 2040.87 1045.23 2044.09 1038.98 2046.86L1020.37 2055.09L1010.63 2059.41C998.596 2064.73 985.579 2067.48 972.417 2067.48C967.683 2067.48 962.955 2067.13 958.273 2066.42L942.712 2064.06C927.594 2061.77 912.964 2056.98 899.421 2049.88L873.871 2036.49C866.622 2032.69 859.727 2028.25 853.267 2023.22L840.624 2013.39C830.792 2005.74 822.044 1996.8 814.618 1986.8L798.139 1964.6C793.649 1958.56 789.663 1952.15 786.22 1945.45L774.414 1922.48L760.189 1886.23L754.224 1863.74L750.553 1842.64L748.265 1826.62C747.344 1820.18 746.882 1813.67 746.882 1807.16V1791.24L749.803 1752.54C750.302 1745.92 751.279 1739.35 752.725 1732.88L755.371 1721.04L757.992 1709.3C759.455 1702.76 761.394 1696.32 763.794 1690.06L769.596 1674.92L774.694 1661.61C777.561 1654.13 781.076 1646.91 785.198 1640.04L792.081 1628.57L805.159 1606.78L819.384 1587.73L827.016 1577.52C831.404 1571.64 836.254 1566.13 841.521 1561.03L848.293 1554.46L862.977 1540.24L908.756 1495.94C916.147 1488.78 922.712 1480.83 928.33 1472.21L935.28 1461.56C938.769 1456.21 941.728 1450.53 944.116 1444.6C949.901 1430.25 952.213 1414.73 950.866 1399.31L949.89 1388.14C949.155 1379.73 947.649 1371.41 945.39 1363.28Z" fill="#FFA624"/>
<path d="M1289.11 967.812L1276.21 910.141L1300.26 931.223C1343.19 968.86 1379.67 1013.27 1408.24 1062.7L1413.89 1072.47L1439.25 1135.45C1458.26 1182.67 1470.27 1232.42 1474.9 1283.12L1480.12 1340.14V1420.22L1467.92 1531.33L1532.98 1420.22C1555.26 1374.89 1569.29 1325.95 1574.4 1275.7L1582 1201L1588.43 1210.29C1615.45 1249.28 1633.96 1293.52 1642.77 1340.14L1648 1420.22V1505.35V1575.34L1642.77 1641.71L1636.35 1680.55C1631.73 1708.48 1624.85 1735.99 1615.78 1762.81L1614.89 1765.44L1613.7 1768.62C1603.28 1796.51 1590.5 1823.46 1575.49 1849.18L1566.67 1864.28L1532.98 1920.2L1508.34 1952.49C1489.6 1977.04 1467.84 1999.13 1443.58 2018.25C1427.69 2030.78 1410.79 2041.98 1393.05 2051.73L1384.26 2056.56L1370.86 2063.93C1356.41 2071.87 1340.18 2076.04 1323.69 2076.04C1317.61 2076.04 1311.55 2075.47 1305.58 2074.35L1296.14 2072.57C1270.33 2067.71 1245.72 2057.84 1223.7 2043.51L1208 2033.28C1192.71 2023.33 1178.4 2011.94 1165.28 1999.26C1147.14 1981.74 1131.4 1961.9 1118.46 1940.26L1109.91 1925.95C1099.57 1908.67 1090.52 1890.66 1082.83 1872.05L1072.89 1848.05L1054.89 1791.06L1047.33 1755.7L1042.69 1722.52L1038.04 1682.11V1641.71L1042.69 1565.24L1048.79 1531.33L1054.89 1497.42L1066.79 1458.82L1067.48 1456.59C1074.95 1432.38 1084.24 1408.76 1095.26 1385.95L1111.82 1351.68L1129.82 1321.74L1132.84 1316.72C1142.82 1300.13 1154.05 1284.32 1166.42 1269.43L1185.01 1247.07L1237.13 1184.43C1250.37 1168.51 1261.9 1151.25 1271.52 1132.92L1275.99 1124.41C1280.78 1115.29 1284.78 1105.79 1287.96 1095.99C1295.17 1073.79 1298.03 1050.4 1296.39 1027.11L1295.1 1008.76C1294.13 994.978 1292.13 981.291 1289.11 967.812Z" fill="#FFA624"/>
<path d="M717.956 987.906L753.101 884L718.358 901.169C687.719 916.311 659.883 936.561 636.045 961.051C618.686 978.886 603.606 998.805 591.152 1020.35L561.109 1072.33L535.747 1135.33C516.74 1182.55 504.73 1232.3 500.098 1282.98L494.884 1340.03V1420.13L507.084 1531.25L442.021 1420.13L408.328 1351.58L360.112 1206.54L345.589 1269.32L332.228 1340.03L327 1420.13V1505.27V1575.27L332.228 1641.65L338.652 1680.51C343.269 1708.43 350.147 1735.94 359.217 1762.75L360.112 1765.4L361.303 1768.59C371.721 1796.48 384.502 1823.43 399.507 1849.14L408.328 1864.26L442.021 1920.18L466.665 1952.47C485.403 1977.02 507.158 1999.12 531.415 2018.24C547.311 2030.77 564.213 2041.97 581.95 2051.72L590.735 2056.55L604.14 2063.92C618.593 2071.87 634.819 2076.04 651.312 2076.04C657.387 2076.04 663.45 2075.47 669.421 2074.35L678.856 2072.57C704.672 2067.71 729.283 2057.84 751.297 2043.5L767.001 2033.28C782.291 2023.32 796.595 2011.93 809.717 1999.25C827.855 1981.73 843.599 1961.89 856.539 1940.24L865.093 1925.93C875.425 1908.65 884.476 1890.63 892.173 1872.03L902.106 1848.02L920.114 1791.02L927.666 1755.66L932.313 1722.47L936.96 1682.06V1641.65L932.313 1565.16L926.214 1531.25L920.114 1497.34L908.205 1458.73L907.517 1456.5C900.047 1432.29 890.762 1408.67 879.74 1385.85L863.184 1351.58L845.176 1321.63L842.157 1316.61C832.178 1300.02 820.953 1284.21 808.578 1269.32L789.989 1246.95L753.101 1187.06L721.088 1143.75C710.035 1128.79 702.423 1111.58 698.794 1093.34C694.231 1070.4 696.128 1046.65 704.273 1024.73L717.956 987.906Z" fill="#FFA624"/>
<path d="M1101.36 987.906L1136.5 884L1101.76 901.169C1071.12 916.311 1043.29 936.561 1019.45 961.051C1002.09 978.886 987.009 998.805 974.554 1020.35L944.511 1072.33L919.15 1135.33C900.143 1182.55 888.133 1232.3 883.501 1282.98L878.287 1340.03V1420.13L890.486 1531.25L825.424 1420.13L791.731 1351.58L743.515 1206.54L728.992 1269.32L715.631 1340.03L710.403 1420.13V1505.27V1575.27L715.631 1641.65L722.055 1680.51C726.672 1708.43 733.55 1735.94 742.62 1762.75L743.515 1765.4L752.26 1788.81C757.651 1803.24 764.265 1817.19 772.03 1830.5C785.096 1852.89 794.876 1877.04 801.071 1902.21L808.627 1932.92C815.108 1959.26 826.945 1983.98 843.401 2005.54L848.283 2011.94C863.436 2031.8 882.95 2047.9 905.318 2059.02L915.383 2064.02C931.294 2071.92 948.819 2076.04 966.586 2076.04H1009.57H1025.11C1037.58 2076.04 1050.01 2074.88 1062.26 2072.57C1088.07 2067.71 1112.69 2057.84 1134.7 2043.5L1150.4 2033.28C1165.69 2023.32 1180 2011.93 1193.12 1999.25C1211.26 1981.73 1227 1961.89 1239.94 1940.24L1248.5 1925.93C1258.83 1908.65 1267.88 1890.63 1275.58 1872.03L1285.51 1848.02L1303.52 1791.02L1311.07 1755.66L1315.72 1722.47L1320.36 1682.06V1641.65L1315.72 1565.16L1309.62 1531.25L1303.52 1497.34L1291.61 1458.73L1290.92 1456.5C1283.45 1432.29 1274.16 1408.67 1263.14 1385.85L1246.59 1351.58L1228.58 1321.63L1225.56 1316.61C1215.58 1300.02 1204.36 1284.21 1191.98 1269.32L1173.39 1246.95L1136.5 1187.06L1104.49 1143.75C1093.44 1128.79 1085.83 1111.58 1082.2 1093.34C1077.63 1070.4 1079.53 1046.65 1087.68 1024.73L1101.36 987.906Z" fill="#FF9700"/>
<path d="M633.187 788.731L626.793 770.787L634.624 775.776L637.587 778.02L639.63 779.844C640.682 780.784 641.632 781.833 642.463 782.973L644.492 785.758L645.303 786.887C647.354 789.746 648.612 793.096 648.948 796.598L649.209 799.318C649.342 800.698 649.33 802.087 649.174 803.465L648.335 810.865C648.238 811.724 647.877 812.532 647.301 813.177C646.61 813.95 645.657 814.439 644.625 814.549L634.132 815.662L631.679 815.585C628.503 815.485 625.397 814.627 622.62 813.082L622.259 812.881C617.29 810.117 613.74 805.361 612.501 799.812L608.169 780.401L612.995 785.882C613.982 787.003 615.093 788.01 616.306 788.883L620.851 792.156C622.511 793.351 624.346 794.284 626.291 794.921L626.945 795.135C630.879 796.424 634.576 792.63 633.187 788.731Z" fill="#FFF28C"/>
<path d="M1154.8 405.591L1146.57 390.505L1145.22 398.774L1144.95 402.117L1144.95 404.588C1144.95 405.862 1145.08 407.131 1145.35 408.376L1146.01 411.415L1146.28 412.639C1146.97 415.738 1148.47 418.598 1150.63 420.929L1152.3 422.739C1153.15 423.657 1154.09 424.484 1155.11 425.207L1160.6 429.09C1161.24 429.54 1162 429.782 1162.78 429.782C1163.71 429.782 1164.61 429.434 1165.31 428.806L1172.36 422.412L1173.79 420.715C1175.63 418.517 1176.92 415.91 1177.54 413.113L1177.63 412.749C1178.75 407.743 1177.68 402.495 1174.69 398.327L1164.23 383.747L1165.02 390.288C1165.18 391.627 1165.19 392.98 1165.05 394.321L1164.52 399.346C1164.33 401.182 1163.85 402.978 1163.11 404.67L1162.87 405.239C1161.37 408.661 1156.59 408.87 1154.8 405.591Z" fill="#FFF28C"/>
<path d="M1578.41 965.593L1587.54 948.874L1589.03 958.038L1589.33 961.743L1589.33 964.481C1589.33 965.892 1589.18 967.299 1588.88 968.679L1588.16 972.047L1587.86 973.404C1587.09 976.838 1585.43 980.007 1583.04 982.59L1581.18 984.596C1580.24 985.614 1579.2 986.531 1578.07 987.332L1571.99 991.634C1571.28 992.134 1570.44 992.402 1569.57 992.402C1568.54 992.402 1567.54 992.017 1566.77 991.32L1558.95 984.234L1557.37 982.353C1555.33 979.917 1553.91 977.029 1553.21 973.928L1553.12 973.525C1551.87 967.978 1553.05 962.162 1556.37 957.542L1567.96 941.384L1567.09 948.633C1566.91 950.117 1566.9 951.616 1567.05 953.102L1567.64 958.672C1567.85 960.707 1568.38 962.697 1569.2 964.572L1569.48 965.202C1571.14 968.995 1576.43 969.226 1578.41 965.593Z" fill="#FFF28C"/>
<path d="M448.411 793.593L457.538 776.874L459.032 786.038L459.331 789.743L459.331 792.481C459.331 793.892 459.181 795.299 458.884 796.679L458.158 800.047L457.855 801.404C457.089 804.838 455.427 808.007 453.039 810.59L451.184 812.596C450.243 813.614 449.199 814.531 448.067 815.332L441.988 819.634C441.283 820.134 440.439 820.402 439.575 820.402C438.538 820.402 437.538 820.017 436.77 819.32L428.951 812.234L427.375 810.353C425.334 807.917 423.906 805.029 423.209 801.928L423.118 801.525C421.871 795.978 423.054 790.162 426.369 785.542L437.963 769.384L437.089 776.633C436.91 778.117 436.899 779.616 437.055 781.102L437.641 786.672C437.855 788.707 438.381 790.697 439.201 792.572L439.477 793.202C441.135 796.995 446.428 797.226 448.411 793.593Z" fill="#FFF28C"/>
<path d="M1226.41 642.593L1235.54 625.874L1237.03 635.038L1237.33 638.743L1237.33 641.481C1237.33 642.892 1237.18 644.299 1236.88 645.679L1236.16 649.047L1235.86 650.404C1235.09 653.838 1233.43 657.007 1231.04 659.59L1229.18 661.596C1228.24 662.614 1227.2 663.531 1226.07 664.332L1219.99 668.634C1219.28 669.134 1218.44 669.402 1217.58 669.402C1216.54 669.402 1215.54 669.017 1214.77 668.32L1206.95 661.234L1205.38 659.353C1203.33 656.917 1201.91 654.029 1201.21 650.928L1201.12 650.525C1199.87 644.978 1201.05 639.162 1204.37 634.542L1215.96 618.384L1215.09 625.633C1214.91 627.117 1214.9 628.616 1215.06 630.102L1215.64 635.672C1215.86 637.707 1216.38 639.697 1217.2 641.572L1217.48 642.202C1219.14 645.995 1224.43 646.226 1226.41 642.593Z" fill="#FFF28C"/>
<path d="M798.327 396.593L789.2 379.874L787.706 389.038L787.407 392.743L787.407 395.481C787.407 396.892 787.557 398.299 787.854 399.679L788.58 403.047L788.883 404.404C789.649 407.838 791.311 411.007 793.699 413.59L795.554 415.596C796.495 416.614 797.54 417.531 798.671 418.332L804.75 422.634C805.456 423.134 806.299 423.402 807.164 423.402C808.2 423.402 809.2 423.017 809.969 422.32L817.788 415.234L819.364 413.353C821.404 410.917 822.833 408.029 823.53 404.928L823.62 404.525C824.867 398.978 823.684 393.162 820.369 388.542L808.775 372.384L809.649 379.633C809.828 381.117 809.84 382.616 809.683 384.102L809.098 389.672C808.884 391.707 808.357 393.697 807.537 395.572L807.262 396.202C805.603 399.995 800.31 400.226 798.327 396.593Z" fill="#FFF28C"/>
<path d="M368.328 1116.59L359.201 1099.87L357.706 1109.04L357.407 1112.74L357.407 1115.48C357.407 1116.89 357.557 1118.3 357.855 1119.68L358.581 1123.05L358.883 1124.4C359.65 1127.84 361.311 1131.01 363.7 1133.59L365.555 1135.6C366.496 1136.61 367.54 1137.53 368.672 1138.33L374.75 1142.63C375.456 1143.13 376.299 1143.4 377.164 1143.4C378.201 1143.4 379.201 1143.02 379.969 1142.32L387.788 1135.23L389.364 1133.35C391.405 1130.92 392.833 1128.03 393.53 1124.93L393.621 1124.53C394.868 1118.98 393.685 1113.16 390.37 1108.54L378.775 1092.38L379.65 1099.63C379.829 1101.12 379.84 1102.62 379.684 1104.1L379.098 1109.67C378.884 1111.71 378.358 1113.7 377.538 1115.57L377.262 1116.2C375.603 1119.99 370.311 1120.23 368.328 1116.59Z" fill="#FFF28C"/>
<path d="M1518.41 625.593L1527.54 608.874L1529.03 618.038L1529.33 621.743L1529.33 624.481C1529.33 625.892 1529.18 627.299 1528.88 628.679L1528.16 632.047L1527.86 633.404C1527.09 636.838 1525.43 640.007 1523.04 642.59L1521.18 644.596C1520.24 645.614 1519.2 646.531 1518.07 647.332L1511.99 651.634C1511.28 652.134 1510.44 652.402 1509.57 652.402C1508.54 652.402 1507.54 652.017 1506.77 651.32L1498.95 644.234L1497.37 642.353C1495.33 639.917 1493.91 637.029 1493.21 633.928L1493.12 633.525C1491.87 627.978 1493.05 622.162 1496.37 617.542L1507.96 601.384L1507.09 608.633C1506.91 610.117 1506.9 611.616 1507.05 613.102L1507.64 618.672C1507.85 620.707 1508.38 622.697 1509.2 624.572L1509.48 625.202C1511.14 628.995 1516.43 629.226 1518.41 625.593Z" fill="#FFF28C"/>
<path d="M579.478 1815L480.447 1602.09L457.833 1700.46L452 1740.45C449.741 1775.51 451.214 1810.71 456.395 1845.46L457.528 1853.06C464.969 1900.63 484.875 1945.37 515.222 1982.75L519.182 1987.63C532.16 2003.62 546.77 2018.2 562.776 2031.15L579.297 2044.52C612.846 2071.67 652.901 2089.59 695.5 2096.5L1007.47 2146.14L880.037 2011.27C843.213 1972.3 829.854 1916.71 844.951 1865.26C857.069 1823.96 850.964 1779.46 828.173 1742.95L698.045 1534.51L701.037 1588.15C702.891 1621.4 700.998 1654.75 695.395 1687.57C687.722 1732.51 673.172 1776 652.256 1816.5C636.798 1846.44 593.688 1845.55 579.478 1815Z" fill="#FFF28C"/>
<path d="M1409.14 1789.86L1496.47 1602.09L1519.09 1700.47L1524.92 1740.45L1526.84 1770.16C1527.82 1785.47 1527.18 1800.85 1524.92 1816.02L1519.39 1853.07L1517.06 1868C1511.15 1905.78 1495.33 1941.33 1471.22 1971.03L1452.51 1994.08C1443.01 2005.78 1432.31 2016.46 1420.6 2025.94L1388.52 2051.89C1360.89 2074.26 1328.17 2089.47 1293.25 2096.2L1039.09 2145.15L1117.88 2043.05C1129.79 2027.61 1138.67 2010.06 1144.04 1991.32C1152.08 1963.25 1151.98 1933.47 1143.76 1905.45L1139.3 1890.25C1122.52 1833.06 1130.97 1771.43 1162.54 1720.87L1278.88 1534.52L1274.46 1613.78C1273.55 1630 1274.47 1646.27 1277.21 1662.28L1287.45 1722.3C1291.2 1744.23 1298.3 1765.45 1308.5 1785.21L1311.94 1791.87C1332.58 1831.85 1390.16 1830.66 1409.14 1789.86Z" fill="#FFF28C"/>
<path d="M1068.16 1822.87L1164.3 1607.24L1188.93 1724.34L1195.39 1771.44L1195.6 1774.63C1198.11 1813.38 1196.81 1852.3 1191.71 1890.8L1190.39 1900.77L1189.71 1905.65C1182.65 1956.24 1161.74 2003.89 1129.29 2043.33C1113.67 2062.31 1100.65 2083.29 1090.57 2105.71L1087.5 2112.55L1084.51 2120.02C1082.6 2124.81 1079.28 2128.9 1074.99 2131.76C1073.45 2132.78 1071.81 2133.63 1070.09 2134.3L1054.9 2140.21C1042.55 2145.41 1029.16 2147.64 1015.81 2146.71L1007.47 2146.14C986.778 2143.2 967.608 2133.59 952.872 2118.76L865.579 2030.95L843.977 2003.32C819.802 1972.4 802.158 1936.89 792.114 1898.94C771.818 1822.27 783.826 1740.62 825.341 1673.04L933.781 1496.5L931.142 1555.27C929.345 1595.29 931.61 1635.4 937.902 1674.96L938.576 1679.2C946.465 1728.8 960.875 1777.14 981.433 1822.97C998.237 1860.43 1051.44 1860.37 1068.16 1822.87Z" fill="#FFF28C"/>
<path d="M183.464 804.039L181.181 789.945L185.273 792.895C188.882 795.496 192.021 798.693 194.555 802.349C196.401 805.011 197.91 807.891 199.046 810.925L201.788 818.242L203.692 826.875C205.119 833.345 205.593 839.988 205.1 846.595L204.546 854.031L202.827 864.313L198.876 878.317L209.613 865.447L215.41 857.37L224.712 839.785L225.229 848.156L225.427 857.521L224.38 867.915L222.553 878.846L221.051 887.832L218.955 896.242L217.297 901.092C216.105 904.579 214.632 907.962 212.892 911.21L212.72 911.531L211.095 914.348C210.093 916.085 208.945 917.734 207.663 919.275C205.505 921.87 203.731 924.76 202.396 927.859L200.767 931.639C199.369 934.882 197.319 937.801 194.744 940.216L193.98 940.933C191.609 943.157 188.758 944.806 185.648 945.753L184.249 946.179C182.036 946.852 179.698 947.004 177.417 946.623L171.899 945.701L169.904 945.367C168.304 945.1 166.732 944.684 165.209 944.125C161.999 942.948 159.052 941.152 156.533 938.839L154.736 937.19C152.987 935.583 151.395 933.814 149.983 931.905C148.03 929.266 146.435 926.381 145.238 923.324L144.447 921.304C143.491 918.863 142.716 916.356 142.127 913.803L141.367 910.507L140.278 902.803L140.067 898.102L140.183 893.741L140.453 888.454L141.321 883.266L143.558 873.547L145.069 869.324L146.58 865.101L148.937 860.4L149.073 860.129C150.552 857.18 152.251 854.348 154.155 851.655L157.016 847.61L159.97 844.152L160.466 843.572C162.103 841.656 163.883 839.868 165.791 838.221L168.658 835.749L174.678 828.852L179.718 823.978C181.457 822.295 182.804 820.249 183.661 817.985C184.739 815.139 185.005 812.049 184.43 809.06L183.464 804.039Z" fill="#FF9700"/>
<path d="M1105.49 262.408L1096.23 251.54L1101.26 251.941C1105.69 252.294 1110.03 253.401 1114.1 255.213C1117.06 256.532 1119.84 258.214 1122.38 260.219L1128.52 265.055L1134.62 271.45C1139.2 276.243 1143.05 281.678 1146.05 287.583L1149.43 294.229L1153.29 303.913L1157.17 317.936L1159.68 301.365L1160.45 291.453L1159.29 271.593L1164.07 278.483L1169.1 286.389L1173.59 295.82L1177.7 306.115L1181.07 314.577L1183.64 322.855L1184.73 327.863C1185.52 331.462 1186.02 335.119 1186.21 338.798L1186.23 339.161L1186.3 342.413C1186.35 344.418 1186.22 346.423 1185.92 348.406C1185.42 351.743 1185.4 355.135 1185.87 358.477L1186.43 362.554C1186.92 366.051 1186.68 369.61 1185.73 373.011L1185.45 374.019C1184.57 377.15 1182.99 380.039 1180.82 382.46L1179.85 383.55C1178.3 385.273 1176.38 386.615 1174.23 387.472L1169.04 389.544L1167.16 390.293C1165.65 390.894 1164.09 391.353 1162.5 391.664C1159.14 392.321 1155.69 392.314 1152.34 391.642L1149.95 391.163C1147.62 390.696 1145.34 390.008 1143.14 389.108C1140.11 387.863 1137.25 386.223 1134.64 384.23L1132.91 382.912C1130.83 381.321 1128.87 379.579 1127.04 377.7L1124.68 375.277L1119.76 369.253L1117.14 365.342L1114.98 361.553L1112.47 356.891L1110.52 352.006L1107.4 342.534L1106.5 338.14L1105.6 333.745L1105.18 328.504L1105.16 328.201C1104.89 324.913 1104.88 321.61 1105.11 318.32L1105.46 313.378L1106.19 308.89L1106.32 308.137C1106.72 305.65 1107.32 303.198 1108.1 300.801L1109.27 297.2L1110.84 288.181L1112.62 281.401C1113.24 279.06 1113.33 276.612 1112.89 274.232C1112.33 271.239 1110.96 268.459 1108.92 266.201L1105.49 262.408Z" fill="#FF9700"/>
<path d="M1742.72 723.408L1751.98 712.54L1746.95 712.941C1742.52 713.294 1738.17 714.401 1734.11 716.213C1731.15 717.532 1728.37 719.214 1725.82 721.219L1719.69 726.055L1713.58 732.45C1709.01 737.243 1705.16 742.678 1702.16 748.583L1698.78 755.229L1694.92 764.913L1691.03 778.936L1688.52 762.365L1687.75 752.453L1688.92 732.593L1684.13 739.483L1679.11 747.389L1674.62 756.82L1670.51 767.115L1667.14 775.577L1664.57 783.855L1663.47 788.863C1662.69 792.462 1662.19 796.119 1662 799.798L1661.98 800.161L1661.91 803.413C1661.86 805.418 1661.99 807.423 1662.29 809.406C1662.79 812.743 1662.81 816.135 1662.34 819.477L1661.77 823.554C1661.29 827.051 1661.53 830.61 1662.48 834.011L1662.76 835.019C1663.63 838.15 1665.22 841.039 1667.39 843.46L1668.36 844.55C1669.91 846.273 1671.83 847.615 1673.97 848.472L1679.17 850.544L1681.05 851.293C1682.56 851.894 1684.12 852.353 1685.71 852.664C1689.06 853.321 1692.52 853.314 1695.87 852.642L1698.26 852.163C1700.59 851.696 1702.87 851.008 1705.06 850.108C1708.1 848.863 1710.96 847.223 1713.57 845.23L1715.29 843.912C1717.38 842.321 1719.34 840.579 1721.17 838.7L1723.52 836.277L1728.45 830.253L1731.07 826.342L1733.23 822.553L1735.74 817.891L1737.69 813.006L1740.81 803.534L1741.71 799.14L1742.61 794.745L1743.03 789.504L1743.05 789.201C1743.32 785.913 1743.33 782.61 1743.1 779.32L1742.75 774.378L1742.01 769.89L1741.89 769.137C1741.49 766.65 1740.89 764.198 1740.11 761.801L1738.94 758.2L1737.37 749.181L1735.59 742.401C1734.97 740.06 1734.88 737.612 1735.32 735.232C1735.88 732.239 1737.25 729.459 1739.29 727.201L1742.72 723.408Z" fill="#FF9700"/>
</svg>
