<svg xmlns="http://www.w3.org/2000/svg" width="2823" height="2807" fill="none"><path fill="#fe6323" d="m1789.15 1658.01 36.12-44.59-63.11 13.1-14.57 3.03a294.6 294.6 0 0 0-91.1 35.48l-21.28 12.7-43.42 30.85-43.8 36.88a325.8 325.8 0 0 0-72.39 86.48l-3.41 5.91-32.01 55.51-16.62 38.25a412.4 412.4 0 0 0-23.12 69.5l-10.37 43.84-5.9-44.95a285.4 285.4 0 0 1 4.64-100.28c3.94-17.37 9.49-34.33 16.59-50.66l48.32-111.17-35.13 20.38-35.12 20.38-38.92 27.37-35.04 30.55-28.89 30.22-28.9 30.23-25.83 32.67-7.04 8.91a367 367 0 0 0-33.44 50.3 368.2 368.2 0 0 0-27.98 64.64l-8.68 26.88-8.1 38.5a402 402 0 0 0-8.59 77.86l-.06 5.07.19 7.49c.64 26.55 3.85 52.98 9.58 78.91l5.04 22.85 15.35 64.84 13.62 37.46a413 413 0 0 0 46.2 90.49l1.58 2.33a415 415 0 0 0 38.1 48.13l10.26 11.13 10.82 11.75a141.5 141.5 0 0 0 47.74 33.97c6.51 2.83 13.23 5.16 20.09 6.99l10.33 2.74a283.7 283.7 0 0 0 93.41 8.75l20.79-1.52a313 313 0 0 0 54.97-8.98 313.3 313.3 0 0 0 78.32-31.88l9.83-5.66a396.4 396.4 0 0 0 53.43-36.88l17.91-14.67 41.25-41.36 21.65-27.37 17.67-26.84 5.02-8.16a413 413 0 0 0 27.09-51.91l3.66-8.44 14.22-40.88c6.53-18.79 11.7-38.03 15.46-57.57l.62-3.21.55-2.87c3.81-19.76 6.16-39.77 7.05-59.88l.4-9.2.15-3.3c1.06-24.02.02-48.08-3.11-71.91l-.26-1.99-4.96-37.8-8.18-34.7-1.15-4.86a383 383 0 0 0-18.73-58.19l-11.7-28.35-33.77-81.74a269.8 269.8 0 0 1-16.66-57.94l-2-11.79c-1.6-9.45-2.27-19.03-2.02-28.61.63-23.2 6.72-45.94 17.8-66.34l7.66-14.13c6.28-11.56 13.6-22.52 21.88-32.74"/><path fill="#ef4905" d="M1780.62 363.089 1763.19 246l44.01 57.969a522.9 522.9 0 0 1 71.53 128.396l22.15 57.571 40.38 150.721a523.2 523.2 0 0 1 16.85 103.564l8.99 147.937V1012.5l-12.2 166.96 65.07-166.96 13.39-40.914a523.2 523.2 0 0 0 24.72-127.251L2069 683.077l13.55 29.397a522.9 522.9 0 0 1 43.95 153.672l3.27 26.012L2135 1012.5v233.09l-5.23 99.75-13.36 121.42-14.52 64.51-16.85 67.76-31.37 80.77-33.7 84.02-28.95 57a455 455 0 0 1-57.98 87.43 456 456 0 0 1-57.84 57.22l-3.95 3.26-16.37 13.52a68.8 68.8 0 0 1-43.81 15.75c-6.33 0-12.63-.87-18.72-2.6l-11.09-3.13a152 152 0 0 1-64.91-37.6l-24.52-23.99a286.6 286.6 0 0 1-35.6-42.28l-5.99-8.69a395.3 395.3 0 0 1-41.81-78.2l-27.08-68.04-21.49-78.06-18.01-85.65-7.55-53.13-4.65-49.87-4.65-60.71v-60.71l4.65-114.92 6.1-50.96 6.1-50.95 11.91-58.01 11.91-58 16.55-51.498 16.56-51.497 18.01-44.993 18.01-44.992 18.59-33.609 18.59-33.609 50.52-91.245a522.5 522.5 0 0 0 36.17-80.78l11.49-32.881 1.29-5.965a522.6 522.6 0 0 0 11.21-134.809zM1204.98 299.218 1240.13 137l-21.63 16.685a417 417 0 0 0-99.12 109.514 417 417 0 0 0-37.19 75.825l-34.07 91.996-41.33 160.299a523 523 0 0 0-15.666 99.988l-9.229 157.649v125.043l12.2 173.481-65.066-173.481-33.696-107.018-48.219-226.43-14.524 98.007-13.361 110.398L814 973.999V1216.2l5.229 103.64 13.361 126.17 14.524 67.03 16.848 70.4 31.371 83.93 33.696 87.3 29.299 59.94a469.2 469.2 0 0 0 57.412 89.85 469.4 469.4 0 0 0 58.55 60.15l3.46 2.97 16.71 14.34a66.64 66.64 0 0 0 43.42 16.08c6.36 0 12.69-.91 18.79-2.7l11.31-3.33a148.6 148.6 0 0 0 64.05-38.36l25.51-25.93a288.6 288.6 0 0 0 34.83-42.95l6.56-9.9a413 413 0 0 0 41.42-80.41l27.3-71.29 21.49-81.11 18.01-88.99 7.55-55.2 4.65-51.82 4.65-63.09v-63.08l-4.65-119.41-6.1-52.95-6.1-52.94-11.91-60.27-11.91-60.271-16.55-53.509-16.56-53.509-18.01-46.751-18.01-46.75-18.59-34.922-18.59-34.922-36.89-93.5-29.1-61.459a289.5 289.5 0 0 1-25.52-87.294 289.7 289.7 0 0 1 5.54-103.65z"/><path fill="#ff9700" d="M1416.02 174.16 1380.87 0l19.38 16.05a449 449 0 0 1 101.88 120.314 450 450 0 0 1 36.2 79.116l34.55 100.185 42.93 178.762a523 523 0 0 1 13.68 93.631l9.61 176.31v134.248l-12.2 186.254 65.07-186.254 33.7-114.897 48.22-243.098 14.52 105.222 13.36 118.525 5.23 134.248v260.034l-5.23 111.27-13.36 135.45-14.52 71.96-16.85 75.59-15.06 43.24a523 523 0 0 0-23.52 95.97l-12.42 84.6a344.8 344.8 0 0 1-27.34 92.77l-18.38 40.37a150.3 150.3 0 0 1-40.66 53.28l-21.09 17.56a74.64 74.64 0 0 1-47.77 17.29h-55.25c-14.59 0-29.1-2.23-43.01-6.62a142.93 142.93 0 0 1-62.39-39.76l-27.38-29.87a294 294 0 0 1-33.4-44.17l-7.61-12.31a447.3 447.3 0 0 1-40.72-84.75l-27.69-77.62-21.49-87.08-18.01-95.55-7.55-59.26-4.65-55.64-4.65-67.73v-67.72l4.65-128.21 6.1-56.84 6.1-56.84 11.91-64.709 11.91-64.705 16.55-57.448 16.56-57.449 18.01-50.192 18.01-50.192 18.59-37.492 18.59-37.493 36.89-100.384 28.77-65.235a331.7 331.7 0 0 0 25.88-94.733 331.5 331.5 0 0 0-5.55-110.893z"/><path fill="#ef4905" d="m645.005 789.652-27.031-30.863 39.065 6.116a216.5 216.5 0 0 1 129.824 71.758l21.804 25.05 21.987 25.26 44.822 58.609 45.151 67.378 19.017 28.38a386 386 0 0 1 42.149 83.13l16.72 46.07 32.737 90.2 31.83 113.55 18.84 120.41 8.78-84c3.39-32.41 2.66-65.11-2.18-97.34l-9.89-65.9-60.02-214.15 36.29 40.85 36.3 40.86 40.17 52.12 36.11 55.41 29.74 52.9 29.73 52.9 26.54 55.41 26.53 55.41 32.45 92.97 19.76 93.29 8.06 57.9 8.07 57.9.16 63.88-1.64 67.6-3.48 105.23 10.81 232.88-.61 13.96c-1.28 29.33-21.26 54.52-49.53 62.44l-65.82 18.45-53.3 14.94-55.29 15.5-48.7 13.65-48.04 13.47-49.363 13.83c-46.156 12.94-95.549-3.38-124.917-41.26l-66.269-85.49a278.55 278.55 0 0 1-51.256-107.98l-32.367-140.16a386 386 0 0 0-18.736-59.04l-6.362-15.58-20.9-54.3-15.635-55.78-24.33-107.06-6.211-48.75-6.212-48.75-1.445-57.07-1.445-57.07 5.495-52.57 5.495-52.57 8.815-47.05 8.816-47.06 12.405-36.78 12.405-36.78 36.205-107.17a385.8 385.8 0 0 0 16.852-72.08l2.398-17.84a307 307 0 0 0 2.707-44.874l-.016-1.256a299 299 0 0 0-74.044-193.088M2379.76 629.798l29.33-33.331-42.54 6.565a234.3 234.3 0 0 0-85.16 30.865 234.3 234.3 0 0 0-55.45 46.457l-23.52 26.897-23.81 27.23-48.52 63.189-48.86 72.654-22.53 33.494a386 386 0 0 0-42.46 83.517L1997 1040.28l-35.36 97.3-34.34 122.51-20.25 129.94-10.04-94.33a385.5 385.5 0 0 1 2.06-97.82l11.15-74.71 64.77-231.046-39.31 44.039-39.3 44.04-43.48 56.197-39.09 59.75-32.16 57.05-32.17 57.05-28.69 59.77-28.69 59.76-35.04 100.29-21.29 100.67-8.65 62.48-8.66 62.48-.07 68.95 1.88 72.97 3.95 113.58-11.35 251.34.67 14.79c1.45 31.84 23.15 59.16 53.84 67.76l71.41 20.02 57.85 16.21 59.99 16.82 52.84 14.81 52.13 14.61 53.56 15.01c50.11 14.05 103.73-3.61 135.69-44.67l71.25-91.54a300.8 300.8 0 0 0 55.74-117.18l35.3-153.03a385 385 0 0 1 18.86-59.36l7.73-18.91 22.58-58.58 16.87-60.18 26.22-115.52 6.66-52.61 6.66-52.61 1.47-61.59 1.48-61.6-6.05-56.75-6.04-56.75-9.64-50.81-9.63-50.8-13.52-39.72-13.51-39.72-40.38-118.474c-8-23.48-13.72-47.677-17.07-72.255l-3.02-22.123a329 329 0 0 1-3.01-48.387l.02-1.376a320.8 320.8 0 0 1 17.43-100.641 320.9 320.9 0 0 1 62.51-107.586"/><path fill="#fe6323" d="m2538.66 1239.38-30.16-97.88 45.49 40.1a300.2 300.2 0 0 1 64.17 79.92l2.94 5.32a300.2 300.2 0 0 1 34.08 100.44l4.48 29.72 3.74 57.43c2.02 30.97-.78 62.06-8.29 92.17l-7.95 31.86-26.49 83.45-35.13 83.09-45.55 88.58-54.19 88.22-74.56 103.1-89.14 96.68 89.36-56.69a299.6 299.6 0 0 0 58.57-48.58l59.04-63.22 140.62-194.43-10.03 58.17-10.04 58.16-16.95 69.01-22.47 67.77-24.66 60.67-24.66 60.68-28.94 59.64-28.95 59.64-56.72 89.82-65.58 79.29-43.54 45.64-43.53 45.65-53.94 42.94-58.31 43.92-91.39 67.57-18.23 11.63a299.96 299.96 0 0 1-161.37 47.1h-213.04c-35.68 0-70.45-11.26-99.35-32.16l-43.87-31.73-45.08-32.6c-42.16-30.49-61.69-83.45-49.42-134.02l30.12-124.16a247.6 247.6 0 0 1 46.97-95.92l109.51-137.45a299.7 299.7 0 0 0 27.03-40.21l13.39-23.88 31.82-54.12 36.63-50.64 74.13-92.38 37.05-37.95 37.05-37.94 47.31-39.47 47.31-39.47 48.19-30.57 48.2-30.57 45.77-24.06 45.77-24.06 39.51-14.12 39.5-14.13 125.69-44.87a300.8 300.8 0 0 0 52.26-24.56l38.29-22.73c5.95-3.54 11.63-7.5 17-11.87a140.92 140.92 0 0 0 51.98-109.31v-55.66c0-25.75-3.85-51.36-11.44-75.97M364.735 589.345l-307.53-89.928 218.383-26.951a300 300 0 0 1 109.825 6.779l81.323 20.426 101.521 43.837a300 300 0 0 1 52.736 29.389l14.189 9.901a300 300 0 0 1 64.277 60.743l23.842 30.361 25.727 32.76 52.61 75.733 53.187 86.779 35.978 58.7a300 300 0 0 1 27.918 59.223l28.805 83.773 39.514 114.92 39.01 144.25 24.32 152.3 10.17-131.93c1.76-22.92.89-45.96-2.6-68.68l-17.01-110.51-73.578-272.053 42.448 53.02 42.45 53.023 47.14 67.36 42.58 71.32 35.22 67.88 35.23 67.87 31.62 70.88 31.62 70.89 39.24 118.39 24.75 118.23 10.56 73.19 10.55 73.18 1.66 80.35-.32 84.96-1.56 132.19 17.72 293.39-.51 23.46c-.71 33.08-23.14 61.74-55.09 70.38l-74.84 20.25-60.63 16.39-62.87 17-55.38 14.98-54.64 14.78-56.131 15.18c-52.126 14.1-107.502-5.91-138.576-50.07l-92.838-131.94a300 300 0 0 1-47.245-106.4l-48.17-212.76a300 300 0 0 0-12.534-41.3l-13.973-36.39-25.152-69.24-19.164-70.86L530.23 1733l-8.226-61.6-8.225-61.59-2.965-71.85-2.965-71.84 5.075-65.88 5.076-65.87 9-58.79 9-58.78 13.341-45.71 13.342-45.7 44.124-150.891a300 300 0 0 0 10.436-53.046l7.249-69.423a191.04 191.04 0 0 0-74.172-145.433l-86.399-66.734a300 300 0 0 0-99.186-50.518"/><path fill="#fe6323" fill-rule="evenodd" d="m1679.46 748 23.99 62.896a299.7 299.7 0 0 1 19.37 93.099l1.9 41.082a300.3 300.3 0 0 1-6.23 76.123l-9.64 45.37-21.2 61.68a300 300 0 0 1-20.24 45.96l-68.93 126.59-20.9 38.41-20.9 38.42-20.25 51.43-20.24 51.43-18.62 58.87-18.61 58.86-13.39 66.31-13.39 66.3-6.85 58.25-6.86 58.24-5.23 131.37v69.4l5.23 69.4 5.22 57-7.13 192.9a300 300 0 0 1-55.31 162.78L1237 2733h968.03c25.63 0 47.15-19.31 49.92-44.79l16.38-150.65a218.9 218.9 0 0 1 18.23-66.71l21.84-48.25 33.79-77.03 18.14-64.63 15.65-61.53 7.19-57.91 7.2-57.91 5.63-95.13-5.63-98.24-9.7-60.49-9.7-60.5-13.14-58.94-13.14-58.94-18.14-63.08-22.53-61.01-21.9-49.12-21.9-49.12v222.33l-9.12 79.71c-2.67 23.3-8.06 46.21-16.06 68.25l-33.01 90.91 13.14-120.99v-117.88l-6.57-95.66-4.26-62.08a300.3 300.3 0 0 0-11.99-65.79l-13.47-44.82-23.15-77.03-25.03-68.51-13.14-30.25-13.78-31.72a208.2 208.2 0 0 0-32.92-52.59 208.2 208.2 0 0 0-65.18-50.85l-30.78-15.36 17.53 40.03a299.8 299.8 0 0 1 24.77 104.5l.42 7.96c1.18 22.29-.13 44.63-3.9 66.6l-16.58-42.7-22.86-58.86v218.08c-4.26 8.51-8.92 16.82-13.97 24.89l-33.06 52.88v-29.41l-6.85-114.63-5.1-85.16c-1.17-19.6-4.27-39.04-9.24-58.04l-16.69-63.76-24.16-92.33-26.12-82.102-13.72-36.249-15.49-40.936a239.8 239.8 0 0 0-32.13-58.603 239.8 239.8 0 0 0-72.96-64.62z" clip-rule="evenodd"/><path fill="#fe6323" fill-rule="evenodd" d="m2118.65 590.469-33.7 70.762a300 300 0 0 0-25.92 85.044l-8.34 56.349a300 300 0 0 0-2.02 70.994l5 55.207 14.77 71.275c3.23 15.6 7.7 30.91 13.37 45.79l55.34 145.46 16.47 43.35 16.48 43.35 14.36 57.22 14.36 57.23 11.91 65.03 11.9 65.03 5.87 72.45 5.88 72.45.28 63.14.28 63.14-9.55 141.33-7.78 74.37-12.99 73.84-11.6 60.55-17.86 254.6a300.1 300.1 0 0 1-22.55 94.9l-71.6 170.95c-12.13 28.96-36.51 49.98-65.34 58.43l4.96 8.19-272.25-28.51-72.18-7.56-46.67-4.89-45.43-4.76-46.05-4.82-52.28-5.47-50.4-5.28-62.23-6.52c-25.44-2.67-44.73-24.16-44.64-49.74l.65-168.9c.09-23.49-3.32-46.86-10.12-69.35l-16.84-55.75-24.96-86.08-10.79-71.16-8.65-67.57-.66-62.81-.66-62.81 5.08-102.54 16.63-104.7 16.43-63.82 16.44-63.82 19.68-61.8 19.69-61.81 25.12-65.71 29.26-63.04 27.29-50.36 27.29-50.36-24.95 238.27.13 91.38c.04 21.94 2.47 43.8 7.27 65.21l23.66 105.48.51-131.04 13.23-126.33 17.27-101.83 12.03-70.91a300.4 300.4 0 0 1 16.77-60.09l20.15-50.98 31.67-80.16 32.58-70.81 16.46-31.05 18.01-33.95a219 219 0 0 1 37.24-50.869 219 219 0 0 1 73.23-49.211l30.3-12.421-25.28 47.363a300.1 300.1 0 0 0-31.82 95.438l-3.5 22.63c-3.37 21.8-4.32 43.89-2.85 65.87l21.54-44.58 29.34-60.7-24.51 234.03c2.95 8.56 6.28 17 9.99 25.28l28.08 62.65 3.3-31.51 19.69-122.14 15.31-94.99c2.91-18.06 7.47-35.82 13.62-53.05l25.15-70.533 34.4-96.432 35.2-85.27 17.71-37.42 20.69-43.721a255.3 255.3 0 0 1 37.17-57.224 255.3 255.3 0 0 1 82.78-63.535z" clip-rule="evenodd"/><path fill="#fe6323" fill-rule="evenodd" d="m163.816 947.625 36.848 69.175a300 300 0 0 0 52.962 71.41l40.34 40.22a300.2 300.2 0 0 0 55.877 43.84l47.355 28.81 66.091 30.51a301 301 0 0 0 44.763 16.49l149.851 42 44.648 12.53 44.649 12.54 54.551 22.48 54.551 22.49 59.359 29.09 59.359 29.1 61.74 38.37 61.74 38.36 50.93 37.32 50.93 37.32 107.95 91.72 55.16 50.49 51.64 54.35 41.79 45.33 194.07 165.76a300 300 0 0 1 62.88 74.57l94.86 159.22c16.07 26.97 18.47 59.07 8.13 87.28l9.53.88-184.82 201.92-49 53.54-31.69 34.62-30.84 33.69-31.26 34.16-35.49 38.77a115.09 115.09 0 0 1-84.9 37.38h-15.92a300 300 0 0 1-140.59-34.98l-46.23-24.52a299.5 299.5 0 0 0-39.59-17.47l-67.78-24.24-84.05-31.12-63.624-33.64-59.469-33.23-50.889-36.82-50.889-36.83-79.423-65.06-74.285-75.63-41.537-51.16-41.538-51.17-37.98-52.58-37.981-52.57-37.889-59.28-33.287-61.01-24.258-51.89-24.257-51.89 176.723 161.76 73.549 54.23a300 300 0 0 0 56.746 32.93l98.87 43.71-105.043-78.34-93.704-85.76-71.597-74.44-49.857-51.84a300 300 0 0 1-38.334-49.21l-29.011-46.52-45.606-73.13-37.557-68.3-15.171-31.7-16.591-34.67a219 219 0 0 1-18.75-60.19 219 219 0 0 1 3.981-88.13l8.037-31.76 23.044 48.49a299.8 299.8 0 0 0 57.805 82.34l16.115 16.27a300 300 0 0 0 51.258 41.47l-23.025-43.83-31.358-59.69 173.577 158.87a300 300 0 0 0 26.262 7.01l67.077 14.68-23.372-21.39-86.491-88.46-67.266-68.8a300 300 0 0 1-34.554-42.5l-41.745-62.17-57.073-84.99-47.624-79.01-19.554-36.49-22.846-42.63a255.195 255.195 0 0 1-25.753-168.255z" clip-rule="evenodd"/><path fill="#fe6323" fill-rule="evenodd" d="m1036.33 644.5 61.51 20.169a125.4 125.4 0 0 1 19.61 8.336c45.06 23.874 71.15 72.691 65.95 123.425l-.62 6.123a134.2 134.2 0 0 1-7.94 33.7l-36.62 97.177-80.99 160.25-20.9 41.4-20.89 41.4-20.251 55.42-20.246 55.42-18.613 63.43-18.614 63.44-13.388 71.44-13.389 71.45-6.857 62.76-6.858 62.77-5.225 141.56v74.78l5.225 74.78 5.225 61.43-8.754 255.08a300 300 0 0 0 12.547 96.74l53.403 177.47c9.045 30.07 31.1 53.51 58.895 64.92l-5.78 7.63h651.03c25.58 0 47-19.37 49.57-44.82l16.95-168.04c2.36-23.38 8.18-46.27 17.28-67.92l22.57-53.7 33.79-83.01 18.14-69.65 15.64-66.3 7.2-62.4 7.19-62.4 5.64-102.51-5.64-105.86-9.69-65.19-9.7-65.19-13.14-63.51-13.14-63.52-18.15-67.97-22.52-65.74-21.9-52.93-21.9-52.93v239.57l-9.66 90.87a299.6 299.6 0 0 1-14.02 64.09l-34.51 102.45 13.14-130.38v-127.03l-6.57-103.07-4.58-71.78a299.6 299.6 0 0 0-10.42-61.5l-14.72-52.81-23.15-83.01-25.03-73.83-13.14-32.59-14.37-35.645a219.107 219.107 0 0 0-99.44-111.042l-28.85-15.51 20.21 49.739a300.2 300.2 0 0 1 21.71 98.238l1.12 22.87c1.08 22.03-.27 44.1-4.02 65.8l-16.79-46.57-22.86-63.435v235.305a301 301 0 0 1-12.56 24.11l-34.46 59.39v-31.69l-6.86-123.52-5.33-96.08c-1.02-18.26-3.7-36.4-8.02-54.174l-17.67-72.768-24.17-99.49-26.12-88.472-15.89-47.233a161.4 161.4 0 0 0-14.17-30.928l-7.33-12.362a110.984 110.984 0 0 0-150.17-39.996z" clip-rule="evenodd"/><path fill="#fe6323" fill-rule="evenodd" d="m1257.54 879-21.78 53.325a300 300 0 0 0-21.89 98.635l-1.33 26.9a300.6 300.6 0 0 0 7.1 81.29l8.51 37.4 20.29 55.13a299.6 299.6 0 0 0 22.37 47.5l67.71 116.13 20.9 35.89 20.9 35.88 20.25 48.04 20.24 48.03 18.62 54.98 18.61 54.98 13.39 61.93 13.39 61.93 6.85 54.4 6.86 54.4 5.23 122.7v64.82l-5.23 64.82-5.22 53.24 6.7 169.34a300 300 0 0 0 61.08 169.87L1700 2733H731.968c-25.681 0-47.29-19.24-50.258-44.75l-15.82-135.94a204.3 204.3 0 0 0-19.098-65.51l-21.193-43.71-24.399-51.96a300 300 0 0 1-15.749-41.15l-11.786-39.21-15.643-57.47-7.195-54.08-7.196-54.09-5.631-88.86 5.631-91.75 9.699-56.5 9.698-56.5 13.14-55.06 13.14-55.05 18.145-58.92 22.525-56.98 21.9-45.88 21.9-45.87v207.65l8.576 69.98a300 300 0 0 0 18.153 72.19l31.461 80.94-13.14-113v-110.11l6.57-89.34 3.941-53.58a300 300 0 0 1 13.61-69.89l12.17-37.82 23.151-71.96 25.028-63.98 13.14-28.25 13.203-28.39a200.32 200.32 0 0 1 97.003-97.08l32.455-15.12-16.098 34.34a284.24 284.24 0 0 0-22.576 169.95l16.44-39.54 22.858-54.98v203.43a299 299 0 0 0 15.291 25.49l31.736 47.4v-27.46l6.85-107.07 4.85-75.63c1.34-20.9 4.86-41.6 10.51-61.77l15.67-55.9 24.16-86.23 26.12-76.69 13.72-33.86 14.96-36.93a228 228 0 0 1 33.21-56.723 227.8 227.8 0 0 1 70.49-58.644z" clip-rule="evenodd"/><path fill="#ff9700" d="m1353.62 1344.04 11.53-99.04-29.42 49.52-23.17 38.99a100 100 0 0 0-9.78 22.25l-12.63 41.92-8.07 26.82-15.39 60.76-14.23 68.31-12.62 60.58c-1.07 5.15-1.73 10.38-1.99 15.64l-3.66 76.92-4.04 84.83v104.54l8.08 107.29-25.64-101.91a99 99 0 0 1-2.71-16.5l-7.42-93.42v-197.16l-13.46 43.56-13.46 43.56-13.85 54.1-11.15 55.94-8.08 52.27-8.08 52.27-5.96 53.64-5.96 53.65-3.46 87.11 3.46 84.37 4.42 51.35 4.43 51.35 9.61 54.56 11.16 57.32 20.77 68.31 18.86 60.1c2.29 7.29 3.73 14.82 4.31 22.44l14.52 192.72h259.61l78.85-6.11-26.15-198.08-6.16-209.08 3.08-42.18 3.08-51.35v-51.35l-3.08-97.21-4.04-43.1-4.04-43.09-7.88-49.06-7.89-49.06-10.96-43.56-10.96-43.56-11.92-38.06-11.93-38.05-12.3-28.43-12.31-28.43-44.87-103.51a101 101 0 0 1-4.7-13.39l-15.43-56.41-8.68-51.35a100.2 100.2 0 0 1-1.33-20.32z"/><path fill="#ffa624" d="m1556.79 1222.71-22.72-99.71 62.27 53.58 49.72 42.78a99.8 99.8 0 0 1 20.94 25.06l25.79 43.78 17.09 29.02 32.56 65.73 30.12 73.92 24.53 60.21c3.7 9.09 6.05 18.68 6.96 28.46l7.17 77.03 8.55 91.78v105.79c0 4.87-.36 9.74-1.07 14.56l-16.03 108.84 51.86-105.34a100 100 0 0 0 9.09-28.83l13.57-87.4c.79-5.07 1.18-10.2 1.18-15.34v-205.6l28.49 47.13 28.49 47.12 29.3 58.54 23.61 60.53 17.09 56.55 17.09 56.56 12.62 58.04 12.61 58.04 6.72 86.39c.41 5.24.4 10.51-.02 15.75l-6.7 83.4-9.36 55.57-7.98 47.4c-.92 5.43-2.28 10.78-4.07 15.98l-17.66 51.22-20.52 53.92a99.6 99.6 0 0 1-7.51 15.53l-39.52 66.48-36.49 59.43a100 100 0 0 0-13.71 37.74L1861.28 2733h-549.42l-166.86-6.61 52.9-204.84c1.63-6.3 2.64-12.75 3.01-19.26l11.89-206.46c.38-6.64.1-13.29-.84-19.87l-5.1-35.75-6.51-55.56v-55.57l6.51-105.17 8.55-46.63 8.54-46.63 16.69-53.09 14.39-45.77c1.53-4.87 3.43-9.61 5.68-14.18l19.81-40.26 23.2-47.13 25.23-41.17 21.23-34.65c2.67-4.35 5.66-8.48 8.96-12.37l21.09-24.92 26.05-30.76 94.05-110.95c4.57-5.39 8.56-11.25 11.9-17.49l27.54-51.48a100 100 0 0 0 6.77-15.78l13.06-39.5c4.1-12.41 5.73-25.5 4.8-38.54l-5.37-74.83a99.4 99.4 0 0 0-2.24-15.07"/><path fill="#ff9700" d="m1242.13 1295.42 2.57-27.44c2.4-25.6 8.08-50.78 16.9-74.93l22.13-60.59 46.7-127.46-41.09 51.17a299.5 299.5 0 0 0-41.19 68.18l-22.56 51.86-12.15 23.98a299.2 299.2 0 0 0-22.96 60.98l-6.66 25.9-7.4 28.82-14.09 65.29-13.04 73.41-13.04 73.42-3.7 91.15-3.7 91.15v112.33l7.4 115.3-20.84-97.12a300 300 0 0 1-5.99-42.69l-5.95-87.82v-211.87l-12.33 46.81-12.33 46.81-12.69 58.14-10.22 60.11-7.4 56.17-7.4 56.16-5.47 57.65-5.46 57.65-3.17 93.61 3.17 90.66 4.05 55.18 4.06 55.19 8.81 58.63 10.22 61.59 19.03 73.41 12.76 47.68c5.11 19.08 8.32 38.62 9.58 58.33l12.19 189.78h237.88l72.25-6.57-23.96-212.85-5.64-224.67 2.82-45.33 2.82-55.19v-55.18l-2.82-104.45-3.7-46.32-3.7-46.31-7.23-52.72-7.22-52.72-10.05-46.81-10.04-46.81-10.93-40.89-10.92-40.9-11.28-30.54-11.28-30.55-43.69-118.25-15.86-67.99-4.43-30.73a300 300 0 0 1-1.76-70.8"/><path fill="#ffa624" d="m997.042 1282.17 13.668-37.17-19.72 11.72a178.5 178.5 0 0 0-53.701 49.17 178.5 178.5 0 0 0-22.825 43.12l-11.388 31.21-9.914 27.18-18.883 61.54-17.467 69.21-10.487 41.56a300 300 0 0 0-8.623 56.13l-3.314 57.46-4.957 85.93v105.9l9.914 108.7-25.207-82.68a300 300 0 0 1-11.665-58.78l-7.032-73.14v-199.74l-16.522 44.13-16.523 44.13-16.995 54.81-13.69 56.67-9.914 52.95-9.914 52.95-7.317 54.35-7.317 54.35-4.249 88.25 4.249 85.47 5.429 52.02 5.429 52.03 11.802 55.27 13.69 58.07 21.932 90.15 6.084 37.09a300 300 0 0 0 17.83 63.67l8.263 20.48a248.3 248.3 0 0 0 18.528 36.8l8.572 13.99a156.5 156.5 0 0 0 36.614 41.21 156.5 156.5 0 0 0 34.872 20.78l9.377 4.05a234.4 234.4 0 0 0 39.834 13.11l1.188.28a248.8 248.8 0 0 0 56.247 6.45H1489l-176.06-121.27c-78.17-53.84-126.25-141.51-129.63-236.37l-2.18-61.03 3.78-42.73 3.77-52.03v-52.02l-3.77-98.47-4.96-43.67-4.96-43.66-9.67-49.7-9.68-49.7-13.46-44.13-13.45-44.13-14.63-38.55-14.64-38.55-15.11-28.8-15.1-28.8-47.11-89.72a299 299 0 0 1-19.16-45.1l-13.514-40.76-5.294-25.86a300 300 0 0 1-5.804-73.49l.535-12.06a300 300 0 0 1 18.139-90.23"/><path fill="#ff9700" d="m1802.27 1265.14-18.96-17.14h12.1c30.23 0 58.15 16.15 73.23 42.35 3.36 5.82 6 12.03 7.89 18.49l13.32 45.66 8.07 27.69 15.39 62.72 14.23 70.52 12.71 63.01a99.5 99.5 0 0 1 1.87 15.18l3.69 79.91 4.04 87.56v107.92l-8.08 110.76 25.76-105.69a100 100 0 0 0 2.56-16.02l7.45-96.97v-203.53l13.46 44.97 13.46 44.96 13.85 55.86 11.15 57.74 8.08 53.96 8.08 53.96 5.96 55.38 5.96 55.38 3.46 89.93-3.46 87.1-4.42 53.01-4.43 53.01-9.61 56.33-11.16 59.17-20.77 70.52-19.06 62.69a100.5 100.5 0 0 0-4.06 21.81L1969.46 2733h-259.61l-78.85-6.31 26.15-204.48 6.16-215.84-3.08-43.55-3.08-53.01v-53.01l3.08-100.35 4.04-44.49 4.04-44.5 7.88-50.64 7.89-50.65 10.96-44.97 10.96-44.96 11.92-39.29 11.93-39.28 12.3-29.35 12.31-29.35 47.69-113.6 17.31-65.32 10.39-63.42 4.83-47.11c3.25-31.68-8.79-63.02-32.41-84.38"/><path fill="#ffa624" d="m1964.96 1282.17-13.67-37.17 19.72 11.72a178.45 178.45 0 0 1 53.7 49.17 178.4 178.4 0 0 1 22.83 43.12l11.38 31.21 9.92 27.18 18.88 61.54 17.47 69.21 10.49 41.56a300 300 0 0 1 8.62 56.13l3.31 57.46 4.96 85.93v105.9l-9.91 108.7 25.2-82.68c5.84-19.15 9.75-38.85 11.67-58.78l7.03-73.14v-199.74l16.52 44.13 16.52 44.13 17 54.81 13.69 56.67 9.91 52.95 9.92 52.95 7.31 54.35 7.32 54.35 4.25 88.25-4.25 85.47-5.43 52.02-5.43 52.03-11.8 55.27-13.69 58.07-21.93 90.15-6.09 37.09a299.6 299.6 0 0 1-17.82 63.67l-8.27 20.48a247 247 0 0 1-18.53 36.8l-8.57 13.99a156.5 156.5 0 0 1-36.61 41.21 156.7 156.7 0 0 1-34.87 20.78l-9.38 4.05a234.3 234.3 0 0 1-39.84 13.11l-1.18.28a249 249 0 0 1-56.25 6.45H1473l176.06-121.27c78.17-53.84 126.25-141.51 129.63-236.37l2.18-61.03-3.78-42.73-3.77-52.03v-52.02l3.77-98.47 4.96-43.67 4.96-43.66 9.67-49.7 9.68-49.7 13.46-44.13 13.45-44.13 14.63-38.55 14.64-38.55 15.11-28.8 15.1-28.8 47.11-89.72a299 299 0 0 0 19.16-45.1l13.51-40.76 5.3-25.86c4.95-24.16 6.9-48.85 5.8-73.49l-.53-12.06a300 300 0 0 0-18.14-90.23"/><path fill="#fe6323" d="m1306.85 1658.32-36.12-44.58 63.11 13.1 14.57 3.02a294.6 294.6 0 0 1 91.1 35.49l21.28 12.7 43.42 30.85 43.8 36.88a325.6 325.6 0 0 1 72.39 86.48l3.41 5.91 32.01 55.51 16.62 38.24c9.75 22.44 17.49 45.7 23.12 69.5l10.37 43.84 5.9-44.95c4.39-33.44 2.82-67.39-4.64-100.28a286 286 0 0 0-16.59-50.66l-48.32-111.17 35.13 20.39 35.13 20.38 38.91 27.37 35.04 30.55 28.9 30.22 28.89 30.22 25.83 32.68 7.04 8.91a367 367 0 0 1 33.44 50.29 368 368 0 0 1 27.98 64.64l8.68 26.88 8.1 38.51c5.39 25.61 8.27 51.68 8.59 77.85l.06 5.08-.18 7.49a412.6 412.6 0 0 1-9.59 78.91l-5.04 22.85-15.35 64.84-13.62 37.45a413 413 0 0 1-46.2 90.5l-1.58 2.33a413 413 0 0 1-38.1 48.12l-10.26 11.14-10.82 11.75a141.63 141.63 0 0 1-67.83 40.95l-10.33 2.75c-30.44 8.08-62 11.04-93.41 8.74l-20.78-1.51a313.7 313.7 0 0 1-54.98-8.98 313 313 0 0 1-78.31-31.88l-9.84-5.67a396 396 0 0 1-53.43-36.87l-17.91-14.67-41.25-41.36-21.65-27.37-17.67-26.84-5.02-8.17a413 413 0 0 1-27.09-51.91l-3.66-8.43-14.22-40.89a413 413 0 0 1-15.46-57.57l-.62-3.2-.55-2.87a412.6 412.6 0 0 1-7.05-59.88l-.4-9.2-.15-3.31c-1.06-24.01-.02-48.07 3.11-71.9l.26-1.99 4.96-37.8 8.19-34.71 1.14-4.85a383 383 0 0 1 18.74-58.2l11.69-28.35 33.77-81.73c7.7-18.63 13.29-38.07 16.66-57.94l2-11.8c1.6-9.44 2.27-19.02 2.02-28.6-.63-23.21-6.72-45.94-17.79-66.34l-7.67-14.14a215 215 0 0 0-21.88-32.74"/><path fill="#ffa624" d="m1361.45 1164.2-32.96-74.76 78.73 41.3 17.25 9.04c40.7 21.35 77.71 49.51 109.2 82.99l23.85 25.37 47.08 58.58 45.61 67.04 6.69 9.85a413.2 413.2 0 0 1 57.06 123.95l5.89 21.7 24.05 88.45 12.24 76.58c3.66 22.85 5.38 45.97 5.16 69.11l-.77 82.15 22.82-61.15a413 413 0 0 0 26-136.83l.07-3.82a414.3 414.3 0 0 0-5.11-72.78l-27.67-173.02 39.57 41.07 39.56 41.07 42.28 52.11 36.15 55.08 28.17 52.37 28.18 52.37 23.35 54.64 10.66 24.95a415 415 0 0 1 20.61 60.99l5.91 23.38a413 413 0 0 1 11.71 73.92l3.55 53.34-1.86 56.17-.59 17.62c-.85 25.65-4.08 51.16-9.67 76.21l-5.33 23.91-7.16 27.53a414 414 0 0 1-26.37 72.61l-21.46 45.35-41.26 83.93-40.76 63.33a413 413 0 0 1-65.78 78.67l-24.32 22.66a413 413 0 0 1-49.46 39.45l-25.63 17.41-18.41 12.51a181.6 181.6 0 0 1-73.41 29.11c-9.52 1.52-19.14 2.29-28.77 2.28l-14.67-.01c-42.48-.01-84.63-7.43-124.56-21.91l-28.29-10.26a413.3 413.3 0 0 1-68.01-31.94l-3.27-1.92a413 413 0 0 1-87.55-68.69l-22.53-23.21a413 413 0 0 1-41.99-50.83l-26.26-37.52-40.79-72.3-19.57-45.76-14.51-43.58-16.07-53.31-8.71-54.49-9.14-104.3 2.35-47.27 2.34-47.27 10.52-55.07 3.98-20.83a413 413 0 0 1 18.73-66.89l6.62-17.75 18.81-50.4 22.05-44.94 7.61-15.52a413.6 413.6 0 0 1 33.31-56.18l5.72-8.09 24.59-34.87 70.44-99.74a388.5 388.5 0 0 0 41.44-75.08l6.12-14.72c5.3-12.76 9.38-25.99 12.2-39.52 6.69-32.14 6.1-65.37-1.74-97.25l-5.64-22.97a324 324 0 0 0-18.18-53.4"/><path fill="#fe6323" d="m1913.82 1690.93 9.39-67.13 35.2 57.91 22.55 37.09a144.7 144.7 0 0 1 17.79 44.63l5.86 27.13 5.5 25.47 7.44 55.51 3.07 60.12 1.77 34.72c.86 16.81-1.22 33.64-6.15 49.73l-12.27 40.1-19.71 64.42-27.75 63.85c-3.41 7.86-7.52 15.41-12.28 22.54l-40.54 60.88 61.37-43.85a144.8 144.8 0 0 0 35.56-36.41l23.8-35.01c5.08-7.47 9.44-15.4 13.04-23.67l56.61-130.26 9.53 41.62 9.53 41.63 6.87 49.54 1.66 48.85-2.51 43.89-2.5 43.89-6.59 43.3-4.79 31.5c-1.2 7.86-3.03 15.6-5.5 23.15l-13.4 41.06c-2.88 8.81-6.59 17.32-11.1 25.42l-25.74 46.29-23.78 33.85-15.64 22.26a144.8 144.8 0 0 1-18.39 21.39l-23.52 22.49-26.81 23.82a145 145 0 0 1-22.51 16.41l-45.28 26.76-60.86 34.71-71.58 30.44a144 144 0 0 1-34.23 9.8l-59.69 9.36c-7.09 1.11-14.26 1.7-21.44 1.75l-37.49.25-17.68.12c-20.17.13-40.16-3.95-58.66-11.99l-76.09-33.07c-8.62-3.75-16.85-8.32-24.58-13.67l-71.49-49.39-33.64-27.42a60.21 60.21 0 0 1-22.16-47.02c.02-4.12-.38-8.24-1.19-12.29l-.4-1.95c-4.76-23.54 1.5-48.12 16.83-66.61 13.07-15.77 19.71-36.07 18.39-56.51l-1.73-26.63 2.21-61.38 5.51-36.27 7.96-32.84 8.12-29.56c1.81-6.61 4.09-13.07 6.82-19.35l12.05-27.74 31-58.78c3.26-6.17 6.95-12.1 11.06-17.73l14.36-19.71 14.28-19.6c4.16-5.7 8.72-11.09 13.66-16.12l21.62-22.04 20.17-20.56c5.9-6.01 12.32-11.5 19.17-16.4l22.32-15.94 32.62-23.31 32.54-18.6 22.5-12.86c6.69-3.82 13.68-7.11 20.89-9.82l19.34-7.27 30.18-11.34 101.69-38.17c10.12-3.8 19.79-8.72 28.82-14.67l24.38-16.08c7.85-5.17 15.18-11.11 21.88-17.71l2.47-2.42c16.24-16 28.47-35.6 35.7-57.22l8.51-25.43a145 145 0 0 0 6.08-25.85"/><path fill="#fe6323" d="m1126.61 1753.43-9.29-54.74-27.45 51.56-5.51 10.34a279 279 0 0 0-29.28 87.33l-3.67 23.05-4.16 50.43-.3 54.79c-.2 36.31 5.33 72.42 16.39 107l2.37 7.4 19.05 59.59 17.54 40.36a414 414 0 0 0 30.64 57.58l25.3 39.63-32.43-25.75a307.2 307.2 0 0 1-66.54-73.16 306 306 0 0 1-24.2-45.03l-47.453-109.18-6.447 37.66-6.447 37.66-3.911 44.99.463 44.56 3.777 40.19 3.776 40.18 7.195 39.8 1.91 10.57a402.9 402.9 0 0 0 42.247 120.3l13.2 24.35 21.32 31.82.96 1.42a412.6 412.6 0 0 0 45.77 56.75l4.27 4.43 5.74 5.56a413 413 0 0 0 58.1 46.93l18.41 12.29 52.58 34.01c25 14.95 51.56 27.11 79.2 36.28l15.34 5.09 23.03 5.02c21.83 4.75 44.01 7.73 66.31 8.9l7.17.37c31.73 1.24 63.29-5.15 92.04-18.63l20.3-9.52a290.5 290.5 0 0 0 47.48-28.04l45.44-33.01 25.28-22.02a55.19 55.19 0 0 0 18.89-44.21c-.17-3.54 0-7.08.52-10.58l.33-2.29a79.14 79.14 0 0 0-15.88-60.09l-1-1.28a82.96 82.96 0 0 1-17.5-52.5l.44-23.91-4.2-56.15-6.01-33.34-7.96-30.3-10.63-36.47-15.02-34.56-32.82-63.52-18.37-26.51-18.36-26.5-25.59-28.14-3.09-3.4a414.5 414.5 0 0 0-48.69-45.54l-2.18-1.73-28.36-22.52-28.13-18.23-4.37-2.84a362 362 0 0 0-49.62-26.9l-25.86-11.51-73.4-32.62a268.3 268.3 0 0 1-50.33-29.29l-8.12-5.99a157.267 157.267 0 0 1-55.24-75.17l-5.41-15.67c-4.2-12.17-7.4-24.66-9.55-37.35"/><path fill="#ffa624" d="m1483.39 1935.28-10.37-37.33 51.28 36.19a138 138 0 0 1 32.44 32.18l18.64 25.96c4.25 5.93 8.03 12.19 11.3 18.72l26.86 53.73a137.6 137.6 0 0 1 13.66 46.04l6.88 60.66v50.94l-9.63 70.67 51.39-70.67 20.99-34.38c3.75-6.13 7-12.55 9.75-19.19l33.96-82.26 11.47 39.92 8.2 34.93c1.57 6.69 2.64 13.48 3.19 20.33l3.3 40.65v98.66l-4.13 42.21-7.84 38.19c-1.81 8.78-4.46 17.37-7.94 25.64l-6.25 14.87-7.7 16.61a137.8 137.8 0 0 1-13.42 22.85l-16.96 23.41-26.62 35.56-30.02 31.67a137.7 137.7 0 0 1-26.14 21.52l-24.66 15.65c-5.76 3.66-11.79 6.88-18.04 9.65l-18.61 8.23-9.74 4.32a94.5 94.5 0 0 1-38.21 8.07c-4.74 0-9.47-.35-14.15-1.06l-15.56-2.36a137.6 137.6 0 0 1-43.29-14.18l-25.55-13.39a137 137 0 0 1-20.6-13.27l-12.65-9.83a137.6 137.6 0 0 1-26-26.59l-16.48-22.2c-4.49-6.04-8.48-12.45-11.92-19.15l-11.81-22.97-14.22-36.25-5.97-22.49-3.67-21.1-2.28-16.02c-.93-6.44-1.39-12.95-1.39-19.46v-15.92l2.92-38.7c.5-6.62 1.48-13.19 2.92-19.66l2.65-11.84 2.62-11.74c1.46-6.54 3.4-12.98 5.8-19.24l5.81-15.14 5.09-13.31c2.87-7.48 6.39-14.7 10.51-21.57l6.88-11.47 13.08-21.79 14.22-19.05 7.64-10.21c4.38-5.88 9.23-11.39 14.5-16.49l6.77-6.57 14.69-14.22 45.78-44.3c7.39-7.16 13.95-15.11 19.57-23.73l6.95-10.65a98.3 98.3 0 0 0 8.84-16.96 98.4 98.4 0 0 0 6.75-45.29l-.98-11.17c-.73-8.41-2.24-16.73-4.5-24.86"/><path fill="#fff28c" d="m1827.08 1516.49-12.89-60.49 26.11 24.03a522.7 522.7 0 0 1 103.93 132.51l7.65 13.88 27.7 72.25a522.5 522.5 0 0 1 32.7 141.86l5.82 66.9v84.07l-12.2 116.64 65.07-116.64a460.9 460.9 0 0 0 41.36-151.04l7.67-79.11 5.87 8.9a367 367 0 0 1 54.9 137.18l5.23 84.07v162.85l-5.23 69.68-7.02 44.59a522.6 522.6 0 0 1-18.84 79.02l-2.02 6.29-2.31 6.49a523.6 523.6 0 0 1-35.61 78.74l-10.3 18.54-33.7 58.7-25.2 34.66a373 373 0 0 1-63.91 68.04 373 373 0 0 1-51.35 35.68l-8.26 4.77-13.7 7.9a93.7 93.7 0 0 1-46.85 12.55c-6.1 0-12.18-.6-18.16-1.78l-9.58-1.89a193.45 193.45 0 0 1-71.71-30.09l-16.18-11.05c-15.36-10.5-29.81-22.6-42.87-35.84-17.98-18.23-33.69-38.93-46.36-61.17l-9.14-16.05a434.6 434.6 0 0 1-26.72-55.79l-10.12-25.69-18.01-59.83-7.55-37.12-4.65-34.84-4.65-42.41v-42.42l4.65-80.29 6.1-35.6 6.1-35.6 11.91-40.52 1.17-3.97a523 523 0 0 1 26.66-71.15l.63-1.38 16.56-35.98 18.01-31.43 3.12-5.45c9.91-17.3 21.1-33.83 33.48-49.46l18.59-23.48 51.81-65.36a315 315 0 0 0 34.8-54.67l4.27-8.53c4.86-9.72 8.91-19.81 12.12-30.18a198.7 198.7 0 0 0 8.41-71.88l-1.31-19.56c-.97-14.47-2.98-28.86-6-43.05M1255.96 1591.91 1291.1 1488l-34.74 17.17a300.7 300.7 0 0 0-82.31 59.88 301.5 301.5 0 0 0-44.9 59.3l-30.04 51.98-25.36 63a522.7 522.7 0 0 0-35.65 147.65l-5.22 57.05v80.1l12.2 111.12-65.058-111.12-33.693-68.55-48.216-145.04-14.523 62.78-13.361 70.71-5.229 80.1v155.14l5.229 66.38 6.424 38.86a523 523 0 0 0 20.565 82.24l.895 2.65 1.19 3.19a522.7 522.7 0 0 0 38.205 80.55l8.821 15.12 33.693 55.92 24.648 32.29a367.8 367.8 0 0 0 64.75 65.77 367.4 367.4 0 0 0 50.53 33.48l8.79 4.83 13.4 7.37a97.87 97.87 0 0 0 65.28 10.43l9.44-1.78a200.8 200.8 0 0 0 72.44-29.07l15.7-10.22a286.4 286.4 0 0 0 42.72-34.03 286 286 0 0 0 46.82-59.01l8.55-14.31a410 410 0 0 0 27.08-53.9l9.94-24.01 18-57 7.56-35.36 4.64-33.19 4.65-40.41v-40.41l-4.65-76.49-6.1-33.91-6.1-33.91-11.9-38.61-.69-2.23a504.6 504.6 0 0 0-27.78-70.65l-16.56-34.27-18-29.95-3.02-5.02a383 383 0 0 0-33.58-47.29l-18.59-22.37-36.89-59.89-32.01-43.31a126.4 126.4 0 0 1-22.3-50.41 126.33 126.33 0 0 1 5.48-68.61z"/><path fill="#ff9700" d="m761.72 605.408 9.258-10.868-5.028.401a39.15 39.15 0 0 0-21.125 8.278l-6.138 4.836-6.103 6.395a68 68 0 0 0-11.428 16.133l-3.38 6.646-3.861 9.684-3.881 14.023-2.51-16.571-.769-9.912 1.161-19.86-4.782 6.89-5.024 7.906-4.493 9.431-4.104 10.295-3.374 8.462-2.568 8.278-1.096 5.008a68 68 0 0 0-1.478 10.935l-.02.363-.071 3.252c-.044 2.005.084 4.01.381 5.993a35.2 35.2 0 0 1 .054 10.071l-.566 4.077a25.7 25.7 0 0 0 .703 10.457l.282 1.008a21.2 21.2 0 0 0 4.627 8.441l.975 1.09a15 15 0 0 0 5.612 3.922l5.197 2.072 1.879.749a26.14 26.14 0 0 0 14.818 1.349l2.391-.479a37.308 37.308 0 0 0 15.311-6.933l1.724-1.318a53.5 53.5 0 0 0 5.872-5.212l2.358-2.423 4.925-6.024 2.618-3.911 2.162-3.789 2.509-4.662 1.948-4.885 3.125-9.472.897-4.394.898-4.395.421-5.241.024-.303c.264-3.288.28-6.591.047-9.881l-.349-4.942-.734-4.488-.123-.753a50 50 0 0 0-1.78-7.336l-1.17-3.601-1.573-9.019-1.782-6.78a16.43 16.43 0 0 1 3.704-15.2zM1665.49 360.408l-9.26-10.868 5.03.401c4.43.353 8.77 1.46 12.84 3.272a39.2 39.2 0 0 1 8.28 5.006l6.14 4.836 6.1 6.395a67.8 67.8 0 0 1 11.43 16.133l3.38 6.646 3.86 9.684 3.88 14.023 2.51-16.571.77-9.912-1.16-19.86 4.78 6.89 5.03 7.906 4.49 9.431 4.1 10.295 3.38 8.462 2.57 8.278 1.09 5.008a68 68 0 0 1 1.48 10.935l.02.363.07 3.252c.05 2.005-.08 4.01-.38 5.993-.5 3.337-.52 6.729-.05 10.071l.56 4.077a25.6 25.6 0 0 1-.7 10.457l-.28 1.008a21.26 21.26 0 0 1-4.63 8.441l-.97 1.09a15.06 15.06 0 0 1-5.62 3.922l-5.19 2.072-1.88.749a26.14 26.14 0 0 1-14.82 1.349l-2.39-.479a37.4 37.4 0 0 1-6.81-2.055 37.5 37.5 0 0 1-8.5-4.878l-1.73-1.318a54 54 0 0 1-5.87-5.212l-2.36-2.423-4.92-6.024-2.62-3.911-2.16-3.789-2.51-4.662-1.95-4.885-3.12-9.472-.9-4.394-.9-4.395-.42-5.241-.02-.303a65 65 0 0 1-.05-9.881l.35-4.942.73-4.488.13-.753c.4-2.487 1-4.939 1.78-7.336l1.17-3.601 1.57-9.019 1.78-6.78c.62-2.341.71-4.789.27-7.169a16.5 16.5 0 0 0-3.97-8.031zM2402.72 779.408l9.26-10.868-5.03.401a39.16 39.16 0 0 0-21.13 8.278l-6.13 4.836-6.11 6.395a68 68 0 0 0-11.42 16.133l-3.38 6.646-3.87 9.684-3.88 14.023-2.51-16.571-.77-9.912 1.17-19.86-4.79 6.89-5.02 7.906-4.49 9.431-4.11 10.295-3.37 8.462-2.57 8.278-1.1 5.008a68 68 0 0 0-1.47 10.935l-.02.363-.07 3.252c-.05 2.005.08 4.01.38 5.993.5 3.337.52 6.729.05 10.071l-.57 4.077c-.48 3.497-.24 7.056.71 10.457l.28 1.008c.87 3.131 2.46 6.02 4.63 8.441l.97 1.09a15 15 0 0 0 5.61 3.922l5.2 2.072 1.88.749a26.14 26.14 0 0 0 14.82 1.349l2.39-.479a37.334 37.334 0 0 0 15.31-6.933l1.72-1.318a53 53 0 0 0 5.88-5.212l2.35-2.423 4.93-6.024 2.62-3.911 2.16-3.789 2.51-4.662 1.95-4.885 3.12-9.472.9-4.394.9-4.395.42-5.241.02-.303c.26-3.288.28-6.591.05-9.881l-.35-4.942-.74-4.488-.12-.753c-.41-2.487-1-4.939-1.78-7.336l-1.17-3.601-1.57-9.019-1.78-6.78a16.414 16.414 0 0 1 3.7-15.2z"/><path fill="#fff28c" d="M1639.36 1591.91 1674.5 1488l-34.74 17.17a300.9 300.9 0 0 0-82.31 59.88 301.5 301.5 0 0 0-44.9 59.3l-30.04 51.98-25.36 63a522.7 522.7 0 0 0-35.65 147.65l-5.21 57.05v80.1l12.2 111.12-65.07-111.12-33.69-68.55-48.21-145.04-14.53 62.78-13.36 70.71-5.23 80.1v155.14l5.23 66.38 6.42 38.86c4.62 27.92 11.5 55.43 20.57 82.24l.9 2.65 8.74 23.41a271 271 0 0 0 19.77 41.69 270.3 270.3 0 0 1 29.04 71.71l7.56 30.71a197.5 197.5 0 0 0 34.77 72.62l4.88 6.4a163.06 163.06 0 0 0 57.04 47.08l10.06 5c15.91 7.9 33.44 12.02 51.21 12.02h58.52c12.47 0 24.9-1.16 37.15-3.47a200.8 200.8 0 0 0 72.44-29.07l15.7-10.22a286.4 286.4 0 0 0 42.72-34.03 286 286 0 0 0 46.82-59.01l8.56-14.31a413 413 0 0 0 27.08-53.9l9.93-24.01 18.01-57 7.55-35.36 4.65-33.19 4.64-40.41v-40.41l-4.64-76.49-6.1-33.91-6.1-33.91-11.91-38.61-.69-2.23a504.6 504.6 0 0 0-27.78-70.65l-16.55-34.27-18.01-29.95-3.02-5.02c-9.98-16.59-21.2-32.4-33.58-47.29l-18.59-22.37-36.89-59.89-32.01-43.31a126.35 126.35 0 0 1-22.29-50.41 126.14 126.14 0 0 1 5.48-68.61zM1171.19 1360.73l-6.4-17.94 7.83 4.99 2.97 2.24 2.04 1.82c1.05.94 2 1.99 2.83 3.13l2.03 2.79.81 1.13c2.05 2.86 3.31 6.21 3.65 9.71l.26 2.72c.13 1.38.12 2.77-.04 4.14l-.83 7.4a4.183 4.183 0 0 1-3.71 3.69l-10.5 1.11-2.45-.07c-3.18-.1-6.28-.96-9.06-2.51l-.36-.2a19.92 19.92 0 0 1-9.76-13.07l-4.33-19.41 4.82 5.48c.99 1.12 2.1 2.13 3.32 3l4.54 3.28c1.66 1.19 3.5 2.12 5.44 2.76l.66.22c3.93 1.28 7.63-2.51 6.24-6.41M1692.8 977.591l-8.23-15.086-1.35 8.269-.27 3.343v2.471c0 1.274.13 2.543.4 3.788l.66 3.039.27 1.224a17.9 17.9 0 0 0 4.35 8.29l1.67 1.81c.85.918 1.79 1.745 2.81 2.468l5.49 3.883c.64.45 1.4.69 2.18.69.93 0 1.83-.35 2.53-.97l7.05-6.398 1.43-1.697a17.9 17.9 0 0 0 3.75-7.602l.09-.364a18 18 0 0 0-2.94-14.422l-10.46-14.58.79 6.541c.16 1.339.17 2.692.03 4.033l-.53 5.025a17.9 17.9 0 0 1-1.41 5.324l-.24.569c-1.5 3.422-6.28 3.631-8.07.352M859.048 397.605l-8.235-15.086-1.348 8.269-.27 3.343v2.471c0 1.273.135 2.543.403 3.788l.655 3.039.274 1.224a17.97 17.97 0 0 0 4.346 8.29l1.673 1.809a18 18 0 0 0 2.813 2.469l5.485 3.882a3.77 3.77 0 0 0 4.709-.283l7.055-6.394 1.422-1.698a17.95 17.95 0 0 0 3.759-7.602l.082-.363a17.98 17.98 0 0 0-2.933-14.423l-10.462-14.58.789 6.542c.161 1.339.171 2.691.03 4.032l-.528 5.026a18 18 0 0 1-1.408 5.323l-.249.57c-1.497 3.422-6.272 3.63-8.062.352M1301.05 218.605l-8.24-15.086-1.34 8.269-.27 3.343v2.471c0 1.273.13 2.543.4 3.788l.65 3.039.28 1.224a18 18 0 0 0 4.34 8.29l1.68 1.809c.85.919 1.79 1.746 2.81 2.469l5.48 3.882c.64.451 1.4.693 2.18.693.94 0 1.84-.348 2.53-.976l7.06-6.394 1.42-1.698a18 18 0 0 0 3.76-7.602l.08-.363a17.96 17.96 0 0 0-2.93-14.423l-10.46-14.58.79 6.542c.16 1.339.17 2.691.03 4.032l-.53 5.026c-.2 1.836-.67 3.632-1.41 5.323l-.25.57c-1.5 3.422-6.27 3.63-8.06.352M1970.05 355.605l-8.24-15.086-1.35 8.269-.27 3.343v2.471c0 1.273.14 2.543.41 3.788l.65 3.039.28 1.224a18 18 0 0 0 4.34 8.29l1.68 1.809c.85.919 1.79 1.746 2.81 2.469l5.48 3.882c.64.451 1.4.693 2.18.693.94 0 1.84-.348 2.53-.976l7.06-6.394 1.42-1.698a18 18 0 0 0 3.76-7.602l.08-.363a17.96 17.96 0 0 0-2.93-14.423l-10.46-14.58.78 6.542c.17 1.339.18 2.691.04 4.032l-.53 5.026c-.2 1.836-.67 3.632-1.41 5.323l-.25.57c-1.5 3.422-6.27 3.63-8.06.352M2116.41 1537.59l9.13-16.72 1.49 9.17.3 3.7v2.74c0 1.41-.15 2.82-.45 4.2l-.72 3.37-.3 1.35c-.77 3.44-2.43 6.61-4.82 9.19l-1.86 2.01c-.94 1.01-1.98 1.93-3.11 2.73l-6.08 4.3c-.71.5-1.55.77-2.42.77a4.16 4.16 0 0 1-2.8-1.08l-7.82-7.09-1.58-1.88a19.9 19.9 0 0 1-4.16-8.42l-.09-.4a19.9 19.9 0 0 1 3.25-15.99l11.59-16.16-.87 7.25c-.18 1.49-.19 2.99-.04 4.47l.59 5.57c.21 2.04.74 4.03 1.56 5.9l.28.63c1.66 3.79 6.95 4.03 8.93.39M986.411 1365.59l9.127-16.72 1.494 9.17.299 3.7v2.74c0 1.41-.15 2.82-.447 4.2l-.726 3.37-.303 1.35a19.9 19.9 0 0 1-4.816 9.19l-1.855 2.01a20.2 20.2 0 0 1-3.117 2.73l-6.079 4.3a4.174 4.174 0 0 1-5.218-.31l-7.819-7.09-1.576-1.88a19.9 19.9 0 0 1-4.166-8.42l-.091-.4a19.93 19.93 0 0 1 3.251-15.99l11.594-16.16-.874 7.25a20 20 0 0 0-.034 4.47l.586 5.57c.214 2.04.74 4.03 1.56 5.9l.276.63c1.658 3.79 6.951 4.03 8.934.39M1764.41 1214.59l9.13-16.72 1.49 9.17.3 3.7v2.74c0 1.41-.15 2.82-.45 4.2l-.72 3.37-.3 1.35c-.77 3.44-2.43 6.61-4.82 9.19l-1.86 2.01c-.94 1.01-1.98 1.93-3.11 2.73l-6.08 4.3c-.71.5-1.55.77-2.42.77a4.16 4.16 0 0 1-2.8-1.08l-7.82-7.09-1.58-1.88a19.9 19.9 0 0 1-4.16-8.42l-.09-.4a19.9 19.9 0 0 1 3.25-15.99l11.59-16.16-.87 7.25c-.18 1.49-.19 2.99-.04 4.47l.59 5.57c.21 2.04.74 4.03 1.56 5.9l.28.63c1.66 3.79 6.95 4.03 8.93.39M1336.33 968.593l-9.13-16.719-1.49 9.164-.3 3.705v2.738c0 1.411.15 2.818.44 4.198l.73 3.368.3 1.357a19.95 19.95 0 0 0 4.82 9.186l1.85 2.006a20.4 20.4 0 0 0 3.12 2.736l6.08 4.302a4.184 4.184 0 0 0 5.22-.314l7.82-7.086 1.57-1.881a20 20 0 0 0 4.17-8.425l.09-.403a19.93 19.93 0 0 0-3.25-15.983l-11.6-16.158.88 7.249c.18 1.484.19 2.983.03 4.469l-.58 5.57a20.1 20.1 0 0 1-1.56 5.9l-.28.63c-1.66 3.793-6.95 4.024-8.93.391M625.327 917.593l-9.127-16.719-1.494 9.164-.299 3.705v2.738c0 1.411.15 2.818.447 4.198l.726 3.368.303 1.357a19.9 19.9 0 0 0 4.816 9.186l1.855 2.006a20 20 0 0 0 3.117 2.736l6.079 4.302a4.175 4.175 0 0 0 5.219-.314l7.819-7.086 1.576-1.881a19.9 19.9 0 0 0 4.166-8.425l.09-.403a19.92 19.92 0 0 0-3.251-15.983l-11.594-16.158.874 7.249c.179 1.484.191 2.983.034 4.469l-.585 5.57a20 20 0 0 1-1.561 5.9l-.275.63c-1.659 3.793-6.952 4.024-8.935.391M393.327 1258.59l-9.127-16.72-1.494 9.17-.299 3.7v2.74c0 1.41.15 2.82.447 4.2l.726 3.37.303 1.35a19.9 19.9 0 0 0 4.816 9.19l1.855 2.01a20.3 20.3 0 0 0 3.117 2.73l6.079 4.3a4.18 4.18 0 0 0 5.219-.31l7.819-7.09 1.576-1.88a19.9 19.9 0 0 0 4.166-8.42l.09-.4a19.93 19.93 0 0 0-3.251-15.99l-11.594-16.16.874 7.25c.179 1.49.191 2.99.034 4.47l-.585 5.57a19.9 19.9 0 0 1-1.561 5.9l-.275.63c-1.659 3.79-6.952 4.03-8.935.39M501.327 1794.59l-9.127-16.72-1.494 9.17-.299 3.7v2.74c0 1.41.15 2.82.447 4.2l.726 3.37.303 1.35a19.9 19.9 0 0 0 4.816 9.19l1.855 2.01a20.3 20.3 0 0 0 3.117 2.73l6.079 4.3a4.18 4.18 0 0 0 5.219-.31l7.819-7.09 1.576-1.88a19.9 19.9 0 0 0 4.166-8.42l.09-.4a19.93 19.93 0 0 0-3.251-15.99l-11.594-16.16.874 7.25c.179 1.49.191 2.99.034 4.47l-.585 5.57a19.9 19.9 0 0 1-1.561 5.9l-.275.63c-1.659 3.79-6.952 4.03-8.935.39M1217.33 597.593l-9.13-16.719-1.49 9.164-.3 3.705v2.738c0 1.411.15 2.818.44 4.198l.73 3.368.3 1.357a19.95 19.95 0 0 0 4.82 9.186l1.85 2.006a20.4 20.4 0 0 0 3.12 2.736l6.08 4.302a4.184 4.184 0 0 0 5.22-.314l7.82-7.086 1.57-1.881a20 20 0 0 0 4.17-8.425l.09-.403a19.93 19.93 0 0 0-3.25-15.983l-11.6-16.158.88 7.249c.18 1.484.19 2.983.03 4.469l-.58 5.57a20.1 20.1 0 0 1-1.56 5.9l-.28.63c-1.66 3.793-6.95 4.024-8.93.391M1983.33 623.593l-9.13-16.719-1.49 9.164-.3 3.705v2.738c0 1.411.15 2.818.44 4.198l.73 3.368.3 1.357a19.95 19.95 0 0 0 4.82 9.186l1.85 2.006a20.4 20.4 0 0 0 3.12 2.736l6.08 4.302a4.184 4.184 0 0 0 5.22-.314l7.82-7.086 1.57-1.881a20 20 0 0 0 4.17-8.425l.09-.403a19.93 19.93 0 0 0-3.25-15.983l-11.6-16.158.88 7.249c.18 1.484.19 2.983.03 4.469l-.58 5.57a20.1 20.1 0 0 1-1.56 5.9l-.28.63c-1.66 3.793-6.95 4.024-8.93.391M2390.33 1066.59l-9.13-16.72-1.49 9.17-.3 3.7v2.74c0 1.41.15 2.82.44 4.2l.73 3.37.3 1.35c.77 3.44 2.43 6.61 4.82 9.19l1.85 2.01c.95 1.01 1.99 1.93 3.12 2.73l6.08 4.3c.71.5 1.55.77 2.41.77 1.04 0 2.04-.38 2.81-1.08l7.82-7.09 1.57-1.88c2.04-2.43 3.47-5.32 4.17-8.42l.09-.4c1.25-5.55.06-11.37-3.25-15.99l-11.6-16.16.88 7.25c.18 1.49.19 2.99.03 4.47l-.58 5.57c-.22 2.04-.74 4.03-1.56 5.9l-.28.63c-1.66 3.79-6.95 4.03-8.93.39M2421.33 1688.59l-9.13-16.72-1.49 9.17-.3 3.7v2.74c0 1.41.15 2.82.44 4.2l.73 3.37.3 1.35c.77 3.44 2.43 6.61 4.82 9.19l1.85 2.01c.95 1.01 1.99 1.93 3.12 2.73l6.08 4.3c.71.5 1.55.77 2.41.77 1.04 0 2.04-.38 2.81-1.08l7.82-7.09 1.57-1.88c2.04-2.43 3.47-5.32 4.17-8.42l.09-.4c1.25-5.55.06-11.37-3.25-15.99l-11.6-16.16.88 7.25c.18 1.49.19 2.99.03 4.47l-.58 5.57c-.22 2.04-.74 4.03-1.56 5.9l-.28.63c-1.66 3.79-6.95 4.03-8.93.39M2400.33 2238.59l-9.13-16.72-1.49 9.17-.3 3.7v2.74c0 1.41.15 2.82.44 4.2l.73 3.37.3 1.35c.77 3.44 2.43 6.61 4.82 9.19l1.85 2.01c.95 1.01 1.99 1.93 3.12 2.73l6.08 4.3c.71.5 1.55.77 2.41.77 1.04 0 2.04-.38 2.81-1.08l7.82-7.09 1.57-1.88c2.04-2.43 3.47-5.32 4.17-8.42l.09-.4c1.25-5.55.06-11.37-3.25-15.99l-11.6-16.16.88 7.25c.18 1.49.19 2.99.03 4.47l-.58 5.57c-.22 2.04-.74 4.03-1.56 5.9l-.28.63c-1.66 3.79-6.95 4.03-8.93.39M2691.33 993.593l-9.13-16.719-1.49 9.164-.3 3.705v2.738c0 1.411.15 2.818.44 4.198l.73 3.371.3 1.35c.77 3.44 2.43 6.61 4.82 9.19l1.85 2.01c.95 1.01 1.99 1.93 3.12 2.73l6.08 4.3c.71.5 1.55.77 2.41.77 1.04 0 2.04-.38 2.81-1.08l7.82-7.09 1.57-1.88c2.04-2.43 3.47-5.32 4.17-8.42l.09-.4a19.94 19.94 0 0 0-3.25-15.988l-11.6-16.158.88 7.249c.18 1.484.19 2.983.03 4.469l-.58 5.57a20.1 20.1 0 0 1-1.56 5.9l-.28.63c-1.66 3.793-6.95 4.024-8.93.391M906.328 1688.59l-9.127-16.72-1.495 9.17-.299 3.7v2.74c0 1.41.15 2.82.448 4.2l.726 3.37.302 1.35a19.9 19.9 0 0 0 4.817 9.19l1.855 2.01a20.2 20.2 0 0 0 3.117 2.73l6.078 4.3a4.18 4.18 0 0 0 5.219-.31l7.819-7.09 1.576-1.88a19.9 19.9 0 0 0 4.166-8.42l.091-.4a19.93 19.93 0 0 0-3.251-15.99l-11.595-16.16.875 7.25c.179 1.49.19 2.99.034 4.47l-.586 5.57c-.214 2.04-.74 4.03-1.56 5.9l-.276.63c-1.659 3.79-6.951 4.03-8.934.39M2056.41 1197.59l9.13-16.72 1.49 9.17.3 3.7v2.74c0 1.41-.15 2.82-.45 4.2l-.72 3.37-.3 1.35c-.77 3.44-2.43 6.61-4.82 9.19l-1.86 2.01c-.94 1.01-1.98 1.93-3.11 2.73l-6.08 4.3c-.71.5-1.55.77-2.42.77a4.16 4.16 0 0 1-2.8-1.08l-7.82-7.09-1.58-1.88a19.9 19.9 0 0 1-4.16-8.42l-.09-.4a19.9 19.9 0 0 1 3.25-15.99l11.59-16.16-.87 7.25c-.18 1.49-.19 2.99-.04 4.47l.59 5.57c.21 2.04.74 4.03 1.56 5.9l.28.63c1.66 3.79 6.95 4.03 8.93.39"/><path fill="#b4d0d1" d="m1117.73 2418.65-110.84-241.15-11.059 126.96-5.833 39.99a496 496 0 0 0 4.395 105.01l1.133 7.6a272.55 272.55 0 0 0 57.694 129.69l3.96 4.88a296 296 0 0 0 43.59 43.52l24.75 20.03a263.3 263.3 0 0 0 96.3 49.32l122.72 26.96c15.26 3.35 30.84 5.04 46.47 5.04H1540l-119.29-121.08c-38.35-38.94-52.6-95.6-37.21-148.05 11.8-40.19 6.31-83.48-15.13-119.46L1221.81 2102l11.57 81c5.59 39.22 5.05 79.06-1.61 118.1-6.6 38.62-19.1 76-37.08 110.81l-4.34 8.4c-15.45 29.92-58.56 28.93-72.62-1.66M1945.32 2386.62 2046.03 2145l11.05 159.47 5.84 39.98 1.91 29.71c.99 15.31.34 30.68-1.92 45.86l-5.52 37.04-2.34 14.93a216.6 216.6 0 0 1-45.83 103.04l-18.72 23.05c-9.5 11.7-20.19 22.38-31.9 31.86l-30.94 25.03a216.66 216.66 0 0 1-97.97 44.81l-177.21 31.81a216.3 216.3 0 0 1-38.27 3.41H1597l9.5-13 52.34-76.34a163.9 163.9 0 0 0 22.4-47.59 164 164 0 0 0-.29-91.37l-4.98-16.97a216.61 216.61 0 0 1 17.16-163.72L1831.1 2070l-16.42 141.34a216.3 216.3 0 0 0 1.64 61.45l9.13 53.51a217 217 0 0 0 21.05 62.91l.73 1.42c21.12 40.89 80.38 38.47 98.09-4.01"/><path fill="#b4d0d1" d="m1606.16 2426.87 96.14-215.63 24.63 117.1 6.46 47.1.21 3.19a593 593 0 0 1-3.89 116.17l-1.32 9.97a294.4 294.4 0 0 1-64.23 146.37l-20.4 24.79-12.26 19.57-13 24-7.39 10.97c-.38.56-.45 1.28-.19 1.9.53 1.29-.37 2.72-1.76 2.8l-35.16 2.13h-28a77.53 77.53 0 0 1-52.18-20.2l-70.09-63.81a322.3 322.3 0 0 1-36.94-39.82l-5.04-6.45a288 288 0 0 1-51.54-103.71 288.08 288.08 0 0 1 34.05-226.15l124.2-199.16-10.32 66.31a483.5 483.5 0 0 0 .24 150.26 483.5 483.5 0 0 0 36.34 121.9l4.71 10.5c16.81 37.46 70.01 37.4 86.73-.1"/></svg>
