<svg width="2823" height="2807" viewBox="0 0 2823 2807" fill="none" xmlns="http://www.w3.org/2000/svg">
<path d="M1789.15 1658.01L1825.27 1613.42L1762.16 1626.52L1747.59 1629.55C1715.46 1636.22 1684.67 1648.21 1656.49 1665.03L1635.21 1677.73L1591.79 1708.58L1547.99 1745.46C1519.02 1769.86 1494.52 1799.12 1475.6 1831.94L1472.19 1837.85L1440.18 1893.36L1423.56 1931.61C1413.81 1954.04 1406.07 1977.3 1400.44 2001.11L1390.07 2044.95L1384.17 2000C1379.78 1966.56 1381.35 1932.61 1388.81 1899.72C1392.75 1882.35 1398.3 1865.39 1405.4 1849.06L1453.72 1737.89L1418.59 1758.27L1383.47 1778.65L1344.55 1806.02L1309.51 1836.57L1280.62 1866.79L1251.72 1897.02L1225.89 1929.69L1218.85 1938.6C1206.34 1954.42 1195.16 1971.24 1185.41 1988.9C1174.04 2009.5 1164.67 2031.15 1157.43 2053.54L1148.75 2080.42L1140.65 2118.92C1135.26 2144.53 1132.38 2170.61 1132.06 2196.78L1132 2201.85L1132.19 2209.34C1132.83 2235.89 1136.04 2262.32 1141.77 2288.25L1146.81 2311.1L1162.16 2375.94L1175.78 2413.4C1187.4 2445.35 1202.91 2475.74 1221.98 2503.89L1223.56 2506.22C1235.05 2523.18 1247.79 2539.27 1261.66 2554.35L1271.92 2565.48L1282.74 2577.23C1296.11 2591.76 1312.37 2603.33 1330.48 2611.2C1336.99 2614.03 1343.71 2616.36 1350.57 2618.19L1360.9 2620.93C1391.34 2629.01 1422.91 2631.97 1454.31 2629.68L1475.1 2628.16C1493.65 2626.81 1512.05 2623.8 1530.07 2619.18C1557.5 2612.14 1583.84 2601.42 1608.39 2587.3L1618.22 2581.64C1637.01 2570.83 1654.88 2558.49 1671.65 2544.76L1689.56 2530.09L1730.81 2488.73L1752.46 2461.36L1770.13 2434.52L1775.15 2426.36C1785.4 2409.72 1794.45 2392.37 1802.24 2374.45L1805.9 2366.01L1820.12 2325.13C1826.65 2306.34 1831.82 2287.1 1835.58 2267.56L1836.2 2264.35L1836.75 2261.48C1840.56 2241.72 1842.91 2221.71 1843.8 2201.6L1844.2 2192.4L1844.35 2189.1C1845.41 2165.08 1844.37 2141.02 1841.24 2117.19L1840.98 2115.2L1836.02 2077.4L1827.84 2042.7L1826.69 2037.84C1822.01 2017.98 1815.74 1998.51 1807.96 1979.65L1796.26 1951.3L1762.49 1869.56C1754.79 1850.93 1749.2 1831.49 1745.83 1811.62L1743.83 1799.83C1742.23 1790.38 1741.56 1780.8 1741.81 1771.22C1742.44 1748.02 1748.53 1725.28 1759.61 1704.88L1767.27 1690.75C1773.55 1679.19 1780.87 1668.23 1789.15 1658.01Z" fill="#FE6323"/>
<path d="M1780.62 363.089L1763.19 246L1807.2 303.969C1836.97 343.186 1861.05 386.411 1878.73 432.365L1900.88 489.936L1941.26 640.657C1950.33 674.526 1955.98 709.222 1958.11 744.221L1967.1 892.158V1012.5L1954.9 1179.46L2019.97 1012.5L2033.36 971.586C2046.84 930.359 2055.15 887.614 2058.08 844.335L2069 683.077L2082.55 712.474C2104.99 761.143 2119.81 812.972 2126.5 866.146L2129.77 892.158L2135 1012.5V1140.43V1245.59L2129.77 1345.34L2116.41 1466.76L2101.89 1531.27L2085.04 1599.03L2053.67 1679.8L2019.97 1763.82L1991.02 1820.82C1975.13 1852.1 1955.67 1881.44 1933.04 1908.25C1915.5 1929.01 1896.15 1948.16 1875.2 1965.47L1871.25 1968.73L1854.88 1982.25C1842.55 1992.43 1827.06 1998 1811.07 1998C1804.74 1998 1798.44 1997.13 1792.35 1995.4L1781.26 1992.27C1756.82 1985.36 1734.51 1972.43 1716.35 1954.67L1691.83 1930.68C1678.63 1917.77 1666.71 1903.61 1656.23 1888.4L1650.24 1879.71C1633.41 1855.29 1619.39 1829.06 1608.43 1801.51L1581.35 1733.47L1559.86 1655.41L1541.85 1569.76L1534.3 1516.63L1529.65 1466.76L1525 1406.05V1345.34L1529.65 1230.42L1535.75 1179.46L1541.85 1128.51L1553.76 1070.5L1565.67 1012.5L1582.22 961.002L1598.78 909.505L1616.79 864.512L1634.8 819.52L1653.39 785.911L1671.98 752.302L1722.5 661.057C1736.82 635.201 1748.92 608.177 1758.67 580.277L1770.16 547.396L1771.45 541.431C1781.01 497.169 1784.78 451.854 1782.66 406.622L1780.62 363.089Z" fill="#EF4905"/>
<path d="M1204.98 299.218L1240.13 137L1218.5 153.685C1179.21 183.999 1145.64 221.086 1119.38 263.199C1104.45 287.15 1091.99 312.555 1082.19 339.024L1048.12 431.02L1006.79 591.319C998.347 624.063 993.1 657.55 991.124 691.307L981.895 848.956V973.999L994.095 1147.48L929.029 973.999L895.333 866.981L847.114 640.551L832.59 738.558L819.229 848.956L814 973.999V1106.93V1216.2L819.229 1319.84L832.59 1446.01L847.114 1513.04L863.962 1583.44L895.333 1667.37L929.029 1754.67L958.328 1814.61C973.988 1846.64 993.249 1876.79 1015.74 1904.46C1033.42 1926.22 1053.02 1946.35 1074.29 1964.61L1077.75 1967.58L1094.46 1981.92C1106.55 1992.3 1121.95 1998 1137.88 1998C1144.24 1998 1150.57 1997.09 1156.67 1995.3L1167.98 1991.97C1192.25 1984.84 1214.29 1971.64 1232.03 1953.61L1257.54 1927.68C1270.5 1914.51 1282.16 1900.13 1292.37 1884.73L1298.93 1874.83C1315.64 1849.62 1329.53 1822.66 1340.35 1794.42L1367.65 1723.13L1389.14 1642.02L1407.15 1553.03L1414.7 1497.83L1419.35 1446.01L1424 1382.92V1319.84L1419.35 1200.43L1413.25 1147.48L1407.15 1094.54L1395.24 1034.27L1383.33 973.999L1366.78 920.49L1350.22 866.981L1332.21 820.23L1314.2 773.48L1295.61 738.558L1277.02 703.636L1240.13 610.136L1211.03 548.677C1197.98 521.105 1189.36 491.644 1185.51 461.383C1181.1 426.781 1182.98 391.667 1191.05 357.733L1204.98 299.218Z" fill="#EF4905"/>
<path d="M1416.02 174.16L1380.87 0L1400.25 16.0501C1441.04 49.833 1475.53 90.5651 1502.13 136.364C1516.72 161.502 1528.85 187.998 1538.33 215.48L1572.88 315.665L1615.81 494.427C1623.19 525.16 1627.77 556.499 1629.49 588.058L1639.1 764.368V898.616L1626.9 1084.87L1691.97 898.616L1725.67 783.719L1773.89 540.621L1788.41 645.843L1801.77 764.368L1807 898.616V1041.33V1158.65L1801.77 1269.92L1788.41 1405.37L1773.89 1477.33L1757.04 1552.92L1741.98 1596.16C1731.13 1627.34 1723.25 1659.47 1718.46 1692.13L1706.04 1776.73C1701.33 1808.78 1692.13 1840.01 1678.7 1869.5L1660.32 1909.87C1650.95 1930.46 1637.05 1948.68 1619.66 1963.15L1598.57 1980.71C1585.16 1991.88 1568.26 1998 1550.8 1998H1507.81H1495.55C1480.96 1998 1466.45 1995.77 1452.54 1991.38C1428.61 1983.83 1407.1 1970.12 1390.15 1951.62L1362.77 1921.75C1350.27 1908.11 1339.09 1893.32 1329.37 1877.58L1321.76 1865.27C1305.25 1838.53 1291.6 1810.13 1281.04 1780.52L1253.35 1702.9L1231.86 1615.82L1213.85 1520.27L1206.3 1461.01L1201.65 1405.37L1197 1337.64V1269.92L1201.65 1141.71L1207.75 1084.87L1213.85 1028.03L1225.76 963.321L1237.67 898.616L1254.22 841.168L1270.78 783.719L1288.79 733.527L1306.8 683.335L1325.39 645.843L1343.98 608.35L1380.87 507.966L1409.64 442.731C1422.92 412.613 1431.64 380.685 1435.52 347.998C1439.92 310.984 1438.04 273.495 1429.97 237.105L1416.02 174.16Z" fill="#FF9700"/>
<path d="M645.005 789.652L617.974 758.789L657.039 764.905C684.924 769.271 711.685 779.046 735.818 793.681C754.952 805.285 772.172 819.784 786.863 836.663L808.667 861.713L830.654 886.973L875.476 945.582L920.627 1012.96L939.644 1041.34C957.002 1067.25 971.155 1095.16 981.793 1124.47L998.513 1170.54L1031.25 1260.74L1063.08 1374.29L1081.92 1494.7L1090.7 1410.7C1094.09 1378.29 1093.36 1345.59 1088.52 1313.36L1078.63 1247.46L1018.61 1033.31L1054.9 1074.16L1091.2 1115.02L1131.37 1167.14L1167.48 1222.55L1197.22 1275.45L1226.95 1328.35L1253.49 1383.76L1280.02 1439.17L1312.47 1532.14L1332.23 1625.43L1340.29 1683.33L1348.36 1741.23L1348.52 1805.11L1346.88 1872.71L1343.4 1977.94L1354.21 2210.82L1353.6 2224.78C1352.32 2254.11 1332.34 2279.3 1304.07 2287.22L1238.25 2305.67L1184.95 2320.61L1129.66 2336.11L1080.96 2349.76L1032.92 2363.23L983.557 2377.06C937.401 2390 888.008 2373.68 858.64 2335.8L792.371 2250.31C767.674 2218.45 750.186 2181.61 741.115 2142.33L708.748 2002.17C704.095 1982.02 697.83 1962.28 690.012 1943.13L683.65 1927.55L662.75 1873.25L647.115 1817.47L622.785 1710.41L616.574 1661.66L610.362 1612.91L608.917 1555.84L607.472 1498.77L612.967 1446.2L618.462 1393.63L627.277 1346.58L636.093 1299.52L648.498 1262.74L660.903 1225.96L697.108 1118.79C705.023 1095.36 710.666 1071.22 713.96 1046.71L716.358 1028.87C718.356 1014 719.261 998.999 719.065 983.996L719.049 982.74C718.634 950.992 713.165 919.514 702.848 889.487C690.232 852.769 670.585 818.859 645.005 789.652Z" fill="#EF4905"/>
<path d="M2379.76 629.798L2409.09 596.467L2366.55 603.032C2336.43 607.682 2307.5 618.167 2281.39 633.897C2260.61 646.418 2241.91 662.09 2225.94 680.354L2202.42 707.251L2178.61 734.481L2130.09 797.67L2081.23 870.324L2058.7 903.818C2041.21 929.828 2026.95 957.874 2016.24 987.335L1997 1040.28L1961.64 1137.58L1927.3 1260.09L1907.05 1390.03L1897.01 1295.7C1893.54 1263.14 1894.23 1230.27 1899.07 1197.88L1910.22 1123.17L1974.99 892.124L1935.68 936.163L1896.38 980.203L1852.9 1036.4L1813.81 1096.15L1781.65 1153.2L1749.48 1210.25L1720.79 1270.02L1692.1 1329.78L1657.06 1430.07L1635.77 1530.74L1627.12 1593.22L1618.46 1655.7L1618.39 1724.65L1620.27 1797.62L1624.22 1911.2L1612.87 2162.54L1613.54 2177.33C1614.99 2209.17 1636.69 2236.49 1667.38 2245.09L1738.79 2265.11L1796.64 2281.32L1856.63 2298.14L1909.47 2312.95L1961.6 2327.56L2015.16 2342.57C2065.27 2356.62 2118.89 2338.96 2150.85 2297.9L2222.1 2206.36C2248.98 2171.82 2268.01 2131.83 2277.84 2089.18L2313.14 1936.15C2317.81 1915.89 2324.12 1896.04 2332 1876.79L2339.73 1857.88L2362.31 1799.3L2379.18 1739.12L2405.4 1623.6L2412.06 1570.99L2418.72 1518.38L2420.19 1456.79L2421.67 1395.19L2415.62 1338.44L2409.58 1281.69L2399.94 1230.88L2390.31 1180.08L2376.79 1140.36L2363.28 1100.64L2322.9 982.166C2314.9 958.686 2309.18 934.489 2305.83 909.911L2302.81 887.788C2300.62 871.755 2299.61 855.582 2299.8 839.401L2299.82 838.025C2300.22 803.763 2306.1 769.785 2317.25 737.384C2330.87 697.786 2352.1 661.237 2379.76 629.798Z" fill="#EF4905"/>
<path d="M2538.66 1239.38L2508.5 1141.5L2553.99 1181.6C2579.8 1204.36 2601.51 1231.4 2618.16 1261.52L2621.1 1266.84C2638.33 1298.03 2649.87 1332.04 2655.18 1367.28L2659.66 1397L2663.4 1454.43C2665.42 1485.4 2662.62 1516.49 2655.11 1546.6L2647.16 1578.46L2620.67 1661.91L2585.54 1745L2539.99 1833.58L2485.8 1921.8L2411.24 2024.9L2322.1 2121.58L2411.46 2064.89C2432.97 2051.25 2452.65 2034.93 2470.03 2016.31L2529.07 1953.09L2669.69 1758.66L2659.66 1816.83L2649.62 1874.99L2632.67 1944L2610.2 2011.77L2585.54 2072.44L2560.88 2133.12L2531.94 2192.76L2502.99 2252.4L2446.27 2342.22L2380.69 2421.51L2337.15 2467.15L2293.62 2512.8L2239.68 2555.74L2181.37 2599.66L2089.98 2667.23L2071.75 2678.86C2023.55 2709.62 1967.56 2725.96 1910.38 2725.96L1900.26 2725.96L1801.71 2725.96L1718.46 2725.96L1697.34 2725.96C1661.66 2725.96 1626.89 2714.7 1597.99 2693.8L1554.12 2662.07L1509.04 2629.47C1466.88 2598.98 1447.35 2546.02 1459.62 2495.45L1489.74 2371.29C1498.23 2336.28 1514.26 2303.55 1536.71 2275.37L1646.22 2137.92C1656.3 2125.27 1665.34 2111.82 1673.25 2097.71L1686.64 2073.83L1718.46 2019.71L1755.09 1969.07L1829.22 1876.69L1866.27 1838.74L1903.32 1800.8L1950.63 1761.33L1997.94 1721.86L2046.13 1691.29L2094.33 1660.72L2140.1 1636.66L2185.87 1612.6L2225.38 1598.48L2264.88 1584.35L2390.57 1539.48C2408.74 1532.99 2426.24 1524.76 2442.83 1514.92L2481.12 1492.19C2487.07 1488.65 2492.75 1484.69 2498.12 1480.32C2531.01 1453.56 2550.1 1413.41 2550.1 1371.01L2550.1 1315.35C2550.1 1289.6 2546.25 1263.99 2538.66 1239.38Z" fill="#FE6323"/>
<path d="M364.735 589.345L57.2046 499.417L275.588 472.466C312.301 467.936 349.536 470.234 385.413 479.245L466.736 499.671L568.257 543.508C586.779 551.507 604.447 561.353 620.993 572.897L635.182 582.798C659.491 599.759 681.152 620.229 699.459 643.541L723.301 673.902L749.028 706.662L801.638 782.395L854.825 869.174L890.803 927.874C902.242 946.537 911.604 966.396 918.721 987.097L947.526 1070.87L987.04 1185.79L1026.05 1330.04L1050.37 1482.34L1060.54 1350.41C1062.3 1327.49 1061.43 1304.45 1057.94 1281.73L1040.93 1171.22L967.352 899.167L1009.8 952.187L1052.25 1005.21L1099.39 1072.57L1141.97 1143.89L1177.19 1211.77L1212.42 1279.64L1244.04 1350.52L1275.66 1421.41L1314.9 1539.8L1339.65 1658.03L1350.21 1731.22L1360.76 1804.4L1362.42 1884.75L1362.1 1969.71L1360.54 2101.9L1378.26 2395.29L1377.75 2418.75C1377.04 2451.83 1354.61 2480.49 1322.66 2489.13L1247.82 2509.38L1187.19 2525.77L1124.32 2542.77L1068.94 2557.75L1014.3 2572.53L958.169 2587.71C906.043 2601.81 850.667 2581.8 819.593 2537.64L726.755 2405.7C704.211 2373.66 688.161 2337.51 679.51 2299.3L631.34 2086.54C628.159 2072.49 623.97 2058.68 618.806 2045.24L604.833 2008.85L579.681 1939.61L560.517 1868.75L530.23 1733L522.004 1671.4L513.779 1609.81L510.814 1537.96L507.849 1466.12L512.924 1400.24L518 1334.37L527 1275.58L536 1216.8L549.341 1171.09L562.683 1125.39L606.807 974.499C611.875 957.167 615.368 939.413 617.243 921.453L624.492 852.03C622.77 794.898 595.556 741.538 550.32 706.597L463.921 639.863C434.3 616.984 400.659 599.85 364.735 589.345Z" fill="#FE6323"/>
<path fill-rule="evenodd" clip-rule="evenodd" d="M1679.46 748L1703.45 810.896C1714.82 840.702 1721.36 872.129 1722.82 903.995L1724.72 945.077C1725.89 970.613 1723.8 996.194 1718.49 1021.2L1708.85 1066.57L1687.65 1128.25C1682.2 1144.11 1675.43 1159.48 1667.41 1174.21L1598.48 1300.8L1577.58 1339.21L1556.68 1377.63L1536.43 1429.06L1516.19 1480.49L1497.57 1539.36L1478.96 1598.22L1465.57 1664.53L1452.18 1730.83L1445.33 1789.08L1438.47 1847.32L1433.24 1978.69V2048.09L1438.47 2117.49L1443.69 2174.49L1436.56 2367.39C1434.4 2425.88 1415.17 2482.47 1381.25 2530.17L1237 2733H1522.72H1554H1598.48H1647.46H1695.14H1743.47H1798.33H1827.73H1851.23H1900.31H1916.54H1947.24H1992.92H2039.22H2091.78H2142.46H2205.03C2230.66 2733 2252.18 2713.69 2254.95 2688.21L2271.33 2537.56C2273.83 2514.5 2279.99 2491.98 2289.56 2470.85L2311.4 2422.6L2345.19 2345.57L2363.33 2280.94L2378.98 2219.41L2386.17 2161.5L2393.37 2103.59L2399 2008.46L2393.37 1910.22L2383.67 1849.73L2373.97 1789.23L2360.83 1730.29L2347.69 1671.35L2329.55 1608.27L2307.02 1547.26L2285.12 1498.14L2263.22 1449.02V1671.35L2254.1 1751.06C2251.43 1774.36 2246.04 1797.27 2238.04 1819.31L2205.03 1910.22L2218.17 1789.23V1671.35L2211.6 1575.69L2207.34 1513.61C2205.81 1491.3 2201.78 1469.24 2195.35 1447.82L2181.88 1403L2158.73 1325.97L2133.7 1257.46L2120.56 1227.21L2106.78 1195.49C2098.5 1176.42 2087.4 1158.69 2073.86 1142.9C2055.75 1121.76 2033.58 1104.47 2008.68 1092.05L1977.9 1076.69L1995.43 1116.72C2009.91 1149.78 2018.3 1185.18 2020.2 1221.22L2020.62 1229.18C2021.8 1251.47 2020.49 1273.81 2016.72 1295.78L2000.14 1253.08L1977.28 1194.22V1412.3C1973.02 1420.81 1968.36 1429.12 1963.31 1437.19L1930.25 1490.07V1460.66L1923.4 1346.03L1918.3 1260.87C1917.13 1241.27 1914.03 1221.83 1909.06 1202.83L1892.37 1139.07L1868.21 1046.74L1842.09 964.638L1828.37 928.389L1812.88 887.453C1804.96 866.515 1794.14 846.789 1780.75 828.85C1761.11 802.543 1736.28 780.549 1707.79 764.23L1679.46 748Z" fill="#FE6323"/>
<path fill-rule="evenodd" clip-rule="evenodd" d="M2118.65 590.469L2084.95 661.231C2072.13 688.135 2063.4 716.797 2059.03 746.275L2050.69 802.624C2047.21 826.125 2046.53 849.957 2048.67 873.618L2053.67 928.825L2068.44 1000.1C2071.67 1015.7 2076.14 1031.01 2081.81 1045.89L2137.15 1191.35L2153.62 1234.7L2170.1 1278.05L2184.46 1335.27L2198.82 1392.5L2210.73 1457.53L2222.63 1522.56L2228.5 1595.01L2234.38 1667.46L2234.66 1730.6L2234.94 1793.74L2225.39 1935.07L2217.61 2009.44L2204.62 2083.28L2193.02 2143.83L2175.16 2398.43C2172.87 2431.08 2165.25 2463.14 2152.61 2493.33L2081.01 2664.28C2068.88 2693.24 2044.5 2714.26 2015.67 2722.71L2020.63 2730.9L1748.38 2702.39L1676.2 2694.83L1629.53 2689.94L1584.1 2685.18L1538.05 2680.36L1485.77 2674.89L1435.37 2669.61L1373.14 2663.09C1347.7 2660.42 1328.41 2638.93 1328.5 2613.35L1329.15 2444.45C1329.24 2420.96 1325.83 2397.59 1319.03 2375.1L1302.19 2319.35L1277.23 2233.27L1266.44 2162.11L1257.79 2094.54L1257.13 2031.73L1256.47 1968.92L1261.55 1866.38L1278.18 1761.68L1294.61 1697.86L1311.05 1634.04L1330.73 1572.24L1350.42 1510.43L1375.54 1444.72L1404.8 1381.68L1432.09 1331.32L1459.38 1280.96L1434.43 1519.23L1434.56 1610.61C1434.6 1632.55 1437.03 1654.41 1441.83 1675.82L1465.49 1781.3L1466 1650.26L1479.23 1523.93L1496.5 1422.1L1508.53 1351.19C1512.02 1330.63 1517.64 1310.49 1525.3 1291.1L1545.45 1240.12L1577.12 1159.96L1609.7 1089.15L1626.16 1058.1L1644.17 1024.15C1654.06 1005.49 1666.61 988.353 1681.41 973.281C1702.23 952.081 1727.14 935.338 1754.64 924.07L1784.94 911.649L1759.66 959.012C1743.76 988.806 1733 1021.07 1727.84 1054.45L1724.34 1077.08C1720.97 1098.88 1720.02 1120.97 1721.49 1142.95L1743.03 1098.37L1772.37 1037.67L1747.86 1271.7C1750.81 1280.26 1754.14 1288.7 1757.85 1296.98L1785.93 1359.63L1789.23 1328.12L1808.92 1205.98L1824.23 1110.99C1827.14 1092.93 1831.7 1075.17 1837.85 1057.94L1863 987.407L1897.4 890.975L1932.6 805.705L1950.31 768.285L1971 724.564C1980.77 703.911 1993.28 684.664 2008.17 667.34C2031.1 640.685 2059.28 619.055 2090.95 603.805L2118.65 590.469Z" fill="#FE6323"/>
<path fill-rule="evenodd" clip-rule="evenodd" d="M163.816 947.625L200.664 1016.8C214.674 1043.1 232.524 1067.17 253.626 1088.21L293.966 1128.43C310.79 1145.2 329.547 1159.92 349.843 1172.27L397.198 1201.08L463.289 1231.59C477.749 1238.26 492.717 1243.78 508.052 1248.08L657.903 1290.08L702.551 1302.61L747.2 1315.15L801.751 1337.63L856.302 1360.12L915.661 1389.21L975.02 1418.31L1036.76 1456.68L1098.5 1495.04L1149.43 1532.36L1200.36 1569.68L1308.31 1661.4L1363.47 1711.89L1415.11 1766.24L1456.9 1811.57L1650.97 1977.33C1675.86 1998.59 1697.1 2023.78 1713.85 2051.9L1808.71 2211.12C1824.78 2238.09 1827.18 2270.19 1816.84 2298.4L1826.37 2299.28L1641.55 2501.2L1592.55 2554.74L1560.86 2589.36L1530.02 2623.05L1498.76 2657.21L1463.27 2695.98C1441.47 2719.8 1410.66 2733.36 1378.37 2733.36L1365 2733.36L1362.45 2733.36C1313.43 2733.36 1265.16 2721.35 1221.86 2698.38L1175.63 2673.86C1162.87 2667.09 1149.64 2661.25 1136.04 2656.39L1068.26 2632.15L984.21 2601.03L920.586 2567.39L861.117 2534.16L810.228 2497.34L759.339 2460.51L679.916 2395.45L605.631 2319.82L564.094 2268.66L522.556 2217.49L484.576 2164.91L446.595 2112.34L408.706 2053.06L375.419 1992.05L351.161 1940.16L326.904 1888.27L503.627 2050.03L577.176 2104.26C594.831 2117.28 613.86 2128.32 633.922 2137.19L732.792 2180.9L627.749 2102.56L534.045 2016.8L462.448 1942.36L412.591 1890.52C398.138 1875.49 385.29 1859 374.257 1841.31L345.246 1794.79L299.64 1721.66L262.083 1653.36L246.912 1621.66L230.321 1586.99C221.202 1567.94 214.886 1547.66 211.571 1526.8C206.907 1497.46 208.262 1467.47 215.552 1438.67L223.589 1406.91L246.633 1455.4C261.129 1485.91 280.672 1513.75 304.438 1537.74L320.553 1554.01C336.075 1569.69 353.267 1583.59 371.811 1595.48L348.786 1551.65L317.428 1491.96L491.005 1650.83C499.644 1653.56 508.407 1655.9 517.267 1657.84L584.344 1672.52L560.972 1651.13L474.481 1562.67L407.215 1493.87C394.425 1480.79 382.859 1466.56 372.661 1451.37L330.916 1389.2L273.843 1304.21L226.219 1225.2L206.665 1188.71L183.819 1146.08C173.027 1125.94 164.989 1104.44 159.92 1082.16C152.122 1047.88 151.491 1012.36 158.066 977.825L163.816 947.625Z" fill="#FE6323"/>
<path fill-rule="evenodd" clip-rule="evenodd" d="M1036.33 644.5L1097.84 664.669C1104.6 666.886 1111.16 669.674 1117.45 673.005C1162.51 696.879 1188.6 745.696 1183.4 796.43L1182.78 802.553C1181.6 814.081 1178.93 825.409 1174.84 836.253L1138.22 933.43L1057.23 1093.68L1036.33 1135.08L1015.44 1176.48L995.189 1231.9L974.943 1287.32L956.33 1350.75L937.716 1414.19L924.328 1485.63L910.939 1557.08L904.082 1619.84L897.224 1682.61L891.999 1824.17V1898.95L897.224 1973.73L902.449 2035.16L893.695 2290.24C892.572 2322.96 896.81 2355.63 906.242 2386.98L959.645 2564.45C968.69 2594.52 990.745 2617.96 1018.54 2629.37L1012.76 2637L1057.23 2637H1106.22H1153.89H1202.22H1257.08L1286.49 2637L1309.98 2637L1359.07 2637L1375.29 2637L1406 2637H1451.67H1497.98H1550.54H1601.22H1663.79C1689.37 2637 1710.79 2617.63 1713.36 2592.18L1730.31 2424.14C1732.67 2400.76 1738.49 2377.87 1747.59 2356.22L1770.16 2302.52L1803.95 2219.51L1822.09 2149.86L1837.73 2083.56L1844.93 2021.16L1852.12 1958.76L1857.76 1856.25L1852.12 1750.39L1842.43 1685.2L1832.73 1620.01L1819.59 1556.5L1806.45 1492.98L1788.3 1425.01L1765.78 1359.27L1743.88 1306.34L1721.98 1253.41V1492.98L1712.32 1583.85C1710.01 1605.67 1705.3 1627.16 1698.3 1647.94L1663.79 1750.39L1676.93 1620.01V1492.98L1670.36 1389.91L1665.78 1318.13C1664.46 1297.33 1660.96 1276.71 1655.36 1256.63L1640.64 1203.82L1617.49 1120.81L1592.46 1046.98L1579.32 1014.39L1564.95 978.745C1557.05 959.153 1546.36 940.806 1533.21 924.275C1514.71 901.022 1491.68 881.774 1465.51 867.703L1436.66 852.193L1456.87 901.932C1469.58 933.221 1476.92 966.433 1478.58 1000.17L1479.7 1023.04C1480.78 1045.07 1479.43 1067.14 1475.68 1088.84L1458.89 1042.27L1436.03 978.835V1214.14C1432.21 1222.36 1428.02 1230.4 1423.47 1238.25L1389.01 1297.64V1265.95L1382.15 1142.43L1376.82 1046.35C1375.8 1028.09 1373.12 1009.95 1368.8 992.176L1351.13 919.408L1326.96 819.918L1300.84 731.446L1284.95 684.213C1281.33 673.434 1276.58 663.068 1270.78 653.285L1263.45 640.923C1253.02 623.318 1237.92 608.94 1219.83 599.378C1186.37 581.696 1146.21 582.28 1113.28 600.927L1036.33 644.5Z" fill="#FE6323"/>
<path fill-rule="evenodd" clip-rule="evenodd" d="M1257.54 879L1235.76 932.325C1222.94 963.728 1215.54 997.078 1213.87 1030.96L1212.54 1057.86C1211.2 1085.15 1213.59 1112.5 1219.64 1139.15L1228.15 1176.55L1248.44 1231.68C1254.49 1248.14 1261.98 1264.03 1270.81 1279.18L1338.52 1395.31L1359.42 1431.2L1380.32 1467.08L1400.57 1515.12L1420.81 1563.15L1439.43 1618.13L1458.04 1673.11L1471.43 1735.04L1484.82 1796.97L1491.67 1851.37L1498.53 1905.77L1503.76 2028.47V2093.29L1498.53 2158.11L1493.31 2211.35L1500.01 2380.69C1502.45 2442.24 1523.77 2501.55 1561.09 2550.56L1700 2733H1414.28L1383 2733L1338.52 2733H1289.54H1241.86H1193.53H1138.67L1109.27 2733L1085.77 2733L1036.69 2733L1020.46 2733C1020.42 2733 1020.39 2733 1020.35 2733H989.758H944.082H897.78H845.221H794.539H731.968C706.287 2733 684.678 2713.76 681.71 2688.25L665.89 2552.31C663.242 2529.56 656.786 2507.41 646.792 2486.8L625.599 2443.09L601.2 2391.13C594.949 2377.82 589.685 2364.06 585.451 2349.98L573.665 2310.77L558.022 2253.3L550.827 2199.22L543.631 2145.13L538 2056.27L543.631 1964.52L553.33 1908.02L563.028 1851.52L576.168 1796.46L589.308 1741.41L607.453 1682.49L629.978 1625.51L651.878 1579.63L673.778 1533.76V1741.41L682.354 1811.39C685.385 1836.11 691.482 1860.36 700.507 1883.58L731.968 1964.52L718.828 1851.52V1741.41L725.398 1652.07L729.339 1598.49C731.085 1574.73 735.654 1551.27 742.949 1528.6L755.119 1490.78L778.27 1418.82L803.298 1354.84L816.438 1326.59L829.641 1298.2C838.307 1279.57 849.789 1262.38 863.684 1247.24C881.444 1227.89 902.836 1212.22 926.644 1201.12L959.099 1186L943.001 1220.34C927.596 1253.2 918.625 1288.7 916.574 1324.94C915.335 1346.82 916.633 1368.75 920.425 1390.29L936.865 1350.75L959.723 1295.77V1499.2C964.393 1507.94 969.496 1516.45 975.014 1524.69L1006.75 1572.09V1544.63L1013.6 1437.56L1018.45 1361.93C1019.79 1341.03 1023.31 1320.33 1028.96 1300.16L1044.63 1244.26L1068.79 1158.03L1094.91 1081.34L1108.63 1047.48L1123.59 1010.55C1131.86 990.139 1143.05 971.032 1156.8 953.827C1176.08 929.704 1200.06 909.752 1227.29 895.183L1257.54 879Z" fill="#FE6323"/>
<path d="M1353.62 1344.04L1365.15 1245L1335.73 1294.52L1312.56 1333.51C1308.41 1340.5 1305.12 1347.97 1302.78 1355.76L1290.15 1397.68L1282.08 1424.5L1266.69 1485.26L1252.46 1553.57L1239.84 1614.15C1238.77 1619.3 1238.11 1624.53 1237.85 1629.79L1234.19 1706.71L1230.15 1791.54V1896.08L1238.23 2003.37L1212.59 1901.46C1211.22 1896.05 1210.32 1890.53 1209.88 1884.96L1202.46 1791.54V1594.38L1189 1637.94L1175.54 1681.5L1161.69 1735.6L1150.54 1791.54L1142.46 1843.81L1134.38 1896.08L1128.42 1949.72L1122.46 2003.37L1119 2090.48L1122.46 2174.85L1126.88 2226.2L1131.31 2277.55L1140.92 2332.11L1152.08 2389.43L1172.85 2457.74L1191.71 2517.84C1194 2525.13 1195.44 2532.66 1196.02 2540.28L1210.54 2733H1238.23H1276.69H1307.85H1340.15H1368.62H1396.69H1425.54H1470.15L1549 2726.89L1522.85 2528.81L1516.69 2319.73L1519.77 2277.55L1522.85 2226.2V2174.85L1519.77 2077.64L1515.73 2034.54L1511.69 1991.45L1503.81 1942.39L1495.92 1893.33L1484.96 1849.77L1474 1806.21L1462.08 1768.15L1450.15 1730.1L1437.85 1701.67L1425.54 1673.24L1380.67 1569.73C1378.79 1565.38 1377.22 1560.91 1375.97 1556.34L1360.54 1499.93L1351.86 1448.58C1350.73 1441.87 1350.28 1435.06 1350.53 1428.26L1353.62 1344.04Z" fill="#FF9700"/>
<path d="M1556.79 1222.71L1534.07 1123L1596.34 1176.58L1646.06 1219.36C1654.37 1226.51 1661.44 1234.97 1667 1244.42L1692.79 1288.2L1709.88 1317.22L1742.44 1382.95L1772.56 1456.87L1797.09 1517.08C1800.79 1526.17 1803.14 1535.76 1804.05 1545.54L1811.22 1622.57L1819.77 1714.35V1820.14C1819.77 1825.01 1819.41 1829.88 1818.7 1834.7L1802.67 1943.54L1854.53 1838.2C1859 1829.11 1862.07 1819.39 1863.62 1809.37L1877.19 1721.97C1877.98 1716.9 1878.37 1711.77 1878.37 1706.63V1501.03L1906.86 1548.16L1935.35 1595.28L1964.65 1653.82L1988.26 1714.35L2005.35 1770.9L2022.44 1827.46L2035.06 1885.5L2047.67 1943.54L2054.39 2029.93C2054.8 2035.17 2054.79 2040.44 2054.37 2045.68L2047.67 2129.08L2038.31 2184.65L2030.33 2232.05C2029.41 2237.48 2028.05 2242.83 2026.26 2248.03L2008.6 2299.25L1988.08 2353.17C1986.03 2358.55 1983.52 2363.75 1980.57 2368.7L1941.05 2435.18L1904.56 2494.61C1897.49 2506.13 1892.82 2518.97 1890.85 2532.35L1861.28 2733H1802.67H1721.28H1655.35H1586.98H1526.74H1467.33H1406.28H1311.86L1145 2726.39L1197.9 2521.55C1199.53 2515.25 1200.54 2508.8 1200.91 2502.29L1212.8 2295.83C1213.18 2289.19 1212.9 2282.54 1211.96 2275.96L1206.86 2240.21L1200.35 2184.65V2129.08L1206.86 2023.91L1215.41 1977.28L1223.95 1930.65L1240.64 1877.56L1255.03 1831.79C1256.56 1826.92 1258.46 1822.18 1260.71 1817.61L1280.52 1777.35L1303.72 1730.22L1328.95 1689.05L1350.18 1654.4C1352.85 1650.05 1355.84 1645.92 1359.14 1642.03L1380.23 1617.11L1406.28 1586.35L1500.33 1475.4C1504.9 1470.01 1508.89 1464.15 1512.23 1457.91L1539.77 1406.43C1542.48 1401.37 1544.74 1396.09 1546.54 1390.65L1559.6 1351.15C1563.7 1338.74 1565.33 1325.65 1564.4 1312.61L1559.03 1237.78C1558.67 1232.7 1557.92 1227.67 1556.79 1222.71Z" fill="#FFA624"/>
<path d="M1242.13 1295.42L1244.7 1267.98C1247.1 1242.38 1252.78 1217.2 1261.6 1193.05L1283.73 1132.46L1330.43 1005L1289.34 1056.17C1272.64 1076.96 1258.78 1099.89 1248.15 1124.35L1225.59 1176.21L1213.44 1200.19C1203.59 1219.62 1195.89 1240.07 1190.48 1261.17L1183.82 1287.07L1176.42 1315.89L1162.33 1381.18L1149.29 1454.59L1136.25 1528.01L1132.55 1619.16L1128.85 1710.31V1822.64L1136.25 1937.94L1115.41 1840.82C1112.39 1826.75 1110.39 1812.48 1109.42 1798.13L1103.47 1710.31V1498.44L1091.14 1545.25L1078.81 1592.06L1066.12 1650.2L1055.9 1710.31L1048.5 1766.48L1041.1 1822.64L1035.63 1880.29L1030.17 1937.94L1027 2031.55L1030.17 2122.21L1034.22 2177.39L1038.28 2232.58L1047.09 2291.21L1057.31 2352.8L1076.34 2426.21L1089.1 2473.89C1094.21 2492.97 1097.42 2512.51 1098.68 2532.22L1110.87 2722H1136.25H1171.49H1200.04H1229.64H1255.72H1281.44H1307.87H1348.75L1421 2715.43L1397.04 2502.58L1391.4 2277.91L1394.22 2232.58L1397.04 2177.39V2122.21L1394.22 2017.76L1390.52 1971.44L1386.82 1925.13L1379.59 1872.41L1372.37 1819.69L1362.32 1772.88L1352.28 1726.07L1341.35 1685.18L1330.43 1644.28L1319.15 1613.74L1307.87 1583.19L1264.18 1464.94L1248.32 1396.95L1243.89 1366.22C1240.51 1342.77 1239.92 1319.01 1242.13 1295.42Z" fill="#FF9700"/>
<path d="M997.042 1282.17L1010.71 1245L990.99 1256.72C969.901 1269.24 951.621 1285.99 937.289 1305.89C927.744 1319.15 920.063 1333.66 914.464 1349.01L903.076 1380.22L893.162 1407.4L874.279 1468.94L856.812 1538.15L846.325 1579.71C841.682 1598.1 838.795 1616.9 837.702 1635.84L834.388 1693.3L829.431 1779.23V1885.13L839.345 1993.83L814.138 1911.15C808.297 1892 804.39 1872.3 802.473 1852.37L795.441 1779.23V1579.49L778.919 1623.62L762.396 1667.75L745.401 1722.56L731.711 1779.23L721.797 1832.18L711.883 1885.13L704.566 1939.48L697.249 1993.83L693 2082.08L697.249 2167.55L702.678 2219.57L708.107 2271.6L719.909 2326.87L733.599 2384.94L755.531 2475.09L761.615 2512.18C765.194 2533.99 771.174 2555.35 779.445 2575.85L787.708 2596.33C792.855 2609.09 799.052 2621.4 806.236 2633.13L814.808 2647.12C824.48 2662.92 836.877 2676.87 851.422 2688.33C862.095 2696.74 873.818 2703.73 886.294 2709.11L895.671 2713.16C908.531 2718.71 921.862 2723.1 935.505 2726.27L936.693 2726.55C955.135 2730.83 974.006 2733 992.94 2733H999.38H1033.84H1069.25H1124.01H1489L1312.94 2611.73C1234.77 2557.89 1186.69 2470.22 1183.31 2375.36L1181.13 2314.33L1184.91 2271.6L1188.68 2219.57V2167.55L1184.91 2069.08L1179.95 2025.41L1174.99 1981.75L1165.32 1932.05L1155.64 1882.35L1142.18 1838.22L1128.73 1794.09L1114.1 1755.54L1099.46 1716.99L1084.35 1688.19L1069.25 1659.39L1022.14 1569.67C1014.53 1555.19 1008.12 1540.1 1002.98 1524.57L989.466 1483.81L984.172 1457.95C979.223 1433.79 977.274 1409.1 978.368 1384.46L978.903 1372.4C980.272 1341.57 986.39 1311.13 997.042 1282.17Z" fill="#FFA624"/>
<path d="M1802.27 1265.14L1783.31 1248L1795.41 1248C1825.64 1248 1853.56 1264.15 1868.64 1290.35C1872 1296.17 1874.64 1302.38 1876.53 1308.84L1889.85 1354.5L1897.92 1382.19L1913.31 1444.91L1927.54 1515.43L1940.25 1578.44C1941.26 1583.45 1941.89 1588.52 1942.12 1593.62L1945.81 1673.53L1949.85 1761.09V1869.01L1941.77 1979.77L1967.53 1874.08C1968.82 1868.82 1969.67 1863.46 1970.09 1858.06L1977.54 1761.09V1557.56L1991 1602.53L2004.46 1647.49L2018.31 1703.35L2029.46 1761.09L2037.54 1815.05L2045.62 1869.01L2051.58 1924.39L2057.54 1979.77L2061 2069.7L2057.54 2156.8L2053.12 2209.81L2048.69 2262.82L2039.08 2319.15L2027.92 2378.32L2007.15 2448.84L1988.09 2511.53C1985.94 2518.63 1984.57 2525.94 1984.03 2533.34L1969.46 2733H1941.77H1903.31H1872.15H1839.85H1811.38H1783.31H1754.46H1709.85L1631 2726.69L1657.15 2522.21L1663.31 2306.37L1660.23 2262.82L1657.15 2209.81V2156.8L1660.23 2056.45L1664.27 2011.96L1668.31 1967.46L1676.19 1916.82L1684.08 1866.17L1695.04 1821.2L1706 1776.24L1717.92 1736.95L1729.85 1697.67L1742.15 1668.32L1754.46 1638.97L1802.15 1525.37L1819.46 1460.05L1829.85 1396.63L1834.68 1349.52C1837.93 1317.84 1825.89 1286.5 1802.27 1265.14Z" fill="#FF9700"/>
<path d="M1964.96 1282.17L1951.29 1245L1971.01 1256.72C1992.1 1269.24 2010.38 1285.99 2024.71 1305.89C2034.26 1319.15 2041.94 1333.66 2047.54 1349.01L2058.92 1380.22L2068.84 1407.4L2087.72 1468.94L2105.19 1538.15L2115.68 1579.71C2120.32 1598.1 2123.21 1616.9 2124.3 1635.84L2127.61 1693.3L2132.57 1779.23V1885.13L2122.66 1993.83L2147.86 1911.15C2153.7 1892 2157.61 1872.3 2159.53 1852.37L2166.56 1779.23V1579.49L2183.08 1623.62L2199.6 1667.75L2216.6 1722.56L2230.29 1779.23L2240.2 1832.18L2250.12 1885.13L2257.43 1939.48L2264.75 1993.83L2269 2082.08L2264.75 2167.55L2259.32 2219.57L2253.89 2271.6L2242.09 2326.87L2228.4 2384.94L2206.47 2475.09L2200.38 2512.18C2196.81 2533.99 2190.83 2555.35 2182.56 2575.85L2174.29 2596.33C2169.15 2609.09 2162.95 2621.4 2155.76 2633.13L2147.19 2647.12C2137.52 2662.92 2125.12 2676.87 2110.58 2688.33C2099.9 2696.74 2088.18 2703.73 2075.71 2709.11L2066.33 2713.16C2053.47 2718.71 2040.14 2723.1 2026.49 2726.27L2025.31 2726.55C2006.87 2730.83 1987.99 2733 1969.06 2733H1962.62H1928.16H1892.75H1837.99H1473L1649.06 2611.73C1727.23 2557.89 1775.31 2470.22 1778.69 2375.36L1780.87 2314.33L1777.09 2271.6L1773.32 2219.57V2167.55L1777.09 2069.08L1782.05 2025.41L1787.01 1981.75L1796.68 1932.05L1806.36 1882.35L1819.82 1838.22L1833.27 1794.09L1847.9 1755.54L1862.54 1716.99L1877.65 1688.19L1892.75 1659.39L1939.86 1569.67C1947.47 1555.19 1953.88 1540.1 1959.02 1524.57L1972.53 1483.81L1977.83 1457.95C1982.78 1433.79 1984.73 1409.1 1983.63 1384.46L1983.1 1372.4C1981.73 1341.57 1975.61 1311.13 1964.96 1282.17Z" fill="#FFA624"/>
<path d="M1306.85 1658.32L1270.73 1613.74L1333.84 1626.84L1348.41 1629.86C1380.54 1636.53 1411.33 1648.53 1439.51 1665.35L1460.79 1678.05L1504.21 1708.9L1548.01 1745.78C1576.99 1770.18 1601.48 1799.44 1620.4 1832.26L1623.81 1838.17L1655.82 1893.68L1672.44 1931.92C1682.19 1954.36 1689.93 1977.62 1695.56 2001.42L1705.93 2045.26L1711.83 2000.31C1716.22 1966.87 1714.65 1932.92 1707.19 1900.03C1703.25 1882.67 1697.7 1865.71 1690.6 1849.37L1642.28 1738.2L1677.41 1758.59L1712.54 1778.97L1751.45 1806.34L1786.49 1836.89L1815.39 1867.11L1844.28 1897.33L1870.11 1930.01L1877.15 1938.92C1889.66 1954.74 1900.85 1971.56 1910.59 1989.21C1921.97 2009.82 1931.33 2031.46 1938.57 2053.85L1947.25 2080.73L1955.35 2119.24C1960.74 2144.85 1963.62 2170.92 1963.94 2197.09L1964 2202.17L1963.82 2209.66C1963.17 2236.21 1959.96 2262.63 1954.23 2288.57L1949.19 2311.42L1933.84 2376.26L1920.22 2413.71C1908.6 2445.66 1893.09 2476.06 1874.02 2504.21L1872.44 2506.54C1860.95 2523.5 1848.22 2539.59 1834.34 2554.66L1824.08 2565.8L1813.26 2577.55C1799.89 2592.07 1783.63 2603.64 1765.52 2611.51C1759.01 2614.34 1752.29 2616.68 1745.43 2618.5L1735.1 2621.25C1704.66 2629.33 1673.1 2632.29 1641.69 2629.99L1620.91 2628.48C1602.35 2627.12 1583.95 2624.12 1565.93 2619.5C1538.5 2612.46 1512.16 2601.74 1487.62 2587.62L1477.78 2581.95C1458.99 2571.14 1441.12 2558.81 1424.35 2545.08L1406.44 2530.41L1365.19 2489.05L1343.54 2461.68L1325.87 2434.84L1320.85 2426.67C1310.6 2410.03 1301.55 2392.68 1293.76 2374.76L1290.1 2366.33L1275.88 2325.44C1269.35 2306.65 1264.18 2287.41 1260.42 2267.87L1259.8 2264.67L1259.25 2261.8C1255.44 2242.04 1253.09 2222.03 1252.2 2201.92L1251.8 2192.72L1251.65 2189.41C1250.59 2165.4 1251.63 2141.34 1254.76 2117.51L1255.02 2115.52L1259.98 2077.72L1268.17 2043.01L1269.31 2038.16C1274 2018.29 1280.26 1998.83 1288.05 1979.96L1299.74 1951.61L1333.51 1869.88C1341.21 1851.25 1346.8 1831.81 1350.17 1811.94L1352.17 1800.14C1353.77 1790.7 1354.44 1781.12 1354.19 1771.54C1353.56 1748.33 1347.47 1725.6 1336.4 1705.2L1328.73 1691.06C1322.45 1679.5 1315.13 1668.54 1306.85 1658.32Z" fill="#FE6323"/>
<path d="M1361.45 1164.2L1328.49 1089.44L1407.22 1130.74L1424.47 1139.78C1465.17 1161.13 1502.18 1189.29 1533.67 1222.77L1557.52 1248.14L1604.6 1306.72L1650.21 1373.76L1656.9 1383.61C1682.66 1421.48 1701.94 1463.37 1713.96 1507.56L1719.85 1529.26L1743.9 1617.71L1756.14 1694.29C1759.8 1717.14 1761.52 1740.26 1761.3 1763.4L1760.53 1845.55L1783.35 1784.4C1799.7 1740.59 1808.49 1694.33 1809.35 1647.57L1809.42 1643.75C1809.86 1619.38 1808.15 1595.03 1804.31 1570.97L1776.64 1397.95L1816.21 1439.02L1855.77 1480.09L1898.05 1532.2L1934.2 1587.28L1962.37 1639.65L1990.55 1692.02L2013.9 1746.66L2024.56 1771.61C2033 1791.37 2039.89 1811.77 2045.17 1832.6L2051.08 1855.98C2057.21 1880.21 2061.13 1904.95 2062.79 1929.9L2066.34 1983.24L2064.48 2039.41L2063.89 2057.03C2063.04 2082.68 2059.81 2108.19 2054.22 2133.24L2048.89 2157.15L2041.73 2184.68C2035.22 2209.65 2026.4 2233.96 2015.36 2257.29L1993.9 2302.64L1952.64 2386.57L1911.88 2449.9C1893.31 2478.75 1871.21 2505.18 1846.1 2528.57L1821.78 2551.23C1806.33 2565.62 1789.8 2578.81 1772.32 2590.68L1746.69 2608.09L1728.28 2620.6C1706.24 2635.57 1681.18 2645.51 1654.87 2649.71C1645.35 2651.23 1635.73 2652 1626.1 2651.99L1611.43 2651.98C1568.95 2651.97 1526.8 2644.55 1486.87 2630.07L1458.58 2619.81C1434.99 2611.25 1412.22 2600.56 1390.57 2587.87L1387.3 2585.95C1355.15 2567.11 1325.7 2544 1299.75 2517.26L1277.22 2494.05C1261.89 2478.25 1247.85 2461.26 1235.23 2443.22L1208.97 2405.7L1168.18 2333.4L1148.61 2287.64L1134.1 2244.06L1118.03 2190.75L1109.32 2136.26L1100.18 2031.96L1102.53 1984.69L1104.87 1937.42L1115.39 1882.35L1119.37 1861.52C1123.72 1838.74 1129.99 1816.36 1138.1 1794.63L1144.72 1776.88L1163.53 1726.48L1185.58 1681.54L1193.19 1666.02C1202.8 1646.44 1213.93 1627.66 1226.5 1609.84L1232.22 1601.75L1256.81 1566.88L1327.25 1467.14C1343.79 1443.72 1357.69 1418.54 1368.69 1392.06L1374.81 1377.34C1380.11 1364.58 1384.19 1351.35 1387.01 1337.82C1393.7 1305.68 1393.11 1272.45 1385.27 1240.57L1379.63 1217.6C1375.14 1199.31 1369.05 1181.44 1361.45 1164.2Z" fill="#FFA624"/>
<path d="M1913.82 1690.93L1923.21 1623.8L1958.41 1681.71L1980.96 1718.8C1989.33 1732.58 1995.35 1747.66 1998.75 1763.43L2004.61 1790.56L2010.11 1816.03L2017.55 1871.54L2020.62 1931.66L2022.39 1966.38C2023.25 1983.19 2021.17 2000.02 2016.24 2016.11L2003.97 2056.21L1984.26 2120.63L1956.51 2184.48C1953.1 2192.34 1948.99 2199.89 1944.23 2207.02L1903.69 2267.9L1965.06 2224.05C1978.97 2214.11 1991.01 2201.78 2000.62 2187.64L2024.42 2152.63C2029.5 2145.16 2033.86 2137.23 2037.46 2128.96L2094.07 1998.7L2103.6 2040.32L2113.13 2081.95L2120 2131.49L2121.66 2180.34L2119.15 2224.23L2116.65 2268.12L2110.06 2311.42L2105.27 2342.92C2104.07 2350.78 2102.24 2358.52 2099.77 2366.07L2086.37 2407.13C2083.49 2415.94 2079.78 2424.45 2075.27 2432.55L2049.53 2478.84L2025.75 2512.69L2010.11 2534.95C2004.69 2542.66 1998.53 2549.83 1991.72 2556.34L1968.2 2578.83L1941.39 2602.65C1934.43 2608.83 1926.89 2614.33 1918.88 2619.06L1873.6 2645.82L1812.74 2680.53L1741.16 2710.97C1730.2 2715.64 1718.7 2718.93 1706.93 2720.77L1647.24 2730.13C1640.15 2731.24 1632.98 2731.83 1625.8 2731.88L1588.31 2732.13L1570.63 2732.25C1550.46 2732.38 1530.47 2728.3 1511.97 2720.26L1435.88 2687.19C1427.26 2683.44 1419.03 2678.87 1411.3 2673.52L1339.81 2624.13L1306.17 2596.71C1292.05 2585.19 1283.9 2567.91 1284.01 2549.69C1284.03 2545.57 1283.63 2541.45 1282.82 2537.4L1282.42 2535.45C1277.66 2511.91 1283.92 2487.33 1299.25 2468.84C1312.32 2453.07 1318.96 2432.77 1317.64 2412.33L1315.91 2385.7L1318.12 2324.32L1323.63 2288.05L1331.59 2255.21L1339.71 2225.65C1341.52 2219.04 1343.8 2212.58 1346.53 2206.3L1358.58 2178.56L1389.58 2119.78C1392.84 2113.61 1396.53 2107.68 1400.64 2102.05L1415 2082.34L1429.28 2062.74C1433.44 2057.04 1438 2051.65 1442.94 2046.62L1464.56 2024.58L1484.73 2004.02C1490.63 1998.01 1497.05 1992.52 1503.9 1987.62L1526.22 1971.68L1558.84 1948.37L1591.38 1929.77L1613.88 1916.91C1620.57 1913.09 1627.56 1909.8 1634.77 1907.09L1654.11 1899.82L1684.29 1888.48L1785.98 1850.31C1796.1 1846.51 1805.77 1841.59 1814.8 1835.64L1839.18 1819.56C1847.03 1814.39 1854.36 1808.45 1861.06 1801.85L1863.53 1799.43C1879.77 1783.43 1892 1763.83 1899.23 1742.21L1907.74 1716.78C1910.55 1708.37 1912.59 1699.71 1913.82 1690.93Z" fill="#FE6323"/>
<path d="M1126.61 1753.43L1117.32 1698.69L1089.87 1750.25L1084.36 1760.59C1069.83 1787.88 1059.93 1817.39 1055.08 1847.92L1051.41 1870.97L1047.25 1921.4L1046.95 1976.19C1046.75 2012.5 1052.28 2048.61 1063.34 2083.19L1065.71 2090.59L1084.76 2150.18L1102.3 2190.54C1110.98 2210.51 1121.23 2229.76 1132.94 2248.12L1158.24 2287.75L1125.81 2262C1099.83 2241.37 1077.35 2216.66 1059.27 2188.84C1049.96 2174.53 1041.87 2159.47 1035.07 2143.81L987.617 2034.63L981.17 2072.29L974.723 2109.95L970.812 2154.94L971.275 2199.5L975.052 2239.69L978.828 2279.87L986.023 2319.67L987.933 2330.24C991.451 2349.7 996.397 2368.88 1002.73 2387.61C1010.07 2409.33 1019.26 2430.38 1030.18 2450.54L1043.38 2474.89L1064.7 2506.71L1065.66 2508.13C1079.21 2528.36 1094.53 2547.35 1111.43 2564.88L1115.7 2569.31L1121.44 2574.87C1139.35 2592.24 1158.8 2607.94 1179.54 2621.8L1197.95 2634.09L1250.53 2668.1C1275.53 2683.05 1302.09 2695.21 1329.73 2704.38L1345.07 2709.47L1368.1 2714.49C1389.93 2719.24 1412.11 2722.22 1434.41 2723.39L1441.58 2723.76C1473.31 2725 1504.87 2718.61 1533.62 2705.13L1553.92 2695.61C1570.6 2687.79 1586.5 2678.4 1601.4 2667.57L1646.84 2634.56L1672.12 2612.54C1684.84 2601.47 1691.8 2585.18 1691.01 2568.33C1690.84 2564.79 1691.01 2561.25 1691.53 2557.75L1691.86 2555.46C1694.98 2534.1 1689.25 2512.4 1675.98 2495.37L1674.98 2494.09C1663.31 2479.11 1657.13 2460.57 1657.48 2441.59L1657.92 2417.68L1653.72 2361.53L1647.71 2328.19L1639.75 2297.89L1629.12 2261.42L1614.1 2226.86L1581.28 2163.34L1562.91 2136.83L1544.55 2110.33L1518.96 2082.19L1515.87 2078.79C1500.89 2062.33 1484.61 2047.1 1467.18 2033.25L1465 2031.52L1436.64 2009L1408.51 1990.77L1404.14 1987.93C1388.32 1977.69 1371.74 1968.69 1354.52 1961.03L1328.66 1949.52L1255.26 1916.9C1237.47 1908.99 1220.59 1899.17 1204.93 1887.61L1196.81 1881.62C1189.16 1875.98 1182.04 1869.65 1175.54 1862.72C1160.38 1846.56 1148.8 1827.39 1141.57 1806.45L1136.16 1790.78C1131.96 1778.61 1128.76 1766.12 1126.61 1753.43Z" fill="#FE6323"/>
<path d="M1483.39 1935.28L1473.02 1897.95L1524.3 1934.14C1536.83 1942.99 1547.79 1953.87 1556.74 1966.32L1575.38 1992.28C1579.63 1998.21 1583.41 2004.47 1586.68 2011L1613.54 2064.73C1620.76 2079.16 1625.38 2094.74 1627.2 2110.77L1634.08 2171.43V2222.37L1624.45 2293.04L1675.84 2222.37L1696.83 2187.99C1700.58 2181.86 1703.83 2175.44 1706.58 2168.8L1740.54 2086.54L1752.01 2126.46L1760.21 2161.39C1761.78 2168.08 1762.85 2174.87 1763.4 2181.72L1766.7 2222.37V2276.52V2321.03L1762.57 2363.24L1754.73 2401.43C1752.92 2410.21 1750.27 2418.8 1746.79 2427.07L1740.54 2441.94L1732.84 2458.55C1729.11 2466.58 1724.62 2474.23 1719.42 2481.4L1702.46 2504.81L1675.84 2540.37L1645.82 2572.04C1638.03 2580.26 1629.24 2587.49 1619.68 2593.56L1595.02 2609.21C1589.26 2612.87 1583.23 2616.09 1576.98 2618.86L1558.37 2627.09L1548.63 2631.41C1536.6 2636.73 1523.58 2639.48 1510.42 2639.48C1505.68 2639.48 1500.95 2639.13 1496.27 2638.42L1480.71 2636.06C1465.59 2633.77 1450.96 2628.98 1437.42 2621.88L1411.87 2608.49C1404.62 2604.69 1397.73 2600.25 1391.27 2595.22L1378.62 2585.39C1368.79 2577.74 1360.04 2568.8 1352.62 2558.8L1336.14 2536.6C1331.65 2530.56 1327.66 2524.15 1324.22 2517.45L1312.41 2494.48L1298.19 2458.23L1292.22 2435.74L1288.55 2414.64L1286.27 2398.62C1285.34 2392.18 1284.88 2385.67 1284.88 2379.16V2363.24L1287.8 2324.54C1288.3 2317.92 1289.28 2311.35 1290.72 2304.88L1293.37 2293.04L1295.99 2281.3C1297.45 2274.76 1299.39 2268.32 1301.79 2262.06L1307.6 2246.92L1312.69 2233.61C1315.56 2226.13 1319.08 2218.91 1323.2 2212.04L1330.08 2200.57L1343.16 2178.78L1357.38 2159.73L1365.02 2149.52C1369.4 2143.64 1374.25 2138.13 1379.52 2133.03L1386.29 2126.46L1400.98 2112.24L1446.76 2067.94C1454.15 2060.78 1460.71 2052.83 1466.33 2044.21L1473.28 2033.56C1476.77 2028.21 1479.73 2022.53 1482.12 2016.6C1487.9 2002.25 1490.21 1986.73 1488.87 1971.31L1487.89 1960.14C1487.16 1951.73 1485.65 1943.41 1483.39 1935.28Z" fill="#FFA624"/>
<path d="M1827.08 1516.49L1814.19 1456L1840.3 1480.03C1881.88 1518.29 1916.97 1563.04 1944.23 1612.54L1951.88 1626.42L1979.58 1698.67C1997.05 1744.2 2008.05 1791.95 2012.28 1840.53L2018.1 1907.43V1991.5L2005.9 2108.14L2070.97 1991.5C2093.27 1943.88 2107.26 1892.8 2112.33 1840.46L2120 1761.35L2125.87 1770.25C2153.28 1811.78 2171.96 1858.45 2180.77 1907.43L2186 1991.5V2080.88V2154.35L2180.77 2224.03L2173.75 2268.62C2169.53 2295.41 2163.23 2321.83 2154.91 2347.64L2152.89 2353.93L2150.58 2360.42C2140.9 2387.6 2128.99 2413.94 2114.97 2439.16L2104.67 2457.7L2070.97 2516.4L2045.77 2551.06C2027.4 2576.33 2005.93 2599.18 1981.86 2619.1C1965.77 2632.41 1948.6 2644.34 1930.51 2654.78L1922.25 2659.55L1908.55 2667.45C1894.31 2675.67 1878.15 2680 1861.7 2680C1855.6 2680 1849.52 2679.4 1843.54 2678.22L1833.96 2676.33C1808.27 2671.26 1783.87 2661.02 1762.25 2646.24L1746.07 2635.19C1730.71 2624.69 1716.26 2612.59 1703.2 2599.35C1685.22 2581.12 1669.51 2560.42 1656.84 2538.18L1647.7 2522.13C1637.48 2504.19 1628.55 2485.55 1620.98 2466.34L1610.86 2440.65L1592.85 2380.82L1585.3 2343.7L1580.65 2308.86L1576 2266.45V2224.03L1580.65 2143.74L1586.75 2108.14L1592.85 2072.54L1604.76 2032.02L1605.93 2028.05C1613.08 2003.71 1621.99 1979.94 1632.59 1956.9L1633.22 1955.52L1649.78 1919.54L1667.79 1888.11L1670.91 1882.66C1680.82 1865.36 1692.01 1848.83 1704.39 1833.2L1722.98 1809.72L1774.79 1744.36C1788.24 1727.38 1799.9 1709.06 1809.59 1689.69L1813.86 1681.16C1818.72 1671.44 1822.77 1661.35 1825.98 1650.98C1833.16 1627.73 1836.01 1603.37 1834.39 1579.1L1833.08 1559.54C1832.11 1545.07 1830.1 1530.68 1827.08 1516.49Z" fill="#FFF28C"/>
<path d="M1255.96 1591.91L1291.1 1488L1256.36 1505.17C1225.72 1520.31 1197.88 1540.56 1174.05 1565.05C1156.69 1582.89 1141.61 1602.81 1129.15 1624.35L1099.11 1676.33L1073.75 1739.33C1054.74 1786.55 1042.73 1836.3 1038.1 1886.98L1032.88 1944.03V2024.13L1045.08 2135.25L980.022 2024.13L946.329 1955.58L898.113 1810.54L883.59 1873.32L870.229 1944.03L865 2024.13V2109.27V2179.27L870.229 2245.65L876.653 2284.51C881.27 2312.43 888.147 2339.94 897.218 2366.75L898.113 2369.4L899.303 2372.59C909.722 2400.48 922.503 2427.43 937.508 2453.14L946.329 2468.26L980.022 2524.18L1004.67 2556.47C1023.4 2581.02 1045.16 2603.12 1069.42 2622.24C1085.31 2634.77 1102.21 2645.97 1119.95 2655.72L1128.74 2660.55L1142.14 2667.92C1156.59 2675.87 1172.82 2680.04 1189.31 2680.04C1195.39 2680.04 1201.45 2679.47 1207.42 2678.35L1216.86 2676.57C1242.67 2671.71 1267.28 2661.84 1289.3 2647.5L1305 2637.28C1320.29 2627.32 1334.6 2615.93 1347.72 2603.25C1365.86 2585.73 1381.6 2565.89 1394.54 2544.24L1403.09 2529.93C1413.43 2512.65 1422.48 2494.63 1430.17 2476.03L1440.11 2452.02L1458.11 2395.02L1465.67 2359.66L1470.31 2326.47L1474.96 2286.06V2245.65L1470.31 2169.16L1464.21 2135.25L1458.11 2101.34L1446.21 2062.73L1445.52 2060.5C1438.05 2036.29 1428.76 2012.67 1417.74 1989.85L1401.18 1955.58L1383.18 1925.63L1380.16 1920.61C1370.18 1904.02 1358.95 1888.21 1346.58 1873.32L1327.99 1850.95L1291.1 1791.06L1259.09 1747.75C1248.04 1732.79 1240.42 1715.58 1236.79 1697.34C1232.23 1674.4 1234.13 1650.65 1242.27 1628.73L1255.96 1591.91Z" fill="#FFF28C"/>
<path d="M761.72 605.408L770.978 594.54L765.95 594.941C761.516 595.294 757.174 596.401 753.111 598.213C750.153 599.532 747.369 601.214 744.825 603.219L738.687 608.055L732.584 614.45C728.01 619.243 724.16 624.678 721.156 630.583L717.776 637.229L713.915 646.913L710.034 660.936L707.524 644.365L706.755 634.453L707.916 614.593L703.134 621.483L698.11 629.389L693.617 638.82L689.513 649.115L686.139 657.577L683.571 665.855L682.475 670.863C681.687 674.462 681.193 678.119 680.997 681.798L680.977 682.161L680.906 685.413C680.862 687.418 680.99 689.423 681.287 691.406C681.788 694.743 681.806 698.135 681.341 701.477L680.775 705.554C680.289 709.051 680.528 712.61 681.478 716.011L681.76 717.019C682.635 720.15 684.218 723.039 686.387 725.46L687.362 726.55C688.905 728.273 690.826 729.615 692.974 730.472L698.171 732.544L700.05 733.293C701.557 733.894 703.116 734.353 704.708 734.664C708.064 735.321 711.515 735.314 714.868 734.642L717.259 734.163C719.588 733.696 721.866 733.008 724.064 732.108C727.102 730.863 729.962 729.223 732.57 727.23L734.294 725.912C736.376 724.321 738.339 722.579 740.166 720.7L742.524 718.277L747.449 712.253L750.067 708.342L752.229 704.553L754.738 699.891L756.686 695.006L759.811 685.534L760.708 681.14L761.606 676.745L762.027 671.504L762.051 671.201C762.315 667.913 762.331 664.61 762.098 661.32L761.749 656.378L761.015 651.89L760.892 651.137C760.485 648.65 759.89 646.198 759.112 643.801L757.942 640.2L756.369 631.181L754.587 624.401C753.971 622.06 753.881 619.612 754.321 617.232C754.875 614.239 756.249 611.459 758.291 609.201L761.72 605.408Z" fill="#FF9700"/>
<path d="M1665.49 360.408L1656.23 349.54L1661.26 349.941C1665.69 350.294 1670.03 351.401 1674.1 353.213C1677.05 354.532 1679.84 356.214 1682.38 358.219L1688.52 363.055L1694.62 369.45C1699.2 374.243 1703.05 379.678 1706.05 385.583L1709.43 392.229L1713.29 401.913L1717.17 415.936L1719.68 399.365L1720.45 389.453L1719.29 369.593L1724.07 376.483L1729.1 384.389L1733.59 393.82L1737.69 404.115L1741.07 412.577L1743.64 420.855L1744.73 425.863C1745.52 429.462 1746.01 433.119 1746.21 436.798L1746.23 437.161L1746.3 440.413C1746.35 442.418 1746.22 444.423 1745.92 446.406C1745.42 449.743 1745.4 453.135 1745.87 456.477L1746.43 460.554C1746.92 464.051 1746.68 467.61 1745.73 471.011L1745.45 472.019C1744.57 475.15 1742.99 478.039 1740.82 480.46L1739.85 481.55C1738.3 483.273 1736.38 484.615 1734.23 485.472L1729.04 487.544L1727.16 488.293C1725.65 488.894 1724.09 489.353 1722.5 489.664C1719.14 490.321 1715.69 490.314 1712.34 489.642L1709.95 489.163C1707.62 488.696 1705.34 488.008 1703.14 487.108C1700.11 485.863 1697.25 484.223 1694.64 482.23L1692.91 480.912C1690.83 479.321 1688.87 477.579 1687.04 475.7L1684.68 473.277L1679.76 467.253L1677.14 463.342L1674.98 459.553L1672.47 454.891L1670.52 450.006L1667.4 440.534L1666.5 436.14L1665.6 431.745L1665.18 426.504L1665.16 426.201C1664.89 422.913 1664.88 419.61 1665.11 416.32L1665.46 411.378L1666.19 406.89L1666.32 406.137C1666.72 403.65 1667.32 401.198 1668.1 398.801L1669.27 395.2L1670.84 386.181L1672.62 379.401C1673.24 377.06 1673.33 374.612 1672.89 372.232C1672.33 369.239 1670.96 366.459 1668.92 364.201L1665.49 360.408Z" fill="#FF9700"/>
<path d="M2402.72 779.408L2411.98 768.54L2406.95 768.941C2402.52 769.294 2398.17 770.401 2394.11 772.213C2391.15 773.532 2388.37 775.214 2385.82 777.219L2379.69 782.055L2373.58 788.45C2369.01 793.243 2365.16 798.678 2362.16 804.583L2358.78 811.229L2354.91 820.913L2351.03 834.936L2348.52 818.365L2347.75 808.453L2348.92 788.593L2344.13 795.483L2339.11 803.389L2334.62 812.82L2330.51 823.115L2327.14 831.577L2324.57 839.855L2323.47 844.863C2322.69 848.462 2322.19 852.119 2322 855.798L2321.98 856.161L2321.91 859.413C2321.86 861.418 2321.99 863.423 2322.29 865.406C2322.79 868.743 2322.81 872.135 2322.34 875.477L2321.77 879.554C2321.29 883.051 2321.53 886.61 2322.48 890.011L2322.76 891.019C2323.63 894.15 2325.22 897.039 2327.39 899.46L2328.36 900.55C2329.9 902.273 2331.83 903.615 2333.97 904.472L2339.17 906.544L2341.05 907.293C2342.56 907.894 2344.12 908.353 2345.71 908.664C2349.06 909.321 2352.51 909.314 2355.87 908.642L2358.26 908.163C2360.59 907.696 2362.87 907.008 2365.06 906.108C2368.1 904.863 2370.96 903.223 2373.57 901.23L2375.29 899.912C2377.38 898.321 2379.34 896.579 2381.17 894.7L2383.52 892.277L2388.45 886.253L2391.07 882.342L2393.23 878.553L2395.74 873.891L2397.69 869.006L2400.81 859.534L2401.71 855.14L2402.61 850.745L2403.03 845.504L2403.05 845.201C2403.31 841.913 2403.33 838.61 2403.1 835.32L2402.75 830.378L2402.01 825.89L2401.89 825.137C2401.48 822.65 2400.89 820.198 2400.11 817.801L2398.94 814.2L2397.37 805.181L2395.59 798.401C2394.97 796.06 2394.88 793.612 2395.32 791.232C2395.87 788.239 2397.25 785.459 2399.29 783.201L2402.72 779.408Z" fill="#FF9700"/>
<path d="M1639.36 1591.91L1674.5 1488L1639.76 1505.17C1609.12 1520.31 1581.29 1540.56 1557.45 1565.05C1540.09 1582.89 1525.01 1602.81 1512.55 1624.35L1482.51 1676.33L1457.15 1739.33C1438.14 1786.55 1426.13 1836.3 1421.5 1886.98L1416.29 1944.03V2024.13L1428.49 2135.25L1363.42 2024.13L1329.73 1955.58L1281.52 1810.54L1266.99 1873.32L1253.63 1944.03L1248.4 2024.13V2109.27V2179.27L1253.63 2245.65L1260.05 2284.51C1264.67 2312.43 1271.55 2339.94 1280.62 2366.75L1281.52 2369.4L1290.26 2392.81C1295.65 2407.24 1302.27 2421.19 1310.03 2434.5C1323.1 2456.89 1332.88 2481.04 1339.07 2506.21L1346.63 2536.92C1353.11 2563.26 1364.95 2587.98 1381.4 2609.54L1386.28 2615.94C1401.44 2635.8 1420.95 2651.9 1443.32 2663.02L1453.38 2668.02C1469.29 2675.92 1486.82 2680.04 1504.59 2680.04H1547.57H1563.11C1575.58 2680.04 1588.01 2678.88 1600.26 2676.57C1626.07 2671.71 1650.69 2661.84 1672.7 2647.5L1688.4 2637.28C1703.69 2627.32 1718 2615.93 1731.12 2603.25C1749.26 2585.73 1765 2565.89 1777.94 2544.24L1786.5 2529.93C1796.83 2512.65 1805.88 2494.63 1813.58 2476.03L1823.51 2452.02L1841.52 2395.02L1849.07 2359.66L1853.72 2326.47L1858.36 2286.06V2245.65L1853.72 2169.16L1847.62 2135.25L1841.52 2101.34L1829.61 2062.73L1828.92 2060.5C1821.45 2036.29 1812.16 2012.67 1801.14 1989.85L1784.59 1955.58L1766.58 1925.63L1763.56 1920.61C1753.58 1904.02 1742.36 1888.21 1729.98 1873.32L1711.39 1850.95L1674.5 1791.06L1642.49 1747.75C1631.44 1732.79 1623.83 1715.58 1620.2 1697.34C1615.63 1674.4 1617.53 1650.65 1625.68 1628.73L1639.36 1591.91Z" fill="#FFF28C"/>
<path d="M1171.19 1360.73L1164.79 1342.79L1172.62 1347.78L1175.59 1350.02L1177.63 1351.84C1178.68 1352.78 1179.63 1353.83 1180.46 1354.97L1182.49 1357.76L1183.3 1358.89C1185.35 1361.75 1186.61 1365.1 1186.95 1368.6L1187.21 1371.32C1187.34 1372.7 1187.33 1374.09 1187.17 1375.46L1186.34 1382.86C1186.24 1383.72 1185.88 1384.53 1185.3 1385.18C1184.61 1385.95 1183.66 1386.44 1182.63 1386.55L1172.13 1387.66L1169.68 1387.59C1166.5 1387.49 1163.4 1386.63 1160.62 1385.08L1160.26 1384.88C1155.29 1382.12 1151.74 1377.36 1150.5 1371.81L1146.17 1352.4L1150.99 1357.88C1151.98 1359 1153.09 1360.01 1154.31 1360.88L1158.85 1364.16C1160.51 1365.35 1162.35 1366.28 1164.29 1366.92L1164.95 1367.14C1168.88 1368.42 1172.58 1364.63 1171.19 1360.73Z" fill="#FFF28C"/>
<path d="M1692.8 977.591L1684.57 962.505L1683.22 970.774L1682.95 974.117L1682.95 976.588C1682.95 977.862 1683.08 979.131 1683.35 980.376L1684.01 983.415L1684.28 984.639C1684.97 987.738 1686.47 990.598 1688.63 992.929L1690.3 994.739C1691.15 995.657 1692.09 996.484 1693.11 997.207L1698.6 1001.09C1699.24 1001.54 1700 1001.78 1700.78 1001.78C1701.71 1001.78 1702.61 1001.43 1703.31 1000.81L1710.36 994.412L1711.79 992.715C1713.63 990.517 1714.92 987.91 1715.54 985.113L1715.63 984.749C1716.75 979.743 1715.68 974.495 1712.69 970.327L1702.23 955.747L1703.02 962.288C1703.18 963.627 1703.19 964.98 1703.05 966.321L1702.52 971.346C1702.33 973.182 1701.85 974.978 1701.11 976.67L1700.87 977.239C1699.37 980.661 1694.59 980.87 1692.8 977.591Z" fill="#FFF28C"/>
<path d="M859.048 397.605L850.813 382.519L849.465 390.788L849.195 394.131L849.195 396.602C849.195 397.875 849.33 399.145 849.598 400.39L850.253 403.429L850.527 404.653C851.218 407.751 852.717 410.612 854.873 412.943L856.546 414.752C857.395 415.671 858.338 416.498 859.359 417.221L864.844 421.103C865.481 421.554 866.242 421.796 867.022 421.796C867.957 421.796 868.86 421.448 869.553 420.82L876.608 414.426L878.03 412.728C879.872 410.531 881.161 407.924 881.789 405.126L881.871 404.763C882.996 399.757 881.929 394.509 878.938 390.34L868.476 375.76L869.265 382.302C869.426 383.641 869.436 384.993 869.295 386.334L868.767 391.36C868.574 393.196 868.099 394.992 867.359 396.683L867.11 397.253C865.613 400.675 860.838 400.883 859.048 397.605Z" fill="#FFF28C"/>
<path d="M1301.05 218.605L1292.81 203.519L1291.47 211.788L1291.2 215.131L1291.2 217.602C1291.2 218.875 1291.33 220.145 1291.6 221.39L1292.25 224.429L1292.53 225.653C1293.22 228.751 1294.72 231.612 1296.87 233.943L1298.55 235.752C1299.4 236.671 1300.34 237.498 1301.36 238.221L1306.84 242.103C1307.48 242.554 1308.24 242.796 1309.02 242.796C1309.96 242.796 1310.86 242.448 1311.55 241.82L1318.61 235.426L1320.03 233.728C1321.87 231.531 1323.16 228.924 1323.79 226.126L1323.87 225.763C1325 220.757 1323.93 215.509 1320.94 211.34L1310.48 196.76L1311.27 203.302C1311.43 204.641 1311.44 205.993 1311.3 207.334L1310.77 212.36C1310.57 214.196 1310.1 215.992 1309.36 217.683L1309.11 218.253C1307.61 221.675 1302.84 221.883 1301.05 218.605Z" fill="#FFF28C"/>
<path d="M1970.05 355.605L1961.81 340.519L1960.46 348.788L1960.19 352.131L1960.19 354.602C1960.19 355.875 1960.33 357.145 1960.6 358.39L1961.25 361.429L1961.53 362.653C1962.22 365.751 1963.72 368.612 1965.87 370.943L1967.55 372.752C1968.4 373.671 1969.34 374.498 1970.36 375.221L1975.84 379.103C1976.48 379.554 1977.24 379.796 1978.02 379.796C1978.96 379.796 1979.86 379.448 1980.55 378.82L1987.61 372.426L1989.03 370.728C1990.87 368.531 1992.16 365.924 1992.79 363.126L1992.87 362.763C1994 357.757 1992.93 352.509 1989.94 348.34L1979.48 333.76L1980.26 340.302C1980.43 341.641 1980.44 342.993 1980.3 344.334L1979.77 349.36C1979.57 351.196 1979.1 352.992 1978.36 354.683L1978.11 355.253C1976.61 358.675 1971.84 358.883 1970.05 355.605Z" fill="#FFF28C"/>
<path d="M2116.41 1537.59L2125.54 1520.87L2127.03 1530.04L2127.33 1533.74L2127.33 1536.48C2127.33 1537.89 2127.18 1539.3 2126.88 1540.68L2126.16 1544.05L2125.86 1545.4C2125.09 1548.84 2123.43 1552.01 2121.04 1554.59L2119.18 1556.6C2118.24 1557.61 2117.2 1558.53 2116.07 1559.33L2109.99 1563.63C2109.28 1564.13 2108.44 1564.4 2107.57 1564.4C2106.54 1564.4 2105.54 1564.02 2104.77 1563.32L2096.95 1556.23L2095.37 1554.35C2093.33 1551.92 2091.91 1549.03 2091.21 1545.93L2091.12 1545.53C2089.87 1539.98 2091.05 1534.16 2094.37 1529.54L2105.96 1513.38L2105.09 1520.63C2104.91 1522.12 2104.9 1523.62 2105.05 1525.1L2105.64 1530.67C2105.85 1532.71 2106.38 1534.7 2107.2 1536.57L2107.48 1537.2C2109.14 1540.99 2114.43 1541.23 2116.41 1537.59Z" fill="#FFF28C"/>
<path d="M986.411 1365.59L995.538 1348.87L997.032 1358.04L997.331 1361.74L997.331 1364.48C997.331 1365.89 997.181 1367.3 996.884 1368.68L996.158 1372.05L995.855 1373.4C995.089 1376.84 993.427 1380.01 991.039 1382.59L989.184 1384.6C988.243 1385.61 987.199 1386.53 986.067 1387.33L979.988 1391.63C979.283 1392.13 978.439 1392.4 977.575 1392.4C976.538 1392.4 975.538 1392.02 974.77 1391.32L966.951 1384.23L965.375 1382.35C963.334 1379.92 961.906 1377.03 961.209 1373.93L961.118 1373.53C959.871 1367.98 961.054 1362.16 964.369 1357.54L975.963 1341.38L975.089 1348.63C974.91 1350.12 974.899 1351.62 975.055 1353.1L975.641 1358.67C975.855 1360.71 976.381 1362.7 977.201 1364.57L977.477 1365.2C979.135 1368.99 984.428 1369.23 986.411 1365.59Z" fill="#FFF28C"/>
<path d="M1764.41 1214.59L1773.54 1197.87L1775.03 1207.04L1775.33 1210.74L1775.33 1213.48C1775.33 1214.89 1775.18 1216.3 1774.88 1217.68L1774.16 1221.05L1773.86 1222.4C1773.09 1225.84 1771.43 1229.01 1769.04 1231.59L1767.18 1233.6C1766.24 1234.61 1765.2 1235.53 1764.07 1236.33L1757.99 1240.63C1757.28 1241.13 1756.44 1241.4 1755.57 1241.4C1754.54 1241.4 1753.54 1241.02 1752.77 1240.32L1744.95 1233.23L1743.37 1231.35C1741.33 1228.92 1739.91 1226.03 1739.21 1222.93L1739.12 1222.53C1737.87 1216.98 1739.05 1211.16 1742.37 1206.54L1753.96 1190.38L1753.09 1197.63C1752.91 1199.12 1752.9 1200.62 1753.05 1202.1L1753.64 1207.67C1753.85 1209.71 1754.38 1211.7 1755.2 1213.57L1755.48 1214.2C1757.14 1217.99 1762.43 1218.23 1764.41 1214.59Z" fill="#FFF28C"/>
<path d="M1336.33 968.593L1327.2 951.874L1325.71 961.038L1325.41 964.743L1325.41 967.481C1325.41 968.892 1325.56 970.299 1325.85 971.679L1326.58 975.047L1326.88 976.404C1327.65 979.838 1329.31 983.007 1331.7 985.59L1333.55 987.596C1334.5 988.614 1335.54 989.531 1336.67 990.332L1342.75 994.634C1343.46 995.134 1344.3 995.402 1345.16 995.402C1346.2 995.402 1347.2 995.017 1347.97 994.32L1355.79 987.234L1357.36 985.353C1359.4 982.917 1360.83 980.029 1361.53 976.928L1361.62 976.525C1362.87 970.978 1361.68 965.162 1358.37 960.542L1346.77 944.384L1347.65 951.633C1347.83 953.117 1347.84 954.616 1347.68 956.102L1347.1 961.672C1346.88 963.707 1346.36 965.697 1345.54 967.572L1345.26 968.202C1343.6 971.995 1338.31 972.226 1336.33 968.593Z" fill="#FFF28C"/>
<path d="M625.327 917.593L616.2 900.874L614.706 910.038L614.407 913.743L614.407 916.481C614.407 917.892 614.557 919.299 614.854 920.679L615.58 924.047L615.883 925.404C616.649 928.838 618.311 932.007 620.699 934.59L622.554 936.596C623.495 937.614 624.54 938.531 625.671 939.332L631.75 943.634C632.456 944.134 633.299 944.402 634.164 944.402C635.2 944.402 636.2 944.017 636.969 943.32L644.788 936.234L646.364 934.353C648.404 931.917 649.833 929.029 650.53 925.928L650.62 925.525C651.867 919.978 650.684 914.162 647.369 909.542L635.775 893.384L636.649 900.633C636.828 902.117 636.84 903.616 636.683 905.102L636.098 910.672C635.884 912.707 635.357 914.697 634.537 916.572L634.262 917.202C632.603 920.995 627.31 921.226 625.327 917.593Z" fill="#FFF28C"/>
<path d="M393.327 1258.59L384.2 1241.87L382.706 1251.04L382.407 1254.74L382.407 1257.48C382.407 1258.89 382.557 1260.3 382.854 1261.68L383.58 1265.05L383.883 1266.4C384.649 1269.84 386.311 1273.01 388.699 1275.59L390.554 1277.6C391.495 1278.61 392.54 1279.53 393.671 1280.33L399.75 1284.63C400.456 1285.13 401.299 1285.4 402.164 1285.4C403.2 1285.4 404.2 1285.02 404.969 1284.32L412.788 1277.23L414.364 1275.35C416.404 1272.92 417.833 1270.03 418.53 1266.93L418.62 1266.53C419.867 1260.98 418.684 1255.16 415.369 1250.54L403.775 1234.38L404.649 1241.63C404.828 1243.12 404.84 1244.62 404.683 1246.1L404.098 1251.67C403.884 1253.71 403.357 1255.7 402.537 1257.57L402.262 1258.2C400.603 1261.99 395.31 1262.23 393.327 1258.59Z" fill="#FFF28C"/>
<path d="M501.327 1794.59L492.2 1777.87L490.706 1787.04L490.407 1790.74L490.407 1793.48C490.407 1794.89 490.557 1796.3 490.854 1797.68L491.58 1801.05L491.883 1802.4C492.649 1805.84 494.311 1809.01 496.699 1811.59L498.554 1813.6C499.495 1814.61 500.54 1815.53 501.671 1816.33L507.75 1820.63C508.456 1821.13 509.299 1821.4 510.164 1821.4C511.2 1821.4 512.2 1821.02 512.969 1820.32L520.788 1813.23L522.364 1811.35C524.404 1808.92 525.833 1806.03 526.53 1802.93L526.62 1802.53C527.867 1796.98 526.684 1791.16 523.369 1786.54L511.775 1770.38L512.649 1777.63C512.828 1779.12 512.84 1780.62 512.683 1782.1L512.098 1787.67C511.884 1789.71 511.357 1791.7 510.537 1793.57L510.262 1794.2C508.603 1797.99 503.31 1798.23 501.327 1794.59Z" fill="#FFF28C"/>
<path d="M1217.33 597.593L1208.2 580.874L1206.71 590.038L1206.41 593.743L1206.41 596.481C1206.41 597.892 1206.56 599.299 1206.85 600.679L1207.58 604.047L1207.88 605.404C1208.65 608.838 1210.31 612.007 1212.7 614.59L1214.55 616.596C1215.5 617.614 1216.54 618.531 1217.67 619.332L1223.75 623.634C1224.46 624.134 1225.3 624.402 1226.16 624.402C1227.2 624.402 1228.2 624.017 1228.97 623.32L1236.79 616.234L1238.36 614.353C1240.4 611.917 1241.83 609.029 1242.53 605.928L1242.62 605.525C1243.87 599.978 1242.68 594.162 1239.37 589.542L1227.77 573.384L1228.65 580.633C1228.83 582.117 1228.84 583.616 1228.68 585.102L1228.1 590.672C1227.88 592.707 1227.36 594.697 1226.54 596.572L1226.26 597.202C1224.6 600.995 1219.31 601.226 1217.33 597.593Z" fill="#FFF28C"/>
<path d="M1983.33 623.593L1974.2 606.874L1972.71 616.038L1972.41 619.743L1972.41 622.481C1972.41 623.892 1972.56 625.299 1972.85 626.679L1973.58 630.047L1973.88 631.404C1974.65 634.838 1976.31 638.007 1978.7 640.59L1980.55 642.596C1981.5 643.614 1982.54 644.531 1983.67 645.332L1989.75 649.634C1990.46 650.134 1991.3 650.402 1992.16 650.402C1993.2 650.402 1994.2 650.017 1994.97 649.32L2002.79 642.234L2004.36 640.353C2006.4 637.917 2007.83 635.029 2008.53 631.928L2008.62 631.525C2009.87 625.978 2008.68 620.162 2005.37 615.542L1993.77 599.384L1994.65 606.633C1994.83 608.117 1994.84 609.616 1994.68 611.102L1994.1 616.672C1993.88 618.707 1993.36 620.697 1992.54 622.572L1992.26 623.202C1990.6 626.995 1985.31 627.226 1983.33 623.593Z" fill="#FFF28C"/>
<path d="M2390.33 1066.59L2381.2 1049.87L2379.71 1059.04L2379.41 1062.74L2379.41 1065.48C2379.41 1066.89 2379.56 1068.3 2379.85 1069.68L2380.58 1073.05L2380.88 1074.4C2381.65 1077.84 2383.31 1081.01 2385.7 1083.59L2387.55 1085.6C2388.5 1086.61 2389.54 1087.53 2390.67 1088.33L2396.75 1092.63C2397.46 1093.13 2398.3 1093.4 2399.16 1093.4C2400.2 1093.4 2401.2 1093.02 2401.97 1092.32L2409.79 1085.23L2411.36 1083.35C2413.4 1080.92 2414.83 1078.03 2415.53 1074.93L2415.62 1074.53C2416.87 1068.98 2415.68 1063.16 2412.37 1058.54L2400.77 1042.38L2401.65 1049.63C2401.83 1051.12 2401.84 1052.62 2401.68 1054.1L2401.1 1059.67C2400.88 1061.71 2400.36 1063.7 2399.54 1065.57L2399.26 1066.2C2397.6 1069.99 2392.31 1070.23 2390.33 1066.59Z" fill="#FFF28C"/>
<path d="M2421.33 1688.59L2412.2 1671.87L2410.71 1681.04L2410.41 1684.74L2410.41 1687.48C2410.41 1688.89 2410.56 1690.3 2410.85 1691.68L2411.58 1695.05L2411.88 1696.4C2412.65 1699.84 2414.31 1703.01 2416.7 1705.59L2418.55 1707.6C2419.5 1708.61 2420.54 1709.53 2421.67 1710.33L2427.75 1714.63C2428.46 1715.13 2429.3 1715.4 2430.16 1715.4C2431.2 1715.4 2432.2 1715.02 2432.97 1714.32L2440.79 1707.23L2442.36 1705.35C2444.4 1702.92 2445.83 1700.03 2446.53 1696.93L2446.62 1696.53C2447.87 1690.98 2446.68 1685.16 2443.37 1680.54L2431.77 1664.38L2432.65 1671.63C2432.83 1673.12 2432.84 1674.62 2432.68 1676.1L2432.1 1681.67C2431.88 1683.71 2431.36 1685.7 2430.54 1687.57L2430.26 1688.2C2428.6 1691.99 2423.31 1692.23 2421.33 1688.59Z" fill="#FFF28C"/>
<path d="M2400.33 2238.59L2391.2 2221.87L2389.71 2231.04L2389.41 2234.74L2389.41 2237.48C2389.41 2238.89 2389.56 2240.3 2389.85 2241.68L2390.58 2245.05L2390.88 2246.4C2391.65 2249.84 2393.31 2253.01 2395.7 2255.59L2397.55 2257.6C2398.5 2258.61 2399.54 2259.53 2400.67 2260.33L2406.75 2264.63C2407.46 2265.13 2408.3 2265.4 2409.16 2265.4C2410.2 2265.4 2411.2 2265.02 2411.97 2264.32L2419.79 2257.23L2421.36 2255.35C2423.4 2252.92 2424.83 2250.03 2425.53 2246.93L2425.62 2246.53C2426.87 2240.98 2425.68 2235.16 2422.37 2230.54L2410.77 2214.38L2411.65 2221.63C2411.83 2223.12 2411.84 2224.62 2411.68 2226.1L2411.1 2231.67C2410.88 2233.71 2410.36 2235.7 2409.54 2237.57L2409.26 2238.2C2407.6 2241.99 2402.31 2242.23 2400.33 2238.59Z" fill="#FFF28C"/>
<path d="M2691.33 993.593L2682.2 976.874L2680.71 986.038L2680.41 989.743L2680.41 992.481C2680.41 993.892 2680.56 995.299 2680.85 996.679L2681.58 1000.05L2681.88 1001.4C2682.65 1004.84 2684.31 1008.01 2686.7 1010.59L2688.55 1012.6C2689.5 1013.61 2690.54 1014.53 2691.67 1015.33L2697.75 1019.63C2698.46 1020.13 2699.3 1020.4 2700.16 1020.4C2701.2 1020.4 2702.2 1020.02 2702.97 1019.32L2710.79 1012.23L2712.36 1010.35C2714.4 1007.92 2715.83 1005.03 2716.53 1001.93L2716.62 1001.53C2717.87 995.978 2716.68 990.162 2713.37 985.542L2701.77 969.384L2702.65 976.633C2702.83 978.117 2702.84 979.616 2702.68 981.102L2702.1 986.672C2701.88 988.707 2701.36 990.697 2700.54 992.572L2700.26 993.202C2698.6 996.995 2693.31 997.226 2691.33 993.593Z" fill="#FFF28C"/>
<path d="M906.328 1688.59L897.201 1671.87L895.706 1681.04L895.407 1684.74L895.407 1687.48C895.407 1688.89 895.557 1690.3 895.855 1691.68L896.581 1695.05L896.883 1696.4C897.65 1699.84 899.311 1703.01 901.7 1705.59L903.555 1707.6C904.496 1708.61 905.54 1709.53 906.672 1710.33L912.75 1714.63C913.456 1715.13 914.299 1715.4 915.164 1715.4C916.201 1715.4 917.201 1715.02 917.969 1714.32L925.788 1707.23L927.364 1705.35C929.405 1702.92 930.833 1700.03 931.53 1696.93L931.621 1696.53C932.868 1690.98 931.685 1685.16 928.37 1680.54L916.775 1664.38L917.65 1671.63C917.829 1673.12 917.84 1674.62 917.684 1676.1L917.098 1681.67C916.884 1683.71 916.358 1685.7 915.538 1687.57L915.262 1688.2C913.603 1691.99 908.311 1692.23 906.328 1688.59Z" fill="#FFF28C"/>
<path d="M2056.41 1197.59L2065.54 1180.87L2067.03 1190.04L2067.33 1193.74L2067.33 1196.48C2067.33 1197.89 2067.18 1199.3 2066.88 1200.68L2066.16 1204.05L2065.86 1205.4C2065.09 1208.84 2063.43 1212.01 2061.04 1214.59L2059.18 1216.6C2058.24 1217.61 2057.2 1218.53 2056.07 1219.33L2049.99 1223.63C2049.28 1224.13 2048.44 1224.4 2047.57 1224.4C2046.54 1224.4 2045.54 1224.02 2044.77 1223.32L2036.95 1216.23L2035.37 1214.35C2033.33 1211.92 2031.91 1209.03 2031.21 1205.93L2031.12 1205.53C2029.87 1199.98 2031.05 1194.16 2034.37 1189.54L2045.96 1173.38L2045.09 1180.63C2044.91 1182.12 2044.9 1183.62 2045.05 1185.1L2045.64 1190.67C2045.85 1192.71 2046.38 1194.7 2047.2 1196.57L2047.48 1197.2C2049.14 1200.99 2054.43 1201.23 2056.41 1197.59Z" fill="#FFF28C"/>
<path d="M1117.73 2418.65L1006.89 2177.5L995.831 2304.46L989.998 2344.45C987.739 2379.51 989.213 2414.71 994.393 2449.46L995.526 2457.06C1002.97 2504.63 1022.87 2549.38 1053.22 2586.75L1057.18 2591.63C1070.16 2607.62 1084.77 2622.2 1100.77 2635.15L1125.52 2655.18C1153.86 2678.11 1186.65 2694.9 1221.82 2704.5L1344.54 2731.46C1359.8 2734.81 1375.38 2736.5 1391.01 2736.5L1540 2736.5L1420.71 2615.42C1382.36 2576.48 1368.11 2519.82 1383.5 2467.37C1395.3 2427.18 1389.81 2383.89 1368.37 2347.91L1221.81 2102L1233.38 2183C1238.97 2222.22 1238.43 2262.06 1231.77 2301.1C1225.17 2339.72 1212.67 2377.1 1194.69 2411.91L1190.35 2420.31C1174.9 2450.23 1131.79 2449.24 1117.73 2418.65Z" fill="#B4D0D1"/>
<path d="M1945.32 2386.62L2046.03 2145L2057.08 2304.47L2062.92 2344.45L2064.83 2374.16C2065.82 2389.47 2065.17 2404.84 2062.91 2420.02L2057.39 2457.06L2055.05 2471.99C2049.14 2509.78 2033.33 2545.33 2009.22 2575.03L1990.5 2598.08C1981 2609.78 1970.31 2620.46 1958.6 2629.94L1927.66 2654.97C1899.29 2677.92 1865.6 2693.33 1829.69 2699.78L1652.48 2731.59C1639.85 2733.86 1627.05 2735 1614.21 2735L1597 2735L1606.5 2722L1658.84 2645.66C1668.82 2631.11 1676.38 2615.04 1681.24 2598.07C1689.8 2568.2 1689.7 2536.51 1680.95 2506.7L1675.97 2489.73C1659.92 2435.03 1666.09 2376.2 1693.13 2326.01L1831.1 2070L1814.68 2211.34C1812.3 2231.8 1812.85 2252.49 1816.32 2272.79L1825.45 2326.3C1829.2 2348.22 1836.3 2369.45 1846.5 2389.21L1847.23 2390.63C1868.35 2431.52 1927.61 2429.1 1945.32 2386.62Z" fill="#B4D0D1"/>
<path d="M1606.16 2426.87L1702.3 2211.24L1726.93 2328.34L1733.39 2375.44L1733.6 2378.63C1736.11 2417.38 1734.81 2456.3 1729.71 2494.8L1728.39 2504.77C1720.89 2558.55 1698.66 2609.2 1664.16 2651.14L1643.76 2675.93L1631.5 2695.5L1618.5 2719.5L1611.11 2730.47C1610.73 2731.03 1610.66 2731.75 1610.92 2732.37C1611.45 2733.66 1610.55 2735.09 1609.16 2735.17L1574 2737.3L1546 2737.3C1526.7 2737.3 1508.09 2730.09 1493.82 2717.1L1423.73 2653.29C1410.32 2641.08 1397.96 2627.76 1386.79 2613.47L1381.75 2607.02C1357.72 2576.29 1340.19 2541.01 1330.21 2503.31C1309.87 2426.46 1322.19 2344.62 1364.26 2277.16L1488.46 2078L1478.14 2144.31C1470.39 2194.1 1470.47 2244.8 1478.38 2294.57C1485.07 2336.62 1497.29 2377.61 1514.72 2416.47L1519.43 2426.97C1536.24 2464.43 1589.44 2464.37 1606.16 2426.87Z" fill="#B4D0D1"/>
</svg>
