<svg width="446" height="687" viewBox="0 0 446 687" fill="none" xmlns="http://www.w3.org/2000/svg">
<path d="M184.8 38.3312L174.152 0L206.647 22.9371L227.461 37.6295C235.193 43.0876 241.959 49.7996 247.479 57.488L256.981 70.7229L265.901 83.1471L282.891 111.288L298.608 142.932L307.683 161.206C312.077 170.052 314.894 179.597 316.008 189.412L318.784 213.868L323.244 253.158V294.017C323.244 299.05 322.797 304.072 321.908 309.025L314.324 351.278L337.101 313.316C342.264 304.711 345.861 295.26 347.727 285.4L352.346 260.985C353.331 255.778 353.827 250.491 353.827 245.193V161.834L368.693 182.01L383.56 202.187L398.851 227.248L411.17 253.158L420.09 277.37L429.01 301.581L435.593 326.43L440.383 344.506C441.577 349.013 442.398 353.611 442.838 358.252L445.229 383.488C445.742 388.904 445.733 394.356 445.204 399.771L442.177 430.709L437.292 454.495L434.081 470.133C432.968 475.553 431.328 480.851 429.185 485.951L421.789 503.555L412.927 522.653C410.628 527.608 407.856 532.33 404.65 536.753L386.533 561.748L361.897 594.667L330.488 627.802C325.677 632.877 320.258 637.339 314.353 641.086L284.414 660.086C280.855 662.344 277.133 664.335 273.279 666.041L253.158 674.947L243.671 679.146C232.842 683.939 221.13 686.415 209.287 686.415H208.586C204.326 686.415 200.072 686.095 195.86 685.457L174.227 682.179C164.898 680.765 155.869 677.807 147.512 673.427L114.188 655.958C109.715 653.614 105.46 650.875 101.473 647.774L82.2021 632.786C76.1348 628.067 70.736 622.546 66.1536 616.375L45.3652 588.38C42.5943 584.648 40.1344 580.696 38.0101 576.562L25.4857 552.19L12.3181 518.634L6.79619 497.821L3.3981 478.282L0.853814 460.472C0.285321 456.492 0 452.478 0 448.458V430.709L2.93548 391.813C3.24349 387.732 3.84601 383.679 4.73834 379.685L7.8581 365.72L10.9624 351.825C11.865 347.784 13.0617 343.816 14.5429 339.95L21.0257 323.031L27.0745 307.246C28.8437 302.628 31.0126 298.175 33.5565 293.935L41.839 280.13L53.9448 259.954L67.1124 242.327L76.2118 230.145C78.9196 226.52 81.9127 223.117 85.1625 219.969L93.8724 211.531L107.465 198.364L153.273 154.034C157.833 149.62 161.885 144.709 165.352 139.393L174.715 125.037C177.731 120.413 180.289 115.505 182.352 110.384L183.112 108.5C188.112 96.092 190.111 82.6786 188.947 69.3519L187.577 53.6733C187.123 48.4849 186.194 43.3493 184.8 38.3312Z" fill="#FE6323"/>
<path d="M197.259 221.828L190.859 198.788L222.505 221.126C230.237 226.585 237.003 233.296 242.523 240.985L254.024 257.004C256.652 260.664 258.984 264.527 260.999 268.557L277.578 301.714C282.029 310.618 284.882 320.234 286.004 330.124L290.254 367.56V398.993L284.307 442.602L316.023 398.993L328.975 377.777C331.286 373.992 333.297 370.032 334.989 365.934L355.95 315.173L363.03 339.809L368.088 361.362C369.056 365.488 369.715 369.682 370.057 373.907L372.091 398.993V432.407V459.875L369.543 485.927L364.703 509.494C363.59 514.914 361.95 520.212 359.807 525.312L355.95 534.492L351.195 544.74C348.896 549.695 346.124 554.417 342.918 558.84L332.447 573.287L316.023 595.233L297.498 614.775C292.687 619.851 287.268 624.313 281.363 628.06L266.149 637.715C262.59 639.973 258.868 641.964 255.014 643.67L243.53 648.753L237.52 651.413C230.093 654.7 222.06 656.398 213.938 656.398C211.016 656.398 208.098 656.179 205.209 655.741L195.606 654.286C186.277 652.872 177.248 649.915 168.891 645.534L153.124 637.269C148.651 634.924 144.396 632.185 140.409 629.084L132.607 623.016C126.54 618.297 121.141 612.776 116.558 606.605L106.389 592.91C103.618 589.179 101.158 585.227 99.0339 581.093L91.7483 566.915L82.9699 544.544L79.2886 530.669L77.0232 517.643L75.6116 507.762C75.0431 503.782 74.7578 499.768 74.7578 495.748V485.927L76.5606 462.04C76.8686 457.959 77.4711 453.906 78.3634 449.912L79.9965 442.602L81.6142 435.361C82.5168 431.321 83.7135 427.352 85.1947 423.486L88.775 414.143L91.9212 405.932C93.6904 401.315 95.8593 396.861 98.4032 392.621L102.651 385.542L110.721 372.091L119.499 360.339L124.21 354.034C126.917 350.409 129.911 347.006 133.16 343.858L137.339 339.809L146.401 331.031L174.652 303.691C179.213 299.278 183.264 294.367 186.731 289.051L191.02 282.475C193.173 279.174 194.999 275.67 196.473 272.014C200.043 263.155 201.47 253.579 200.639 244.065L200.036 237.17C199.583 231.982 198.653 226.846 197.259 221.828Z" fill="#FFA624"/>
<path d="M245.319 543.328L284.239 472.031L290.61 511.109L291.886 526.908L291.886 538.586C291.886 544.604 291.246 550.605 289.978 556.487L286.882 570.85L285.592 576.635C282.325 591.278 275.238 604.795 265.052 615.811L257.144 624.364C253.131 628.704 248.676 632.613 243.851 636.028L217.929 654.378C214.92 656.508 211.324 657.652 207.637 657.652C203.215 657.652 198.951 656.007 195.674 653.038L162.333 622.821L155.612 614.799C146.909 604.412 140.818 592.094 137.846 578.873L137.46 577.153C132.142 553.497 137.187 528.695 151.323 508.995L200.766 440.091L197.037 471.006C196.274 477.333 196.225 483.725 196.891 490.063L199.389 513.813C200.301 522.491 202.545 530.977 206.042 538.972L207.219 541.662C214.292 557.834 236.861 558.821 245.319 543.328Z" fill="#FFF28C"/>
</svg>
