<svg width="1266" height="1166" viewBox="0 0 1266 1166" fill="none" xmlns="http://www.w3.org/2000/svg">
<path d="M823.453 194.568L852.022 159.306L802.11 169.668L790.584 172.061C765.172 177.336 740.82 186.821 718.535 200.124L701.703 210.171L667.357 234.569L632.719 263.737C609.802 283.034 590.426 306.18 575.462 332.135L572.767 336.81L547.453 380.715L534.308 410.961C526.596 428.707 520.476 447.102 516.02 465.931L507.815 500.604L503.151 465.052C499.681 438.605 500.925 411.753 506.823 385.74C509.938 372.005 514.331 358.591 519.945 345.673L558.157 257.747L530.375 273.868L502.594 289.99L471.818 311.636L444.103 335.799L421.25 359.701L398.397 383.603L377.965 409.448L372.396 416.492C362.504 429.004 353.659 442.31 345.95 456.274C336.955 472.567 329.545 489.688 323.824 507.399L316.957 528.657L310.547 559.112C306.285 579.367 304.011 599.99 303.758 620.687L303.71 624.699L303.855 630.626C304.368 651.624 306.906 672.523 311.433 693.033L315.423 711.109L327.565 762.388L338.335 792.014C347.522 817.284 359.795 841.323 374.873 863.586L376.121 865.428C385.209 878.846 395.284 891.569 406.261 903.492L414.37 912.299L422.927 921.594C433.504 933.081 446.365 942.231 460.686 948.455C465.838 950.694 471.151 952.542 476.58 953.984L484.75 956.154C508.82 962.546 533.788 964.885 558.627 963.072L575.065 961.872C589.741 960.802 604.291 958.424 618.544 954.768C640.237 949.204 661.074 940.722 680.485 929.554L688.268 925.077C703.127 916.527 717.26 906.772 730.525 895.911L744.691 884.311L777.31 851.595L794.433 829.951L808.408 808.72L812.384 802.263C820.487 789.102 827.646 775.382 833.806 761.207L836.705 754.537L847.948 722.201C853.116 707.338 857.204 692.121 860.178 676.669L860.666 674.133L861.103 671.865C864.112 656.235 865.974 640.406 866.675 624.505L866.996 617.229L867.111 614.613C867.948 595.62 867.126 576.591 864.653 557.741L864.446 556.17L860.524 526.27L854.051 498.824L853.145 494.984C849.44 479.271 844.485 463.88 838.328 448.956L829.077 426.535L802.366 361.888C796.278 347.153 791.86 331.782 789.195 316.063L787.614 306.735C786.347 299.264 785.812 291.687 786.016 284.112C786.509 265.758 791.33 247.78 800.087 231.642L806.152 220.463C811.113 211.32 816.904 202.651 823.453 194.568Z" fill="#FE6323"/>
<path d="M442 194.818L413.431 159.556L463.343 169.918L474.869 172.31C500.281 177.586 524.633 187.071 546.918 200.374L563.75 210.421L598.096 234.819L632.734 263.987C655.651 283.284 675.027 306.43 689.991 332.385L692.686 337.059L718 380.964L731.145 411.211C738.857 428.956 744.977 447.352 749.433 466.181L757.638 500.854L762.302 465.302C765.772 438.855 764.529 412.003 758.63 385.99C755.515 372.255 751.122 358.84 745.509 345.923L707.296 257.997L735.078 274.118L762.859 290.239L793.635 311.885L821.35 336.049L844.203 359.951L867.056 383.853L887.488 409.698L893.057 416.742C902.949 429.254 911.795 442.56 919.503 456.523C928.499 472.817 935.908 489.937 941.629 507.648L948.496 528.907L954.906 559.362C959.168 579.617 961.442 600.239 961.695 620.936L961.744 624.948L961.599 630.876C961.085 651.873 958.547 672.773 954.02 693.283L950.03 711.359L937.888 762.638L927.118 792.264C917.931 817.534 905.658 841.573 890.58 863.835L889.332 865.677C880.244 879.096 870.169 891.819 859.192 903.742L851.083 912.549L842.526 921.844C831.949 933.331 819.088 942.481 804.767 948.704C799.615 950.943 794.302 952.792 788.874 954.233L780.704 956.403C756.633 962.796 731.665 965.134 706.826 963.322L690.388 962.122C675.712 961.051 661.162 958.674 646.909 955.018C625.216 949.454 604.379 940.972 584.968 929.804L577.186 925.326C562.326 916.777 548.193 907.022 534.928 896.161L520.762 884.561L488.143 851.844L471.02 830.201L457.045 808.97L453.07 802.513C444.966 789.352 437.808 775.632 431.647 761.456L428.748 754.786L417.505 722.451C412.337 707.588 408.249 692.371 405.275 676.918L404.787 674.383L404.35 672.115C401.341 656.485 399.479 640.656 398.778 624.754L398.457 617.479L398.342 614.863C397.505 595.87 398.328 576.841 400.801 557.991L401.007 556.42L404.929 526.52L411.402 499.074L412.308 495.234C416.013 479.521 420.968 464.13 427.125 449.206L436.376 426.785L463.087 362.138C469.175 347.403 473.593 332.032 476.258 316.313L477.84 306.985C479.106 299.514 479.641 291.937 479.438 284.361C478.944 266.008 474.123 248.03 465.367 231.892L459.301 220.713C454.34 211.569 448.549 202.901 442 194.818Z" fill="#FE6323"/>
<path d="M548.914 55.6242L532.724 6.91246L585.912 38.8716L599.836 47.2379C625.833 62.8584 649.061 82.6792 668.577 105.895L683.315 123.426L711.488 163.217L737.674 208.049C754.968 237.659 766.384 270.329 771.295 304.265L771.97 308.928L780.081 364.975L780.65 401.286C780.994 423.166 779.137 445.024 775.109 466.533L767.821 505.45L791.696 469.152C807.915 444.495 819.204 416.93 824.942 387.981C828.076 372.169 829.529 356.071 829.276 339.954L827.609 233.663L852.16 262.124L876.712 290.585L902.062 326.017L922.611 362.739L937.613 397.119L952.615 431.499L963.845 466.849L967.009 476.811C972.375 493.7 976.166 511.05 978.335 528.638C980.888 549.338 981.18 570.254 979.206 591.017L976.856 615.734L969.471 649.858C964.562 672.541 957.216 694.627 947.563 715.732L945.439 720.376L941.141 728.864C931.117 748.66 919.102 767.383 905.282 784.744L889.594 804.45L850.396 852.13L816.957 884.228C798.155 902.276 777.26 918.009 754.719 931.092L717.672 952.592L675.927 969.644L671.796 971.332C646.939 981.485 620.406 986.911 593.559 987.333L574.302 985.067C541.785 981.24 510.028 972.547 480.097 959.278L462.942 951.673C447.176 944.684 432.025 936.38 417.651 926.85C394.575 911.55 373.671 893.204 355.506 872.309L348.776 864.567C336.465 850.405 325.397 835.209 315.695 819.146L304.113 799.971L282.015 752.342L272.598 722.732L266.651 694.89L265.22 686.858C262.151 669.632 260.472 652.187 260.197 634.692L260.076 626.977L262.72 589.109C263.954 571.422 266.627 553.865 270.712 536.611L271.357 533.886L272.039 531.007C276.099 513.855 281.541 497.06 288.312 480.786L291.745 472.534L293.551 468.194C301.4 449.326 311.003 431.238 322.232 414.165L324.522 410.684L343.693 381.537L364.643 356.006L368.875 350.849C380.002 337.288 392.204 324.646 405.361 313.045L407.331 311.308L429.069 292.141L492.876 235.94C506.452 223.983 518.622 210.517 529.151 195.805L536.373 185.713C541.201 178.967 545.313 171.737 548.642 164.139C557.12 144.791 560.316 123.54 557.903 102.555L556.399 89.4695C555.076 77.9601 552.567 66.6181 548.914 55.6242Z" fill="#FE6323"/>
<path d="M922.054 221.395L929.482 168.304L957.322 214.104L975.154 243.441C981.779 254.34 986.536 266.269 989.228 278.736L993.863 300.196L998.214 320.342L1004.1 364.246L1006.52 411.797L1007.93 439.255C1008.6 452.548 1006.96 465.857 1003.06 478.585L993.36 510.301L977.769 561.255L955.823 611.752C953.12 617.971 949.87 623.938 946.111 629.582L914.044 677.728L962.584 643.045C973.586 635.184 983.108 625.435 990.709 614.252L1009.53 586.558C1013.55 580.653 1017 574.385 1019.84 567.837L1064.62 464.816L1072.15 497.736L1079.69 530.656L1085.13 569.842L1086.43 608.48L1084.45 643.193L1082.47 677.907L1077.26 712.153L1073.47 737.066C1072.53 743.278 1071.08 749.4 1069.13 755.373L1058.53 787.845C1056.25 794.814 1053.31 801.549 1049.75 807.956L1029.39 844.566L1010.58 871.339L998.212 888.941C993.925 895.041 989.053 900.708 983.665 905.861L965.068 923.644L943.86 942.487C938.357 947.376 932.395 951.723 926.057 955.468L890.242 976.627L842.113 1004.08L785.498 1028.16C776.826 1031.85 767.732 1034.45 758.422 1035.91L711.217 1043.31C705.605 1044.19 699.936 1044.65 694.256 1044.69L664.606 1044.89L650.626 1044.99C634.668 1045.09 618.863 1041.86 604.227 1035.5L544.051 1009.35C537.234 1006.39 530.721 1002.77 524.605 998.541L468.065 959.475L441.458 937.785C430.291 928.68 423.847 915.009 423.932 900.601C423.952 897.337 423.636 894.08 422.989 890.881L422.677 889.34C418.912 870.721 423.866 851.28 435.986 836.653C446.321 824.181 451.577 808.128 450.529 791.964L449.163 770.895L450.913 722.351L455.267 693.663L461.562 667.69L467.984 644.312C469.419 639.089 471.222 633.973 473.381 629.005L482.915 607.069L507.433 560.576C510.006 555.698 512.928 551.012 516.176 546.555L527.532 530.972L538.832 515.466C542.118 510.958 545.728 506.696 549.635 502.714L566.734 485.286L582.688 469.026C587.355 464.27 592.427 459.93 597.849 456.057L615.499 443.445L641.297 425.012L667.039 410.299L684.827 400.131C690.121 397.105 695.648 394.507 701.355 392.362L716.651 386.612L740.522 377.639L820.945 347.456C828.952 344.451 836.597 340.558 843.737 335.85L863.019 323.137C869.23 319.041 875.028 314.35 880.329 309.129L882.279 307.209C895.123 294.56 904.798 279.056 910.517 261.96L917.245 241.848C919.471 235.192 921.081 228.346 922.054 221.395Z" fill="#FE6323"/>
<path d="M342.583 215.811L335.971 168.554L308.131 214.355L301.703 224.931C287.529 248.25 277.351 273.773 271.59 300.447L267.239 320.593L261.356 364.497L258.929 412.047C257.323 443.507 261.217 475.005 270.433 505.126L272.093 510.552L287.684 561.505L302.102 594.679C309.814 612.425 319.087 629.45 329.813 645.554L351.409 677.979L320.734 656.061C297.916 639.756 278.166 619.538 262.401 596.343C254.077 584.096 246.917 571.096 241.015 557.515L200.837 465.066L193.3 497.987L185.764 530.907L180.326 570.092L179.019 608.731L180.999 643.444L182.979 678.158L188.189 712.404L189.608 721.738C192.131 738.318 196.013 754.662 201.217 770.604C207.29 789.208 215.135 807.184 224.645 824.287L236.061 844.816L254.874 871.59L255.297 872.193C267.527 889.599 281.429 905.768 296.804 920.47L300.385 923.895L306.259 929.114C321.961 943.065 338.973 955.468 357.056 966.152L375.212 976.878L423.34 1004.33L425.881 1005.66C447.117 1016.76 469.51 1025.49 492.656 1031.7L510.637 1036.52L537.992 1040.92C554.417 1043.56 571.019 1044.94 587.655 1045.05L600.847 1045.14L633.125 1044.88C641.731 1044.88 650.233 1043 658.037 1039.38L707.946 1016.17C723.722 1008.83 738.848 1000.17 753.162 990.284L797.389 959.726L823.995 938.035C835.162 928.931 841.606 915.259 841.521 900.851C841.501 897.588 841.818 894.331 842.464 891.132L842.776 889.591C846.541 870.972 841.587 851.531 829.467 836.904C819.132 824.431 813.876 808.379 814.924 792.215L816.29 771.146L814.54 722.602L810.186 693.913L803.891 667.94L801.463 659.102C797.369 644.198 792.222 629.603 786.062 615.428L782.538 607.32L765.181 574.406C757.84 560.487 749.504 547.117 740.236 534.399L737.921 531.223L735.767 528.266C726.392 515.403 716.09 503.242 704.943 491.88L698.719 485.537L695.762 482.523C682.447 468.953 667.973 456.571 652.505 445.519L649.954 443.696L624.156 425.262L598.414 410.549L594.813 408.491C580.077 400.068 564.691 392.835 548.802 386.863L524.931 377.89L456.075 352.048C440.381 346.158 425.396 338.528 411.401 329.3L403.096 323.824C396.445 319.438 390.236 314.414 384.559 308.823C370.805 295.278 360.443 278.675 354.319 260.367L350.077 247.686C346.607 237.313 344.099 226.643 342.583 215.811Z" fill="#FE6323"/>
<path d="M581.626 413.867L573.424 384.339L613.982 412.968C623.892 419.963 632.563 428.566 639.638 438.419L654.378 458.95C657.745 463.641 660.735 468.592 663.317 473.757L684.565 516.252C690.27 527.663 693.926 539.988 695.365 552.664L700.811 600.643V640.928L693.189 696.818L733.837 640.928L750.438 613.737C753.399 608.886 755.977 603.811 758.146 598.558L785.01 533.502L794.083 565.076L800.566 592.699C801.807 597.987 802.651 603.362 803.09 608.776L805.697 640.928V683.753V718.957L802.43 752.346L796.228 782.55C794.801 789.496 792.7 796.286 789.953 802.823L785.01 814.588L778.915 827.722C775.969 834.073 772.416 840.125 768.307 845.794L754.887 864.309L733.837 892.436L710.095 917.482C703.929 923.987 696.984 929.705 689.416 934.508L669.918 946.882C665.357 949.776 660.586 952.327 655.646 954.514L640.928 961.029L633.226 964.438C623.707 968.651 613.412 970.828 603.002 970.828C599.257 970.828 595.518 970.546 591.815 969.985L579.508 968.12C567.551 966.309 555.98 962.518 545.269 956.903L525.061 946.31C519.328 943.305 513.874 939.795 508.765 935.821L498.765 928.043C490.989 921.995 484.07 914.92 478.197 907.011L465.164 889.459C461.612 884.677 458.46 879.611 455.737 874.313L446.4 856.143L435.149 827.472L430.431 809.688L427.527 792.994L425.718 780.33C424.99 775.23 424.624 770.084 424.624 764.932V752.346L426.935 721.732C427.329 716.501 428.101 711.306 429.245 706.187L431.338 696.818L433.411 687.538C434.568 682.36 436.102 677.274 438 672.319L442.589 660.344L446.621 649.821C448.889 643.903 451.668 638.195 454.929 632.761L460.372 623.689L470.716 606.45L481.966 591.388L488.003 583.307C491.474 578.661 495.31 574.3 499.475 570.265L504.831 565.076L516.444 553.825L552.652 518.786C558.497 513.129 563.69 506.836 568.133 500.022L573.629 491.595C576.389 487.363 578.73 482.873 580.618 478.187C585.193 466.834 587.023 454.561 585.957 442.367L585.185 433.53C584.604 426.881 583.413 420.299 581.626 413.867Z" fill="#FFA624"/>
<path d="M821.014 278.828L812.955 242.798L827.979 255.969C854.8 279.482 877.589 307.23 895.44 338.111L898.969 344.214L914.809 383.559C926.686 413.062 934.191 444.142 937.086 475.814L940.342 511.438V561.47L932.721 630.883L973.368 561.47L994.418 518.649L1024.54 428.051L1033.61 467.265L1041.96 511.438L1045.23 561.47V614.657V658.378L1041.96 699.846L1037.95 724.111C1035.06 741.561 1030.77 758.747 1025.1 775.501L1024.54 777.148L1023.8 779.134C1017.29 796.559 1009.3 813.396 999.926 829.461L994.418 838.899L973.368 873.831L957.973 894.002C946.266 909.341 932.674 923.146 917.519 935.09C907.589 942.917 897.029 949.912 885.949 956.003L880.459 959.021L872.085 963.624C863.055 968.588 852.918 971.191 842.614 971.191C838.818 971.191 835.031 970.837 831.301 970.135L825.406 969.026C809.278 965.991 793.901 959.822 780.148 950.868L770.336 944.481C760.784 938.262 751.849 931.145 743.651 923.226C732.319 912.28 722.483 899.885 714.398 886.362L709.054 877.426C702.6 866.63 696.945 855.376 692.136 843.753L685.931 828.757L674.68 793.149L669.962 771.063L667.059 750.329L664.155 725.088V699.846L667.059 652.068L670.869 630.883L674.68 609.699L682.12 585.584L682.55 584.19C687.217 569.065 693.018 554.313 699.904 540.059L710.247 518.649L721.498 499.944L723.384 496.808C729.618 486.443 736.631 476.567 744.362 467.265L755.976 453.292L788.537 414.158C796.808 404.216 804.01 393.431 810.022 381.981L812.816 376.661C815.807 370.966 818.308 365.027 820.294 358.908C824.795 345.035 826.583 330.424 825.559 315.875L824.753 304.408C824.147 295.799 822.897 287.249 821.014 278.828Z" fill="#FFA624"/>
<path d="M464.183 291.382L486.14 226.466L464.434 237.193C445.292 246.652 427.902 259.304 413.009 274.604C402.164 285.746 392.743 298.19 384.962 311.652L366.193 344.125L350.348 383.487C338.473 412.987 330.97 444.063 328.076 475.732L324.819 511.373V561.412L332.44 630.835L291.793 561.412L270.743 518.586L240.62 427.974L231.547 467.194L223.2 511.373L219.933 561.412V614.606V658.334L223.2 699.808L227.213 724.083C230.098 741.531 234.394 758.715 240.061 775.468L240.62 777.12L241.364 779.112C247.873 796.536 255.858 813.372 265.232 829.437L270.743 838.88L291.793 873.817L307.189 893.993C318.896 909.333 332.487 923.139 347.641 935.085C357.572 942.913 368.132 949.909 379.213 956.001L384.702 959.019L393.077 963.623C402.106 968.588 412.243 971.191 422.547 971.191C426.343 971.191 430.13 970.837 433.861 970.135L439.755 969.026C455.884 965.991 471.26 959.821 485.013 950.866L494.824 944.478C504.376 938.258 513.313 931.139 521.511 923.219C532.842 912.272 542.678 899.875 550.763 886.352L556.107 877.412C562.562 866.615 568.216 855.36 573.025 843.736L579.23 828.737L590.481 793.124L595.199 771.035L598.102 750.298L601.006 725.053V699.808L598.102 652.023L594.292 630.835L590.481 609.648L583.041 585.53L582.611 584.136C577.944 569.008 572.143 554.254 565.258 539.999L554.914 518.586L543.664 499.877L541.777 496.741C535.543 486.375 528.53 476.497 520.799 467.194L509.186 453.219L486.14 415.803L466.14 388.742C459.234 379.399 454.478 368.646 452.211 357.252C449.361 342.922 450.546 328.083 455.634 314.387L464.183 291.382Z" fill="#FFA624"/>
<path d="M703.714 291.382L725.671 226.466L703.965 237.193C684.824 246.652 667.433 259.304 652.54 274.604C641.695 285.746 632.274 298.19 624.493 311.652L605.724 344.125L589.879 383.487C578.005 412.987 570.501 444.063 567.607 475.732L564.35 511.373V561.412L571.972 630.835L531.324 561.412L510.274 518.586L480.151 427.974L471.078 467.194L462.731 511.373L459.465 561.412V614.606V658.334L462.731 699.808L466.744 724.083C469.629 741.531 473.926 758.715 479.592 775.468L480.151 777.12L485.615 791.746C488.983 800.762 493.115 809.475 497.966 817.789C506.129 831.777 512.239 846.866 516.109 862.593L520.83 881.778C524.879 898.234 532.274 913.678 542.555 927.15L545.605 931.147C555.072 943.551 567.263 953.614 581.237 960.557L587.526 963.682C597.466 968.62 608.415 971.191 619.515 971.191H646.372H656.08C663.866 971.191 671.635 970.466 679.287 969.026C695.415 965.991 710.791 959.821 724.544 950.866L734.355 944.478C743.908 938.258 752.844 931.139 761.042 923.219C772.374 912.272 782.209 899.875 790.294 886.352L795.638 877.412C802.093 866.615 807.747 855.36 812.556 843.736L818.762 828.737L830.012 793.124L834.73 771.035L837.634 750.298L840.537 725.053V699.808L837.634 652.023L833.823 630.835L830.012 609.648L822.572 585.53L822.142 584.136C817.476 569.008 811.675 554.254 804.789 539.999L794.445 518.586L783.195 499.877L781.309 496.741C775.075 486.375 768.062 476.497 760.33 467.194L748.717 453.219L725.671 415.803L705.671 388.742C698.766 379.399 694.01 368.646 691.743 357.252C688.892 342.922 690.077 328.083 695.166 314.387L703.714 291.382Z" fill="#FF9700"/>
<path d="M400.559 837.723L345.991 720.403L333.531 774.609L330.316 796.642C329.072 815.96 329.884 835.357 332.738 854.504L333.362 858.692C337.463 884.903 348.431 909.56 365.153 930.156L367.939 933.588C374.688 941.901 382.287 949.487 390.611 956.223L414.978 975.94C423.885 983.148 434.81 987.414 446.245 988.151L636.392 1020.19L566.172 945.87C545.881 924.396 538.52 893.763 546.839 865.414C553.516 842.66 550.152 818.137 537.594 798.021L465.891 683.166L467.54 712.726C468.561 731.044 467.518 749.419 464.431 767.504C460.203 792.266 452.186 816.23 440.661 838.55C432.143 855.046 408.389 854.556 400.559 837.723Z" fill="#FFF28C"/>
<path d="M857.717 823.868L905.839 720.407L918.299 774.613L921.514 796.645L922.568 813.016C923.111 821.452 922.757 829.922 921.511 838.283L918.468 858.696L917.181 866.923C913.923 887.745 905.209 907.333 891.925 923.695L881.611 936.4C876.378 942.846 870.485 948.729 864.031 953.952L846.356 968.253C831.127 980.576 813.098 988.961 793.861 992.666L653.812 1019.64L697.229 963.379C703.791 954.875 708.681 945.203 711.64 934.877C716.071 919.409 716.019 903 711.488 887.56L709.03 879.183C699.784 847.673 704.442 813.713 721.833 785.856L785.939 683.17L783.503 726.844C783.004 735.782 783.513 744.748 785.02 753.572L790.665 786.641C792.728 798.724 796.641 810.417 802.264 821.309L804.157 824.974C815.533 847.005 847.259 846.35 857.717 823.868Z" fill="#FFF28C"/>
<path d="M669.83 842.061L722.803 723.246L736.377 787.769L739.939 813.718L740.053 815.477C741.437 836.833 740.718 858.273 737.908 879.489L737.18 884.983L736.805 887.671C732.917 915.546 721.396 941.803 703.514 963.538C694.909 973.997 687.735 985.556 682.181 997.909L680.487 1001.68L679.407 1004.38C677.983 1007.94 675.512 1010.98 672.321 1013.11L667.739 1015.68C665.358 1017.02 662.829 1018.07 660.205 1018.82C657.047 1019.73 653.778 1020.19 650.493 1020.19L636.391 1020.19C624.988 1018.57 614.425 1013.27 606.305 1005.1L558.205 956.712L546.303 941.488C532.982 924.45 523.259 904.885 517.725 883.978C506.541 841.728 513.158 796.74 536.033 759.499L595.786 662.223L594.331 694.607C593.341 716.661 594.589 738.758 598.057 760.56L598.428 762.893C602.775 790.225 610.715 816.864 622.043 842.116C631.302 862.757 660.618 862.723 669.83 842.061Z" fill="#FFF28C"/>
</svg>
