<svg width="1600" height="1948" viewBox="0 0 1600 1948" fill="none" xmlns="http://www.w3.org/2000/svg">
<path d="M605.615 409.037L617.154 310L587.731 359.518L564.561 398.512C560.408 405.503 557.122 412.974 554.778 420.76L542.154 462.682L534.077 489.505L518.692 550.256L504.462 618.574L491.843 679.151C490.77 684.303 490.105 689.531 489.855 694.788L486.192 771.714L482.154 856.537V961.076L490.231 1068.37L464.585 966.459C463.223 961.046 462.317 955.529 461.875 949.965L454.462 856.537V659.38L441 702.938L427.538 746.496L413.692 800.6L402.538 856.537L394.462 908.807L386.385 961.076L380.423 1014.72L374.462 1068.37L371 1155.48L374.462 1239.85L378.885 1291.2L383.308 1342.55L392.923 1397.11L404.077 1454.43L424.846 1522.74L443.71 1582.84C445.999 1590.13 447.444 1597.66 448.018 1605.28L462.538 1798H490.231H528.692H559.846H592.154H620.615H648.692H677.538H722.154L801 1791.89L774.846 1593.81L768.692 1384.73L771.769 1342.55L774.846 1291.2V1239.85L771.769 1142.64L767.731 1099.54L763.692 1056.45L755.808 1007.39L747.923 958.325L736.962 914.767L726 871.21L714.077 833.154L702.154 795.098L689.846 766.67L677.538 738.243L632.674 634.726C630.791 630.382 629.219 625.91 627.97 621.344L612.538 564.928L603.86 513.585C602.726 506.872 602.279 500.06 602.529 493.257L605.615 409.037Z" fill="#FF9700"/>
<path d="M808.791 284.709L786.07 185L848.337 238.578L898.061 281.364C906.367 288.511 913.442 296.974 919.003 306.416L944.791 350.2L961.884 379.222L994.442 444.955L1024.56 518.873L1049.09 579.078C1052.79 588.171 1055.14 597.76 1056.05 607.537L1063.22 684.57L1071.77 776.348V882.135C1071.77 887.01 1071.41 891.879 1070.7 896.702L1054.67 1005.54L1106.53 900.198C1111 891.106 1114.07 881.387 1115.62 871.373L1129.19 783.97C1129.98 778.896 1130.37 773.769 1130.37 768.634V563.026L1158.86 610.155L1187.35 657.284L1216.65 715.824L1240.26 776.348L1257.35 832.903L1274.44 889.458L1287.06 947.501L1299.67 1005.54L1306.39 1091.93C1306.8 1097.17 1306.79 1102.44 1306.37 1107.68L1299.67 1191.08L1290.31 1246.65L1282.33 1294.05C1281.41 1299.48 1280.05 1304.83 1278.26 1310.03L1260.6 1361.25L1240.08 1415.17C1238.03 1420.55 1235.52 1425.75 1232.57 1430.7L1193.05 1497.18L1156.56 1556.61C1149.49 1568.13 1144.82 1580.97 1142.85 1594.35L1113.28 1795H1054.67H973.279H907.349H838.977H778.744H719.326H658.279H563.86L397 1788.39L449.9 1583.55C451.529 1577.25 452.537 1570.8 452.912 1564.29L464.798 1357.83C465.18 1351.19 464.899 1344.54 463.961 1337.96L458.86 1302.21L452.349 1246.65V1191.08L458.86 1085.91L467.407 1039.28L475.953 992.646L492.64 939.563L507.03 893.785C508.558 888.923 510.456 884.185 512.707 879.611L532.523 839.352L555.721 792.223L580.953 751.047L602.185 716.4C604.848 712.054 607.841 707.917 611.135 704.026L632.233 679.113L658.279 648.355L752.333 537.403C756.904 532.01 760.891 526.148 764.226 519.914L791.771 468.431C794.477 463.373 796.743 458.092 798.543 452.645L811.601 413.147C815.703 400.738 817.333 387.645 816.399 374.609L811.035 299.777C810.671 294.704 809.921 289.667 808.791 284.709Z" fill="#FFA624"/>
<path d="M494.13 357.421L496.702 329.98C499.102 304.383 504.782 279.2 513.603 255.052L535.734 194.463L582.429 67.0002L541.337 118.169C524.637 138.964 510.785 161.892 500.146 186.349L477.586 238.213L465.437 262.191C455.592 281.623 447.893 302.069 442.476 323.167L435.825 349.072L428.424 377.895L414.327 443.179L401.288 516.592L388.249 590.006L384.548 681.157L380.848 772.308V884.645L388.249 999.938L367.409 902.817C364.39 888.75 362.387 874.483 361.416 860.128L355.474 772.308V560.443L343.14 607.251L330.805 654.058L318.118 712.197L307.898 772.308L300.497 828.476L293.097 884.645L287.634 942.292L282.172 999.938L279 1093.55L282.172 1184.21L286.225 1239.39L290.277 1294.58L299.088 1353.21L309.308 1414.8L328.338 1488.21L341.099 1535.89C346.206 1554.97 349.416 1574.51 350.682 1594.22L362.875 1784H388.249H423.49H452.036H481.639H507.717H533.444H559.875H600.755L673 1777.43L649.036 1564.58L643.397 1339.91L646.216 1294.58L649.036 1239.39V1184.21L646.216 1079.76L642.516 1033.44L638.816 987.128L631.591 934.408L624.367 881.689L614.323 834.881L604.279 788.074L593.354 747.18L582.429 706.285L571.152 675.737L559.875 645.189L516.175 526.939L500.317 458.946L495.888 428.216C492.509 404.77 491.919 381.006 494.13 357.421Z" fill="#FFA624"/>
<path d="M303.508 347.112L317.113 310L297.556 321.655C276.531 334.183 258.315 350.911 244.045 370.794C234.558 384.012 226.928 398.467 221.366 413.757L210.02 444.951L200.156 472.069L181.368 533.491L163.989 602.562L153.55 644.05C148.933 662.398 146.063 681.141 144.976 700.029L141.677 757.392L136.746 843.151V948.844L146.609 1057.32L121.525 974.795C115.716 955.688 111.831 936.048 109.925 916.168L102.927 843.151V643.819L86.4868 687.858L70.0471 731.896L53.1375 786.597L39.516 843.151L29.6522 895.997L19.7882 948.844L12.5078 1003.08L5.22736 1057.32L0.999939 1145.39L5.22736 1230.69L10.629 1282.61L16.0306 1334.53L27.7733 1389.69L41.3948 1447.64L63.2168 1537.61L99.2554 1741.19L104.541 1762.2C109.391 1781.48 126.727 1795 146.609 1795H193.58H231.627H271.082H305.84H340.129H375.357H429.843H793L618.127 1674.18C540.144 1620.31 492.209 1532.74 488.841 1438.02L486.678 1377.18L490.436 1334.53L494.193 1282.61V1230.69L490.436 1132.41L485.504 1088.84L480.572 1045.26L470.943 995.663L461.314 946.062L447.927 902.024L434.54 857.985L419.979 819.51L405.418 781.034L390.388 752.293L375.357 723.552L328.49 634.029C320.918 619.565 314.54 604.508 309.418 589.006L295.977 548.325L290.702 522.491C285.782 498.394 283.844 473.783 284.932 449.213L285.468 437.109C286.829 406.362 292.913 376.008 303.508 347.112Z" fill="#FE6323"/>
<path d="M1054.27 327.141L1035.31 310L1047.41 310C1077.64 310 1105.56 326.148 1120.64 352.347C1124 358.175 1126.64 364.382 1128.53 370.837L1141.85 416.5L1149.92 444.19L1165.31 506.906L1179.54 577.433L1192.25 640.444C1193.26 645.447 1193.89 650.519 1194.12 655.617L1197.81 735.525L1201.85 823.092V931.011L1193.77 1041.77L1219.53 936.078C1220.82 930.816 1221.67 925.458 1222.09 920.058L1229.54 823.092V619.559L1243 664.526L1256.46 709.492L1270.31 765.345L1281.46 823.092L1289.54 877.052L1297.62 931.011L1303.58 986.391L1309.54 1041.77L1313 1131.7L1309.54 1218.8L1305.12 1271.81L1300.69 1324.82L1291.08 1381.15L1279.92 1440.32L1259.15 1510.84L1240.09 1573.53C1237.94 1580.63 1236.57 1587.94 1236.03 1595.34L1221.46 1795H1193.77H1155.31H1124.15H1091.85H1063.38H1035.31H1006.46H961.846L883 1788.69L909.154 1584.21L915.308 1368.37L912.231 1324.82L909.154 1271.81V1218.8L912.231 1118.45L916.269 1073.96L920.308 1029.46L928.192 978.818L936.077 928.172L947.038 883.205L958 838.238L969.923 798.952L981.846 759.665L994.154 730.319L1006.46 700.972L1054.15 587.373L1071.46 522.053L1081.85 458.626L1086.68 411.519C1089.93 379.837 1077.89 348.501 1054.27 327.141Z" fill="#FF9700"/>
<path d="M1213.95 344.39L1200.29 307L1219.75 318.637C1240.79 331.218 1259.02 348.003 1273.28 367.943C1282.74 381.17 1290.35 395.63 1295.89 410.92L1307.24 442.224L1317.1 469.397L1335.86 530.943L1353.22 600.153L1363.68 641.862C1368.27 660.156 1371.12 678.841 1372.2 697.671L1375.5 755.296L1380.43 841.228V947.134L1370.57 1055.83L1395.67 973.001C1401.44 953.946 1405.3 934.363 1407.2 914.542L1414.2 841.228V641.494L1430.62 685.621L1447.04 729.749L1463.93 784.559L1477.53 841.228L1487.38 894.181L1497.24 947.134L1504.51 1001.48L1511.78 1055.83L1516 1144.08L1511.78 1229.55L1506.38 1281.57L1500.99 1333.6L1489.26 1388.87L1475.66 1446.94L1453.86 1537.09L1417.87 1741.08L1412.56 1762.24C1407.74 1781.5 1390.43 1795 1370.57 1795H1323.66H1285.66H1246.26H1211.54H1177.3H1142.12H1087.7H725L899.846 1673.8C977.624 1619.89 1025.4 1532.44 1028.75 1437.87L1030.94 1376.33L1027.18 1333.6L1023.43 1281.57V1229.55L1027.18 1131.08L1032.11 1087.41L1037.03 1043.75L1046.65 994.049L1056.27 944.347L1069.64 900.22L1083.01 856.092L1097.55 817.539L1112.09 778.986L1127.1 750.187L1142.12 721.388L1188.96 631.605C1196.5 617.164 1202.85 602.134 1207.94 586.663L1221.4 545.807L1226.7 519.735C1231.59 495.711 1233.52 471.18 1232.43 446.688L1231.88 434.132C1230.53 403.477 1224.48 373.211 1213.95 344.39Z" fill="#FE6323"/>
<path d="M1041.15 720.006L1077.27 675.421L1014.16 688.522L999.591 691.548C967.461 698.218 936.671 710.211 908.494 727.03L887.213 739.734L843.787 770.581L799.991 807.46C771.015 831.859 746.517 861.124 727.597 893.94L724.189 899.851L692.184 955.363L675.564 993.606C665.813 1016.04 658.075 1039.3 652.441 1063.11L642.067 1106.95L636.169 1062C631.782 1028.56 633.354 994.607 640.812 961.717C644.75 944.351 650.305 927.39 657.403 911.058L705.717 799.887L670.591 820.27L635.465 840.653L596.553 868.022L561.511 898.573L532.616 928.794L503.722 959.016L477.888 991.693L470.847 1000.6C458.339 1016.42 447.156 1033.24 437.409 1050.9C426.036 1071.5 416.668 1093.15 409.434 1115.54L400.751 1142.42L392.647 1180.92C387.258 1206.53 384.383 1232.61 384.064 1258.78L384.002 1263.85L384.185 1271.34C384.835 1297.89 388.044 1324.32 393.767 1350.25L398.812 1373.1L414.164 1437.94L427.781 1475.4C439.397 1507.35 454.914 1537.74 473.979 1565.89L475.557 1568.22C487.048 1585.18 499.786 1601.27 513.665 1616.35L523.917 1627.48L534.737 1639.23C548.11 1653.76 564.371 1665.33 582.478 1673.2C588.992 1676.03 595.709 1678.36 602.573 1680.19L612.903 1682.93C643.337 1691.01 674.906 1693.97 706.312 1691.68L727.096 1690.16C745.651 1688.81 764.048 1685.8 782.069 1681.18C809.496 1674.14 835.842 1663.42 860.385 1649.3L870.225 1643.64C889.013 1632.83 906.883 1620.49 923.654 1606.76L941.565 1592.09L982.808 1550.73L1004.46 1523.36L1022.13 1496.52L1027.15 1488.36C1037.4 1471.72 1046.45 1454.37 1054.24 1436.45L1057.9 1428.01L1072.12 1387.13C1078.65 1368.34 1083.82 1349.1 1087.58 1329.56L1088.2 1326.35L1088.75 1323.48C1092.56 1303.72 1094.91 1283.71 1095.8 1263.6L1096.2 1254.4L1096.35 1251.1C1097.41 1227.08 1096.37 1203.02 1093.24 1179.19L1092.98 1177.2L1088.02 1139.4L1079.84 1104.7L1078.69 1099.84C1074.01 1079.98 1067.74 1060.51 1059.96 1041.65L1048.26 1013.3L1014.49 931.56C1006.79 912.929 1001.2 893.494 997.834 873.62L995.835 861.826C994.234 852.379 993.557 842.799 993.814 833.221C994.439 810.015 1000.53 787.285 1011.61 766.88L1019.27 752.746C1025.55 741.185 1032.87 730.226 1041.15 720.006Z" fill="#FE6323"/>
<path d="M558.852 720.322L522.73 675.738L585.837 688.839L600.41 691.864C632.54 698.534 663.33 710.527 691.507 727.347L712.788 740.05L756.214 770.898L800.01 807.777C828.986 832.176 853.484 861.441 872.404 894.257L875.812 900.167L907.817 955.679L924.437 993.922C934.188 1016.36 941.926 1039.62 947.56 1063.42L957.934 1107.26L963.832 1062.31C968.219 1028.87 966.647 994.924 959.189 962.034C955.251 944.667 949.696 927.707 942.598 911.374L894.284 800.203L929.41 820.586L964.536 840.97L1003.45 868.338L1038.49 898.89L1067.38 929.111L1096.28 959.332L1122.11 992.009L1129.15 1000.92C1141.66 1016.74 1152.85 1033.56 1162.59 1051.21C1173.97 1071.82 1183.33 1093.46 1190.57 1115.85L1199.25 1142.73L1207.35 1181.24C1212.74 1206.85 1215.62 1232.92 1215.94 1259.09L1216 1264.17L1215.82 1271.66C1215.17 1298.21 1211.96 1324.63 1206.23 1350.57L1201.19 1373.42L1185.84 1438.26L1172.22 1475.71C1160.6 1507.66 1145.09 1538.06 1126.02 1566.21L1124.44 1568.54C1112.95 1585.5 1100.22 1601.59 1086.34 1616.66L1076.08 1627.8L1065.26 1639.55C1051.89 1654.07 1035.63 1665.64 1017.52 1673.51C1011.01 1676.34 1004.29 1678.68 997.428 1680.5L987.098 1683.25C956.664 1691.33 925.095 1694.29 893.689 1691.99L872.905 1690.48C854.35 1689.12 835.953 1686.12 817.932 1681.5C790.504 1674.46 764.159 1663.74 739.616 1649.62L729.776 1643.95C710.988 1633.14 693.118 1620.81 676.347 1607.08L658.436 1592.41L617.193 1551.05L595.544 1523.68L577.874 1496.84L572.848 1488.67C562.602 1472.03 553.551 1454.68 545.762 1436.76L542.097 1428.33L527.881 1387.44C521.346 1368.65 516.178 1349.41 512.417 1329.87L511.8 1326.67L511.248 1323.8C507.444 1304.04 505.089 1284.03 504.203 1263.92L503.798 1254.72L503.652 1251.41C502.594 1227.4 503.634 1203.34 506.76 1179.51L507.021 1177.52L511.981 1139.72L520.165 1105.01L521.31 1100.16C525.995 1080.29 532.26 1060.83 540.045 1041.96L551.741 1013.61L585.513 931.876C593.211 913.245 598.797 893.811 602.167 873.936L604.166 862.142C605.767 852.696 606.444 843.116 606.187 833.538C605.562 810.332 599.467 787.601 588.396 767.196L580.727 753.063C574.454 741.502 567.132 730.542 558.852 720.322Z" fill="#FE6323"/>
<path d="M690.736 340.196L670.196 268.243L737.558 315.819L752.539 326.4C787.216 350.891 817.557 381.003 842.31 415.493L861.006 441.542L896.764 500.646L930.028 567.219L931.76 570.686C952.63 612.454 966.266 657.459 972.087 703.787L973.739 716.933L984.187 800.075L985.239 867.152C985.61 890.819 983.946 914.474 980.265 937.856L969.167 1008.35L997.54 957.625C1019.12 919.046 1033.87 877.027 1041.14 833.424C1044.95 810.583 1046.69 787.444 1046.32 764.29L1043.83 605.511L1074.97 647.801L1106.11 690.091L1138.29 742.721L1164.4 797.248L1183.48 848.283L1202.57 899.318L1216.89 951.778L1222.52 972.409C1228.31 993.595 1232.39 1015.21 1234.74 1037.04L1236.28 1051.42C1239.01 1076.85 1239.38 1102.48 1237.37 1127.98L1233.85 1172.61L1224.63 1223.19L1222.46 1235.08C1217.77 1260.81 1210.65 1286.04 1201.18 1310.43L1194.49 1327.68L1185.63 1348.28C1175.32 1372.27 1162.75 1395.23 1148.1 1416.85L1124.16 1452.16L1074.77 1522.74L1031.09 1571.91C1008.38 1597.48 982.588 1620.13 954.296 1639.34L933.224 1653.65C915.96 1665.37 897.831 1675.77 878.995 1684.75L854.566 1696.4L836.006 1705.25C813.494 1715.99 788.934 1721.75 763.997 1722.14C754.998 1722.28 746.001 1721.72 737.089 1720.47L723.588 1718.57C684.205 1713.03 646.06 1700.79 610.804 1682.39L587.257 1670.1C565.935 1658.97 545.662 1645.93 526.687 1631.15C498.228 1608.99 472.905 1583.07 451.409 1554.1L437.004 1534.68C423.744 1516.81 411.95 1497.9 401.737 1478.13L383.853 1443.51L355.75 1372.81L343.74 1328.87L336.126 1287.56L328.37 1237.25L327.579 1186.83L333.047 1091.28L341.524 1048.82L344.248 1035.17C348.079 1015.98 353.268 997.093 359.777 978.641L367.093 957.904L372.417 942.809C380.247 920.613 389.961 899.126 401.451 878.584L408.325 866.296L432.465 823.139L458.867 785.35L466.433 774.52C478.971 756.576 492.914 739.657 508.134 723.923L512.69 719.212L540.11 690.864L618.871 609.522C637.145 590.649 653.262 569.801 666.924 547.363L674.724 534.553C681.272 523.798 686.777 512.443 691.164 500.641C701.667 472.382 705.564 442.095 702.555 412.098L700.42 390.817C698.702 373.689 695.462 356.749 690.736 340.196Z" fill="#FE6323"/>
<path d="M1165.82 753.926L1175.21 686.798L1210.41 744.707L1232.95 781.8C1241.33 795.58 1247.35 810.663 1250.75 826.426L1256.61 853.559L1262.11 879.031L1269.55 934.542L1272.62 994.663L1274.39 1029.38C1275.25 1046.19 1273.17 1063.02 1268.24 1079.11L1255.97 1119.21L1236.26 1183.63L1208.51 1247.48C1205.1 1255.34 1200.99 1262.89 1196.23 1270.02L1155.69 1330.9L1217.06 1287.05C1230.97 1277.11 1243.01 1264.78 1252.62 1250.64L1276.42 1215.63C1281.5 1208.16 1285.86 1200.23 1289.46 1191.96L1346.07 1061.7L1355.6 1103.32L1365.13 1144.95L1372 1194.49L1373.65 1243.34L1371.15 1287.23L1368.65 1331.12L1362.06 1374.42L1357.27 1405.92C1356.07 1413.78 1354.23 1421.52 1351.77 1429.07L1338.37 1470.13C1335.49 1478.94 1331.78 1487.45 1327.27 1495.55L1301.53 1541.84L1277.75 1575.69L1262.11 1597.95C1256.69 1605.66 1250.53 1612.83 1243.72 1619.34L1220.2 1641.83L1193.39 1665.65C1186.43 1671.83 1178.89 1677.33 1170.88 1682.06L1125.59 1708.82L1064.74 1743.53L993.16 1773.97C982.196 1778.64 970.697 1781.93 958.926 1783.77L899.241 1793.13C892.146 1794.24 884.978 1794.83 877.797 1794.88L840.307 1795.13L822.632 1795.25C802.454 1795.38 782.472 1791.3 763.966 1783.26L687.882 1750.19C679.262 1746.44 671.028 1741.87 663.295 1736.52L591.807 1687.13L558.167 1659.71C544.047 1648.19 535.9 1630.91 536.008 1612.69C536.032 1608.57 535.632 1604.45 534.814 1600.4L534.42 1598.45C529.66 1574.91 535.923 1550.33 551.247 1531.84C564.314 1516.07 570.96 1495.77 569.635 1475.33L567.909 1448.7L570.121 1387.32L575.627 1351.05L583.586 1318.21L591.705 1288.65C593.519 1282.04 595.799 1275.58 598.529 1269.3L610.583 1241.56L641.584 1182.78C644.836 1176.61 648.53 1170.68 652.637 1165.05L666.996 1145.34L681.283 1125.74C685.437 1120.04 690.002 1114.65 694.942 1109.62L716.561 1087.58L736.733 1067.02C742.633 1061.01 749.047 1055.52 755.902 1050.62L778.218 1034.68L810.837 1011.37L843.383 992.769L865.875 979.913C872.568 976.088 879.555 972.803 886.772 970.091L906.112 962.821L936.293 951.475L1037.98 913.313C1048.1 909.513 1057.77 904.591 1066.8 898.639L1091.17 882.564C1099.03 877.386 1106.36 871.454 1113.06 864.854L1115.53 862.425C1131.77 846.432 1144 826.83 1151.23 805.215L1159.74 779.785C1162.55 771.37 1164.59 762.713 1165.82 753.926Z" fill="#FE6323"/>
<path d="M433.151 746.864L424.791 687.115L389.592 745.023L381.463 758.396C363.542 787.879 350.674 820.15 343.39 853.876L337.889 879.347L330.45 934.858L327.382 994.979C325.352 1034.76 330.274 1074.58 341.927 1112.67L344.026 1119.53L363.739 1183.95L381.968 1225.89C391.719 1248.33 403.444 1269.86 417.006 1290.22L444.311 1331.22L405.526 1303.5C376.675 1282.89 351.705 1257.32 331.772 1228C321.247 1212.51 312.194 1196.08 304.731 1178.9L253.932 1062.01L244.403 1103.64L234.874 1145.26L227.998 1194.81L226.346 1243.66L228.849 1287.55L231.353 1331.44L237.94 1374.74L239.735 1386.54C242.924 1407.51 247.833 1428.17 254.413 1448.33C262.091 1471.85 272.01 1494.58 284.035 1516.2L298.468 1542.16L322.254 1576.01L322.79 1576.77C338.253 1598.78 355.83 1619.22 375.269 1637.81L379.797 1642.14L387.225 1648.74C407.078 1666.38 428.586 1682.06 451.451 1695.57L474.406 1709.13L535.258 1743.84L538.471 1745.52C565.321 1759.56 593.634 1770.6 622.899 1778.45L645.634 1784.54L680.22 1790.1C700.987 1793.44 721.979 1795.19 743.013 1795.33L759.693 1795.44C797.468 1795.23 834.754 1786.87 869.008 1770.95L894.811 1758.95C914.953 1749.58 934.265 1738.53 952.541 1725.9L1008.19 1687.45L1041.83 1660.02C1055.95 1648.51 1064.1 1631.22 1063.99 1613.01C1063.97 1608.88 1064.37 1604.76 1065.19 1600.72L1065.58 1598.77C1070.34 1575.23 1064.08 1550.65 1048.75 1532.15C1035.69 1516.38 1029.04 1496.09 1030.36 1475.65L1032.09 1449.01L1029.88 1387.63L1024.37 1351.36L1016.41 1318.52L1013.34 1307.35C1008.17 1288.5 1001.66 1270.05 993.872 1252.13L989.417 1241.88L967.471 1200.26C958.19 1182.66 947.649 1165.76 935.931 1149.68L933.004 1145.66L930.28 1141.92C918.428 1125.66 905.402 1110.28 891.308 1095.92L883.439 1087.9L879.699 1084.09C862.865 1066.93 844.565 1051.27 825.007 1037.3L821.782 1034.99L789.163 1011.69L756.617 993.085L752.063 990.483C733.431 979.833 713.977 970.689 693.888 963.137L663.707 951.792L576.648 919.118C556.804 911.671 537.857 902.023 520.163 890.356L509.663 883.433C501.252 877.887 493.402 871.535 486.225 864.466C468.834 847.34 455.734 826.348 447.99 803.2L442.627 787.166C438.24 774.051 435.068 760.56 433.151 746.864Z" fill="#FE6323"/>
<path d="M735.39 997.281L725.02 959.946L776.3 996.144C788.83 1004.99 799.794 1015.87 808.739 1028.32L827.375 1054.28C831.633 1060.21 835.413 1066.47 838.678 1073L865.543 1126.73C872.757 1141.16 877.378 1156.74 879.198 1172.77L886.084 1233.43V1284.37L876.448 1355.04L927.841 1284.37L948.831 1249.99C952.575 1243.86 955.834 1237.44 958.576 1230.8L992.542 1148.54L1004.01 1188.46L1012.21 1223.39C1013.78 1230.08 1014.85 1236.87 1015.4 1243.72L1018.7 1284.37V1338.52V1383.03L1014.57 1425.24L1006.73 1463.43C1004.92 1472.21 1002.27 1480.8 998.792 1489.07L992.542 1503.94L984.837 1520.55C981.111 1528.58 976.619 1536.23 971.424 1543.4L954.456 1566.81L927.841 1602.37L897.823 1634.04C890.027 1642.26 881.245 1649.49 871.677 1655.56L847.024 1671.21C841.257 1674.87 835.225 1678.09 828.979 1680.86L810.37 1689.09L800.632 1693.41C788.596 1698.73 775.579 1701.48 762.417 1701.48C757.683 1701.48 752.955 1701.13 748.273 1700.42L732.712 1698.06C717.594 1695.77 702.964 1690.98 689.421 1683.88L663.871 1670.49C656.622 1666.69 649.727 1662.25 643.267 1657.22L630.624 1647.39C620.792 1639.74 612.044 1630.8 604.618 1620.8L588.139 1598.6C583.649 1592.56 579.663 1586.15 576.22 1579.45L564.414 1556.48L550.189 1520.23L544.224 1497.74L540.553 1476.64L538.265 1460.62C537.344 1454.18 536.882 1447.67 536.882 1441.16V1425.24L539.803 1386.54C540.302 1379.92 541.279 1373.35 542.725 1366.88L545.371 1355.04L547.992 1343.3C549.455 1336.76 551.394 1330.32 553.794 1324.06L559.596 1308.92L564.694 1295.61C567.561 1288.13 571.076 1280.91 575.198 1274.04L582.081 1262.57L595.159 1240.78L609.384 1221.73L617.016 1211.52C621.404 1205.64 626.254 1200.13 631.521 1195.03L638.293 1188.46L652.977 1174.24L698.756 1129.94C706.147 1122.78 712.712 1114.83 718.33 1106.21L725.28 1095.56C728.769 1090.21 731.728 1084.53 734.116 1078.6C739.901 1064.25 742.213 1048.73 740.866 1033.31L739.89 1022.14C739.155 1013.73 737.649 1005.41 735.39 997.281Z" fill="#FFA624"/>
<path d="M1059.19 721.282L1047.61 669.48L1069.21 688.417C1107.77 722.224 1140.53 762.117 1166.2 806.515L1171.27 815.29L1194.05 871.858C1211.12 914.276 1221.91 958.96 1226.08 1004.5L1230.76 1055.71V1127.65L1219.8 1227.44L1278.24 1127.65L1308.5 1066.08L1351.81 935.826L1364.86 992.205L1376.86 1055.71L1381.55 1127.65V1204.11V1266.97L1376.86 1326.59L1371.09 1361.48C1366.94 1386.57 1360.76 1411.28 1352.61 1435.37L1351.81 1437.73L1350.75 1440.59C1341.39 1465.64 1329.9 1489.85 1316.42 1512.95L1308.5 1526.52L1278.24 1576.74L1256.1 1605.74C1239.27 1627.79 1219.73 1647.64 1197.94 1664.81C1183.67 1676.07 1168.48 1686.12 1152.55 1694.88L1144.66 1699.22L1132.62 1705.84C1119.64 1712.97 1105.06 1716.72 1090.25 1716.72C1084.79 1716.72 1079.35 1716.21 1073.98 1715.2L1065.51 1713.6C1042.32 1709.24 1020.21 1700.37 1000.44 1687.5L986.333 1678.31C972.6 1669.37 959.753 1659.14 947.966 1647.76C931.674 1632.02 917.532 1614.2 905.908 1594.76L898.226 1581.91C888.946 1566.39 880.816 1550.2 873.901 1533.49L864.98 1511.93L848.805 1460.74L842.022 1428.99L837.847 1399.18L833.673 1362.89V1326.59L837.847 1257.9L843.326 1227.44L848.805 1196.99L859.502 1162.32L860.12 1160.31C866.829 1138.57 875.169 1117.36 885.069 1096.86L899.94 1066.08L916.116 1039.19L918.828 1034.68C927.791 1019.78 937.873 1005.58 948.989 992.205L965.686 972.116L1012.5 915.85C1024.39 901.557 1034.75 886.051 1043.39 869.589L1047.41 861.941C1051.71 853.752 1055.3 845.214 1058.16 836.416C1064.63 816.47 1067.2 795.465 1065.73 774.546L1064.57 758.059C1063.7 745.683 1061.9 733.39 1059.19 721.282Z" fill="#FFA624"/>
<path d="M546.165 739.331L577.734 646L546.527 661.422C519.006 675.022 494.003 693.212 472.591 715.209C456.999 731.229 443.454 749.121 432.267 768.475L405.282 815.163L382.502 871.755C365.429 914.168 354.641 958.847 350.48 1004.38L345.797 1055.62V1127.56L356.755 1227.38L298.314 1127.56L268.051 1065.99L224.742 935.716L211.697 992.103L199.696 1055.62L195 1127.56V1204.04V1266.91L199.696 1326.54L205.466 1361.44C209.613 1386.53 215.791 1411.23 223.938 1435.32L224.742 1437.69L225.812 1440.56C235.169 1465.61 246.65 1489.81 260.128 1512.91L268.051 1526.49L298.314 1576.72L320.45 1605.73C337.282 1627.78 356.822 1647.63 378.61 1664.81C392.888 1676.06 408.07 1686.12 424.002 1694.88L431.893 1699.22L443.934 1705.84C456.916 1712.97 471.49 1716.72 486.304 1716.72C491.762 1716.72 497.207 1716.21 502.57 1715.2L511.045 1713.6C534.233 1709.24 556.34 1700.37 576.113 1687.49L590.219 1678.31C603.953 1669.37 616.801 1659.13 628.588 1647.75C644.88 1632.01 659.021 1614.18 670.645 1594.74L678.328 1581.89C687.608 1566.36 695.738 1550.18 702.652 1533.47L711.573 1511.91L727.749 1460.7L734.532 1428.95L738.707 1399.13L742.881 1362.84V1326.54L738.707 1257.84L733.228 1227.38L727.749 1196.91L717.052 1162.24L716.434 1160.23C709.724 1138.48 701.384 1117.27 691.484 1096.78L676.613 1065.99L660.438 1039.09L657.726 1034.58C648.763 1019.68 638.68 1005.48 627.565 992.103L610.868 972.011L577.734 918.216L548.979 879.31C539.051 865.877 532.213 850.417 528.954 834.035C524.855 813.433 526.559 792.098 533.875 772.408L546.165 739.331Z" fill="#FFA624"/>
<path d="M890.547 739.331L922.116 646L890.909 661.422C863.388 675.022 838.385 693.212 816.973 715.209C801.381 731.229 787.836 749.121 776.649 768.475L749.664 815.163L726.883 871.755C709.811 914.168 699.023 958.847 694.862 1004.38L690.179 1055.62V1127.56L701.137 1227.38L642.696 1127.56L612.432 1065.99L569.124 935.716L556.079 992.103L544.078 1055.62L539.382 1127.56V1204.04V1266.91L544.078 1326.54L549.848 1361.44C553.995 1386.53 560.173 1411.23 568.32 1435.32L569.124 1437.69L576.978 1458.72C581.821 1471.69 587.762 1484.21 594.737 1496.16C606.473 1516.28 615.258 1537.97 620.822 1560.58L627.609 1588.17C633.43 1611.82 644.063 1634.03 658.844 1653.4L663.229 1659.14C676.839 1676.98 694.367 1691.45 714.459 1701.43L723.499 1705.92C737.791 1713.02 753.533 1716.72 769.492 1716.72H808.104H822.062C833.256 1716.72 844.426 1715.67 855.427 1713.6C878.615 1709.24 900.722 1700.37 920.495 1687.49L934.601 1678.31C948.335 1669.37 961.183 1659.13 972.97 1647.75C989.262 1632.01 1003.4 1614.18 1015.03 1594.74L1022.71 1581.89C1031.99 1566.36 1040.12 1550.18 1047.03 1533.47L1055.96 1511.91L1072.13 1460.7L1078.91 1428.95L1083.09 1399.13L1087.26 1362.84V1326.54L1083.09 1257.84L1077.61 1227.38L1072.13 1196.91L1061.43 1162.24L1060.82 1160.23C1054.11 1138.48 1045.77 1117.27 1035.87 1096.78L1021 1065.99L1004.82 1039.09L1002.11 1034.58C993.145 1019.68 983.062 1005.48 971.947 992.103L955.249 972.011L922.116 918.216L893.361 879.31C883.433 865.877 876.595 850.417 873.336 834.035C869.237 813.433 870.941 792.098 878.257 772.408L890.547 739.331Z" fill="#FF9700"/>
<path d="M423.186 422.731L416.792 404.787L424.623 409.776L427.586 412.02L429.629 413.844C430.682 414.784 431.632 415.833 432.463 416.973L434.492 419.758L435.302 420.887C437.354 423.746 438.611 427.096 438.948 430.598L439.209 433.318C439.341 434.698 439.329 436.087 439.173 437.465L438.335 444.865C438.238 445.724 437.876 446.532 437.3 447.177C436.61 447.95 435.656 448.439 434.625 448.549L424.132 449.662L421.679 449.585C418.503 449.485 415.397 448.627 412.62 447.082L412.259 446.881C407.29 444.117 403.739 439.361 402.501 433.812L398.169 414.401L402.994 419.882C403.982 421.003 405.093 422.01 406.305 422.883L410.85 426.156C412.511 427.351 414.346 428.284 416.29 428.921L416.945 429.135C420.878 430.424 424.576 426.63 423.186 422.731Z" fill="#FFF28C"/>
<path d="M944.803 39.5917L936.568 24.5053L935.219 32.7742L934.95 36.1173L934.95 38.5884C934.95 39.8618 935.085 41.1315 935.353 42.3763L936.008 45.4154L936.281 46.6395C936.973 49.738 938.472 52.5982 940.628 54.9291L942.301 56.7389C943.15 57.6573 944.093 58.4845 945.114 59.2071L950.599 63.0898C951.236 63.5406 951.996 63.7826 952.777 63.7826C953.712 63.7826 954.615 63.4346 955.308 62.8063L962.363 56.4125L963.785 54.715C965.627 52.5171 966.915 49.9106 967.544 47.113L967.626 46.7491C968.751 41.7434 967.684 36.4955 964.693 32.327L954.231 17.7468L955.02 24.2884C955.181 25.6271 955.191 26.9798 955.05 28.3209L954.522 33.3464C954.329 35.1827 953.854 36.9783 953.114 38.67L952.865 39.2393C951.368 42.6612 946.593 42.87 944.803 39.5917Z" fill="#FFF28C"/>
<path d="M1368.41 599.593L1377.54 582.874L1379.03 592.038L1379.33 595.743L1379.33 598.481C1379.33 599.892 1379.18 601.299 1378.88 602.679L1378.16 606.047L1377.86 607.404C1377.09 610.838 1375.43 614.007 1373.04 616.59L1371.18 618.596C1370.24 619.614 1369.2 620.531 1368.07 621.332L1361.99 625.634C1361.28 626.134 1360.44 626.402 1359.57 626.402C1358.54 626.402 1357.54 626.017 1356.77 625.32L1348.95 618.234L1347.37 616.353C1345.33 613.917 1343.91 611.029 1343.21 607.928L1343.12 607.525C1341.87 601.978 1343.05 596.162 1346.37 591.542L1357.96 575.384L1357.09 582.633C1356.91 584.117 1356.9 585.616 1357.05 587.102L1357.64 592.672C1357.85 594.707 1358.38 596.697 1359.2 598.572L1359.48 599.202C1361.14 602.995 1366.43 603.226 1368.41 599.593Z" fill="#FFF28C"/>
<path d="M238.411 427.593L247.538 410.874L249.032 420.038L249.331 423.743L249.331 426.481C249.331 427.892 249.181 429.299 248.884 430.679L248.158 434.047L247.855 435.404C247.089 438.838 245.427 442.007 243.039 444.59L241.184 446.596C240.243 447.614 239.199 448.531 238.067 449.332L231.988 453.634C231.283 454.134 230.439 454.402 229.575 454.402C228.538 454.402 227.538 454.017 226.77 453.32L218.951 446.234L217.375 444.353C215.334 441.917 213.906 439.029 213.209 435.928L213.118 435.525C211.871 429.978 213.054 424.162 216.369 419.542L227.963 403.384L227.089 410.633C226.91 412.117 226.899 413.616 227.055 415.102L227.641 420.672C227.855 422.707 228.381 424.697 229.201 426.572L229.477 427.202C231.135 430.995 236.428 431.226 238.411 427.593Z" fill="#FFF28C"/>
<path d="M1016.41 276.593L1025.54 259.874L1027.03 269.038L1027.33 272.743L1027.33 275.481C1027.33 276.892 1027.18 278.299 1026.88 279.679L1026.16 283.047L1025.86 284.404C1025.09 287.838 1023.43 291.007 1021.04 293.59L1019.18 295.596C1018.24 296.614 1017.2 297.531 1016.07 298.332L1009.99 302.634C1009.28 303.134 1008.44 303.402 1007.57 303.402C1006.54 303.402 1005.54 303.017 1004.77 302.32L996.951 295.234L995.375 293.353C993.334 290.917 991.906 288.029 991.209 284.928L991.118 284.525C989.871 278.978 991.054 273.162 994.369 268.542L1005.96 252.384L1005.09 259.633C1004.91 261.117 1004.9 262.616 1005.05 264.102L1005.64 269.672C1005.85 271.707 1006.38 273.697 1007.2 275.572L1007.48 276.202C1009.14 279.995 1014.43 280.226 1016.41 276.593Z" fill="#FFF28C"/>
<path d="M588.327 30.5932L579.2 13.8738L577.706 23.0378L577.407 26.7428L577.407 29.4813C577.407 30.8925 577.557 32.2997 577.854 33.6792L578.58 37.0472L578.883 38.4039C579.649 41.8378 581.311 45.0075 583.699 47.5907L585.554 49.5964C586.495 50.6142 587.54 51.5309 588.671 52.3318L594.75 56.6347C595.456 57.1343 596.299 57.4025 597.164 57.4025C598.2 57.4025 599.2 57.0169 599.969 56.3205L607.788 49.2347L609.364 47.3535C611.404 44.9176 612.833 42.029 613.53 38.9286L613.62 38.5253C614.867 32.9778 613.684 27.1618 610.369 22.5422L598.775 6.38383L599.649 13.6334C599.828 15.1171 599.84 16.6162 599.683 18.1024L599.098 23.6719C598.884 25.707 598.357 27.697 597.537 29.5718L597.262 30.2026C595.603 33.995 590.31 34.2263 588.327 30.5932Z" fill="#FFF28C"/>
<path d="M158.327 750.593L149.2 733.874L147.706 743.038L147.407 746.743L147.407 749.481C147.407 750.892 147.557 752.299 147.854 753.679L148.58 757.047L148.883 758.404C149.649 761.838 151.311 765.007 153.699 767.59L155.554 769.596C156.495 770.614 157.54 771.531 158.671 772.332L164.75 776.634C165.456 777.134 166.299 777.402 167.164 777.402C168.2 777.402 169.2 777.017 169.969 776.32L177.788 769.234L179.364 767.353C181.404 764.917 182.833 762.029 183.53 758.928L183.62 758.525C184.867 752.978 183.684 747.162 180.369 742.542L168.775 726.384L169.649 733.633C169.828 735.117 169.84 736.616 169.683 738.102L169.098 743.672C168.884 745.707 168.357 747.697 167.537 749.572L167.262 750.202C165.603 753.995 160.31 754.226 158.327 750.593Z" fill="#FFF28C"/>
<path d="M1308.41 259.593L1317.54 242.874L1319.03 252.038L1319.33 255.743L1319.33 258.481C1319.33 259.892 1319.18 261.299 1318.88 262.679L1318.16 266.047L1317.86 267.404C1317.09 270.838 1315.43 274.007 1313.04 276.59L1311.18 278.596C1310.24 279.614 1309.2 280.531 1308.07 281.332L1301.99 285.634C1301.28 286.134 1300.44 286.402 1299.57 286.402C1298.54 286.402 1297.54 286.017 1296.77 285.32L1288.95 278.234L1287.37 276.353C1285.33 273.917 1283.91 271.029 1283.21 267.928L1283.12 267.525C1281.87 261.978 1283.05 256.162 1286.37 251.542L1297.96 235.384L1297.09 242.633C1296.91 244.117 1296.9 245.616 1297.05 247.102L1297.64 252.672C1297.85 254.707 1298.38 256.697 1299.2 258.572L1299.48 259.202C1301.14 262.995 1306.43 263.226 1308.41 259.593Z" fill="#FFF28C"/>
<path d="M454.691 1524.82L376.237 1356.15L358.322 1434.08L353.701 1465.76C351.911 1493.54 353.079 1521.42 357.182 1548.95L358.08 1554.97C363.975 1592.66 379.745 1628.11 403.786 1657.72L406.923 1661.58C417.204 1674.25 428.779 1685.8 441.459 1696.06L468.523 1717.96C485.909 1732.03 506.832 1741.04 529 1744L793.756 1787.16L692.798 1680.31C663.626 1649.44 653.043 1605.4 665.003 1564.64C674.602 1531.92 669.766 1496.67 651.711 1467.74L548.621 1302.61L550.991 1345.11C552.46 1371.45 550.961 1397.87 546.522 1423.87C540.444 1459.47 528.916 1493.92 512.346 1526.01C500.1 1549.73 465.948 1549.03 454.691 1524.82Z" fill="#FFF28C"/>
<path d="M1111.96 1504.9L1181.15 1356.16L1199.06 1434.09L1203.69 1465.77L1205.2 1489.3C1205.98 1501.43 1205.47 1513.61 1203.68 1525.63L1199.31 1554.98L1197.46 1566.81C1192.77 1596.74 1180.24 1624.91 1161.15 1648.43L1146.32 1666.7C1138.79 1675.96 1130.32 1684.42 1121.04 1691.93L1095.63 1712.49C1073.73 1730.21 1047.81 1742.26 1020.16 1747.59L818.802 1786.38L881.224 1705.49C890.659 1693.26 897.69 1679.35 901.943 1664.51C908.315 1642.27 908.239 1618.68 901.726 1596.48L898.191 1584.43C884.897 1539.13 891.595 1490.3 916.598 1450.25L1008.77 1302.62L1005.26 1365.41C1004.55 1378.26 1005.28 1391.15 1007.44 1403.84L1015.56 1451.38C1018.53 1468.75 1024.15 1485.57 1032.24 1501.23L1034.96 1506.49C1051.31 1538.17 1096.93 1537.23 1111.96 1504.9Z" fill="#FFF28C"/>
<path d="M841.832 1531.06L917.993 1360.24L937.509 1453L942.629 1490.31L942.793 1492.84C944.783 1523.54 943.75 1554.37 939.709 1584.87L938.663 1592.77L938.124 1596.64C932.534 1636.71 915.969 1674.46 890.261 1705.71C877.889 1720.75 867.574 1737.37 859.588 1755.13L857.153 1760.55L854.784 1766.47C853.268 1770.26 850.639 1773.5 847.242 1775.76C846.026 1776.57 844.725 1777.25 843.363 1777.78L831.324 1782.46C821.547 1786.58 810.94 1788.34 800.356 1787.61L793.755 1787.16C777.36 1784.83 762.173 1777.21 750.499 1765.47L681.345 1695.9L664.232 1674.01C645.08 1649.52 631.102 1621.39 623.145 1591.33C607.066 1530.58 616.579 1465.9 649.467 1412.36L735.375 1272.5L733.285 1319.06C731.861 1350.77 733.655 1382.54 738.64 1413.88L739.174 1417.24C745.423 1456.54 756.84 1494.83 773.126 1531.14C786.438 1560.82 828.587 1560.77 841.832 1531.06Z" fill="#FFF28C"/>
</svg>
