<svg xmlns="http://www.w3.org/2000/svg" width="1600" height="1701" fill="none"><path fill="#ff9700" d="M572.615 160.037 584.154 61l-29.423 49.519-23.17 38.993a100 100 0 0 0-9.783 22.248l-12.624 41.922-8.077 26.823-15.385 60.752-14.23 68.317-12.619 60.577a100 100 0 0 0-1.988 15.637l-3.663 76.926-4.038 84.824v104.539l8.077 107.29-25.646-101.908a100 100 0 0 1-2.71-16.494l-7.413-93.427V410.381L408 453.939l-13.462 43.558-13.846 54.103-11.154 55.938-8.076 52.269-8.077 52.27-5.962 53.645-5.961 53.645L338 906.483l3.462 84.364 4.423 51.353 4.423 51.35 9.615 54.56 11.154 57.32 20.769 68.31 18.864 60.1a100 100 0 0 1 4.308 22.44l14.52 192.72h259.616l78.846-6.11-26.154-198.08-6.154-209.08 3.077-42.18 3.077-51.35v-51.353l-3.077-97.203-4.038-43.099-4.039-43.099-7.884-49.06-7.885-49.06-10.961-43.558L693 622.21l-11.923-38.056-11.923-38.056-12.308-28.427-12.308-28.428-44.864-103.517a100 100 0 0 1-4.704-13.382l-15.432-56.415-8.678-51.344a100 100 0 0 1-1.331-20.328z"/><path fill="#fe6323" d="m305.553 238.977 11.571-28.477-21.631 11.631a164.3 164.3 0 0 0-74.572 83.274l-10.776 26.733-9.853 24.443-18.768 55.362-17.361 62.257-8.937 32.051a300 300 0 0 0-10.418 61.5l-2.932 46.005-4.927 77.298v95.266l9.854 97.772-23.248-69.007a300 300 0 0 1-14.021-64.087l-6.367-59.944V511.387l-16.422 39.694-16.423 39.694-16.89 49.304-13.608 50.975-9.853 47.633-9.853 47.633-7.273 48.886-7.273 48.886L1.35 963.48l4.223 76.88 5.396 46.8 5.396 46.79 11.73 49.73 13.607 52.23 25.337 62.25 16.92 40.27a177.5 177.5 0 0 1 12.96 50.93l12.712 126.03c1.925 19.08 17.99 33.61 37.173 33.61H792.5l-163.678-102.04c-84.326-52.56-137.15-143.48-141.063-242.77l-1.252-31.79 3.753-38.45 3.754-46.79v-46.8l-3.754-88.579-4.926-39.276-4.927-39.277-9.619-44.707-9.619-44.708-13.372-39.694-13.372-39.694-14.545-34.68-14.546-34.68-15.014-25.906-15.015-25.905-44.996-77.554a300 300 0 0 1-22.219-47.397l-12.08-32.989-4.197-18.548a281 281 0 0 1 13.74-167.789"/><path fill="#ff9700" d="m1054.67 68.245-19.36-17.663h11.68a84.85 84.85 0 0 1 73.7 42.808 85.4 85.4 0 0 1 7.81 18.477l13.35 46.177 8.07 27.94 15.39 63.283 14.23 71.164 12.74 63.712c.99 4.96 1.61 9.989 1.84 15.043l3.69 80.766 4.04 88.358v108.895l-8.08 111.76 25.8-106.783a99 99 0 0 0 2.5-15.888l7.47-97.984V362.938l13.46 45.373 13.46 45.373 13.85 56.358 11.15 58.268 8.08 54.447 8.08 54.448 5.96 55.88 5.96 55.88 3.46 90.746-3.46 87.88-4.42 53.489-4.43 53.5-9.61 56.83-11.16 59.7-20.77 71.17-19.11 63.43c-2.12 7.04-3.46 14.3-3.99 21.63L1221.46 1549H961.846L883 1542.63l26.154-206.33 6.154-217.78-3.077-43.94-3.077-53.5v-53.489l3.077-101.253 4.038-44.895 4.039-44.896 7.884-51.104 7.885-51.104 10.961-45.373L958 583.593l11.923-39.641 11.923-39.642 12.308-29.612 12.306-29.611 47.69-114.626 17.31-65.91 10.39-64 4.91-48.319a100 100 0 0 0-32.09-83.987"/><path fill="#fe6323" d="M1285.44 283.251 1271.36 193l35.89 45.126 8.75 10.99a300.4 300.4 0 0 1 43.46 74.59l3.39 8.432 9.86 24.443 18.77 55.362 17.36 62.257 8.93 32.051c5.6 20.083 9.1 40.694 10.42 61.5l2.93 46.005 4.93 77.298v95.266l-9.85 97.772 23.24-69.007a299.7 299.7 0 0 0 14.03-64.087l6.36-59.944V511.387l16.43 39.694 16.42 39.694 16.89 49.304 13.61 50.975 9.85 47.633 9.85 47.633 7.28 48.886 7.27 48.886 4.22 79.388-4.22 76.88-5.4 46.8-5.39 46.79-11.73 49.73-13.61 52.23-25.34 62.25-16.92 40.27a177.7 177.7 0 0 0-12.96 50.93l-12.71 126.03c-1.92 19.08-17.99 33.61-37.17 33.61H724.5l200.977-105.49c94.983-49.86 156.113-146.64 160.333-253.82l.68-17.29-3.75-38.45-3.75-46.79v-46.8l3.75-88.579 4.93-39.276 4.92-39.277 9.62-44.707 9.62-44.708 13.37-39.694 13.38-39.694 14.54-34.68 14.55-34.68 15.01-25.906 15.01-25.905 45-77.554a300 300 0 0 0 22.22-47.397l12.08-32.989 3.62-16.017a299.8 299.8 0 0 0 7.04-80.907z"/><path fill="#fe6323" d="m1041.15 473.006 36.12-44.585-63.11 13.101-14.569 3.026a294.6 294.6 0 0 0-91.097 35.482l-21.281 12.704-43.426 30.847-43.796 36.879a325.8 325.8 0 0 0-72.394 86.48l-3.408 5.911-32.005 55.512-16.62 38.243a413 413 0 0 0-23.123 69.503l-10.374 43.839-5.898-44.952a285.5 285.5 0 0 1 21.234-150.938l48.314-111.171-35.126 20.383-35.126 20.383-38.912 27.369-35.042 30.551-28.895 30.221-28.894 30.222-25.834 32.677-7.041 8.906a367.4 367.4 0 0 0-61.413 114.939l-8.683 26.879-8.104 38.506a402 402 0 0 0-8.583 77.857l-.062 5.07.183 7.49a413 413 0 0 0 9.582 78.91l5.045 22.85 15.352 64.84 13.617 37.46a413 413 0 0 0 46.198 90.49l1.578 2.33a414 414 0 0 0 38.108 48.13l10.252 11.13 10.82 11.75a141.6 141.6 0 0 0 47.741 33.97 142.6 142.6 0 0 0 20.095 6.99l10.33 2.74a283.6 283.6 0 0 0 93.409 8.75l20.784-1.52a313 313 0 0 0 54.973-8.98 313.2 313.2 0 0 0 78.316-31.88l9.84-5.66a396.5 396.5 0 0 0 53.429-36.88l17.911-14.67 41.243-41.36 21.652-27.37 17.67-26.84 5.02-8.16a413 413 0 0 0 27.09-51.91l3.66-8.44 14.22-40.88c6.53-18.79 11.7-38.03 15.46-57.57l.62-3.21.55-2.87c3.81-19.76 6.16-39.77 7.05-59.88l.4-9.2.15-3.3a412.5 412.5 0 0 0-3.11-71.91l-.26-1.987-4.96-37.804-8.18-34.702-1.15-4.855a383 383 0 0 0-18.73-58.196l-11.7-28.349-33.77-81.737a269.5 269.5 0 0 1-16.656-57.94l-1.999-11.794a147.5 147.5 0 0 1-2.021-28.605 147.3 147.3 0 0 1 17.796-66.341l7.66-14.134a215 215 0 0 1 21.88-32.74"/><path fill="#fe6323" d="m558.852 473.322-36.122-44.584 63.107 13.101 14.573 3.025a294.5 294.5 0 0 1 91.097 35.483l21.281 12.703 43.426 30.848 43.796 36.879a325.8 325.8 0 0 1 72.394 86.48l3.408 5.91 32.005 55.512 16.62 38.243a413 413 0 0 1 23.123 69.503l10.374 43.839 5.898-44.951a285.5 285.5 0 0 0-21.234-150.939l-48.314-111.171 35.126 20.383 35.126 20.384 38.914 27.368 35.04 30.552 28.89 30.221 28.9 30.221 25.83 32.677 7.04 8.906a366.6 366.6 0 0 1 33.44 50.299 367.4 367.4 0 0 1 27.98 64.641l8.68 26.879 8.1 38.506a402 402 0 0 1 8.59 77.85l.06 5.08-.18 7.49a412.6 412.6 0 0 1-9.59 78.91l-5.04 22.85-15.35 64.84-13.62 37.45a413 413 0 0 1-46.2 90.5l-1.58 2.33a413 413 0 0 1-38.1 48.12l-10.26 11.14-10.82 11.75a141.63 141.63 0 0 1-67.832 40.95l-10.33 2.75a283.4 283.4 0 0 1-93.409 8.74l-20.784-1.51a313.7 313.7 0 0 1-54.973-8.98 313.2 313.2 0 0 1-78.316-31.88l-9.84-5.67a396.5 396.5 0 0 1-53.429-36.87l-17.911-14.67-41.243-41.36-21.649-27.37-17.67-26.84-5.026-8.17a413 413 0 0 1-27.086-51.91l-3.665-8.43-14.216-40.89a413 413 0 0 1-15.464-57.57l-.617-3.2-.552-2.87a413 413 0 0 1-7.045-59.88l-.405-9.2-.146-3.31a413 413 0 0 1 3.108-71.903l.261-1.987 4.96-37.804 8.184-34.703 1.145-4.855a383 383 0 0 1 18.735-58.196l11.696-28.348 33.772-81.738a270 270 0 0 0 16.654-57.94l1.999-11.794a147.436 147.436 0 0 0-15.77-94.946l-7.669-14.133a214.6 214.6 0 0 0-21.875-32.741"/><path fill="#fe6323" d="M694.029 297.329 673.56 235.74l67.249 40.408 17.605 10.578a347 347 0 0 1 86.914 74.164l18.634 22.166 35.621 50.311 33.109 56.684a336.9 336.9 0 0 1 42.51 121.653l.853 5.895 10.255 70.864.72 45.91a413 413 0 0 1-7.006 82.496l-9.214 49.206 30.19-45.894a289 289 0 0 0 42.03-102.631 289 289 0 0 0 5.48-60.723l-2.11-134.391 31.05 35.985 31.04 35.985 32.05 44.8 25.98 46.43 18.97 43.469 18.97 43.469 14.2 44.695 4 12.595a364.3 364.3 0 0 1 14.32 65.529 364.3 364.3 0 0 1 1.1 78.871l-2.97 31.246-9.34 43.15a408 408 0 0 1-27.7 83.29l-2.69 5.87-5.43 10.73a413 413 0 0 1-45.34 70.66l-19.84 24.91-49.56 60.29-42.28 40.58a412.8 412.8 0 0 1-78.687 59.25l-46.841 27.19-52.78 21.56-5.224 2.13a272.8 272.8 0 0 1-98.921 20.23l-24.347-2.86a413 413 0 0 1-119.111-32.61l-21.689-9.61a389 389 0 0 1-57.265-31.39 388.6 388.6 0 0 1-78.574-68.96l-8.509-9.79a412.6 412.6 0 0 1-41.827-57.43l-14.644-24.24-27.939-60.22-11.908-37.44-7.518-35.2-1.81-10.16a413 413 0 0 1-6.351-65.95l-.153-9.76 3.343-47.878a413 413 0 0 1 10.105-66.377l.816-3.447.861-3.639a413 413 0 0 1 20.575-63.498l4.341-10.434 2.283-5.488a413 413 0 0 1 36.265-68.312l2.895-4.402 24.239-36.852 26.488-32.281 5.351-6.52a413 413 0 0 1 46.132-47.798l2.491-2.196 27.485-24.234 80.675-71.058a301.2 301.2 0 0 0 45.865-50.746l9.132-12.76a151.039 151.039 0 0 0 27.222-105.143l-1.902-16.545a212.7 212.7 0 0 0-9.465-42.793"/><path fill="#fe6323" d="m1165.82 506.926 9.39-67.128 35.2 57.909 22.54 37.093a144.6 144.6 0 0 1 17.8 44.626l5.86 27.133 5.5 25.472 7.44 55.511 3.07 60.121 1.77 34.717a144.5 144.5 0 0 1-6.15 49.728l-12.27 40.101-19.71 64.424-27.75 63.847c-3.41 7.86-7.52 15.41-12.28 22.54l-40.54 60.88 61.37-43.85a144.8 144.8 0 0 0 35.56-36.41l23.8-35.014a144.5 144.5 0 0 0 13.04-23.671l56.61-130.256 9.53 41.623 9.53 41.623 6.87 49.545 1.65 48.853-2.5 43.887-2.5 43.89-6.59 43.3-4.79 31.5c-1.2 7.86-3.04 15.6-5.5 23.15l-13.4 41.06c-2.88 8.81-6.59 17.32-11.1 25.42l-25.74 46.29-23.78 33.85-15.64 22.26a144.8 144.8 0 0 1-18.39 21.39l-23.52 22.49-26.81 23.82a145 145 0 0 1-22.51 16.41l-45.29 26.76-60.85 34.71-71.58 30.44a144.2 144.2 0 0 1-34.234 9.8l-59.685 9.36a145 145 0 0 1-21.444 1.75l-37.49.25-17.675.12c-20.178.13-40.16-3.95-58.666-11.99l-76.084-33.07a144.5 144.5 0 0 1-24.587-13.67l-71.488-49.39-33.64-27.42a60.22 60.22 0 0 1-22.159-47.02c.024-4.12-.376-8.24-1.194-12.29l-.394-1.95c-4.76-23.54 1.503-48.12 16.827-66.61 13.067-15.77 19.713-36.07 18.388-56.51l-1.726-26.63 2.212-61.38 5.506-36.27 7.959-32.84 8.119-29.56a144 144 0 0 1 6.824-19.35l12.054-27.74 31.001-58.784a145 145 0 0 1 11.053-17.729l14.359-19.702 14.287-19.605a144.6 144.6 0 0 1 13.659-16.124l21.619-22.035 20.172-20.559a145 145 0 0 1 19.169-16.398l22.316-15.946 32.619-23.306 32.546-18.603 22.492-12.856a145 145 0 0 1 20.897-9.822l19.34-7.27 30.181-11.346 101.687-38.162c10.12-3.8 19.79-8.722 28.82-14.674l24.37-16.075a144.4 144.4 0 0 0 21.89-17.71l2.47-2.429a144.7 144.7 0 0 0 35.7-57.21l8.51-25.43a145 145 0 0 0 6.08-25.859"/><path fill="#fe6323" d="m433.151 499.864-8.36-59.749-35.199 57.908-8.129 13.373a309.7 309.7 0 0 0-38.073 95.48l-5.501 25.471-7.439 55.511-3.068 60.121a342.6 342.6 0 0 0 14.545 117.687l2.099 6.859 19.713 64.424 18.229 41.944a413 413 0 0 0 35.038 64.327l27.305 41-38.785-27.72a300.2 300.2 0 0 1-100.795-124.596l-50.799-116.889-9.529 41.623-9.529 41.624-6.876 49.545-1.652 48.853 2.503 43.89 2.504 43.89 6.587 43.3 1.795 11.8a386.3 386.3 0 0 0 44.3 129.66l14.433 25.96 23.786 33.85.536.76a413 413 0 0 0 52.479 61.04l4.528 4.33 7.428 6.6a413 413 0 0 0 64.226 46.83l22.955 13.56 60.852 34.71 3.213 1.68a413.2 413.2 0 0 0 84.428 32.93l22.735 6.09 34.586 5.56a413 413 0 0 0 62.793 5.23l16.68.11a262.85 262.85 0 0 0 109.315-24.49l25.803-12a393.4 393.4 0 0 0 57.73-33.05l55.649-38.45 33.64-27.43a60.2 60.2 0 0 0 22.16-47.01c-.02-4.13.38-8.25 1.2-12.29l.39-1.95c4.76-23.54-1.5-48.12-16.83-66.62-13.06-15.77-19.71-36.06-18.39-56.5l1.73-26.64-2.21-61.38-5.51-36.27-7.96-32.84-3.07-11.17a412 412 0 0 0-19.468-55.22l-4.455-10.254-21.946-41.615a413 413 0 0 0-31.54-50.584l-2.927-4.016-2.724-3.738a413 413 0 0 0-38.972-46.005l-7.869-8.02-3.74-3.811a413 413 0 0 0-54.692-46.787l-3.225-2.305-32.619-23.307-32.546-18.603-4.554-2.602a403 403 0 0 0-58.175-27.346l-30.181-11.345-87.059-32.674a283.7 283.7 0 0 1-56.485-28.762l-10.5-6.923A155.002 155.002 0 0 1 447.99 556.2l-5.363-16.034a225.7 225.7 0 0 1-9.476-40.302"/><path fill="#ffa624" d="m735.39 750.281-10.37-37.335 51.28 36.198a137.7 137.7 0 0 1 32.439 32.18l18.636 25.958a137.7 137.7 0 0 1 11.303 18.721l26.865 53.731a137.7 137.7 0 0 1 13.655 46.037l6.886 60.663v50.936l-9.636 70.67 51.393-70.67 20.99-34.38a137.6 137.6 0 0 0 9.745-19.192l33.966-82.255 11.468 39.922 8.2 34.925a137 137 0 0 1 3.19 20.328l3.3 40.652v98.66l-4.13 42.21-7.84 38.19c-1.81 8.78-4.46 17.37-7.938 25.64l-6.25 14.87-7.705 16.61a138 138 0 0 1-13.413 22.85l-16.968 23.41-26.615 35.56-30.018 31.67a137.7 137.7 0 0 1-26.146 21.52l-24.653 15.65a138 138 0 0 1-18.045 9.65l-18.609 8.23-9.738 4.32a94.5 94.5 0 0 1-38.215 8.07 94 94 0 0 1-14.144-1.06l-15.561-2.36a137.6 137.6 0 0 1-43.291-14.18l-25.55-13.39a137.3 137.3 0 0 1-20.604-13.27l-12.643-9.83a137.7 137.7 0 0 1-26.006-26.59l-16.479-22.2a137 137 0 0 1-11.919-19.15l-11.806-22.97-14.225-36.25-5.965-22.49-3.671-21.1-2.288-16.02a137.5 137.5 0 0 1-1.383-19.46v-15.92l2.921-38.7c.499-6.62 1.476-13.19 2.922-19.66l2.646-11.84 2.621-11.74a138 138 0 0 1 5.802-19.24l5.802-15.14 5.098-13.31c2.867-7.48 6.382-14.7 10.504-21.57l6.883-11.47 13.078-21.794 14.225-19.043 7.632-10.218a137.7 137.7 0 0 1 14.505-16.49l6.772-6.56 14.684-14.225 45.779-44.303a137.7 137.7 0 0 0 19.574-23.724l6.95-10.656a98.28 98.28 0 0 0 15.586-62.242l-.976-11.172a137.7 137.7 0 0 0-4.5-24.862"/><path fill="#ffa624" d="m1038.06 579.541-10.18-45.555 18.99 16.653a413 413 0 0 1 85.3 103.858l4.46 7.716 20.03 49.747a413.2 413.2 0 0 1 28.16 116.645l4.12 45.041v63.259l-9.64 87.765 51.4-87.765 26.61-54.141 38.09-114.55 11.47 49.582 10.55 55.85 4.13 63.259v122.525l-4.13 52.43-5.07 30.68c-3.65 22.07-9.08 43.8-16.25 64.98l-.7 2.08-.94 2.51a413 413 0 0 1-30.18 63.63l-6.97 11.94-26.61 44.16-19.47 25.51a290.8 290.8 0 0 1-51.15 51.95c-12.55 9.9-25.9 18.74-39.91 26.44l-6.94 3.82-10.59 5.82a77.44 77.44 0 0 1-51.57 8.23l-7.45-1.4a158.7 158.7 0 0 1-57.226-22.96l-12.405-8.08a226.15 226.15 0 0 1-70.727-73.48l-6.756-11.3a325 325 0 0 1-21.391-42.58l-7.845-18.96-14.225-45.02-5.966-27.92-3.671-26.22-3.671-31.91v-31.92l3.671-60.41 4.818-26.78 4.819-26.786 9.406-30.49.544-1.762a398 398 0 0 1 21.941-55.798l13.078-27.07 14.225-23.651 2.385-3.964a302 302 0 0 1 26.524-37.353l14.684-17.667 41.169-49.481a232.8 232.8 0 0 0 27.169-40.683l3.53-6.726c3.78-7.201 6.94-14.71 9.45-22.447a143.4 143.4 0 0 0 6.66-54.409l-1.02-14.5a216.6 216.6 0 0 0-4.73-32.342M586.899 595.414l27.761-82.078-27.443 13.563a237.7 237.7 0 0 0-100.483 94.144l-23.731 41.058-20.033 49.768A413 413 0 0 0 414.81 828.5l-4.119 45.064v63.267l9.637 87.779-51.394-87.779-26.615-54.148-38.086-114.566-11.472 49.589-10.554 55.858-4.13 63.267v122.549l4.13 52.44 5.074 30.69a413 413 0 0 0 16.245 64.97l.707 2.09.941 2.51a413 413 0 0 0 30.178 63.63l6.967 11.94 26.615 44.18 19.467 25.51a290.8 290.8 0 0 0 51.146 51.95 290.4 290.4 0 0 0 39.919 26.45l6.939 3.81 10.589 5.83a77.4 77.4 0 0 0 37.262 9.56c4.799 0 9.588-.44 14.304-1.33l7.453-1.4a158.7 158.7 0 0 0 57.222-22.96l12.405-8.08a227 227 0 0 0 33.742-26.88 226.4 226.4 0 0 0 36.986-46.61l6.757-11.31a325 325 0 0 0 21.391-42.58l7.845-18.96 14.225-45.03 5.966-27.93 3.671-26.22 3.671-31.92v-31.91l-3.671-60.42-4.819-26.79-4.818-26.791-9.407-30.494-.543-1.762a398 398 0 0 0-21.941-55.806l-13.078-27.074-14.225-23.654-2.385-3.966a302 302 0 0 0-26.524-37.357l-14.684-17.67-29.139-47.308-25.287-34.215a99.72 99.72 0 0 1-13.283-94.011z"/><path fill="#ff9700" d="m889.754 595.414 27.762-82.078-27.444 13.563a237.7 237.7 0 0 0-100.482 94.144l-23.732 41.058-20.033 49.768a413 413 0 0 0-28.16 116.631l-4.118 45.064v63.267l9.636 87.779-51.393-87.779-26.615-54.148-38.086-114.566-11.472 49.589-10.554 55.858-4.13 63.267v122.549l4.13 52.44 5.074 30.69a413 413 0 0 0 16.245 64.97l.707 2.09 6.907 18.49a214 214 0 0 0 15.617 32.93 213.5 213.5 0 0 1 22.939 56.65l5.969 24.25a156 156 0 0 0 27.469 57.37l3.856 5.05a128.7 128.7 0 0 0 45.053 37.19l7.95 3.95a90.96 90.96 0 0 0 40.447 9.49h46.231c9.844 0 19.667-.91 29.342-2.73a158.7 158.7 0 0 0 57.222-22.96l12.405-8.08a227 227 0 0 0 33.742-26.88 226.4 226.4 0 0 0 36.985-46.61l6.757-11.31a325 325 0 0 0 21.39-42.58l7.85-18.96 14.22-45.03 5.97-27.93 3.67-26.22 3.67-31.92v-31.91l-3.67-60.42-4.82-26.79-4.82-26.791-9.41-30.494-.54-1.762a397.6 397.6 0 0 0-21.94-55.806l-13.08-27.074-14.223-23.654-2.385-3.966a302 302 0 0 0-26.524-37.357l-14.684-17.67-29.138-47.308-25.288-34.215a99.74 99.74 0 0 1-13.282-94.011z"/><path fill="#fff28c" d="m425.411 181.593 9.127-16.719 1.494 9.164.299 3.705v2.738c0 1.411-.15 2.818-.447 4.198l-.726 3.368-.303 1.357a19.9 19.9 0 0 1-4.816 9.186l-1.855 2.006a20 20 0 0 1-3.117 2.736l-6.079 4.302a4.17 4.17 0 0 1-5.218-.314l-7.819-7.086-1.576-1.881a19.9 19.9 0 0 1-4.166-8.425l-.091-.403a19.92 19.92 0 0 1 3.251-15.983l11.594-16.158-.874 7.249a20 20 0 0 0-.034 4.469l.586 5.57c.214 2.035.74 4.025 1.56 5.9l.276.63c1.658 3.793 6.951 4.024 8.934.391M1368.41 353.593l9.13-16.719 1.49 9.164.3 3.705v2.738c0 1.411-.15 2.818-.45 4.198l-.72 3.368-.3 1.357a19.95 19.95 0 0 1-4.82 9.186l-1.86 2.006a20 20 0 0 1-3.11 2.736l-6.08 4.302a4.177 4.177 0 0 1-5.22-.314l-7.82-7.086-1.58-1.881a19.95 19.95 0 0 1-4.16-8.425l-.09-.403a19.9 19.9 0 0 1 3.25-15.983l11.59-16.158-.87 7.249a20.2 20.2 0 0 0-.04 4.469l.59 5.57c.21 2.035.74 4.025 1.56 5.9l.28.63c1.66 3.793 6.95 4.024 8.93.391M1016.41 30.593l9.13-16.72 1.49 9.165.3 3.705v2.738c0 1.411-.15 2.819-.45 4.198l-.72 3.368-.3 1.357a19.95 19.95 0 0 1-4.82 9.187l-1.86 2.005a20 20 0 0 1-3.11 2.736l-6.08 4.303a4.18 4.18 0 0 1-5.22-.314l-7.819-7.086-1.576-1.882a19.9 19.9 0 0 1-4.166-8.424l-.091-.404a19.92 19.92 0 0 1 3.251-15.983l11.591-16.158-.87 7.25a20.2 20.2 0 0 0-.04 4.468l.59 5.57c.21 2.035.74 4.025 1.56 5.9l.28.63c1.66 3.793 6.95 4.024 8.93.391M158.327 504.593l-9.127-16.719-1.494 9.164-.299 3.705v2.738c0 1.411.15 2.818.447 4.198l.726 3.368.303 1.357a19.9 19.9 0 0 0 4.816 9.186l1.855 2.006a20 20 0 0 0 3.117 2.736l6.079 4.302a4.175 4.175 0 0 0 5.219-.314l7.819-7.086 1.576-1.881a19.9 19.9 0 0 0 4.166-8.425l.09-.403a19.92 19.92 0 0 0-3.251-15.983l-11.594-16.158.874 7.249c.179 1.484.191 2.983.034 4.469l-.585 5.57a20 20 0 0 1-1.561 5.9l-.275.63c-1.659 3.793-6.952 4.024-8.935.391M506.455 1286.19l-68.994-148.34-15.755 68.54-4.064 27.86a345.5 345.5 0 0 0 3.062 73.16l.789 5.29a189.93 189.93 0 0 0 40.195 90.36l2.759 3.4a206.3 206.3 0 0 0 30.371 30.32l10.731 8.68A189.04 189.04 0 0 0 588 1484l216.634 32.89-88.784-93.96c-25.655-27.15-34.962-65.88-24.444-101.73a105.06 105.06 0 0 0-11.689-85.21l-90.659-145.22 2.085 37.38a309.3 309.3 0 0 1-3.931 69.26 309.2 309.2 0 0 1-30.055 89.83c-10.769 20.85-40.803 20.23-50.702-1.05M1084.47 1268.67l60.84-130.81 15.76 68.54 4.06 27.85 1.34 20.7c.68 10.67.24 21.38-1.34 31.95l-3.85 25.81-1.63 10.4a150.75 150.75 0 0 1-31.93 71.78l-13.04 16.06a151 151 0 0 1-22.23 22.2l-22.34 18.08a150.97 150.97 0 0 1-66.38 30.87l-177.071 34.1 54.896-71.13a107.42 107.42 0 0 0 18.029-95.87l-3.108-10.59a145.48 145.48 0 0 1 16.187-118l81.054-129.83-3.08 55.22c-.63 11.3.013 22.64 1.918 33.79l7.138 41.81a150.9 150.9 0 0 0 14.667 43.84l2.39 4.63c14.38 27.86 54.5 27.03 67.72-1.4"/><path fill="#fff28c" d="m846.913 1291.68 66.977-150.23 17.162 81.58 4.504 32.81.144 2.22c1.749 27 .841 54.11-2.712 80.94l-.921 6.94-.474 3.4a192.93 192.93 0 0 1-42.091 95.93 193 193 0 0 0-26.974 43.45l-2.142 4.77-2.083 5.21a17.75 17.75 0 0 1-6.632 8.17c-1.07.71-2.214 1.31-3.412 1.77l-10.587 4.12a59.64 59.64 0 0 1-27.234 4.53l-5.805-.4a66.9 66.9 0 0 1-38.04-19.07l-60.816-61.18-15.049-19.25a201.9 201.9 0 0 1-36.133-72.72 201.94 201.94 0 0 1 23.149-157.38l75.549-123-1.839 40.95a413 413 0 0 0 4.71 83.39l.469 2.95a397 397 0 0 0 29.858 100.16c11.707 26.1 48.774 26.06 60.422-.06"/></svg>