<svg xmlns="http://www.w3.org/2000/svg" width="446" height="687" fill="none"><path fill="#fe6323" d="M184.8 38.331 174.152 0l32.495 22.937 20.814 14.692a85 85 0 0 1 20.018 19.859l9.502 13.235 8.92 12.424 16.99 28.141 15.717 31.644 9.075 18.274a85 85 0 0 1 8.325 28.206l2.776 24.456 4.46 39.29v40.859c0 5.033-.447 10.055-1.336 15.008l-7.584 42.253 22.777-37.962a85 85 0 0 0 10.626-27.916l4.619-24.415a85 85 0 0 0 1.481-15.792v-83.359l14.866 20.176 14.867 20.177 15.291 25.061 12.319 25.91 8.92 24.212 8.92 24.211 6.583 24.849 4.79 18.076a85 85 0 0 1 2.455 13.746l2.391 25.236a85 85 0 0 1-.025 16.283l-3.027 30.938-4.885 23.786-3.211 15.638a85 85 0 0 1-4.896 15.818l-7.396 17.604-8.862 19.098a85 85 0 0 1-8.277 14.1l-18.117 24.995-24.636 32.919-31.409 33.135a85 85 0 0 1-16.135 13.284l-29.939 19a85 85 0 0 1-11.135 5.955l-20.121 8.906-9.487 4.199a85 85 0 0 1-34.384 7.269h-.701c-4.26 0-8.514-.32-12.726-.958l-21.633-3.278a85 85 0 0 1-26.715-8.752l-33.324-17.469a85 85 0 0 1-12.715-8.184l-19.27-14.988a85 85 0 0 1-16.05-16.411L45.366 588.38a85 85 0 0 1-7.355-11.818L25.486 552.19l-13.168-33.556-5.522-20.813-3.398-19.539-2.544-17.81A85 85 0 0 1 0 448.458v-17.749l2.935-38.896c.308-4.081.911-8.134 1.803-12.128l3.12-13.965 3.104-13.895a85 85 0 0 1 3.58-11.875l6.484-16.919 6.049-15.785a85 85 0 0 1 6.482-13.311l8.282-13.805 12.106-20.176 13.167-17.627 9.1-12.182a85 85 0 0 1 8.95-10.176l8.71-8.438 13.593-13.167 45.808-44.33a85 85 0 0 0 12.079-14.641l9.363-14.356a85 85 0 0 0 7.637-14.653l.76-1.884a84.96 84.96 0 0 0 5.835-39.148l-1.37-15.679a85 85 0 0 0-2.777-15.342"/><path fill="#ffa624" d="m197.259 221.828-6.4-23.04 31.646 22.338a85 85 0 0 1 20.018 19.859l11.501 16.019a85 85 0 0 1 6.975 11.553l16.579 33.157a85 85 0 0 1 8.426 28.41l4.25 37.436v31.433l-5.947 43.609 31.716-43.609 12.952-21.216a85 85 0 0 0 6.014-11.843l20.961-50.761 7.08 24.636 5.058 21.553a85 85 0 0 1 1.969 12.545l2.034 25.086v60.882l-2.548 26.052-4.84 23.567a85 85 0 0 1-4.896 15.818l-3.857 9.18-4.755 10.248a85 85 0 0 1-8.277 14.1l-10.471 14.447-16.424 21.946-18.525 19.542a85 85 0 0 1-16.135 13.285l-15.214 9.655a85 85 0 0 1-11.135 5.955l-11.484 5.083-6.01 2.66a58.27 58.27 0 0 1-32.311 4.328l-9.603-1.455a85 85 0 0 1-26.715-8.752l-15.767-8.265a85 85 0 0 1-12.715-8.185l-7.802-6.068a85 85 0 0 1-16.049-16.411l-10.169-13.695a85 85 0 0 1-7.355-11.817l-7.286-14.178-8.778-22.371-3.681-13.875-2.266-13.026-1.411-9.881a85 85 0 0 1-.854-12.014v-9.821l1.803-23.887c.308-4.081.91-8.134 1.802-12.128l1.633-7.31 1.618-7.241c.903-4.04 2.1-8.009 3.58-11.875l3.581-9.343 3.146-8.211a85 85 0 0 1 6.482-13.311l4.248-7.079 8.07-13.451 8.778-11.752 4.711-6.305a85 85 0 0 1 8.95-10.176l4.179-4.049 9.062-8.778 28.251-27.34a85 85 0 0 0 12.079-14.64l4.289-6.576a60.654 60.654 0 0 0 9.619-38.41l-.603-6.895a85 85 0 0 0-2.777-15.342"/><path fill="#fff28c" d="m245.319 543.328 38.92-71.297 6.371 39.078 1.276 15.799v11.678a85 85 0 0 1-1.908 17.901l-3.096 14.363-1.29 5.785a84.95 84.95 0 0 1-20.54 39.176l-7.908 8.553a85 85 0 0 1-13.293 11.664l-25.922 18.35a17.81 17.81 0 0 1-22.255-1.34l-33.341-30.217-6.721-8.022a84.95 84.95 0 0 1-17.766-35.926l-.386-1.72a84.95 84.95 0 0 1 13.863-68.158l49.443-68.904-3.729 30.915a85 85 0 0 0-.146 19.057l2.498 23.75a85 85 0 0 0 6.653 25.159l1.177 2.69c7.073 16.172 29.642 17.159 38.1 1.666"/></svg>