<svg width="3360" height="2976" viewBox="0 0 3360 2976" fill="none" xmlns="http://www.w3.org/2000/svg">
<path d="M2111.15 1658.01L2147.27 1613.42L2084.16 1626.52L2069.59 1629.55C2037.46 1636.22 2006.67 1648.21 1978.49 1665.03L1957.21 1677.73L1913.79 1708.58L1869.99 1745.46C1841.02 1769.86 1816.52 1799.12 1797.6 1831.94L1794.19 1837.85L1762.18 1893.36L1745.56 1931.61C1735.81 1954.04 1728.07 1977.3 1722.44 2001.11L1712.07 2044.95L1706.17 2000C1701.78 1966.56 1703.35 1932.61 1710.81 1899.72C1714.75 1882.35 1720.3 1865.39 1727.4 1849.06L1775.72 1737.89L1740.59 1758.27L1705.47 1778.65L1666.55 1806.02L1631.51 1836.57L1602.62 1866.79L1573.72 1897.02L1547.89 1929.69L1540.85 1938.6C1528.34 1954.42 1517.16 1971.24 1507.41 1988.9C1496.04 2009.5 1486.67 2031.15 1479.43 2053.54L1470.75 2080.42L1462.65 2118.92C1457.26 2144.53 1454.38 2170.61 1454.06 2196.78L1454 2201.85L1454.19 2209.34C1454.83 2235.89 1458.04 2262.32 1463.77 2288.25L1468.81 2311.1L1484.16 2375.94L1497.78 2413.4C1509.4 2445.35 1524.91 2475.74 1543.98 2503.89L1545.56 2506.22C1557.05 2523.18 1569.79 2539.27 1583.66 2554.35L1593.92 2565.48L1604.74 2577.23C1618.11 2591.76 1634.37 2603.33 1652.48 2611.2C1658.99 2614.03 1665.71 2616.36 1672.57 2618.19L1682.9 2620.93C1713.34 2629.01 1744.91 2631.97 1776.31 2629.68L1797.1 2628.16C1815.65 2626.81 1834.05 2623.8 1852.07 2619.18C1879.5 2612.14 1905.84 2601.42 1930.39 2587.3L1940.22 2581.64C1959.01 2570.83 1976.88 2558.49 1993.65 2544.76L2011.56 2530.09L2052.81 2488.73L2074.46 2461.36L2092.13 2434.52L2097.15 2426.36C2107.4 2409.72 2116.45 2392.37 2124.24 2374.45L2127.9 2366.01L2142.12 2325.13C2148.65 2306.34 2153.82 2287.1 2157.58 2267.56L2158.2 2264.35L2158.75 2261.48C2162.56 2241.72 2164.91 2221.71 2165.8 2201.6L2166.2 2192.4L2166.35 2189.1C2167.41 2165.08 2166.37 2141.02 2163.24 2117.19L2162.98 2115.2L2158.02 2077.4L2149.84 2042.7L2148.69 2037.84C2144.01 2017.98 2137.74 1998.51 2129.96 1979.65L2118.26 1951.3L2084.49 1869.56C2076.79 1850.93 2071.2 1831.49 2067.83 1811.62L2065.83 1799.83C2064.23 1790.38 2063.56 1780.8 2063.81 1771.22C2064.44 1748.02 2070.53 1725.28 2081.61 1704.88L2089.27 1690.75C2095.55 1679.19 2102.87 1668.23 2111.15 1658.01Z" fill="#FE6323"/>
<path d="M2102.62 363.089L2085.19 246L2129.2 303.969C2158.97 343.186 2183.05 386.411 2200.73 432.365L2222.88 489.936L2263.26 640.657C2272.33 674.526 2277.98 709.222 2280.11 744.221L2289.1 892.158V1012.5L2276.9 1179.46L2341.97 1012.5L2355.36 971.586C2368.84 930.359 2377.15 887.614 2380.08 844.335L2391 683.077L2404.55 712.474C2426.99 761.143 2441.81 812.972 2448.5 866.146L2451.77 892.158L2457 1012.5V1140.43V1245.59L2451.77 1345.34L2438.41 1466.76L2423.89 1531.27L2407.04 1599.03L2375.67 1679.8L2341.97 1763.82L2313.02 1820.82C2297.13 1852.1 2277.67 1881.44 2255.04 1908.25C2237.5 1929.01 2218.15 1948.16 2197.2 1965.47L2193.25 1968.73L2176.88 1982.25C2164.55 1992.43 2149.06 1998 2133.07 1998C2126.74 1998 2120.44 1997.13 2114.35 1995.4L2103.26 1992.27C2078.82 1985.36 2056.51 1972.43 2038.35 1954.67L2013.83 1930.68C2000.63 1917.77 1988.71 1903.61 1978.23 1888.4L1972.24 1879.71C1955.41 1855.29 1941.39 1829.06 1930.43 1801.51L1903.35 1733.47L1881.86 1655.41L1863.85 1569.76L1856.3 1516.63L1851.65 1466.76L1847 1406.05V1345.34L1851.65 1230.42L1857.75 1179.46L1863.85 1128.51L1875.76 1070.5L1887.67 1012.5L1904.22 961.002L1920.78 909.505L1938.79 864.512L1956.8 819.52L1975.39 785.911L1993.98 752.302L2044.5 661.057C2058.82 635.201 2070.92 608.177 2080.67 580.277L2092.16 547.396L2093.45 541.431C2103.01 497.169 2106.78 451.854 2104.66 406.622L2102.62 363.089Z" fill="#EF4905"/>
<path d="M1526.98 299.218L1562.13 137L1540.5 153.685C1501.21 183.999 1467.64 221.086 1441.38 263.199C1426.45 287.15 1413.99 312.555 1404.19 339.024L1370.12 431.02L1328.79 591.319C1320.35 624.063 1315.1 657.55 1313.12 691.307L1303.9 848.956V973.999L1316.1 1147.48L1251.03 973.999L1217.33 866.981L1169.11 640.551L1154.59 738.558L1141.23 848.956L1136 973.999V1106.93V1216.2L1141.23 1319.84L1154.59 1446.01L1169.11 1513.04L1185.96 1583.44L1217.33 1667.37L1251.03 1754.67L1280.33 1814.61C1295.99 1846.64 1315.25 1876.79 1337.74 1904.46C1355.42 1926.22 1375.02 1946.35 1396.29 1964.61L1399.75 1967.58L1416.46 1981.92C1428.55 1992.3 1443.95 1998 1459.88 1998C1466.24 1998 1472.57 1997.09 1478.67 1995.3L1489.98 1991.97C1514.25 1984.84 1536.29 1971.64 1554.03 1953.61L1579.54 1927.68C1592.5 1914.51 1604.16 1900.13 1614.37 1884.73L1620.93 1874.83C1637.64 1849.62 1651.53 1822.66 1662.35 1794.42L1689.65 1723.13L1711.14 1642.02L1729.15 1553.03L1736.7 1497.83L1741.35 1446.01L1746 1382.92V1319.84L1741.35 1200.43L1735.25 1147.48L1729.15 1094.54L1717.24 1034.27L1705.33 973.999L1688.78 920.49L1672.22 866.981L1654.21 820.23L1636.2 773.48L1617.61 738.558L1599.02 703.636L1562.13 610.136L1533.03 548.677C1519.98 521.105 1511.36 491.644 1507.51 461.383C1503.1 426.781 1504.98 391.667 1513.05 357.733L1526.98 299.218Z" fill="#EF4905"/>
<path d="M1738.02 174.16L1702.87 0L1722.25 16.0501C1763.04 49.833 1797.53 90.5651 1824.13 136.364C1838.72 161.502 1850.85 187.998 1860.33 215.48L1894.88 315.665L1937.81 494.427C1945.19 525.16 1949.77 556.499 1951.49 588.058L1961.1 764.368V898.616L1948.9 1084.87L2013.97 898.616L2047.67 783.719L2095.89 540.621L2110.41 645.843L2123.77 764.368L2129 898.616V1041.33V1158.65L2123.77 1269.92L2110.41 1405.37L2095.89 1477.33L2079.04 1552.92L2063.98 1596.16C2053.13 1627.34 2045.25 1659.47 2040.46 1692.13L2028.04 1776.73C2023.33 1808.78 2014.13 1840.01 2000.7 1869.5L1982.32 1909.87C1972.95 1930.46 1959.05 1948.68 1941.66 1963.15L1920.57 1980.71C1907.16 1991.88 1890.26 1998 1872.8 1998H1829.81H1817.55C1802.96 1998 1788.45 1995.77 1774.54 1991.38C1750.61 1983.83 1729.1 1970.12 1712.15 1951.62L1684.77 1921.75C1672.27 1908.11 1661.09 1893.32 1651.37 1877.58L1643.76 1865.27C1627.25 1838.53 1613.6 1810.13 1603.04 1780.52L1575.35 1702.9L1553.86 1615.82L1535.85 1520.27L1528.3 1461.01L1523.65 1405.37L1519 1337.64V1269.92L1523.65 1141.71L1529.75 1084.87L1535.85 1028.03L1547.76 963.321L1559.67 898.616L1576.22 841.168L1592.78 783.719L1610.79 733.527L1628.8 683.335L1647.39 645.843L1665.98 608.35L1702.87 507.966L1731.64 442.731C1744.92 412.613 1753.64 380.685 1757.52 347.998C1761.92 310.984 1760.04 273.495 1751.97 237.105L1738.02 174.16Z" fill="#FF9700"/>
<path d="M967.005 789.652L939.974 758.789L979.039 764.905C1006.92 769.271 1033.69 779.046 1057.82 793.681C1076.95 805.285 1094.17 819.784 1108.86 836.663L1130.67 861.713L1152.65 886.973L1197.48 945.582L1242.63 1012.96L1261.64 1041.34C1279 1067.25 1293.16 1095.16 1303.79 1124.47L1320.51 1170.54L1353.25 1260.74L1385.08 1374.29L1403.92 1494.7L1412.7 1410.7C1416.09 1378.29 1415.36 1345.59 1410.52 1313.36L1400.63 1247.46L1340.61 1033.31L1376.9 1074.16L1413.2 1115.02L1453.37 1167.14L1489.48 1222.55L1519.22 1275.45L1548.95 1328.35L1575.49 1383.76L1602.02 1439.17L1634.47 1532.14L1654.23 1625.43L1662.29 1683.33L1670.36 1741.23L1670.52 1805.11L1668.88 1872.71L1665.4 1977.94L1676.21 2210.82L1675.6 2224.78C1674.32 2254.11 1654.34 2279.3 1626.07 2287.22L1560.25 2305.67L1506.95 2320.61L1451.66 2336.11L1402.96 2349.76L1354.92 2363.23L1305.56 2377.06C1259.4 2390 1210.01 2373.68 1180.64 2335.8L1114.37 2250.31C1089.67 2218.45 1072.19 2181.61 1063.12 2142.33L1030.75 2002.17C1026.1 1982.02 1019.83 1962.28 1012.01 1943.13L1005.65 1927.55L984.75 1873.25L969.115 1817.47L944.785 1710.41L938.574 1661.66L932.362 1612.91L930.917 1555.84L929.472 1498.77L934.967 1446.2L940.462 1393.63L949.277 1346.58L958.093 1299.52L970.498 1262.74L982.903 1225.96L1019.11 1118.79C1027.02 1095.36 1032.67 1071.22 1035.96 1046.71L1038.36 1028.87C1040.36 1014 1041.26 998.999 1041.06 983.996L1041.05 982.74C1040.63 950.992 1035.17 919.514 1024.85 889.487C1012.23 852.769 992.585 818.859 967.005 789.652Z" fill="#EF4905"/>
<path d="M2701.76 629.798L2731.09 596.467L2688.55 603.032C2658.43 607.682 2629.5 618.167 2603.39 633.897C2582.61 646.418 2563.91 662.09 2547.94 680.354L2524.42 707.251L2500.61 734.481L2452.09 797.67L2403.23 870.324L2380.7 903.818C2363.21 929.828 2348.95 957.874 2338.24 987.335L2319 1040.28L2283.64 1137.58L2249.3 1260.09L2229.05 1390.03L2219.01 1295.7C2215.54 1263.14 2216.23 1230.27 2221.07 1197.88L2232.22 1123.17L2296.99 892.124L2257.68 936.163L2218.38 980.203L2174.9 1036.4L2135.81 1096.15L2103.65 1153.2L2071.48 1210.25L2042.79 1270.02L2014.1 1329.78L1979.06 1430.07L1957.77 1530.74L1949.12 1593.22L1940.46 1655.7L1940.39 1724.65L1942.27 1797.62L1946.22 1911.2L1934.87 2162.54L1935.54 2177.33C1936.99 2209.17 1958.69 2236.49 1989.38 2245.09L2060.79 2265.11L2118.64 2281.32L2178.63 2298.14L2231.47 2312.95L2283.6 2327.56L2337.16 2342.57C2387.27 2356.62 2440.89 2338.96 2472.85 2297.9L2544.1 2206.36C2570.98 2171.82 2590.01 2131.83 2599.84 2089.18L2635.14 1936.15C2639.81 1915.89 2646.12 1896.04 2654 1876.79L2661.73 1857.88L2684.31 1799.3L2701.18 1739.12L2727.4 1623.6L2734.06 1570.99L2740.72 1518.38L2742.19 1456.79L2743.67 1395.19L2737.62 1338.44L2731.58 1281.69L2721.94 1230.88L2712.31 1180.08L2698.79 1140.36L2685.28 1100.64L2644.9 982.166C2636.9 958.686 2631.18 934.489 2627.83 909.911L2624.81 887.788C2622.62 871.755 2621.61 855.582 2621.8 839.401L2621.82 838.025C2622.22 803.763 2628.1 769.785 2639.25 737.384C2652.87 697.786 2674.1 661.237 2701.76 629.798Z" fill="#EF4905"/>
<path d="M2860.66 1239.38L2830.5 1141.5L2875.99 1181.6C2901.8 1204.36 2923.51 1231.4 2940.16 1261.52L2943.1 1266.84C2960.33 1298.03 2971.87 1332.04 2977.18 1367.28L2981.66 1397L2985.4 1454.43C2987.42 1485.4 2984.62 1516.49 2977.11 1546.6L2969.16 1578.46L2942.67 1661.91L2907.54 1745L2861.99 1833.58L2807.8 1921.8L2733.24 2024.9L2644.1 2121.58L2733.46 2064.89C2754.97 2051.25 2774.65 2034.93 2792.03 2016.31L2851.07 1953.09L2991.69 1758.66L2981.66 1816.83L2971.62 1874.99L2954.67 1944L2932.2 2011.77L2907.54 2072.44L2882.88 2133.12L2853.94 2192.76L2824.99 2252.4L2768.27 2342.22L2702.69 2421.51L2659.15 2467.15L2615.62 2512.8L2561.68 2555.74L2503.37 2599.66L2411.98 2667.23L2393.75 2678.86C2345.55 2709.62 2289.56 2725.96 2232.38 2725.96L2222.26 2725.96L2123.71 2725.96L2040.46 2725.96L2019.34 2725.96C1983.66 2725.96 1948.89 2714.7 1919.99 2693.8L1876.12 2662.07L1831.04 2629.47C1788.88 2598.98 1769.35 2546.02 1781.62 2495.45L1811.74 2371.29C1820.23 2336.28 1836.26 2303.55 1858.71 2275.37L1968.22 2137.92C1978.3 2125.27 1987.34 2111.82 1995.25 2097.71L2008.64 2073.83L2040.46 2019.71L2077.09 1969.07L2151.22 1876.69L2188.27 1838.74L2225.32 1800.8L2272.63 1761.33L2319.94 1721.86L2368.13 1691.29L2416.33 1660.72L2462.1 1636.66L2507.87 1612.6L2547.38 1598.48L2586.88 1584.35L2712.57 1539.48C2730.74 1532.99 2748.24 1524.76 2764.83 1514.92L2803.12 1492.19C2809.07 1488.65 2814.75 1484.69 2820.12 1480.32C2853.01 1453.56 2872.1 1413.41 2872.1 1371.01L2872.1 1315.35C2872.1 1289.6 2868.25 1263.99 2860.66 1239.38Z" fill="#FE6323"/>
<path d="M686.735 589.345L379.205 499.417L597.588 472.466C634.301 467.936 671.536 470.234 707.413 479.245L788.736 499.671L890.257 543.508C908.779 551.507 926.447 561.353 942.993 572.897L957.182 582.798C981.491 599.759 1003.15 620.229 1021.46 643.541L1045.3 673.902L1071.03 706.662L1123.64 782.395L1176.83 869.174L1212.8 927.874C1224.24 946.537 1233.6 966.396 1240.72 987.097L1269.53 1070.87L1309.04 1185.79L1348.05 1330.04L1372.37 1482.34L1382.54 1350.41C1384.3 1327.49 1383.43 1304.45 1379.94 1281.73L1362.93 1171.22L1289.35 899.167L1331.8 952.187L1374.25 1005.21L1421.39 1072.57L1463.97 1143.89L1499.19 1211.77L1534.42 1279.64L1566.04 1350.52L1597.66 1421.41L1636.9 1539.8L1661.65 1658.03L1672.21 1731.22L1682.76 1804.4L1684.42 1884.75L1684.1 1969.71L1682.54 2101.9L1700.26 2395.29L1699.75 2418.75C1699.04 2451.83 1676.61 2480.49 1644.66 2489.13L1569.82 2509.38L1509.19 2525.77L1446.32 2542.77L1390.94 2557.75L1336.3 2572.53L1280.17 2587.71C1228.04 2601.81 1172.67 2581.8 1141.59 2537.64L1048.76 2405.7C1026.21 2373.66 1010.16 2337.51 1001.51 2299.3L953.34 2086.54C950.159 2072.49 945.97 2058.68 940.806 2045.24L926.833 2008.85L901.681 1939.61L882.517 1868.75L852.23 1733L844.004 1671.4L835.779 1609.81L832.814 1537.96L829.849 1466.12L834.924 1400.24L840 1334.37L849 1275.58L858 1216.8L871.341 1171.09L884.683 1125.39L928.807 974.499C933.875 957.167 937.368 939.413 939.243 921.453L946.492 852.03C944.77 794.898 917.556 741.538 872.32 706.597L785.921 639.863C756.3 616.984 722.659 599.85 686.735 589.345Z" fill="#FE6323"/>
<path fill-rule="evenodd" clip-rule="evenodd" d="M2001.46 748L2025.45 810.896C2036.82 840.702 2043.36 872.129 2044.82 903.995L2046.72 945.077C2047.89 970.613 2045.8 996.194 2040.49 1021.2L2030.85 1066.57L2009.65 1128.25C2004.2 1144.11 1997.43 1159.48 1989.41 1174.21L1920.48 1300.8L1899.58 1339.21L1878.68 1377.63L1858.43 1429.06L1838.19 1480.49L1819.57 1539.36L1800.96 1598.22L1787.57 1664.53L1774.18 1730.83L1767.33 1789.08L1760.47 1847.32L1755.24 1978.69V2048.09L1760.47 2117.49L1765.69 2174.49L1758.56 2367.39C1756.4 2425.88 1737.17 2482.47 1703.25 2530.17L1559 2733H1844.72H1876H1920.48H1969.46H2017.14H2065.47H2120.33H2149.73H2173.23H2222.31H2238.54H2269.24H2314.92H2361.22H2413.78H2464.46H2527.03C2552.66 2733 2574.18 2713.69 2576.95 2688.21L2593.33 2537.56C2595.83 2514.5 2601.99 2491.98 2611.56 2470.85L2633.4 2422.6L2667.19 2345.57L2685.33 2280.94L2700.98 2219.41L2708.17 2161.5L2715.37 2103.59L2721 2008.46L2715.37 1910.22L2705.67 1849.73L2695.97 1789.23L2682.83 1730.29L2669.69 1671.35L2651.55 1608.27L2629.02 1547.26L2607.12 1498.14L2585.22 1449.02V1671.35L2576.1 1751.06C2573.43 1774.36 2568.04 1797.27 2560.04 1819.31L2527.03 1910.22L2540.17 1789.23V1671.35L2533.6 1575.69L2529.34 1513.61C2527.81 1491.3 2523.78 1469.24 2517.35 1447.82L2503.88 1403L2480.73 1325.97L2455.7 1257.46L2442.56 1227.21L2428.78 1195.49C2420.5 1176.42 2409.4 1158.69 2395.86 1142.9C2377.75 1121.76 2355.58 1104.47 2330.68 1092.05L2299.9 1076.69L2317.43 1116.72C2331.91 1149.78 2340.3 1185.18 2342.2 1221.22L2342.62 1229.18C2343.8 1251.47 2342.49 1273.81 2338.72 1295.78L2322.14 1253.08L2299.28 1194.22V1412.3C2295.02 1420.81 2290.36 1429.12 2285.31 1437.19L2252.25 1490.07V1460.66L2245.4 1346.03L2240.3 1260.87C2239.13 1241.27 2236.03 1221.83 2231.06 1202.83L2214.37 1139.07L2190.21 1046.74L2164.09 964.638L2150.37 928.389L2134.88 887.453C2126.96 866.515 2116.14 846.789 2102.75 828.85C2083.11 802.543 2058.28 780.549 2029.79 764.23L2001.46 748Z" fill="#FE6323"/>
<path fill-rule="evenodd" clip-rule="evenodd" d="M2440.65 590.469L2406.95 661.231C2394.13 688.135 2385.4 716.797 2381.03 746.275L2372.69 802.624C2369.21 826.125 2368.53 849.957 2370.67 873.618L2375.67 928.825L2390.44 1000.1C2393.67 1015.7 2398.14 1031.01 2403.81 1045.89L2459.15 1191.35L2475.62 1234.7L2492.1 1278.05L2506.46 1335.27L2520.82 1392.5L2532.73 1457.53L2544.63 1522.56L2550.5 1595.01L2556.38 1667.46L2556.66 1730.6L2556.94 1793.74L2547.39 1935.07L2539.61 2009.44L2526.62 2083.28L2515.02 2143.83L2497.16 2398.43C2494.87 2431.08 2487.25 2463.14 2474.61 2493.33L2403.01 2664.28C2390.88 2693.24 2366.5 2714.26 2337.67 2722.71L2342.63 2730.9L2070.38 2702.39L1998.2 2694.83L1951.53 2689.94L1906.1 2685.18L1860.05 2680.36L1807.77 2674.89L1757.37 2669.61L1695.14 2663.09C1669.7 2660.42 1650.41 2638.93 1650.5 2613.35L1651.15 2444.45C1651.24 2420.96 1647.83 2397.59 1641.03 2375.1L1624.19 2319.35L1599.23 2233.27L1588.44 2162.11L1579.79 2094.54L1579.13 2031.73L1578.47 1968.92L1583.55 1866.38L1600.18 1761.68L1616.61 1697.86L1633.05 1634.04L1652.73 1572.24L1672.42 1510.43L1697.54 1444.72L1726.8 1381.68L1754.09 1331.32L1781.38 1280.96L1756.43 1519.23L1756.56 1610.61C1756.6 1632.55 1759.03 1654.41 1763.83 1675.82L1787.49 1781.3L1788 1650.26L1801.23 1523.93L1818.5 1422.1L1830.53 1351.19C1834.02 1330.63 1839.64 1310.49 1847.3 1291.1L1867.45 1240.12L1899.12 1159.96L1931.7 1089.15L1948.16 1058.1L1966.17 1024.15C1976.06 1005.49 1988.61 988.353 2003.41 973.281C2024.23 952.081 2049.14 935.338 2076.64 924.07L2106.94 911.649L2081.66 959.012C2065.76 988.806 2055 1021.07 2049.84 1054.45L2046.34 1077.08C2042.97 1098.88 2042.02 1120.97 2043.49 1142.95L2065.03 1098.37L2094.37 1037.67L2069.86 1271.7C2072.81 1280.26 2076.14 1288.7 2079.85 1296.98L2107.93 1359.63L2111.23 1328.12L2130.92 1205.98L2146.23 1110.99C2149.14 1092.93 2153.7 1075.17 2159.85 1057.94L2185 987.407L2219.4 890.975L2254.6 805.705L2272.31 768.285L2293 724.564C2302.77 703.911 2315.28 684.664 2330.17 667.34C2353.1 640.685 2381.28 619.055 2412.95 603.805L2440.65 590.469Z" fill="#FE6323"/>
<path fill-rule="evenodd" clip-rule="evenodd" d="M485.816 947.625L522.664 1016.8C536.674 1043.1 554.524 1067.17 575.626 1088.21L615.966 1128.43C632.79 1145.2 651.547 1159.92 671.843 1172.27L719.198 1201.08L785.289 1231.59C799.749 1238.26 814.717 1243.78 830.052 1248.08L979.903 1290.08L1024.55 1302.61L1069.2 1315.15L1123.75 1337.63L1178.3 1360.12L1237.66 1389.21L1297.02 1418.31L1358.76 1456.68L1420.5 1495.04L1471.43 1532.36L1522.36 1569.68L1630.31 1661.4L1685.47 1711.89L1737.11 1766.24L1778.9 1811.57L1972.97 1977.33C1997.86 1998.59 2019.1 2023.78 2035.85 2051.9L2130.71 2211.12C2146.78 2238.09 2149.18 2270.19 2138.84 2298.4L2148.37 2299.28L1963.55 2501.2L1914.55 2554.74L1882.86 2589.36L1852.02 2623.05L1820.76 2657.21L1785.27 2695.98C1763.47 2719.8 1732.66 2733.36 1700.37 2733.36L1687 2733.36L1684.45 2733.36C1635.43 2733.36 1587.16 2721.35 1543.86 2698.38L1497.63 2673.86C1484.87 2667.09 1471.64 2661.25 1458.04 2656.39L1390.26 2632.15L1306.21 2601.03L1242.59 2567.39L1183.12 2534.16L1132.23 2497.34L1081.34 2460.51L1001.92 2395.45L927.631 2319.82L886.094 2268.66L844.556 2217.49L806.576 2164.91L768.595 2112.34L730.706 2053.06L697.419 1992.05L673.161 1940.16L648.904 1888.27L825.627 2050.03L899.176 2104.26C916.831 2117.28 935.86 2128.32 955.922 2137.19L1054.79 2180.9L949.749 2102.56L856.045 2016.8L784.448 1942.36L734.591 1890.52C720.138 1875.49 707.29 1859 696.257 1841.31L667.246 1794.79L621.64 1721.66L584.083 1653.36L568.912 1621.66L552.321 1586.99C543.202 1567.94 536.886 1547.66 533.571 1526.8C528.907 1497.46 530.262 1467.47 537.552 1438.67L545.589 1406.91L568.633 1455.4C583.129 1485.91 602.672 1513.75 626.438 1537.74L642.553 1554.01C658.075 1569.69 675.267 1583.59 693.811 1595.48L670.786 1551.65L639.428 1491.96L813.005 1650.83C821.644 1653.56 830.407 1655.9 839.267 1657.84L906.344 1672.52L882.972 1651.13L796.481 1562.67L729.215 1493.87C716.425 1480.79 704.859 1466.56 694.661 1451.37L652.916 1389.2L595.843 1304.21L548.219 1225.2L528.665 1188.71L505.819 1146.08C495.027 1125.94 486.989 1104.44 481.92 1082.16C474.122 1047.88 473.491 1012.36 480.066 977.825L485.816 947.625Z" fill="#FE6323"/>
<path fill-rule="evenodd" clip-rule="evenodd" d="M1358.33 644.5L1419.84 664.669C1426.6 666.886 1433.16 669.674 1439.45 673.005C1484.51 696.879 1510.6 745.696 1505.4 796.43L1504.78 802.553C1503.6 814.081 1500.93 825.409 1496.84 836.253L1460.22 933.43L1379.23 1093.68L1358.33 1135.08L1337.44 1176.48L1317.19 1231.9L1296.94 1287.32L1278.33 1350.75L1259.72 1414.19L1246.33 1485.63L1232.94 1557.08L1226.08 1619.84L1219.22 1682.61L1214 1824.17V1898.95L1219.22 1973.73L1224.45 2035.16L1215.69 2290.24C1214.57 2322.96 1218.81 2355.63 1228.24 2386.98L1281.64 2564.45C1290.69 2594.52 1312.74 2617.96 1340.54 2629.37L1334.76 2637L1379.23 2637H1428.22H1475.89H1524.22H1579.08L1608.49 2637L1631.98 2637L1681.07 2637L1697.29 2637L1728 2637H1773.67H1819.98H1872.54H1923.22H1985.79C2011.37 2637 2032.79 2617.63 2035.36 2592.18L2052.31 2424.14C2054.67 2400.76 2060.49 2377.87 2069.59 2356.22L2092.16 2302.52L2125.95 2219.51L2144.09 2149.86L2159.73 2083.56L2166.93 2021.16L2174.12 1958.76L2179.76 1856.25L2174.12 1750.39L2164.43 1685.2L2154.73 1620.01L2141.59 1556.5L2128.45 1492.98L2110.3 1425.01L2087.78 1359.27L2065.88 1306.34L2043.98 1253.41V1492.98L2034.32 1583.85C2032.01 1605.67 2027.3 1627.16 2020.3 1647.94L1985.79 1750.39L1998.93 1620.01V1492.98L1992.36 1389.91L1987.78 1318.13C1986.46 1297.33 1982.96 1276.71 1977.36 1256.63L1962.64 1203.82L1939.49 1120.81L1914.46 1046.98L1901.32 1014.39L1886.95 978.745C1879.05 959.153 1868.36 940.806 1855.21 924.275C1836.71 901.022 1813.68 881.774 1787.51 867.703L1758.66 852.193L1778.87 901.932C1791.58 933.221 1798.92 966.433 1800.58 1000.17L1801.7 1023.04C1802.78 1045.07 1801.43 1067.14 1797.68 1088.84L1780.89 1042.27L1758.03 978.835V1214.14C1754.21 1222.36 1750.02 1230.4 1745.47 1238.25L1711.01 1297.64V1265.95L1704.15 1142.43L1698.82 1046.35C1697.8 1028.09 1695.12 1009.95 1690.8 992.176L1673.13 919.408L1648.96 819.918L1622.84 731.446L1606.95 684.213C1603.33 673.434 1598.58 663.068 1592.78 653.285L1585.45 640.923C1575.02 623.318 1559.92 608.94 1541.83 599.378C1508.37 581.696 1468.21 582.28 1435.28 600.927L1358.33 644.5Z" fill="#FE6323"/>
<path fill-rule="evenodd" clip-rule="evenodd" d="M1579.54 879L1557.76 932.325C1544.94 963.728 1537.54 997.078 1535.87 1030.96L1534.54 1057.86C1533.2 1085.15 1535.59 1112.5 1541.64 1139.15L1550.15 1176.55L1570.44 1231.68C1576.49 1248.14 1583.98 1264.03 1592.81 1279.18L1660.52 1395.31L1681.42 1431.2L1702.32 1467.08L1722.57 1515.12L1742.81 1563.15L1761.43 1618.13L1780.04 1673.11L1793.43 1735.04L1806.82 1796.97L1813.67 1851.37L1820.53 1905.77L1825.76 2028.47V2093.29L1820.53 2158.11L1815.31 2211.35L1822.01 2380.69C1824.45 2442.24 1845.77 2501.55 1883.09 2550.56L2022 2733H1736.28L1705 2733L1660.52 2733H1611.54H1563.86H1515.53H1460.67L1431.27 2733L1407.77 2733L1358.69 2733L1342.46 2733C1342.42 2733 1342.39 2733 1342.35 2733H1311.76H1266.08H1219.78H1167.22H1116.54H1053.97C1028.29 2733 1006.68 2713.76 1003.71 2688.25L987.89 2552.31C985.242 2529.56 978.786 2507.41 968.792 2486.8L947.599 2443.09L923.2 2391.13C916.949 2377.82 911.685 2364.06 907.451 2349.98L895.665 2310.77L880.022 2253.3L872.827 2199.22L865.631 2145.13L860 2056.27L865.631 1964.52L875.33 1908.02L885.028 1851.52L898.168 1796.46L911.308 1741.41L929.453 1682.49L951.978 1625.51L973.878 1579.63L995.778 1533.76V1741.41L1004.35 1811.39C1007.38 1836.11 1013.48 1860.36 1022.51 1883.58L1053.97 1964.52L1040.83 1851.52V1741.41L1047.4 1652.07L1051.34 1598.49C1053.09 1574.73 1057.65 1551.27 1064.95 1528.6L1077.12 1490.78L1100.27 1418.82L1125.3 1354.84L1138.44 1326.59L1151.64 1298.2C1160.31 1279.57 1171.79 1262.38 1185.68 1247.24C1203.44 1227.89 1224.84 1212.22 1248.64 1201.12L1281.1 1186L1265 1220.34C1249.6 1253.2 1240.63 1288.7 1238.57 1324.94C1237.34 1346.82 1238.63 1368.75 1242.42 1390.29L1258.86 1350.75L1281.72 1295.77V1499.2C1286.39 1507.94 1291.5 1516.45 1297.01 1524.69L1328.75 1572.09V1544.63L1335.6 1437.56L1340.45 1361.93C1341.79 1341.03 1345.31 1320.33 1350.96 1300.16L1366.63 1244.26L1390.79 1158.03L1416.91 1081.34L1430.63 1047.48L1445.59 1010.55C1453.86 990.139 1465.05 971.032 1478.8 953.827C1498.08 929.704 1522.06 909.752 1549.29 895.183L1579.54 879Z" fill="#FE6323"/>
<path d="M1675.62 1344.04L1687.15 1245L1657.73 1294.52L1634.56 1333.51C1630.41 1340.5 1627.12 1347.97 1624.78 1355.76L1612.15 1397.68L1604.08 1424.5L1588.69 1485.26L1574.46 1553.57L1561.84 1614.15C1560.77 1619.3 1560.11 1624.53 1559.85 1629.79L1556.19 1706.71L1552.15 1791.54V1896.08L1560.23 2003.37L1534.59 1901.46C1533.22 1896.05 1532.32 1890.53 1531.88 1884.96L1524.46 1791.54V1594.38L1511 1637.94L1497.54 1681.5L1483.69 1735.6L1472.54 1791.54L1464.46 1843.81L1456.38 1896.08L1450.42 1949.72L1444.46 2003.37L1441 2090.48L1444.46 2174.85L1448.88 2226.2L1453.31 2277.55L1462.92 2332.11L1474.08 2389.43L1494.85 2457.74L1513.71 2517.84C1516 2525.13 1517.44 2532.66 1518.02 2540.28L1532.54 2733H1560.23H1598.69H1629.85H1662.15H1690.62H1718.69H1747.54H1792.15L1871 2726.89L1844.85 2528.81L1838.69 2319.73L1841.77 2277.55L1844.85 2226.2V2174.85L1841.77 2077.64L1837.73 2034.54L1833.69 1991.45L1825.81 1942.39L1817.92 1893.33L1806.96 1849.77L1796 1806.21L1784.08 1768.15L1772.15 1730.1L1759.85 1701.67L1747.54 1673.24L1702.67 1569.73C1700.79 1565.38 1699.22 1560.91 1697.97 1556.34L1682.54 1499.93L1673.86 1448.58C1672.73 1441.87 1672.28 1435.06 1672.53 1428.26L1675.62 1344.04Z" fill="#FF9700"/>
<path d="M1878.79 1222.71L1856.07 1123L1918.34 1176.58L1968.06 1219.36C1976.37 1226.51 1983.44 1234.97 1989 1244.42L2014.79 1288.2L2031.88 1317.22L2064.44 1382.95L2094.56 1456.87L2119.09 1517.08C2122.79 1526.17 2125.14 1535.76 2126.05 1545.54L2133.22 1622.57L2141.77 1714.35V1820.14C2141.77 1825.01 2141.41 1829.88 2140.7 1834.7L2124.67 1943.54L2176.53 1838.2C2181 1829.11 2184.07 1819.39 2185.62 1809.37L2199.19 1721.97C2199.98 1716.9 2200.37 1711.77 2200.37 1706.63V1501.03L2228.86 1548.16L2257.35 1595.28L2286.65 1653.82L2310.26 1714.35L2327.35 1770.9L2344.44 1827.46L2357.06 1885.5L2369.67 1943.54L2376.39 2029.93C2376.8 2035.17 2376.79 2040.44 2376.37 2045.68L2369.67 2129.08L2360.31 2184.65L2352.33 2232.05C2351.41 2237.48 2350.05 2242.83 2348.26 2248.03L2330.6 2299.25L2310.08 2353.17C2308.03 2358.55 2305.52 2363.75 2302.57 2368.7L2263.05 2435.18L2226.56 2494.61C2219.49 2506.13 2214.82 2518.97 2212.85 2532.35L2183.28 2733H2124.67H2043.28H1977.35H1908.98H1848.74H1789.33H1728.28H1633.86L1467 2726.39L1519.9 2521.55C1521.53 2515.25 1522.54 2508.8 1522.91 2502.29L1534.8 2295.83C1535.18 2289.19 1534.9 2282.54 1533.96 2275.96L1528.86 2240.21L1522.35 2184.65V2129.08L1528.86 2023.91L1537.41 1977.28L1545.95 1930.65L1562.64 1877.56L1577.03 1831.79C1578.56 1826.92 1580.46 1822.18 1582.71 1817.61L1602.52 1777.35L1625.72 1730.22L1650.95 1689.05L1672.18 1654.4C1674.85 1650.05 1677.84 1645.92 1681.14 1642.03L1702.23 1617.11L1728.28 1586.35L1822.33 1475.4C1826.9 1470.01 1830.89 1464.15 1834.23 1457.91L1861.77 1406.43C1864.48 1401.37 1866.74 1396.09 1868.54 1390.65L1881.6 1351.15C1885.7 1338.74 1887.33 1325.65 1886.4 1312.61L1881.03 1237.78C1880.67 1232.7 1879.92 1227.67 1878.79 1222.71Z" fill="#FFA624"/>
<path d="M1564.13 1295.42L1566.7 1267.98C1569.1 1242.38 1574.78 1217.2 1583.6 1193.05L1605.73 1132.46L1652.43 1005L1611.34 1056.17C1594.64 1076.96 1580.78 1099.89 1570.15 1124.35L1547.59 1176.21L1535.44 1200.19C1525.59 1219.62 1517.89 1240.07 1512.48 1261.17L1505.82 1287.07L1498.42 1315.89L1484.33 1381.18L1471.29 1454.59L1458.25 1528.01L1454.55 1619.16L1450.85 1710.31V1822.64L1458.25 1937.94L1437.41 1840.82C1434.39 1826.75 1432.39 1812.48 1431.42 1798.13L1425.47 1710.31V1498.44L1413.14 1545.25L1400.81 1592.06L1388.12 1650.2L1377.9 1710.31L1370.5 1766.48L1363.1 1822.64L1357.63 1880.29L1352.17 1937.94L1349 2031.55L1352.17 2122.21L1356.22 2177.39L1360.28 2232.58L1369.09 2291.21L1379.31 2352.8L1398.34 2426.21L1411.1 2473.89C1416.21 2492.97 1419.42 2512.51 1420.68 2532.22L1432.87 2722H1458.25H1493.49H1522.04H1551.64H1577.72H1603.44H1629.87H1670.75L1743 2715.43L1719.04 2502.58L1713.4 2277.91L1716.22 2232.58L1719.04 2177.39V2122.21L1716.22 2017.76L1712.52 1971.44L1708.82 1925.13L1701.59 1872.41L1694.37 1819.69L1684.32 1772.88L1674.28 1726.07L1663.35 1685.18L1652.43 1644.28L1641.15 1613.74L1629.87 1583.19L1586.18 1464.94L1570.32 1396.95L1565.89 1366.22C1562.51 1342.77 1561.92 1319.01 1564.13 1295.42Z" fill="#FF9700"/>
<path d="M1319.04 1282.17L1332.71 1245L1312.99 1256.72C1291.9 1269.24 1273.62 1285.99 1259.29 1305.89C1249.74 1319.15 1242.06 1333.66 1236.46 1349.01L1225.08 1380.22L1215.16 1407.4L1196.28 1468.94L1178.81 1538.15L1168.32 1579.71C1163.68 1598.1 1160.79 1616.9 1159.7 1635.84L1156.39 1693.3L1151.43 1779.23V1885.13L1161.34 1993.83L1136.14 1911.15C1130.3 1892 1126.39 1872.3 1124.47 1852.37L1117.44 1779.23V1579.49L1100.92 1623.62L1084.4 1667.75L1067.4 1722.56L1053.71 1779.23L1043.8 1832.18L1033.88 1885.13L1026.57 1939.48L1019.25 1993.83L1015 2082.08L1019.25 2167.55L1024.68 2219.57L1030.11 2271.6L1041.91 2326.87L1055.6 2384.94L1077.53 2475.09L1083.62 2512.18C1087.19 2533.99 1093.17 2555.35 1101.44 2575.85L1109.71 2596.33C1114.85 2609.09 1121.05 2621.4 1128.24 2633.13L1136.81 2647.12C1146.48 2662.92 1158.88 2676.87 1173.42 2688.33C1184.1 2696.74 1195.82 2703.73 1208.29 2709.11L1217.67 2713.16C1230.53 2718.71 1243.86 2723.1 1257.51 2726.27L1258.69 2726.55C1277.13 2730.83 1296.01 2733 1314.94 2733H1321.38H1355.84H1391.25H1446.01H1811L1634.94 2611.73C1556.77 2557.89 1508.69 2470.22 1505.31 2375.36L1503.13 2314.33L1506.91 2271.6L1510.68 2219.57V2167.55L1506.91 2069.08L1501.95 2025.41L1496.99 1981.75L1487.32 1932.05L1477.64 1882.35L1464.18 1838.22L1450.73 1794.09L1436.1 1755.54L1421.46 1716.99L1406.35 1688.19L1391.25 1659.39L1344.14 1569.67C1336.53 1555.19 1330.12 1540.1 1324.98 1524.57L1311.47 1483.81L1306.17 1457.95C1301.22 1433.79 1299.27 1409.1 1300.37 1384.46L1300.9 1372.4C1302.27 1341.57 1308.39 1311.13 1319.04 1282.17Z" fill="#FFA624"/>
<path d="M2124.27 1265.14L2105.31 1248L2117.41 1248C2147.64 1248 2175.56 1264.15 2190.64 1290.35C2194 1296.17 2196.64 1302.38 2198.53 1308.84L2211.85 1354.5L2219.92 1382.19L2235.31 1444.91L2249.54 1515.43L2262.25 1578.44C2263.26 1583.45 2263.89 1588.52 2264.12 1593.62L2267.81 1673.53L2271.85 1761.09V1869.01L2263.77 1979.77L2289.53 1874.08C2290.82 1868.82 2291.67 1863.46 2292.09 1858.06L2299.54 1761.09V1557.56L2313 1602.53L2326.46 1647.49L2340.31 1703.35L2351.46 1761.09L2359.54 1815.05L2367.62 1869.01L2373.58 1924.39L2379.54 1979.77L2383 2069.7L2379.54 2156.8L2375.12 2209.81L2370.69 2262.82L2361.08 2319.15L2349.92 2378.32L2329.15 2448.84L2310.09 2511.53C2307.94 2518.63 2306.57 2525.94 2306.03 2533.34L2291.46 2733H2263.77H2225.31H2194.15H2161.85H2133.38H2105.31H2076.46H2031.85L1953 2726.69L1979.15 2522.21L1985.31 2306.37L1982.23 2262.82L1979.15 2209.81V2156.8L1982.23 2056.45L1986.27 2011.96L1990.31 1967.46L1998.19 1916.82L2006.08 1866.17L2017.04 1821.2L2028 1776.24L2039.92 1736.95L2051.85 1697.67L2064.15 1668.32L2076.46 1638.97L2124.15 1525.37L2141.46 1460.05L2151.85 1396.63L2156.68 1349.52C2159.93 1317.84 2147.89 1286.5 2124.27 1265.14Z" fill="#FF9700"/>
<path d="M2286.96 1282.17L2273.29 1245L2293.01 1256.72C2314.1 1269.24 2332.38 1285.99 2346.71 1305.89C2356.26 1319.15 2363.94 1333.66 2369.54 1349.01L2380.92 1380.22L2390.84 1407.4L2409.72 1468.94L2427.19 1538.15L2437.68 1579.71C2442.32 1598.1 2445.21 1616.9 2446.3 1635.84L2449.61 1693.3L2454.57 1779.23V1885.13L2444.66 1993.83L2469.86 1911.15C2475.7 1892 2479.61 1872.3 2481.53 1852.37L2488.56 1779.23V1579.49L2505.08 1623.62L2521.6 1667.75L2538.6 1722.56L2552.29 1779.23L2562.2 1832.18L2572.12 1885.13L2579.43 1939.48L2586.75 1993.83L2591 2082.08L2586.75 2167.55L2581.32 2219.57L2575.89 2271.6L2564.09 2326.87L2550.4 2384.94L2528.47 2475.09L2522.38 2512.18C2518.81 2533.99 2512.83 2555.35 2504.56 2575.85L2496.29 2596.33C2491.15 2609.09 2484.95 2621.4 2477.76 2633.13L2469.19 2647.12C2459.52 2662.92 2447.12 2676.87 2432.58 2688.33C2421.9 2696.74 2410.18 2703.73 2397.71 2709.11L2388.33 2713.16C2375.47 2718.71 2362.14 2723.1 2348.49 2726.27L2347.31 2726.55C2328.87 2730.83 2309.99 2733 2291.06 2733H2284.62H2250.16H2214.75H2159.99H1795L1971.06 2611.73C2049.23 2557.89 2097.31 2470.22 2100.69 2375.36L2102.87 2314.33L2099.09 2271.6L2095.32 2219.57V2167.55L2099.09 2069.08L2104.05 2025.41L2109.01 1981.75L2118.68 1932.05L2128.36 1882.35L2141.82 1838.22L2155.27 1794.09L2169.9 1755.54L2184.54 1716.99L2199.65 1688.19L2214.75 1659.39L2261.86 1569.67C2269.47 1555.19 2275.88 1540.1 2281.02 1524.57L2294.53 1483.81L2299.83 1457.95C2304.78 1433.79 2306.73 1409.1 2305.63 1384.46L2305.1 1372.4C2303.73 1341.57 2297.61 1311.13 2286.96 1282.17Z" fill="#FFA624"/>
<path d="M1628.85 1658.32L1592.73 1613.74L1655.84 1626.84L1670.41 1629.86C1702.54 1636.53 1733.33 1648.53 1761.51 1665.35L1782.79 1678.05L1826.21 1708.9L1870.01 1745.78C1898.99 1770.18 1923.48 1799.44 1942.4 1832.26L1945.81 1838.17L1977.82 1893.68L1994.44 1931.92C2004.19 1954.36 2011.93 1977.62 2017.56 2001.42L2027.93 2045.26L2033.83 2000.31C2038.22 1966.87 2036.65 1932.92 2029.19 1900.03C2025.25 1882.67 2019.7 1865.71 2012.6 1849.37L1964.28 1738.2L1999.41 1758.59L2034.54 1778.97L2073.45 1806.34L2108.49 1836.89L2137.39 1867.11L2166.28 1897.33L2192.11 1930.01L2199.15 1938.92C2211.66 1954.74 2222.85 1971.56 2232.59 1989.21C2243.97 2009.82 2253.33 2031.46 2260.57 2053.85L2269.25 2080.73L2277.35 2119.24C2282.74 2144.85 2285.62 2170.92 2285.94 2197.09L2286 2202.17L2285.82 2209.66C2285.17 2236.21 2281.96 2262.63 2276.23 2288.57L2271.19 2311.42L2255.84 2376.26L2242.22 2413.71C2230.6 2445.66 2215.09 2476.06 2196.02 2504.21L2194.44 2506.54C2182.95 2523.5 2170.22 2539.59 2156.34 2554.66L2146.08 2565.8L2135.26 2577.55C2121.89 2592.07 2105.63 2603.64 2087.52 2611.51C2081.01 2614.34 2074.29 2616.68 2067.43 2618.5L2057.1 2621.25C2026.66 2629.33 1995.1 2632.29 1963.69 2629.99L1942.91 2628.48C1924.35 2627.12 1905.95 2624.12 1887.93 2619.5C1860.5 2612.46 1834.16 2601.74 1809.62 2587.62L1799.78 2581.95C1780.99 2571.14 1763.12 2558.81 1746.35 2545.08L1728.44 2530.41L1687.19 2489.05L1665.54 2461.68L1647.87 2434.84L1642.85 2426.67C1632.6 2410.03 1623.55 2392.68 1615.76 2374.76L1612.1 2366.33L1597.88 2325.44C1591.35 2306.65 1586.18 2287.41 1582.42 2267.87L1581.8 2264.67L1581.25 2261.8C1577.44 2242.04 1575.09 2222.03 1574.2 2201.92L1573.8 2192.72L1573.65 2189.41C1572.59 2165.4 1573.63 2141.34 1576.76 2117.51L1577.02 2115.52L1581.98 2077.72L1590.17 2043.01L1591.31 2038.16C1596 2018.29 1602.26 1998.83 1610.05 1979.96L1621.74 1951.61L1655.51 1869.88C1663.21 1851.25 1668.8 1831.81 1672.17 1811.94L1674.17 1800.14C1675.77 1790.7 1676.44 1781.12 1676.19 1771.54C1675.56 1748.33 1669.47 1725.6 1658.4 1705.2L1650.73 1691.06C1644.45 1679.5 1637.13 1668.54 1628.85 1658.32Z" fill="#FE6323"/>
<path d="M1683.45 1164.2L1650.49 1089.44L1729.22 1130.74L1746.47 1139.78C1787.17 1161.13 1824.18 1189.29 1855.67 1222.77L1879.52 1248.14L1926.6 1306.72L1972.21 1373.76L1978.9 1383.61C2004.66 1421.48 2023.94 1463.37 2035.96 1507.56L2041.85 1529.26L2065.9 1617.71L2078.14 1694.29C2081.8 1717.14 2083.52 1740.26 2083.3 1763.4L2082.53 1845.55L2105.35 1784.4C2121.7 1740.59 2130.49 1694.33 2131.35 1647.57L2131.42 1643.75C2131.86 1619.38 2130.15 1595.03 2126.31 1570.97L2098.64 1397.95L2138.21 1439.02L2177.77 1480.09L2220.05 1532.2L2256.2 1587.28L2284.37 1639.65L2312.55 1692.02L2335.9 1746.66L2346.56 1771.61C2355 1791.37 2361.89 1811.77 2367.17 1832.6L2373.08 1855.98C2379.21 1880.21 2383.13 1904.95 2384.79 1929.9L2388.34 1983.24L2386.48 2039.41L2385.89 2057.03C2385.04 2082.68 2381.81 2108.19 2376.22 2133.24L2370.89 2157.15L2363.73 2184.68C2357.22 2209.65 2348.4 2233.96 2337.36 2257.29L2315.9 2302.64L2274.64 2386.57L2233.88 2449.9C2215.31 2478.75 2193.21 2505.18 2168.1 2528.57L2143.78 2551.23C2128.33 2565.62 2111.8 2578.81 2094.32 2590.68L2068.69 2608.09L2050.28 2620.6C2028.24 2635.57 2003.18 2645.51 1976.87 2649.71C1967.35 2651.23 1957.73 2652 1948.1 2651.99L1933.43 2651.98C1890.95 2651.97 1848.8 2644.55 1808.87 2630.07L1780.58 2619.81C1756.99 2611.25 1734.22 2600.56 1712.57 2587.87L1709.3 2585.95C1677.15 2567.11 1647.7 2544 1621.75 2517.26L1599.22 2494.05C1583.89 2478.25 1569.85 2461.26 1557.23 2443.22L1530.97 2405.7L1490.18 2333.4L1470.61 2287.64L1456.1 2244.06L1440.03 2190.75L1431.32 2136.26L1422.18 2031.96L1424.53 1984.69L1426.87 1937.42L1437.39 1882.35L1441.37 1861.52C1445.72 1838.74 1451.99 1816.36 1460.1 1794.63L1466.72 1776.88L1485.53 1726.48L1507.58 1681.54L1515.19 1666.02C1524.8 1646.44 1535.93 1627.66 1548.5 1609.84L1554.22 1601.75L1578.81 1566.88L1649.25 1467.14C1665.79 1443.72 1679.69 1418.54 1690.69 1392.06L1696.81 1377.34C1702.11 1364.58 1706.19 1351.35 1709.01 1337.82C1715.7 1305.68 1715.11 1272.45 1707.27 1240.57L1701.63 1217.6C1697.14 1199.31 1691.05 1181.44 1683.45 1164.2Z" fill="#FFA624"/>
<path d="M2235.82 1690.93L2245.21 1623.8L2280.41 1681.71L2302.96 1718.8C2311.33 1732.58 2317.35 1747.66 2320.75 1763.43L2326.61 1790.56L2332.11 1816.03L2339.55 1871.54L2342.62 1931.66L2344.39 1966.38C2345.25 1983.19 2343.17 2000.02 2338.24 2016.11L2325.97 2056.21L2306.26 2120.63L2278.51 2184.48C2275.1 2192.34 2270.99 2199.89 2266.23 2207.02L2225.69 2267.9L2287.06 2224.05C2300.97 2214.11 2313.01 2201.78 2322.62 2187.64L2346.42 2152.63C2351.5 2145.16 2355.86 2137.23 2359.46 2128.96L2416.07 1998.7L2425.6 2040.32L2435.13 2081.95L2442 2131.49L2443.66 2180.34L2441.15 2224.23L2438.65 2268.12L2432.06 2311.42L2427.27 2342.92C2426.07 2350.78 2424.24 2358.52 2421.77 2366.07L2408.37 2407.13C2405.49 2415.94 2401.78 2424.45 2397.27 2432.55L2371.53 2478.84L2347.75 2512.69L2332.11 2534.95C2326.69 2542.66 2320.53 2549.83 2313.72 2556.34L2290.2 2578.83L2263.39 2602.65C2256.43 2608.83 2248.89 2614.33 2240.88 2619.06L2195.6 2645.82L2134.74 2680.53L2063.16 2710.97C2052.2 2715.64 2040.7 2718.93 2028.93 2720.77L1969.24 2730.13C1962.15 2731.24 1954.98 2731.83 1947.8 2731.88L1910.31 2732.13L1892.63 2732.25C1872.46 2732.38 1852.47 2728.3 1833.97 2720.26L1757.88 2687.19C1749.26 2683.44 1741.03 2678.87 1733.3 2673.52L1661.81 2624.13L1628.17 2596.71C1614.05 2585.19 1605.9 2567.91 1606.01 2549.69C1606.03 2545.57 1605.63 2541.45 1604.82 2537.4L1604.42 2535.45C1599.66 2511.91 1605.92 2487.33 1621.25 2468.84C1634.32 2453.07 1640.96 2432.77 1639.64 2412.33L1637.91 2385.7L1640.12 2324.32L1645.63 2288.05L1653.59 2255.21L1661.71 2225.65C1663.52 2219.04 1665.8 2212.58 1668.53 2206.3L1680.58 2178.56L1711.58 2119.78C1714.84 2113.61 1718.53 2107.68 1722.64 2102.05L1737 2082.34L1751.28 2062.74C1755.44 2057.04 1760 2051.65 1764.94 2046.62L1786.56 2024.58L1806.73 2004.02C1812.63 1998.01 1819.05 1992.52 1825.9 1987.62L1848.22 1971.68L1880.84 1948.37L1913.38 1929.77L1935.88 1916.91C1942.57 1913.09 1949.56 1909.8 1956.77 1907.09L1976.11 1899.82L2006.29 1888.48L2107.98 1850.31C2118.1 1846.51 2127.77 1841.59 2136.8 1835.64L2161.18 1819.56C2169.03 1814.39 2176.36 1808.45 2183.06 1801.85L2185.53 1799.43C2201.77 1783.43 2214 1763.83 2221.23 1742.21L2229.74 1716.78C2232.55 1708.37 2234.59 1699.71 2235.82 1690.93Z" fill="#FE6323"/>
<path d="M1448.61 1753.43L1439.32 1698.69L1411.87 1750.25L1406.36 1760.59C1391.83 1787.88 1381.93 1817.39 1377.08 1847.92L1373.41 1870.97L1369.25 1921.4L1368.95 1976.19C1368.75 2012.5 1374.28 2048.61 1385.34 2083.19L1387.71 2090.59L1406.76 2150.18L1424.3 2190.54C1432.98 2210.51 1443.23 2229.76 1454.94 2248.12L1480.24 2287.75L1447.81 2262C1421.83 2241.37 1399.35 2216.66 1381.27 2188.84C1371.96 2174.53 1363.87 2159.47 1357.07 2143.81L1309.62 2034.63L1303.17 2072.29L1296.72 2109.95L1292.81 2154.94L1293.28 2199.5L1297.05 2239.69L1300.83 2279.87L1308.02 2319.67L1309.93 2330.24C1313.45 2349.7 1318.4 2368.88 1324.73 2387.61C1332.07 2409.33 1341.26 2430.38 1352.18 2450.54L1365.38 2474.89L1386.7 2506.71L1387.66 2508.13C1401.21 2528.36 1416.53 2547.35 1433.43 2564.88L1437.7 2569.31L1443.44 2574.87C1461.35 2592.24 1480.8 2607.94 1501.54 2621.8L1519.95 2634.09L1572.53 2668.1C1597.53 2683.05 1624.09 2695.21 1651.73 2704.38L1667.07 2709.47L1690.1 2714.49C1711.93 2719.24 1734.11 2722.22 1756.41 2723.39L1763.58 2723.76C1795.31 2725 1826.87 2718.61 1855.62 2705.13L1875.92 2695.61C1892.6 2687.79 1908.5 2678.4 1923.4 2667.57L1968.84 2634.56L1994.12 2612.54C2006.84 2601.47 2013.8 2585.18 2013.01 2568.33C2012.84 2564.79 2013.01 2561.25 2013.53 2557.75L2013.86 2555.46C2016.98 2534.1 2011.25 2512.4 1997.98 2495.37L1996.98 2494.09C1985.31 2479.11 1979.13 2460.57 1979.48 2441.59L1979.92 2417.68L1975.72 2361.53L1969.71 2328.19L1961.75 2297.89L1951.12 2261.42L1936.1 2226.86L1903.28 2163.34L1884.91 2136.83L1866.55 2110.33L1840.96 2082.19L1837.87 2078.79C1822.89 2062.33 1806.61 2047.1 1789.18 2033.25L1787 2031.52L1758.64 2009L1730.51 1990.77L1726.14 1987.93C1710.32 1977.69 1693.74 1968.69 1676.52 1961.03L1650.66 1949.52L1577.26 1916.9C1559.47 1908.99 1542.59 1899.17 1526.93 1887.61L1518.81 1881.62C1511.16 1875.98 1504.04 1869.65 1497.54 1862.72C1482.38 1846.56 1470.8 1827.39 1463.57 1806.45L1458.16 1790.78C1453.96 1778.61 1450.76 1766.12 1448.61 1753.43Z" fill="#FE6323"/>
<path d="M1805.39 1935.28L1795.02 1897.95L1846.3 1934.14C1858.83 1942.99 1869.79 1953.87 1878.74 1966.32L1897.38 1992.28C1901.63 1998.21 1905.41 2004.47 1908.68 2011L1935.54 2064.73C1942.76 2079.16 1947.38 2094.74 1949.2 2110.77L1956.08 2171.43V2222.37L1946.45 2293.04L1997.84 2222.37L2018.83 2187.99C2022.58 2181.86 2025.83 2175.44 2028.58 2168.8L2062.54 2086.54L2074.01 2126.46L2082.21 2161.39C2083.78 2168.08 2084.85 2174.87 2085.4 2181.72L2088.7 2222.37V2276.52V2321.03L2084.57 2363.24L2076.73 2401.43C2074.92 2410.21 2072.27 2418.8 2068.79 2427.07L2062.54 2441.94L2054.84 2458.55C2051.11 2466.58 2046.62 2474.23 2041.42 2481.4L2024.46 2504.81L1997.84 2540.37L1967.82 2572.04C1960.03 2580.26 1951.24 2587.49 1941.68 2593.56L1917.02 2609.21C1911.26 2612.87 1905.23 2616.09 1898.98 2618.86L1880.37 2627.09L1870.63 2631.41C1858.6 2636.73 1845.58 2639.48 1832.42 2639.48C1827.68 2639.48 1822.95 2639.13 1818.27 2638.42L1802.71 2636.06C1787.59 2633.77 1772.96 2628.98 1759.42 2621.88L1733.87 2608.49C1726.62 2604.69 1719.73 2600.25 1713.27 2595.22L1700.62 2585.39C1690.79 2577.74 1682.04 2568.8 1674.62 2558.8L1658.14 2536.6C1653.65 2530.56 1649.66 2524.15 1646.22 2517.45L1634.41 2494.48L1620.19 2458.23L1614.22 2435.74L1610.55 2414.64L1608.27 2398.62C1607.34 2392.18 1606.88 2385.67 1606.88 2379.16V2363.24L1609.8 2324.54C1610.3 2317.92 1611.28 2311.35 1612.72 2304.88L1615.37 2293.04L1617.99 2281.3C1619.45 2274.76 1621.39 2268.32 1623.79 2262.06L1629.6 2246.92L1634.69 2233.61C1637.56 2226.13 1641.08 2218.91 1645.2 2212.04L1652.08 2200.57L1665.16 2178.78L1679.38 2159.73L1687.02 2149.52C1691.4 2143.64 1696.25 2138.13 1701.52 2133.03L1708.29 2126.46L1722.98 2112.24L1768.76 2067.94C1776.15 2060.78 1782.71 2052.83 1788.33 2044.21L1795.28 2033.56C1798.77 2028.21 1801.73 2022.53 1804.12 2016.6C1809.9 2002.25 1812.21 1986.73 1810.87 1971.31L1809.89 1960.14C1809.16 1951.73 1807.65 1943.41 1805.39 1935.28Z" fill="#FFA624"/>
<path d="M2149.08 1516.49L2136.19 1456L2162.3 1480.03C2203.88 1518.29 2238.97 1563.04 2266.23 1612.54L2273.88 1626.42L2301.58 1698.67C2319.05 1744.2 2330.05 1791.95 2334.28 1840.53L2340.1 1907.43V1991.5L2327.9 2108.14L2392.97 1991.5C2415.27 1943.88 2429.26 1892.8 2434.33 1840.46L2442 1761.35L2447.87 1770.25C2475.28 1811.78 2493.96 1858.45 2502.77 1907.43L2508 1991.5V2080.88V2154.35L2502.77 2224.03L2495.75 2268.62C2491.53 2295.41 2485.23 2321.83 2476.91 2347.64L2474.89 2353.93L2472.58 2360.42C2462.9 2387.6 2450.99 2413.94 2436.97 2439.16L2426.67 2457.7L2392.97 2516.4L2367.77 2551.06C2349.4 2576.33 2327.93 2599.18 2303.86 2619.1C2287.77 2632.41 2270.6 2644.34 2252.51 2654.78L2244.25 2659.55L2230.55 2667.45C2216.31 2675.67 2200.15 2680 2183.7 2680C2177.6 2680 2171.52 2679.4 2165.54 2678.22L2155.96 2676.33C2130.27 2671.26 2105.87 2661.02 2084.25 2646.24L2068.07 2635.19C2052.71 2624.69 2038.26 2612.59 2025.2 2599.35C2007.22 2581.12 1991.51 2560.42 1978.84 2538.18L1969.7 2522.13C1959.48 2504.19 1950.55 2485.55 1942.98 2466.34L1932.86 2440.65L1914.85 2380.82L1907.3 2343.7L1902.65 2308.86L1898 2266.45V2224.03L1902.65 2143.74L1908.75 2108.14L1914.85 2072.54L1926.76 2032.02L1927.93 2028.05C1935.08 2003.71 1943.99 1979.94 1954.59 1956.9L1955.22 1955.52L1971.78 1919.54L1989.79 1888.11L1992.91 1882.66C2002.82 1865.36 2014.01 1848.83 2026.39 1833.2L2044.98 1809.72L2096.79 1744.36C2110.24 1727.38 2121.9 1709.06 2131.59 1689.69L2135.86 1681.16C2140.72 1671.44 2144.77 1661.35 2147.98 1650.98C2155.16 1627.73 2158.01 1603.37 2156.39 1579.1L2155.08 1559.54C2154.11 1545.07 2152.1 1530.68 2149.08 1516.49Z" fill="#FFF28C"/>
<path d="M1577.96 1591.91L1613.1 1488L1578.36 1505.17C1547.72 1520.31 1519.88 1540.56 1496.05 1565.05C1478.69 1582.89 1463.61 1602.81 1451.15 1624.35L1421.11 1676.33L1395.75 1739.33C1376.74 1786.55 1364.73 1836.3 1360.1 1886.98L1354.88 1944.03V2024.13L1367.08 2135.25L1302.02 2024.13L1268.33 1955.58L1220.11 1810.54L1205.59 1873.32L1192.23 1944.03L1187 2024.13V2109.27V2179.27L1192.23 2245.65L1198.65 2284.51C1203.27 2312.43 1210.15 2339.94 1219.22 2366.75L1220.11 2369.4L1221.3 2372.59C1231.72 2400.48 1244.5 2427.43 1259.51 2453.14L1268.33 2468.26L1302.02 2524.18L1326.67 2556.47C1345.4 2581.02 1367.16 2603.12 1391.42 2622.24C1407.31 2634.77 1424.21 2645.97 1441.95 2655.72L1450.74 2660.55L1464.14 2667.92C1478.59 2675.87 1494.82 2680.04 1511.31 2680.04C1517.39 2680.04 1523.45 2679.47 1529.42 2678.35L1538.86 2676.57C1564.67 2671.71 1589.28 2661.84 1611.3 2647.5L1627 2637.28C1642.29 2627.32 1656.6 2615.93 1669.72 2603.25C1687.86 2585.73 1703.6 2565.89 1716.54 2544.24L1725.09 2529.93C1735.43 2512.65 1744.48 2494.63 1752.17 2476.03L1762.11 2452.02L1780.11 2395.02L1787.67 2359.66L1792.31 2326.47L1796.96 2286.06V2245.65L1792.31 2169.16L1786.21 2135.25L1780.11 2101.34L1768.21 2062.73L1767.52 2060.5C1760.05 2036.29 1750.76 2012.67 1739.74 1989.85L1723.18 1955.58L1705.18 1925.63L1702.16 1920.61C1692.18 1904.02 1680.95 1888.21 1668.58 1873.32L1649.99 1850.95L1613.1 1791.06L1581.09 1747.75C1570.04 1732.79 1562.42 1715.58 1558.79 1697.34C1554.23 1674.4 1556.13 1650.65 1564.27 1628.73L1577.96 1591.91Z" fill="#FFF28C"/>
<path d="M1083.72 605.408L1092.98 594.54L1087.95 594.941C1083.52 595.294 1079.17 596.401 1075.11 598.213C1072.15 599.532 1069.37 601.214 1066.82 603.219L1060.69 608.055L1054.58 614.45C1050.01 619.243 1046.16 624.678 1043.16 630.583L1039.78 637.229L1035.92 646.913L1032.03 660.936L1029.52 644.365L1028.75 634.453L1029.92 614.593L1025.13 621.483L1020.11 629.389L1015.62 638.82L1011.51 649.115L1008.14 657.577L1005.57 665.855L1004.47 670.863C1003.69 674.462 1003.19 678.119 1003 681.798L1002.98 682.161L1002.91 685.413C1002.86 687.418 1002.99 689.423 1003.29 691.406C1003.79 694.743 1003.81 698.135 1003.34 701.477L1002.77 705.554C1002.29 709.051 1002.53 712.61 1003.48 716.011L1003.76 717.019C1004.63 720.15 1006.22 723.039 1008.39 725.46L1009.36 726.55C1010.91 728.273 1012.83 729.615 1014.97 730.472L1020.17 732.544L1022.05 733.293C1023.56 733.894 1025.12 734.353 1026.71 734.664C1030.06 735.321 1033.52 735.314 1036.87 734.642L1039.26 734.163C1041.59 733.696 1043.87 733.008 1046.06 732.108C1049.1 730.863 1051.96 729.223 1054.57 727.23L1056.29 725.912C1058.38 724.321 1060.34 722.579 1062.17 720.7L1064.52 718.277L1069.45 712.253L1072.07 708.342L1074.23 704.553L1076.74 699.891L1078.69 695.006L1081.81 685.534L1082.71 681.14L1083.61 676.745L1084.03 671.504L1084.05 671.201C1084.32 667.913 1084.33 664.61 1084.1 661.32L1083.75 656.378L1083.01 651.89L1082.89 651.137C1082.49 648.65 1081.89 646.198 1081.11 643.801L1079.94 640.2L1078.37 631.181L1076.59 624.401C1075.97 622.06 1075.88 619.612 1076.32 617.232C1076.88 614.239 1078.25 611.459 1080.29 609.201L1083.72 605.408Z" fill="#FF9700"/>
<path d="M1987.49 360.408L1978.23 349.54L1983.26 349.941C1987.69 350.294 1992.03 351.401 1996.1 353.213C1999.05 354.532 2001.84 356.214 2004.38 358.219L2010.52 363.055L2016.62 369.45C2021.2 374.243 2025.05 379.678 2028.05 385.583L2031.43 392.229L2035.29 401.913L2039.17 415.936L2041.68 399.365L2042.45 389.453L2041.29 369.593L2046.07 376.483L2051.1 384.389L2055.59 393.82L2059.69 404.115L2063.07 412.577L2065.64 420.855L2066.73 425.863C2067.52 429.462 2068.01 433.119 2068.21 436.798L2068.23 437.161L2068.3 440.413C2068.35 442.418 2068.22 444.423 2067.92 446.406C2067.42 449.743 2067.4 453.135 2067.87 456.477L2068.43 460.554C2068.92 464.051 2068.68 467.61 2067.73 471.011L2067.45 472.019C2066.57 475.15 2064.99 478.039 2062.82 480.46L2061.85 481.55C2060.3 483.273 2058.38 484.615 2056.23 485.472L2051.04 487.544L2049.16 488.293C2047.65 488.894 2046.09 489.353 2044.5 489.664C2041.14 490.321 2037.69 490.314 2034.34 489.642L2031.95 489.163C2029.62 488.696 2027.34 488.008 2025.14 487.108C2022.11 485.863 2019.25 484.223 2016.64 482.23L2014.91 480.912C2012.83 479.321 2010.87 477.579 2009.04 475.7L2006.68 473.277L2001.76 467.253L1999.14 463.342L1996.98 459.553L1994.47 454.891L1992.52 450.006L1989.4 440.534L1988.5 436.14L1987.6 431.745L1987.18 426.504L1987.16 426.201C1986.89 422.913 1986.88 419.61 1987.11 416.32L1987.46 411.378L1988.19 406.89L1988.32 406.137C1988.72 403.65 1989.32 401.198 1990.1 398.801L1991.27 395.2L1992.84 386.181L1994.62 379.401C1995.24 377.06 1995.33 374.612 1994.89 372.232C1994.33 369.239 1992.96 366.459 1990.92 364.201L1987.49 360.408Z" fill="#FF9700"/>
<path d="M2724.72 779.408L2733.98 768.54L2728.95 768.941C2724.52 769.294 2720.17 770.401 2716.11 772.213C2713.15 773.532 2710.37 775.214 2707.82 777.219L2701.69 782.055L2695.58 788.45C2691.01 793.243 2687.16 798.678 2684.16 804.583L2680.78 811.229L2676.91 820.913L2673.03 834.936L2670.52 818.365L2669.75 808.453L2670.92 788.593L2666.13 795.483L2661.11 803.389L2656.62 812.82L2652.51 823.115L2649.14 831.577L2646.57 839.855L2645.47 844.863C2644.69 848.462 2644.19 852.119 2644 855.798L2643.98 856.161L2643.91 859.413C2643.86 861.418 2643.99 863.423 2644.29 865.406C2644.79 868.743 2644.81 872.135 2644.34 875.477L2643.77 879.554C2643.29 883.051 2643.53 886.61 2644.48 890.011L2644.76 891.019C2645.63 894.15 2647.22 897.039 2649.39 899.46L2650.36 900.55C2651.9 902.273 2653.83 903.615 2655.97 904.472L2661.17 906.544L2663.05 907.293C2664.56 907.894 2666.12 908.353 2667.71 908.664C2671.06 909.321 2674.51 909.314 2677.87 908.642L2680.26 908.163C2682.59 907.696 2684.87 907.008 2687.06 906.108C2690.1 904.863 2692.96 903.223 2695.57 901.23L2697.29 899.912C2699.38 898.321 2701.34 896.579 2703.17 894.7L2705.52 892.277L2710.45 886.253L2713.07 882.342L2715.23 878.553L2717.74 873.891L2719.69 869.006L2722.81 859.534L2723.71 855.14L2724.61 850.745L2725.03 845.504L2725.05 845.201C2725.31 841.913 2725.33 838.61 2725.1 835.32L2724.75 830.378L2724.01 825.89L2723.89 825.137C2723.48 822.65 2722.89 820.198 2722.11 817.801L2720.94 814.2L2719.37 805.181L2717.59 798.401C2716.97 796.06 2716.88 793.612 2717.32 791.232C2717.87 788.239 2719.25 785.459 2721.29 783.201L2724.72 779.408Z" fill="#FF9700"/>
<path d="M1961.36 1591.91L1996.5 1488L1961.76 1505.17C1931.12 1520.31 1903.29 1540.56 1879.45 1565.05C1862.09 1582.89 1847.01 1602.81 1834.55 1624.35L1804.51 1676.33L1779.15 1739.33C1760.14 1786.55 1748.13 1836.3 1743.5 1886.98L1738.29 1944.03V2024.13L1750.49 2135.25L1685.42 2024.13L1651.73 1955.58L1603.52 1810.54L1588.99 1873.32L1575.63 1944.03L1570.4 2024.13V2109.27V2179.27L1575.63 2245.65L1582.05 2284.51C1586.67 2312.43 1593.55 2339.94 1602.62 2366.75L1603.52 2369.4L1612.26 2392.81C1617.65 2407.24 1624.27 2421.19 1632.03 2434.5C1645.1 2456.89 1654.88 2481.04 1661.07 2506.21L1668.63 2536.92C1675.11 2563.26 1686.95 2587.98 1703.4 2609.54L1708.28 2615.94C1723.44 2635.8 1742.95 2651.9 1765.32 2663.02L1775.38 2668.02C1791.29 2675.92 1808.82 2680.04 1826.59 2680.04H1869.57H1885.11C1897.58 2680.04 1910.01 2678.88 1922.26 2676.57C1948.07 2671.71 1972.69 2661.84 1994.7 2647.5L2010.4 2637.28C2025.69 2627.32 2040 2615.93 2053.12 2603.25C2071.26 2585.73 2087 2565.89 2099.94 2544.24L2108.5 2529.93C2118.83 2512.65 2127.88 2494.63 2135.58 2476.03L2145.51 2452.02L2163.52 2395.02L2171.07 2359.66L2175.72 2326.47L2180.36 2286.06V2245.65L2175.72 2169.16L2169.62 2135.25L2163.52 2101.34L2151.61 2062.73L2150.92 2060.5C2143.45 2036.29 2134.16 2012.67 2123.14 1989.85L2106.59 1955.58L2088.58 1925.63L2085.56 1920.61C2075.58 1904.02 2064.36 1888.21 2051.98 1873.32L2033.39 1850.95L1996.5 1791.06L1964.49 1747.75C1953.44 1732.79 1945.83 1715.58 1942.2 1697.34C1937.63 1674.4 1939.53 1650.65 1947.68 1628.73L1961.36 1591.91Z" fill="#FFF28C"/>
<path d="M1493.19 1360.73L1486.79 1342.79L1494.62 1347.78L1497.59 1350.02L1499.63 1351.84C1500.68 1352.78 1501.63 1353.83 1502.46 1354.97L1504.49 1357.76L1505.3 1358.89C1507.35 1361.75 1508.61 1365.1 1508.95 1368.6L1509.21 1371.32C1509.34 1372.7 1509.33 1374.09 1509.17 1375.46L1508.34 1382.86C1508.24 1383.72 1507.88 1384.53 1507.3 1385.18C1506.61 1385.95 1505.66 1386.44 1504.63 1386.55L1494.13 1387.66L1491.68 1387.59C1488.5 1387.49 1485.4 1386.63 1482.62 1385.08L1482.26 1384.88C1477.29 1382.12 1473.74 1377.36 1472.5 1371.81L1468.17 1352.4L1472.99 1357.88C1473.98 1359 1475.09 1360.01 1476.31 1360.88L1480.85 1364.16C1482.51 1365.35 1484.35 1366.28 1486.29 1366.92L1486.95 1367.14C1490.88 1368.42 1494.58 1364.63 1493.19 1360.73Z" fill="#FFF28C"/>
<path d="M2014.8 977.591L2006.57 962.505L2005.22 970.774L2004.95 974.117L2004.95 976.588C2004.95 977.862 2005.08 979.131 2005.35 980.376L2006.01 983.415L2006.28 984.639C2006.97 987.738 2008.47 990.598 2010.63 992.929L2012.3 994.739C2013.15 995.657 2014.09 996.484 2015.11 997.207L2020.6 1001.09C2021.24 1001.54 2022 1001.78 2022.78 1001.78C2023.71 1001.78 2024.61 1001.43 2025.31 1000.81L2032.36 994.412L2033.79 992.715C2035.63 990.517 2036.92 987.91 2037.54 985.113L2037.63 984.749C2038.75 979.743 2037.68 974.495 2034.69 970.327L2024.23 955.747L2025.02 962.288C2025.18 963.627 2025.19 964.98 2025.05 966.321L2024.52 971.346C2024.33 973.182 2023.85 974.978 2023.11 976.67L2022.87 977.239C2021.37 980.661 2016.59 980.87 2014.8 977.591Z" fill="#FFF28C"/>
<path d="M1181.05 397.605L1172.81 382.519L1171.46 390.788L1171.19 394.131L1171.19 396.602C1171.19 397.875 1171.33 399.145 1171.6 400.39L1172.25 403.429L1172.53 404.653C1173.22 407.751 1174.72 410.612 1176.87 412.943L1178.55 414.752C1179.4 415.671 1180.34 416.498 1181.36 417.221L1186.84 421.103C1187.48 421.554 1188.24 421.796 1189.02 421.796C1189.96 421.796 1190.86 421.448 1191.55 420.82L1198.61 414.426L1200.03 412.728C1201.87 410.531 1203.16 407.924 1203.79 405.126L1203.87 404.763C1205 399.757 1203.93 394.509 1200.94 390.34L1190.48 375.76L1191.26 382.302C1191.43 383.641 1191.44 384.993 1191.3 386.334L1190.77 391.36C1190.57 393.196 1190.1 394.992 1189.36 396.683L1189.11 397.253C1187.61 400.675 1182.84 400.883 1181.05 397.605Z" fill="#FFF28C"/>
<path d="M1623.05 218.605L1614.81 203.519L1613.47 211.788L1613.2 215.131L1613.2 217.602C1613.2 218.875 1613.33 220.145 1613.6 221.39L1614.25 224.429L1614.53 225.653C1615.22 228.751 1616.72 231.612 1618.87 233.943L1620.55 235.752C1621.4 236.671 1622.34 237.498 1623.36 238.221L1628.84 242.103C1629.48 242.554 1630.24 242.796 1631.02 242.796C1631.96 242.796 1632.86 242.448 1633.55 241.82L1640.61 235.426L1642.03 233.728C1643.87 231.531 1645.16 228.924 1645.79 226.126L1645.87 225.763C1647 220.757 1645.93 215.509 1642.94 211.34L1632.48 196.76L1633.27 203.302C1633.43 204.641 1633.44 205.993 1633.3 207.334L1632.77 212.36C1632.57 214.196 1632.1 215.992 1631.36 217.683L1631.11 218.253C1629.61 221.675 1624.84 221.883 1623.05 218.605Z" fill="#FFF28C"/>
<path d="M2292.05 355.605L2283.81 340.519L2282.46 348.788L2282.19 352.131L2282.19 354.602C2282.19 355.875 2282.33 357.145 2282.6 358.39L2283.25 361.429L2283.53 362.653C2284.22 365.751 2285.72 368.612 2287.87 370.943L2289.55 372.752C2290.4 373.671 2291.34 374.498 2292.36 375.221L2297.84 379.103C2298.48 379.554 2299.24 379.796 2300.02 379.796C2300.96 379.796 2301.86 379.448 2302.55 378.82L2309.61 372.426L2311.03 370.728C2312.87 368.531 2314.16 365.924 2314.79 363.126L2314.87 362.763C2316 357.757 2314.93 352.509 2311.94 348.34L2301.48 333.76L2302.26 340.302C2302.43 341.641 2302.44 342.993 2302.3 344.334L2301.77 349.36C2301.57 351.196 2301.1 352.992 2300.36 354.683L2300.11 355.253C2298.61 358.675 2293.84 358.883 2292.05 355.605Z" fill="#FFF28C"/>
<path d="M2438.41 1537.59L2447.54 1520.87L2449.03 1530.04L2449.33 1533.74L2449.33 1536.48C2449.33 1537.89 2449.18 1539.3 2448.88 1540.68L2448.16 1544.05L2447.86 1545.4C2447.09 1548.84 2445.43 1552.01 2443.04 1554.59L2441.18 1556.6C2440.24 1557.61 2439.2 1558.53 2438.07 1559.33L2431.99 1563.63C2431.28 1564.13 2430.44 1564.4 2429.57 1564.4C2428.54 1564.4 2427.54 1564.02 2426.77 1563.32L2418.95 1556.23L2417.37 1554.35C2415.33 1551.92 2413.91 1549.03 2413.21 1545.93L2413.12 1545.53C2411.87 1539.98 2413.05 1534.16 2416.37 1529.54L2427.96 1513.38L2427.09 1520.63C2426.91 1522.12 2426.9 1523.62 2427.05 1525.1L2427.64 1530.67C2427.85 1532.71 2428.38 1534.7 2429.2 1536.57L2429.48 1537.2C2431.14 1540.99 2436.43 1541.23 2438.41 1537.59Z" fill="#FFF28C"/>
<path d="M1308.41 1365.59L1317.54 1348.87L1319.03 1358.04L1319.33 1361.74L1319.33 1364.48C1319.33 1365.89 1319.18 1367.3 1318.88 1368.68L1318.16 1372.05L1317.86 1373.4C1317.09 1376.84 1315.43 1380.01 1313.04 1382.59L1311.18 1384.6C1310.24 1385.61 1309.2 1386.53 1308.07 1387.33L1301.99 1391.63C1301.28 1392.13 1300.44 1392.4 1299.57 1392.4C1298.54 1392.4 1297.54 1392.02 1296.77 1391.32L1288.95 1384.23L1287.37 1382.35C1285.33 1379.92 1283.91 1377.03 1283.21 1373.93L1283.12 1373.53C1281.87 1367.98 1283.05 1362.16 1286.37 1357.54L1297.96 1341.38L1297.09 1348.63C1296.91 1350.12 1296.9 1351.62 1297.05 1353.1L1297.64 1358.67C1297.85 1360.71 1298.38 1362.7 1299.2 1364.57L1299.48 1365.2C1301.14 1368.99 1306.43 1369.23 1308.41 1365.59Z" fill="#FFF28C"/>
<path d="M2086.41 1214.59L2095.54 1197.87L2097.03 1207.04L2097.33 1210.74L2097.33 1213.48C2097.33 1214.89 2097.18 1216.3 2096.88 1217.68L2096.16 1221.05L2095.86 1222.4C2095.09 1225.84 2093.43 1229.01 2091.04 1231.59L2089.18 1233.6C2088.24 1234.61 2087.2 1235.53 2086.07 1236.33L2079.99 1240.63C2079.28 1241.13 2078.44 1241.4 2077.57 1241.4C2076.54 1241.4 2075.54 1241.02 2074.77 1240.32L2066.95 1233.23L2065.37 1231.35C2063.33 1228.92 2061.91 1226.03 2061.21 1222.93L2061.12 1222.53C2059.87 1216.98 2061.05 1211.16 2064.37 1206.54L2075.96 1190.38L2075.09 1197.63C2074.91 1199.12 2074.9 1200.62 2075.05 1202.1L2075.64 1207.67C2075.85 1209.71 2076.38 1211.7 2077.2 1213.57L2077.48 1214.2C2079.14 1217.99 2084.43 1218.23 2086.41 1214.59Z" fill="#FFF28C"/>
<path d="M1658.33 968.593L1649.2 951.874L1647.71 961.038L1647.41 964.743L1647.41 967.481C1647.41 968.892 1647.56 970.299 1647.85 971.679L1648.58 975.047L1648.88 976.404C1649.65 979.838 1651.31 983.007 1653.7 985.59L1655.55 987.596C1656.5 988.614 1657.54 989.531 1658.67 990.332L1664.75 994.634C1665.46 995.134 1666.3 995.402 1667.16 995.402C1668.2 995.402 1669.2 995.017 1669.97 994.32L1677.79 987.234L1679.36 985.353C1681.4 982.917 1682.83 980.029 1683.53 976.928L1683.62 976.525C1684.87 970.978 1683.68 965.162 1680.37 960.542L1668.77 944.384L1669.65 951.633C1669.83 953.117 1669.84 954.616 1669.68 956.102L1669.1 961.672C1668.88 963.707 1668.36 965.697 1667.54 967.572L1667.26 968.202C1665.6 971.995 1660.31 972.226 1658.33 968.593Z" fill="#FFF28C"/>
<path d="M947.327 917.593L938.2 900.874L936.706 910.038L936.407 913.743L936.407 916.481C936.407 917.892 936.557 919.299 936.854 920.679L937.58 924.047L937.883 925.404C938.649 928.838 940.311 932.007 942.699 934.59L944.554 936.596C945.495 937.614 946.54 938.531 947.671 939.332L953.75 943.634C954.456 944.134 955.299 944.402 956.164 944.402C957.2 944.402 958.2 944.017 958.969 943.32L966.788 936.234L968.364 934.353C970.404 931.917 971.833 929.029 972.53 925.928L972.62 925.525C973.867 919.978 972.684 914.162 969.369 909.542L957.775 893.384L958.649 900.633C958.828 902.117 958.84 903.616 958.683 905.102L958.098 910.672C957.884 912.707 957.357 914.697 956.537 916.572L956.262 917.202C954.603 920.995 949.31 921.226 947.327 917.593Z" fill="#FFF28C"/>
<path d="M715.327 1258.59L706.2 1241.87L704.706 1251.04L704.407 1254.74L704.407 1257.48C704.407 1258.89 704.557 1260.3 704.854 1261.68L705.58 1265.05L705.883 1266.4C706.649 1269.84 708.311 1273.01 710.699 1275.59L712.554 1277.6C713.495 1278.61 714.54 1279.53 715.671 1280.33L721.75 1284.63C722.456 1285.13 723.299 1285.4 724.164 1285.4C725.2 1285.4 726.2 1285.02 726.969 1284.32L734.788 1277.23L736.364 1275.35C738.404 1272.92 739.833 1270.03 740.53 1266.93L740.62 1266.53C741.867 1260.98 740.684 1255.16 737.369 1250.54L725.775 1234.38L726.649 1241.63C726.828 1243.12 726.84 1244.62 726.683 1246.1L726.098 1251.67C725.884 1253.71 725.357 1255.7 724.537 1257.57L724.262 1258.2C722.603 1261.99 717.31 1262.23 715.327 1258.59Z" fill="#FFF28C"/>
<path d="M823.327 1794.59L814.2 1777.87L812.706 1787.04L812.407 1790.74L812.407 1793.48C812.407 1794.89 812.557 1796.3 812.854 1797.68L813.58 1801.05L813.883 1802.4C814.649 1805.84 816.311 1809.01 818.699 1811.59L820.554 1813.6C821.495 1814.61 822.54 1815.53 823.671 1816.33L829.75 1820.63C830.456 1821.13 831.299 1821.4 832.164 1821.4C833.2 1821.4 834.2 1821.02 834.969 1820.32L842.788 1813.23L844.364 1811.35C846.404 1808.92 847.833 1806.03 848.53 1802.93L848.62 1802.53C849.867 1796.98 848.684 1791.16 845.369 1786.54L833.775 1770.38L834.649 1777.63C834.828 1779.12 834.84 1780.62 834.683 1782.1L834.098 1787.67C833.884 1789.71 833.357 1791.7 832.537 1793.57L832.262 1794.2C830.603 1797.99 825.31 1798.23 823.327 1794.59Z" fill="#FFF28C"/>
<path d="M1539.33 597.593L1530.2 580.874L1528.71 590.038L1528.41 593.743L1528.41 596.481C1528.41 597.892 1528.56 599.299 1528.85 600.679L1529.58 604.047L1529.88 605.404C1530.65 608.838 1532.31 612.007 1534.7 614.59L1536.55 616.596C1537.5 617.614 1538.54 618.531 1539.67 619.332L1545.75 623.634C1546.46 624.134 1547.3 624.402 1548.16 624.402C1549.2 624.402 1550.2 624.017 1550.97 623.32L1558.79 616.234L1560.36 614.353C1562.4 611.917 1563.83 609.029 1564.53 605.928L1564.62 605.525C1565.87 599.978 1564.68 594.162 1561.37 589.542L1549.77 573.384L1550.65 580.633C1550.83 582.117 1550.84 583.616 1550.68 585.102L1550.1 590.672C1549.88 592.707 1549.36 594.697 1548.54 596.572L1548.26 597.202C1546.6 600.995 1541.31 601.226 1539.33 597.593Z" fill="#FFF28C"/>
<path d="M2305.33 623.593L2296.2 606.874L2294.71 616.038L2294.41 619.743L2294.41 622.481C2294.41 623.892 2294.56 625.299 2294.85 626.679L2295.58 630.047L2295.88 631.404C2296.65 634.838 2298.31 638.007 2300.7 640.59L2302.55 642.596C2303.5 643.614 2304.54 644.531 2305.67 645.332L2311.75 649.634C2312.46 650.134 2313.3 650.402 2314.16 650.402C2315.2 650.402 2316.2 650.017 2316.97 649.32L2324.79 642.234L2326.36 640.353C2328.4 637.917 2329.83 635.029 2330.53 631.928L2330.62 631.525C2331.87 625.978 2330.68 620.162 2327.37 615.542L2315.77 599.384L2316.65 606.633C2316.83 608.117 2316.84 609.616 2316.68 611.102L2316.1 616.672C2315.88 618.707 2315.36 620.697 2314.54 622.572L2314.26 623.202C2312.6 626.995 2307.31 627.226 2305.33 623.593Z" fill="#FFF28C"/>
<path d="M2712.33 1066.59L2703.2 1049.87L2701.71 1059.04L2701.41 1062.74L2701.41 1065.48C2701.41 1066.89 2701.56 1068.3 2701.85 1069.68L2702.58 1073.05L2702.88 1074.4C2703.65 1077.84 2705.31 1081.01 2707.7 1083.59L2709.55 1085.6C2710.5 1086.61 2711.54 1087.53 2712.67 1088.33L2718.75 1092.63C2719.46 1093.13 2720.3 1093.4 2721.16 1093.4C2722.2 1093.4 2723.2 1093.02 2723.97 1092.32L2731.79 1085.23L2733.36 1083.35C2735.4 1080.92 2736.83 1078.03 2737.53 1074.93L2737.62 1074.53C2738.87 1068.98 2737.68 1063.16 2734.37 1058.54L2722.77 1042.38L2723.65 1049.63C2723.83 1051.12 2723.84 1052.62 2723.68 1054.1L2723.1 1059.67C2722.88 1061.71 2722.36 1063.7 2721.54 1065.57L2721.26 1066.2C2719.6 1069.99 2714.31 1070.23 2712.33 1066.59Z" fill="#FFF28C"/>
<path d="M2743.33 1688.59L2734.2 1671.87L2732.71 1681.04L2732.41 1684.74L2732.41 1687.48C2732.41 1688.89 2732.56 1690.3 2732.85 1691.68L2733.58 1695.05L2733.88 1696.4C2734.65 1699.84 2736.31 1703.01 2738.7 1705.59L2740.55 1707.6C2741.5 1708.61 2742.54 1709.53 2743.67 1710.33L2749.75 1714.63C2750.46 1715.13 2751.3 1715.4 2752.16 1715.4C2753.2 1715.4 2754.2 1715.02 2754.97 1714.32L2762.79 1707.23L2764.36 1705.35C2766.4 1702.92 2767.83 1700.03 2768.53 1696.93L2768.62 1696.53C2769.87 1690.98 2768.68 1685.16 2765.37 1680.54L2753.77 1664.38L2754.65 1671.63C2754.83 1673.12 2754.84 1674.62 2754.68 1676.1L2754.1 1681.67C2753.88 1683.71 2753.36 1685.7 2752.54 1687.57L2752.26 1688.2C2750.6 1691.99 2745.31 1692.23 2743.33 1688.59Z" fill="#FFF28C"/>
<path d="M2722.33 2238.59L2713.2 2221.87L2711.71 2231.04L2711.41 2234.74L2711.41 2237.48C2711.41 2238.89 2711.56 2240.3 2711.85 2241.68L2712.58 2245.05L2712.88 2246.4C2713.65 2249.84 2715.31 2253.01 2717.7 2255.59L2719.55 2257.6C2720.5 2258.61 2721.54 2259.53 2722.67 2260.33L2728.75 2264.63C2729.46 2265.13 2730.3 2265.4 2731.16 2265.4C2732.2 2265.4 2733.2 2265.02 2733.97 2264.32L2741.79 2257.23L2743.36 2255.35C2745.4 2252.92 2746.83 2250.03 2747.53 2246.93L2747.62 2246.53C2748.87 2240.98 2747.68 2235.16 2744.37 2230.54L2732.77 2214.38L2733.65 2221.63C2733.83 2223.12 2733.84 2224.62 2733.68 2226.1L2733.1 2231.67C2732.88 2233.71 2732.36 2235.7 2731.54 2237.57L2731.26 2238.2C2729.6 2241.99 2724.31 2242.23 2722.33 2238.59Z" fill="#FFF28C"/>
<path d="M3013.33 993.593L3004.2 976.874L3002.71 986.038L3002.41 989.743L3002.41 992.481C3002.41 993.892 3002.56 995.299 3002.85 996.679L3003.58 1000.05L3003.88 1001.4C3004.65 1004.84 3006.31 1008.01 3008.7 1010.59L3010.55 1012.6C3011.5 1013.61 3012.54 1014.53 3013.67 1015.33L3019.75 1019.63C3020.46 1020.13 3021.3 1020.4 3022.16 1020.4C3023.2 1020.4 3024.2 1020.02 3024.97 1019.32L3032.79 1012.23L3034.36 1010.35C3036.4 1007.92 3037.83 1005.03 3038.53 1001.93L3038.62 1001.53C3039.87 995.978 3038.68 990.162 3035.37 985.542L3023.77 969.384L3024.65 976.633C3024.83 978.117 3024.84 979.616 3024.68 981.102L3024.1 986.672C3023.88 988.707 3023.36 990.697 3022.54 992.572L3022.26 993.202C3020.6 996.995 3015.31 997.226 3013.33 993.593Z" fill="#FFF28C"/>
<path d="M1228.33 1688.59L1219.2 1671.87L1217.71 1681.04L1217.41 1684.74L1217.41 1687.48C1217.41 1688.89 1217.56 1690.3 1217.85 1691.68L1218.58 1695.05L1218.88 1696.4C1219.65 1699.84 1221.31 1703.01 1223.7 1705.59L1225.55 1707.6C1226.5 1708.61 1227.54 1709.53 1228.67 1710.33L1234.75 1714.63C1235.46 1715.13 1236.3 1715.4 1237.16 1715.4C1238.2 1715.4 1239.2 1715.02 1239.97 1714.32L1247.79 1707.23L1249.36 1705.35C1251.4 1702.92 1252.83 1700.03 1253.53 1696.93L1253.62 1696.53C1254.87 1690.98 1253.68 1685.16 1250.37 1680.54L1238.78 1664.38L1239.65 1671.63C1239.83 1673.12 1239.84 1674.62 1239.68 1676.1L1239.1 1681.67C1238.88 1683.71 1238.36 1685.7 1237.54 1687.57L1237.26 1688.2C1235.6 1691.99 1230.31 1692.23 1228.33 1688.59Z" fill="#FFF28C"/>
<path d="M2378.41 1197.59L2387.54 1180.87L2389.03 1190.04L2389.33 1193.74L2389.33 1196.48C2389.33 1197.89 2389.18 1199.3 2388.88 1200.68L2388.16 1204.05L2387.86 1205.4C2387.09 1208.84 2385.43 1212.01 2383.04 1214.59L2381.18 1216.6C2380.24 1217.61 2379.2 1218.53 2378.07 1219.33L2371.99 1223.63C2371.28 1224.13 2370.44 1224.4 2369.57 1224.4C2368.54 1224.4 2367.54 1224.02 2366.77 1223.32L2358.95 1216.23L2357.37 1214.35C2355.33 1211.92 2353.91 1209.03 2353.21 1205.93L2353.12 1205.53C2351.87 1199.98 2353.05 1194.16 2356.37 1189.54L2367.96 1173.38L2367.09 1180.63C2366.91 1182.12 2366.9 1183.62 2367.05 1185.1L2367.64 1190.67C2367.85 1192.71 2368.38 1194.7 2369.2 1196.57L2369.48 1197.2C2371.14 1200.99 2376.43 1201.23 2378.41 1197.59Z" fill="#FFF28C"/>
<path d="M1439.73 2418.65L1328.89 2177.5L1317.83 2304.46L1312 2344.45C1309.74 2379.51 1311.21 2414.71 1316.39 2449.46L1317.53 2457.06C1324.97 2504.63 1344.87 2549.38 1375.22 2586.75L1379.18 2591.63C1392.16 2607.62 1406.77 2622.2 1422.77 2635.15L1447.52 2655.18C1475.86 2678.11 1508.65 2694.9 1543.82 2704.5L1666.54 2731.46C1681.8 2734.81 1697.38 2736.5 1713.01 2736.5L1862 2736.5L1742.71 2615.42C1704.36 2576.48 1690.11 2519.82 1705.5 2467.37C1717.3 2427.18 1711.81 2383.89 1690.37 2347.91L1543.81 2102L1555.38 2183C1560.97 2222.22 1560.43 2262.06 1553.77 2301.1C1547.17 2339.72 1534.67 2377.1 1516.69 2411.91L1512.35 2420.31C1496.9 2450.23 1453.79 2449.24 1439.73 2418.65Z" fill="#B4D0D1"/>
<path d="M2267.32 2386.62L2368.03 2145L2379.08 2304.47L2384.92 2344.45L2386.83 2374.16C2387.82 2389.47 2387.17 2404.84 2384.91 2420.02L2379.39 2457.06L2377.05 2471.99C2371.14 2509.78 2355.33 2545.33 2331.22 2575.03L2312.5 2598.08C2303 2609.78 2292.31 2620.46 2280.6 2629.94L2249.66 2654.97C2221.29 2677.92 2187.6 2693.33 2151.69 2699.78L1974.48 2731.59C1961.85 2733.86 1949.05 2735 1936.21 2735L1919 2735L1928.5 2722L1980.84 2645.66C1990.82 2631.11 1998.38 2615.04 2003.24 2598.07C2011.8 2568.2 2011.7 2536.51 2002.95 2506.7L1997.97 2489.73C1981.92 2435.03 1988.09 2376.2 2015.13 2326.01L2153.1 2070L2136.68 2211.34C2134.3 2231.8 2134.85 2252.49 2138.32 2272.79L2147.45 2326.3C2151.2 2348.22 2158.3 2369.45 2168.5 2389.21L2169.23 2390.63C2190.35 2431.52 2249.61 2429.1 2267.32 2386.62Z" fill="#B4D0D1"/>
<path d="M1928.16 2426.87L2024.3 2211.24L2048.93 2328.34L2055.39 2375.44L2055.6 2378.63C2058.11 2417.38 2056.81 2456.3 2051.71 2494.8L2050.39 2504.77C2042.89 2558.55 2020.66 2609.2 1986.16 2651.14L1965.76 2675.93L1953.5 2695.5L1940.5 2719.5L1933.11 2730.47C1932.73 2731.03 1932.66 2731.75 1932.92 2732.37C1933.45 2733.66 1932.55 2735.09 1931.16 2735.17L1896 2737.3L1868 2737.3C1848.7 2737.3 1830.09 2730.09 1815.82 2717.1L1745.73 2653.29C1732.32 2641.08 1719.96 2627.76 1708.79 2613.47L1703.75 2607.02C1679.72 2576.29 1662.19 2541.01 1652.21 2503.31C1631.87 2426.46 1644.19 2344.62 1686.26 2277.16L1810.46 2078L1800.14 2144.31C1792.39 2194.1 1792.47 2244.8 1800.38 2294.57C1807.07 2336.62 1819.29 2377.61 1836.72 2416.47L1841.43 2426.97C1858.24 2464.43 1911.44 2464.37 1928.16 2426.87Z" fill="#B4D0D1"/>
</svg>
