<svg xmlns="http://www.w3.org/2000/svg" width="1266" height="1166" fill="none"><path fill="#fe6323" d="m823.453 194.568 28.569-35.262-49.912 10.362-11.526 2.393a232.9 232.9 0 0 0-72.049 28.063l-16.832 10.047-34.346 24.398-34.638 29.168a257.7 257.7 0 0 0-57.257 68.398l-2.695 4.675-25.314 43.905-13.145 30.246a326.7 326.7 0 0 0-18.288 54.97l-8.205 34.673-4.664-35.552a225.8 225.8 0 0 1 16.794-119.379l38.212-87.926-27.782 16.121-27.781 16.122-30.776 21.646-27.715 24.163-22.853 23.902-22.853 23.902-20.432 25.845-5.569 7.044a290.6 290.6 0 0 0-48.572 90.907l-6.867 21.258-6.41 30.455a318 318 0 0 0-6.789 61.575l-.048 4.012.145 5.927a326.6 326.6 0 0 0 7.578 62.407l3.99 18.076 12.142 51.279 10.77 29.626a326.7 326.7 0 0 0 36.538 71.572l1.248 1.842a326.6 326.6 0 0 0 30.14 38.064l8.109 8.807 8.557 9.295a112.03 112.03 0 0 0 53.653 32.39l8.17 2.17a224.2 224.2 0 0 0 73.877 6.918l16.438-1.2a247.516 247.516 0 0 0 105.42-32.318l7.783-4.477a313.5 313.5 0 0 0 42.257-29.166l14.166-11.6 32.619-32.716 17.123-21.644 13.975-21.231 3.976-6.457a326.6 326.6 0 0 0 21.422-41.056l2.899-6.67 11.243-32.336a326.6 326.6 0 0 0 12.23-45.532l.488-2.536.437-2.268a326.6 326.6 0 0 0 5.572-47.36l.321-7.276.115-2.616a326.7 326.7 0 0 0-2.458-56.872l-.207-1.571-3.922-29.9-6.473-27.446-.906-3.84a303 303 0 0 0-14.817-46.028l-9.251-22.421-26.711-64.647a213.4 213.4 0 0 1-13.171-45.825l-1.581-9.328a116.577 116.577 0 0 1 12.473-75.093l6.065-11.179a169.7 169.7 0 0 1 17.301-25.895"/><path fill="#fe6323" d="m442 194.818-28.569-35.262 49.912 10.362 11.526 2.392a233 233 0 0 1 72.049 28.064l16.832 10.047 34.346 24.398 34.638 29.168a257.7 257.7 0 0 1 57.257 68.398l2.695 4.674L718 380.964l13.145 30.247a326.6 326.6 0 0 1 18.288 54.97l8.205 34.673 4.664-35.552a225.8 225.8 0 0 0-16.793-119.379l-38.213-87.926 27.782 16.121 27.781 16.121 30.776 21.646 27.715 24.164 22.853 23.902 22.853 23.902 20.432 25.845 5.569 7.044a290.6 290.6 0 0 1 48.572 90.906l6.867 21.259 6.41 30.455a318 318 0 0 1 6.789 61.574l.049 4.012-.145 5.928a326.6 326.6 0 0 1-7.579 62.407l-3.99 18.076-12.142 51.279-10.77 29.626a326.7 326.7 0 0 1-36.538 71.571l-1.248 1.842a326.6 326.6 0 0 1-30.14 38.065l-8.109 8.807-8.557 9.295a112 112 0 0 1-53.652 32.389l-8.17 2.17a224.3 224.3 0 0 1-73.878 6.919l-16.438-1.2a247.5 247.5 0 0 1-105.42-32.318l-7.782-4.478a313.4 313.4 0 0 1-42.258-29.165l-14.166-11.6-32.619-32.717-17.123-21.643-13.975-21.231-3.975-6.457a326.5 326.5 0 0 1-21.423-41.057l-2.899-6.67-11.243-32.335a326.6 326.6 0 0 1-12.23-45.533l-.488-2.535-.437-2.268a326.6 326.6 0 0 1-5.572-47.361l-.321-7.275-.115-2.616a326.7 326.7 0 0 1 2.459-56.872l.206-1.571 3.922-29.9 6.473-27.446.906-3.84a303 303 0 0 1 14.817-46.028l9.251-22.421 26.711-64.647a213.4 213.4 0 0 0 13.171-45.825l1.582-9.328a116.602 116.602 0 0 0-12.473-75.093l-6.066-11.179A169.6 169.6 0 0 0 442 194.818"/><path fill="#fe6323" d="m548.914 55.624-16.19-48.712 53.188 31.96 13.924 8.366a274.5 274.5 0 0 1 68.741 58.657l14.738 17.531 28.173 39.791 26.186 44.832a266.4 266.4 0 0 1 33.621 96.216l.675 4.663 8.111 56.047.569 36.311a326.6 326.6 0 0 1-5.541 65.247l-7.288 38.917 23.875-36.298a228.57 228.57 0 0 0 37.58-129.198l-1.667-106.291 24.551 28.461 24.552 28.461 25.35 35.432 20.549 36.722 15.002 34.38 15.002 34.38 11.23 35.35 3.164 9.962a287.39 287.39 0 0 1 12.197 114.206l-2.35 24.717-7.385 34.124a322.3 322.3 0 0 1-21.908 65.874l-2.124 4.644-4.298 8.488a326.7 326.7 0 0 1-35.859 55.88l-15.688 19.706-39.198 47.68-33.439 32.098a326.7 326.7 0 0 1-62.238 46.864l-37.047 21.5-41.745 17.052-4.131 1.688a215.9 215.9 0 0 1-78.237 16.001l-19.257-2.266a326.7 326.7 0 0 1-94.205-25.789l-17.155-7.605a307.4 307.4 0 0 1-107.436-79.364l-6.73-7.742a326.6 326.6 0 0 1-33.081-45.421l-11.582-19.175-22.098-47.629-9.417-29.61-5.947-27.842-1.431-8.032a326.7 326.7 0 0 1-5.023-52.166l-.121-7.715 2.644-37.868a326.5 326.5 0 0 1 7.992-52.498l.645-2.725.682-2.879a326.5 326.5 0 0 1 16.273-50.221l3.433-8.252 1.806-4.34a326.6 326.6 0 0 1 28.681-54.029l2.29-3.481 19.171-29.147 20.95-25.531 4.232-5.157a326.6 326.6 0 0 1 36.486-37.804l1.97-1.737 21.738-19.167 63.807-56.201a238.3 238.3 0 0 0 36.275-40.135l7.222-10.092a119.449 119.449 0 0 0 21.53-83.158l-1.504-13.086a168.3 168.3 0 0 0-7.485-33.845"/><path fill="#fe6323" d="m922.054 221.395 7.428-53.091 27.84 45.8 17.832 29.337a114.5 114.5 0 0 1 14.074 35.295l4.635 21.46 4.351 20.146 5.886 43.904 2.42 47.551 1.41 27.458c.67 13.293-.97 26.602-4.87 39.33l-9.7 31.716-15.591 50.954-21.946 50.497a114.5 114.5 0 0 1-9.712 17.83l-32.067 48.146 48.54-34.683a114.5 114.5 0 0 0 28.125-28.793l18.821-27.694a113.6 113.6 0 0 0 10.31-18.721l44.78-103.021 7.53 32.92 7.54 32.92 5.44 39.186 1.3 38.638-1.98 34.713-1.98 34.714-5.21 34.246-3.79 24.913a114 114 0 0 1-4.34 18.307l-10.6 32.472a115 115 0 0 1-8.78 20.111l-20.36 36.61-18.81 26.773-12.368 17.602a114.6 114.6 0 0 1-14.547 16.92l-18.597 17.783-21.208 18.843a114.5 114.5 0 0 1-17.803 12.981l-35.815 21.159-48.129 27.453-56.615 24.08a114.4 114.4 0 0 1-27.076 7.75l-47.205 7.4c-5.612.88-11.281 1.34-16.961 1.38l-29.65.2-13.98.1a114.6 114.6 0 0 1-46.399-9.49l-60.176-26.15a114 114 0 0 1-19.446-10.809l-56.54-39.066-26.607-21.69a47.62 47.62 0 0 1-17.526-37.184 47.6 47.6 0 0 0-.943-9.72l-.312-1.541c-3.765-18.619 1.189-38.06 13.309-52.687 10.335-12.472 15.591-28.525 14.543-44.689l-1.366-21.069 1.75-48.544 4.354-28.688 6.295-25.973 6.422-23.378a114.5 114.5 0 0 1 5.397-15.307l9.534-21.936 24.518-46.493a114.6 114.6 0 0 1 8.743-14.021l11.356-15.583 11.3-15.506a114.6 114.6 0 0 1 10.803-12.752l17.099-17.428 15.954-16.26a114.4 114.4 0 0 1 15.161-12.969l17.65-12.612 25.798-18.433 25.742-14.713 17.788-10.168a114.5 114.5 0 0 1 16.528-7.769l15.296-5.75 23.871-8.973 80.423-30.183a114.5 114.5 0 0 0 22.792-11.606l19.282-12.713a114.5 114.5 0 0 0 17.31-14.008l1.95-1.92a114.5 114.5 0 0 0 28.238-45.249l6.728-20.112a114.6 114.6 0 0 0 4.809-20.453"/><path fill="#fe6323" d="m342.583 215.811-6.612-47.257-27.84 45.801-6.428 10.576a245 245 0 0 0-30.113 75.516l-4.351 20.146-5.883 43.904-2.427 47.55a270.9 270.9 0 0 0 11.504 93.079l1.66 5.426 15.591 50.953 14.418 33.174a326.6 326.6 0 0 0 27.711 50.875l21.596 32.425-30.675-21.918a237.45 237.45 0 0 1-79.719-98.546l-40.178-92.449-7.537 32.921-7.536 32.92-5.438 39.185-1.307 38.639 1.98 34.713 1.98 34.714 5.21 34.246 1.419 9.334a305.6 305.6 0 0 0 35.037 102.549l11.416 20.529 18.813 26.774.423.603a326.6 326.6 0 0 0 41.507 48.277l3.581 3.425 5.874 5.219a326.6 326.6 0 0 0 50.797 37.038l18.156 10.726 48.128 27.452 2.541 1.33a327 327 0 0 0 66.775 26.04l17.981 4.82 27.355 4.4a326.6 326.6 0 0 0 49.663 4.13l13.192.09 32.278-.26c8.606 0 17.108-1.88 24.912-5.5l49.909-23.21c15.776-7.34 30.902-16 45.216-25.886l44.227-30.558 26.606-21.691a47.61 47.61 0 0 0 17.526-37.184c-.02-3.263.297-6.52.943-9.719l.312-1.541c3.765-18.619-1.189-38.06-13.309-52.687-10.335-12.473-15.591-28.525-14.543-44.689l1.366-21.069-1.75-48.544-4.354-28.689-6.295-25.973-2.428-8.838a327 327 0 0 0-15.401-43.674l-3.524-8.108-17.357-32.914a327 327 0 0 0-24.945-40.007l-2.315-3.176-2.154-2.957a327 327 0 0 0-30.824-36.386l-6.224-6.343-2.957-3.014a326.7 326.7 0 0 0-43.257-37.004l-2.551-1.823-25.798-18.434-25.742-14.713-3.601-2.058a318.6 318.6 0 0 0-46.011-21.628l-23.871-8.973-68.856-25.842a224.4 224.4 0 0 1-44.674-22.748l-8.305-5.476a122.59 122.59 0 0 1-48.777-63.457l-4.242-12.681a178.4 178.4 0 0 1-7.494-31.875"/><path fill="#ffa624" d="m581.626 413.867-8.202-29.528 40.558 28.629a108.9 108.9 0 0 1 25.656 25.451l14.74 20.531a109 109 0 0 1 8.939 14.807l21.248 42.495a108.9 108.9 0 0 1 10.8 36.412l5.446 47.979v40.285l-7.622 55.89 40.648-55.89 16.601-27.191a109 109 0 0 0 7.708-15.179l26.864-65.056 9.073 31.574 6.483 27.623a109 109 0 0 1 2.524 16.077l2.607 32.152v78.029l-3.267 33.389-6.202 30.204a109 109 0 0 1-6.275 20.273l-4.943 11.765-6.095 13.134a109 109 0 0 1-10.608 18.072l-13.42 18.515-21.05 28.127-23.742 25.046a109 109 0 0 1-20.679 17.026l-19.498 12.374a109 109 0 0 1-14.272 7.632l-14.718 6.515-7.702 3.409a74.7 74.7 0 0 1-41.411 5.547l-12.307-1.865a108.9 108.9 0 0 1-34.239-11.217l-20.208-10.593a109 109 0 0 1-16.296-10.489l-10-7.778a108.9 108.9 0 0 1-20.568-21.032l-13.033-17.552a109 109 0 0 1-9.427-15.146l-9.337-18.17-11.251-28.671-4.718-17.784-2.904-16.694-1.809-12.664a109 109 0 0 1-1.094-15.398v-12.586l2.311-30.614a109 109 0 0 1 2.31-15.545l2.093-9.369 2.073-9.28A109 109 0 0 1 438 672.319l4.589-11.975 4.032-10.523a109 109 0 0 1 8.308-17.06l5.443-9.072 10.344-17.239 11.25-15.062 6.037-8.081a109 109 0 0 1 11.472-13.042l5.356-5.189 11.613-11.251 36.208-35.039a109 109 0 0 0 15.481-18.764l5.496-8.427a77.725 77.725 0 0 0 12.328-49.228l-.772-8.837a109 109 0 0 0-3.559-19.663"/><path fill="#ffa624" d="m821.014 278.828-8.059-36.03 15.024 13.171a326.6 326.6 0 0 1 67.461 82.142l3.529 6.103 15.84 39.345a326.7 326.7 0 0 1 22.277 92.255l3.256 35.624v50.032l-7.621 69.413 40.647-69.413 21.05-42.821 30.122-90.598 9.07 39.214 8.35 44.173 3.27 50.032v96.908l-3.27 41.468-4.01 24.265a327 327 0 0 1-12.85 51.39l-.56 1.647-.74 1.986a327 327 0 0 1-23.874 50.327l-5.508 9.438-21.05 34.932-15.395 20.171a229.9 229.9 0 0 1-72.024 62.001l-5.49 3.018-8.374 4.603a61.18 61.18 0 0 1-40.784 6.511l-5.895-1.109a125.5 125.5 0 0 1-45.258-18.158l-9.812-6.387a178.9 178.9 0 0 1-55.938-58.119l-5.344-8.936a257.4 257.4 0 0 1-16.918-33.673l-6.205-14.996-11.251-35.608-4.718-22.086-2.903-20.734-2.904-25.241v-25.242l2.904-47.778 3.81-21.185 3.811-21.184 7.44-24.115.43-1.394a315 315 0 0 1 17.354-44.131l10.343-21.41 11.251-18.705 1.886-3.136a239 239 0 0 1 20.978-29.543l11.614-13.973 32.561-39.134a184.2 184.2 0 0 0 21.485-32.177l2.794-5.32a113.6 113.6 0 0 0 12.743-60.786l-.806-11.467a173 173 0 0 0-3.739-25.58M464.183 291.382l21.957-64.916-21.706 10.727a188 188 0 0 0-79.472 74.459l-18.769 32.473-15.845 39.362a326.6 326.6 0 0 0-22.272 92.245l-3.257 35.641v50.039l7.621 69.423-40.647-69.423-21.05-42.826-30.123-90.612-9.073 39.22-8.347 44.179-3.267 50.039v96.922l3.267 41.474 4.013 24.275a326.7 326.7 0 0 0 12.848 51.385l.559 1.652.744 1.992a326.7 326.7 0 0 0 23.868 50.325l5.511 9.443 21.05 34.937 15.396 20.176a230 230 0 0 0 72.024 62.008l5.489 3.018 8.375 4.604a61.16 61.16 0 0 0 40.784 6.512l5.894-1.109a125.5 125.5 0 0 0 45.258-18.16l9.811-6.388a178.96 178.96 0 0 0 55.939-58.126l5.344-8.94a257 257 0 0 0 16.918-33.676l6.205-14.999 11.251-35.613 4.718-22.089 2.903-20.737 2.904-25.245v-25.245l-2.904-47.785-3.81-21.188-3.811-21.187-7.44-24.118-.43-1.394a315 315 0 0 0-17.353-44.137l-10.344-21.413-11.25-18.709-1.887-3.136a239 239 0 0 0-20.978-29.547l-11.613-13.975-23.046-37.416-20-27.061a78.87 78.87 0 0 1-10.506-74.355z"/><path fill="#ff9700" d="m703.714 291.382 21.957-64.916-21.706 10.727a188 188 0 0 0-79.472 74.459l-18.769 32.473-15.845 39.362a326.7 326.7 0 0 0-22.272 92.245l-3.257 35.641v50.039l7.622 69.423-40.648-69.423-21.05-42.826-30.123-90.612-9.073 39.22-8.347 44.179-3.266 50.039v96.922l3.266 41.474 4.013 24.275a327 327 0 0 0 12.848 51.385l.559 1.652 5.464 14.626a169 169 0 0 0 12.351 26.043 169 169 0 0 1 18.143 44.804l4.721 19.185a123.4 123.4 0 0 0 21.725 45.372l3.05 3.997a101.8 101.8 0 0 0 35.632 29.41l6.289 3.125a71.9 71.9 0 0 0 31.989 7.509h36.565a125.5 125.5 0 0 0 68.464-20.325l9.811-6.388a178.9 178.9 0 0 0 55.939-58.126l5.344-8.94a257 257 0 0 0 16.918-33.676l6.206-14.999 11.25-35.613 4.718-22.089 2.904-20.737 2.903-25.245v-25.245l-2.903-47.785-3.811-21.188-3.811-21.187-7.44-24.118-.43-1.394a315 315 0 0 0-17.353-44.137l-10.344-21.413-11.25-18.709-1.886-3.136a238.6 238.6 0 0 0-20.979-29.547l-11.613-13.975-23.046-37.416-20-27.061a78.88 78.88 0 0 1-10.505-74.355z"/><path fill="#fff28c" d="m400.559 837.723-54.568-117.32-12.46 54.206-3.215 22.033a273.3 273.3 0 0 0 2.422 57.862l.624 4.188a150.2 150.2 0 0 0 31.791 71.464l2.786 3.432a154 154 0 0 0 22.672 22.635l24.367 19.717a55.36 55.36 0 0 0 31.267 12.211l190.147 32.039-70.22-74.32a83.08 83.08 0 0 1-19.333-80.456 83.09 83.09 0 0 0-9.245-67.393l-71.703-114.855 1.649 29.56a244.575 244.575 0 0 1-26.879 125.824c-8.518 16.496-32.272 16.006-40.102-.827M857.717 823.868l48.122-103.461 12.46 54.206 3.215 22.032 1.054 16.371c.543 8.436.189 16.906-1.057 25.267l-3.043 20.413-1.287 8.227a119.34 119.34 0 0 1-25.256 56.772L881.611 936.4a119.4 119.4 0 0 1-17.58 17.552l-17.675 14.301a119.3 119.3 0 0 1-52.495 24.413l-140.049 26.974 43.417-56.261a84.955 84.955 0 0 0 14.259-75.819l-2.458-8.377a115.06 115.06 0 0 1 12.803-93.327l64.106-102.686-2.436 43.674c-.499 8.938.01 17.904 1.517 26.728l5.645 33.069a119.4 119.4 0 0 0 11.599 34.668l1.893 3.665c11.376 22.031 43.102 21.376 53.56-1.106"/><path fill="#fff28c" d="m669.83 842.061 52.973-118.815 13.574 64.523 3.562 25.949.114 1.759a326.6 326.6 0 0 1-2.145 64.012l-.728 5.494-.375 2.688a152.6 152.6 0 0 1-33.291 75.867 152.6 152.6 0 0 0-21.333 34.371l-1.694 3.771-1.08 2.7a18.97 18.97 0 0 1-7.086 8.73l-4.582 2.57a35 35 0 0 1-7.534 3.14 35 35 0 0 1-9.712 1.37h-14.102a52.9 52.9 0 0 1-30.086-15.09l-48.1-48.388-11.902-15.224a159.73 159.73 0 0 1-10.27-181.989l59.753-97.276-1.455 32.384a326.6 326.6 0 0 0 3.726 65.953l.371 2.333a314 314 0 0 0 23.615 79.223c9.259 20.641 38.575 20.607 47.787-.055"/></svg>