<svg width="1600" height="1701" viewBox="0 0 1600 1701" fill="none" xmlns="http://www.w3.org/2000/svg">
<path d="M572.615 160.037L584.154 61.0002L554.731 110.519L531.561 149.512C527.408 156.503 524.122 163.974 521.778 171.76L509.154 213.682L501.077 240.505L485.692 301.257L471.462 369.574L458.843 430.151C457.77 435.303 457.105 440.532 456.855 445.788L453.192 522.714L449.154 607.538V712.077L457.231 819.367L431.585 717.459C430.223 712.046 429.317 706.529 428.875 700.965L421.462 607.538V410.381L408 453.939L394.538 497.497L380.692 551.6L369.538 607.538L361.462 659.807L353.385 712.077L347.423 765.722L341.462 819.367L338 906.483L341.462 990.847L345.885 1042.2L350.308 1093.55L359.923 1148.11L371.077 1205.43L391.846 1273.74L410.71 1333.84C412.999 1341.13 414.444 1348.66 415.018 1356.28L429.538 1549H457.231H495.692H526.846H559.154H587.615H615.692H644.538H689.154L768 1542.89L741.846 1344.81L735.692 1135.73L738.769 1093.55L741.846 1042.2V990.847L738.769 893.644L734.731 850.545L730.692 807.446L722.808 758.386L714.923 709.326L703.962 665.768L693 622.21L681.077 584.154L669.154 546.098L656.846 517.671L644.538 489.243L599.674 385.726C597.791 381.382 596.219 376.911 594.97 372.344L579.538 315.929L570.86 264.585C569.726 257.872 569.279 251.061 569.529 244.257L572.615 160.037Z" fill="#FF9700"/>
<path d="M305.553 238.977L317.124 210.5L295.493 222.131C275.867 232.684 258.593 247.119 244.721 264.558C234.86 276.955 226.844 290.713 220.921 305.405L210.145 332.138L200.292 356.581L181.524 411.943L164.163 474.2L155.226 506.251C149.626 526.334 146.134 546.945 144.808 567.751L141.876 613.756L136.949 691.054V786.32L146.803 884.092L123.555 815.085C116.553 794.299 111.851 772.809 109.534 750.998L103.167 691.054V511.387L86.7446 551.081L70.3224 590.775L53.4311 640.079L39.8242 691.054L29.9709 738.687L20.1176 786.32L12.8449 835.206L5.57227 884.092L1.34943 963.48L5.57227 1040.36L10.9681 1087.16L16.364 1133.95L28.0941 1183.68L41.701 1235.91L67.038 1298.16L83.9586 1338.43C90.7827 1354.67 95.1505 1371.84 96.9183 1389.36L109.63 1515.39C111.555 1534.47 127.62 1549 146.803 1549H193.723H231.729H271.142H305.863H340.115H375.305H429.733H792.5L628.822 1446.96C544.496 1394.4 491.672 1303.48 487.759 1204.19L486.507 1172.4L490.26 1133.95L494.014 1087.16V1040.36L490.26 951.781L485.334 912.505L480.407 873.228L470.788 828.521L461.169 783.813L447.797 744.119L434.425 704.425L419.88 669.745L405.334 635.065L390.32 609.159L375.305 583.254L330.309 505.7C321.536 490.579 314.101 474.719 308.09 458.303L296.01 425.314L291.813 406.766C286.191 381.92 283.974 356.426 285.222 330.983C286.772 299.389 293.646 268.283 305.553 238.977Z" fill="#FE6323"/>
<path d="M1054.67 68.2448L1035.31 50.582L1046.99 50.582C1077.46 50.5819 1105.59 66.9216 1120.69 93.3899C1124.01 99.2184 1126.63 105.421 1128.5 111.867L1141.85 158.044L1149.92 185.984L1165.31 249.267L1179.54 320.431L1192.28 384.143C1193.27 389.103 1193.89 394.132 1194.12 399.186L1197.81 479.952L1201.85 568.31V677.205L1193.77 788.965L1219.57 682.182C1220.83 676.962 1221.67 671.649 1222.07 666.294L1229.54 568.31V362.938L1243 408.311L1256.46 453.684L1270.31 510.042L1281.46 568.31L1289.54 622.757L1297.62 677.205L1303.58 733.085L1309.54 788.965L1313 879.711L1309.54 967.591L1305.12 1021.08L1300.69 1074.58L1291.08 1131.41L1279.92 1191.11L1259.15 1262.28L1240.04 1325.71C1237.92 1332.75 1236.58 1340.01 1236.05 1347.34L1221.46 1549H1193.77H1155.31H1124.15H1091.85H1063.38H1035.31H1006.46H961.846L883 1542.63L909.154 1336.3L915.308 1118.52L912.231 1074.58L909.154 1021.08V967.591L912.231 866.338L916.269 821.443L920.308 776.547L928.192 725.443L936.077 674.339L947.038 628.966L958 583.593L969.923 543.952L981.846 504.31L994.154 474.698L1006.46 445.087L1054.15 330.461L1071.46 264.551L1081.85 200.551L1086.76 152.232C1089.96 120.735 1078.06 89.5824 1054.67 68.2448Z" fill="#FF9700"/>
<path d="M1285.44 283.251L1271.36 193L1307.25 238.126L1316 249.116C1334 271.754 1348.64 296.877 1359.46 323.706L1362.85 332.138L1372.71 356.581L1391.48 411.943L1408.84 474.2L1417.77 506.251C1423.37 526.334 1426.87 546.945 1428.19 567.751L1431.12 613.756L1436.05 691.054V786.32L1426.2 884.092L1449.44 815.085C1456.45 794.299 1461.15 772.809 1463.47 750.998L1469.83 691.054V511.387L1486.26 551.081L1502.68 590.775L1519.57 640.079L1533.18 691.054L1543.03 738.687L1552.88 786.32L1560.16 835.206L1567.43 884.092L1571.65 963.48L1567.43 1040.36L1562.03 1087.16L1556.64 1133.95L1544.91 1183.68L1531.3 1235.91L1505.96 1298.16L1489.04 1338.43C1482.22 1354.67 1477.85 1371.84 1476.08 1389.36L1463.37 1515.39C1461.45 1534.47 1445.38 1549 1426.2 1549H1379.28H1341.27H1301.86H1267.14H1232.89H1197.69H1143.27H724.5L925.477 1443.51C1020.46 1393.65 1081.59 1296.87 1085.81 1189.69L1086.49 1172.4L1082.74 1133.95L1078.99 1087.16V1040.36L1082.74 951.781L1087.67 912.505L1092.59 873.228L1102.21 828.521L1111.83 783.813L1125.2 744.119L1138.58 704.425L1153.12 669.745L1167.67 635.065L1182.68 609.159L1197.69 583.254L1242.69 505.7C1251.46 490.579 1258.9 474.719 1264.91 458.303L1276.99 425.314L1280.61 409.297C1286.62 382.772 1288.98 355.554 1287.65 328.39L1285.44 283.251Z" fill="#FE6323"/>
<path d="M1041.15 473.006L1077.27 428.421L1014.16 441.522L999.591 444.548C967.461 451.218 936.671 463.211 908.494 480.03L887.213 492.734L843.787 523.581L799.991 560.46C771.015 584.859 746.517 614.124 727.597 646.94L724.189 652.851L692.184 708.363L675.564 746.606C665.813 769.043 658.075 792.302 652.441 816.109L642.067 859.948L636.169 814.996C631.782 781.558 633.354 747.607 640.812 714.717C644.75 697.351 650.305 680.39 657.403 664.058L705.717 552.887L670.591 573.27L635.465 593.653L596.553 621.022L561.511 651.573L532.616 681.794L503.722 712.016L477.888 744.693L470.847 753.599C458.339 769.419 447.156 786.242 437.409 803.897C426.036 824.499 416.668 846.145 409.434 868.538L400.751 895.417L392.647 933.923C387.258 959.533 384.383 985.608 384.064 1011.78L384.002 1016.85L384.185 1024.34C384.835 1050.89 388.044 1077.32 393.767 1103.25L398.812 1126.1L414.164 1190.94L427.781 1228.4C439.397 1260.35 454.914 1290.74 473.979 1318.89L475.557 1321.22C487.048 1338.18 499.786 1354.27 513.665 1369.35L523.917 1380.48L534.737 1392.23C548.11 1406.76 564.371 1418.33 582.478 1426.2C588.992 1429.03 595.709 1431.36 602.573 1433.19L612.903 1435.93C643.337 1444.01 674.906 1446.97 706.312 1444.68L727.096 1443.16C745.651 1441.81 764.048 1438.8 782.069 1434.18C809.496 1427.14 835.842 1416.42 860.385 1402.3L870.225 1396.64C889.013 1385.83 906.883 1373.49 923.654 1359.76L941.565 1345.09L982.808 1303.73L1004.46 1276.36L1022.13 1249.52L1027.15 1241.36C1037.4 1224.72 1046.45 1207.37 1054.24 1189.45L1057.9 1181.01L1072.12 1140.13C1078.65 1121.34 1083.82 1102.1 1087.58 1082.56L1088.2 1079.35L1088.75 1076.48C1092.56 1056.72 1094.91 1036.71 1095.8 1016.6L1096.2 1007.4L1096.35 1004.1C1097.41 980.083 1096.37 956.023 1093.24 932.19L1092.98 930.203L1088.02 892.399L1079.84 857.697L1078.69 852.842C1074.01 832.975 1067.74 813.514 1059.96 794.646L1048.26 766.297L1014.49 684.56C1006.79 665.929 1001.2 646.494 997.834 626.62L995.835 614.826C994.234 605.379 993.557 595.799 993.814 586.221C994.439 563.015 1000.53 540.285 1011.61 519.88L1019.27 505.746C1025.55 494.185 1032.87 483.226 1041.15 473.006Z" fill="#FE6323"/>
<path d="M558.852 473.322L522.73 428.738L585.837 441.839L600.41 444.864C632.54 451.534 663.33 463.527 691.507 480.347L712.788 493.05L756.214 523.898L800.01 560.777C828.986 585.176 853.484 614.441 872.404 647.257L875.812 653.167L907.817 708.679L924.437 746.922C934.188 769.359 941.926 792.618 947.56 816.425L957.934 860.264L963.832 815.313C968.219 781.875 966.647 747.924 959.189 715.034C955.251 697.667 949.696 680.707 942.598 664.374L894.284 553.203L929.41 573.586L964.536 593.97L1003.45 621.338L1038.49 651.89L1067.38 682.111L1096.28 712.332L1122.11 745.009L1129.15 753.915C1141.66 769.735 1152.85 786.559 1162.59 804.214C1173.97 824.815 1183.33 846.462 1190.57 868.855L1199.25 895.734L1207.35 934.24C1212.74 959.849 1215.62 985.924 1215.94 1012.09L1216 1017.17L1215.82 1024.66C1215.17 1051.21 1211.96 1077.63 1206.23 1103.57L1201.19 1126.42L1185.84 1191.26L1172.22 1228.71C1160.6 1260.66 1145.09 1291.06 1126.02 1319.21L1124.44 1321.54C1112.95 1338.5 1100.22 1354.59 1086.34 1369.66L1076.08 1380.8L1065.26 1392.55C1051.89 1407.07 1035.63 1418.64 1017.52 1426.51C1011.01 1429.34 1004.29 1431.68 997.428 1433.5L987.098 1436.25C956.664 1444.33 925.095 1447.29 893.689 1444.99L872.905 1443.48C854.35 1442.12 835.953 1439.12 817.932 1434.5C790.504 1427.46 764.159 1416.74 739.616 1402.62L729.776 1396.95C710.988 1386.14 693.118 1373.81 676.347 1360.08L658.436 1345.41L617.193 1304.05L595.544 1276.68L577.874 1249.84L572.848 1241.67C562.602 1225.03 553.551 1207.68 545.762 1189.76L542.097 1181.33L527.881 1140.44C521.346 1121.65 516.178 1102.41 512.417 1082.87L511.8 1079.67L511.248 1076.8C507.444 1057.04 505.089 1037.03 504.203 1016.92L503.798 1007.72L503.652 1004.41C502.594 980.4 503.634 956.339 506.76 932.507L507.021 930.52L511.981 892.716L520.165 858.013L521.31 853.158C525.995 833.291 532.26 813.831 540.045 794.962L551.741 766.614L585.513 684.876C593.211 666.245 598.797 646.811 602.167 626.936L604.166 615.142C605.767 605.696 606.444 596.116 606.187 586.538C605.562 563.332 599.467 540.601 588.396 520.196L580.727 506.063C574.454 494.502 567.132 483.542 558.852 473.322Z" fill="#FE6323"/>
<path d="M694.029 297.329L673.56 235.74L740.809 276.148L758.414 286.726C791.283 306.476 820.653 331.537 845.328 360.89L863.962 383.056L899.583 433.367L932.692 490.051C954.558 527.488 968.993 568.795 975.202 611.704L976.055 617.599L986.31 688.463L987.03 734.373C987.464 762.037 985.117 789.675 980.024 816.869L970.81 866.075L1001 820.181C1021.5 789.005 1035.78 754.154 1043.03 717.55C1046.99 697.559 1048.83 677.205 1048.51 656.827L1046.4 522.436L1077.45 558.421L1108.49 594.406L1140.54 639.206L1166.52 685.636L1185.49 729.105L1204.46 772.574L1218.66 817.269L1222.66 829.864C1229.44 851.219 1234.23 873.155 1236.98 895.393C1240.2 921.565 1240.57 948.011 1238.08 974.264L1235.11 1005.51L1225.77 1048.66C1219.56 1077.34 1210.27 1105.26 1198.07 1131.95L1195.38 1137.82L1189.95 1148.55C1177.28 1173.58 1162.08 1197.26 1144.61 1219.21L1124.77 1244.12L1075.21 1304.41L1032.93 1344.99C1009.16 1367.81 982.744 1387.7 954.243 1404.24L907.402 1431.43L854.622 1452.99L849.398 1455.12C817.969 1467.96 784.422 1474.82 750.477 1475.35L726.13 1472.49C685.016 1467.65 644.864 1456.66 607.019 1439.88L585.33 1430.27C565.395 1421.43 546.239 1410.93 528.065 1398.88C498.888 1379.54 472.458 1356.34 449.491 1329.92L440.982 1320.13C425.416 1302.23 411.422 1283.01 399.155 1262.7L384.511 1238.46L356.572 1178.24L344.664 1140.8L337.146 1105.6L335.336 1095.44C331.456 1073.66 329.332 1051.61 328.985 1029.49L328.832 1019.73L332.175 971.852C333.736 949.488 337.115 927.289 342.28 905.475L343.096 902.028L343.957 898.389C349.091 876.702 355.972 855.467 364.532 834.891L368.873 824.457L371.156 818.969C381.081 795.114 393.222 772.243 407.421 750.657L410.316 746.255L434.555 709.403L461.043 677.122L466.394 670.602C480.463 653.457 495.89 637.472 512.526 622.804L515.017 620.608L542.502 596.374L623.177 525.316C640.343 510.197 655.73 493.172 669.042 474.57L678.174 461.81C684.277 453.281 689.476 444.139 693.686 434.532C704.405 410.069 708.446 383.201 705.396 356.667L703.494 340.122C701.821 325.57 698.649 311.23 694.029 297.329Z" fill="#FE6323"/>
<path d="M1165.82 506.926L1175.21 439.798L1210.41 497.707L1232.95 534.8C1241.33 548.58 1247.35 563.663 1250.75 579.426L1256.61 606.559L1262.11 632.031L1269.55 687.542L1272.62 747.663L1274.39 782.38C1275.25 799.188 1273.17 816.016 1268.24 832.108L1255.97 872.209L1236.26 936.633L1208.51 1000.48C1205.1 1008.34 1200.99 1015.89 1196.23 1023.02L1155.69 1083.9L1217.06 1040.05C1230.97 1030.11 1243.01 1017.78 1252.62 1003.64L1276.42 968.626C1281.5 961.16 1285.86 953.235 1289.46 944.955L1346.07 814.699L1355.6 856.322L1365.13 897.945L1372 947.49L1373.65 996.343L1371.15 1040.23L1368.65 1084.12L1362.06 1127.42L1357.27 1158.92C1356.07 1166.78 1354.23 1174.52 1351.77 1182.07L1338.37 1223.13C1335.49 1231.94 1331.78 1240.45 1327.27 1248.55L1301.53 1294.84L1277.75 1328.69L1262.11 1350.95C1256.69 1358.66 1250.53 1365.83 1243.72 1372.34L1220.2 1394.83L1193.39 1418.65C1186.43 1424.83 1178.89 1430.33 1170.88 1435.06L1125.59 1461.82L1064.74 1496.53L993.16 1526.97C982.196 1531.64 970.697 1534.93 958.926 1536.77L899.241 1546.13C892.146 1547.24 884.978 1547.83 877.797 1547.88L840.307 1548.13L822.632 1548.25C802.454 1548.38 782.472 1544.3 763.966 1536.26L687.882 1503.19C679.262 1499.44 671.028 1494.87 663.295 1489.52L591.807 1440.13L558.167 1412.71C544.047 1401.19 535.9 1383.91 536.008 1365.69C536.032 1361.57 535.632 1357.45 534.814 1353.4L534.42 1351.45C529.66 1327.91 535.923 1303.33 551.247 1284.84C564.314 1269.07 570.96 1248.77 569.635 1228.33L567.909 1201.7L570.121 1140.32L575.627 1104.05L583.586 1071.21L591.705 1041.65C593.519 1035.04 595.799 1028.58 598.529 1022.3L610.583 994.56L641.584 935.776C644.836 929.608 648.53 923.683 652.637 918.047L666.996 898.345L681.283 878.74C685.437 873.039 690.002 867.65 694.942 862.616L716.561 840.581L736.733 820.022C742.633 814.009 749.047 808.522 755.902 803.624L778.218 787.678L810.837 764.372L843.383 745.769L865.875 732.913C872.568 729.088 879.555 725.803 886.772 723.091L906.112 715.821L936.293 704.475L1037.98 666.313C1048.1 662.513 1057.77 657.591 1066.8 651.639L1091.17 635.564C1099.03 630.386 1106.36 624.454 1113.06 617.854L1115.53 615.425C1131.77 599.432 1144 579.83 1151.23 558.215L1159.74 532.785C1162.55 524.37 1164.59 515.713 1165.82 506.926Z" fill="#FE6323"/>
<path d="M433.151 499.864L424.791 440.115L389.592 498.023L381.463 511.396C363.542 540.879 350.674 573.15 343.39 606.876L337.889 632.347L330.45 687.858L327.382 747.979C325.352 787.755 330.274 827.581 341.927 865.666L344.026 872.525L363.739 936.949L381.968 978.893C391.719 1001.33 403.444 1022.86 417.006 1043.22L444.311 1084.22L405.526 1056.5C376.675 1035.89 351.705 1010.32 331.772 980.997C321.247 965.512 312.194 949.076 304.731 931.904L253.932 815.015L244.403 856.638L234.874 898.262L227.998 947.807L226.346 996.66L228.849 1040.55L231.353 1084.44L237.94 1127.74L239.735 1139.54C242.924 1160.51 247.833 1181.17 254.413 1201.33C262.091 1224.85 272.01 1247.58 284.035 1269.2L298.468 1295.16L322.254 1329.01L322.79 1329.77C338.253 1351.78 355.83 1372.22 375.269 1390.81L379.797 1395.14L387.225 1401.74C407.078 1419.38 428.586 1435.06 451.451 1448.57L474.406 1462.13L535.258 1496.84L538.471 1498.52C565.321 1512.56 593.634 1523.6 622.899 1531.45L645.634 1537.54L680.22 1543.1C700.987 1546.44 721.979 1548.19 743.013 1548.33L759.693 1548.44C797.468 1548.23 834.754 1539.87 869.008 1523.95L894.811 1511.95C914.953 1502.58 934.265 1491.53 952.541 1478.9L1008.19 1440.45L1041.83 1413.02C1055.95 1401.51 1064.1 1384.22 1063.99 1366.01C1063.97 1361.88 1064.37 1357.76 1065.19 1353.72L1065.58 1351.77C1070.34 1328.23 1064.08 1303.65 1048.75 1285.15C1035.69 1269.38 1029.04 1249.09 1030.36 1228.65L1032.09 1202.01L1029.88 1140.63L1024.37 1104.36L1016.41 1071.52L1013.34 1060.35C1008.17 1041.5 1001.66 1023.05 993.872 1005.13L989.417 994.876L967.471 953.261C958.19 935.662 947.649 918.757 935.931 902.677L933.004 898.661L930.28 894.923C918.428 878.659 905.402 863.283 891.308 848.918L883.439 840.898L879.699 837.087C862.865 819.929 844.565 804.274 825.007 790.3L821.782 787.995L789.163 764.688L756.617 746.085L752.063 743.483C733.431 732.833 713.977 723.689 693.888 716.137L663.707 704.792L576.648 672.118C556.804 664.671 537.857 655.023 520.163 643.356L509.663 636.433C501.252 630.887 493.402 624.535 486.225 617.466C468.834 600.34 455.734 579.348 447.99 556.2L442.627 540.166C438.24 527.051 435.068 513.56 433.151 499.864Z" fill="#FE6323"/>
<path d="M735.39 750.281L725.02 712.946L776.3 749.144C788.83 757.989 799.794 768.865 808.739 781.324L827.375 807.282C831.633 813.213 835.413 819.473 838.678 826.003L865.543 879.734C872.757 894.161 877.378 909.744 879.198 925.771L886.084 986.434V1037.37L876.448 1108.04L927.841 1037.37L948.831 1002.99C952.575 996.857 955.834 990.44 958.576 983.798L992.542 901.543L1004.01 941.465L1012.21 976.39C1013.78 983.077 1014.85 989.872 1015.4 996.718L1018.7 1037.37V1091.52V1136.03L1014.57 1178.24L1006.73 1216.43C1004.92 1225.21 1002.27 1233.8 998.792 1242.07L992.542 1256.94L984.837 1273.55C981.111 1281.58 976.619 1289.23 971.424 1296.4L954.456 1319.81L927.841 1355.37L897.823 1387.04C890.027 1395.26 881.245 1402.49 871.677 1408.56L847.024 1424.21C841.257 1427.87 835.225 1431.09 828.979 1433.86L810.37 1442.09L800.632 1446.41C788.596 1451.73 775.579 1454.48 762.417 1454.48C757.683 1454.48 752.955 1454.13 748.273 1453.42L732.712 1451.06C717.594 1448.77 702.964 1443.98 689.421 1436.88L663.871 1423.49C656.622 1419.69 649.727 1415.25 643.267 1410.22L630.624 1400.39C620.792 1392.74 612.044 1383.8 604.618 1373.8L588.139 1351.6C583.649 1345.56 579.663 1339.15 576.22 1332.45L564.414 1309.48L550.189 1273.23L544.224 1250.74L540.553 1229.64L538.265 1213.62C537.344 1207.18 536.882 1200.67 536.882 1194.16V1178.24L539.803 1139.54C540.302 1132.92 541.279 1126.35 542.725 1119.88L545.371 1108.04L547.992 1096.3C549.455 1089.76 551.394 1083.32 553.794 1077.06L559.596 1061.92L564.694 1048.61C567.561 1041.13 571.076 1033.91 575.198 1027.04L582.081 1015.57L595.159 993.776L609.384 974.733L617.016 964.515C621.404 958.641 626.254 953.127 631.521 948.025L638.293 941.465L652.977 927.24L698.756 882.937C706.147 875.785 712.712 867.827 718.33 859.213L725.28 848.557C728.769 843.207 731.728 837.529 734.116 831.605C739.901 817.25 742.213 801.732 740.866 786.315L739.89 775.143C739.155 766.735 737.649 758.413 735.39 750.281Z" fill="#FFA624"/>
<path d="M1038.06 579.541L1027.88 533.986L1046.87 550.639C1080.78 580.369 1109.6 615.452 1132.17 654.497L1136.63 662.213L1156.66 711.96C1171.67 749.263 1181.16 788.559 1184.82 828.605L1188.94 873.646V936.905L1179.3 1024.67L1230.7 936.905L1257.31 882.764L1295.4 768.214L1306.87 817.796L1317.42 873.646L1321.55 936.905V1004.15V1059.43L1317.42 1111.86L1312.35 1142.54C1308.7 1164.61 1303.27 1186.34 1296.1 1207.52L1295.4 1209.6L1294.46 1212.11C1286.23 1234.14 1276.13 1255.43 1264.28 1275.74L1257.31 1287.68L1230.7 1331.84L1211.23 1357.35C1196.43 1376.74 1179.24 1394.2 1160.08 1409.3C1147.53 1419.2 1134.18 1428.04 1120.17 1435.74L1113.23 1439.56L1102.64 1445.38C1091.22 1451.65 1078.4 1454.94 1065.38 1454.94C1060.58 1454.94 1055.79 1454.5 1051.07 1453.61L1043.62 1452.21C1023.23 1448.37 1003.78 1440.57 986.394 1429.25L973.989 1421.17C961.912 1413.31 950.614 1404.31 940.249 1394.3C925.921 1380.46 913.485 1364.79 903.262 1347.69L896.506 1336.39C888.345 1322.74 881.195 1308.51 875.115 1293.81L867.27 1274.85L853.045 1229.83L847.079 1201.91L843.408 1175.69L839.737 1143.78V1111.86L843.408 1051.45L848.226 1024.67L853.045 997.884L862.451 967.394L862.995 965.632C868.896 946.508 876.23 927.856 884.936 909.834L898.014 882.764L912.239 859.113L914.624 855.149C922.506 842.044 931.373 829.557 941.148 817.796L955.832 800.129L997.001 750.648C1007.46 738.078 1016.57 724.442 1024.17 709.965L1027.7 703.239C1031.48 696.038 1034.64 688.529 1037.15 680.792C1042.85 663.251 1045.11 644.778 1043.81 626.383L1042.79 611.883C1042.03 601 1040.45 590.189 1038.06 579.541Z" fill="#FFA624"/>
<path d="M586.899 595.414L614.66 513.336L587.217 526.899C563.014 538.859 541.026 554.855 522.196 574.2C508.484 588.288 496.572 604.023 486.734 621.043L463.003 662.101L442.97 711.869C427.956 749.168 418.469 788.46 414.81 828.5L410.691 873.564V936.831L420.328 1024.61L368.934 936.831L342.319 882.683L304.233 768.117L292.761 817.706L282.207 873.564L278.077 936.831V1004.09V1059.38L282.207 1111.82L287.281 1142.51C290.929 1164.57 296.361 1186.3 303.526 1207.48L304.233 1209.57L305.174 1212.08C313.403 1234.11 323.499 1255.4 335.352 1275.71L342.319 1287.65L368.934 1331.83L388.401 1357.34C403.202 1376.73 420.386 1394.19 439.547 1409.29C452.104 1419.19 465.455 1428.04 479.466 1435.74L486.405 1439.55L496.994 1445.38C508.411 1451.65 521.228 1454.94 534.256 1454.94C539.055 1454.94 543.844 1454.5 548.56 1453.61L556.013 1452.21C576.405 1448.37 595.846 1440.57 613.235 1429.25L625.64 1421.17C637.718 1413.3 649.017 1404.3 659.382 1394.29C673.71 1380.45 686.146 1364.77 696.368 1347.68L703.125 1336.37C711.286 1322.72 718.435 1308.49 724.516 1293.79L732.361 1274.83L746.586 1229.8L752.552 1201.87L756.223 1175.65L759.894 1143.73V1111.82L756.223 1051.4L751.404 1024.61L746.586 997.819L737.179 967.325L736.636 965.563C730.735 946.436 723.401 927.781 714.695 909.757L701.617 882.683L687.392 859.029L685.007 855.063C677.125 841.957 668.258 829.468 658.483 817.706L643.799 800.036L614.66 752.728L589.373 718.513C580.642 706.7 574.629 693.104 571.763 678.698C568.158 660.58 569.656 641.817 576.09 624.502L586.899 595.414Z" fill="#FFA624"/>
<path d="M889.754 595.414L917.516 513.336L890.072 526.899C865.87 538.859 843.882 554.855 825.052 574.2C811.339 588.288 799.428 604.023 789.59 621.043L765.858 662.101L745.825 711.869C730.811 749.168 721.324 788.46 717.665 828.5L713.547 873.564V936.831L723.183 1024.61L671.79 936.831L645.175 882.683L607.089 768.117L595.617 817.706L585.063 873.564L580.933 936.831V1004.09V1059.38L585.063 1111.82L590.137 1142.51C593.784 1164.57 599.217 1186.3 606.382 1207.48L607.089 1209.57L613.996 1228.06C618.255 1239.46 623.48 1250.47 629.613 1260.99C639.934 1278.67 647.66 1297.75 652.552 1317.64L658.521 1341.89C663.641 1362.7 672.991 1382.23 685.99 1399.26L689.846 1404.31C701.815 1420 717.23 1432.72 734.899 1441.5L742.849 1445.45C755.418 1451.69 769.261 1454.94 783.296 1454.94H817.252H829.527C839.371 1454.94 849.194 1454.03 858.869 1452.21C879.261 1448.37 898.702 1440.57 916.091 1429.25L928.496 1421.17C940.574 1413.3 951.873 1404.3 962.238 1394.29C976.565 1380.45 989.001 1364.77 999.223 1347.68L1005.98 1336.37C1014.14 1322.72 1021.29 1308.49 1027.37 1293.79L1035.22 1274.83L1049.44 1229.8L1055.41 1201.87L1059.08 1175.65L1062.75 1143.73V1111.82L1059.08 1051.4L1054.26 1024.61L1049.44 997.819L1040.03 967.325L1039.49 965.563C1033.59 946.436 1026.26 927.781 1017.55 909.757L1004.47 882.683L990.247 859.029L987.862 855.063C979.98 841.957 971.113 829.468 961.338 817.706L946.654 800.036L917.516 752.728L892.228 718.513C883.498 706.7 877.484 693.104 874.618 678.698C871.013 660.58 872.512 641.817 878.946 624.502L889.754 595.414Z" fill="#FF9700"/>
<path d="M425.411 181.593L434.538 164.874L436.032 174.038L436.331 177.743L436.331 180.481C436.331 181.892 436.181 183.299 435.884 184.679L435.158 188.047L434.855 189.404C434.089 192.838 432.427 196.007 430.039 198.59L428.184 200.596C427.243 201.614 426.199 202.531 425.067 203.332L418.988 207.634C418.283 208.134 417.439 208.402 416.575 208.402C415.538 208.402 414.538 208.017 413.77 207.32L405.951 200.234L404.375 198.353C402.334 195.917 400.906 193.029 400.209 189.928L400.118 189.525C398.871 183.978 400.054 178.162 403.369 173.542L414.963 157.384L414.089 164.633C413.91 166.117 413.899 167.616 414.055 169.102L414.641 174.672C414.855 176.707 415.381 178.697 416.201 180.572L416.477 181.202C418.135 184.995 423.428 185.226 425.411 181.593Z" fill="#FFF28C"/>
<path d="M1368.41 353.593L1377.54 336.874L1379.03 346.038L1379.33 349.743L1379.33 352.481C1379.33 353.892 1379.18 355.299 1378.88 356.679L1378.16 360.047L1377.86 361.404C1377.09 364.838 1375.43 368.007 1373.04 370.59L1371.18 372.596C1370.24 373.614 1369.2 374.531 1368.07 375.332L1361.99 379.634C1361.28 380.134 1360.44 380.402 1359.57 380.402C1358.54 380.402 1357.54 380.017 1356.77 379.32L1348.95 372.234L1347.37 370.353C1345.33 367.917 1343.91 365.029 1343.21 361.928L1343.12 361.525C1341.87 355.978 1343.05 350.162 1346.37 345.542L1357.96 329.384L1357.09 336.633C1356.91 338.117 1356.9 339.616 1357.05 341.102L1357.64 346.672C1357.85 348.707 1358.38 350.697 1359.2 352.572L1359.48 353.202C1361.14 356.995 1366.43 357.226 1368.41 353.593Z" fill="#FFF28C"/>
<path d="M1016.41 30.5932L1025.54 13.8738L1027.03 23.0378L1027.33 26.7428L1027.33 29.4813C1027.33 30.8925 1027.18 32.2997 1026.88 33.6792L1026.16 37.0472L1025.86 38.4039C1025.09 41.8378 1023.43 45.0075 1021.04 47.5907L1019.18 49.5964C1018.24 50.6142 1017.2 51.5309 1016.07 52.3318L1009.99 56.6347C1009.28 57.1343 1008.44 57.4025 1007.57 57.4025C1006.54 57.4025 1005.54 57.0169 1004.77 56.3205L996.951 49.2347L995.375 47.3535C993.334 44.9176 991.906 42.029 991.209 38.9286L991.118 38.5253C989.871 32.9778 991.054 27.1618 994.369 22.5422L1005.96 6.38383L1005.09 13.6334C1004.91 15.1171 1004.9 16.6162 1005.05 18.1024L1005.64 23.6719C1005.85 25.707 1006.38 27.697 1007.2 29.5718L1007.48 30.2026C1009.14 33.995 1014.43 34.2263 1016.41 30.5932Z" fill="#FFF28C"/>
<path d="M158.327 504.593L149.2 487.874L147.706 497.038L147.407 500.743L147.407 503.481C147.407 504.892 147.557 506.299 147.854 507.679L148.58 511.047L148.883 512.404C149.649 515.838 151.311 519.007 153.699 521.59L155.554 523.596C156.495 524.614 157.54 525.531 158.671 526.332L164.75 530.634C165.456 531.134 166.299 531.402 167.164 531.402C168.2 531.402 169.2 531.017 169.969 530.32L177.788 523.234L179.364 521.353C181.404 518.917 182.833 516.029 183.53 512.928L183.62 512.525C184.867 506.978 183.684 501.162 180.369 496.542L168.775 480.384L169.649 487.633C169.828 489.117 169.84 490.616 169.683 492.102L169.098 497.672C168.884 499.707 168.357 501.697 167.537 503.572L167.262 504.202C165.603 507.995 160.31 508.226 158.327 504.593Z" fill="#FFF28C"/>
<path d="M506.455 1286.19L437.461 1137.85L421.706 1206.39L417.642 1234.25C416.068 1258.67 417.095 1283.2 420.704 1307.41L421.493 1312.7C426.677 1345.84 440.546 1377.02 461.688 1403.06L464.447 1406.46C473.488 1417.59 483.667 1427.76 494.818 1436.78L505.549 1445.46C529.484 1464.83 557.788 1478.06 588 1484L804.634 1516.89L715.85 1422.93C690.195 1395.78 680.888 1357.05 691.406 1321.2C699.848 1292.43 695.595 1261.43 679.717 1235.99L589.058 1090.77L591.143 1128.15C592.434 1151.31 591.116 1174.54 587.212 1197.41C581.867 1228.72 571.73 1259.02 557.157 1287.24C546.388 1308.09 516.354 1307.47 506.455 1286.19Z" fill="#FFF28C"/>
<path d="M1084.47 1268.67L1145.31 1137.86L1161.07 1206.4L1165.13 1234.25L1166.47 1254.95C1167.15 1265.62 1166.71 1276.33 1165.13 1286.9L1161.28 1312.71L1159.65 1323.11C1155.54 1349.44 1144.52 1374.2 1127.72 1394.89L1114.68 1410.95C1108.06 1419.11 1100.61 1426.54 1092.45 1433.15L1070.11 1451.23C1050.85 1466.81 1028.06 1477.41 1003.73 1482.1L826.659 1516.2L881.555 1445.07C889.852 1434.31 896.035 1422.09 899.775 1409.03C905.379 1389.47 905.312 1368.72 899.584 1349.2L896.476 1338.61C884.785 1298.77 890.675 1255.83 912.663 1220.61L993.717 1090.78L990.637 1146C990.007 1157.3 990.65 1168.64 992.555 1179.79L999.693 1221.6C1002.3 1236.88 1007.25 1251.67 1014.36 1265.44L1016.75 1270.07C1031.13 1297.93 1071.25 1297.1 1084.47 1268.67Z" fill="#FFF28C"/>
<path d="M846.913 1291.68L913.89 1141.45L931.052 1223.03L935.556 1255.84L935.7 1258.06C937.449 1285.06 936.541 1312.17 932.988 1339L932.067 1345.94L931.593 1349.34C926.678 1384.59 912.11 1417.79 889.502 1445.27C878.622 1458.49 869.551 1473.11 862.528 1488.72L860.386 1493.49L858.303 1498.7C856.97 1502.03 854.657 1504.88 851.671 1506.87C850.601 1507.58 849.457 1508.18 848.259 1508.64L837.672 1512.76C829.074 1516.38 819.745 1517.93 810.438 1517.29L804.633 1516.89C790.215 1514.84 776.859 1508.15 766.593 1497.82L705.777 1436.64L690.728 1417.39C673.885 1395.85 661.593 1371.11 654.595 1344.67C640.455 1291.25 648.821 1234.37 677.744 1187.29L753.293 1064.29L751.454 1105.24C750.202 1133.12 751.78 1161.06 756.164 1188.63L756.633 1191.58C762.129 1226.14 772.169 1259.82 786.491 1291.74C798.198 1317.84 835.265 1317.8 846.913 1291.68Z" fill="#FFF28C"/>
</svg>
