<svg width="1889" height="2137" viewBox="0 0 1889 2137" fill="none" xmlns="http://www.w3.org/2000/svg">
<path fill-rule="evenodd" clip-rule="evenodd" d="M1169.46 0L1193.45 62.896C1204.82 92.7016 1211.36 124.129 1212.82 155.995L1214.72 197.077C1215.89 222.613 1213.8 248.194 1208.49 273.199L1198.85 318.57L1177.65 380.248C1172.2 396.108 1165.43 411.484 1157.41 426.213L1088.48 552.795L1067.58 591.213L1046.68 629.631L1026.43 681.062L1006.19 732.492L987.574 791.358L968.961 850.225L955.572 916.526L942.183 982.828L935.326 1041.08L928.468 1099.32L923.244 1230.69V1300.09L928.468 1369.49L933.693 1426.49L926.559 1619.39C924.396 1677.88 905.168 1734.47 871.245 1782.17L727 1985H1012.72H1044H1088.48H1137.46H1185.14H1233.47H1288.33H1317.73H1341.23H1390.31H1406.54H1437.24H1482.92H1529.22H1581.78H1632.46H1695.03C1720.66 1985 1742.18 1965.69 1744.95 1940.21L1761.33 1789.56C1763.83 1766.5 1769.99 1743.98 1779.56 1722.85L1801.4 1674.6L1835.19 1597.57L1853.33 1532.94L1868.98 1471.41L1876.17 1413.5L1883.37 1355.59L1889 1260.46L1883.37 1162.22L1873.67 1101.73L1863.97 1041.23L1850.83 982.29L1837.69 923.347L1819.55 860.268L1797.02 799.258L1775.12 750.139L1753.22 701.02V923.347L1744.1 1003.06C1741.43 1026.36 1736.04 1049.27 1728.04 1071.31L1695.03 1162.22L1708.17 1041.23V923.347L1701.6 827.695L1697.34 765.606C1695.81 743.3 1691.78 721.236 1685.35 699.824L1671.88 655.004L1648.73 577.965L1623.7 509.458L1610.56 479.211L1596.78 447.493C1588.5 428.417 1577.4 410.688 1563.86 394.897C1545.75 373.765 1523.58 356.475 1498.68 344.048L1467.9 328.692L1485.43 368.725C1499.91 401.782 1508.3 437.179 1510.2 473.216L1510.62 481.176C1511.8 503.475 1510.49 525.814 1506.72 547.779L1490.14 505.083L1467.28 446.216V664.3C1463.02 672.809 1458.36 681.116 1453.31 689.192L1420.25 742.067V712.664L1413.4 598.029L1408.3 512.873C1407.13 493.268 1404.03 473.826 1399.06 454.827L1382.37 391.068L1358.21 298.741L1332.09 216.638L1318.37 180.389L1302.88 139.453C1294.96 118.515 1284.14 98.7886 1270.75 80.8495C1251.11 54.5428 1226.28 32.5487 1197.79 16.2296L1169.46 0Z" fill="#EF4905"/>
<path fill-rule="evenodd" clip-rule="evenodd" d="M719.537 131L697.764 184.325C684.942 215.728 677.539 249.078 675.868 282.956L674.542 309.861C673.196 337.155 675.586 364.504 681.645 391.15L690.148 428.546L710.436 483.679C716.492 500.137 723.979 516.032 732.812 531.182L800.522 647.314L821.421 683.196L842.32 719.079L862.566 767.115L882.813 815.151L901.426 870.133L920.039 925.114L933.428 987.04L946.817 1048.97L953.674 1103.37L960.532 1157.77L965.756 1280.47V1345.29L960.532 1410.11L955.307 1463.35L962.012 1632.69C964.449 1694.24 985.774 1753.55 1023.09 1802.56L1162 1985H876.282L845 1985L800.522 1985H751.539H703.863H655.533H600.673L571.267 1985L547.772 1985L498.686 1985L482.461 1985C482.423 1985 482.386 1985 482.348 1985H451.758H406.082H359.78H307.221H256.539H193.968C168.287 1985 146.678 1965.76 143.71 1940.25L127.89 1804.31C125.242 1781.56 118.786 1759.41 108.792 1738.8L87.5985 1695.09L63.2002 1643.13C56.9489 1629.82 51.685 1616.06 47.4511 1601.98L35.6651 1562.77L20.0225 1505.3L12.827 1451.22L5.63129 1397.13L0 1308.27L5.63129 1216.52L15.3297 1160.02L25.0281 1103.52L38.1679 1048.46L51.3077 993.411L69.4531 934.495L91.9785 877.511L113.878 831.634L135.778 785.757V993.411L144.354 1063.39C147.385 1088.11 153.482 1112.36 162.507 1135.58L193.968 1216.52L180.828 1103.52V993.411L187.398 904.071L191.339 850.486C193.085 826.734 197.654 803.275 204.949 780.604L217.119 742.777L240.27 670.822L265.298 606.836L278.438 578.585L291.641 550.199C300.307 531.567 311.789 514.379 325.684 499.239C343.444 479.888 364.836 464.219 388.644 453.125L421.099 438L405.001 472.337C389.596 505.198 380.625 540.704 378.574 576.939C377.335 598.824 378.633 620.753 382.425 642.292L398.865 602.75L421.723 547.768V751.204C426.393 759.943 431.496 768.45 437.014 776.693L468.746 824.094V796.631L475.604 689.562L480.448 613.932C481.786 593.031 485.31 572.326 490.962 552.159L506.626 496.26L530.791 410.026L556.915 333.341L570.63 299.484L585.591 262.553C593.86 242.139 605.045 223.032 618.798 205.827C638.08 181.704 662.064 161.752 689.293 147.183L719.537 131Z" fill="#EF4905"/>
<path d="M815.615 596.037L827.154 497L797.731 546.518L774.561 585.512C770.408 592.503 767.122 599.974 764.778 607.76L752.154 649.682L744.077 676.505L728.692 737.256L714.462 805.574L701.843 866.151C700.77 871.303 700.105 876.531 699.855 881.788L696.192 958.714L692.154 1043.54V1148.08L700.231 1255.37L674.585 1153.46C673.223 1148.05 672.317 1142.53 671.875 1136.96L664.462 1043.54V846.38L651 889.938L637.538 933.496L623.692 987.6L612.538 1043.54L604.462 1095.81L596.385 1148.08L590.423 1201.72L584.462 1255.37L581 1342.48L584.462 1426.85L588.885 1478.2L593.308 1529.55L602.923 1584.11L614.077 1641.43L634.846 1709.74L653.71 1769.84C655.999 1777.13 657.444 1784.66 658.018 1792.28L672.538 1985H700.231H738.692H769.846H802.154H830.615H858.692H887.538H932.154L1011 1978.89L984.846 1780.81L978.692 1571.73L981.769 1529.55L984.846 1478.2V1426.85L981.769 1329.64L977.731 1286.54L973.692 1243.45L965.808 1194.39L957.923 1145.33L946.962 1101.77L936 1058.21L924.077 1020.15L912.154 982.098L899.846 953.67L887.538 925.243L842.674 821.726C840.791 817.382 839.219 812.91 837.97 808.344L822.538 751.928L813.86 700.585C812.726 693.872 812.279 687.06 812.529 680.257L815.615 596.037Z" fill="#FF9700"/>
<path d="M1018.79 474.709L996.07 375L1058.34 428.578L1108.06 471.364C1116.37 478.511 1123.44 486.974 1129 496.416L1154.79 540.2L1171.88 569.222L1204.44 634.955L1234.56 708.873L1259.09 769.078C1262.79 778.171 1265.14 787.76 1266.05 797.537L1273.22 874.57L1281.77 966.348V1072.14C1281.77 1077.01 1281.41 1081.88 1280.7 1086.7L1264.67 1195.54L1316.53 1090.2C1321 1081.11 1324.07 1071.39 1325.62 1061.37L1339.19 973.97C1339.98 968.896 1340.37 963.769 1340.37 958.634V753.026L1368.86 800.155L1397.35 847.284L1426.65 905.824L1450.26 966.348L1467.35 1022.9L1484.44 1079.46L1497.06 1137.5L1509.67 1195.54L1516.39 1281.93C1516.8 1287.17 1516.79 1292.44 1516.37 1297.68L1509.67 1381.08L1500.31 1436.65L1492.33 1484.05C1491.41 1489.48 1490.05 1494.83 1488.26 1500.03L1470.6 1551.25L1450.08 1605.17C1448.03 1610.55 1445.52 1615.75 1442.57 1620.7L1403.05 1687.18L1366.56 1746.61C1359.49 1758.13 1354.82 1770.97 1352.85 1784.35L1323.28 1985H1264.67H1183.28H1117.35H1048.98H988.744H929.326H868.279H773.86L607 1978.39L659.9 1773.55C661.529 1767.25 662.537 1760.8 662.912 1754.29L674.798 1547.83C675.18 1541.19 674.899 1534.54 673.961 1527.96L668.86 1492.21L662.349 1436.65V1381.08L668.86 1275.91L677.407 1229.28L685.953 1182.65L702.64 1129.56L717.03 1083.79C718.558 1078.92 720.456 1074.18 722.707 1069.61L742.523 1029.35L765.721 982.223L790.953 941.047L812.185 906.4C814.848 902.054 817.841 897.917 821.135 894.026L842.233 869.113L868.279 838.355L962.333 727.403C966.904 722.01 970.891 716.148 974.226 709.914L1001.77 658.431C1004.48 653.373 1006.74 648.092 1008.54 642.645L1021.6 603.147C1025.7 590.738 1027.33 577.645 1026.4 564.609L1021.03 489.777C1020.67 484.704 1019.92 479.667 1018.79 474.709Z" fill="#FFA624"/>
<path d="M704.13 547.42L706.702 519.98C709.102 494.383 714.782 469.2 723.603 445.051L745.734 384.462L792.429 257L751.337 308.168C734.637 328.963 720.785 351.892 710.146 376.349L687.586 428.212L675.437 452.191C665.592 471.622 657.893 492.068 652.476 513.167L645.825 539.072L638.424 567.895L624.327 633.179L611.288 706.592L598.249 780.006L594.548 871.156L590.848 962.307V1074.64L598.249 1189.94L577.409 1092.82C574.39 1078.75 572.387 1064.48 571.416 1050.13L565.474 962.307V750.443L553.14 797.25L540.805 844.057L528.118 902.197L517.898 962.307L510.497 1018.48L503.097 1074.64L497.634 1132.29L492.172 1189.94L489 1283.55L492.172 1374.21L496.225 1429.39L500.277 1484.58L509.088 1543.21L519.308 1604.8L538.338 1678.21L551.099 1725.89C556.206 1744.97 559.416 1764.51 560.682 1784.22L572.875 1974H598.249H633.49H662.036H691.639H717.717H743.444H769.875H810.755L883 1967.43L859.036 1754.58L853.397 1529.91L856.216 1484.58L859.036 1429.39V1374.21L856.216 1269.76L852.516 1223.44L848.816 1177.13L841.591 1124.41L834.367 1071.69L824.323 1024.88L814.279 978.074L803.354 937.179L792.429 896.285L781.152 865.737L769.875 835.189L726.175 716.939L710.317 648.945L705.888 618.216C702.509 594.769 701.919 571.005 704.13 547.42Z" fill="#FF9700"/>
<path d="M459.042 534.169L472.71 497L452.99 508.716C431.901 521.245 413.621 537.986 399.289 557.894C389.744 571.153 382.063 585.66 376.464 601.009L365.076 632.224L355.162 659.397L336.279 720.943L318.812 790.153L308.325 831.706C303.682 850.103 300.795 868.899 299.702 887.841L296.388 945.296L291.431 1031.23V1137.13L301.345 1245.83L276.138 1163.15C270.297 1144 266.39 1124.3 264.473 1104.37L257.441 1031.23V831.494L240.919 875.621L224.396 919.749L207.401 974.559L193.711 1031.23L183.797 1084.18L173.883 1137.13L166.566 1191.48L159.249 1245.83L155 1334.08L159.249 1419.55L164.678 1471.57L170.107 1523.6L181.909 1578.87L195.599 1636.94L217.531 1727.09L223.615 1764.18C227.194 1785.99 233.174 1807.35 241.445 1827.85L249.708 1848.33C254.855 1861.09 261.052 1873.4 268.236 1885.13L276.808 1899.12C286.48 1914.92 298.877 1928.87 313.422 1940.33C324.095 1948.74 335.818 1955.73 348.294 1961.11L357.671 1965.16C370.531 1970.71 383.862 1975.1 397.505 1978.27L398.693 1978.55C417.135 1982.83 436.006 1985 454.94 1985H461.38H495.842H531.248H586.009H951L774.94 1863.73C696.768 1809.89 648.69 1722.22 645.307 1627.36L643.131 1566.33L646.908 1523.6L650.684 1471.57V1419.55L646.908 1321.08L641.951 1277.41L636.994 1233.75L627.316 1184.05L617.639 1134.35L604.184 1090.22L590.73 1046.09L576.096 1007.54L561.461 968.986L546.354 940.187L531.248 911.388L484.138 821.671C476.532 807.186 470.124 792.104 464.977 776.575L451.466 735.807L446.172 709.951C441.223 685.785 439.274 661.101 440.368 636.458L440.903 624.402C442.272 593.57 448.39 563.134 459.042 534.169Z" fill="#FE6323"/>
<path d="M1264.27 517.141L1245.31 500L1257.41 500C1287.64 500 1315.56 516.148 1330.64 542.347C1334 548.175 1336.64 554.382 1338.53 560.837L1351.85 606.5L1359.92 634.19L1375.31 696.906L1389.54 767.433L1402.25 830.444C1403.26 835.447 1403.89 840.519 1404.12 845.617L1407.81 925.525L1411.85 1013.09V1121.01L1403.77 1231.77L1429.53 1126.08C1430.82 1120.82 1431.67 1115.46 1432.09 1110.06L1439.54 1013.09V809.559L1453 854.526L1466.46 899.492L1480.31 955.345L1491.46 1013.09L1499.54 1067.05L1507.62 1121.01L1513.58 1176.39L1519.54 1231.77L1523 1321.7L1519.54 1408.8L1515.12 1461.81L1510.69 1514.82L1501.08 1571.15L1489.92 1630.32L1469.15 1700.84L1450.09 1763.53C1447.94 1770.63 1446.57 1777.94 1446.03 1785.34L1431.46 1985H1403.77H1365.31H1334.15H1301.85H1273.38H1245.31H1216.46H1171.85L1093 1978.69L1119.15 1774.21L1125.31 1558.37L1122.23 1514.82L1119.15 1461.81V1408.8L1122.23 1308.45L1126.27 1263.96L1130.31 1219.46L1138.19 1168.82L1146.08 1118.17L1157.04 1073.2L1168 1028.24L1179.92 988.952L1191.85 949.665L1204.15 920.319L1216.46 890.972L1264.15 777.373L1281.46 712.053L1291.85 648.626L1296.68 601.519C1299.93 569.837 1287.89 538.501 1264.27 517.141Z" fill="#FF9700"/>
<path d="M1426.96 534.169L1413.29 497L1433.01 508.716C1454.1 521.245 1472.38 537.986 1486.71 557.894C1496.26 571.153 1503.94 585.66 1509.54 601.009L1520.92 632.224L1530.84 659.397L1549.72 720.943L1567.19 790.153L1577.68 831.706C1582.32 850.103 1585.21 868.899 1586.3 887.841L1589.61 945.296L1594.57 1031.23V1137.13L1584.66 1245.83L1609.86 1163.15C1615.7 1144 1619.61 1124.3 1621.53 1104.37L1628.56 1031.23V831.494L1645.08 875.621L1661.6 919.749L1678.6 974.559L1692.29 1031.23L1702.2 1084.18L1712.12 1137.13L1719.43 1191.48L1726.75 1245.83L1731 1334.08L1726.75 1419.55L1721.32 1471.57L1715.89 1523.6L1704.09 1578.87L1690.4 1636.94L1668.47 1727.09L1662.38 1764.18C1658.81 1785.99 1652.83 1807.35 1644.56 1827.85L1636.29 1848.33C1631.15 1861.09 1624.95 1873.4 1617.76 1885.13L1609.19 1899.12C1599.52 1914.92 1587.12 1928.87 1572.58 1940.33C1561.9 1948.74 1550.18 1955.73 1537.71 1961.11L1528.33 1965.16C1515.47 1970.71 1502.14 1975.1 1488.49 1978.27L1487.31 1978.55C1468.87 1982.83 1449.99 1985 1431.06 1985H1424.62H1390.16H1354.75H1299.99H935L1111.06 1863.73C1189.23 1809.89 1237.31 1722.22 1240.69 1627.36L1242.87 1566.33L1239.09 1523.6L1235.32 1471.57V1419.55L1239.09 1321.08L1244.05 1277.41L1249.01 1233.75L1258.68 1184.05L1268.36 1134.35L1281.82 1090.22L1295.27 1046.09L1309.9 1007.54L1324.54 968.986L1339.65 940.187L1354.75 911.388L1401.86 821.671C1409.47 807.186 1415.88 792.104 1421.02 776.575L1434.53 735.807L1439.83 709.951C1444.78 685.785 1446.73 661.101 1445.63 636.458L1445.1 624.402C1443.73 593.57 1437.61 563.134 1426.96 534.169Z" fill="#FE6323"/>
<path d="M1251.15 910.006L1287.27 865.421L1224.16 878.522L1209.59 881.548C1177.46 888.218 1146.67 900.211 1118.49 917.03L1097.21 929.734L1053.79 960.581L1009.99 997.46C981.015 1021.86 956.517 1051.12 937.597 1083.94L934.189 1089.85L902.184 1145.36L885.564 1183.61C875.813 1206.04 868.075 1229.3 862.441 1253.11L852.067 1296.95L846.169 1252C841.782 1218.56 843.354 1184.61 850.812 1151.72C854.75 1134.35 860.305 1117.39 867.403 1101.06L915.717 989.887L880.591 1010.27L845.465 1030.65L806.553 1058.02L771.511 1088.57L742.616 1118.79L713.722 1149.02L687.888 1181.69L680.847 1190.6C668.339 1206.42 657.156 1223.24 647.409 1240.9C636.036 1261.5 626.668 1283.15 619.434 1305.54L610.751 1332.42L602.647 1370.92C597.258 1396.53 594.383 1422.61 594.064 1448.78L594.002 1453.85L594.185 1461.34C594.835 1487.89 598.044 1514.32 603.767 1540.25L608.812 1563.1L624.164 1627.94L637.781 1665.4C649.397 1697.35 664.914 1727.74 683.979 1755.89L685.557 1758.22C697.048 1775.18 709.786 1791.27 723.665 1806.35L733.917 1817.48L744.737 1829.23C758.11 1843.76 774.371 1855.33 792.478 1863.2C798.992 1866.03 805.709 1868.36 812.573 1870.19L822.903 1872.93C853.337 1881.01 884.906 1883.97 916.312 1881.68L937.096 1880.16C955.651 1878.81 974.048 1875.8 992.069 1871.18C1019.5 1864.14 1045.84 1853.42 1070.39 1839.3L1080.22 1833.64C1099.01 1822.83 1116.88 1810.49 1133.65 1796.76L1151.56 1782.09L1192.81 1740.73L1214.46 1713.36L1232.13 1686.52L1237.15 1678.36C1247.4 1661.72 1256.45 1644.37 1264.24 1626.45L1267.9 1618.01L1282.12 1577.13C1288.65 1558.34 1293.82 1539.1 1297.58 1519.56L1298.2 1516.35L1298.75 1513.48C1302.56 1493.72 1304.91 1473.71 1305.8 1453.6L1306.2 1444.4L1306.35 1441.1C1307.41 1417.08 1306.37 1393.02 1303.24 1369.19L1302.98 1367.2L1298.02 1329.4L1289.84 1294.7L1288.69 1289.84C1284.01 1269.98 1277.74 1250.51 1269.96 1231.65L1258.26 1203.3L1224.49 1121.56C1216.79 1102.93 1211.2 1083.49 1207.83 1063.62L1205.83 1051.83C1204.23 1042.38 1203.56 1032.8 1203.81 1023.22C1204.44 1000.02 1210.53 977.285 1221.61 956.88L1229.27 942.746C1235.55 931.185 1242.87 920.226 1251.15 910.006Z" fill="#FE6323"/>
<path d="M768.852 910.322L732.731 865.738L795.838 878.839L810.411 881.864C842.541 888.534 873.33 900.527 901.507 917.347L922.789 930.05L966.215 960.898L1010.01 997.777C1038.99 1022.18 1063.48 1051.44 1082.4 1084.26L1085.81 1090.17L1117.82 1145.68L1134.44 1183.92C1144.19 1206.36 1151.93 1229.62 1157.56 1253.42L1167.93 1297.26L1173.83 1252.31C1178.22 1218.87 1176.65 1184.92 1169.19 1152.03C1165.25 1134.67 1159.7 1117.71 1152.6 1101.37L1104.28 990.203L1139.41 1010.59L1174.54 1030.97L1213.45 1058.34L1248.49 1088.89L1277.39 1119.11L1306.28 1149.33L1332.11 1182.01L1339.15 1190.92C1351.66 1206.74 1362.85 1223.56 1372.59 1241.21C1383.97 1261.82 1393.33 1283.46 1400.57 1305.85L1409.25 1332.73L1417.35 1371.24C1422.74 1396.85 1425.62 1422.92 1425.94 1449.09L1426 1454.17L1425.82 1461.66C1425.17 1488.21 1421.96 1514.63 1416.23 1540.57L1411.19 1563.42L1395.84 1628.26L1382.22 1665.71C1370.6 1697.66 1355.09 1728.06 1336.02 1756.21L1334.44 1758.54C1322.95 1775.5 1310.22 1791.59 1296.34 1806.66L1286.08 1817.8L1275.26 1829.55C1261.89 1844.07 1245.63 1855.64 1227.52 1863.51C1221.01 1866.34 1214.29 1868.68 1207.43 1870.5L1197.1 1873.25C1166.66 1881.33 1135.1 1884.29 1103.69 1881.99L1082.91 1880.48C1064.35 1879.12 1045.95 1876.12 1027.93 1871.5C1000.5 1864.46 974.159 1853.74 949.616 1839.62L939.777 1833.95C920.988 1823.14 903.119 1810.81 886.348 1797.08L868.437 1782.41L827.194 1741.05L805.544 1713.68L787.874 1686.84L782.848 1678.67C772.603 1662.03 763.551 1644.68 755.762 1626.76L752.097 1618.33L737.881 1577.44C731.347 1558.65 726.179 1539.41 722.418 1519.87L721.801 1516.67L721.249 1513.8C717.444 1494.04 715.09 1474.03 714.204 1453.92L713.798 1444.72L713.652 1441.41C712.594 1417.4 713.634 1393.34 716.761 1369.51L717.022 1367.52L721.981 1329.72L730.165 1295.01L731.31 1290.16C735.995 1270.29 742.26 1250.83 750.045 1231.96L761.741 1203.61L795.514 1121.88C803.212 1103.25 808.798 1083.81 812.167 1063.94L814.166 1052.14C815.768 1042.7 816.445 1033.12 816.187 1023.54C815.563 1000.33 809.467 977.601 798.396 957.196L790.727 943.063C784.455 931.502 777.132 920.542 768.852 910.322Z" fill="#FE6323"/>
<path d="M797.659 420.205L766.075 345.348L840.248 387.369L855.029 395.743C894.35 418.02 929.699 446.673 959.632 480.533L982.237 506.104L1026.93 565.062L1070.34 632.459L1078.39 644.963C1101.81 681.332 1119.37 721.155 1130.43 762.976L1137.16 788.408L1160.57 876.961L1173.17 955.735C1176.59 977.128 1178.32 998.758 1178.35 1020.42L1178.45 1104.59L1200.03 1041.39C1214.38 999.369 1221.85 955.307 1222.16 910.902L1222.23 901.346C1222.39 878.529 1220.67 855.739 1217.06 833.208L1189.03 657.882L1226.51 699.285L1263.99 740.687L1304.12 793.141L1338.54 848.503L1365.47 901.073L1392.39 953.643L1414.82 1008.43L1425.76 1035.17C1433.41 1053.84 1439.67 1073.05 1444.51 1092.63L1451.34 1120.29C1456.94 1142.99 1460.61 1166.13 1462.3 1189.45L1466.34 1245.15L1465.16 1301.22L1464.75 1320.85C1464.24 1345.09 1461.6 1369.24 1456.85 1393.02L1451.75 1418.61L1445.08 1447.01C1439.4 1471.22 1431.54 1494.87 1421.6 1517.67L1401.7 1563.31L1363.89 1646.69L1327.29 1707.93C1309.56 1737.59 1288.17 1764.91 1263.64 1789.25L1244.72 1808.02C1229.22 1823.39 1212.53 1837.51 1194.81 1850.24L1173.19 1865.76L1155.63 1878.38C1135.45 1892.87 1112.18 1902.46 1087.65 1906.38C1078.71 1907.81 1069.67 1908.48 1060.63 1908.38L1046.65 1908.22C1007.07 1907.78 967.899 1900.08 931.089 1885.51L905.786 1875.5C882.013 1866.09 859.169 1854.48 837.551 1840.83C806.396 1821.16 778.026 1797.4 753.201 1770.17L731.943 1746.85C717.61 1731.13 704.514 1714.33 692.77 1696.59L667.399 1658.27L628.457 1585.67L609.657 1539.79L595.622 1496.13L580.032 1442.75L571.32 1388.26L561.708 1284.03L563.424 1236.86L565.139 1189.69L574.441 1134.82L578.174 1112.81C581.881 1090.94 587.344 1069.41 594.509 1048.41L600.857 1029.82L617.971 979.687L638.167 935.049L645.053 919.831C653.913 900.247 664.289 881.385 676.086 863.416L681.054 855.85L703.743 821.29L768.147 723.304C783.793 699.499 796.805 674.065 806.954 647.448L812.183 633.732C817.145 620.719 820.92 607.285 823.462 593.592C829.375 561.737 828.523 528.994 820.959 497.49L815.281 473.84C810.881 455.511 804.987 437.573 797.659 420.205Z" fill="#FE6323"/>
<path d="M1375.82 942.926L1385.21 875.798L1420.41 933.707L1442.96 970.8C1451.33 984.58 1457.35 999.663 1460.75 1015.43L1466.61 1042.56L1472.11 1068.03L1479.55 1123.54L1482.62 1183.66L1484.39 1218.38C1485.25 1235.19 1483.17 1252.02 1478.24 1268.11L1465.97 1308.21L1446.26 1372.63L1418.51 1436.48C1415.1 1444.34 1410.99 1451.89 1406.23 1459.02L1365.69 1519.9L1427.06 1476.05C1440.97 1466.11 1453.01 1453.78 1462.62 1439.64L1486.42 1404.63C1491.5 1397.16 1495.86 1389.23 1499.46 1380.96L1556.07 1250.7L1565.6 1292.32L1575.13 1333.95L1582 1383.49L1583.65 1432.34L1581.15 1476.23L1578.65 1520.12L1572.06 1563.42L1567.27 1594.92C1566.07 1602.78 1564.24 1610.52 1561.77 1618.07L1548.37 1659.13C1545.49 1667.94 1541.78 1676.45 1537.27 1684.55L1511.53 1730.84L1487.75 1764.69L1472.11 1786.95C1466.69 1794.66 1460.53 1801.83 1453.72 1808.34L1430.2 1830.83L1403.39 1854.65C1396.43 1860.83 1388.89 1866.33 1380.88 1871.06L1335.59 1897.82L1274.74 1932.53L1203.16 1962.97C1192.2 1967.64 1180.7 1970.93 1168.93 1972.77L1109.24 1982.13C1102.15 1983.24 1094.98 1983.83 1087.8 1983.88L1050.31 1984.13L1032.63 1984.25C1012.45 1984.38 992.472 1980.3 973.966 1972.26L897.882 1939.19C889.263 1935.44 881.028 1930.87 873.296 1925.52L801.807 1876.13L768.167 1848.71C754.047 1837.19 745.9 1819.91 746.008 1801.69C746.032 1797.57 745.633 1793.45 744.815 1789.4L744.421 1787.45C739.66 1763.91 745.924 1739.33 761.248 1720.84C774.315 1705.07 780.961 1684.77 779.636 1664.33L777.909 1637.7L780.121 1576.32L785.627 1540.05L793.586 1507.21L801.705 1477.65C803.519 1471.04 805.8 1464.58 808.53 1458.3L820.583 1430.56L851.584 1371.78C854.837 1365.61 858.531 1359.68 862.638 1354.05L876.996 1334.34L891.283 1314.74C895.437 1309.04 900.003 1303.65 904.942 1298.62L926.562 1276.58L946.734 1256.02C952.634 1250.01 959.048 1244.52 965.902 1239.62L988.219 1223.68L1020.84 1200.37L1053.38 1181.77L1075.88 1168.91C1082.57 1165.09 1089.56 1161.8 1096.77 1159.09L1116.11 1151.82L1146.29 1140.48L1247.98 1102.31C1258.1 1098.51 1267.77 1093.59 1276.8 1087.64L1301.18 1071.56C1309.03 1066.39 1316.36 1060.45 1323.06 1053.85L1325.53 1051.43C1341.77 1035.43 1354 1015.83 1361.23 994.215L1369.74 968.785C1372.55 960.37 1374.59 951.713 1375.82 942.926Z" fill="#FE6323"/>
<path d="M643.152 935.864L634.791 876.115L599.592 934.023L591.464 947.396C573.543 976.879 560.674 1009.15 553.391 1042.88L547.89 1068.35L540.45 1123.86L537.382 1183.98C535.352 1223.76 540.275 1263.58 551.928 1301.67L554.027 1308.53L573.74 1372.95L591.968 1414.89C601.719 1437.33 613.445 1458.86 627.006 1479.22L654.312 1520.22L615.527 1492.5C586.676 1471.89 561.705 1446.32 541.773 1417C531.248 1401.51 522.195 1385.08 514.732 1367.9L463.933 1251.01L454.404 1292.64L444.874 1334.26L437.999 1383.81L436.346 1432.66L438.85 1476.55L441.353 1520.44L447.94 1563.74L449.735 1575.54C452.924 1596.51 457.834 1617.17 464.413 1637.33C472.091 1660.85 482.011 1683.58 494.035 1705.2L508.468 1731.16L532.255 1765.01L532.79 1765.77C548.254 1787.78 565.83 1808.22 585.27 1826.81L589.798 1831.14L597.225 1837.74C617.079 1855.38 638.587 1871.06 661.451 1884.57L684.406 1898.13L745.258 1932.84L748.471 1934.52C775.321 1948.56 803.634 1959.6 832.9 1967.45L855.634 1973.54L890.221 1979.1C910.988 1982.44 931.98 1984.19 953.013 1984.33L969.693 1984.44C1007.47 1984.23 1044.75 1975.87 1079.01 1959.95L1104.81 1947.95C1124.95 1938.58 1144.27 1927.53 1162.54 1914.9L1218.19 1876.45L1251.83 1849.02C1265.95 1837.51 1274.1 1820.22 1273.99 1802.01C1273.97 1797.88 1274.37 1793.76 1275.19 1789.72L1275.58 1787.77C1280.34 1764.23 1274.08 1739.65 1258.75 1721.15C1245.69 1705.38 1239.04 1685.09 1240.37 1664.65L1242.09 1638.01L1239.88 1576.63L1234.37 1540.36L1226.41 1507.52L1223.35 1496.35C1218.17 1477.5 1211.66 1459.05 1203.87 1441.13L1199.42 1430.88L1177.47 1389.26C1168.19 1371.66 1157.65 1354.76 1145.93 1338.68L1143 1334.66L1140.28 1330.92C1128.43 1314.66 1115.4 1299.28 1101.31 1284.92L1093.44 1276.9L1089.7 1273.09C1072.87 1255.93 1054.57 1240.27 1035.01 1226.3L1031.78 1223.99L999.164 1200.69L966.617 1182.09L962.064 1179.48C943.431 1168.83 923.978 1159.69 903.889 1152.14L873.707 1140.79L786.648 1108.12C766.804 1100.67 747.858 1091.02 730.163 1079.36L719.663 1072.43C711.253 1066.89 703.403 1060.54 696.225 1053.47C678.834 1036.34 665.734 1015.35 657.991 992.2L652.627 976.166C648.24 963.051 645.068 949.56 643.152 935.864Z" fill="#FE6323"/>
<path d="M945.39 1187.28L935.02 1149.95L986.3 1186.14C998.83 1194.99 1009.79 1205.87 1018.74 1218.32L1037.38 1244.28C1041.63 1250.21 1045.41 1256.47 1048.68 1263L1075.54 1316.73C1082.76 1331.16 1087.38 1346.74 1089.2 1362.77L1096.08 1423.43V1474.37L1086.45 1545.04L1137.84 1474.37L1158.83 1439.99C1162.58 1433.86 1165.83 1427.44 1168.58 1420.8L1202.54 1338.54L1214.01 1378.46L1222.21 1413.39C1223.78 1420.08 1224.85 1426.87 1225.4 1433.72L1228.7 1474.37V1528.52V1573.03L1224.57 1615.24L1216.73 1653.43C1214.92 1662.21 1212.27 1670.8 1208.79 1679.07L1202.54 1693.94L1194.84 1710.55C1191.11 1718.58 1186.62 1726.23 1181.42 1733.4L1164.46 1756.81L1137.84 1792.37L1107.82 1824.04C1100.03 1832.26 1091.24 1839.49 1081.68 1845.56L1057.02 1861.21C1051.26 1864.87 1045.23 1868.09 1038.98 1870.86L1020.37 1879.09L1010.63 1883.41C998.596 1888.73 985.579 1891.48 972.417 1891.48C967.683 1891.48 962.955 1891.13 958.273 1890.42L942.712 1888.06C927.594 1885.77 912.964 1880.98 899.421 1873.88L873.871 1860.49C866.622 1856.69 859.727 1852.25 853.267 1847.22L840.624 1837.39C830.792 1829.74 822.044 1820.8 814.618 1810.8L798.139 1788.6C793.649 1782.56 789.663 1776.15 786.22 1769.45L774.414 1746.48L760.189 1710.23L754.224 1687.74L750.553 1666.64L748.265 1650.62C747.344 1644.18 746.882 1637.67 746.882 1631.16V1615.24L749.803 1576.54C750.302 1569.92 751.279 1563.35 752.725 1556.88L755.371 1545.04L757.992 1533.3C759.455 1526.76 761.394 1520.32 763.794 1514.06L769.596 1498.92L774.694 1485.61C777.561 1478.13 781.076 1470.91 785.198 1464.04L792.081 1452.57L805.159 1430.78L819.384 1411.73L827.016 1401.52C831.404 1395.64 836.254 1390.13 841.521 1385.03L848.293 1378.46L862.977 1364.24L908.756 1319.94C916.147 1312.78 922.712 1304.83 928.33 1296.21L935.28 1285.56C938.769 1280.21 941.728 1274.53 944.116 1268.6C949.901 1254.25 952.213 1238.73 950.866 1223.31L949.89 1212.14C949.155 1203.73 947.649 1195.41 945.39 1187.28Z" fill="#FFA624"/>
<path d="M1289.11 791.812L1276.21 734.141L1300.26 755.223C1343.19 792.86 1379.67 837.274 1408.24 886.702L1413.89 896.471L1439.25 959.449C1458.26 1006.67 1470.27 1056.42 1474.9 1107.12L1480.12 1164.14V1244.22L1467.92 1355.33L1532.98 1244.22C1555.26 1198.89 1569.29 1149.95 1574.4 1099.7L1582 1025L1588.43 1034.29C1615.45 1073.28 1633.96 1117.52 1642.77 1164.14L1648 1244.22V1329.35V1399.34L1642.77 1465.71L1636.35 1504.55C1631.73 1532.48 1624.85 1559.99 1615.78 1586.81L1614.89 1589.44L1613.7 1592.62C1603.28 1620.51 1590.5 1647.46 1575.49 1673.18L1566.67 1688.28L1532.98 1744.2L1508.34 1776.49C1489.6 1801.04 1467.84 1823.13 1443.58 1842.25C1427.69 1854.78 1410.79 1865.98 1393.05 1875.73L1384.26 1880.56L1370.86 1887.93C1356.41 1895.87 1340.18 1900.04 1323.69 1900.04C1317.61 1900.04 1311.55 1899.47 1305.58 1898.35L1296.14 1896.57C1270.33 1891.71 1245.72 1881.84 1223.7 1867.51L1208 1857.28C1192.71 1847.33 1178.4 1835.94 1165.28 1823.26C1147.14 1805.74 1131.4 1785.9 1118.46 1764.26L1109.91 1749.95C1099.57 1732.67 1090.52 1714.66 1082.83 1696.05L1072.89 1672.05L1054.89 1615.06L1047.33 1579.7L1042.69 1546.52L1038.04 1506.11V1465.71L1042.69 1389.24L1048.79 1355.33L1054.89 1321.42L1066.79 1282.82L1067.48 1280.59C1074.95 1256.38 1084.24 1232.76 1095.26 1209.95L1111.82 1175.68L1129.82 1145.74L1132.84 1140.72C1142.82 1124.13 1154.05 1108.32 1166.42 1093.43L1185.01 1071.07L1237.13 1008.43C1250.37 992.513 1261.9 975.251 1271.52 956.923L1275.99 948.408C1280.78 939.292 1284.78 929.786 1287.96 919.992C1295.17 897.786 1298.03 874.4 1296.39 851.111L1295.1 832.756C1294.13 818.978 1292.13 805.291 1289.11 791.812Z" fill="#FFA624"/>
<path d="M717.956 811.906L753.101 708L718.358 725.169C687.719 740.311 659.883 760.561 636.045 785.051C618.686 802.886 603.606 822.805 591.152 844.353L561.109 896.33L535.747 959.335C516.74 1006.55 504.73 1056.3 500.098 1106.98L494.884 1164.03V1244.13L507.084 1355.25L442.021 1244.13L408.328 1175.58L360.112 1030.54L345.589 1093.32L332.228 1164.03L327 1244.13V1329.27V1399.27L332.228 1465.65L338.652 1504.51C343.269 1532.43 350.147 1559.94 359.217 1586.75L360.112 1589.4L361.303 1592.59C371.721 1620.48 384.502 1647.43 399.507 1673.14L408.328 1688.26L442.021 1744.18L466.665 1776.47C485.403 1801.02 507.158 1823.12 531.415 1842.24C547.311 1854.77 564.213 1865.97 581.95 1875.72L590.735 1880.55L604.14 1887.92C618.593 1895.87 634.819 1900.04 651.312 1900.04C657.387 1900.04 663.45 1899.47 669.421 1898.35L678.856 1896.57C704.672 1891.71 729.283 1881.84 751.297 1867.5L767.001 1857.28C782.291 1847.32 796.595 1835.93 809.717 1823.25C827.855 1805.73 843.599 1785.89 856.539 1764.24L865.093 1749.93C875.425 1732.65 884.476 1714.63 892.173 1696.03L902.106 1672.02L920.114 1615.02L927.666 1579.66L932.313 1546.47L936.96 1506.06V1465.65L932.313 1389.16L926.214 1355.25L920.114 1321.34L908.205 1282.73L907.517 1280.5C900.047 1256.29 890.762 1232.67 879.74 1209.85L863.184 1175.58L845.176 1145.63L842.157 1140.61C832.178 1124.02 820.953 1108.21 808.578 1093.32L789.989 1070.95L753.101 1011.06L721.088 967.746C710.035 952.791 702.423 935.579 698.794 917.341C694.231 894.405 696.128 870.652 704.273 848.731L717.956 811.906Z" fill="#FFA624"/>
<path d="M1101.36 811.906L1136.5 708L1101.76 725.169C1071.12 740.311 1043.29 760.561 1019.45 785.051C1002.09 802.886 987.009 822.805 974.554 844.353L944.511 896.33L919.15 959.335C900.143 1006.55 888.133 1056.3 883.501 1106.98L878.287 1164.03V1244.13L890.486 1355.25L825.424 1244.13L791.731 1175.58L743.515 1030.54L728.992 1093.32L715.631 1164.03L710.403 1244.13V1329.27V1399.27L715.631 1465.65L722.055 1504.51C726.672 1532.43 733.55 1559.94 742.62 1586.75L743.515 1589.4L752.26 1612.81C757.651 1627.24 764.265 1641.19 772.03 1654.5C785.096 1676.89 794.876 1701.04 801.071 1726.21L808.627 1756.92C815.108 1783.26 826.945 1807.98 843.401 1829.54L848.283 1835.94C863.436 1855.8 882.95 1871.9 905.318 1883.02L915.383 1888.02C931.294 1895.92 948.819 1900.04 966.586 1900.04H1009.57H1025.11C1037.58 1900.04 1050.01 1898.88 1062.26 1896.57C1088.07 1891.71 1112.69 1881.84 1134.7 1867.5L1150.4 1857.28C1165.69 1847.32 1180 1835.93 1193.12 1823.25C1211.26 1805.73 1227 1785.89 1239.94 1764.24L1248.5 1749.93C1258.83 1732.65 1267.88 1714.63 1275.58 1696.03L1285.51 1672.02L1303.52 1615.02L1311.07 1579.66L1315.72 1546.47L1320.36 1506.06V1465.65L1315.72 1389.16L1309.62 1355.25L1303.52 1321.34L1291.61 1282.73L1290.92 1280.5C1283.45 1256.29 1274.16 1232.67 1263.14 1209.85L1246.59 1175.58L1228.58 1145.63L1225.56 1140.61C1215.58 1124.02 1204.36 1108.21 1191.98 1093.32L1173.39 1070.95L1136.5 1011.06L1104.49 967.746C1093.44 952.791 1085.83 935.579 1082.2 917.341C1077.63 894.405 1079.53 870.652 1087.68 848.731L1101.36 811.906Z" fill="#FF9700"/>
<path d="M633.187 612.731L626.793 594.787L634.624 599.776L637.587 602.02L639.63 603.844C640.682 604.784 641.632 605.833 642.463 606.973L644.492 609.758L645.303 610.887C647.354 613.746 648.612 617.096 648.948 620.598L649.209 623.318C649.342 624.698 649.33 626.087 649.174 627.465L648.335 634.865C648.238 635.724 647.877 636.532 647.301 637.177C646.61 637.95 645.657 638.439 644.625 638.549L634.132 639.662L631.679 639.585C628.503 639.485 625.397 638.627 622.62 637.082L622.259 636.881C617.29 634.117 613.74 629.361 612.501 623.812L608.169 604.401L612.995 609.882C613.982 611.003 615.093 612.01 616.306 612.883L620.851 616.156C622.511 617.351 624.346 618.284 626.291 618.921L626.945 619.135C630.879 620.424 634.576 616.63 633.187 612.731Z" fill="#FFF28C"/>
<path d="M1154.8 229.591L1146.57 214.505L1145.22 222.774L1144.95 226.117L1144.95 228.588C1144.95 229.862 1145.08 231.131 1145.35 232.376L1146.01 235.415L1146.28 236.639C1146.97 239.738 1148.47 242.598 1150.63 244.929L1152.3 246.739C1153.15 247.657 1154.09 248.484 1155.11 249.207L1160.6 253.09C1161.24 253.54 1162 253.782 1162.78 253.782C1163.71 253.782 1164.61 253.434 1165.31 252.806L1172.36 246.412L1173.79 244.715C1175.63 242.517 1176.92 239.91 1177.54 237.113L1177.63 236.749C1178.75 231.743 1177.68 226.495 1174.69 222.327L1164.23 207.747L1165.02 214.288C1165.18 215.627 1165.19 216.98 1165.05 218.321L1164.52 223.346C1164.33 225.182 1163.85 226.978 1163.11 228.67L1162.87 229.239C1161.37 232.661 1156.59 232.87 1154.8 229.591Z" fill="#FFF28C"/>
<path d="M1578.41 789.593L1587.54 772.874L1589.03 782.038L1589.33 785.743L1589.33 788.481C1589.33 789.892 1589.18 791.299 1588.88 792.679L1588.16 796.047L1587.86 797.404C1587.09 800.838 1585.43 804.007 1583.04 806.59L1581.18 808.596C1580.24 809.614 1579.2 810.531 1578.07 811.332L1571.99 815.634C1571.28 816.134 1570.44 816.402 1569.57 816.402C1568.54 816.402 1567.54 816.017 1566.77 815.32L1558.95 808.234L1557.37 806.353C1555.33 803.917 1553.91 801.029 1553.21 797.928L1553.12 797.525C1551.87 791.978 1553.05 786.162 1556.37 781.542L1567.96 765.384L1567.09 772.633C1566.91 774.117 1566.9 775.616 1567.05 777.102L1567.64 782.672C1567.85 784.707 1568.38 786.697 1569.2 788.572L1569.48 789.202C1571.14 792.995 1576.43 793.226 1578.41 789.593Z" fill="#FFF28C"/>
<path d="M448.411 617.593L457.538 600.874L459.032 610.038L459.331 613.743L459.331 616.481C459.331 617.892 459.181 619.299 458.884 620.679L458.158 624.047L457.855 625.404C457.089 628.838 455.427 632.007 453.039 634.59L451.184 636.596C450.243 637.614 449.199 638.531 448.067 639.332L441.988 643.634C441.283 644.134 440.439 644.402 439.575 644.402C438.538 644.402 437.538 644.017 436.77 643.32L428.951 636.234L427.375 634.353C425.334 631.917 423.906 629.029 423.209 625.928L423.118 625.525C421.871 619.978 423.054 614.162 426.369 609.542L437.963 593.384L437.089 600.633C436.91 602.117 436.899 603.616 437.055 605.102L437.641 610.672C437.855 612.707 438.381 614.697 439.201 616.572L439.477 617.202C441.135 620.995 446.428 621.226 448.411 617.593Z" fill="#FFF28C"/>
<path d="M1226.41 466.593L1235.54 449.874L1237.03 459.038L1237.33 462.743L1237.33 465.481C1237.33 466.892 1237.18 468.299 1236.88 469.679L1236.16 473.047L1235.86 474.404C1235.09 477.838 1233.43 481.007 1231.04 483.59L1229.18 485.596C1228.24 486.614 1227.2 487.531 1226.07 488.332L1219.99 492.634C1219.28 493.134 1218.44 493.402 1217.58 493.402C1216.54 493.402 1215.54 493.017 1214.77 492.32L1206.95 485.234L1205.38 483.353C1203.33 480.917 1201.91 478.029 1201.21 474.928L1201.12 474.525C1199.87 468.978 1201.05 463.162 1204.37 458.542L1215.96 442.384L1215.09 449.633C1214.91 451.117 1214.9 452.616 1215.06 454.102L1215.64 459.672C1215.86 461.707 1216.38 463.697 1217.2 465.572L1217.48 466.202C1219.14 469.995 1224.43 470.226 1226.41 466.593Z" fill="#FFF28C"/>
<path d="M798.327 220.593L789.2 203.874L787.706 213.038L787.407 216.743L787.407 219.481C787.407 220.892 787.557 222.299 787.854 223.679L788.58 227.047L788.883 228.404C789.649 231.838 791.311 235.007 793.699 237.59L795.554 239.596C796.495 240.614 797.54 241.531 798.671 242.332L804.75 246.634C805.456 247.134 806.299 247.402 807.164 247.402C808.2 247.402 809.2 247.017 809.969 246.32L817.788 239.234L819.364 237.353C821.404 234.917 822.833 232.029 823.53 228.928L823.62 228.525C824.867 222.978 823.684 217.162 820.369 212.542L808.775 196.384L809.649 203.633C809.828 205.117 809.84 206.616 809.683 208.102L809.098 213.672C808.884 215.707 808.357 217.697 807.537 219.572L807.262 220.202C805.603 223.995 800.31 224.226 798.327 220.593Z" fill="#FFF28C"/>
<path d="M368.328 940.593L359.201 923.874L357.706 933.038L357.407 936.743L357.407 939.481C357.407 940.892 357.557 942.299 357.855 943.679L358.581 947.047L358.883 948.404C359.65 951.838 361.311 955.007 363.7 957.59L365.555 959.596C366.496 960.614 367.54 961.531 368.672 962.332L374.75 966.634C375.456 967.134 376.299 967.402 377.164 967.402C378.201 967.402 379.201 967.017 379.969 966.32L387.788 959.234L389.364 957.353C391.405 954.917 392.833 952.029 393.53 948.928L393.621 948.525C394.868 942.978 393.685 937.162 390.37 932.542L378.775 916.384L379.65 923.633C379.829 925.117 379.84 926.616 379.684 928.102L379.098 933.672C378.884 935.707 378.358 937.697 377.538 939.572L377.262 940.202C375.603 943.995 370.311 944.226 368.328 940.593Z" fill="#FFF28C"/>
<path d="M1518.41 449.593L1527.54 432.874L1529.03 442.038L1529.33 445.743L1529.33 448.481C1529.33 449.892 1529.18 451.299 1528.88 452.679L1528.16 456.047L1527.86 457.404C1527.09 460.838 1525.43 464.007 1523.04 466.59L1521.18 468.596C1520.24 469.614 1519.2 470.531 1518.07 471.332L1511.99 475.634C1511.28 476.134 1510.44 476.402 1509.57 476.402C1508.54 476.402 1507.54 476.017 1506.77 475.32L1498.95 468.234L1497.37 466.353C1495.33 463.917 1493.91 461.029 1493.21 457.928L1493.12 457.525C1491.87 451.978 1493.05 446.162 1496.37 441.542L1507.96 425.384L1507.09 432.633C1506.91 434.117 1506.9 435.616 1507.05 437.102L1507.64 442.672C1507.85 444.707 1508.38 446.697 1509.2 448.572L1509.48 449.202C1511.14 452.995 1516.43 453.226 1518.41 449.593Z" fill="#FFF28C"/>
<path d="M579.478 1639L480.447 1426.09L457.833 1524.46L451.999 1564.45C449.741 1599.51 451.214 1634.71 456.394 1669.46L457.527 1677.06C464.969 1724.63 484.875 1769.37 515.221 1806.75L519.182 1811.63C532.159 1827.62 546.77 1842.2 562.776 1855.15L596.549 1882.48C618.811 1900.5 645.293 1912.55 673.5 1917.5L1008.5 1970L880.325 1835.19C843.34 1796.29 829.876 1740.63 844.989 1689.13C857.083 1647.91 850.989 1603.5 828.245 1567.07L698.045 1358.51L701.036 1412.15C702.89 1445.4 700.998 1478.75 695.394 1511.57C687.722 1556.51 673.172 1600 652.255 1640.5C636.798 1670.44 593.687 1669.55 579.478 1639Z" fill="#FFF28C"/>
<path d="M1409.14 1613.86L1496.47 1426.1L1519.09 1524.47L1524.92 1564.46L1526.84 1594.17C1527.82 1609.48 1527.18 1624.85 1524.92 1640.02L1519.39 1677.07L1517.06 1692C1511.15 1729.79 1495.33 1765.34 1471.22 1795.03L1452.5 1818.09C1443.01 1829.79 1432.31 1840.46 1420.6 1849.94L1388.61 1875.83C1360.92 1898.23 1328.12 1913.47 1293.13 1920.17L1043.5 1968L1118.83 1866.66C1130.12 1851.47 1138.58 1834.37 1143.79 1816.17C1151.99 1787.55 1151.9 1757.18 1143.51 1728.61L1139.3 1714.25C1122.52 1657.06 1130.97 1595.43 1162.53 1544.88L1278.88 1358.52L1274.46 1437.78C1273.55 1454 1274.47 1470.27 1277.21 1486.29L1287.45 1546.3C1291.2 1568.23 1298.3 1589.45 1308.5 1609.22L1311.94 1615.87C1332.58 1655.85 1390.16 1654.66 1409.14 1613.86Z" fill="#FFF28C"/>
<path d="M1068.16 1646.87L1164.3 1431.24L1188.93 1548.34L1195.39 1595.44L1195.6 1598.63C1198.11 1637.38 1196.81 1676.3 1191.71 1714.8L1190.39 1724.77L1189.71 1729.65C1182.65 1780.24 1161.74 1827.89 1129.29 1867.33C1113.67 1886.31 1100.65 1907.29 1090.57 1929.71L1087.5 1936.55L1085.54 1941.45C1082.96 1947.91 1078.47 1953.44 1072.68 1957.3L1062.5 1962.5C1049.95 1967.55 1036.55 1970.14 1023.02 1970.14L1008 1970.14C986.967 1967.2 967.475 1957.46 952.504 1942.39L865.579 1854.95L843.977 1827.32C819.802 1796.4 802.158 1760.89 792.114 1722.94C771.818 1646.27 783.826 1564.62 825.341 1497.04L933.781 1320.5L931.142 1379.27C929.345 1419.29 931.61 1459.4 937.902 1498.96L938.576 1503.2C946.465 1552.8 960.875 1601.14 981.433 1646.97C998.237 1684.43 1051.44 1684.37 1068.16 1646.87Z" fill="#FFF28C"/>
</svg>
