<svg width="78" height="78" viewBox="0 0 78 78" fill="none" xmlns="http://www.w3.org/2000/svg">
<circle cx="39" cy="39" r="39" fill="#D9D9D9"/>
<path d="M34.816 48.544V46C34.816 44.4 35.008 43.072 35.392 42.016C35.808 40.928 36.32 40 36.928 39.232C37.568 38.464 38.208 37.776 38.848 37.168C39.712 36.368 40.48 35.584 41.152 34.816C41.824 34.016 42.16 32.976 42.16 31.696C42.16 30.992 41.984 30.4 41.632 29.92C41.28 29.44 40.848 29.072 40.336 28.816C39.856 28.528 39.376 28.384 38.896 28.384C37.968 28.384 37.184 28.608 36.544 29.056C35.936 29.472 35.424 30.016 35.008 30.688C34.624 31.36 34.288 32.064 34 32.8L28.48 30.208C28.672 29.632 29.008 28.896 29.488 28C29.968 27.104 30.64 26.208 31.504 25.312C32.4 24.416 33.504 23.664 34.816 23.056C36.16 22.448 37.76 22.144 39.616 22.144C41.44 22.144 43.072 22.464 44.512 23.104C45.984 23.712 47.152 24.672 48.016 25.984C48.88 27.264 49.312 28.96 49.312 31.072C49.312 32.832 49.072 34.256 48.592 35.344C48.112 36.432 47.52 37.36 46.816 38.128C46.112 38.864 45.408 39.6 44.704 40.336C44.16 40.88 43.632 41.488 43.12 42.16C42.64 42.8 42.256 43.552 41.968 44.416C41.68 45.28 41.536 46.32 41.536 47.536V48.544H34.816ZM38.176 58.672C37.024 58.672 36.08 58.368 35.344 57.76C34.608 57.12 34.24 56.288 34.24 55.264C34.24 54.272 34.608 53.44 35.344 52.768C36.112 52.096 37.056 51.76 38.176 51.76C39.296 51.76 40.208 52.096 40.912 52.768C41.648 53.44 42.016 54.272 42.016 55.264C42.016 56.288 41.664 57.12 40.96 57.76C40.256 58.368 39.328 58.672 38.176 58.672Z" fill="#E02AA4"/>
</svg>
