<svg width="28" height="17" viewBox="0 0 28 17" fill="none" xmlns="http://www.w3.org/2000/svg">
<path fill-rule="evenodd" clip-rule="evenodd" d="M6.21353 15.3734C5.80382 15.7878 5.85393 16.4014 6.32546 16.7438C6.797 17.0862 7.5114 17.0279 7.92111 16.6135L22.647 1.71851C23.0567 1.30408 23.0066 0.690515 22.535 0.348065C22.0635 0.0056155 21.3491 0.0639628 20.9394 0.478387L6.21353 15.3734ZM1.00293 8.31995C6.35805 3.59178 12.0266 1.59826 17.736 2.99169L16.7841 3.93889C15.9603 3.57712 15.0286 3.37327 14.042 3.37327C10.6852 3.37327 7.96408 5.73296 7.96408 8.6438C7.96408 9.7578 8.36263 10.7911 9.04284 11.6423L7.51333 13.1643C5.2845 12.1244 3.08494 10.5734 0.905127 8.57096C0.824207 8.50204 0.923257 8.3903 1.00293 8.31995ZM15.2721 5.24689C15.1025 5.40762 14.9738 5.60063 14.8999 5.81387L10.355 10.3366C10.0462 9.83748 9.87122 9.26822 9.87122 8.66394C9.87122 6.68954 11.7387 5.08897 14.0423 5.08897C14.4704 5.08897 14.8834 5.14423 15.2721 5.24689ZM18.0111 7.56081L13.3581 12.191C13.5807 12.2225 13.8093 12.2389 14.0423 12.2389C16.346 12.2389 18.2134 10.6383 18.2134 8.66394C18.2134 8.27899 18.1425 7.90825 18.0111 7.56081ZM14.042 13.9143C13.3064 13.9143 12.6014 13.801 11.9488 13.5934L11.1469 14.3914C16.2464 15.4527 21.5206 13.7554 27.0783 8.61632C27.1308 8.56775 27.1407 8.48649 27.0997 8.42787C25.1714 6.62779 23.2306 5.26037 21.2879 4.29999L19.4096 6.16912C19.863 6.907 20.1199 7.74938 20.1199 8.6438C20.1199 11.5546 17.3987 13.9143 14.042 13.9143Z" fill="white"/>
</svg>
