<svg width="27" height="14" viewBox="0 0 27 14" fill="none" xmlns="http://www.w3.org/2000/svg">
<path fill-rule="evenodd" clip-rule="evenodd" d="M26.8496 7.11144C18.0748 -1.58854 9.0405 -0.772626 0.756255 6.99427C0.674814 7.07063 0.572943 7.18852 0.655735 7.26341C8.92232 15.3291 17.473 16.4983 26.8269 7.31281C26.8808 7.25984 26.8911 7.17457 26.8496 7.11144ZM19.8693 7.34058C19.8693 10.4321 17.1482 12.9382 13.7916 12.9382C10.435 12.9382 7.71388 10.4321 7.71388 7.34058C7.71388 4.24908 10.435 1.74292 13.7916 1.74292C17.1482 1.74292 19.8693 4.24908 19.8693 7.34058ZM16.294 6.34302C16.8139 6.34302 17.2798 6.13254 17.5945 5.80009C17.8311 6.27658 17.9628 6.8055 17.9628 7.36241C17.9628 9.45936 16.0954 11.1593 13.7919 11.1593C11.4883 11.1593 9.62086 9.45936 9.62086 7.36241C9.62086 5.26546 11.4883 3.56555 13.7919 3.56555C14.2197 3.56555 14.6325 3.6242 15.0211 3.73313C14.7457 4.01025 14.5779 4.37773 14.5779 4.78089C14.5779 5.64363 15.3462 6.34302 16.294 6.34302Z" fill="white"/>
</svg>
