<svg width="42" height="45" viewBox="0 0 42 45" fill="none" xmlns="http://www.w3.org/2000/svg">
<path d="M24.2813 2.78467C27.8377 0.140029 30.2368 -1.16293 33.0234 1.34057C34.6902 2.71139 38.1507 1.40676 41 0.0838965L40.7619 8.29604C39.9051 8.71117 39.1573 9.17818 38.4631 9.61176C36.5184 10.8263 34.9936 11.7787 32.6663 10.594C30.4752 9.19127 28.9471 9.10573 26.942 9.84894L26.942 17.8639C26.942 18 26.942 18.0962 26.942 18.1914C26.942 18.2866 26.942 18.3125 26.942 18.427V31.945C26.942 32.3049 26.6442 32.5967 26.2768 32.5967H24.9465C24.5791 32.5967 24.2813 32.3049 24.2813 31.945V20.6078H14.6255C14.6272 20.6613 14.6281 20.715 14.6281 20.7689V40.7419C14.6281 42.5413 13.139 44 11.3022 44H7.57068C5.73383 44 4.24478 42.5413 4.24478 40.7419V30.4044C2.40323 30.1017 1 28.5327 1 26.6427V23.0701C1 18.9903 4.37606 15.6831 8.54065 15.6831H8.78747L9.53355 15.6831C9.76562 15.6831 9.21665 15.6831 9.43642 15.6831L9.4613 15.6831H24.2813V2.94758H24.2879L24.2813 2.78467Z" fill="#6593EB"/>
<path d="M14.9526 8.7576C14.9526 11.7324 12.4103 14.144 9.2742 14.144C6.13813 14.144 3.59584 11.7324 3.59584 8.7576C3.59584 5.78279 6.13813 3.37123 9.2742 3.37123C12.4103 3.37123 14.9526 5.78279 14.9526 8.7576Z" fill="#6593EB"/>
<path d="M24.2813 2.78467C27.8377 0.140029 30.2368 -1.16293 33.0234 1.34057C34.6902 2.71139 38.1507 1.40676 41 0.0838965L40.7619 8.29604C39.9051 8.71117 39.1573 9.17818 38.4631 9.61176C36.5184 10.8263 34.9936 11.7787 32.6663 10.594C30.4752 9.19127 28.9471 9.10573 26.942 9.84894L26.942 17.8639C26.942 18 26.942 18.0962 26.942 18.1914C26.942 18.2866 26.942 18.3125 26.942 18.427V31.945C26.942 32.3049 26.6442 32.5967 26.2768 32.5967H24.9465C24.5791 32.5967 24.2813 32.3049 24.2813 31.945V20.6078H14.6255C14.6272 20.6613 14.6281 20.715 14.6281 20.7689V40.7419C14.6281 42.5413 13.139 44 11.3022 44H7.57068C5.73383 44 4.24478 42.5413 4.24478 40.7419V30.4044C2.40323 30.1017 1 28.5327 1 26.6427V23.0701C1 18.9903 4.37606 15.6831 8.54065 15.6831H8.78747L9.53355 15.6831C9.76562 15.6831 9.21665 15.6831 9.43642 15.6831L9.4613 15.6831H24.2813V2.94758H24.2879L24.2813 2.78467Z" stroke="#FFFDE9"/>
<path d="M14.9526 8.7576C14.9526 11.7324 12.4103 14.144 9.2742 14.144C6.13813 14.144 3.59584 11.7324 3.59584 8.7576C3.59584 5.78279 6.13813 3.37123 9.2742 3.37123C12.4103 3.37123 14.9526 5.78279 14.9526 8.7576Z" stroke="#FFFDE9"/>
</svg>
