<svg width="191" height="87" viewBox="0 0 191 87" fill="none" xmlns="http://www.w3.org/2000/svg">
<rect x="1.5" y="0.5" width="189" height="86" fill="#D9D9D9" stroke="black"/>
<line y1="-0.5" x2="207.138" y2="-0.5" transform="matrix(0.917262 -0.398285 0.396526 0.918024 1 87)" stroke="black"/>
<line y1="-0.5" x2="208.351" y2="-0.5" transform="matrix(-0.911921 -0.410365 0.408573 -0.912725 191 85.5)" stroke="black"/>
<path d="M48.5659 4.74H50.0419V12.072H54.3139V13.5H48.5659V4.74ZM55.452 10.884C55.452 10.364 55.572 9.9 55.812 9.492C56.06 9.076 56.404 8.748 56.844 8.508C57.284 8.268 57.784 8.148 58.344 8.148C58.92 8.148 59.42 8.268 59.844 8.508C60.276 8.748 60.604 9.076 60.828 9.492C61.06 9.9 61.176 10.364 61.176 10.884C61.176 11.404 61.06 11.872 60.828 12.288C60.604 12.704 60.276 13.032 59.844 13.272C59.42 13.512 58.916 13.632 58.332 13.632C57.78 13.632 57.284 13.524 56.844 13.308C56.412 13.084 56.072 12.768 55.824 12.36C55.576 11.944 55.452 11.452 55.452 10.884ZM56.892 10.896C56.892 11.192 56.952 11.46 57.072 11.7C57.2 11.932 57.372 12.12 57.588 12.264C57.804 12.4 58.044 12.468 58.308 12.468C58.596 12.468 58.844 12.4 59.052 12.264C59.268 12.12 59.436 11.932 59.556 11.7C59.676 11.46 59.736 11.192 59.736 10.896C59.736 10.592 59.676 10.324 59.556 10.092C59.436 9.86 59.268 9.676 59.052 9.54C58.844 9.396 58.596 9.324 58.308 9.324C58.044 9.324 57.804 9.396 57.588 9.54C57.372 9.676 57.2 9.864 57.072 10.104C56.952 10.336 56.892 10.6 56.892 10.896ZM65.1431 16.056C64.7191 16.056 64.3551 16.004 64.0511 15.9C63.7471 15.804 63.4791 15.676 63.2471 15.516C63.0231 15.364 62.8151 15.208 62.6231 15.048L63.4631 14.064C63.6871 14.272 63.9271 14.448 64.1831 14.592C64.4391 14.736 64.7511 14.808 65.1191 14.808C65.4311 14.808 65.7071 14.756 65.9471 14.652C66.1951 14.548 66.3871 14.396 66.5231 14.196C66.6591 14.004 66.7271 13.772 66.7271 13.5L66.7391 12.264L66.8111 12.528C66.6751 12.832 66.4311 13.092 66.0791 13.308C65.7271 13.524 65.2791 13.632 64.7351 13.632C64.2711 13.632 63.8431 13.512 63.4511 13.272C63.0591 13.032 62.7431 12.708 62.5031 12.3C62.2711 11.892 62.1551 11.428 62.1551 10.908C62.1551 10.372 62.2791 9.9 62.5271 9.492C62.7751 9.076 63.0991 8.748 63.4991 8.508C63.9071 8.268 64.3391 8.148 64.7951 8.148C65.2431 8.148 65.6391 8.224 65.9831 8.376C66.3271 8.528 66.5871 8.72 66.7631 8.952L66.6911 9.132L66.8471 8.376H68.1671V13.512C68.1671 14 68.0351 14.436 67.7711 14.82C67.5071 15.204 67.1471 15.504 66.6911 15.72C66.2431 15.944 65.7271 16.056 65.1431 16.056ZM63.5951 10.872C63.5951 11.176 63.6631 11.448 63.7991 11.688C63.9351 11.928 64.1231 12.12 64.3631 12.264C64.6031 12.4 64.8711 12.468 65.1671 12.468C65.4231 12.468 65.6511 12.428 65.8511 12.348C66.0591 12.26 66.2391 12.144 66.3911 12C66.5431 11.848 66.6591 11.668 66.7391 11.46V10.308C66.6671 10.108 66.5511 9.936 66.3911 9.792C66.2391 9.64 66.0591 9.524 65.8511 9.444C65.6431 9.356 65.4151 9.312 65.1671 9.312C64.8711 9.312 64.6031 9.38 64.3631 9.516C64.1231 9.644 63.9351 9.828 63.7991 10.068C63.6631 10.3 63.5951 10.568 63.5951 10.872ZM69.5613 10.884C69.5613 10.364 69.6813 9.9 69.9213 9.492C70.1693 9.076 70.5133 8.748 70.9533 8.508C71.3933 8.268 71.8933 8.148 72.4533 8.148C73.0293 8.148 73.5293 8.268 73.9533 8.508C74.3853 8.748 74.7133 9.076 74.9373 9.492C75.1693 9.9 75.2853 10.364 75.2853 10.884C75.2853 11.404 75.1693 11.872 74.9373 12.288C74.7133 12.704 74.3853 13.032 73.9533 13.272C73.5293 13.512 73.0253 13.632 72.4413 13.632C71.8893 13.632 71.3933 13.524 70.9533 13.308C70.5213 13.084 70.1813 12.768 69.9333 12.36C69.6853 11.944 69.5613 11.452 69.5613 10.884ZM71.0013 10.896C71.0013 11.192 71.0613 11.46 71.1813 11.7C71.3093 11.932 71.4813 12.12 71.6973 12.264C71.9133 12.4 72.1533 12.468 72.4173 12.468C72.7053 12.468 72.9533 12.4 73.1613 12.264C73.3773 12.12 73.5453 11.932 73.6653 11.7C73.7853 11.46 73.8453 11.192 73.8453 10.896C73.8453 10.592 73.7853 10.324 73.6653 10.092C73.5453 9.86 73.3773 9.676 73.1613 9.54C72.9533 9.396 72.7053 9.324 72.4173 9.324C72.1533 9.324 71.9133 9.396 71.6973 9.54C71.4813 9.676 71.3093 9.864 71.1813 10.104C71.0613 10.336 71.0013 10.6 71.0013 10.896ZM80.6565 4.512C80.0965 6.056 79.5325 7.596 78.9645 9.132C78.3965 10.66 77.8325 12.192 77.2725 13.728H75.9765C76.5445 12.192 77.1085 10.66 77.6685 9.132C78.2365 7.596 78.8045 6.056 79.3725 4.512H80.6565ZM84.2597 4.74C85.1557 4.74 85.8637 4.924 86.3837 5.292C86.9117 5.652 87.1757 6.204 87.1757 6.948C87.1757 7.452 87.0557 7.88 86.8157 8.232C86.5757 8.584 86.2437 8.852 85.8197 9.036C85.4037 9.22 84.9157 9.32 84.3557 9.336L84.1397 8.544C84.7957 8.552 85.3837 8.656 85.9037 8.856C86.4237 9.048 86.8357 9.324 87.1397 9.684C87.4437 10.044 87.5957 10.472 87.5957 10.968C87.5957 11.432 87.5117 11.824 87.3437 12.144C87.1757 12.464 86.9517 12.724 86.6717 12.924C86.3917 13.124 86.0717 13.272 85.7117 13.368C85.3517 13.456 84.9837 13.5 84.6077 13.5H81.8237V4.74H84.2597ZM84.4757 8.436C84.8837 8.436 85.1797 8.32 85.3637 8.088C85.5477 7.848 85.6397 7.572 85.6397 7.26C85.6397 6.884 85.5197 6.608 85.2797 6.432C85.0477 6.256 84.7317 6.168 84.3317 6.168H83.2997V8.436H84.4757ZM84.5357 12.12C84.8157 12.12 85.0717 12.08 85.3037 12C85.5437 11.92 85.7317 11.796 85.8677 11.628C86.0037 11.452 86.0717 11.236 86.0717 10.98C86.0717 10.684 85.9917 10.46 85.8317 10.308C85.6717 10.148 85.4637 10.036 85.2077 9.972C84.9597 9.9 84.6997 9.864 84.4277 9.864H83.2997V12.12H84.5357ZM90.4372 8.376L90.5692 9.816L90.5212 9.612C90.6652 9.308 90.8652 9.048 91.1212 8.832C91.3772 8.608 91.6372 8.44 91.9012 8.328C92.1652 8.208 92.3772 8.148 92.5372 8.148L92.4652 9.576C92.0812 9.536 91.7452 9.604 91.4572 9.78C91.1772 9.948 90.9572 10.176 90.7972 10.464C90.6452 10.744 90.5692 11.04 90.5692 11.352V13.5H89.1532V8.376H90.4372ZM95.8832 13.632C95.4032 13.632 94.9672 13.536 94.5752 13.344C94.1912 13.144 93.8832 12.844 93.6512 12.444C93.4272 12.044 93.3152 11.544 93.3152 10.944C93.3152 10.368 93.4312 9.872 93.6632 9.456C93.9032 9.032 94.2192 8.708 94.6112 8.484C95.0032 8.26 95.4232 8.148 95.8712 8.148C96.3672 8.148 96.7592 8.244 97.0472 8.436C97.3432 8.62 97.5752 8.836 97.7432 9.084L97.6712 9.276L97.8152 8.376H99.1352V13.5H97.7072V12.288L97.8272 12.612C97.8032 12.652 97.7432 12.728 97.6472 12.84C97.5592 12.944 97.4312 13.06 97.2632 13.188C97.1032 13.308 96.9072 13.412 96.6752 13.5C96.4512 13.588 96.1872 13.632 95.8832 13.632ZM96.2792 12.468C96.5112 12.468 96.7192 12.428 96.9032 12.348C97.0952 12.268 97.2592 12.152 97.3952 12C97.5312 11.848 97.6352 11.668 97.7072 11.46V10.308C97.6432 10.108 97.5392 9.936 97.3952 9.792C97.2512 9.64 97.0792 9.524 96.8792 9.444C96.6872 9.356 96.4712 9.312 96.2312 9.312C95.9672 9.312 95.7232 9.38 95.4992 9.516C95.2752 9.644 95.0952 9.828 94.9592 10.068C94.8312 10.3 94.7672 10.568 94.7672 10.872C94.7672 11.176 94.8352 11.448 94.9712 11.688C95.1072 11.928 95.2912 12.12 95.5232 12.264C95.7552 12.4 96.0072 12.468 96.2792 12.468ZM102.238 8.376L102.358 9.432L102.322 9.312C102.498 8.96 102.758 8.68 103.102 8.472C103.446 8.264 103.862 8.16 104.35 8.16C104.83 8.16 105.23 8.304 105.55 8.592C105.87 8.872 106.034 9.236 106.042 9.684V13.5H104.602V10.212C104.594 9.964 104.526 9.764 104.398 9.612C104.27 9.452 104.058 9.372 103.762 9.372C103.498 9.372 103.258 9.456 103.042 9.624C102.834 9.784 102.67 10.008 102.55 10.296C102.438 10.576 102.382 10.904 102.382 11.28V13.5H100.954V8.376H102.238ZM109.956 13.632C109.476 13.632 109.044 13.52 108.66 13.296C108.284 13.072 107.988 12.752 107.772 12.336C107.556 11.912 107.448 11.42 107.448 10.86C107.448 10.284 107.564 9.796 107.796 9.396C108.036 8.988 108.356 8.68 108.756 8.472C109.164 8.256 109.624 8.148 110.136 8.148C110.496 8.148 110.84 8.216 111.168 8.352C111.496 8.48 111.764 8.668 111.972 8.916L111.948 9.384V4.116H113.364V13.5H111.936V12.384L112.068 12.72C111.812 12.984 111.508 13.204 111.156 13.38C110.804 13.548 110.404 13.632 109.956 13.632ZM110.412 12.42C110.668 12.42 110.892 12.38 111.084 12.3C111.284 12.22 111.456 12.104 111.6 11.952C111.744 11.8 111.856 11.62 111.936 11.412V10.284C111.872 10.076 111.768 9.9 111.624 9.756C111.48 9.604 111.304 9.488 111.096 9.408C110.888 9.32 110.66 9.276 110.412 9.276C110.14 9.276 109.888 9.344 109.656 9.48C109.424 9.608 109.24 9.792 109.104 10.032C108.968 10.264 108.9 10.532 108.9 10.836C108.9 11.132 108.968 11.4 109.104 11.64C109.24 11.88 109.424 12.072 109.656 12.216C109.888 12.352 110.14 12.42 110.412 12.42Z" fill="black"/>
</svg>
