<svg width="1755" height="400" viewBox="0 0 1755 400" fill="none" xmlns="http://www.w3.org/2000/svg">
<g clip-path="url(#clip0_3246_13173)">
<path fill-rule="evenodd" clip-rule="evenodd" d="M73.587 215.972C56.635 219.66 41.963 227.592 28.707 240.236C8.34696 259.654 -0.183038 281.812 1.13096 311.858C1.83096 327.864 2.84696 332.068 9.28696 345.63C21.667 371.7 42.269 388.75 70.169 396.016C121.163 409.298 172.891 377.228 183.845 325.54C185.887 315.896 186.723 297.752 186.749 262.5L186.783 213L136.283 213.158C102.351 213.266 81.781 214.188 73.587 215.972ZM149.751 285C149.721 317.764 149.421 320.574 145.039 329C139.037 340.54 127.951 352.18 117.783 357.616C105.983 363.924 81.195 363.774 68.783 357.32C48.673 346.866 38.619 331.794 37.221 310.012C36.419 297.51 36.993 293.902 41.273 284.55C46.689 272.72 57.279 260.916 66.967 255.904C77.055 250.688 88.247 249.372 119.783 249.694L149.783 250L149.751 285Z" fill="#FED708"/>
<path fill-rule="evenodd" clip-rule="evenodd" d="M326.196 215.972C343.148 219.66 357.82 227.592 371.076 240.236C391.436 259.654 399.966 281.812 398.652 311.858C397.952 327.864 396.936 332.068 390.496 345.63C378.116 371.7 357.514 388.75 329.614 396.016C278.62 409.298 226.892 377.228 215.938 325.54C213.896 315.896 213.06 297.752 213.034 262.5L213 213L263.5 213.158C297.432 213.266 318.002 214.188 326.196 215.972ZM250.032 285C250.062 317.764 250.362 320.574 254.744 329C260.746 340.54 271.832 352.18 282 357.616C293.8 363.924 318.588 363.774 331 357.32C351.11 346.866 361.164 331.794 362.562 310.012C363.364 297.51 362.79 293.902 358.51 284.55C353.094 272.72 342.504 260.916 332.816 255.904C322.728 250.688 311.536 249.372 280 249.694L250 250L250.032 285Z" fill="#FED708"/>
<path fill-rule="evenodd" clip-rule="evenodd" d="M73.587 184.048C56.635 180.36 41.963 172.428 28.707 159.784C8.34696 140.366 -0.183038 118.208 1.13096 88.1615C1.83096 72.1555 2.84696 67.9515 9.28696 54.3895C21.667 28.3195 42.269 11.2695 70.169 4.00352C121.163 -9.27847 172.891 22.7915 183.845 74.4795C185.887 84.1235 186.723 102.268 186.749 137.52L186.783 187.02L136.283 186.862C102.351 186.754 81.781 185.832 73.587 184.048ZM149.751 115.02C149.721 82.2555 149.421 79.4455 145.039 71.0195C139.037 59.4795 127.951 47.8395 117.783 42.4035C105.983 36.0955 81.195 36.2455 68.783 42.6995C48.673 53.1535 38.619 68.2255 37.221 90.0075C36.419 102.51 36.993 106.118 41.273 115.47C46.689 127.3 57.279 139.104 66.967 144.116C77.055 149.332 88.247 150.648 119.783 150.326L149.783 150.02L149.751 115.02Z" fill="#199DC7"/>
<path fill-rule="evenodd" clip-rule="evenodd" d="M326.196 184.048C343.148 180.36 357.82 172.428 371.076 159.784C391.436 140.366 399.966 118.208 398.652 88.1615C397.952 72.1555 396.936 67.9515 390.496 54.3895C378.116 28.3195 357.514 11.2695 329.614 4.00352C278.62 -9.27847 226.892 22.7915 215.938 74.4795C213.896 84.1235 213.06 102.268 213.034 137.52L213 187.02L263.5 186.862C297.432 186.754 318.002 185.832 326.196 184.048ZM250.032 115.02C250.062 82.2555 250.362 79.4455 254.744 71.0195C260.746 59.4795 271.832 47.8395 282 42.4035C293.8 36.0955 318.588 36.2455 331 42.6995C351.11 53.1535 361.164 68.2255 362.562 90.0075C363.364 102.51 362.79 106.118 358.51 115.47C353.094 127.3 342.504 139.104 332.816 144.116C322.728 149.332 311.536 150.648 280 150.326L250 150.02L250.032 115.02Z" fill="#199DC7"/>
<path d="M541.1 214.128C512.133 214.128 488.208 204.503 469.325 185.253C450.442 166.003 441 142.262 441 114.028C441 85.6119 450.442 61.8699 469.325 42.8029C488.208 23.5529 512.133 13.9282 541.1 13.9282C558.517 13.9282 574.558 18.0529 589.225 26.3029C604.075 34.3699 615.625 45.3699 623.875 59.3029L591.15 78.2779C586.383 69.6619 579.6 62.9699 570.8 58.2029C562 53.2529 552.1 50.7779 541.1 50.7779C522.4 50.7779 507.275 56.6449 495.725 68.3779C484.358 80.1119 478.675 95.3279 478.675 114.028C478.675 132.545 484.358 147.67 495.725 159.403C507.275 171.137 522.4 177.003 541.1 177.003C552.1 177.003 562 174.62 570.8 169.853C579.783 164.903 586.567 158.212 591.15 149.778L623.875 168.753C615.625 182.687 604.167 193.778 589.5 202.028C574.833 210.095 558.7 214.128 541.1 214.128Z" fill="#677888"/>
<path d="M647.688 210.278V9.52832H683.163V210.278H647.688Z" fill="#677888"/>
<path d="M832.782 193.228C818.665 207.162 801.432 214.128 781.082 214.128C760.732 214.128 743.498 207.162 729.382 193.228C715.448 179.112 708.482 161.878 708.482 141.528C708.482 121.178 715.448 104.037 729.382 90.1032C743.498 75.9872 760.732 68.9282 781.082 68.9282C801.432 68.9282 818.665 75.9872 832.782 90.1032C846.898 104.037 853.957 121.178 853.957 141.528C853.957 161.878 846.898 179.112 832.782 193.228ZM754.407 168.753C761.557 175.903 770.448 179.478 781.082 179.478C791.715 179.478 800.607 175.903 807.757 168.753C814.907 161.603 818.482 152.528 818.482 141.528C818.482 130.528 814.907 121.453 807.757 114.303C800.607 107.153 791.715 103.578 781.082 103.578C770.448 103.578 761.557 107.153 754.407 114.303C747.44 121.453 743.957 130.528 743.957 141.528C743.957 152.528 747.44 161.603 754.407 168.753Z" fill="#677888"/>
<path d="M964.018 72.7778H1003.07L950.818 210.278H910.393L858.143 72.7778H897.193L930.468 169.028L964.018 72.7778Z" fill="#677888"/>
<path d="M1044.78 156.103C1049.54 173.337 1062.47 181.953 1083.55 181.953C1097.12 181.953 1107.38 177.37 1114.35 168.203L1142.95 184.703C1129.38 204.32 1109.4 214.128 1083 214.128C1060.27 214.128 1042.03 207.253 1028.28 193.503C1014.53 179.753 1007.65 162.428 1007.65 141.528C1007.65 120.812 1014.43 103.578 1028 89.8282C1041.57 75.8952 1058.98 68.9282 1080.25 68.9282C1100.42 68.9282 1117.01 75.8952 1130.03 89.8282C1143.23 103.762 1149.83 120.995 1149.83 141.528C1149.83 146.112 1149.37 150.97 1148.45 156.103H1044.78ZM1044.23 128.603H1114.35C1112.33 119.253 1108.12 112.287 1101.7 107.703C1095.47 103.12 1088.32 100.828 1080.25 100.828C1070.72 100.828 1062.83 103.303 1056.6 108.253C1050.37 113.02 1046.24 119.803 1044.23 128.603Z" fill="#677888"/>
<path d="M1210.07 96.4278C1213.37 87.6278 1218.77 81.0278 1226.29 76.6278C1233.99 72.2278 1242.52 70.0278 1251.87 70.0278V109.628C1241.05 108.345 1231.33 110.545 1222.72 116.228C1214.28 121.912 1210.07 131.353 1210.07 144.553V210.278H1174.59V72.7778H1210.07V96.4278Z" fill="#677888"/>
<path d="M1352.64 68.9282C1371.16 68.9282 1386.92 75.9872 1399.94 90.1032C1413.14 104.037 1419.74 121.178 1419.74 141.528C1419.74 161.878 1413.14 179.112 1399.94 193.228C1386.92 207.162 1371.16 214.128 1352.64 214.128C1333.39 214.128 1318.54 207.437 1308.09 194.053V265.278H1272.61V72.7782H1308.09V89.0032C1318.54 75.6202 1333.39 68.9282 1352.64 68.9282ZM1318.81 169.578C1325.96 176.728 1335.04 180.303 1346.04 180.303C1357.04 180.303 1366.11 176.728 1373.26 169.578C1380.6 162.245 1384.26 152.895 1384.26 141.528C1384.26 130.162 1380.6 120.903 1373.26 113.753C1366.11 106.42 1357.04 102.753 1346.04 102.753C1335.04 102.753 1325.96 106.42 1318.81 113.753C1311.66 120.903 1308.09 130.162 1308.09 141.528C1308.09 152.895 1311.66 162.245 1318.81 169.578Z" fill="#677888"/>
<path d="M1561.91 193.228C1547.79 207.162 1530.56 214.128 1510.21 214.128C1489.86 214.128 1472.62 207.162 1458.51 193.228C1444.57 179.112 1437.61 161.878 1437.61 141.528C1437.61 121.178 1444.57 104.037 1458.51 90.1032C1472.62 75.9872 1489.86 68.9282 1510.21 68.9282C1530.56 68.9282 1547.79 75.9872 1561.91 90.1032C1576.02 104.037 1583.08 121.178 1583.08 141.528C1583.08 161.878 1576.02 179.112 1561.91 193.228ZM1483.53 168.753C1490.68 175.903 1499.57 179.478 1510.21 179.478C1520.84 179.478 1529.73 175.903 1536.88 168.753C1544.03 161.603 1547.61 152.528 1547.61 141.528C1547.61 130.528 1544.03 121.453 1536.88 114.303C1529.73 107.153 1520.84 103.578 1510.21 103.578C1499.57 103.578 1490.68 107.153 1483.53 114.303C1476.57 121.453 1473.08 130.528 1473.08 141.528C1473.08 152.528 1476.57 161.603 1483.53 168.753Z" fill="#677888"/>
<path d="M1688.06 68.9282C1706.58 68.9282 1722.35 75.9872 1735.36 90.1032C1748.56 104.037 1755.16 121.178 1755.16 141.528C1755.16 161.878 1748.56 179.112 1735.36 193.228C1722.35 207.162 1706.58 214.128 1688.06 214.128C1668.81 214.128 1653.96 207.437 1643.51 194.053V265.278H1608.04V72.7782H1643.51V89.0032C1653.96 75.6202 1668.81 68.9282 1688.06 68.9282ZM1654.24 169.578C1661.39 176.728 1670.46 180.303 1681.46 180.303C1692.46 180.303 1701.54 176.728 1708.69 169.578C1716.02 162.245 1719.69 152.895 1719.69 141.528C1719.69 130.162 1716.02 120.903 1708.69 113.753C1701.54 106.42 1692.46 102.753 1681.46 102.753C1670.46 102.753 1661.39 106.42 1654.24 113.753C1647.09 120.903 1643.51 130.162 1643.51 141.528C1643.51 152.895 1647.09 162.245 1654.24 169.578Z" fill="#677888"/>
<path d="M499.245 373.176L458.311 301.047H481.584L506.672 352.874L494.623 352.544L516.906 301.047H538.858L499.905 373.176H499.245Z" fill="#5689EB"/>
<path d="M547.204 301.047H566.846V371.525H547.204V301.047ZM546.379 275.793C546.379 272.822 547.535 270.401 549.845 268.531C552.266 266.55 554.852 265.56 557.603 265.56C560.244 265.56 562.665 266.55 564.865 268.531C567.176 270.401 568.332 272.822 568.332 275.793C568.332 278.874 567.176 281.35 564.865 283.221C562.665 285.091 560.244 286.027 557.603 286.027C554.852 286.027 552.266 285.091 549.845 283.221C547.535 281.35 546.379 278.874 546.379 275.793Z" fill="#5689EB"/>
<path d="M623.045 373.341C616.773 373.341 611.436 372.186 607.034 369.875C602.633 367.454 598.947 364.428 595.976 360.797L597.791 355.845V371.525H578.15V242.452H597.626V314.911L597.461 308.309C600.212 305.228 604.008 302.752 608.85 300.882C613.802 298.901 619.359 297.911 625.521 297.911C631.793 297.911 637.46 299.396 642.521 302.367C647.693 305.228 651.82 309.464 654.901 315.076C657.982 320.578 659.522 327.235 659.522 335.048C659.522 342.971 657.817 349.793 654.405 355.515C651.104 361.237 646.648 365.638 641.036 368.719C635.424 371.8 629.427 373.341 623.045 373.341ZM618.753 356.67C622.605 356.67 626.071 355.735 629.152 353.864C632.343 351.994 634.874 349.408 636.744 346.107C638.615 342.806 639.55 339.064 639.55 334.883C639.55 330.702 638.615 327.015 636.744 323.824C634.874 320.633 632.343 318.102 629.152 316.232C626.071 314.361 622.605 313.426 618.753 313.426C615.452 313.426 612.371 313.976 609.51 315.076C606.649 316.177 604.229 317.772 602.248 319.863C600.267 321.954 598.782 324.374 597.791 327.125V343.136C598.892 345.887 600.432 348.308 602.413 350.398C604.394 352.379 606.759 353.919 609.51 355.02C612.261 356.12 615.342 356.67 618.753 356.67Z" fill="#5689EB"/>
<path d="M1083.24 301.047L1085.06 320.853L1084.4 318.047C1086.38 313.866 1089.13 310.29 1092.65 307.319C1096.17 304.238 1099.75 301.927 1103.38 300.386C1107.01 298.736 1109.93 297.911 1112.13 297.911L1111.14 317.552C1105.85 317.002 1101.23 317.937 1097.27 320.358C1093.42 322.669 1090.39 325.805 1088.19 329.766C1086.1 333.618 1085.06 337.689 1085.06 341.98V371.525H1065.58V301.047H1083.24Z" fill="#E02AA4"/>
<path d="M1131.5 270.181H1151.31V301.047H1169.3V316.397H1151.31V371.525H1131.5V316.397H1119.78V301.047H1131.5V270.181Z" fill="#E02AA4"/>
<path d="M697.096 373.341C688.733 373.341 681.58 371.745 675.638 368.554C669.806 365.253 665.295 360.797 662.104 355.185C659.023 349.463 657.482 342.971 657.482 335.708C657.482 328.666 659.243 322.339 662.764 316.727C666.395 311.005 671.237 306.438 677.289 303.027C683.341 299.616 690.053 297.911 697.426 297.911C707.219 297.911 715.252 300.772 721.524 306.493C727.906 312.105 732.142 320.138 734.233 330.592L677.949 349.243L673.493 338.349L716.572 323.164L712.446 325.31C711.345 322.119 709.475 319.368 706.834 317.057C704.303 314.636 700.672 313.426 695.94 313.426C692.199 313.426 688.843 314.306 685.872 316.067C683.011 317.827 680.755 320.303 679.104 323.494C677.564 326.685 676.794 330.371 676.794 334.553C676.794 339.174 677.674 343.136 679.435 346.437C681.305 349.738 683.781 352.269 686.862 354.029C690.053 355.79 693.574 356.67 697.426 356.67C700.177 356.67 702.817 356.175 705.348 355.185C707.989 354.195 710.465 352.874 712.776 351.224L721.689 365.913C717.948 368.114 713.876 369.93 709.475 371.36C705.183 372.681 701.057 373.341 697.096 373.341Z" fill="#5689EB"/>
<path d="M732.19 360.596C732.19 356.624 733.538 353.362 736.233 350.808C739.07 348.113 742.19 346.766 745.595 346.766C748.715 346.766 751.694 348.113 754.531 350.808C757.368 353.362 758.786 356.624 758.786 360.596C758.786 364.567 757.368 367.83 754.531 370.383C751.694 372.794 748.715 374 745.595 374C742.19 374 739.07 372.794 736.233 370.383C733.538 367.83 732.19 364.567 732.19 360.596Z" fill="#F68E5B"/>
<path d="M786.658 301.047L788.474 320.853L787.814 318.047C789.794 313.866 792.545 310.29 796.067 307.319C799.588 304.238 803.164 301.927 806.795 300.386C810.426 298.736 813.342 297.911 815.543 297.911L814.553 317.552C809.271 317.002 804.649 317.937 800.688 320.358C796.837 322.669 793.811 325.805 791.61 329.766C789.519 333.618 788.474 337.689 788.474 341.98V371.525H768.997V301.047H786.658Z" fill="#E02AA4"/>
<path d="M854.414 373.341C846.051 373.341 838.899 371.745 832.957 368.554C827.125 365.253 822.613 360.797 819.422 355.185C816.341 349.463 814.8 342.971 814.8 335.708C814.8 328.666 816.561 322.339 820.082 316.727C823.713 311.005 828.555 306.438 834.607 303.027C840.659 299.616 847.371 297.911 854.744 297.911C864.537 297.911 872.57 300.772 878.842 306.493C885.224 312.105 889.461 320.138 891.551 330.592L835.267 349.243L830.811 338.349L873.89 323.164L869.764 325.31C868.664 322.119 866.793 319.368 864.152 317.057C861.621 314.636 857.99 313.426 853.258 313.426C849.517 313.426 846.161 314.306 843.19 316.067C840.329 317.827 838.073 320.303 836.423 323.494C834.882 326.685 834.112 330.371 834.112 334.553C834.112 339.174 834.992 343.136 836.753 346.437C838.624 349.738 841.099 352.269 844.18 354.029C847.371 355.79 850.893 356.67 854.744 356.67C857.495 356.67 860.136 356.175 862.667 355.185C865.308 354.195 867.783 352.874 870.094 351.224L879.007 365.913C875.266 368.114 871.195 369.93 866.793 371.36C862.502 372.681 858.375 373.341 854.414 373.341Z" fill="#E02AA4"/>
<path d="M935.868 373.341C931.136 373.341 926.57 372.351 922.168 370.37C917.767 368.389 914.191 365.693 911.44 362.282L912.265 356.34V405.362H892.788V299.726H909.624L912.43 315.406L910.614 310.455C914.246 306.824 918.427 303.853 923.159 301.542C928 299.121 933.502 297.911 939.664 297.911C946.266 297.911 952.153 299.451 957.325 302.532C962.607 305.613 966.733 310.015 969.704 315.737C972.675 321.458 974.161 328.226 974.161 336.038C974.161 343.851 972.51 350.563 969.209 356.175C965.908 361.787 961.342 366.079 955.51 369.05C949.788 371.911 943.24 373.341 935.868 373.341ZM931.907 357.826C935.978 357.826 939.664 356.945 942.965 355.185C946.376 353.314 949.072 350.728 951.053 347.427C953.144 344.126 954.189 340.44 954.189 336.369C954.189 332.077 953.254 328.281 951.383 324.98C949.513 321.679 946.982 319.093 943.791 317.222C940.71 315.351 937.243 314.416 933.392 314.416C929.871 314.416 926.735 315.021 923.984 316.232C921.343 317.332 919.032 318.928 917.052 321.018C915.071 323.109 913.53 325.585 912.43 328.446V343.466C913.2 346.217 914.466 348.693 916.226 350.893C918.097 353.094 920.353 354.8 922.994 356.01C925.745 357.221 928.716 357.826 931.907 357.826Z" fill="#E02AA4"/>
<path d="M978.566 335.543C978.566 328.391 980.217 322.009 983.518 316.397C986.929 310.675 991.661 306.163 997.713 302.862C1003.76 299.561 1010.64 297.911 1018.34 297.911C1026.27 297.911 1033.14 299.561 1038.98 302.862C1044.92 306.163 1049.43 310.675 1052.51 316.397C1055.7 322.009 1057.3 328.391 1057.3 335.543C1057.3 342.696 1055.7 349.133 1052.51 354.855C1049.43 360.577 1044.92 365.088 1038.98 368.389C1033.14 371.69 1026.21 373.341 1018.18 373.341C1010.59 373.341 1003.76 371.856 997.713 368.884C991.771 365.803 987.094 361.457 983.683 355.845C980.272 350.123 978.566 343.356 978.566 335.543ZM998.373 335.708C998.373 339.78 999.198 343.466 1000.85 346.767C1002.61 349.958 1004.98 352.544 1007.95 354.525C1010.92 356.395 1014.22 357.331 1017.85 357.331C1021.81 357.331 1025.22 356.395 1028.08 354.525C1031.05 352.544 1033.36 349.958 1035.02 346.767C1036.67 343.466 1037.49 339.78 1037.49 335.708C1037.49 331.527 1036.67 327.841 1035.02 324.65C1033.36 321.458 1031.05 318.928 1028.08 317.057C1025.22 315.076 1021.81 314.086 1017.85 314.086C1014.22 314.086 1010.92 315.076 1007.95 317.057C1004.98 318.928 1002.61 321.514 1000.85 324.815C999.198 328.006 998.373 331.637 998.373 335.708Z" fill="#E02AA4"/>
</g>
<defs>
<clipPath id="clip0_3246_13173">
<rect width="1755" height="400" fill="white"/>
</clipPath>
</defs>
</svg>
