<svg width="338" height="70" viewBox="0 0 338 70" fill="none" xmlns="http://www.w3.org/2000/svg">
<g filter="url(#filter0_d_249_3582)">
<path d="M0 20C0 8.9543 8.95431 0 20 0H310C321.046 0 330 8.95431 330 20V40C330 51.0457 321.046 60 310 60H20C8.95431 60 0 51.0457 0 40V20Z" fill="white"/>
<path d="M2.00909 20C2.00909 10.0639 10.0639 2.00909 20 2.00909H310C319.936 2.00909 327.991 10.0639 327.991 20V40C327.991 49.9361 319.936 57.9909 310 57.9909H20C10.0639 57.9909 2.00909 49.9361 2.00909 40V20Z" stroke="#6593EB" stroke-width="4.01818"/>
</g>
<path d="M299.281 11.7847C302.838 9.14003 305.237 7.83707 308.023 10.3406C309.69 11.7114 313.151 10.4068 316 9.0839L315.762 17.296C314.905 17.7112 314.157 18.1782 313.463 18.6118C311.518 19.8263 309.994 20.7787 307.666 19.594C305.475 18.1913 303.947 18.1057 301.942 18.8489L301.942 26.8639C301.942 27 301.942 27.0962 301.942 27.1914C301.942 27.2866 301.942 27.3125 301.942 27.427V40.945C301.942 41.3049 301.644 41.5967 301.277 41.5967H299.946C299.579 41.5967 299.281 41.3049 299.281 40.945V29.6078H289.626C289.627 29.6613 289.628 29.715 289.628 29.7689V49.7419C289.628 51.5413 288.139 53 286.302 53H282.571C280.734 53 279.245 51.5413 279.245 49.7419V39.4044C277.403 39.1017 276 37.5327 276 35.6427V32.0701C276 27.9903 279.376 24.6831 283.541 24.6831H283.787L284.534 24.6831C284.766 24.6831 284.217 24.6831 284.436 24.6831L284.461 24.6831H299.281V11.9476H299.288L299.281 11.7847Z" fill="#6593EB"/>
<path d="M289.953 17.7576C289.953 20.7324 287.41 23.144 284.274 23.144C281.138 23.144 278.596 20.7324 278.596 17.7576C278.596 14.7828 281.138 12.3712 284.274 12.3712C287.41 12.3712 289.953 14.7828 289.953 17.7576Z" fill="#6593EB"/>
<path d="M21.43 30.562C21.43 29.2447 21.6813 28.0053 22.184 26.844C22.6867 25.6827 23.38 24.6513 24.264 23.75C25.148 22.8487 26.1707 22.1467 27.332 21.644C28.5107 21.124 29.7673 20.864 31.102 20.864C32.4193 20.864 33.6587 21.124 34.82 21.644C35.9987 22.1467 37.03 22.8487 37.914 23.75C38.8153 24.6513 39.5173 25.6827 40.02 26.844C40.54 28.0053 40.8 29.2447 40.8 30.562C40.8 31.8967 40.54 33.1447 40.02 34.306C39.5173 35.4673 38.8153 36.4987 37.914 37.4C37.03 38.284 35.9987 38.9773 34.82 39.48C33.6587 39.9653 32.4193 40.208 31.102 40.208C29.75 40.208 28.4933 39.9653 27.332 39.48C26.1707 38.9773 25.148 38.2927 24.264 37.426C23.38 36.542 22.6867 35.5193 22.184 34.358C21.6813 33.1793 21.43 31.914 21.43 30.562ZM24.55 30.562C24.55 31.498 24.7147 32.3733 25.044 33.188C25.3907 34.0027 25.8673 34.722 26.474 35.346C27.0807 35.9527 27.7827 36.4293 28.58 36.776C29.3773 37.1227 30.244 37.296 31.18 37.296C32.0813 37.296 32.922 37.1227 33.702 36.776C34.4993 36.4293 35.1927 35.9527 35.782 35.346C36.3713 34.722 36.8307 34.0027 37.16 33.188C37.5067 32.3733 37.68 31.498 37.68 30.562C37.68 29.6087 37.5067 28.7247 37.16 27.91C36.8133 27.0953 36.3453 26.376 35.756 25.752C35.1667 25.128 34.4733 24.6427 33.676 24.296C32.8787 23.9493 32.0207 23.776 31.102 23.776C30.1833 23.776 29.3253 23.9493 28.528 24.296C27.7307 24.6427 27.0287 25.128 26.422 25.752C25.8327 26.376 25.3733 27.104 25.044 27.936C24.7147 28.7507 24.55 29.626 24.55 30.562ZM50.9262 40.286C50.1635 40.286 49.4269 40.1213 48.7162 39.792C48.0055 39.4627 47.4335 39.012 47.0002 38.44L47.1562 37.556V45.278H44.2442V28.794H46.7662L47.1562 31.342L46.8962 30.562C47.4335 29.9727 48.0835 29.4873 48.8462 29.106C49.6262 28.7073 50.5015 28.508 51.4722 28.508C52.5122 28.508 53.4395 28.7507 54.2542 29.236C55.0689 29.7213 55.7102 30.4147 56.1782 31.316C56.6635 32.2 56.9062 33.2487 56.9062 34.462C56.9062 35.6753 56.6462 36.7153 56.1262 37.582C55.6062 38.4487 54.8955 39.116 53.9942 39.584C53.0929 40.052 52.0702 40.286 50.9262 40.286ZM50.3542 37.972C50.9955 37.972 51.5849 37.8247 52.1222 37.53C52.6769 37.2353 53.1189 36.828 53.4482 36.308C53.7775 35.7707 53.9422 35.1727 53.9422 34.514C53.9422 33.8207 53.7862 33.214 53.4742 32.694C53.1795 32.1567 52.7722 31.7407 52.2522 31.446C51.7495 31.134 51.1862 30.978 50.5622 30.978C49.9902 30.978 49.4789 31.0733 49.0282 31.264C48.5775 31.4547 48.1962 31.732 47.8842 32.096C47.5722 32.4427 47.3295 32.8587 47.1562 33.344V35.554C47.2775 36.022 47.4855 36.438 47.7802 36.802C48.0749 37.166 48.4475 37.452 48.8982 37.66C49.3489 37.868 49.8342 37.972 50.3542 37.972ZM65.2384 40.286C63.9384 40.286 62.829 40.0347 61.9104 39.532C60.9917 39.0293 60.2897 38.336 59.8044 37.452C59.319 36.5507 59.0764 35.5367 59.0764 34.41C59.0764 33.3007 59.3537 32.304 59.9084 31.42C60.463 30.536 61.2084 29.834 62.1444 29.314C63.0977 28.7767 64.1464 28.508 65.2904 28.508C66.7984 28.508 68.0377 28.95 69.0084 29.834C69.9964 30.7007 70.655 31.9313 70.9844 33.526L62.1184 36.516L61.4424 34.878L68.3584 32.408L67.7604 32.746C67.5697 32.226 67.2577 31.7753 66.8244 31.394C66.4084 31.0127 65.819 30.822 65.0564 30.822C64.4497 30.822 63.9124 30.9693 63.4444 31.264C62.9764 31.5413 62.6037 31.94 62.3264 32.46C62.0664 32.9627 61.9364 33.5607 61.9364 34.254C61.9364 34.9647 62.0837 35.5887 62.3784 36.126C62.673 36.6633 63.0717 37.0793 63.5744 37.374C64.077 37.6513 64.649 37.79 65.2904 37.79C65.741 37.79 66.1744 37.712 66.5904 37.556C67.0064 37.4 67.3964 37.192 67.7604 36.932L69.0864 39.09C68.5144 39.454 67.8817 39.7487 67.1884 39.974C66.5124 40.182 65.8624 40.286 65.2384 40.286ZM76.4757 29.002L76.7357 31.368L76.6317 31.056C77.013 30.2933 77.5763 29.6867 78.3217 29.236C79.0843 28.768 79.9857 28.534 81.0257 28.534C82.0657 28.534 82.9237 28.8373 83.5997 29.444C84.2757 30.0507 84.6223 30.848 84.6397 31.836V40H81.7277V32.876C81.7103 32.3213 81.5543 31.8793 81.2597 31.55C80.965 31.2033 80.497 31.0213 79.8557 31.004C79.2663 31.004 78.7377 31.186 78.2697 31.55C77.8017 31.8967 77.429 32.382 77.1517 33.006C76.8917 33.6127 76.7617 34.3147 76.7617 35.112V40H73.8497V29.002H76.4757ZM97.5785 21.072H100.621V37.088H109.955V40H97.5785V21.072ZM118.609 40.286C117.309 40.286 116.2 40.0347 115.281 39.532C114.363 39.0293 113.661 38.336 113.175 37.452C112.69 36.5507 112.447 35.5367 112.447 34.41C112.447 33.3007 112.725 32.304 113.279 31.42C113.834 30.536 114.579 29.834 115.515 29.314C116.469 28.7767 117.517 28.508 118.661 28.508C120.169 28.508 121.409 28.95 122.379 29.834C123.367 30.7007 124.026 31.9313 124.355 33.526L115.489 36.516L114.813 34.878L121.729 32.408L121.131 32.746C120.941 32.226 120.629 31.7753 120.195 31.394C119.779 31.0127 119.19 30.822 118.427 30.822C117.821 30.822 117.283 30.9693 116.815 31.264C116.347 31.5413 115.975 31.94 115.697 32.46C115.437 32.9627 115.307 33.5607 115.307 34.254C115.307 34.9647 115.455 35.5887 115.749 36.126C116.044 36.6633 116.443 37.0793 116.945 37.374C117.448 37.6513 118.02 37.79 118.661 37.79C119.112 37.79 119.545 37.712 119.961 37.556C120.377 37.4 120.767 37.192 121.131 36.932L122.457 39.09C121.885 39.454 121.253 39.7487 120.559 39.974C119.883 40.182 119.233 40.286 118.609 40.286ZM131.849 40.286C130.809 40.286 129.864 40.0693 129.015 39.636C128.183 39.2027 127.524 38.5613 127.039 37.712C126.553 36.8453 126.311 35.7793 126.311 34.514C126.311 33.266 126.562 32.2 127.065 31.316C127.585 30.4147 128.261 29.7213 129.093 29.236C129.942 28.7507 130.861 28.508 131.849 28.508C132.906 28.508 133.755 28.716 134.397 29.132C135.055 29.548 135.567 30.042 135.931 30.614L135.775 31.03L136.061 29.002H138.739V40H135.827V37.322L136.113 38.024C136.043 38.128 135.905 38.3013 135.697 38.544C135.489 38.7693 135.203 39.0207 134.839 39.298C134.475 39.5753 134.041 39.8093 133.539 40C133.053 40.1907 132.49 40.286 131.849 40.286ZM132.655 37.894C133.175 37.894 133.643 37.7987 134.059 37.608C134.492 37.4173 134.856 37.1487 135.151 36.802C135.463 36.4553 135.688 36.0393 135.827 35.554V33.162C135.688 32.7113 135.463 32.3213 135.151 31.992C134.839 31.6453 134.457 31.3767 134.007 31.186C133.573 30.9953 133.088 30.9 132.551 30.9C131.961 30.9 131.415 31.0473 130.913 31.342C130.41 31.6367 130.003 32.044 129.691 32.564C129.396 33.084 129.249 33.682 129.249 34.358C129.249 35.0167 129.405 35.6147 129.717 36.152C130.029 36.6893 130.445 37.114 130.965 37.426C131.485 37.738 132.048 37.894 132.655 37.894ZM147.258 40.286C146.218 40.286 145.29 40.0433 144.476 39.558C143.661 39.0727 143.02 38.3793 142.552 37.478C142.084 36.5767 141.85 35.528 141.85 34.332C141.85 33.1013 142.101 32.0527 142.604 31.186C143.106 30.3193 143.791 29.6607 144.658 29.21C145.542 28.742 146.53 28.508 147.622 28.508C148.419 28.508 149.182 28.664 149.91 28.976C150.638 29.2707 151.218 29.704 151.652 30.276L151.6 31.264V19.72H154.486V40H151.574V37.53L151.86 38.232C151.305 38.8213 150.638 39.3153 149.858 39.714C149.095 40.0953 148.228 40.286 147.258 40.286ZM148.194 37.816C148.766 37.816 149.268 37.7207 149.702 37.53C150.152 37.3393 150.534 37.0707 150.846 36.724C151.175 36.36 151.418 35.9353 151.574 35.45V33.11C151.435 32.6593 151.201 32.2607 150.872 31.914C150.56 31.5673 150.17 31.2987 149.702 31.108C149.234 30.9173 148.731 30.822 148.194 30.822C147.57 30.822 146.998 30.9693 146.478 31.264C145.975 31.5587 145.568 31.966 145.256 32.486C144.944 33.006 144.788 33.604 144.788 34.28C144.788 34.9387 144.944 35.5367 145.256 36.074C145.568 36.6113 145.984 37.036 146.504 37.348C147.024 37.66 147.587 37.816 148.194 37.816ZM163.754 40.286C162.454 40.286 161.345 40.0347 160.426 39.532C159.507 39.0293 158.805 38.336 158.32 37.452C157.835 36.5507 157.592 35.5367 157.592 34.41C157.592 33.3007 157.869 32.304 158.424 31.42C158.979 30.536 159.724 29.834 160.66 29.314C161.613 28.7767 162.662 28.508 163.806 28.508C165.314 28.508 166.553 28.95 167.524 29.834C168.512 30.7007 169.171 31.9313 169.5 33.526L160.634 36.516L159.958 34.878L166.874 32.408L166.276 32.746C166.085 32.226 165.773 31.7753 165.34 31.394C164.924 31.0127 164.335 30.822 163.572 30.822C162.965 30.822 162.428 30.9693 161.96 31.264C161.492 31.5413 161.119 31.94 160.842 32.46C160.582 32.9627 160.452 33.5607 160.452 34.254C160.452 34.9647 160.599 35.5887 160.894 36.126C161.189 36.6633 161.587 37.0793 162.09 37.374C162.593 37.6513 163.165 37.79 163.806 37.79C164.257 37.79 164.69 37.712 165.106 37.556C165.522 37.4 165.912 37.192 166.276 36.932L167.602 39.09C167.03 39.454 166.397 39.7487 165.704 39.974C165.028 40.182 164.378 40.286 163.754 40.286ZM174.991 29.002L175.251 32.122L175.147 31.68C175.459 31.0213 175.884 30.458 176.421 29.99C176.976 29.5047 177.539 29.1407 178.111 28.898C178.683 28.638 179.151 28.508 179.515 28.508L179.385 31.42C178.553 31.3507 177.825 31.5067 177.201 31.888C176.595 32.252 176.118 32.7373 175.771 33.344C175.442 33.9507 175.277 34.592 175.277 35.268V40H172.365V29.002H174.991ZM196.778 21.072C198.217 21.072 199.448 21.3147 200.47 21.8C201.493 22.2853 202.273 22.9787 202.81 23.88C203.365 24.7813 203.642 25.8733 203.642 27.156C203.642 27.9013 203.521 28.6467 203.278 29.392C203.053 30.1373 202.689 30.8133 202.186 31.42C201.701 32.0267 201.042 32.5207 200.21 32.902C199.396 33.266 198.39 33.448 197.194 33.448H194.464V40H191.422V21.072H196.778ZM197.194 30.51C197.853 30.51 198.408 30.3973 198.858 30.172C199.309 29.9467 199.656 29.6607 199.898 29.314C200.158 28.9673 200.34 28.612 200.444 28.248C200.566 27.8667 200.626 27.5287 200.626 27.234C200.626 26.922 200.574 26.584 200.47 26.22C200.366 25.8387 200.193 25.4833 199.95 25.154C199.708 24.8073 199.37 24.53 198.936 24.322C198.503 24.0967 197.948 23.984 197.272 23.984H194.464V30.51H197.194ZM211.347 40.286C210.307 40.286 209.362 40.0693 208.513 39.636C207.681 39.2027 207.022 38.5613 206.537 37.712C206.051 36.8453 205.809 35.7793 205.809 34.514C205.809 33.266 206.06 32.2 206.563 31.316C207.083 30.4147 207.759 29.7213 208.591 29.236C209.44 28.7507 210.359 28.508 211.347 28.508C212.404 28.508 213.253 28.716 213.895 29.132C214.553 29.548 215.065 30.042 215.429 30.614L215.273 31.03L215.559 29.002H218.237V40H215.325V37.322L215.611 38.024C215.541 38.128 215.403 38.3013 215.195 38.544C214.987 38.7693 214.701 39.0207 214.337 39.298C213.973 39.5753 213.539 39.8093 213.037 40C212.551 40.1907 211.988 40.286 211.347 40.286ZM212.153 37.894C212.673 37.894 213.141 37.7987 213.557 37.608C213.99 37.4173 214.354 37.1487 214.649 36.802C214.961 36.4553 215.186 36.0393 215.325 35.554V33.162C215.186 32.7113 214.961 32.3213 214.649 31.992C214.337 31.6453 213.955 31.3767 213.505 31.186C213.071 30.9953 212.586 30.9 212.049 30.9C211.459 30.9 210.913 31.0473 210.411 31.342C209.908 31.6367 209.501 32.044 209.189 32.564C208.894 33.084 208.747 33.682 208.747 34.358C208.747 35.0167 208.903 35.6147 209.215 36.152C209.527 36.6893 209.943 37.114 210.463 37.426C210.983 37.738 211.546 37.894 212.153 37.894ZM224.884 29.002L225.144 31.368L225.04 31.056C225.421 30.2933 225.985 29.6867 226.73 29.236C227.493 28.768 228.394 28.534 229.434 28.534C230.474 28.534 231.332 28.8373 232.008 29.444C232.684 30.0507 233.031 30.848 233.048 31.836V40H230.136V32.876C230.119 32.3213 229.963 31.8793 229.668 31.55C229.373 31.2033 228.905 31.0213 228.264 31.004C227.675 31.004 227.146 31.186 226.678 31.55C226.21 31.8967 225.837 32.382 225.56 33.006C225.3 33.6127 225.17 34.3147 225.17 35.112V40H222.258V29.002H224.884ZM242.313 40.286C241.013 40.286 239.903 40.0347 238.985 39.532C238.066 39.0293 237.364 38.336 236.879 37.452C236.393 36.5507 236.151 35.5367 236.151 34.41C236.151 33.3007 236.428 32.304 236.983 31.42C237.537 30.536 238.283 29.834 239.219 29.314C240.172 28.7767 241.221 28.508 242.365 28.508C243.873 28.508 245.112 28.95 246.083 29.834C247.071 30.7007 247.729 31.9313 248.059 33.526L239.193 36.516L238.517 34.878L245.433 32.408L244.835 32.746C244.644 32.226 244.332 31.7753 243.899 31.394C243.483 31.0127 242.893 30.822 242.131 30.822C241.524 30.822 240.987 30.9693 240.519 31.264C240.051 31.5413 239.678 31.94 239.401 32.46C239.141 32.9627 239.011 33.5607 239.011 34.254C239.011 34.9647 239.158 35.5887 239.453 36.126C239.747 36.6633 240.146 37.0793 240.649 37.374C241.151 37.6513 241.723 37.79 242.365 37.79C242.815 37.79 243.249 37.712 243.665 37.556C244.081 37.4 244.471 37.192 244.835 36.932L246.161 39.09C245.589 39.454 244.956 39.7487 244.263 39.974C243.587 40.182 242.937 40.286 242.313 40.286ZM250.924 19.72H253.836V40H250.924V19.72Z" fill="#6593EB"/>
<defs>
<filter id="filter0_d_249_3582" x="0" y="0" width="338" height="70" filterUnits="userSpaceOnUse" color-interpolation-filters="sRGB">
<feFlood flood-opacity="0" result="BackgroundImageFix"/>
<feColorMatrix in="SourceAlpha" type="matrix" values="0 0 0 0 0 0 0 0 0 0 0 0 0 0 0 0 0 0 127 0" result="hardAlpha"/>
<feOffset dx="4" dy="6"/>
<feGaussianBlur stdDeviation="2"/>
<feComposite in2="hardAlpha" operator="out"/>
<feColorMatrix type="matrix" values="0 0 0 0 0 0 0 0 0 0 0 0 0 0 0 0 0 0 0.25 0"/>
<feBlend mode="normal" in2="BackgroundImageFix" result="effect1_dropShadow_249_3582"/>
<feBlend mode="normal" in="SourceGraphic" in2="effect1_dropShadow_249_3582" result="shape"/>
</filter>
</defs>
</svg>
