<svg width="342" height="74" viewBox="0 0 342 74" fill="none" xmlns="http://www.w3.org/2000/svg">
<g filter="url(#filter0_d_272_4389)">
<path d="M2 22C2 10.9543 10.9543 2 22 2H312C323.046 2 332 10.9543 332 22V42C332 53.0457 323.046 62 312 62H22C10.9543 62 2 53.0457 2 42V22Z" fill="white" stroke="#6593EB" stroke-width="4"/>
<path d="M301.281 13.7847C304.838 11.14 307.237 9.83707 310.023 12.3406C311.69 13.7114 315.151 12.4068 318 11.0839L317.762 19.296C316.905 19.7112 316.157 20.1782 315.463 20.6118C313.518 21.8263 311.994 22.7787 309.666 21.594C307.475 20.1913 305.947 20.1057 303.942 20.8489L303.942 28.8639C303.942 29 303.942 29.0962 303.942 29.1914C303.942 29.2866 303.942 29.3125 303.942 29.427V42.945C303.942 43.3049 303.644 43.5967 303.277 43.5967H301.946C301.579 43.5967 301.281 43.3049 301.281 42.945V31.6078H291.626C291.627 31.6613 291.628 31.715 291.628 31.7689V51.7419C291.628 53.5413 290.139 55 288.302 55H284.571C282.734 55 281.245 53.5413 281.245 51.7419V41.4044C279.403 41.1017 278 39.5327 278 37.6427V34.0701C278 29.9903 281.376 26.6831 285.541 26.6831H285.787L286.534 26.6831C286.766 26.6831 286.217 26.6831 286.436 26.6831L286.461 26.6831H301.281V13.9476H301.288L301.281 13.7847Z" fill="#6593EB"/>
<path d="M291.953 19.7576C291.953 22.7324 289.41 25.144 286.274 25.144C283.138 25.144 280.596 22.7324 280.596 19.7576C280.596 16.7828 283.138 14.3712 286.274 14.3712C289.41 14.3712 291.953 16.7828 291.953 19.7576Z" fill="#6593EB"/>
<path d="M23.43 32.562C23.43 31.2447 23.6813 30.0053 24.184 28.844C24.6867 27.6827 25.38 26.6513 26.264 25.75C27.148 24.8487 28.1707 24.1467 29.332 23.644C30.5107 23.124 31.7673 22.864 33.102 22.864C34.4193 22.864 35.6587 23.124 36.82 23.644C37.9987 24.1467 39.03 24.8487 39.914 25.75C40.8153 26.6513 41.5173 27.6827 42.02 28.844C42.54 30.0053 42.8 31.2447 42.8 32.562C42.8 33.8967 42.54 35.1447 42.02 36.306C41.5173 37.4673 40.8153 38.4987 39.914 39.4C39.03 40.284 37.9987 40.9773 36.82 41.48C35.6587 41.9653 34.4193 42.208 33.102 42.208C31.75 42.208 30.4933 41.9653 29.332 41.48C28.1707 40.9773 27.148 40.2927 26.264 39.426C25.38 38.542 24.6867 37.5193 24.184 36.358C23.6813 35.1793 23.43 33.914 23.43 32.562ZM26.55 32.562C26.55 33.498 26.7147 34.3733 27.044 35.188C27.3907 36.0027 27.8673 36.722 28.474 37.346C29.0807 37.9527 29.7827 38.4293 30.58 38.776C31.3773 39.1227 32.244 39.296 33.18 39.296C34.0813 39.296 34.922 39.1227 35.702 38.776C36.4993 38.4293 37.1927 37.9527 37.782 37.346C38.3713 36.722 38.8307 36.0027 39.16 35.188C39.5067 34.3733 39.68 33.498 39.68 32.562C39.68 31.6087 39.5067 30.7247 39.16 29.91C38.8133 29.0953 38.3453 28.376 37.756 27.752C37.1667 27.128 36.4733 26.6427 35.676 26.296C34.8787 25.9493 34.0207 25.776 33.102 25.776C32.1833 25.776 31.3253 25.9493 30.528 26.296C29.7307 26.6427 29.0287 27.128 28.422 27.752C27.8327 28.376 27.3733 29.104 27.044 29.936C26.7147 30.7507 26.55 31.626 26.55 32.562ZM52.9262 42.286C52.1635 42.286 51.4269 42.1213 50.7162 41.792C50.0055 41.4627 49.4335 41.012 49.0002 40.44L49.1562 39.556V47.278H46.2442V30.794H48.7662L49.1562 33.342L48.8962 32.562C49.4335 31.9727 50.0835 31.4873 50.8462 31.106C51.6262 30.7073 52.5015 30.508 53.4722 30.508C54.5122 30.508 55.4395 30.7507 56.2542 31.236C57.0689 31.7213 57.7102 32.4147 58.1782 33.316C58.6635 34.2 58.9062 35.2487 58.9062 36.462C58.9062 37.6753 58.6462 38.7153 58.1262 39.582C57.6062 40.4487 56.8955 41.116 55.9942 41.584C55.0929 42.052 54.0702 42.286 52.9262 42.286ZM52.3542 39.972C52.9955 39.972 53.5849 39.8247 54.1222 39.53C54.6769 39.2353 55.1189 38.828 55.4482 38.308C55.7775 37.7707 55.9422 37.1727 55.9422 36.514C55.9422 35.8207 55.7862 35.214 55.4742 34.694C55.1795 34.1567 54.7722 33.7407 54.2522 33.446C53.7495 33.134 53.1862 32.978 52.5622 32.978C51.9902 32.978 51.4789 33.0733 51.0282 33.264C50.5775 33.4547 50.1962 33.732 49.8842 34.096C49.5722 34.4427 49.3295 34.8587 49.1562 35.344V37.554C49.2775 38.022 49.4855 38.438 49.7802 38.802C50.0749 39.166 50.4475 39.452 50.8982 39.66C51.3489 39.868 51.8342 39.972 52.3542 39.972ZM67.2384 42.286C65.9384 42.286 64.829 42.0347 63.9104 41.532C62.9917 41.0293 62.2897 40.336 61.8044 39.452C61.319 38.5507 61.0764 37.5367 61.0764 36.41C61.0764 35.3007 61.3537 34.304 61.9084 33.42C62.463 32.536 63.2084 31.834 64.1444 31.314C65.0977 30.7767 66.1464 30.508 67.2904 30.508C68.7984 30.508 70.0377 30.95 71.0084 31.834C71.9964 32.7007 72.655 33.9313 72.9844 35.526L64.1184 38.516L63.4424 36.878L70.3584 34.408L69.7604 34.746C69.5697 34.226 69.2577 33.7753 68.8244 33.394C68.4084 33.0127 67.819 32.822 67.0564 32.822C66.4497 32.822 65.9124 32.9693 65.4444 33.264C64.9764 33.5413 64.6037 33.94 64.3264 34.46C64.0664 34.9627 63.9364 35.5607 63.9364 36.254C63.9364 36.9647 64.0837 37.5887 64.3784 38.126C64.673 38.6633 65.0717 39.0793 65.5744 39.374C66.077 39.6513 66.649 39.79 67.2904 39.79C67.741 39.79 68.1744 39.712 68.5904 39.556C69.0064 39.4 69.3964 39.192 69.7604 38.932L71.0864 41.09C70.5144 41.454 69.8817 41.7487 69.1884 41.974C68.5124 42.182 67.8624 42.286 67.2384 42.286ZM78.4757 31.002L78.7357 33.368L78.6317 33.056C79.013 32.2933 79.5763 31.6867 80.3217 31.236C81.0843 30.768 81.9857 30.534 83.0257 30.534C84.0657 30.534 84.9237 30.8373 85.5997 31.444C86.2757 32.0507 86.6223 32.848 86.6397 33.836V42H83.7277V34.876C83.7103 34.3213 83.5543 33.8793 83.2597 33.55C82.965 33.2033 82.497 33.0213 81.8557 33.004C81.2663 33.004 80.7377 33.186 80.2697 33.55C79.8017 33.8967 79.429 34.382 79.1517 35.006C78.8917 35.6127 78.7617 36.3147 78.7617 37.112V42H75.8497V31.002H78.4757ZM99.5785 23.072H102.621V39.088H111.955V42H99.5785V23.072ZM120.609 42.286C119.309 42.286 118.2 42.0347 117.281 41.532C116.363 41.0293 115.661 40.336 115.175 39.452C114.69 38.5507 114.447 37.5367 114.447 36.41C114.447 35.3007 114.725 34.304 115.279 33.42C115.834 32.536 116.579 31.834 117.515 31.314C118.469 30.7767 119.517 30.508 120.661 30.508C122.169 30.508 123.409 30.95 124.379 31.834C125.367 32.7007 126.026 33.9313 126.355 35.526L117.489 38.516L116.813 36.878L123.729 34.408L123.131 34.746C122.941 34.226 122.629 33.7753 122.195 33.394C121.779 33.0127 121.19 32.822 120.427 32.822C119.821 32.822 119.283 32.9693 118.815 33.264C118.347 33.5413 117.975 33.94 117.697 34.46C117.437 34.9627 117.307 35.5607 117.307 36.254C117.307 36.9647 117.455 37.5887 117.749 38.126C118.044 38.6633 118.443 39.0793 118.945 39.374C119.448 39.6513 120.02 39.79 120.661 39.79C121.112 39.79 121.545 39.712 121.961 39.556C122.377 39.4 122.767 39.192 123.131 38.932L124.457 41.09C123.885 41.454 123.253 41.7487 122.559 41.974C121.883 42.182 121.233 42.286 120.609 42.286ZM133.849 42.286C132.809 42.286 131.864 42.0693 131.015 41.636C130.183 41.2027 129.524 40.5613 129.039 39.712C128.553 38.8453 128.311 37.7793 128.311 36.514C128.311 35.266 128.562 34.2 129.065 33.316C129.585 32.4147 130.261 31.7213 131.093 31.236C131.942 30.7507 132.861 30.508 133.849 30.508C134.906 30.508 135.755 30.716 136.397 31.132C137.055 31.548 137.567 32.042 137.931 32.614L137.775 33.03L138.061 31.002H140.739V42H137.827V39.322L138.113 40.024C138.043 40.128 137.905 40.3013 137.697 40.544C137.489 40.7693 137.203 41.0207 136.839 41.298C136.475 41.5753 136.041 41.8093 135.539 42C135.053 42.1907 134.49 42.286 133.849 42.286ZM134.655 39.894C135.175 39.894 135.643 39.7987 136.059 39.608C136.492 39.4173 136.856 39.1487 137.151 38.802C137.463 38.4553 137.688 38.0393 137.827 37.554V35.162C137.688 34.7113 137.463 34.3213 137.151 33.992C136.839 33.6453 136.457 33.3767 136.007 33.186C135.573 32.9953 135.088 32.9 134.551 32.9C133.961 32.9 133.415 33.0473 132.913 33.342C132.41 33.6367 132.003 34.044 131.691 34.564C131.396 35.084 131.249 35.682 131.249 36.358C131.249 37.0167 131.405 37.6147 131.717 38.152C132.029 38.6893 132.445 39.114 132.965 39.426C133.485 39.738 134.048 39.894 134.655 39.894ZM149.258 42.286C148.218 42.286 147.29 42.0433 146.476 41.558C145.661 41.0727 145.02 40.3793 144.552 39.478C144.084 38.5767 143.85 37.528 143.85 36.332C143.85 35.1013 144.101 34.0527 144.604 33.186C145.106 32.3193 145.791 31.6607 146.658 31.21C147.542 30.742 148.53 30.508 149.622 30.508C150.419 30.508 151.182 30.664 151.91 30.976C152.638 31.2707 153.218 31.704 153.652 32.276L153.6 33.264V21.72H156.486V42H153.574V39.53L153.86 40.232C153.305 40.8213 152.638 41.3153 151.858 41.714C151.095 42.0953 150.228 42.286 149.258 42.286ZM150.194 39.816C150.766 39.816 151.268 39.7207 151.702 39.53C152.152 39.3393 152.534 39.0707 152.846 38.724C153.175 38.36 153.418 37.9353 153.574 37.45V35.11C153.435 34.6593 153.201 34.2607 152.872 33.914C152.56 33.5673 152.17 33.2987 151.702 33.108C151.234 32.9173 150.731 32.822 150.194 32.822C149.57 32.822 148.998 32.9693 148.478 33.264C147.975 33.5587 147.568 33.966 147.256 34.486C146.944 35.006 146.788 35.604 146.788 36.28C146.788 36.9387 146.944 37.5367 147.256 38.074C147.568 38.6113 147.984 39.036 148.504 39.348C149.024 39.66 149.587 39.816 150.194 39.816ZM165.754 42.286C164.454 42.286 163.345 42.0347 162.426 41.532C161.507 41.0293 160.805 40.336 160.32 39.452C159.835 38.5507 159.592 37.5367 159.592 36.41C159.592 35.3007 159.869 34.304 160.424 33.42C160.979 32.536 161.724 31.834 162.66 31.314C163.613 30.7767 164.662 30.508 165.806 30.508C167.314 30.508 168.553 30.95 169.524 31.834C170.512 32.7007 171.171 33.9313 171.5 35.526L162.634 38.516L161.958 36.878L168.874 34.408L168.276 34.746C168.085 34.226 167.773 33.7753 167.34 33.394C166.924 33.0127 166.335 32.822 165.572 32.822C164.965 32.822 164.428 32.9693 163.96 33.264C163.492 33.5413 163.119 33.94 162.842 34.46C162.582 34.9627 162.452 35.5607 162.452 36.254C162.452 36.9647 162.599 37.5887 162.894 38.126C163.189 38.6633 163.587 39.0793 164.09 39.374C164.593 39.6513 165.165 39.79 165.806 39.79C166.257 39.79 166.69 39.712 167.106 39.556C167.522 39.4 167.912 39.192 168.276 38.932L169.602 41.09C169.03 41.454 168.397 41.7487 167.704 41.974C167.028 42.182 166.378 42.286 165.754 42.286ZM176.991 31.002L177.251 34.122L177.147 33.68C177.459 33.0213 177.884 32.458 178.421 31.99C178.976 31.5047 179.539 31.1407 180.111 30.898C180.683 30.638 181.151 30.508 181.515 30.508L181.385 33.42C180.553 33.3507 179.825 33.5067 179.201 33.888C178.595 34.252 178.118 34.7373 177.771 35.344C177.442 35.9507 177.277 36.592 177.277 37.268V42H174.365V31.002H176.991ZM198.778 23.072C200.217 23.072 201.448 23.3147 202.47 23.8C203.493 24.2853 204.273 24.9787 204.81 25.88C205.365 26.7813 205.642 27.8733 205.642 29.156C205.642 29.9013 205.521 30.6467 205.278 31.392C205.053 32.1373 204.689 32.8133 204.186 33.42C203.701 34.0267 203.042 34.5207 202.21 34.902C201.396 35.266 200.39 35.448 199.194 35.448H196.464V42H193.422V23.072H198.778ZM199.194 32.51C199.853 32.51 200.408 32.3973 200.858 32.172C201.309 31.9467 201.656 31.6607 201.898 31.314C202.158 30.9673 202.34 30.612 202.444 30.248C202.566 29.8667 202.626 29.5287 202.626 29.234C202.626 28.922 202.574 28.584 202.47 28.22C202.366 27.8387 202.193 27.4833 201.95 27.154C201.708 26.8073 201.37 26.53 200.936 26.322C200.503 26.0967 199.948 25.984 199.272 25.984H196.464V32.51H199.194ZM213.347 42.286C212.307 42.286 211.362 42.0693 210.513 41.636C209.681 41.2027 209.022 40.5613 208.537 39.712C208.051 38.8453 207.809 37.7793 207.809 36.514C207.809 35.266 208.06 34.2 208.563 33.316C209.083 32.4147 209.759 31.7213 210.591 31.236C211.44 30.7507 212.359 30.508 213.347 30.508C214.404 30.508 215.253 30.716 215.895 31.132C216.553 31.548 217.065 32.042 217.429 32.614L217.273 33.03L217.559 31.002H220.237V42H217.325V39.322L217.611 40.024C217.541 40.128 217.403 40.3013 217.195 40.544C216.987 40.7693 216.701 41.0207 216.337 41.298C215.973 41.5753 215.539 41.8093 215.037 42C214.551 42.1907 213.988 42.286 213.347 42.286ZM214.153 39.894C214.673 39.894 215.141 39.7987 215.557 39.608C215.99 39.4173 216.354 39.1487 216.649 38.802C216.961 38.4553 217.186 38.0393 217.325 37.554V35.162C217.186 34.7113 216.961 34.3213 216.649 33.992C216.337 33.6453 215.955 33.3767 215.505 33.186C215.071 32.9953 214.586 32.9 214.049 32.9C213.459 32.9 212.913 33.0473 212.411 33.342C211.908 33.6367 211.501 34.044 211.189 34.564C210.894 35.084 210.747 35.682 210.747 36.358C210.747 37.0167 210.903 37.6147 211.215 38.152C211.527 38.6893 211.943 39.114 212.463 39.426C212.983 39.738 213.546 39.894 214.153 39.894ZM226.884 31.002L227.144 33.368L227.04 33.056C227.421 32.2933 227.985 31.6867 228.73 31.236C229.493 30.768 230.394 30.534 231.434 30.534C232.474 30.534 233.332 30.8373 234.008 31.444C234.684 32.0507 235.031 32.848 235.048 33.836V42H232.136V34.876C232.119 34.3213 231.963 33.8793 231.668 33.55C231.373 33.2033 230.905 33.0213 230.264 33.004C229.675 33.004 229.146 33.186 228.678 33.55C228.21 33.8967 227.837 34.382 227.56 35.006C227.3 35.6127 227.17 36.3147 227.17 37.112V42H224.258V31.002H226.884ZM244.313 42.286C243.013 42.286 241.903 42.0347 240.985 41.532C240.066 41.0293 239.364 40.336 238.879 39.452C238.393 38.5507 238.151 37.5367 238.151 36.41C238.151 35.3007 238.428 34.304 238.983 33.42C239.537 32.536 240.283 31.834 241.219 31.314C242.172 30.7767 243.221 30.508 244.365 30.508C245.873 30.508 247.112 30.95 248.083 31.834C249.071 32.7007 249.729 33.9313 250.059 35.526L241.193 38.516L240.517 36.878L247.433 34.408L246.835 34.746C246.644 34.226 246.332 33.7753 245.899 33.394C245.483 33.0127 244.893 32.822 244.131 32.822C243.524 32.822 242.987 32.9693 242.519 33.264C242.051 33.5413 241.678 33.94 241.401 34.46C241.141 34.9627 241.011 35.5607 241.011 36.254C241.011 36.9647 241.158 37.5887 241.453 38.126C241.747 38.6633 242.146 39.0793 242.649 39.374C243.151 39.6513 243.723 39.79 244.365 39.79C244.815 39.79 245.249 39.712 245.665 39.556C246.081 39.4 246.471 39.192 246.835 38.932L248.161 41.09C247.589 41.454 246.956 41.7487 246.263 41.974C245.587 42.182 244.937 42.286 244.313 42.286ZM252.924 21.72H255.836V42H252.924V21.72Z" fill="#6593EB"/>
</g>
<defs>
<filter id="filter0_d_272_4389" x="0" y="0" width="342" height="74" filterUnits="userSpaceOnUse" color-interpolation-filters="sRGB">
<feFlood flood-opacity="0" result="BackgroundImageFix"/>
<feColorMatrix in="SourceAlpha" type="matrix" values="0 0 0 0 0 0 0 0 0 0 0 0 0 0 0 0 0 0 127 0" result="hardAlpha"/>
<feOffset dx="4" dy="6"/>
<feGaussianBlur stdDeviation="2"/>
<feColorMatrix type="matrix" values="0 0 0 0 0 0 0 0 0 0 0 0 0 0 0 0 0 0 0.25 0"/>
<feBlend mode="normal" in2="BackgroundImageFix" result="effect1_dropShadow_272_4389"/>
<feBlend mode="normal" in="SourceGraphic" in2="effect1_dropShadow_272_4389" result="shape"/>
</filter>
</defs>
</svg>
