<svg width="258" height="258" viewBox="0 0 258 258" fill="none" xmlns="http://www.w3.org/2000/svg">
<g filter="url(#filter0_d_1093_631)">
<ellipse cx="129.278" cy="124.999" rx="124.722" ry="124.999" fill="#D2D2D2" fill-opacity="0.99"/>
</g>
<rect x="40.3126" y="118.055" width="12.7481" height="15.5554" rx="4.16663" fill="#5689EB" stroke="black" stroke-width="0.55555"/>
<path d="M50.8398 125.833H83.4838L74.6252 171.153C74.4688 171.954 74.5879 172.783 74.963 173.507L81.0528 185.26C82.1066 187.294 80.6305 189.722 78.3398 189.722H55.0064C52.7052 189.722 50.8398 187.856 50.8398 185.555V125.833Z" fill="#5689EB" stroke="black" stroke-width="0.55555"/>
<path d="M141.193 88.3044L141.193 162.744C141.193 171.349 132.017 176.846 124.43 172.785L81.6871 149.909C81.0662 149.577 80.4172 149.3 79.7476 149.082L57.3254 141.785C41.8309 136.742 42.3911 114.631 58.1211 110.38L79.1692 104.69C80.2207 104.406 81.2284 103.979 82.1643 103.422L123.977 78.5195C131.568 73.9982 141.193 79.4685 141.193 88.3044Z" fill="white" stroke="black" stroke-width="0.55555"/>
<path d="M147.289 125.555C147.289 138.73 145.771 150.648 143.322 159.263C142.097 163.572 140.643 167.039 139.042 169.423C137.433 171.816 135.719 173.054 133.986 173.054C132.252 173.054 130.539 171.816 128.93 169.423C127.328 167.039 125.875 163.572 124.65 159.263C122.201 150.648 120.683 138.73 120.683 125.555C120.683 112.38 122.201 100.462 124.65 91.8472C125.875 87.5378 127.328 84.0706 128.93 81.6871C130.539 79.2937 132.252 78.0554 133.986 78.0554C135.719 78.0554 137.433 79.2937 139.042 81.6871C140.643 84.0706 142.097 87.5378 143.322 91.8472C145.771 100.462 147.289 112.38 147.289 125.555Z" fill="#BEBBBB" stroke="black" stroke-width="0.55555"/>
<path fill-rule="evenodd" clip-rule="evenodd" d="M149.906 97.7923C141.147 99.8841 132.037 108.771 129.882 117.329C126.8 129.563 132.006 142.899 142.203 148.888C147.292 151.878 156.297 153.029 165.54 151.872C172.498 151 173.56 150.269 172.723 146.924C172.079 144.355 171.858 144.267 167.974 145.038C165.733 145.483 160.532 145.846 156.417 145.845C149.868 145.843 148.408 145.494 144.736 143.058C136.785 137.784 133.471 125.235 137.613 116.092C140.119 110.563 146.734 105.111 152.404 103.903C161.866 101.889 171.21 105.81 174.747 113.281C177.89 119.92 175.007 132.303 170.092 133.273C167.768 133.733 167.423 131.362 168.807 124.466C171.599 110.561 171.679 111.693 167.908 111.693C166.066 111.693 164.357 112.249 164.111 112.93C163.753 113.92 163.246 113.92 161.572 112.93C158.754 111.261 153.069 111.368 149.624 113.154C143.527 116.314 139.946 127.246 143.04 133.245C143.913 134.937 145.618 137.017 146.829 137.867C149.794 139.949 156.317 139.811 159.949 137.589C162.834 135.825 162.98 135.828 165.526 137.705C167.776 139.365 168.615 139.476 171.554 138.504C184.544 134.207 185.898 111.488 173.719 102.177C167.728 97.5972 158.128 95.8291 149.906 97.7923ZM160.245 119.81C162.173 121.743 161.691 128.261 159.455 130.502C155.196 134.771 148.516 130.917 149.988 125.039C151.297 119.812 157.23 116.788 160.245 119.81Z" fill="#D7007B"/>
<line y1="-0.277775" x2="20.3727" y2="-0.277775" transform="matrix(-0.190462 0.981695 -0.981536 -0.191278 74.9564 151.109)" stroke="black" stroke-width="0.55555"/>
<line x1="1.38888" y1="-1.38888" x2="45.0729" y2="-1.38888" transform="matrix(0.835145 -0.550029 0.548327 0.836264 181.938 93.3317)" stroke="#FFA800" stroke-width="2.77775" stroke-linecap="round"/>
<line x1="1.38888" y1="-1.38888" x2="28.7751" y2="-1.38888" transform="matrix(0.955595 -0.294683 0.29349 0.955962 191.918 113.888)" stroke="#FFA800" stroke-width="2.77775" stroke-linecap="round"/>
<line x1="1.38888" y1="-1.38888" x2="41.7667" y2="-1.38888" transform="matrix(0.899126 0.437689 -0.43612 0.899889 181.938 154.442)" stroke="#FFA800" stroke-width="2.77775" stroke-linecap="round"/>
<line x1="1.38888" y1="-1.38888" x2="28.7751" y2="-1.38888" transform="matrix(0.955595 0.294683 0.29349 -0.955962 191.918 129.442)" stroke="#FFA800" stroke-width="2.77775" stroke-linecap="round"/>
<defs>
<filter id="filter0_d_1093_631" x="0.556641" y="0" width="257.443" height="257.998" filterUnits="userSpaceOnUse" color-interpolation-filters="sRGB">
<feFlood flood-opacity="0" result="BackgroundImageFix"/>
<feColorMatrix in="SourceAlpha" type="matrix" values="0 0 0 0 0 0 0 0 0 0 0 0 0 0 0 0 0 0 127 0" result="hardAlpha"/>
<feOffset dy="4"/>
<feGaussianBlur stdDeviation="2"/>
<feColorMatrix type="matrix" values="0 0 0 0 0 0 0 0 0 0 0 0 0 0 0 0 0 0 0.25 0"/>
<feBlend mode="normal" in2="BackgroundImageFix" result="effect1_dropShadow_1093_631"/>
<feBlend mode="normal" in="SourceGraphic" in2="effect1_dropShadow_1093_631" result="shape"/>
</filter>
</defs>
</svg>
