<svg width="34" height="34" viewBox="0 0 34 34" fill="none" xmlns="http://www.w3.org/2000/svg">
  <path xmlns="http://www.w3.org/2000/svg" d="M4.25 8.50004H7.08333M7.08333 8.50004H29.75M7.08333 8.50004V28.3334C7.08333 29.0848 7.38184 29.8055 7.9132 30.3368C8.44455 30.8682 9.16522 31.1667 9.91667 31.1667H24.0833C24.8348 31.1667 25.5554 30.8682 26.0868 30.3368C26.6182 29.8055 26.9167 29.0848 26.9167 28.3334V8.50004M11.3333 8.50004V5.66671C11.3333 4.91526 11.6318 4.19459 12.1632 3.66324C12.6946 3.13188 13.4152 2.83337 14.1667 2.83337H19.8333C20.5848 2.83337 21.3054 3.13188 21.8368 3.66324C22.3682 4.19459 22.6667 4.91526 22.6667 5.66671V8.50004M14.1667 15.5834V24.0834M19.8333 15.5834V24.0834" stroke="#5689EB" stroke-width="4" stroke-linecap="round" stroke-linejoin="round"/>
</svg>
