
<svg width="91" height="90" viewBox="0 0 91 90" fill="none" xmlns="http://www.w3.org/2000/svg">
<g filter="url(#filter0_d_212_9956)">
  <ellipse cx="45.2155" cy="39" rx="39.2155" ry="39" fill="#D9D9D9"/>
</g>
<path d="M41.1779 47.8543V45.3583C41.1779 43.7884 41.3663 42.4855 41.743 41.4494C42.1512 40.3819 42.6535 39.4715 43.25 38.7179C43.878 37.9644 44.5059 37.2894 45.1338 36.6929C45.9815 35.908 46.735 35.1388 47.3943 34.3853C48.0536 33.6004 48.3833 32.58 48.3833 31.3241C48.3833 30.6334 48.2106 30.0526 47.8653 29.5816C47.5199 29.1107 47.0961 28.7496 46.5937 28.4985C46.1228 28.2159 45.6518 28.0746 45.1809 28.0746C44.2704 28.0746 43.5012 28.2944 42.8733 28.7339C42.2767 29.1421 41.7744 29.6758 41.3663 30.3352C40.9895 30.9945 40.6598 31.6852 40.3773 32.4073L34.9614 29.8642C35.1498 29.2991 35.4795 28.577 35.9504 27.6979C36.4213 26.8188 37.0807 25.9397 37.9284 25.0606C38.8075 24.1815 39.8906 23.4437 41.1779 22.8472C42.4965 22.2506 44.0663 21.9524 45.8873 21.9524C47.6769 21.9524 49.2781 22.2663 50.6909 22.8942C52.1352 23.4908 53.2811 24.4327 54.1288 25.7199C54.9765 26.9758 55.4004 28.6398 55.4004 30.7119C55.4004 32.4387 55.1649 33.8358 54.694 34.9033C54.223 35.9708 53.6422 36.8813 52.9515 37.6348C52.2607 38.3569 51.57 39.079 50.8793 39.8011C50.3456 40.3349 49.8275 40.9314 49.3252 41.5907C48.8543 42.2186 48.4775 42.9564 48.1949 43.8041C47.9124 44.6518 47.7711 45.6722 47.7711 46.8653V47.8543H41.1779ZM44.4745 57.7912C43.3442 57.7912 42.418 57.4929 41.6959 56.8964C40.9738 56.2684 40.6127 55.4521 40.6127 54.4475C40.6127 53.4742 40.9738 52.6579 41.6959 51.9986C42.4494 51.3392 43.3756 51.0096 44.4745 51.0096C45.5733 51.0096 46.4681 51.3392 47.1589 51.9986C47.881 52.6579 48.242 53.4742 48.242 54.4475C48.242 55.4521 47.8967 56.2684 47.206 56.8964C46.5152 57.4929 45.6047 57.7912 44.4745 57.7912Z" fill="#E02AA4"/>
<defs>
  <filter id="filter0_d_212_9956" x="0.113208" y="0" width="90.2045" height="89.7736" filterUnits="userSpaceOnUse" color-interpolation-filters="sRGB">
    <feFlood flood-opacity="0" result="BackgroundImageFix"/>
    <feColorMatrix in="SourceAlpha" type="matrix" values="0 0 0 0 0 0 0 0 0 0 0 0 0 0 0 0 0 0 127 0" result="hardAlpha"/>
    <feOffset dy="5.88679"/>
    <feGaussianBlur stdDeviation="2.9434"/>
    <feComposite in2="hardAlpha" operator="out"/>
    <feColorMatrix type="matrix" values="0 0 0 0 0 0 0 0 0 0 0 0 0 0 0 0 0 0 0.25 0"/>
    <feBlend mode="normal" in2="BackgroundImageFix" result="effect1_dropShadow_212_9956"/>
    <feBlend mode="normal" in="SourceGraphic" in2="effect1_dropShadow_212_9956" result="shape"/>
  </filter>
</defs>
</svg>
