<svg width="108" height="108" viewBox="0 0 108 108" fill="none" xmlns="http://www.w3.org/2000/svg">
<g filter="url(#filter0_d_728_1235)">
<ellipse cx="54.1118" cy="50" rx="49.8891" ry="50" fill="#D2D2D2" fill-opacity="0.99"/>
</g>
<rect x="18.5252" y="47.2224" width="5.09929" height="6.22222" rx="1.66667" fill="#5689EB" stroke="black" stroke-width="0.222222"/>
<path d="M22.7361 50.3338H35.7938L32.2504 68.4619C32.1878 68.782 32.2354 69.1139 32.3855 69.4035L34.8214 74.1048C35.243 74.9184 34.6525 75.8893 33.7362 75.8893H24.4028C23.4823 75.8893 22.7361 75.1431 22.7361 74.2227V50.3338Z" fill="#5689EB" stroke="black" stroke-width="0.222222"/>
<path d="M25.3304 56.7144C19.1325 54.6972 19.3566 45.853 25.6486 44.1523L34.068 41.8765C34.4886 41.7628 34.8917 41.5921 35.266 41.3691L51.9912 31.4081C55.0278 29.5996 58.8778 31.7877 58.8778 35.3221L58.8778 65.0983C58.8778 68.5403 55.2073 70.739 52.1726 69.1148L35.0751 59.9643C34.8268 59.8314 34.5672 59.7207 34.2993 59.6335L25.3304 56.7144Z" fill="white" stroke="black" stroke-width="0.222222"/>
<path d="M61.3161 50.2224C61.3161 55.4926 60.7088 60.2596 59.7293 63.7057C59.2393 65.4294 58.6579 66.8163 58.0172 67.7697C57.3738 68.7271 56.6883 69.2224 55.9949 69.2224C55.3015 69.2224 54.616 68.7271 53.9726 67.7697C53.3318 66.8163 52.7505 65.4294 52.2605 63.7057C51.2809 60.2596 50.6736 55.4926 50.6736 50.2224C50.6736 44.9523 51.2809 40.1852 52.2605 36.7392C52.7505 35.0155 53.3318 33.6285 53.9726 32.6752C54.616 31.7178 55.3015 31.2224 55.9949 31.2224C56.6883 31.2224 57.3738 31.7178 58.0172 32.6752C58.6579 33.6285 59.2393 35.0155 59.7293 36.7392C60.7088 40.1852 61.3161 44.9523 61.3161 50.2224Z" fill="#BEBBBB" stroke="black" stroke-width="0.222222"/>
<path fill-rule="evenodd" clip-rule="evenodd" d="M63.2186 38.5312C59.5912 39.3976 55.8185 43.0781 54.9259 46.6221C53.6493 51.6889 55.8054 57.2119 60.0284 59.6924C62.1363 60.9306 65.8656 61.4075 69.6935 60.9282C72.5753 60.567 73.015 60.2644 72.6681 58.879C72.4014 57.8151 72.3102 57.7786 70.7014 58.098C69.7733 58.282 67.6196 58.4325 65.9151 58.4321C63.2031 58.4313 62.5985 58.287 61.0777 57.278C57.7848 55.0939 56.412 49.8964 58.1276 46.11C59.1653 43.8202 61.9052 41.5624 64.2531 41.0622C68.1718 40.2278 72.0419 41.8518 73.5067 44.9461C74.8083 47.6955 73.6143 52.8237 71.5788 53.2255C70.6163 53.4158 70.4732 52.4342 71.0466 49.5782C72.2026 43.8194 72.2358 44.288 70.674 44.288C69.9111 44.288 69.2035 44.5184 69.1016 44.8005C68.9535 45.2105 68.7433 45.2105 68.0503 44.8005C66.8829 44.1093 64.5288 44.1535 63.1021 44.8932C60.577 46.2019 59.0938 50.7295 60.3753 53.2141C60.7369 53.9148 61.4429 54.7762 61.9444 55.1279C63.1724 55.9902 65.8738 55.9332 67.3779 55.0131C68.5727 54.2825 68.6332 54.2837 69.6878 55.0611C70.6196 55.7483 70.9669 55.7946 72.1842 55.392C77.5641 53.6122 78.1249 44.2031 73.0809 40.3471C70.5996 38.4505 66.624 37.7182 63.2186 38.5312ZM67.5006 47.65C68.299 48.4503 68.0994 51.1497 67.1733 52.078C65.4095 53.8459 62.6431 52.2498 63.2526 49.8156C63.7946 47.6508 66.2517 46.3983 67.5006 47.65Z" fill="#D7007B"/>
<line y1="-0.111111" x2="8.14917" y2="-0.111111" transform="matrix(-0.190462 0.981695 -0.981536 -0.191278 32.3828 60.4443)" stroke="black" stroke-width="0.222222"/>
<line x1="0.555556" y1="-0.555556" x2="18.0293" y2="-0.555556" transform="matrix(0.835145 -0.550029 0.548327 0.836264 75.1758 37.333)" stroke="#FFA800" stroke-width="1.11111" stroke-linecap="round"/>
<line x1="0.555556" y1="-0.555556" x2="11.5102" y2="-0.555556" transform="matrix(0.955595 -0.294683 0.29349 0.955962 79.168 45.5557)" stroke="#FFA800" stroke-width="1.11111" stroke-linecap="round"/>
<line x1="0.555556" y1="-0.555556" x2="16.7068" y2="-0.555556" transform="matrix(0.899126 0.437689 -0.43612 0.899889 75.1758 61.7773)" stroke="#FFA800" stroke-width="1.11111" stroke-linecap="round"/>
<line x1="0.555556" y1="-0.555556" x2="11.5102" y2="-0.555556" transform="matrix(0.955595 0.294683 0.29349 -0.955962 79.168 51.7773)" stroke="#FFA800" stroke-width="1.11111" stroke-linecap="round"/>
<defs>
<filter id="filter0_d_728_1235" x="0.222656" y="0" width="107.778" height="108" filterUnits="userSpaceOnUse" color-interpolation-filters="sRGB">
<feFlood flood-opacity="0" result="BackgroundImageFix"/>
<feColorMatrix in="SourceAlpha" type="matrix" values="0 0 0 0 0 0 0 0 0 0 0 0 0 0 0 0 0 0 127 0" result="hardAlpha"/>
<feOffset dy="4"/>
<feGaussianBlur stdDeviation="2"/>
<feColorMatrix type="matrix" values="0 0 0 0 0 0 0 0 0 0 0 0 0 0 0 0 0 0 0.25 0"/>
<feBlend mode="normal" in2="BackgroundImageFix" result="effect1_dropShadow_728_1235"/>
<feBlend mode="normal" in="SourceGraphic" in2="effect1_dropShadow_728_1235" result="shape"/>
</filter>
</defs>
</svg>
