<svg width="46" height="46" viewBox="0 0 46 46" fill="none" xmlns="http://www.w3.org/2000/svg">
<g opacity="0.99" filter="url(#filter0_d_728_1234)">
<ellipse cx="23.0435" cy="19" rx="18.9566" ry="19" fill="#D2D2D2" fill-opacity="0.99"/>
</g>
<rect x="9.51559" y="17.9429" width="1.94203" height="2.36889" rx="0.6" fill="#5689EB" stroke="black" stroke-width="0.08"/>
<path d="M11.1152 19.1247H16.0817L14.733 26.0252C14.7105 26.1404 14.7276 26.2599 14.7816 26.3641L15.7317 28.1978C15.8834 28.4907 15.6708 28.8402 15.341 28.8402H11.7152C11.3838 28.8402 11.1152 28.5716 11.1152 28.2402V19.1247Z" fill="#5689EB" stroke="black" stroke-width="0.08"/>
<path d="M11.6784 21.4157C9.44719 20.6895 9.52785 17.5057 11.7929 16.8934L15.4368 15.9084C15.5882 15.8674 15.7334 15.806 15.8681 15.7257L22.3751 11.8501C23.4683 11.1989 24.8543 11.9867 24.8543 13.2591L24.8543 24.8939C24.8543 26.133 23.5329 26.9245 22.4404 26.3398L15.7994 22.7853C15.71 22.7374 15.6165 22.6976 15.5201 22.6662L11.6784 21.4157Z" fill="white" stroke="black" stroke-width="0.08"/>
<path d="M25.7797 19.0833C25.7797 21.0861 25.5489 22.8978 25.1767 24.2075C24.9905 24.8626 24.7695 25.3899 24.5258 25.7525C24.2812 26.1165 24.0202 26.3055 23.7556 26.3055C23.491 26.3055 23.2299 26.1165 22.9853 25.7525C22.7417 25.3899 22.5207 24.8626 22.3345 24.2075C21.9622 22.8978 21.7314 21.0861 21.7314 19.0833C21.7314 17.0805 21.9622 15.2688 22.3345 13.959C22.5207 13.3039 22.7417 12.7766 22.9853 12.4141C23.2299 12.0501 23.491 11.861 23.7556 11.861C24.0202 11.861 24.2812 12.0501 24.5258 12.4141C24.7695 12.7766 24.9905 13.3039 25.1767 13.959C25.5489 15.2688 25.7797 17.0805 25.7797 19.0833Z" fill="#BEBBBB" stroke="black" stroke-width="0.08"/>
<path fill-rule="evenodd" clip-rule="evenodd" d="M25.7089 14.6115C24.3899 14.9265 23.018 16.2649 22.6934 17.5536C22.2292 19.3961 23.0132 21.4045 24.5489 22.3065C25.3154 22.7567 26.6715 22.9301 28.0634 22.7558C29.1114 22.6245 29.2713 22.5145 29.1451 22.0107C29.0481 21.6238 29.015 21.6105 28.4299 21.7267C28.0924 21.7936 27.3093 21.8483 26.6895 21.8482C25.7033 21.8479 25.4834 21.7954 24.9304 21.4285C23.733 20.6343 23.2338 18.7443 23.8577 17.3674C24.235 16.5348 25.2313 15.7137 26.0851 15.5318C27.5101 15.2284 28.9174 15.819 29.45 16.9442C29.9234 17.944 29.4892 19.8088 28.749 19.9549C28.399 20.0241 28.3469 19.6671 28.5555 18.6286C28.9758 16.5345 28.9879 16.7049 28.42 16.7049C28.1426 16.7049 27.8852 16.7887 27.8482 16.8912C27.7944 17.0403 27.7179 17.0403 27.4659 16.8912C27.0414 16.6399 26.1854 16.656 25.6666 16.9249C24.7483 17.4008 24.209 19.0472 24.675 19.9507C24.8065 20.2055 25.0632 20.5187 25.2456 20.6467C25.6921 20.9602 26.6745 20.9395 27.2214 20.6049C27.6559 20.3392 27.6779 20.3397 28.0614 20.6224C28.4002 20.8722 28.5265 20.8891 28.9692 20.7427C30.9255 20.0955 31.1294 16.674 29.2952 15.2718C28.3929 14.5821 26.9473 14.3159 25.7089 14.6115ZM27.266 17.9274C27.5564 18.2184 27.4838 19.2 27.147 19.5376C26.5056 20.1805 25.4997 19.6001 25.7213 18.7149C25.9184 17.9277 26.8119 17.4722 27.266 17.9274Z" fill="#D7007B"/>
<line y1="-0.04" x2="3.09704" y2="-0.04" transform="matrix(-0.190449 0.981697 -0.981533 -0.191291 14.7861 22.969)" stroke="black" stroke-width="0.08"/>
<line x1="0.2" y1="-0.2" x2="6.86191" y2="-0.2" transform="matrix(0.835128 -0.550056 0.5483 0.836282 31.0469 14.1868)" stroke="#FFA800" stroke-width="0.4" stroke-linecap="round"/>
<line x1="0.2" y1="-0.2" x2="4.38468" y2="-0.2" transform="matrix(0.955589 -0.294701 0.293471 0.955968 32.5596 17.3109)" stroke="#FFA800" stroke-width="0.4" stroke-linecap="round"/>
<line x1="0.2" y1="-0.2" x2="6.35934" y2="-0.2" transform="matrix(0.899114 0.437713 -0.436095 0.8999 31.0469 23.4758)" stroke="#FFA800" stroke-width="0.4" stroke-linecap="round"/>
<line x1="0.2" y1="-0.2" x2="4.38468" y2="-0.2" transform="matrix(0.955589 0.294701 0.293471 -0.955968 32.5596 19.6767)" stroke="#FFA800" stroke-width="0.4" stroke-linecap="round"/>
<defs>
<filter id="filter0_d_728_1234" x="0.0869446" y="0" width="45.9131" height="46" filterUnits="userSpaceOnUse" color-interpolation-filters="sRGB">
<feFlood flood-opacity="0" result="BackgroundImageFix"/>
<feColorMatrix in="SourceAlpha" type="matrix" values="0 0 0 0 0 0 0 0 0 0 0 0 0 0 0 0 0 0 127 0" result="hardAlpha"/>
<feOffset dy="4"/>
<feGaussianBlur stdDeviation="2"/>
<feColorMatrix type="matrix" values="0 0 0 0 0 0 0 0 0 0 0 0 0 0 0 0 0 0 0.25 0"/>
<feBlend mode="normal" in2="BackgroundImageFix" result="effect1_dropShadow_728_1234"/>
<feBlend mode="normal" in="SourceGraphic" in2="effect1_dropShadow_728_1234" result="shape"/>
</filter>
</defs>
</svg>
